G04 #@! TF.GenerationSoftware,KiCad,Pcbnew,5.0.2-bee76a0~70~ubuntu16.04.1*
G04 #@! TF.CreationDate,2019-05-21T20:19:14+01:00*
G04 #@! TF.ProjectId,project,70726f6a-6563-4742-9e6b-696361645f70,rev?*
G04 #@! TF.SameCoordinates,Original*
G04 #@! TF.FileFunction,Legend,Top*
G04 #@! TF.FilePolarity,Positive*
%FSLAX46Y46*%
G04 Gerber Fmt 4.6, Leading zero omitted, Abs format (unit mm)*
G04 Created by KiCad (PCBNEW 5.0.2-bee76a0~70~ubuntu16.04.1) date Tue 21 May 2019 20:19:14 BST*
%MOMM*%
%LPD*%
G01*
G04 APERTURE LIST*
%ADD10C,0.150000*%
%ADD11C,0.375000*%
%ADD12C,0.120000*%
G04 APERTURE END LIST*
D10*
X148943095Y-90367380D02*
X149514523Y-90367380D01*
X149228809Y-91367380D02*
X149228809Y-90367380D01*
X149752619Y-90367380D02*
X150419285Y-91367380D01*
X150419285Y-90367380D02*
X149752619Y-91367380D01*
X150482380Y-89292380D02*
X150149047Y-88816190D01*
X149910952Y-89292380D02*
X149910952Y-88292380D01*
X150291904Y-88292380D01*
X150387142Y-88340000D01*
X150434761Y-88387619D01*
X150482380Y-88482857D01*
X150482380Y-88625714D01*
X150434761Y-88720952D01*
X150387142Y-88768571D01*
X150291904Y-88816190D01*
X149910952Y-88816190D01*
X150863333Y-89244761D02*
X151006190Y-89292380D01*
X151244285Y-89292380D01*
X151339523Y-89244761D01*
X151387142Y-89197142D01*
X151434761Y-89101904D01*
X151434761Y-89006666D01*
X151387142Y-88911428D01*
X151339523Y-88863809D01*
X151244285Y-88816190D01*
X151053809Y-88768571D01*
X150958571Y-88720952D01*
X150910952Y-88673333D01*
X150863333Y-88578095D01*
X150863333Y-88482857D01*
X150910952Y-88387619D01*
X150958571Y-88340000D01*
X151053809Y-88292380D01*
X151291904Y-88292380D01*
X151434761Y-88340000D01*
X151720476Y-88292380D02*
X152291904Y-88292380D01*
X152006190Y-89292380D02*
X152006190Y-88292380D01*
X151681190Y-87417380D02*
X151681190Y-86417380D01*
X151919285Y-86417380D01*
X152062142Y-86465000D01*
X152157380Y-86560238D01*
X152205000Y-86655476D01*
X152252619Y-86845952D01*
X152252619Y-86988809D01*
X152205000Y-87179285D01*
X152157380Y-87274523D01*
X152062142Y-87369761D01*
X151919285Y-87417380D01*
X151681190Y-87417380D01*
X152681190Y-87417380D02*
X152681190Y-86417380D01*
X153347857Y-86417380D02*
X153538333Y-86417380D01*
X153633571Y-86465000D01*
X153728809Y-86560238D01*
X153776428Y-86750714D01*
X153776428Y-87084047D01*
X153728809Y-87274523D01*
X153633571Y-87369761D01*
X153538333Y-87417380D01*
X153347857Y-87417380D01*
X153252619Y-87369761D01*
X153157380Y-87274523D01*
X153109761Y-87084047D01*
X153109761Y-86750714D01*
X153157380Y-86560238D01*
X153252619Y-86465000D01*
X153347857Y-86417380D01*
X153268095Y-84715000D02*
X153172857Y-84667380D01*
X153030000Y-84667380D01*
X152887142Y-84715000D01*
X152791904Y-84810238D01*
X152744285Y-84905476D01*
X152696666Y-85095952D01*
X152696666Y-85238809D01*
X152744285Y-85429285D01*
X152791904Y-85524523D01*
X152887142Y-85619761D01*
X153030000Y-85667380D01*
X153125238Y-85667380D01*
X153268095Y-85619761D01*
X153315714Y-85572142D01*
X153315714Y-85238809D01*
X153125238Y-85238809D01*
X153744285Y-85667380D02*
X153744285Y-84667380D01*
X154315714Y-85667380D01*
X154315714Y-84667380D01*
X154791904Y-85667380D02*
X154791904Y-84667380D01*
X155030000Y-84667380D01*
X155172857Y-84715000D01*
X155268095Y-84810238D01*
X155315714Y-84905476D01*
X155363333Y-85095952D01*
X155363333Y-85238809D01*
X155315714Y-85429285D01*
X155268095Y-85524523D01*
X155172857Y-85619761D01*
X155030000Y-85667380D01*
X154791904Y-85667380D01*
X155059761Y-83672142D02*
X155012142Y-83719761D01*
X154869285Y-83767380D01*
X154774047Y-83767380D01*
X154631190Y-83719761D01*
X154535952Y-83624523D01*
X154488333Y-83529285D01*
X154440714Y-83338809D01*
X154440714Y-83195952D01*
X154488333Y-83005476D01*
X154535952Y-82910238D01*
X154631190Y-82815000D01*
X154774047Y-82767380D01*
X154869285Y-82767380D01*
X155012142Y-82815000D01*
X155059761Y-82862619D01*
X155964523Y-83767380D02*
X155488333Y-83767380D01*
X155488333Y-82767380D01*
X156297857Y-83767380D02*
X156297857Y-82767380D01*
X156869285Y-83767380D02*
X156440714Y-83195952D01*
X156869285Y-82767380D02*
X156297857Y-83338809D01*
X156141904Y-80767380D02*
X156760952Y-80767380D01*
X156427619Y-81148333D01*
X156570476Y-81148333D01*
X156665714Y-81195952D01*
X156713333Y-81243571D01*
X156760952Y-81338809D01*
X156760952Y-81576904D01*
X156713333Y-81672142D01*
X156665714Y-81719761D01*
X156570476Y-81767380D01*
X156284761Y-81767380D01*
X156189523Y-81719761D01*
X156141904Y-81672142D01*
X157046666Y-80767380D02*
X157380000Y-81767380D01*
X157713333Y-80767380D01*
X157951428Y-80767380D02*
X158570476Y-80767380D01*
X158237142Y-81148333D01*
X158380000Y-81148333D01*
X158475238Y-81195952D01*
X158522857Y-81243571D01*
X158570476Y-81338809D01*
X158570476Y-81576904D01*
X158522857Y-81672142D01*
X158475238Y-81719761D01*
X158380000Y-81767380D01*
X158094285Y-81767380D01*
X157999047Y-81719761D01*
X157951428Y-81672142D01*
D11*
X129808571Y-70547142D02*
X130951428Y-70547142D01*
X130380000Y-71118571D02*
X130380000Y-69975714D01*
X124558571Y-70547142D02*
X125701428Y-70547142D01*
X147558571Y-70497142D02*
X148701428Y-70497142D01*
X142558571Y-70497142D02*
X143701428Y-70497142D01*
X143130000Y-71068571D02*
X143130000Y-69925714D01*
D10*
X125130000Y-68368571D02*
X125272857Y-68416190D01*
X125320476Y-68463809D01*
X125368095Y-68559047D01*
X125368095Y-68701904D01*
X125320476Y-68797142D01*
X125272857Y-68844761D01*
X125177619Y-68892380D01*
X124796666Y-68892380D01*
X124796666Y-67892380D01*
X125130000Y-67892380D01*
X125225238Y-67940000D01*
X125272857Y-67987619D01*
X125320476Y-68082857D01*
X125320476Y-68178095D01*
X125272857Y-68273333D01*
X125225238Y-68320952D01*
X125130000Y-68368571D01*
X124796666Y-68368571D01*
X125749047Y-68606666D02*
X126225238Y-68606666D01*
X125653809Y-68892380D02*
X125987142Y-67892380D01*
X126320476Y-68892380D01*
X126510952Y-67892380D02*
X127082380Y-67892380D01*
X126796666Y-68892380D02*
X126796666Y-67892380D01*
X127272857Y-67892380D02*
X127844285Y-67892380D01*
X127558571Y-68892380D02*
X127558571Y-67892380D01*
X128177619Y-68368571D02*
X128510952Y-68368571D01*
X128653809Y-68892380D02*
X128177619Y-68892380D01*
X128177619Y-67892380D01*
X128653809Y-67892380D01*
X129653809Y-68892380D02*
X129320476Y-68416190D01*
X129082380Y-68892380D02*
X129082380Y-67892380D01*
X129463333Y-67892380D01*
X129558571Y-67940000D01*
X129606190Y-67987619D01*
X129653809Y-68082857D01*
X129653809Y-68225714D01*
X129606190Y-68320952D01*
X129558571Y-68368571D01*
X129463333Y-68416190D01*
X129082380Y-68416190D01*
X130272857Y-68416190D02*
X130272857Y-68892380D01*
X129939523Y-67892380D02*
X130272857Y-68416190D01*
X130606190Y-67892380D01*
X143487142Y-68844761D02*
X143630000Y-68892380D01*
X143868095Y-68892380D01*
X143963333Y-68844761D01*
X144010952Y-68797142D01*
X144058571Y-68701904D01*
X144058571Y-68606666D01*
X144010952Y-68511428D01*
X143963333Y-68463809D01*
X143868095Y-68416190D01*
X143677619Y-68368571D01*
X143582380Y-68320952D01*
X143534761Y-68273333D01*
X143487142Y-68178095D01*
X143487142Y-68082857D01*
X143534761Y-67987619D01*
X143582380Y-67940000D01*
X143677619Y-67892380D01*
X143915714Y-67892380D01*
X144058571Y-67940000D01*
X144677619Y-67892380D02*
X144868095Y-67892380D01*
X144963333Y-67940000D01*
X145058571Y-68035238D01*
X145106190Y-68225714D01*
X145106190Y-68559047D01*
X145058571Y-68749523D01*
X144963333Y-68844761D01*
X144868095Y-68892380D01*
X144677619Y-68892380D01*
X144582380Y-68844761D01*
X144487142Y-68749523D01*
X144439523Y-68559047D01*
X144439523Y-68225714D01*
X144487142Y-68035238D01*
X144582380Y-67940000D01*
X144677619Y-67892380D01*
X146010952Y-68892380D02*
X145534761Y-68892380D01*
X145534761Y-67892380D01*
X146296666Y-68606666D02*
X146772857Y-68606666D01*
X146201428Y-68892380D02*
X146534761Y-67892380D01*
X146868095Y-68892380D01*
X147772857Y-68892380D02*
X147439523Y-68416190D01*
X147201428Y-68892380D02*
X147201428Y-67892380D01*
X147582380Y-67892380D01*
X147677619Y-67940000D01*
X147725238Y-67987619D01*
X147772857Y-68082857D01*
X147772857Y-68225714D01*
X147725238Y-68320952D01*
X147677619Y-68368571D01*
X147582380Y-68416190D01*
X147201428Y-68416190D01*
X135485714Y-99892380D02*
X134914285Y-99892380D01*
X135200000Y-99892380D02*
X135200000Y-98892380D01*
X135104761Y-99035238D01*
X135009523Y-99130476D01*
X134914285Y-99178095D01*
D12*
G04 #@! TO.C,C1*
X128578733Y-90750000D02*
X128921267Y-90750000D01*
X128578733Y-89730000D02*
X128921267Y-89730000D01*
G04 #@! TO.C,C3*
X132491267Y-90760000D02*
X132148733Y-90760000D01*
X132491267Y-89740000D02*
X132148733Y-89740000D01*
G04 #@! TO.C,D4*
X116630000Y-74730000D02*
X113770000Y-74730000D01*
X113770000Y-74730000D02*
X113770000Y-76650000D01*
X113770000Y-76650000D02*
X116630000Y-76650000D01*
G04 #@! TO.C,D5*
X155745000Y-76650000D02*
X158605000Y-76650000D01*
X155745000Y-74730000D02*
X155745000Y-76650000D01*
X158605000Y-74730000D02*
X155745000Y-74730000D01*
G04 #@! TO.C,Q1*
X146150000Y-81240000D02*
X146150000Y-82700000D01*
X142990000Y-81240000D02*
X142990000Y-83400000D01*
X142990000Y-81240000D02*
X143920000Y-81240000D01*
X146150000Y-81240000D02*
X145220000Y-81240000D01*
G04 #@! TO.C,Q2*
X137950000Y-90390000D02*
X137950000Y-88930000D01*
X141110000Y-90390000D02*
X141110000Y-88230000D01*
X141110000Y-90390000D02*
X140180000Y-90390000D01*
X137950000Y-90390000D02*
X138880000Y-90390000D01*
G04 #@! TO.C,Q4*
X144860000Y-88870000D02*
X143930000Y-88870000D01*
X141700000Y-88870000D02*
X142630000Y-88870000D01*
X141700000Y-88870000D02*
X141700000Y-91030000D01*
X144860000Y-88870000D02*
X144860000Y-90330000D01*
G04 #@! TO.C,R3*
X139358733Y-86370000D02*
X139701267Y-86370000D01*
X139358733Y-87390000D02*
X139701267Y-87390000D01*
G04 #@! TO.C,R4*
X144741267Y-84240000D02*
X144398733Y-84240000D01*
X144741267Y-85260000D02*
X144398733Y-85260000D01*
G04 #@! TO.C,R7*
X140223733Y-81560000D02*
X140566267Y-81560000D01*
X140223733Y-80540000D02*
X140566267Y-80540000D01*
G04 #@! TO.C,R12*
X143451267Y-87390000D02*
X143108733Y-87390000D01*
X143451267Y-86370000D02*
X143108733Y-86370000D01*
G04 #@! TO.C,U1*
X133980000Y-82340000D02*
X132720000Y-82340000D01*
X127160000Y-82340000D02*
X128420000Y-82340000D01*
X133980000Y-86100000D02*
X133980000Y-82340000D01*
X127160000Y-88350000D02*
X127160000Y-82340000D01*
D10*
G04 #@! TO.C,U2*
X134545000Y-105500000D02*
X138995000Y-105500000D01*
X133020000Y-98600000D02*
X138995000Y-98600000D01*
G04 #@! TO.C,REF\002A\002A*
X119774214Y-82930000D02*
G75*
G03X119774214Y-82930000I-1414214J0D01*
G01*
X119650000Y-81800000D02*
X119420000Y-81910000D01*
X119840000Y-81720000D02*
X119650000Y-81800000D01*
X119990000Y-81570000D02*
X119840000Y-81720000D01*
X120030000Y-81380000D02*
X119990000Y-81570000D01*
X119990000Y-81030000D02*
X120030000Y-81380000D01*
X119840000Y-80730000D02*
X119990000Y-81030000D01*
X119460000Y-80580000D02*
X119840000Y-80730000D01*
X119080000Y-80620000D02*
X119460000Y-80580000D01*
X118730000Y-80920000D02*
X119080000Y-80620000D01*
X118500000Y-81110000D02*
X118730000Y-80920000D01*
X118350000Y-81490000D02*
X118500000Y-81110000D01*
X117020000Y-82330000D02*
X117020000Y-82370000D01*
X116940000Y-82330000D02*
X117020000Y-82330000D01*
X116710000Y-82290000D02*
X116940000Y-82330000D01*
X116450000Y-82140000D02*
X116710000Y-82290000D01*
X116260000Y-81720000D02*
X116450000Y-82140000D01*
X116370000Y-81110000D02*
X116260000Y-81720000D01*
X116670000Y-80810000D02*
X116370000Y-81110000D01*
X117090000Y-80650000D02*
X116670000Y-80810000D01*
X117670000Y-80730000D02*
X117090000Y-80650000D01*
X118010000Y-80920000D02*
X117670000Y-80730000D01*
X118350000Y-81530000D02*
X118010000Y-80920000D01*
X117060000Y-83780000D02*
X117130000Y-83780000D01*
X116790000Y-84080000D02*
X117060000Y-83780000D01*
X116600000Y-84200000D02*
X116790000Y-84080000D01*
X116220000Y-84200000D02*
X116600000Y-84200000D01*
X115870000Y-83890000D02*
X116220000Y-84200000D01*
X115800000Y-83660000D02*
X115870000Y-83890000D01*
X115800000Y-83400000D02*
X115800000Y-83660000D01*
X115870000Y-83130000D02*
X115800000Y-83400000D01*
X116030000Y-82830000D02*
X115870000Y-83130000D01*
X116450000Y-82560000D02*
X116030000Y-82830000D01*
X116980000Y-82330000D02*
X116450000Y-82560000D01*
X118690000Y-84620000D02*
X118690000Y-84350000D01*
X118620000Y-84960000D02*
X118690000Y-84620000D01*
X118500000Y-85300000D02*
X118620000Y-84960000D01*
X118280000Y-85650000D02*
X118500000Y-85300000D01*
X117700000Y-85760000D02*
X118280000Y-85650000D01*
X117210000Y-85450000D02*
X117700000Y-85760000D01*
X116940000Y-84920000D02*
X117210000Y-85450000D01*
X116980000Y-84350000D02*
X116940000Y-84920000D01*
X117130000Y-83780000D02*
X116980000Y-84350000D01*
X119840000Y-83280000D02*
X119680000Y-83210000D01*
X120070000Y-83360000D02*
X119840000Y-83280000D01*
X120410000Y-83400000D02*
X120070000Y-83360000D01*
X120710000Y-83320000D02*
X120410000Y-83400000D01*
X121060000Y-83210000D02*
X120710000Y-83320000D01*
X121210000Y-82900000D02*
X121060000Y-83210000D01*
X121210000Y-82600000D02*
X121210000Y-82900000D01*
X121130000Y-82180000D02*
X121210000Y-82600000D01*
X120600000Y-81840000D02*
X121130000Y-82180000D01*
X120100000Y-81870000D02*
X120600000Y-81840000D01*
X119460000Y-82060000D02*
X120100000Y-81870000D01*
X118850000Y-84580000D02*
X118690000Y-84350000D01*
X119080000Y-84960000D02*
X118850000Y-84580000D01*
X119270000Y-85150000D02*
X119080000Y-84960000D01*
X119570000Y-85300000D02*
X119270000Y-85150000D01*
X119910000Y-85300000D02*
X119570000Y-85300000D01*
X120260000Y-85040000D02*
X119910000Y-85300000D01*
X120450000Y-84770000D02*
X120260000Y-85040000D01*
X120450000Y-84310000D02*
X120450000Y-84770000D01*
X120220000Y-83780000D02*
X120450000Y-84310000D01*
X119800000Y-83280000D02*
X120220000Y-83780000D01*
X119270000Y-83020000D02*
X119190000Y-83090000D01*
X119150000Y-83240000D02*
X119270000Y-83020000D01*
X119040000Y-83440000D02*
X119150000Y-83240000D01*
X118810000Y-83630000D02*
X119040000Y-83440000D01*
X118660000Y-83700000D02*
X118810000Y-83630000D01*
X118500000Y-83700000D02*
X118660000Y-83700000D01*
X118350000Y-83700000D02*
X118500000Y-83700000D01*
X118160000Y-83700000D02*
X118350000Y-83700000D01*
X118010000Y-83630000D02*
X118160000Y-83700000D01*
X117670000Y-83360000D02*
X118010000Y-83630000D01*
X117810000Y-82430000D02*
X117550000Y-82370000D01*
X117920000Y-82510000D02*
X117810000Y-82430000D01*
X117900000Y-82610000D02*
X117920000Y-82510000D01*
X117780000Y-82760000D02*
X117900000Y-82610000D01*
X117630000Y-82860000D02*
X117780000Y-82760000D01*
X117480000Y-82780000D02*
X117630000Y-82860000D01*
X117380000Y-82690000D02*
X117480000Y-82780000D01*
X117400000Y-82540000D02*
X117380000Y-82690000D01*
X117520000Y-82320000D02*
X117400000Y-82540000D01*
X118940000Y-82230000D02*
X118760000Y-82190000D01*
X119030000Y-82340000D02*
X118940000Y-82230000D01*
X119060000Y-82460000D02*
X119030000Y-82340000D01*
X118940000Y-82630000D02*
X119060000Y-82460000D01*
X118760000Y-82670000D02*
X118940000Y-82630000D01*
X118600000Y-82610000D02*
X118760000Y-82670000D01*
X118500000Y-82510000D02*
X118600000Y-82610000D01*
X118590000Y-82320000D02*
X118500000Y-82510000D01*
X118740000Y-82200000D02*
X118590000Y-82320000D01*
X119790000Y-89980000D02*
X119740000Y-89980000D01*
X119680000Y-89540000D02*
X119790000Y-89980000D01*
X119460000Y-88590000D02*
X119680000Y-89540000D01*
X119460000Y-88200000D02*
X119460000Y-88590000D01*
X119620000Y-87640000D02*
X119460000Y-88200000D01*
X119620000Y-87130000D02*
X119620000Y-87640000D01*
X119620000Y-86690000D02*
X119620000Y-87130000D01*
X119460000Y-86240000D02*
X119620000Y-86690000D01*
X119180000Y-85790000D02*
X119460000Y-86240000D01*
X118730000Y-84730000D02*
X119180000Y-85790000D01*
X119820000Y-88620000D02*
X119620000Y-88860000D01*
X119940000Y-88490000D02*
X119820000Y-88620000D01*
X120260000Y-88450000D02*
X119940000Y-88490000D01*
X120080000Y-88620000D02*
X120260000Y-88450000D01*
X119910000Y-88810000D02*
X120080000Y-88620000D01*
X119790000Y-89000000D02*
X119910000Y-88810000D01*
X119650000Y-89270000D02*
X119790000Y-89000000D01*
D12*
G04 #@! TO.C,D3*
X137945000Y-83325000D02*
X137945000Y-85325000D01*
X137945000Y-85325000D02*
X141795000Y-85325000D01*
X137945000Y-83325000D02*
X141795000Y-83325000D01*
G04 #@! TO.C,C1*
D10*
X128683333Y-91690000D02*
X128650000Y-91723333D01*
X128550000Y-91756666D01*
X128483333Y-91756666D01*
X128383333Y-91723333D01*
X128316666Y-91656666D01*
X128283333Y-91590000D01*
X128250000Y-91456666D01*
X128250000Y-91356666D01*
X128283333Y-91223333D01*
X128316666Y-91156666D01*
X128383333Y-91090000D01*
X128483333Y-91056666D01*
X128550000Y-91056666D01*
X128650000Y-91090000D01*
X128683333Y-91123333D01*
X129350000Y-91756666D02*
X128950000Y-91756666D01*
X129150000Y-91756666D02*
X129150000Y-91056666D01*
X129083333Y-91156666D01*
X129016666Y-91223333D01*
X128950000Y-91256666D01*
G04 #@! TO.C,C3*
X132183333Y-91790000D02*
X132150000Y-91823333D01*
X132050000Y-91856666D01*
X131983333Y-91856666D01*
X131883333Y-91823333D01*
X131816666Y-91756666D01*
X131783333Y-91690000D01*
X131750000Y-91556666D01*
X131750000Y-91456666D01*
X131783333Y-91323333D01*
X131816666Y-91256666D01*
X131883333Y-91190000D01*
X131983333Y-91156666D01*
X132050000Y-91156666D01*
X132150000Y-91190000D01*
X132183333Y-91223333D01*
X132416666Y-91156666D02*
X132850000Y-91156666D01*
X132616666Y-91423333D01*
X132716666Y-91423333D01*
X132783333Y-91456666D01*
X132816666Y-91490000D01*
X132850000Y-91556666D01*
X132850000Y-91723333D01*
X132816666Y-91790000D01*
X132783333Y-91823333D01*
X132716666Y-91856666D01*
X132516666Y-91856666D01*
X132450000Y-91823333D01*
X132416666Y-91790000D01*
G04 #@! TO.C,D4*
X115110511Y-74432319D02*
X115110511Y-73732319D01*
X115277178Y-73732319D01*
X115377178Y-73765653D01*
X115443844Y-73832319D01*
X115477178Y-73898986D01*
X115510511Y-74032319D01*
X115510511Y-74132319D01*
X115477178Y-74265653D01*
X115443844Y-74332319D01*
X115377178Y-74398986D01*
X115277178Y-74432319D01*
X115110511Y-74432319D01*
X116110511Y-73965653D02*
X116110511Y-74432319D01*
X115943844Y-73698986D02*
X115777178Y-74198986D01*
X116210511Y-74198986D01*
G04 #@! TO.C,D5*
X157088333Y-74432319D02*
X157088333Y-73732319D01*
X157255000Y-73732319D01*
X157355000Y-73765653D01*
X157421666Y-73832319D01*
X157455000Y-73898986D01*
X157488333Y-74032319D01*
X157488333Y-74132319D01*
X157455000Y-74265653D01*
X157421666Y-74332319D01*
X157355000Y-74398986D01*
X157255000Y-74432319D01*
X157088333Y-74432319D01*
X158121666Y-73732319D02*
X157788333Y-73732319D01*
X157755000Y-74065653D01*
X157788333Y-74032319D01*
X157855000Y-73998986D01*
X158021666Y-73998986D01*
X158088333Y-74032319D01*
X158121666Y-74065653D01*
X158155000Y-74132319D01*
X158155000Y-74298986D01*
X158121666Y-74365653D01*
X158088333Y-74398986D01*
X158021666Y-74432319D01*
X157855000Y-74432319D01*
X157788333Y-74398986D01*
X157755000Y-74365653D01*
G04 #@! TO.C,Q1*
X146933333Y-82423333D02*
X146866666Y-82390000D01*
X146800000Y-82323333D01*
X146700000Y-82223333D01*
X146633333Y-82190000D01*
X146566666Y-82190000D01*
X146600000Y-82356666D02*
X146533333Y-82323333D01*
X146466666Y-82256666D01*
X146433333Y-82123333D01*
X146433333Y-81890000D01*
X146466666Y-81756666D01*
X146533333Y-81690000D01*
X146600000Y-81656666D01*
X146733333Y-81656666D01*
X146800000Y-81690000D01*
X146866666Y-81756666D01*
X146900000Y-81890000D01*
X146900000Y-82123333D01*
X146866666Y-82256666D01*
X146800000Y-82323333D01*
X146733333Y-82356666D01*
X146600000Y-82356666D01*
X147566666Y-82356666D02*
X147166666Y-82356666D01*
X147366666Y-82356666D02*
X147366666Y-81656666D01*
X147300000Y-81756666D01*
X147233333Y-81823333D01*
X147166666Y-81856666D01*
G04 #@! TO.C,Q2*
X139433333Y-92323333D02*
X139366666Y-92290000D01*
X139300000Y-92223333D01*
X139200000Y-92123333D01*
X139133333Y-92090000D01*
X139066666Y-92090000D01*
X139100000Y-92256666D02*
X139033333Y-92223333D01*
X138966666Y-92156666D01*
X138933333Y-92023333D01*
X138933333Y-91790000D01*
X138966666Y-91656666D01*
X139033333Y-91590000D01*
X139100000Y-91556666D01*
X139233333Y-91556666D01*
X139300000Y-91590000D01*
X139366666Y-91656666D01*
X139400000Y-91790000D01*
X139400000Y-92023333D01*
X139366666Y-92156666D01*
X139300000Y-92223333D01*
X139233333Y-92256666D01*
X139100000Y-92256666D01*
X139666666Y-91623333D02*
X139700000Y-91590000D01*
X139766666Y-91556666D01*
X139933333Y-91556666D01*
X140000000Y-91590000D01*
X140033333Y-91623333D01*
X140066666Y-91690000D01*
X140066666Y-91756666D01*
X140033333Y-91856666D01*
X139633333Y-92256666D01*
X140066666Y-92256666D01*
G04 #@! TO.C,Q4*
X143233333Y-92323333D02*
X143166666Y-92290000D01*
X143100000Y-92223333D01*
X143000000Y-92123333D01*
X142933333Y-92090000D01*
X142866666Y-92090000D01*
X142900000Y-92256666D02*
X142833333Y-92223333D01*
X142766666Y-92156666D01*
X142733333Y-92023333D01*
X142733333Y-91790000D01*
X142766666Y-91656666D01*
X142833333Y-91590000D01*
X142900000Y-91556666D01*
X143033333Y-91556666D01*
X143100000Y-91590000D01*
X143166666Y-91656666D01*
X143200000Y-91790000D01*
X143200000Y-92023333D01*
X143166666Y-92156666D01*
X143100000Y-92223333D01*
X143033333Y-92256666D01*
X142900000Y-92256666D01*
X143800000Y-91790000D02*
X143800000Y-92256666D01*
X143633333Y-91523333D02*
X143466666Y-92023333D01*
X143900000Y-92023333D01*
G04 #@! TO.C,R3*
X136883333Y-87156666D02*
X136650000Y-86823333D01*
X136483333Y-87156666D02*
X136483333Y-86456666D01*
X136750000Y-86456666D01*
X136816666Y-86490000D01*
X136850000Y-86523333D01*
X136883333Y-86590000D01*
X136883333Y-86690000D01*
X136850000Y-86756666D01*
X136816666Y-86790000D01*
X136750000Y-86823333D01*
X136483333Y-86823333D01*
X137116666Y-86456666D02*
X137550000Y-86456666D01*
X137316666Y-86723333D01*
X137416666Y-86723333D01*
X137483333Y-86756666D01*
X137516666Y-86790000D01*
X137550000Y-86856666D01*
X137550000Y-87023333D01*
X137516666Y-87090000D01*
X137483333Y-87123333D01*
X137416666Y-87156666D01*
X137216666Y-87156666D01*
X137150000Y-87123333D01*
X137116666Y-87090000D01*
G04 #@! TO.C,R4*
X146783333Y-85056666D02*
X146550000Y-84723333D01*
X146383333Y-85056666D02*
X146383333Y-84356666D01*
X146650000Y-84356666D01*
X146716666Y-84390000D01*
X146750000Y-84423333D01*
X146783333Y-84490000D01*
X146783333Y-84590000D01*
X146750000Y-84656666D01*
X146716666Y-84690000D01*
X146650000Y-84723333D01*
X146383333Y-84723333D01*
X147383333Y-84590000D02*
X147383333Y-85056666D01*
X147216666Y-84323333D02*
X147050000Y-84823333D01*
X147483333Y-84823333D01*
G04 #@! TO.C,R7*
X140283333Y-82456666D02*
X140050000Y-82123333D01*
X139883333Y-82456666D02*
X139883333Y-81756666D01*
X140150000Y-81756666D01*
X140216666Y-81790000D01*
X140250000Y-81823333D01*
X140283333Y-81890000D01*
X140283333Y-81990000D01*
X140250000Y-82056666D01*
X140216666Y-82090000D01*
X140150000Y-82123333D01*
X139883333Y-82123333D01*
X140516666Y-81756666D02*
X140983333Y-81756666D01*
X140683333Y-82456666D01*
G04 #@! TO.C,R12*
X145450000Y-87256666D02*
X145216666Y-86923333D01*
X145050000Y-87256666D02*
X145050000Y-86556666D01*
X145316666Y-86556666D01*
X145383333Y-86590000D01*
X145416666Y-86623333D01*
X145450000Y-86690000D01*
X145450000Y-86790000D01*
X145416666Y-86856666D01*
X145383333Y-86890000D01*
X145316666Y-86923333D01*
X145050000Y-86923333D01*
X146116666Y-87256666D02*
X145716666Y-87256666D01*
X145916666Y-87256666D02*
X145916666Y-86556666D01*
X145850000Y-86656666D01*
X145783333Y-86723333D01*
X145716666Y-86756666D01*
X146383333Y-86623333D02*
X146416666Y-86590000D01*
X146483333Y-86556666D01*
X146650000Y-86556666D01*
X146716666Y-86590000D01*
X146750000Y-86623333D01*
X146783333Y-86690000D01*
X146783333Y-86756666D01*
X146750000Y-86856666D01*
X146350000Y-87256666D01*
X146783333Y-87256666D01*
G04 #@! TO.C,U1*
X130066666Y-79056666D02*
X130066666Y-79623333D01*
X130100000Y-79690000D01*
X130133333Y-79723333D01*
X130200000Y-79756666D01*
X130333333Y-79756666D01*
X130400000Y-79723333D01*
X130433333Y-79690000D01*
X130466666Y-79623333D01*
X130466666Y-79056666D01*
X131166666Y-79756666D02*
X130766666Y-79756666D01*
X130966666Y-79756666D02*
X130966666Y-79056666D01*
X130900000Y-79156666D01*
X130833333Y-79223333D01*
X130766666Y-79256666D01*
G04 #@! TO.C,U2*
X136236666Y-97366666D02*
X136236666Y-97933333D01*
X136270000Y-98000000D01*
X136303333Y-98033333D01*
X136370000Y-98066666D01*
X136503333Y-98066666D01*
X136570000Y-98033333D01*
X136603333Y-98000000D01*
X136636666Y-97933333D01*
X136636666Y-97366666D01*
X136936666Y-97433333D02*
X136970000Y-97400000D01*
X137036666Y-97366666D01*
X137203333Y-97366666D01*
X137270000Y-97400000D01*
X137303333Y-97433333D01*
X137336666Y-97500000D01*
X137336666Y-97566666D01*
X137303333Y-97666666D01*
X136903333Y-98066666D01*
X137336666Y-98066666D01*
X132686666Y-106633333D02*
X132786666Y-106666666D01*
X132953333Y-106666666D01*
X133020000Y-106633333D01*
X133053333Y-106600000D01*
X133086666Y-106533333D01*
X133086666Y-106466666D01*
X133053333Y-106400000D01*
X133020000Y-106366666D01*
X132953333Y-106333333D01*
X132820000Y-106300000D01*
X132753333Y-106266666D01*
X132720000Y-106233333D01*
X132686666Y-106166666D01*
X132686666Y-106100000D01*
X132720000Y-106033333D01*
X132753333Y-106000000D01*
X132820000Y-105966666D01*
X132986666Y-105966666D01*
X133086666Y-106000000D01*
X133286666Y-105966666D02*
X133686666Y-105966666D01*
X133486666Y-106666666D02*
X133486666Y-105966666D01*
X133920000Y-106666666D02*
X133920000Y-105966666D01*
X134153333Y-106466666D01*
X134386666Y-105966666D01*
X134386666Y-106666666D01*
X134653333Y-105966666D02*
X135086666Y-105966666D01*
X134853333Y-106233333D01*
X134953333Y-106233333D01*
X135020000Y-106266666D01*
X135053333Y-106300000D01*
X135086666Y-106366666D01*
X135086666Y-106533333D01*
X135053333Y-106600000D01*
X135020000Y-106633333D01*
X134953333Y-106666666D01*
X134753333Y-106666666D01*
X134686666Y-106633333D01*
X134653333Y-106600000D01*
X135353333Y-106033333D02*
X135386666Y-106000000D01*
X135453333Y-105966666D01*
X135620000Y-105966666D01*
X135686666Y-106000000D01*
X135720000Y-106033333D01*
X135753333Y-106100000D01*
X135753333Y-106166666D01*
X135720000Y-106266666D01*
X135320000Y-106666666D01*
X135753333Y-106666666D01*
X136386666Y-106666666D02*
X136053333Y-106666666D01*
X136053333Y-105966666D01*
X136753333Y-105966666D02*
X136820000Y-105966666D01*
X136886666Y-106000000D01*
X136920000Y-106033333D01*
X136953333Y-106100000D01*
X136986666Y-106233333D01*
X136986666Y-106400000D01*
X136953333Y-106533333D01*
X136920000Y-106600000D01*
X136886666Y-106633333D01*
X136820000Y-106666666D01*
X136753333Y-106666666D01*
X136686666Y-106633333D01*
X136653333Y-106600000D01*
X136620000Y-106533333D01*
X136586666Y-106400000D01*
X136586666Y-106233333D01*
X136620000Y-106100000D01*
X136653333Y-106033333D01*
X136686666Y-106000000D01*
X136753333Y-105966666D01*
X137220000Y-105966666D02*
X137653333Y-105966666D01*
X137420000Y-106233333D01*
X137520000Y-106233333D01*
X137586666Y-106266666D01*
X137620000Y-106300000D01*
X137653333Y-106366666D01*
X137653333Y-106533333D01*
X137620000Y-106600000D01*
X137586666Y-106633333D01*
X137520000Y-106666666D01*
X137320000Y-106666666D01*
X137253333Y-106633333D01*
X137220000Y-106600000D01*
X138320000Y-106666666D02*
X137920000Y-106666666D01*
X138120000Y-106666666D02*
X138120000Y-105966666D01*
X138053333Y-106066666D01*
X137986666Y-106133333D01*
X137920000Y-106166666D01*
X138853333Y-106300000D02*
X138620000Y-106300000D01*
X138620000Y-106666666D02*
X138620000Y-105966666D01*
X138953333Y-105966666D01*
X139520000Y-106200000D02*
X139520000Y-106666666D01*
X139353333Y-105933333D02*
X139186666Y-106433333D01*
X139620000Y-106433333D01*
X139886666Y-106666666D02*
X139886666Y-105966666D01*
X140153333Y-105966666D01*
X140220000Y-106000000D01*
X140253333Y-106033333D01*
X140286666Y-106100000D01*
X140286666Y-106200000D01*
X140253333Y-106266666D01*
X140220000Y-106300000D01*
X140153333Y-106333333D01*
X139886666Y-106333333D01*
X140520000Y-106666666D02*
X140886666Y-106200000D01*
X140520000Y-106200000D02*
X140886666Y-106666666D01*
G04 #@! TO.C,D3*
X136613333Y-84606666D02*
X136613333Y-83906666D01*
X136780000Y-83906666D01*
X136880000Y-83940000D01*
X136946666Y-84006666D01*
X136980000Y-84073333D01*
X137013333Y-84206666D01*
X137013333Y-84306666D01*
X136980000Y-84440000D01*
X136946666Y-84506666D01*
X136880000Y-84573333D01*
X136780000Y-84606666D01*
X136613333Y-84606666D01*
X137246666Y-83906666D02*
X137680000Y-83906666D01*
X137446666Y-84173333D01*
X137546666Y-84173333D01*
X137613333Y-84206666D01*
X137646666Y-84240000D01*
X137680000Y-84306666D01*
X137680000Y-84473333D01*
X137646666Y-84540000D01*
X137613333Y-84573333D01*
X137546666Y-84606666D01*
X137346666Y-84606666D01*
X137280000Y-84573333D01*
X137246666Y-84540000D01*
G04 #@! TD*
M02*
