G04 #@! TF.GenerationSoftware,KiCad,Pcbnew,5.0.2-bee76a0~70~ubuntu16.04.1*
G04 #@! TF.CreationDate,2019-03-17T10:40:41+00:00*
G04 #@! TF.ProjectId,project,70726f6a-6563-4742-9e6b-696361645f70,rev?*
G04 #@! TF.SameCoordinates,Original*
G04 #@! TF.FileFunction,Copper,L2,Bot*
G04 #@! TF.FilePolarity,Positive*
%FSLAX46Y46*%
G04 Gerber Fmt 4.6, Leading zero omitted, Abs format (unit mm)*
G04 Created by KiCad (PCBNEW 5.0.2-bee76a0~70~ubuntu16.04.1) date Sun 17 Mar 2019 10:40:41 GMT*
%MOMM*%
%LPD*%
G01*
G04 APERTURE LIST*
G04 #@! TA.AperFunction,ComponentPad*
%ADD10C,3.000000*%
G04 #@! TD*
G04 #@! TA.AperFunction,ComponentPad*
%ADD11R,3.000000X3.000000*%
G04 #@! TD*
G04 #@! TA.AperFunction,SMDPad,CuDef*
%ADD12R,9.400000X10.800000*%
G04 #@! TD*
G04 #@! TA.AperFunction,SMDPad,CuDef*
%ADD13R,4.600000X0.800000*%
G04 #@! TD*
G04 #@! TA.AperFunction,SMDPad,CuDef*
%ADD14R,4.600000X2.000000*%
G04 #@! TD*
G04 #@! TA.AperFunction,Conductor*
%ADD15C,0.100000*%
G04 #@! TD*
G04 #@! TA.AperFunction,SMDPad,CuDef*
%ADD16C,1.150000*%
G04 #@! TD*
G04 #@! TA.AperFunction,ComponentPad*
%ADD17R,1.700000X1.700000*%
G04 #@! TD*
G04 #@! TA.AperFunction,ComponentPad*
%ADD18O,1.700000X1.700000*%
G04 #@! TD*
G04 #@! TA.AperFunction,SMDPad,CuDef*
%ADD19C,0.950000*%
G04 #@! TD*
G04 #@! TA.AperFunction,SMDPad,CuDef*
%ADD20R,1.450000X0.450000*%
G04 #@! TD*
G04 #@! TA.AperFunction,ComponentPad*
%ADD21R,3.200000X3.200000*%
G04 #@! TD*
G04 #@! TA.AperFunction,ComponentPad*
%ADD22O,3.200000X3.200000*%
G04 #@! TD*
G04 #@! TA.AperFunction,ComponentPad*
%ADD23C,6.400000*%
G04 #@! TD*
G04 #@! TA.AperFunction,ViaPad*
%ADD24C,0.800000*%
G04 #@! TD*
G04 #@! TA.AperFunction,Conductor*
%ADD25C,0.250000*%
G04 #@! TD*
G04 #@! TA.AperFunction,Conductor*
%ADD26C,0.254000*%
G04 #@! TD*
G04 APERTURE END LIST*
D10*
G04 #@! TO.P,BT1,3*
G04 #@! TO.N,-BATT*
X92500000Y-102000000D03*
D11*
G04 #@! TO.P,BT1,2*
G04 #@! TO.N,GND*
X92500000Y-96000000D03*
D10*
G04 #@! TO.P,BT1,3*
G04 #@! TO.N,-BATT*
X92500000Y-108000000D03*
D11*
G04 #@! TO.P,BT1,1*
G04 #@! TO.N,/DIODE*
X97580000Y-108000000D03*
G04 #@! TD*
D12*
G04 #@! TO.P,U4,8*
G04 #@! TO.N,+24V*
X140875000Y-112000000D03*
D13*
G04 #@! TO.P,U4,6*
G04 #@! TO.N,/FR_DIAG*
X131725000Y-109460000D03*
G04 #@! TO.P,U4,5*
G04 #@! TO.N,Net-(R13-Pad1)*
X131725000Y-110730000D03*
G04 #@! TO.P,U4,3*
G04 #@! TO.N,/OUT*
X131725000Y-113270000D03*
D14*
G04 #@! TO.P,U4,2*
X131725000Y-114540000D03*
D13*
G04 #@! TO.P,U4,1*
X131725000Y-115810000D03*
G04 #@! TO.P,U4,4*
G04 #@! TO.N,/INPUT*
X131725000Y-112000000D03*
G04 #@! TO.P,U4,7*
G04 #@! TO.N,GND*
X131725000Y-108190000D03*
G04 #@! TD*
D15*
G04 #@! TO.N,GND*
G04 #@! TO.C,D1*
G36*
X173799505Y-85301204D02*
X173823773Y-85304804D01*
X173847572Y-85310765D01*
X173870671Y-85319030D01*
X173892850Y-85329520D01*
X173913893Y-85342132D01*
X173933599Y-85356747D01*
X173951777Y-85373223D01*
X173968253Y-85391401D01*
X173982868Y-85411107D01*
X173995480Y-85432150D01*
X174005970Y-85454329D01*
X174014235Y-85477428D01*
X174020196Y-85501227D01*
X174023796Y-85525495D01*
X174025000Y-85549999D01*
X174025000Y-86450001D01*
X174023796Y-86474505D01*
X174020196Y-86498773D01*
X174014235Y-86522572D01*
X174005970Y-86545671D01*
X173995480Y-86567850D01*
X173982868Y-86588893D01*
X173968253Y-86608599D01*
X173951777Y-86626777D01*
X173933599Y-86643253D01*
X173913893Y-86657868D01*
X173892850Y-86670480D01*
X173870671Y-86680970D01*
X173847572Y-86689235D01*
X173823773Y-86695196D01*
X173799505Y-86698796D01*
X173775001Y-86700000D01*
X173124999Y-86700000D01*
X173100495Y-86698796D01*
X173076227Y-86695196D01*
X173052428Y-86689235D01*
X173029329Y-86680970D01*
X173007150Y-86670480D01*
X172986107Y-86657868D01*
X172966401Y-86643253D01*
X172948223Y-86626777D01*
X172931747Y-86608599D01*
X172917132Y-86588893D01*
X172904520Y-86567850D01*
X172894030Y-86545671D01*
X172885765Y-86522572D01*
X172879804Y-86498773D01*
X172876204Y-86474505D01*
X172875000Y-86450001D01*
X172875000Y-85549999D01*
X172876204Y-85525495D01*
X172879804Y-85501227D01*
X172885765Y-85477428D01*
X172894030Y-85454329D01*
X172904520Y-85432150D01*
X172917132Y-85411107D01*
X172931747Y-85391401D01*
X172948223Y-85373223D01*
X172966401Y-85356747D01*
X172986107Y-85342132D01*
X173007150Y-85329520D01*
X173029329Y-85319030D01*
X173052428Y-85310765D01*
X173076227Y-85304804D01*
X173100495Y-85301204D01*
X173124999Y-85300000D01*
X173775001Y-85300000D01*
X173799505Y-85301204D01*
X173799505Y-85301204D01*
G37*
D16*
G04 #@! TD*
G04 #@! TO.P,D1,1*
G04 #@! TO.N,GND*
X173450000Y-86000000D03*
D15*
G04 #@! TO.N,Net-(D1-Pad2)*
G04 #@! TO.C,D1*
G36*
X175849505Y-85301204D02*
X175873773Y-85304804D01*
X175897572Y-85310765D01*
X175920671Y-85319030D01*
X175942850Y-85329520D01*
X175963893Y-85342132D01*
X175983599Y-85356747D01*
X176001777Y-85373223D01*
X176018253Y-85391401D01*
X176032868Y-85411107D01*
X176045480Y-85432150D01*
X176055970Y-85454329D01*
X176064235Y-85477428D01*
X176070196Y-85501227D01*
X176073796Y-85525495D01*
X176075000Y-85549999D01*
X176075000Y-86450001D01*
X176073796Y-86474505D01*
X176070196Y-86498773D01*
X176064235Y-86522572D01*
X176055970Y-86545671D01*
X176045480Y-86567850D01*
X176032868Y-86588893D01*
X176018253Y-86608599D01*
X176001777Y-86626777D01*
X175983599Y-86643253D01*
X175963893Y-86657868D01*
X175942850Y-86670480D01*
X175920671Y-86680970D01*
X175897572Y-86689235D01*
X175873773Y-86695196D01*
X175849505Y-86698796D01*
X175825001Y-86700000D01*
X175174999Y-86700000D01*
X175150495Y-86698796D01*
X175126227Y-86695196D01*
X175102428Y-86689235D01*
X175079329Y-86680970D01*
X175057150Y-86670480D01*
X175036107Y-86657868D01*
X175016401Y-86643253D01*
X174998223Y-86626777D01*
X174981747Y-86608599D01*
X174967132Y-86588893D01*
X174954520Y-86567850D01*
X174944030Y-86545671D01*
X174935765Y-86522572D01*
X174929804Y-86498773D01*
X174926204Y-86474505D01*
X174925000Y-86450001D01*
X174925000Y-85549999D01*
X174926204Y-85525495D01*
X174929804Y-85501227D01*
X174935765Y-85477428D01*
X174944030Y-85454329D01*
X174954520Y-85432150D01*
X174967132Y-85411107D01*
X174981747Y-85391401D01*
X174998223Y-85373223D01*
X175016401Y-85356747D01*
X175036107Y-85342132D01*
X175057150Y-85329520D01*
X175079329Y-85319030D01*
X175102428Y-85310765D01*
X175126227Y-85304804D01*
X175150495Y-85301204D01*
X175174999Y-85300000D01*
X175825001Y-85300000D01*
X175849505Y-85301204D01*
X175849505Y-85301204D01*
G37*
D16*
G04 #@! TD*
G04 #@! TO.P,D1,2*
G04 #@! TO.N,Net-(D1-Pad2)*
X175500000Y-86000000D03*
D15*
G04 #@! TO.N,Net-(D2-Pad2)*
G04 #@! TO.C,D2*
G36*
X175874505Y-91301204D02*
X175898773Y-91304804D01*
X175922572Y-91310765D01*
X175945671Y-91319030D01*
X175967850Y-91329520D01*
X175988893Y-91342132D01*
X176008599Y-91356747D01*
X176026777Y-91373223D01*
X176043253Y-91391401D01*
X176057868Y-91411107D01*
X176070480Y-91432150D01*
X176080970Y-91454329D01*
X176089235Y-91477428D01*
X176095196Y-91501227D01*
X176098796Y-91525495D01*
X176100000Y-91549999D01*
X176100000Y-92450001D01*
X176098796Y-92474505D01*
X176095196Y-92498773D01*
X176089235Y-92522572D01*
X176080970Y-92545671D01*
X176070480Y-92567850D01*
X176057868Y-92588893D01*
X176043253Y-92608599D01*
X176026777Y-92626777D01*
X176008599Y-92643253D01*
X175988893Y-92657868D01*
X175967850Y-92670480D01*
X175945671Y-92680970D01*
X175922572Y-92689235D01*
X175898773Y-92695196D01*
X175874505Y-92698796D01*
X175850001Y-92700000D01*
X175199999Y-92700000D01*
X175175495Y-92698796D01*
X175151227Y-92695196D01*
X175127428Y-92689235D01*
X175104329Y-92680970D01*
X175082150Y-92670480D01*
X175061107Y-92657868D01*
X175041401Y-92643253D01*
X175023223Y-92626777D01*
X175006747Y-92608599D01*
X174992132Y-92588893D01*
X174979520Y-92567850D01*
X174969030Y-92545671D01*
X174960765Y-92522572D01*
X174954804Y-92498773D01*
X174951204Y-92474505D01*
X174950000Y-92450001D01*
X174950000Y-91549999D01*
X174951204Y-91525495D01*
X174954804Y-91501227D01*
X174960765Y-91477428D01*
X174969030Y-91454329D01*
X174979520Y-91432150D01*
X174992132Y-91411107D01*
X175006747Y-91391401D01*
X175023223Y-91373223D01*
X175041401Y-91356747D01*
X175061107Y-91342132D01*
X175082150Y-91329520D01*
X175104329Y-91319030D01*
X175127428Y-91310765D01*
X175151227Y-91304804D01*
X175175495Y-91301204D01*
X175199999Y-91300000D01*
X175850001Y-91300000D01*
X175874505Y-91301204D01*
X175874505Y-91301204D01*
G37*
D16*
G04 #@! TD*
G04 #@! TO.P,D2,2*
G04 #@! TO.N,Net-(D2-Pad2)*
X175525000Y-92000000D03*
D15*
G04 #@! TO.N,GND*
G04 #@! TO.C,D2*
G36*
X173824505Y-91301204D02*
X173848773Y-91304804D01*
X173872572Y-91310765D01*
X173895671Y-91319030D01*
X173917850Y-91329520D01*
X173938893Y-91342132D01*
X173958599Y-91356747D01*
X173976777Y-91373223D01*
X173993253Y-91391401D01*
X174007868Y-91411107D01*
X174020480Y-91432150D01*
X174030970Y-91454329D01*
X174039235Y-91477428D01*
X174045196Y-91501227D01*
X174048796Y-91525495D01*
X174050000Y-91549999D01*
X174050000Y-92450001D01*
X174048796Y-92474505D01*
X174045196Y-92498773D01*
X174039235Y-92522572D01*
X174030970Y-92545671D01*
X174020480Y-92567850D01*
X174007868Y-92588893D01*
X173993253Y-92608599D01*
X173976777Y-92626777D01*
X173958599Y-92643253D01*
X173938893Y-92657868D01*
X173917850Y-92670480D01*
X173895671Y-92680970D01*
X173872572Y-92689235D01*
X173848773Y-92695196D01*
X173824505Y-92698796D01*
X173800001Y-92700000D01*
X173149999Y-92700000D01*
X173125495Y-92698796D01*
X173101227Y-92695196D01*
X173077428Y-92689235D01*
X173054329Y-92680970D01*
X173032150Y-92670480D01*
X173011107Y-92657868D01*
X172991401Y-92643253D01*
X172973223Y-92626777D01*
X172956747Y-92608599D01*
X172942132Y-92588893D01*
X172929520Y-92567850D01*
X172919030Y-92545671D01*
X172910765Y-92522572D01*
X172904804Y-92498773D01*
X172901204Y-92474505D01*
X172900000Y-92450001D01*
X172900000Y-91549999D01*
X172901204Y-91525495D01*
X172904804Y-91501227D01*
X172910765Y-91477428D01*
X172919030Y-91454329D01*
X172929520Y-91432150D01*
X172942132Y-91411107D01*
X172956747Y-91391401D01*
X172973223Y-91373223D01*
X172991401Y-91356747D01*
X173011107Y-91342132D01*
X173032150Y-91329520D01*
X173054329Y-91319030D01*
X173077428Y-91310765D01*
X173101227Y-91304804D01*
X173125495Y-91301204D01*
X173149999Y-91300000D01*
X173800001Y-91300000D01*
X173824505Y-91301204D01*
X173824505Y-91301204D01*
G37*
D16*
G04 #@! TD*
G04 #@! TO.P,D2,1*
G04 #@! TO.N,GND*
X173475000Y-92000000D03*
D15*
G04 #@! TO.N,GND*
G04 #@! TO.C,D3*
G36*
X99674505Y-85221204D02*
X99698773Y-85224804D01*
X99722572Y-85230765D01*
X99745671Y-85239030D01*
X99767850Y-85249520D01*
X99788893Y-85262132D01*
X99808599Y-85276747D01*
X99826777Y-85293223D01*
X99843253Y-85311401D01*
X99857868Y-85331107D01*
X99870480Y-85352150D01*
X99880970Y-85374329D01*
X99889235Y-85397428D01*
X99895196Y-85421227D01*
X99898796Y-85445495D01*
X99900000Y-85469999D01*
X99900000Y-86370001D01*
X99898796Y-86394505D01*
X99895196Y-86418773D01*
X99889235Y-86442572D01*
X99880970Y-86465671D01*
X99870480Y-86487850D01*
X99857868Y-86508893D01*
X99843253Y-86528599D01*
X99826777Y-86546777D01*
X99808599Y-86563253D01*
X99788893Y-86577868D01*
X99767850Y-86590480D01*
X99745671Y-86600970D01*
X99722572Y-86609235D01*
X99698773Y-86615196D01*
X99674505Y-86618796D01*
X99650001Y-86620000D01*
X98999999Y-86620000D01*
X98975495Y-86618796D01*
X98951227Y-86615196D01*
X98927428Y-86609235D01*
X98904329Y-86600970D01*
X98882150Y-86590480D01*
X98861107Y-86577868D01*
X98841401Y-86563253D01*
X98823223Y-86546777D01*
X98806747Y-86528599D01*
X98792132Y-86508893D01*
X98779520Y-86487850D01*
X98769030Y-86465671D01*
X98760765Y-86442572D01*
X98754804Y-86418773D01*
X98751204Y-86394505D01*
X98750000Y-86370001D01*
X98750000Y-85469999D01*
X98751204Y-85445495D01*
X98754804Y-85421227D01*
X98760765Y-85397428D01*
X98769030Y-85374329D01*
X98779520Y-85352150D01*
X98792132Y-85331107D01*
X98806747Y-85311401D01*
X98823223Y-85293223D01*
X98841401Y-85276747D01*
X98861107Y-85262132D01*
X98882150Y-85249520D01*
X98904329Y-85239030D01*
X98927428Y-85230765D01*
X98951227Y-85224804D01*
X98975495Y-85221204D01*
X98999999Y-85220000D01*
X99650001Y-85220000D01*
X99674505Y-85221204D01*
X99674505Y-85221204D01*
G37*
D16*
G04 #@! TD*
G04 #@! TO.P,D3,1*
G04 #@! TO.N,GND*
X99325000Y-85920000D03*
D15*
G04 #@! TO.N,Net-(D3-Pad2)*
G04 #@! TO.C,D3*
G36*
X101724505Y-85221204D02*
X101748773Y-85224804D01*
X101772572Y-85230765D01*
X101795671Y-85239030D01*
X101817850Y-85249520D01*
X101838893Y-85262132D01*
X101858599Y-85276747D01*
X101876777Y-85293223D01*
X101893253Y-85311401D01*
X101907868Y-85331107D01*
X101920480Y-85352150D01*
X101930970Y-85374329D01*
X101939235Y-85397428D01*
X101945196Y-85421227D01*
X101948796Y-85445495D01*
X101950000Y-85469999D01*
X101950000Y-86370001D01*
X101948796Y-86394505D01*
X101945196Y-86418773D01*
X101939235Y-86442572D01*
X101930970Y-86465671D01*
X101920480Y-86487850D01*
X101907868Y-86508893D01*
X101893253Y-86528599D01*
X101876777Y-86546777D01*
X101858599Y-86563253D01*
X101838893Y-86577868D01*
X101817850Y-86590480D01*
X101795671Y-86600970D01*
X101772572Y-86609235D01*
X101748773Y-86615196D01*
X101724505Y-86618796D01*
X101700001Y-86620000D01*
X101049999Y-86620000D01*
X101025495Y-86618796D01*
X101001227Y-86615196D01*
X100977428Y-86609235D01*
X100954329Y-86600970D01*
X100932150Y-86590480D01*
X100911107Y-86577868D01*
X100891401Y-86563253D01*
X100873223Y-86546777D01*
X100856747Y-86528599D01*
X100842132Y-86508893D01*
X100829520Y-86487850D01*
X100819030Y-86465671D01*
X100810765Y-86442572D01*
X100804804Y-86418773D01*
X100801204Y-86394505D01*
X100800000Y-86370001D01*
X100800000Y-85469999D01*
X100801204Y-85445495D01*
X100804804Y-85421227D01*
X100810765Y-85397428D01*
X100819030Y-85374329D01*
X100829520Y-85352150D01*
X100842132Y-85331107D01*
X100856747Y-85311401D01*
X100873223Y-85293223D01*
X100891401Y-85276747D01*
X100911107Y-85262132D01*
X100932150Y-85249520D01*
X100954329Y-85239030D01*
X100977428Y-85230765D01*
X101001227Y-85224804D01*
X101025495Y-85221204D01*
X101049999Y-85220000D01*
X101700001Y-85220000D01*
X101724505Y-85221204D01*
X101724505Y-85221204D01*
G37*
D16*
G04 #@! TD*
G04 #@! TO.P,D3,2*
G04 #@! TO.N,Net-(D3-Pad2)*
X101375000Y-85920000D03*
D15*
G04 #@! TO.N,/LED_4*
G04 #@! TO.C,D4*
G36*
X101799505Y-91301204D02*
X101823773Y-91304804D01*
X101847572Y-91310765D01*
X101870671Y-91319030D01*
X101892850Y-91329520D01*
X101913893Y-91342132D01*
X101933599Y-91356747D01*
X101951777Y-91373223D01*
X101968253Y-91391401D01*
X101982868Y-91411107D01*
X101995480Y-91432150D01*
X102005970Y-91454329D01*
X102014235Y-91477428D01*
X102020196Y-91501227D01*
X102023796Y-91525495D01*
X102025000Y-91549999D01*
X102025000Y-92450001D01*
X102023796Y-92474505D01*
X102020196Y-92498773D01*
X102014235Y-92522572D01*
X102005970Y-92545671D01*
X101995480Y-92567850D01*
X101982868Y-92588893D01*
X101968253Y-92608599D01*
X101951777Y-92626777D01*
X101933599Y-92643253D01*
X101913893Y-92657868D01*
X101892850Y-92670480D01*
X101870671Y-92680970D01*
X101847572Y-92689235D01*
X101823773Y-92695196D01*
X101799505Y-92698796D01*
X101775001Y-92700000D01*
X101124999Y-92700000D01*
X101100495Y-92698796D01*
X101076227Y-92695196D01*
X101052428Y-92689235D01*
X101029329Y-92680970D01*
X101007150Y-92670480D01*
X100986107Y-92657868D01*
X100966401Y-92643253D01*
X100948223Y-92626777D01*
X100931747Y-92608599D01*
X100917132Y-92588893D01*
X100904520Y-92567850D01*
X100894030Y-92545671D01*
X100885765Y-92522572D01*
X100879804Y-92498773D01*
X100876204Y-92474505D01*
X100875000Y-92450001D01*
X100875000Y-91549999D01*
X100876204Y-91525495D01*
X100879804Y-91501227D01*
X100885765Y-91477428D01*
X100894030Y-91454329D01*
X100904520Y-91432150D01*
X100917132Y-91411107D01*
X100931747Y-91391401D01*
X100948223Y-91373223D01*
X100966401Y-91356747D01*
X100986107Y-91342132D01*
X101007150Y-91329520D01*
X101029329Y-91319030D01*
X101052428Y-91310765D01*
X101076227Y-91304804D01*
X101100495Y-91301204D01*
X101124999Y-91300000D01*
X101775001Y-91300000D01*
X101799505Y-91301204D01*
X101799505Y-91301204D01*
G37*
D16*
G04 #@! TD*
G04 #@! TO.P,D4,2*
G04 #@! TO.N,/LED_4*
X101450000Y-92000000D03*
D15*
G04 #@! TO.N,GND*
G04 #@! TO.C,D4*
G36*
X99749505Y-91301204D02*
X99773773Y-91304804D01*
X99797572Y-91310765D01*
X99820671Y-91319030D01*
X99842850Y-91329520D01*
X99863893Y-91342132D01*
X99883599Y-91356747D01*
X99901777Y-91373223D01*
X99918253Y-91391401D01*
X99932868Y-91411107D01*
X99945480Y-91432150D01*
X99955970Y-91454329D01*
X99964235Y-91477428D01*
X99970196Y-91501227D01*
X99973796Y-91525495D01*
X99975000Y-91549999D01*
X99975000Y-92450001D01*
X99973796Y-92474505D01*
X99970196Y-92498773D01*
X99964235Y-92522572D01*
X99955970Y-92545671D01*
X99945480Y-92567850D01*
X99932868Y-92588893D01*
X99918253Y-92608599D01*
X99901777Y-92626777D01*
X99883599Y-92643253D01*
X99863893Y-92657868D01*
X99842850Y-92670480D01*
X99820671Y-92680970D01*
X99797572Y-92689235D01*
X99773773Y-92695196D01*
X99749505Y-92698796D01*
X99725001Y-92700000D01*
X99074999Y-92700000D01*
X99050495Y-92698796D01*
X99026227Y-92695196D01*
X99002428Y-92689235D01*
X98979329Y-92680970D01*
X98957150Y-92670480D01*
X98936107Y-92657868D01*
X98916401Y-92643253D01*
X98898223Y-92626777D01*
X98881747Y-92608599D01*
X98867132Y-92588893D01*
X98854520Y-92567850D01*
X98844030Y-92545671D01*
X98835765Y-92522572D01*
X98829804Y-92498773D01*
X98826204Y-92474505D01*
X98825000Y-92450001D01*
X98825000Y-91549999D01*
X98826204Y-91525495D01*
X98829804Y-91501227D01*
X98835765Y-91477428D01*
X98844030Y-91454329D01*
X98854520Y-91432150D01*
X98867132Y-91411107D01*
X98881747Y-91391401D01*
X98898223Y-91373223D01*
X98916401Y-91356747D01*
X98936107Y-91342132D01*
X98957150Y-91329520D01*
X98979329Y-91319030D01*
X99002428Y-91310765D01*
X99026227Y-91304804D01*
X99050495Y-91301204D01*
X99074999Y-91300000D01*
X99725001Y-91300000D01*
X99749505Y-91301204D01*
X99749505Y-91301204D01*
G37*
D16*
G04 #@! TD*
G04 #@! TO.P,D4,1*
G04 #@! TO.N,GND*
X99400000Y-92000000D03*
D17*
G04 #@! TO.P,J1,1*
G04 #@! TO.N,+3V3*
X161500000Y-130600000D03*
D18*
G04 #@! TO.P,J1,2*
G04 #@! TO.N,SWCLK*
X158960000Y-130600000D03*
G04 #@! TO.P,J1,3*
G04 #@! TO.N,GND*
X156420000Y-130600000D03*
G04 #@! TO.P,J1,4*
G04 #@! TO.N,SWDI0*
X153880000Y-130600000D03*
G04 #@! TO.P,J1,5*
G04 #@! TO.N,NRST*
X151340000Y-130600000D03*
G04 #@! TO.P,J1,6*
G04 #@! TO.N,UART_TX*
X148800000Y-130600000D03*
G04 #@! TD*
D15*
G04 #@! TO.N,/INPUT*
G04 #@! TO.C,R11*
G36*
X136935779Y-127426144D02*
X136958834Y-127429563D01*
X136981443Y-127435227D01*
X137003387Y-127443079D01*
X137024457Y-127453044D01*
X137044448Y-127465026D01*
X137063168Y-127478910D01*
X137080438Y-127494562D01*
X137096090Y-127511832D01*
X137109974Y-127530552D01*
X137121956Y-127550543D01*
X137131921Y-127571613D01*
X137139773Y-127593557D01*
X137145437Y-127616166D01*
X137148856Y-127639221D01*
X137150000Y-127662500D01*
X137150000Y-128137500D01*
X137148856Y-128160779D01*
X137145437Y-128183834D01*
X137139773Y-128206443D01*
X137131921Y-128228387D01*
X137121956Y-128249457D01*
X137109974Y-128269448D01*
X137096090Y-128288168D01*
X137080438Y-128305438D01*
X137063168Y-128321090D01*
X137044448Y-128334974D01*
X137024457Y-128346956D01*
X137003387Y-128356921D01*
X136981443Y-128364773D01*
X136958834Y-128370437D01*
X136935779Y-128373856D01*
X136912500Y-128375000D01*
X136337500Y-128375000D01*
X136314221Y-128373856D01*
X136291166Y-128370437D01*
X136268557Y-128364773D01*
X136246613Y-128356921D01*
X136225543Y-128346956D01*
X136205552Y-128334974D01*
X136186832Y-128321090D01*
X136169562Y-128305438D01*
X136153910Y-128288168D01*
X136140026Y-128269448D01*
X136128044Y-128249457D01*
X136118079Y-128228387D01*
X136110227Y-128206443D01*
X136104563Y-128183834D01*
X136101144Y-128160779D01*
X136100000Y-128137500D01*
X136100000Y-127662500D01*
X136101144Y-127639221D01*
X136104563Y-127616166D01*
X136110227Y-127593557D01*
X136118079Y-127571613D01*
X136128044Y-127550543D01*
X136140026Y-127530552D01*
X136153910Y-127511832D01*
X136169562Y-127494562D01*
X136186832Y-127478910D01*
X136205552Y-127465026D01*
X136225543Y-127453044D01*
X136246613Y-127443079D01*
X136268557Y-127435227D01*
X136291166Y-127429563D01*
X136314221Y-127426144D01*
X136337500Y-127425000D01*
X136912500Y-127425000D01*
X136935779Y-127426144D01*
X136935779Y-127426144D01*
G37*
D19*
G04 #@! TD*
G04 #@! TO.P,R11,1*
G04 #@! TO.N,/INPUT*
X136625000Y-127900000D03*
D15*
G04 #@! TO.N,/PWM*
G04 #@! TO.C,R11*
G36*
X138685779Y-127426144D02*
X138708834Y-127429563D01*
X138731443Y-127435227D01*
X138753387Y-127443079D01*
X138774457Y-127453044D01*
X138794448Y-127465026D01*
X138813168Y-127478910D01*
X138830438Y-127494562D01*
X138846090Y-127511832D01*
X138859974Y-127530552D01*
X138871956Y-127550543D01*
X138881921Y-127571613D01*
X138889773Y-127593557D01*
X138895437Y-127616166D01*
X138898856Y-127639221D01*
X138900000Y-127662500D01*
X138900000Y-128137500D01*
X138898856Y-128160779D01*
X138895437Y-128183834D01*
X138889773Y-128206443D01*
X138881921Y-128228387D01*
X138871956Y-128249457D01*
X138859974Y-128269448D01*
X138846090Y-128288168D01*
X138830438Y-128305438D01*
X138813168Y-128321090D01*
X138794448Y-128334974D01*
X138774457Y-128346956D01*
X138753387Y-128356921D01*
X138731443Y-128364773D01*
X138708834Y-128370437D01*
X138685779Y-128373856D01*
X138662500Y-128375000D01*
X138087500Y-128375000D01*
X138064221Y-128373856D01*
X138041166Y-128370437D01*
X138018557Y-128364773D01*
X137996613Y-128356921D01*
X137975543Y-128346956D01*
X137955552Y-128334974D01*
X137936832Y-128321090D01*
X137919562Y-128305438D01*
X137903910Y-128288168D01*
X137890026Y-128269448D01*
X137878044Y-128249457D01*
X137868079Y-128228387D01*
X137860227Y-128206443D01*
X137854563Y-128183834D01*
X137851144Y-128160779D01*
X137850000Y-128137500D01*
X137850000Y-127662500D01*
X137851144Y-127639221D01*
X137854563Y-127616166D01*
X137860227Y-127593557D01*
X137868079Y-127571613D01*
X137878044Y-127550543D01*
X137890026Y-127530552D01*
X137903910Y-127511832D01*
X137919562Y-127494562D01*
X137936832Y-127478910D01*
X137955552Y-127465026D01*
X137975543Y-127453044D01*
X137996613Y-127443079D01*
X138018557Y-127435227D01*
X138041166Y-127429563D01*
X138064221Y-127426144D01*
X138087500Y-127425000D01*
X138662500Y-127425000D01*
X138685779Y-127426144D01*
X138685779Y-127426144D01*
G37*
D19*
G04 #@! TD*
G04 #@! TO.P,R11,2*
G04 #@! TO.N,/PWM*
X138375000Y-127900000D03*
D15*
G04 #@! TO.N,/FR_DIAG*
G04 #@! TO.C,R12*
G36*
X136935779Y-125526144D02*
X136958834Y-125529563D01*
X136981443Y-125535227D01*
X137003387Y-125543079D01*
X137024457Y-125553044D01*
X137044448Y-125565026D01*
X137063168Y-125578910D01*
X137080438Y-125594562D01*
X137096090Y-125611832D01*
X137109974Y-125630552D01*
X137121956Y-125650543D01*
X137131921Y-125671613D01*
X137139773Y-125693557D01*
X137145437Y-125716166D01*
X137148856Y-125739221D01*
X137150000Y-125762500D01*
X137150000Y-126237500D01*
X137148856Y-126260779D01*
X137145437Y-126283834D01*
X137139773Y-126306443D01*
X137131921Y-126328387D01*
X137121956Y-126349457D01*
X137109974Y-126369448D01*
X137096090Y-126388168D01*
X137080438Y-126405438D01*
X137063168Y-126421090D01*
X137044448Y-126434974D01*
X137024457Y-126446956D01*
X137003387Y-126456921D01*
X136981443Y-126464773D01*
X136958834Y-126470437D01*
X136935779Y-126473856D01*
X136912500Y-126475000D01*
X136337500Y-126475000D01*
X136314221Y-126473856D01*
X136291166Y-126470437D01*
X136268557Y-126464773D01*
X136246613Y-126456921D01*
X136225543Y-126446956D01*
X136205552Y-126434974D01*
X136186832Y-126421090D01*
X136169562Y-126405438D01*
X136153910Y-126388168D01*
X136140026Y-126369448D01*
X136128044Y-126349457D01*
X136118079Y-126328387D01*
X136110227Y-126306443D01*
X136104563Y-126283834D01*
X136101144Y-126260779D01*
X136100000Y-126237500D01*
X136100000Y-125762500D01*
X136101144Y-125739221D01*
X136104563Y-125716166D01*
X136110227Y-125693557D01*
X136118079Y-125671613D01*
X136128044Y-125650543D01*
X136140026Y-125630552D01*
X136153910Y-125611832D01*
X136169562Y-125594562D01*
X136186832Y-125578910D01*
X136205552Y-125565026D01*
X136225543Y-125553044D01*
X136246613Y-125543079D01*
X136268557Y-125535227D01*
X136291166Y-125529563D01*
X136314221Y-125526144D01*
X136337500Y-125525000D01*
X136912500Y-125525000D01*
X136935779Y-125526144D01*
X136935779Y-125526144D01*
G37*
D19*
G04 #@! TD*
G04 #@! TO.P,R12,1*
G04 #@! TO.N,/FR_DIAG*
X136625000Y-126000000D03*
D15*
G04 #@! TO.N,Net-(R12-Pad2)*
G04 #@! TO.C,R12*
G36*
X138685779Y-125526144D02*
X138708834Y-125529563D01*
X138731443Y-125535227D01*
X138753387Y-125543079D01*
X138774457Y-125553044D01*
X138794448Y-125565026D01*
X138813168Y-125578910D01*
X138830438Y-125594562D01*
X138846090Y-125611832D01*
X138859974Y-125630552D01*
X138871956Y-125650543D01*
X138881921Y-125671613D01*
X138889773Y-125693557D01*
X138895437Y-125716166D01*
X138898856Y-125739221D01*
X138900000Y-125762500D01*
X138900000Y-126237500D01*
X138898856Y-126260779D01*
X138895437Y-126283834D01*
X138889773Y-126306443D01*
X138881921Y-126328387D01*
X138871956Y-126349457D01*
X138859974Y-126369448D01*
X138846090Y-126388168D01*
X138830438Y-126405438D01*
X138813168Y-126421090D01*
X138794448Y-126434974D01*
X138774457Y-126446956D01*
X138753387Y-126456921D01*
X138731443Y-126464773D01*
X138708834Y-126470437D01*
X138685779Y-126473856D01*
X138662500Y-126475000D01*
X138087500Y-126475000D01*
X138064221Y-126473856D01*
X138041166Y-126470437D01*
X138018557Y-126464773D01*
X137996613Y-126456921D01*
X137975543Y-126446956D01*
X137955552Y-126434974D01*
X137936832Y-126421090D01*
X137919562Y-126405438D01*
X137903910Y-126388168D01*
X137890026Y-126369448D01*
X137878044Y-126349457D01*
X137868079Y-126328387D01*
X137860227Y-126306443D01*
X137854563Y-126283834D01*
X137851144Y-126260779D01*
X137850000Y-126237500D01*
X137850000Y-125762500D01*
X137851144Y-125739221D01*
X137854563Y-125716166D01*
X137860227Y-125693557D01*
X137868079Y-125671613D01*
X137878044Y-125650543D01*
X137890026Y-125630552D01*
X137903910Y-125611832D01*
X137919562Y-125594562D01*
X137936832Y-125578910D01*
X137955552Y-125565026D01*
X137975543Y-125553044D01*
X137996613Y-125543079D01*
X138018557Y-125535227D01*
X138041166Y-125529563D01*
X138064221Y-125526144D01*
X138087500Y-125525000D01*
X138662500Y-125525000D01*
X138685779Y-125526144D01*
X138685779Y-125526144D01*
G37*
D19*
G04 #@! TD*
G04 #@! TO.P,R12,2*
G04 #@! TO.N,Net-(R12-Pad2)*
X138375000Y-126000000D03*
D15*
G04 #@! TO.N,CURRENT_SENSE*
G04 #@! TO.C,R13*
G36*
X138685779Y-123526144D02*
X138708834Y-123529563D01*
X138731443Y-123535227D01*
X138753387Y-123543079D01*
X138774457Y-123553044D01*
X138794448Y-123565026D01*
X138813168Y-123578910D01*
X138830438Y-123594562D01*
X138846090Y-123611832D01*
X138859974Y-123630552D01*
X138871956Y-123650543D01*
X138881921Y-123671613D01*
X138889773Y-123693557D01*
X138895437Y-123716166D01*
X138898856Y-123739221D01*
X138900000Y-123762500D01*
X138900000Y-124237500D01*
X138898856Y-124260779D01*
X138895437Y-124283834D01*
X138889773Y-124306443D01*
X138881921Y-124328387D01*
X138871956Y-124349457D01*
X138859974Y-124369448D01*
X138846090Y-124388168D01*
X138830438Y-124405438D01*
X138813168Y-124421090D01*
X138794448Y-124434974D01*
X138774457Y-124446956D01*
X138753387Y-124456921D01*
X138731443Y-124464773D01*
X138708834Y-124470437D01*
X138685779Y-124473856D01*
X138662500Y-124475000D01*
X138087500Y-124475000D01*
X138064221Y-124473856D01*
X138041166Y-124470437D01*
X138018557Y-124464773D01*
X137996613Y-124456921D01*
X137975543Y-124446956D01*
X137955552Y-124434974D01*
X137936832Y-124421090D01*
X137919562Y-124405438D01*
X137903910Y-124388168D01*
X137890026Y-124369448D01*
X137878044Y-124349457D01*
X137868079Y-124328387D01*
X137860227Y-124306443D01*
X137854563Y-124283834D01*
X137851144Y-124260779D01*
X137850000Y-124237500D01*
X137850000Y-123762500D01*
X137851144Y-123739221D01*
X137854563Y-123716166D01*
X137860227Y-123693557D01*
X137868079Y-123671613D01*
X137878044Y-123650543D01*
X137890026Y-123630552D01*
X137903910Y-123611832D01*
X137919562Y-123594562D01*
X137936832Y-123578910D01*
X137955552Y-123565026D01*
X137975543Y-123553044D01*
X137996613Y-123543079D01*
X138018557Y-123535227D01*
X138041166Y-123529563D01*
X138064221Y-123526144D01*
X138087500Y-123525000D01*
X138662500Y-123525000D01*
X138685779Y-123526144D01*
X138685779Y-123526144D01*
G37*
D19*
G04 #@! TD*
G04 #@! TO.P,R13,2*
G04 #@! TO.N,CURRENT_SENSE*
X138375000Y-124000000D03*
D15*
G04 #@! TO.N,Net-(R13-Pad1)*
G04 #@! TO.C,R13*
G36*
X136935779Y-123526144D02*
X136958834Y-123529563D01*
X136981443Y-123535227D01*
X137003387Y-123543079D01*
X137024457Y-123553044D01*
X137044448Y-123565026D01*
X137063168Y-123578910D01*
X137080438Y-123594562D01*
X137096090Y-123611832D01*
X137109974Y-123630552D01*
X137121956Y-123650543D01*
X137131921Y-123671613D01*
X137139773Y-123693557D01*
X137145437Y-123716166D01*
X137148856Y-123739221D01*
X137150000Y-123762500D01*
X137150000Y-124237500D01*
X137148856Y-124260779D01*
X137145437Y-124283834D01*
X137139773Y-124306443D01*
X137131921Y-124328387D01*
X137121956Y-124349457D01*
X137109974Y-124369448D01*
X137096090Y-124388168D01*
X137080438Y-124405438D01*
X137063168Y-124421090D01*
X137044448Y-124434974D01*
X137024457Y-124446956D01*
X137003387Y-124456921D01*
X136981443Y-124464773D01*
X136958834Y-124470437D01*
X136935779Y-124473856D01*
X136912500Y-124475000D01*
X136337500Y-124475000D01*
X136314221Y-124473856D01*
X136291166Y-124470437D01*
X136268557Y-124464773D01*
X136246613Y-124456921D01*
X136225543Y-124446956D01*
X136205552Y-124434974D01*
X136186832Y-124421090D01*
X136169562Y-124405438D01*
X136153910Y-124388168D01*
X136140026Y-124369448D01*
X136128044Y-124349457D01*
X136118079Y-124328387D01*
X136110227Y-124306443D01*
X136104563Y-124283834D01*
X136101144Y-124260779D01*
X136100000Y-124237500D01*
X136100000Y-123762500D01*
X136101144Y-123739221D01*
X136104563Y-123716166D01*
X136110227Y-123693557D01*
X136118079Y-123671613D01*
X136128044Y-123650543D01*
X136140026Y-123630552D01*
X136153910Y-123611832D01*
X136169562Y-123594562D01*
X136186832Y-123578910D01*
X136205552Y-123565026D01*
X136225543Y-123553044D01*
X136246613Y-123543079D01*
X136268557Y-123535227D01*
X136291166Y-123529563D01*
X136314221Y-123526144D01*
X136337500Y-123525000D01*
X136912500Y-123525000D01*
X136935779Y-123526144D01*
X136935779Y-123526144D01*
G37*
D19*
G04 #@! TD*
G04 #@! TO.P,R13,1*
G04 #@! TO.N,Net-(R13-Pad1)*
X136625000Y-124000000D03*
D10*
G04 #@! TO.P,SC1,2*
G04 #@! TO.N,GND*
X181580000Y-108000000D03*
D11*
G04 #@! TO.P,SC1,1*
G04 #@! TO.N,+24V*
X176500000Y-108000000D03*
G04 #@! TD*
D20*
G04 #@! TO.P,U3,1*
G04 #@! TO.N,Net-(R3-Pad1)*
X172550000Y-122775000D03*
G04 #@! TO.P,U3,2*
G04 #@! TO.N,/LED_1*
X172550000Y-123425000D03*
G04 #@! TO.P,U3,3*
G04 #@! TO.N,/LED_2*
X172550000Y-124075000D03*
G04 #@! TO.P,U3,4*
G04 #@! TO.N,NRST*
X172550000Y-124725000D03*
G04 #@! TO.P,U3,5*
G04 #@! TO.N,+3V3*
X172550000Y-125375000D03*
G04 #@! TO.P,U3,6*
G04 #@! TO.N,/PANEL_SENSE*
X172550000Y-126025000D03*
G04 #@! TO.P,U3,7*
G04 #@! TO.N,/BATT_SENSE*
X172550000Y-126675000D03*
G04 #@! TO.P,U3,8*
G04 #@! TO.N,UART_TX*
X172550000Y-127325000D03*
G04 #@! TO.P,U3,9*
G04 #@! TO.N,Net-(U3-Pad9)*
X172550000Y-127975000D03*
G04 #@! TO.P,U3,10*
G04 #@! TO.N,/LED_3*
X172550000Y-128625000D03*
G04 #@! TO.P,U3,11*
G04 #@! TO.N,/PWM*
X166650000Y-128625000D03*
G04 #@! TO.P,U3,12*
G04 #@! TO.N,Net-(R12-Pad2)*
X166650000Y-127975000D03*
G04 #@! TO.P,U3,13*
G04 #@! TO.N,ADC_RDY*
X166650000Y-127325000D03*
G04 #@! TO.P,U3,14*
G04 #@! TO.N,CURRENT_SENSE*
X166650000Y-126675000D03*
G04 #@! TO.P,U3,15*
G04 #@! TO.N,GND*
X166650000Y-126025000D03*
G04 #@! TO.P,U3,16*
G04 #@! TO.N,+3V3*
X166650000Y-125375000D03*
G04 #@! TO.P,U3,17*
G04 #@! TO.N,SCL*
X166650000Y-124725000D03*
G04 #@! TO.P,U3,18*
G04 #@! TO.N,SDA*
X166650000Y-124075000D03*
G04 #@! TO.P,U3,19*
G04 #@! TO.N,SWDI0*
X166650000Y-123425000D03*
G04 #@! TO.P,U3,20*
G04 #@! TO.N,SWCLK*
X166650000Y-122775000D03*
G04 #@! TD*
D21*
G04 #@! TO.P,D5,1*
G04 #@! TO.N,/DIODE*
X103500000Y-108000000D03*
D22*
G04 #@! TO.P,D5,2*
G04 #@! TO.N,/OUT*
X116200000Y-108000000D03*
G04 #@! TD*
D23*
G04 #@! TO.P,H1,1*
G04 #@! TO.N,GND*
X92500000Y-79000000D03*
G04 #@! TD*
G04 #@! TO.P,H2,1*
G04 #@! TO.N,GND*
X182500000Y-79000000D03*
G04 #@! TD*
G04 #@! TO.P,H3,1*
G04 #@! TO.N,GND*
X92500000Y-131000000D03*
G04 #@! TD*
G04 #@! TO.P,H4,1*
G04 #@! TO.N,GND*
X182500000Y-131000000D03*
G04 #@! TD*
D24*
G04 #@! TO.N,GND*
X150000000Y-123000000D03*
X128500000Y-124500000D03*
X118000000Y-129850000D03*
X117920000Y-126040000D03*
X181500000Y-118500000D03*
X114100000Y-123200000D03*
X117900000Y-115000000D03*
X114700000Y-115000000D03*
X132700000Y-120200000D03*
X156600000Y-125900000D03*
X169500000Y-129874990D03*
X143300000Y-126200000D03*
G04 #@! TO.N,+24V*
X141300000Y-113600000D03*
X141300000Y-111200000D03*
X138700000Y-113800000D03*
X138700000Y-111400000D03*
X138700000Y-108600000D03*
X137500000Y-115000000D03*
X140000000Y-115000000D03*
X142500000Y-115000000D03*
X142500000Y-112500000D03*
X140000000Y-112500000D03*
X137500000Y-112500000D03*
X137500000Y-110000000D03*
X140000000Y-110000000D03*
X142500000Y-110000000D03*
X142500000Y-107500000D03*
X140000000Y-107500000D03*
X137500000Y-107500000D03*
X137500000Y-107500000D03*
X141300000Y-108600000D03*
X138700000Y-116200000D03*
X141300000Y-116200000D03*
X138700000Y-106400000D03*
X141300000Y-106400000D03*
X137500000Y-117500000D03*
X142500000Y-117500000D03*
X140000000Y-117500000D03*
X117900000Y-111800000D03*
X113655560Y-111781862D03*
X106500000Y-92000000D03*
X106500000Y-99000000D03*
G04 #@! TO.N,+3V3*
X170600000Y-123900002D03*
X168599985Y-123799977D03*
G04 #@! TO.N,Net-(D1-Pad2)*
X177390000Y-85910000D03*
G04 #@! TO.N,Net-(D2-Pad2)*
X177600000Y-91860000D03*
G04 #@! TO.N,Net-(D3-Pad2)*
X103340000Y-85930000D03*
G04 #@! TO.N,SWCLK*
X159699998Y-122200000D03*
G04 #@! TO.N,SWDI0*
X154200000Y-122900000D03*
G04 #@! TO.N,NRST*
X174174990Y-131620657D03*
X176352347Y-131620655D03*
G04 #@! TO.N,Net-(R3-Pad1)*
X174250000Y-121249994D03*
G04 #@! TO.N,SDA*
X151310002Y-124057368D03*
X143300000Y-130200000D03*
X124700000Y-122200000D03*
X125100000Y-129200000D03*
X122099996Y-122800000D03*
G04 #@! TO.N,SCL*
X145000000Y-130500000D03*
X150290000Y-125150000D03*
X124100000Y-130400000D03*
G04 #@! TO.N,ADC_RDY*
X162410000Y-126990000D03*
X125700000Y-127000000D03*
X164250000Y-129749996D03*
G04 #@! TO.N,/PANEL_SENSE*
X176260000Y-127290000D03*
G04 #@! TO.N,/BATT_SENSE*
X176090000Y-128810000D03*
G04 #@! TO.N,/FR_DIAG*
X134000000Y-125999992D03*
X126100004Y-106200000D03*
G04 #@! TO.N,CURRENT_SENSE*
X129500000Y-128000000D03*
X141000000Y-126500000D03*
X119900000Y-126000000D03*
G04 #@! TO.N,Net-(R13-Pad1)*
X126269990Y-108250000D03*
X134000000Y-124000000D03*
G04 #@! TO.N,/INPUT*
X126199988Y-110490000D03*
X134000000Y-128000001D03*
G04 #@! TO.N,/LED_4*
X103650000Y-92000000D03*
G04 #@! TO.N,/LED_1*
X179000000Y-121250000D03*
G04 #@! TO.N,/LED_2*
X180999990Y-121250000D03*
G04 #@! TO.N,/LED_3*
X165000000Y-121500000D03*
X115900000Y-118600000D03*
X165500000Y-131325010D03*
G04 #@! TD*
D25*
G04 #@! TO.N,GND*
X99325000Y-92075000D02*
X99400000Y-92000000D01*
X96300000Y-96000000D02*
X92500000Y-96000000D01*
X180080001Y-104580001D02*
X180080001Y-106500001D01*
X131725000Y-108190000D02*
X131725000Y-103175000D01*
X131725000Y-103175000D02*
X131900000Y-103000000D01*
X131900000Y-103000000D02*
X178500000Y-103000000D01*
X180080001Y-106500001D02*
X181580000Y-108000000D01*
X178500000Y-103000000D02*
X180080001Y-104580001D01*
X164585000Y-126025000D02*
X164060001Y-125500001D01*
X166650000Y-126025000D02*
X164585000Y-126025000D01*
X156999999Y-125500001D02*
X156600000Y-125900000D01*
X164060001Y-125500001D02*
X156999999Y-125500001D01*
X166650000Y-126025000D02*
X167625000Y-126025000D01*
X169500000Y-129309305D02*
X169500000Y-129874990D01*
X169500000Y-127900000D02*
X169500000Y-129309305D01*
X167625000Y-126025000D02*
X169500000Y-127900000D01*
X183500000Y-116500000D02*
X181500000Y-118500000D01*
X183500000Y-109920000D02*
X183500000Y-116500000D01*
X181580000Y-108000000D02*
X183500000Y-109920000D01*
G04 #@! TO.N,+24V*
X144875000Y-108000000D02*
X140875000Y-112000000D01*
X176500000Y-108000000D02*
X144875000Y-108000000D01*
X117900000Y-111800000D02*
X113673698Y-111800000D01*
X113673698Y-111800000D02*
X113655560Y-111781862D01*
X106500000Y-92000000D02*
X106500000Y-99000000D01*
G04 #@! TO.N,+3V3*
X170600000Y-124400000D02*
X170600000Y-123900002D01*
X171575000Y-125375000D02*
X170600000Y-124400000D01*
X172550000Y-125375000D02*
X171575000Y-125375000D01*
X167625000Y-125375000D02*
X168599985Y-124400015D01*
X168599985Y-124400015D02*
X168599985Y-124365662D01*
X166650000Y-125375000D02*
X167625000Y-125375000D01*
X168599985Y-124365662D02*
X168599985Y-123799977D01*
G04 #@! TO.N,Net-(D1-Pad2)*
X177390000Y-85910000D02*
X175415000Y-85910000D01*
G04 #@! TO.N,Net-(D2-Pad2)*
X177600000Y-91860000D02*
X175415000Y-91860000D01*
G04 #@! TO.N,Net-(D3-Pad2)*
X101385000Y-85930000D02*
X101375000Y-85920000D01*
X103340000Y-85930000D02*
X101385000Y-85930000D01*
G04 #@! TO.N,SWCLK*
X160099997Y-122599999D02*
X159699998Y-122200000D01*
X166650000Y-122775000D02*
X160274998Y-122775000D01*
X160274998Y-122775000D02*
X160099997Y-122599999D01*
G04 #@! TO.N,SWDI0*
X154725000Y-123425000D02*
X154599999Y-123299999D01*
X166650000Y-123425000D02*
X154725000Y-123425000D01*
X154599999Y-123299999D02*
X154200000Y-122900000D01*
G04 #@! TO.N,NRST*
X173774991Y-132020656D02*
X174174990Y-131620657D01*
X151340000Y-130600000D02*
X152839999Y-132099999D01*
X173695648Y-132099999D02*
X173774991Y-132020656D01*
X152839999Y-132099999D02*
X173695648Y-132099999D01*
X172550000Y-124725000D02*
X175325000Y-124725000D01*
X176752346Y-131220656D02*
X176352347Y-131620655D01*
X177300000Y-126700000D02*
X177300000Y-130673002D01*
X175325000Y-124725000D02*
X177300000Y-126700000D01*
X177300000Y-130673002D02*
X176752346Y-131220656D01*
G04 #@! TO.N,UART_TX*
X149649999Y-131449999D02*
X148800000Y-130600000D01*
X150800000Y-132600000D02*
X149649999Y-131449999D01*
X172550000Y-127325000D02*
X173525000Y-127325000D01*
X173525000Y-127325000D02*
X175100000Y-128900000D01*
X175100000Y-128900000D02*
X175100000Y-131900000D01*
X174400000Y-132600000D02*
X150800000Y-132600000D01*
X175100000Y-131900000D02*
X174400000Y-132600000D01*
G04 #@! TO.N,Net-(R3-Pad1)*
X173050000Y-122775000D02*
X174250000Y-121575000D01*
X172550000Y-122775000D02*
X173050000Y-122775000D01*
X174250000Y-121575000D02*
X174250000Y-121249994D01*
G04 #@! TO.N,SDA*
X143300000Y-130200000D02*
X126180000Y-130200000D01*
X126100000Y-130200000D02*
X125100000Y-129200000D01*
X126180000Y-130200000D02*
X126100000Y-130200000D01*
X124700000Y-122200000D02*
X124100000Y-122800000D01*
X122665681Y-122800000D02*
X122099996Y-122800000D01*
X124100000Y-122800000D02*
X122665681Y-122800000D01*
X151327634Y-124075000D02*
X151310002Y-124057368D01*
X166650000Y-124075000D02*
X151327634Y-124075000D01*
G04 #@! TO.N,SCL*
X150855685Y-125150000D02*
X150290000Y-125150000D01*
X152830000Y-125150000D02*
X150855685Y-125150000D01*
X153255000Y-124725000D02*
X152830000Y-125150000D01*
X166650000Y-124725000D02*
X153255000Y-124725000D01*
X144500001Y-130999999D02*
X124699999Y-130999999D01*
X124499999Y-130799999D02*
X124100000Y-130400000D01*
X145000000Y-130500000D02*
X144500001Y-130999999D01*
X124699999Y-130999999D02*
X124499999Y-130799999D01*
G04 #@! TO.N,ADC_RDY*
X162745000Y-127325000D02*
X162410000Y-126990000D01*
X166650000Y-127325000D02*
X162745000Y-127325000D01*
X129926998Y-127000000D02*
X132026999Y-129100001D01*
X163850001Y-129349997D02*
X164250000Y-129749996D01*
X163600005Y-129100001D02*
X163850001Y-129349997D01*
X132026999Y-129100001D02*
X163600005Y-129100001D01*
X125700000Y-127000000D02*
X129926998Y-127000000D01*
G04 #@! TO.N,/PANEL_SENSE*
X174995000Y-126025000D02*
X176260000Y-127290000D01*
X172550000Y-126025000D02*
X174995000Y-126025000D01*
G04 #@! TO.N,/BATT_SENSE*
X172550000Y-126675000D02*
X173955000Y-126675000D01*
X173955000Y-126675000D02*
X176090000Y-128810000D01*
G04 #@! TO.N,/PWM*
X139400000Y-127900000D02*
X138800000Y-127900000D01*
X140125000Y-128625000D02*
X139400000Y-127900000D01*
X138800000Y-127900000D02*
X138600000Y-127700000D01*
X166650000Y-128625000D02*
X140125000Y-128625000D01*
G04 #@! TO.N,/FR_DIAG*
X136850000Y-126000000D02*
X136849992Y-125999992D01*
X136849992Y-125999992D02*
X134565685Y-125999992D01*
X134565685Y-125999992D02*
X134000000Y-125999992D01*
X131725000Y-109460000D02*
X129825000Y-109460000D01*
X129825000Y-109460000D02*
X126565000Y-106200000D01*
X126565000Y-106200000D02*
X126100004Y-106200000D01*
G04 #@! TO.N,CURRENT_SENSE*
X163948002Y-126675000D02*
X163448001Y-126174999D01*
X157975001Y-126174999D02*
X156810000Y-127340000D01*
X156810000Y-127340000D02*
X143266996Y-127340000D01*
X163448001Y-126174999D02*
X157975001Y-126174999D01*
X166650000Y-126675000D02*
X163948002Y-126675000D01*
X143266996Y-127340000D02*
X141840000Y-127340000D01*
X141399999Y-126899999D02*
X141000000Y-126500000D01*
X141840000Y-127340000D02*
X141399999Y-126899999D01*
X138500000Y-124000000D02*
X138375000Y-124000000D01*
X141000000Y-126500000D02*
X138500000Y-124000000D01*
X121900000Y-128000000D02*
X120299999Y-126399999D01*
X120299999Y-126399999D02*
X119900000Y-126000000D01*
X129500000Y-128000000D02*
X121900000Y-128000000D01*
G04 #@! TO.N,Net-(R13-Pad1)*
X126669989Y-108649999D02*
X126269990Y-108250000D01*
X131725000Y-110730000D02*
X128749990Y-110730000D01*
X128749990Y-110730000D02*
X126669989Y-108649999D01*
X136625000Y-124000000D02*
X136000000Y-124000000D01*
X136000000Y-124000000D02*
X134000000Y-124000000D01*
G04 #@! TO.N,/INPUT*
X127709988Y-112000000D02*
X126599987Y-110889999D01*
X126599987Y-110889999D02*
X126199988Y-110490000D01*
X131725000Y-112000000D02*
X127709988Y-112000000D01*
X134100001Y-127900000D02*
X134000000Y-128000001D01*
X136650000Y-127900000D02*
X134100001Y-127900000D01*
X136850000Y-127700000D02*
X136650000Y-127900000D01*
G04 #@! TO.N,Net-(R12-Pad2)*
X166650000Y-127975000D02*
X140901996Y-127975000D01*
X140901996Y-127975000D02*
X138600000Y-125673004D01*
G04 #@! TO.N,/LED_4*
X101450000Y-92000000D02*
X103650000Y-92000000D01*
G04 #@! TO.N,/LED_1*
X178600001Y-121649999D02*
X179000000Y-121250000D01*
X172550000Y-123425000D02*
X176825000Y-123425000D01*
X176825000Y-123425000D02*
X178600001Y-121649999D01*
G04 #@! TO.N,/LED_2*
X180599991Y-121649999D02*
X180999990Y-121250000D01*
X172550000Y-124075000D02*
X178174990Y-124075000D01*
X178174990Y-124075000D02*
X180599991Y-121649999D01*
G04 #@! TO.N,/LED_3*
X118700000Y-121400000D02*
X116299999Y-118999999D01*
X164574998Y-121074998D02*
X154551998Y-121074998D01*
X154551998Y-121074998D02*
X154226996Y-121400000D01*
X116299999Y-118999999D02*
X115900000Y-118600000D01*
X165000000Y-121500000D02*
X164574998Y-121074998D01*
X154226996Y-121400000D02*
X118700000Y-121400000D01*
X172550000Y-130850000D02*
X172074990Y-131325010D01*
X166065685Y-131325010D02*
X165500000Y-131325010D01*
X172074990Y-131325010D02*
X166065685Y-131325010D01*
X172550000Y-128625000D02*
X172550000Y-130850000D01*
G04 #@! TD*
D26*
G04 #@! TO.N,+24V*
G36*
X159873000Y-118373000D02*
X136127000Y-118373000D01*
X136127000Y-105627000D01*
X159873000Y-105627000D01*
X159873000Y-118373000D01*
X159873000Y-118373000D01*
G37*
X159873000Y-118373000D02*
X136127000Y-118373000D01*
X136127000Y-105627000D01*
X159873000Y-105627000D01*
X159873000Y-118373000D01*
G04 #@! TO.N,/DIODE*
G36*
X105773000Y-110873000D02*
X95427000Y-110873000D01*
X95427000Y-105127000D01*
X105773000Y-105127000D01*
X105773000Y-110873000D01*
X105773000Y-110873000D01*
G37*
X105773000Y-110873000D02*
X95427000Y-110873000D01*
X95427000Y-105127000D01*
X105773000Y-105127000D01*
X105773000Y-110873000D01*
G04 #@! TO.N,-BATT*
G36*
X94373000Y-112873000D02*
X89210000Y-112873000D01*
X89210000Y-99127000D01*
X94373000Y-99127000D01*
X94373000Y-112873000D01*
X94373000Y-112873000D01*
G37*
X94373000Y-112873000D02*
X89210000Y-112873000D01*
X89210000Y-99127000D01*
X94373000Y-99127000D01*
X94373000Y-112873000D01*
G04 #@! TO.N,/OUT*
G36*
X118163223Y-105189817D02*
X118608618Y-105371012D01*
X118999770Y-105664651D01*
X125828777Y-112322932D01*
X125841190Y-112333566D01*
X126252042Y-112641993D01*
X126280431Y-112658065D01*
X126756297Y-112851656D01*
X126787843Y-112859966D01*
X127297325Y-112925948D01*
X127313636Y-112927000D01*
X129070742Y-112927000D01*
X129177235Y-112998157D01*
X129425000Y-113047440D01*
X132718619Y-113047440D01*
X133035952Y-113178884D01*
X133423636Y-113476364D01*
X133721116Y-113864048D01*
X133908120Y-114315515D01*
X133973000Y-114808328D01*
X133973000Y-116491672D01*
X133908120Y-116984485D01*
X133721116Y-117435952D01*
X133423636Y-117823636D01*
X133035952Y-118121116D01*
X132584485Y-118308120D01*
X132091672Y-118373000D01*
X127298878Y-118373000D01*
X126825851Y-118313309D01*
X126389966Y-118140940D01*
X126004050Y-117860963D01*
X119163848Y-111448275D01*
X119151565Y-111438129D01*
X118746219Y-111144056D01*
X118718344Y-111128752D01*
X118675534Y-111111823D01*
X118486280Y-110922569D01*
X118105874Y-110765000D01*
X117694126Y-110765000D01*
X117433390Y-110873000D01*
X114508328Y-110873000D01*
X114015515Y-110808120D01*
X113564048Y-110621116D01*
X113176364Y-110323636D01*
X112878884Y-109935952D01*
X112691880Y-109484485D01*
X112627000Y-108991672D01*
X112627000Y-107008328D01*
X112691880Y-106515515D01*
X112878884Y-106064048D01*
X113176364Y-105676364D01*
X113564048Y-105378884D01*
X114015515Y-105191880D01*
X114508328Y-105127000D01*
X117678176Y-105127000D01*
X118163223Y-105189817D01*
X118163223Y-105189817D01*
G37*
X118163223Y-105189817D02*
X118608618Y-105371012D01*
X118999770Y-105664651D01*
X125828777Y-112322932D01*
X125841190Y-112333566D01*
X126252042Y-112641993D01*
X126280431Y-112658065D01*
X126756297Y-112851656D01*
X126787843Y-112859966D01*
X127297325Y-112925948D01*
X127313636Y-112927000D01*
X129070742Y-112927000D01*
X129177235Y-112998157D01*
X129425000Y-113047440D01*
X132718619Y-113047440D01*
X133035952Y-113178884D01*
X133423636Y-113476364D01*
X133721116Y-113864048D01*
X133908120Y-114315515D01*
X133973000Y-114808328D01*
X133973000Y-116491672D01*
X133908120Y-116984485D01*
X133721116Y-117435952D01*
X133423636Y-117823636D01*
X133035952Y-118121116D01*
X132584485Y-118308120D01*
X132091672Y-118373000D01*
X127298878Y-118373000D01*
X126825851Y-118313309D01*
X126389966Y-118140940D01*
X126004050Y-117860963D01*
X119163848Y-111448275D01*
X119151565Y-111438129D01*
X118746219Y-111144056D01*
X118718344Y-111128752D01*
X118675534Y-111111823D01*
X118486280Y-110922569D01*
X118105874Y-110765000D01*
X117694126Y-110765000D01*
X117433390Y-110873000D01*
X114508328Y-110873000D01*
X114015515Y-110808120D01*
X113564048Y-110621116D01*
X113176364Y-110323636D01*
X112878884Y-109935952D01*
X112691880Y-109484485D01*
X112627000Y-108991672D01*
X112627000Y-107008328D01*
X112691880Y-106515515D01*
X112878884Y-106064048D01*
X113176364Y-105676364D01*
X113564048Y-105378884D01*
X114015515Y-105191880D01*
X114508328Y-105127000D01*
X117678176Y-105127000D01*
X118163223Y-105189817D01*
G04 #@! TO.N,GND*
G36*
X114040001Y-101930069D02*
X114026091Y-102000000D01*
X114081195Y-102277028D01*
X114238119Y-102511881D01*
X114472972Y-102668805D01*
X114680074Y-102710000D01*
X114680075Y-102710000D01*
X114750000Y-102723909D01*
X114819926Y-102710000D01*
X160180074Y-102710000D01*
X160250000Y-102723909D01*
X160319925Y-102710000D01*
X160319926Y-102710000D01*
X160527028Y-102668805D01*
X160761881Y-102511881D01*
X160918805Y-102277028D01*
X160973909Y-102000000D01*
X160960000Y-101930074D01*
X160960000Y-92285750D01*
X172265000Y-92285750D01*
X172265000Y-92826310D01*
X172361673Y-93059699D01*
X172540302Y-93238327D01*
X172773691Y-93335000D01*
X173189250Y-93335000D01*
X173348000Y-93176250D01*
X173348000Y-92127000D01*
X172423750Y-92127000D01*
X172265000Y-92285750D01*
X160960000Y-92285750D01*
X160960000Y-91173690D01*
X172265000Y-91173690D01*
X172265000Y-91714250D01*
X172423750Y-91873000D01*
X173348000Y-91873000D01*
X173348000Y-90823750D01*
X173602000Y-90823750D01*
X173602000Y-91873000D01*
X173622000Y-91873000D01*
X173622000Y-92127000D01*
X173602000Y-92127000D01*
X173602000Y-93176250D01*
X173760750Y-93335000D01*
X174176309Y-93335000D01*
X174409698Y-93238327D01*
X174564623Y-93083403D01*
X174565414Y-93084586D01*
X174856564Y-93279127D01*
X175199999Y-93347440D01*
X175850001Y-93347440D01*
X176193436Y-93279127D01*
X176484586Y-93084586D01*
X176679127Y-92793436D01*
X176713625Y-92620000D01*
X176896289Y-92620000D01*
X177013720Y-92737431D01*
X177394126Y-92895000D01*
X177805874Y-92895000D01*
X178186280Y-92737431D01*
X178477431Y-92446280D01*
X178635000Y-92065874D01*
X178635000Y-91654126D01*
X178477431Y-91273720D01*
X178186280Y-90982569D01*
X177805874Y-90825000D01*
X177394126Y-90825000D01*
X177013720Y-90982569D01*
X176896289Y-91100000D01*
X176607923Y-91100000D01*
X176484586Y-90915414D01*
X176193436Y-90720873D01*
X175850001Y-90652560D01*
X175199999Y-90652560D01*
X174856564Y-90720873D01*
X174565414Y-90915414D01*
X174564623Y-90916597D01*
X174409698Y-90761673D01*
X174176309Y-90665000D01*
X173760750Y-90665000D01*
X173602000Y-90823750D01*
X173348000Y-90823750D01*
X173189250Y-90665000D01*
X172773691Y-90665000D01*
X172540302Y-90761673D01*
X172361673Y-90940301D01*
X172265000Y-91173690D01*
X160960000Y-91173690D01*
X160960000Y-86285750D01*
X172240000Y-86285750D01*
X172240000Y-86826310D01*
X172336673Y-87059699D01*
X172515302Y-87238327D01*
X172748691Y-87335000D01*
X173164250Y-87335000D01*
X173323000Y-87176250D01*
X173323000Y-86127000D01*
X172398750Y-86127000D01*
X172240000Y-86285750D01*
X160960000Y-86285750D01*
X160960000Y-85173690D01*
X172240000Y-85173690D01*
X172240000Y-85714250D01*
X172398750Y-85873000D01*
X173323000Y-85873000D01*
X173323000Y-84823750D01*
X173577000Y-84823750D01*
X173577000Y-85873000D01*
X173597000Y-85873000D01*
X173597000Y-86127000D01*
X173577000Y-86127000D01*
X173577000Y-87176250D01*
X173735750Y-87335000D01*
X174151309Y-87335000D01*
X174384698Y-87238327D01*
X174539623Y-87083403D01*
X174540414Y-87084586D01*
X174831564Y-87279127D01*
X175174999Y-87347440D01*
X175825001Y-87347440D01*
X176168436Y-87279127D01*
X176459586Y-87084586D01*
X176654127Y-86793436D01*
X176678680Y-86670000D01*
X176686289Y-86670000D01*
X176803720Y-86787431D01*
X177184126Y-86945000D01*
X177595874Y-86945000D01*
X177976280Y-86787431D01*
X178267431Y-86496280D01*
X178425000Y-86115874D01*
X178425000Y-85704126D01*
X178267431Y-85323720D01*
X177976280Y-85032569D01*
X177595874Y-84875000D01*
X177184126Y-84875000D01*
X176803720Y-85032569D01*
X176686289Y-85150000D01*
X176616332Y-85150000D01*
X176459586Y-84915414D01*
X176168436Y-84720873D01*
X175825001Y-84652560D01*
X175174999Y-84652560D01*
X174831564Y-84720873D01*
X174540414Y-84915414D01*
X174539623Y-84916597D01*
X174384698Y-84761673D01*
X174151309Y-84665000D01*
X173735750Y-84665000D01*
X173577000Y-84823750D01*
X173323000Y-84823750D01*
X173164250Y-84665000D01*
X172748691Y-84665000D01*
X172515302Y-84761673D01*
X172336673Y-84940301D01*
X172240000Y-85173690D01*
X160960000Y-85173690D01*
X160960000Y-81740910D01*
X179938695Y-81740910D01*
X180305640Y-82236343D01*
X181711171Y-82829736D01*
X183236793Y-82840087D01*
X184650246Y-82265819D01*
X184694360Y-82236343D01*
X185061305Y-81740910D01*
X182500000Y-79179605D01*
X179938695Y-81740910D01*
X160960000Y-81740910D01*
X160960000Y-79736793D01*
X178659913Y-79736793D01*
X179234181Y-81150246D01*
X179263657Y-81194360D01*
X179759090Y-81561305D01*
X182320395Y-79000000D01*
X179759090Y-76438695D01*
X179263657Y-76805640D01*
X178670264Y-78211171D01*
X178659913Y-79736793D01*
X160960000Y-79736793D01*
X160960000Y-75710000D01*
X180409271Y-75710000D01*
X180349754Y-75734181D01*
X180305640Y-75763657D01*
X179938695Y-76259090D01*
X182500000Y-78820395D01*
X182514143Y-78806253D01*
X182693748Y-78985858D01*
X182679605Y-79000000D01*
X185240910Y-81561305D01*
X185736343Y-81194360D01*
X185790000Y-81067266D01*
X185790001Y-128909273D01*
X185765819Y-128849754D01*
X185736343Y-128805640D01*
X185240910Y-128438695D01*
X182679605Y-131000000D01*
X182693748Y-131014143D01*
X182514143Y-131193748D01*
X182500000Y-131179605D01*
X179938695Y-133740910D01*
X180305640Y-134236343D01*
X180432734Y-134290000D01*
X94590729Y-134290000D01*
X94650246Y-134265819D01*
X94694360Y-134236343D01*
X95061305Y-133740910D01*
X92500000Y-131179605D01*
X92485858Y-131193748D01*
X92306253Y-131014143D01*
X92320395Y-131000000D01*
X92679605Y-131000000D01*
X95240910Y-133561305D01*
X95736343Y-133194360D01*
X96329736Y-131788829D01*
X96340087Y-130263207D01*
X95765819Y-128849754D01*
X95736343Y-128805640D01*
X95240910Y-128438695D01*
X92679605Y-131000000D01*
X92320395Y-131000000D01*
X89759090Y-128438695D01*
X89263657Y-128805640D01*
X89210000Y-128932734D01*
X89210000Y-128259090D01*
X89938695Y-128259090D01*
X92500000Y-130820395D01*
X95061305Y-128259090D01*
X94694360Y-127763657D01*
X93288829Y-127170264D01*
X91763207Y-127159913D01*
X90349754Y-127734181D01*
X90305640Y-127763657D01*
X89938695Y-128259090D01*
X89210000Y-128259090D01*
X89210000Y-118394126D01*
X114865000Y-118394126D01*
X114865000Y-118805874D01*
X115022569Y-119186280D01*
X115313720Y-119477431D01*
X115694126Y-119635000D01*
X115860199Y-119635000D01*
X118109671Y-121884473D01*
X118152071Y-121947929D01*
X118403463Y-122115904D01*
X118625148Y-122160000D01*
X118625153Y-122160000D01*
X118700000Y-122174888D01*
X118774847Y-122160000D01*
X121276285Y-122160000D01*
X121222565Y-122213720D01*
X121064996Y-122594126D01*
X121064996Y-123005874D01*
X121222565Y-123386280D01*
X121513716Y-123677431D01*
X121894122Y-123835000D01*
X122305870Y-123835000D01*
X122686276Y-123677431D01*
X122803707Y-123560000D01*
X124025153Y-123560000D01*
X124100000Y-123574888D01*
X124174847Y-123560000D01*
X124174852Y-123560000D01*
X124396537Y-123515904D01*
X124647929Y-123347929D01*
X124690331Y-123284470D01*
X124739801Y-123235000D01*
X124905874Y-123235000D01*
X125286280Y-123077431D01*
X125577431Y-122786280D01*
X125735000Y-122405874D01*
X125735000Y-122160000D01*
X153476289Y-122160000D01*
X153322569Y-122313720D01*
X153165000Y-122694126D01*
X153165000Y-123105874D01*
X153251623Y-123315000D01*
X152031345Y-123315000D01*
X151896282Y-123179937D01*
X151515876Y-123022368D01*
X151104128Y-123022368D01*
X150723722Y-123179937D01*
X150432571Y-123471088D01*
X150275002Y-123851494D01*
X150275002Y-124115000D01*
X150084126Y-124115000D01*
X149703720Y-124272569D01*
X149412569Y-124563720D01*
X149255000Y-124944126D01*
X149255000Y-125355874D01*
X149412569Y-125736280D01*
X149703720Y-126027431D01*
X150084126Y-126185000D01*
X150495874Y-126185000D01*
X150876280Y-126027431D01*
X150993711Y-125910000D01*
X152755153Y-125910000D01*
X152830000Y-125924888D01*
X152904847Y-125910000D01*
X152904852Y-125910000D01*
X153126537Y-125865904D01*
X153377929Y-125697929D01*
X153420331Y-125634470D01*
X153569801Y-125485000D01*
X157639694Y-125485000D01*
X157427072Y-125627070D01*
X157384672Y-125690526D01*
X156495199Y-126580000D01*
X142154801Y-126580000D01*
X142035000Y-126460199D01*
X142035000Y-126294126D01*
X141877431Y-125913720D01*
X141586280Y-125622569D01*
X141205874Y-125465000D01*
X141039802Y-125465000D01*
X139547440Y-123972639D01*
X139547440Y-123762500D01*
X139480078Y-123423848D01*
X139288247Y-123136753D01*
X139001152Y-122944922D01*
X138662500Y-122877560D01*
X138087500Y-122877560D01*
X137748848Y-122944922D01*
X137500000Y-123111197D01*
X137251152Y-122944922D01*
X136912500Y-122877560D01*
X136337500Y-122877560D01*
X135998848Y-122944922D01*
X135711753Y-123136753D01*
X135642765Y-123240000D01*
X134703711Y-123240000D01*
X134586280Y-123122569D01*
X134205874Y-122965000D01*
X133794126Y-122965000D01*
X133413720Y-123122569D01*
X133122569Y-123413720D01*
X132965000Y-123794126D01*
X132965000Y-124205874D01*
X133122569Y-124586280D01*
X133413720Y-124877431D01*
X133709619Y-124999996D01*
X133413720Y-125122561D01*
X133122569Y-125413712D01*
X132965000Y-125794118D01*
X132965000Y-126205866D01*
X133122569Y-126586272D01*
X133413720Y-126877423D01*
X133709639Y-126999996D01*
X133413720Y-127122570D01*
X133122569Y-127413721D01*
X132965000Y-127794127D01*
X132965000Y-128205875D01*
X133020557Y-128340001D01*
X132341801Y-128340001D01*
X130517329Y-126515530D01*
X130474927Y-126452071D01*
X130223535Y-126284096D01*
X130001850Y-126240000D01*
X130001845Y-126240000D01*
X129926998Y-126225112D01*
X129852151Y-126240000D01*
X126403711Y-126240000D01*
X126286280Y-126122569D01*
X125905874Y-125965000D01*
X125494126Y-125965000D01*
X125113720Y-126122569D01*
X124822569Y-126413720D01*
X124665000Y-126794126D01*
X124665000Y-127205874D01*
X124679135Y-127240000D01*
X122214802Y-127240000D01*
X120935000Y-125960199D01*
X120935000Y-125794126D01*
X120777431Y-125413720D01*
X120486280Y-125122569D01*
X120105874Y-124965000D01*
X119694126Y-124965000D01*
X119313720Y-125122569D01*
X119022569Y-125413720D01*
X118865000Y-125794126D01*
X118865000Y-126205874D01*
X119022569Y-126586280D01*
X119313720Y-126877431D01*
X119694126Y-127035000D01*
X119860199Y-127035000D01*
X121309671Y-128484473D01*
X121352071Y-128547929D01*
X121603463Y-128715904D01*
X121825148Y-128760000D01*
X121825152Y-128760000D01*
X121899999Y-128774888D01*
X121974846Y-128760000D01*
X124161978Y-128760000D01*
X124065000Y-128994126D01*
X124065000Y-129365000D01*
X123894126Y-129365000D01*
X123513720Y-129522569D01*
X123222569Y-129813720D01*
X123065000Y-130194126D01*
X123065000Y-130605874D01*
X123222569Y-130986280D01*
X123513720Y-131277431D01*
X123894126Y-131435000D01*
X124060199Y-131435000D01*
X124109668Y-131484469D01*
X124152070Y-131547928D01*
X124403462Y-131715903D01*
X124625147Y-131759999D01*
X124625151Y-131759999D01*
X124699999Y-131774887D01*
X124774847Y-131759999D01*
X144425154Y-131759999D01*
X144500001Y-131774887D01*
X144574848Y-131759999D01*
X144574853Y-131759999D01*
X144796538Y-131715903D01*
X145047930Y-131547928D01*
X145056568Y-131535000D01*
X145205874Y-131535000D01*
X145586280Y-131377431D01*
X145877431Y-131086280D01*
X146035000Y-130705874D01*
X146035000Y-130294126D01*
X145877431Y-129913720D01*
X145823712Y-129860001D01*
X147508458Y-129860001D01*
X147401161Y-130020582D01*
X147285908Y-130600000D01*
X147401161Y-131179418D01*
X147729375Y-131670625D01*
X148220582Y-131998839D01*
X148653744Y-132085000D01*
X148946256Y-132085000D01*
X149166408Y-132041209D01*
X150209671Y-133084473D01*
X150252071Y-133147929D01*
X150503463Y-133315904D01*
X150725148Y-133360000D01*
X150725152Y-133360000D01*
X150799999Y-133374888D01*
X150874846Y-133360000D01*
X174325153Y-133360000D01*
X174400000Y-133374888D01*
X174474847Y-133360000D01*
X174474852Y-133360000D01*
X174696537Y-133315904D01*
X174947929Y-133147929D01*
X174990330Y-133084471D01*
X175584475Y-132490328D01*
X175647929Y-132447929D01*
X175675158Y-132407177D01*
X175766067Y-132498086D01*
X176146473Y-132655655D01*
X176558221Y-132655655D01*
X176938627Y-132498086D01*
X177229778Y-132206935D01*
X177387347Y-131826529D01*
X177387347Y-131736793D01*
X178659913Y-131736793D01*
X179234181Y-133150246D01*
X179263657Y-133194360D01*
X179759090Y-133561305D01*
X182320395Y-131000000D01*
X179759090Y-128438695D01*
X179263657Y-128805640D01*
X178670264Y-130211171D01*
X178659913Y-131736793D01*
X177387347Y-131736793D01*
X177387347Y-131660456D01*
X177784473Y-131263331D01*
X177847929Y-131220931D01*
X177897638Y-131146537D01*
X178015904Y-130969540D01*
X178041564Y-130840538D01*
X178060000Y-130747854D01*
X178060000Y-130747850D01*
X178074888Y-130673002D01*
X178060000Y-130598154D01*
X178060000Y-128259090D01*
X179938695Y-128259090D01*
X182500000Y-130820395D01*
X185061305Y-128259090D01*
X184694360Y-127763657D01*
X183288829Y-127170264D01*
X181763207Y-127159913D01*
X180349754Y-127734181D01*
X180305640Y-127763657D01*
X179938695Y-128259090D01*
X178060000Y-128259090D01*
X178060000Y-126774848D01*
X178074888Y-126700000D01*
X178060000Y-126625152D01*
X178060000Y-126625148D01*
X178015904Y-126403463D01*
X178015904Y-126403462D01*
X177890329Y-126215527D01*
X177847929Y-126152071D01*
X177784473Y-126109671D01*
X176509801Y-124835000D01*
X178100143Y-124835000D01*
X178174990Y-124849888D01*
X178249837Y-124835000D01*
X178249842Y-124835000D01*
X178471527Y-124790904D01*
X178722919Y-124622929D01*
X178765321Y-124559470D01*
X181039793Y-122285000D01*
X181205864Y-122285000D01*
X181586270Y-122127431D01*
X181877421Y-121836280D01*
X182034990Y-121455874D01*
X182034990Y-121044126D01*
X181877421Y-120663720D01*
X181586270Y-120372569D01*
X181205864Y-120215000D01*
X180794116Y-120215000D01*
X180413710Y-120372569D01*
X180122559Y-120663720D01*
X179999995Y-120959616D01*
X179877431Y-120663720D01*
X179586280Y-120372569D01*
X179205874Y-120215000D01*
X178794126Y-120215000D01*
X178413720Y-120372569D01*
X178122569Y-120663720D01*
X177965000Y-121044126D01*
X177965000Y-121210197D01*
X176510199Y-122665000D01*
X174234802Y-122665000D01*
X174727191Y-122172611D01*
X174836280Y-122127425D01*
X175127431Y-121836274D01*
X175285000Y-121455868D01*
X175285000Y-121044120D01*
X175127431Y-120663714D01*
X174836280Y-120372563D01*
X174455874Y-120214994D01*
X174044126Y-120214994D01*
X173663720Y-120372563D01*
X173372569Y-120663714D01*
X173215000Y-121044120D01*
X173215000Y-121455868D01*
X173238235Y-121511963D01*
X172847639Y-121902560D01*
X171825000Y-121902560D01*
X171577235Y-121951843D01*
X171367191Y-122092191D01*
X171226843Y-122302235D01*
X171177560Y-122550000D01*
X171177560Y-123000000D01*
X171181670Y-123020661D01*
X170805874Y-122865002D01*
X170394126Y-122865002D01*
X170013720Y-123022571D01*
X169722569Y-123313722D01*
X169620708Y-123559636D01*
X169477416Y-123213697D01*
X169186265Y-122922546D01*
X168805859Y-122764977D01*
X168394111Y-122764977D01*
X168022440Y-122918928D01*
X168022440Y-122550000D01*
X167973157Y-122302235D01*
X167832809Y-122092191D01*
X167622765Y-121951843D01*
X167375000Y-121902560D01*
X165953530Y-121902560D01*
X166035000Y-121705874D01*
X166035000Y-121294126D01*
X165877431Y-120913720D01*
X165586280Y-120622569D01*
X165205874Y-120465000D01*
X165030034Y-120465000D01*
X164871535Y-120359094D01*
X164649850Y-120314998D01*
X164649845Y-120314998D01*
X164574998Y-120300110D01*
X164500151Y-120314998D01*
X154626844Y-120314998D01*
X154551997Y-120300110D01*
X154477150Y-120314998D01*
X154477146Y-120314998D01*
X154255461Y-120359094D01*
X154004069Y-120527069D01*
X153961667Y-120590528D01*
X153912195Y-120640000D01*
X119014802Y-120640000D01*
X116935000Y-118560199D01*
X116935000Y-118394126D01*
X116777431Y-118013720D01*
X116486280Y-117722569D01*
X116105874Y-117565000D01*
X115694126Y-117565000D01*
X115313720Y-117722569D01*
X115022569Y-118013720D01*
X114865000Y-118394126D01*
X89210000Y-118394126D01*
X89210000Y-113635000D01*
X94500000Y-113635000D01*
X94743004Y-113586664D01*
X94949013Y-113449013D01*
X95086664Y-113243004D01*
X95135000Y-113000000D01*
X95135000Y-111602180D01*
X95300000Y-111635000D01*
X105900000Y-111635000D01*
X106143004Y-111586664D01*
X106349013Y-111449013D01*
X106486664Y-111243004D01*
X106535000Y-111000000D01*
X106535000Y-107000000D01*
X111865000Y-107000000D01*
X111865000Y-109000000D01*
X111870432Y-109082884D01*
X111938580Y-109600522D01*
X111981485Y-109760642D01*
X112181286Y-110243004D01*
X112264169Y-110386563D01*
X112582006Y-110800777D01*
X112699223Y-110917994D01*
X112900937Y-111072774D01*
X112778129Y-111195582D01*
X112620560Y-111575988D01*
X112620560Y-111987736D01*
X112778129Y-112368142D01*
X113069280Y-112659293D01*
X113449686Y-112816862D01*
X113861434Y-112816862D01*
X114241840Y-112659293D01*
X114341133Y-112560000D01*
X117196289Y-112560000D01*
X117313720Y-112677431D01*
X117694126Y-112835000D01*
X118105874Y-112835000D01*
X118486280Y-112677431D01*
X118777431Y-112386280D01*
X118853742Y-112202048D01*
X125488710Y-118422330D01*
X125550125Y-118473058D01*
X125955471Y-118767131D01*
X126094845Y-118843652D01*
X126560538Y-119027809D01*
X126714553Y-119067308D01*
X127211396Y-119130004D01*
X127290895Y-119135000D01*
X132100000Y-119135000D01*
X132182884Y-119129568D01*
X132700522Y-119061420D01*
X132860642Y-119018515D01*
X133343004Y-118818714D01*
X133486563Y-118735831D01*
X133900777Y-118417994D01*
X134017994Y-118300777D01*
X134335831Y-117886563D01*
X134418714Y-117743004D01*
X134618515Y-117260642D01*
X134661420Y-117100522D01*
X134729568Y-116582884D01*
X134735000Y-116500000D01*
X134735000Y-114800000D01*
X134729568Y-114717116D01*
X134672440Y-114283184D01*
X134672440Y-112870000D01*
X134625696Y-112635000D01*
X134672440Y-112400000D01*
X134672440Y-111600000D01*
X134625696Y-111365000D01*
X134672440Y-111130000D01*
X134672440Y-110330000D01*
X134625696Y-110095000D01*
X134672440Y-109860000D01*
X134672440Y-109060000D01*
X134623157Y-108812235D01*
X134621373Y-108809565D01*
X134660000Y-108716310D01*
X134660000Y-108475750D01*
X134501250Y-108317000D01*
X131852000Y-108317000D01*
X131852000Y-108337000D01*
X131598000Y-108337000D01*
X131598000Y-108317000D01*
X131578000Y-108317000D01*
X131578000Y-108063000D01*
X131598000Y-108063000D01*
X131598000Y-107313750D01*
X131852000Y-107313750D01*
X131852000Y-108063000D01*
X134501250Y-108063000D01*
X134660000Y-107904250D01*
X134660000Y-107663690D01*
X134563327Y-107430301D01*
X134384698Y-107251673D01*
X134151309Y-107155000D01*
X132010750Y-107155000D01*
X131852000Y-107313750D01*
X131598000Y-107313750D01*
X131439250Y-107155000D01*
X129298691Y-107155000D01*
X129065302Y-107251673D01*
X128886673Y-107430301D01*
X128881820Y-107442018D01*
X127155331Y-105715530D01*
X127112929Y-105652071D01*
X126885339Y-105500000D01*
X135365000Y-105500000D01*
X135365000Y-118500000D01*
X135413336Y-118743004D01*
X135550987Y-118949013D01*
X135756996Y-119086664D01*
X136000000Y-119135000D01*
X160000000Y-119135000D01*
X160182556Y-119098688D01*
X160417116Y-119129568D01*
X160500000Y-119135000D01*
X161798438Y-119135000D01*
X161905046Y-119125987D01*
X162567060Y-119013244D01*
X162768256Y-118942668D01*
X163355632Y-118617149D01*
X163444509Y-118557590D01*
X172306934Y-111467649D01*
X172752763Y-111220575D01*
X173255247Y-111135000D01*
X177000000Y-111135000D01*
X177082884Y-111129568D01*
X177600522Y-111061420D01*
X177760642Y-111018515D01*
X178243004Y-110818714D01*
X178386563Y-110735831D01*
X178800777Y-110417994D01*
X178917994Y-110300777D01*
X179235831Y-109886563D01*
X179318714Y-109743004D01*
X179413583Y-109513970D01*
X180245635Y-109513970D01*
X180405418Y-109832739D01*
X181196187Y-110142723D01*
X182045387Y-110126497D01*
X182754582Y-109832739D01*
X182914365Y-109513970D01*
X181580000Y-108179605D01*
X180245635Y-109513970D01*
X179413583Y-109513970D01*
X179518515Y-109260642D01*
X179561420Y-109100522D01*
X179598843Y-108816268D01*
X179747261Y-109174582D01*
X180066030Y-109334365D01*
X181400395Y-108000000D01*
X181759605Y-108000000D01*
X183093970Y-109334365D01*
X183412739Y-109174582D01*
X183722723Y-108383813D01*
X183706497Y-107534613D01*
X183412739Y-106825418D01*
X183093970Y-106665635D01*
X181759605Y-108000000D01*
X181400395Y-108000000D01*
X180066030Y-106665635D01*
X179747261Y-106825418D01*
X179600843Y-107198929D01*
X179561420Y-106899478D01*
X179518515Y-106739358D01*
X179413584Y-106486030D01*
X180245635Y-106486030D01*
X181580000Y-107820395D01*
X182914365Y-106486030D01*
X182754582Y-106167261D01*
X181963813Y-105857277D01*
X181114613Y-105873503D01*
X180405418Y-106167261D01*
X180245635Y-106486030D01*
X179413584Y-106486030D01*
X179318714Y-106256996D01*
X179235831Y-106113437D01*
X178917994Y-105699223D01*
X178800777Y-105582006D01*
X178386563Y-105264169D01*
X178243004Y-105181286D01*
X177760642Y-104981485D01*
X177600522Y-104938580D01*
X177082884Y-104870432D01*
X177000000Y-104865000D01*
X160500000Y-104865000D01*
X160417116Y-104870432D01*
X160182556Y-104901312D01*
X160000000Y-104865000D01*
X136000000Y-104865000D01*
X135756996Y-104913336D01*
X135550987Y-105050987D01*
X135413336Y-105256996D01*
X135365000Y-105500000D01*
X126885339Y-105500000D01*
X126861537Y-105484096D01*
X126844403Y-105480688D01*
X126686284Y-105322569D01*
X126305878Y-105165000D01*
X125894130Y-105165000D01*
X125513724Y-105322569D01*
X125222573Y-105613720D01*
X125065004Y-105994126D01*
X125065004Y-106405874D01*
X125222573Y-106786280D01*
X125513724Y-107077431D01*
X125894130Y-107235000D01*
X126015832Y-107235000D01*
X125683710Y-107372569D01*
X125392559Y-107663720D01*
X125234990Y-108044126D01*
X125234990Y-108455874D01*
X125392559Y-108836280D01*
X125683710Y-109127431D01*
X126064116Y-109285000D01*
X126230189Y-109285000D01*
X126400189Y-109455000D01*
X125994114Y-109455000D01*
X125613708Y-109612569D01*
X125322557Y-109903720D01*
X125164988Y-110284126D01*
X125164988Y-110611492D01*
X119525858Y-105113340D01*
X119463792Y-105060171D01*
X119052940Y-104751744D01*
X118910998Y-104671383D01*
X118435132Y-104477792D01*
X118277402Y-104436241D01*
X117767920Y-104370259D01*
X117686364Y-104365000D01*
X114500000Y-104365000D01*
X114417116Y-104370432D01*
X113899478Y-104438580D01*
X113739358Y-104481485D01*
X113256996Y-104681286D01*
X113113437Y-104764169D01*
X112699223Y-105082006D01*
X112582006Y-105199223D01*
X112264169Y-105613437D01*
X112181286Y-105756996D01*
X111981485Y-106239358D01*
X111938580Y-106399478D01*
X111870432Y-106917116D01*
X111865000Y-107000000D01*
X106535000Y-107000000D01*
X106535000Y-105000000D01*
X106486664Y-104756996D01*
X106349013Y-104550987D01*
X106143004Y-104413336D01*
X105900000Y-104365000D01*
X95300000Y-104365000D01*
X95135000Y-104397820D01*
X95135000Y-99000000D01*
X95086664Y-98756996D01*
X94949013Y-98550987D01*
X94743004Y-98413336D01*
X94500000Y-98365000D01*
X89210000Y-98365000D01*
X89210000Y-96285750D01*
X90365000Y-96285750D01*
X90365000Y-97626310D01*
X90461673Y-97859699D01*
X90640302Y-98038327D01*
X90873691Y-98135000D01*
X92214250Y-98135000D01*
X92373000Y-97976250D01*
X92373000Y-96127000D01*
X92627000Y-96127000D01*
X92627000Y-97976250D01*
X92785750Y-98135000D01*
X94126309Y-98135000D01*
X94359698Y-98038327D01*
X94538327Y-97859699D01*
X94635000Y-97626310D01*
X94635000Y-96285750D01*
X94476250Y-96127000D01*
X92627000Y-96127000D01*
X92373000Y-96127000D01*
X90523750Y-96127000D01*
X90365000Y-96285750D01*
X89210000Y-96285750D01*
X89210000Y-94373690D01*
X90365000Y-94373690D01*
X90365000Y-95714250D01*
X90523750Y-95873000D01*
X92373000Y-95873000D01*
X92373000Y-94023750D01*
X92627000Y-94023750D01*
X92627000Y-95873000D01*
X94476250Y-95873000D01*
X94635000Y-95714250D01*
X94635000Y-94373690D01*
X94538327Y-94140301D01*
X94359698Y-93961673D01*
X94126309Y-93865000D01*
X92785750Y-93865000D01*
X92627000Y-94023750D01*
X92373000Y-94023750D01*
X92214250Y-93865000D01*
X90873691Y-93865000D01*
X90640302Y-93961673D01*
X90461673Y-94140301D01*
X90365000Y-94373690D01*
X89210000Y-94373690D01*
X89210000Y-92285750D01*
X98190000Y-92285750D01*
X98190000Y-92826310D01*
X98286673Y-93059699D01*
X98465302Y-93238327D01*
X98698691Y-93335000D01*
X99114250Y-93335000D01*
X99273000Y-93176250D01*
X99273000Y-92127000D01*
X98348750Y-92127000D01*
X98190000Y-92285750D01*
X89210000Y-92285750D01*
X89210000Y-91173690D01*
X98190000Y-91173690D01*
X98190000Y-91714250D01*
X98348750Y-91873000D01*
X99273000Y-91873000D01*
X99273000Y-90823750D01*
X99527000Y-90823750D01*
X99527000Y-91873000D01*
X99547000Y-91873000D01*
X99547000Y-92127000D01*
X99527000Y-92127000D01*
X99527000Y-93176250D01*
X99685750Y-93335000D01*
X100101309Y-93335000D01*
X100334698Y-93238327D01*
X100489623Y-93083403D01*
X100490414Y-93084586D01*
X100781564Y-93279127D01*
X101124999Y-93347440D01*
X101775001Y-93347440D01*
X102118436Y-93279127D01*
X102409586Y-93084586D01*
X102604127Y-92793436D01*
X102610778Y-92760000D01*
X102946289Y-92760000D01*
X103063720Y-92877431D01*
X103444126Y-93035000D01*
X103855874Y-93035000D01*
X104236280Y-92877431D01*
X104527431Y-92586280D01*
X104685000Y-92205874D01*
X104685000Y-91794126D01*
X105465000Y-91794126D01*
X105465000Y-92205874D01*
X105622569Y-92586280D01*
X105740000Y-92703711D01*
X105740001Y-98296288D01*
X105622569Y-98413720D01*
X105465000Y-98794126D01*
X105465000Y-99205874D01*
X105622569Y-99586280D01*
X105913720Y-99877431D01*
X106294126Y-100035000D01*
X106705874Y-100035000D01*
X107086280Y-99877431D01*
X107377431Y-99586280D01*
X107535000Y-99205874D01*
X107535000Y-98794126D01*
X107377431Y-98413720D01*
X107260000Y-98296289D01*
X107260000Y-92703711D01*
X107377431Y-92586280D01*
X107535000Y-92205874D01*
X107535000Y-91794126D01*
X107377431Y-91413720D01*
X107086280Y-91122569D01*
X106705874Y-90965000D01*
X106294126Y-90965000D01*
X105913720Y-91122569D01*
X105622569Y-91413720D01*
X105465000Y-91794126D01*
X104685000Y-91794126D01*
X104527431Y-91413720D01*
X104236280Y-91122569D01*
X103855874Y-90965000D01*
X103444126Y-90965000D01*
X103063720Y-91122569D01*
X102946289Y-91240000D01*
X102610778Y-91240000D01*
X102604127Y-91206564D01*
X102409586Y-90915414D01*
X102118436Y-90720873D01*
X101775001Y-90652560D01*
X101124999Y-90652560D01*
X100781564Y-90720873D01*
X100490414Y-90915414D01*
X100489623Y-90916597D01*
X100334698Y-90761673D01*
X100101309Y-90665000D01*
X99685750Y-90665000D01*
X99527000Y-90823750D01*
X99273000Y-90823750D01*
X99114250Y-90665000D01*
X98698691Y-90665000D01*
X98465302Y-90761673D01*
X98286673Y-90940301D01*
X98190000Y-91173690D01*
X89210000Y-91173690D01*
X89210000Y-86205750D01*
X98115000Y-86205750D01*
X98115000Y-86746310D01*
X98211673Y-86979699D01*
X98390302Y-87158327D01*
X98623691Y-87255000D01*
X99039250Y-87255000D01*
X99198000Y-87096250D01*
X99198000Y-86047000D01*
X98273750Y-86047000D01*
X98115000Y-86205750D01*
X89210000Y-86205750D01*
X89210000Y-85093690D01*
X98115000Y-85093690D01*
X98115000Y-85634250D01*
X98273750Y-85793000D01*
X99198000Y-85793000D01*
X99198000Y-84743750D01*
X99452000Y-84743750D01*
X99452000Y-85793000D01*
X99472000Y-85793000D01*
X99472000Y-86047000D01*
X99452000Y-86047000D01*
X99452000Y-87096250D01*
X99610750Y-87255000D01*
X100026309Y-87255000D01*
X100259698Y-87158327D01*
X100414623Y-87003403D01*
X100415414Y-87004586D01*
X100706564Y-87199127D01*
X101049999Y-87267440D01*
X101700001Y-87267440D01*
X102043436Y-87199127D01*
X102334586Y-87004586D01*
X102529127Y-86713436D01*
X102533789Y-86690000D01*
X102636289Y-86690000D01*
X102753720Y-86807431D01*
X103134126Y-86965000D01*
X103545874Y-86965000D01*
X103926280Y-86807431D01*
X104217431Y-86516280D01*
X104375000Y-86135874D01*
X104375000Y-85724126D01*
X104217431Y-85343720D01*
X103926280Y-85052569D01*
X103545874Y-84895000D01*
X103134126Y-84895000D01*
X102753720Y-85052569D01*
X102636289Y-85170000D01*
X102537767Y-85170000D01*
X102529127Y-85126564D01*
X102334586Y-84835414D01*
X102043436Y-84640873D01*
X101700001Y-84572560D01*
X101049999Y-84572560D01*
X100706564Y-84640873D01*
X100415414Y-84835414D01*
X100414623Y-84836597D01*
X100259698Y-84681673D01*
X100026309Y-84585000D01*
X99610750Y-84585000D01*
X99452000Y-84743750D01*
X99198000Y-84743750D01*
X99039250Y-84585000D01*
X98623691Y-84585000D01*
X98390302Y-84681673D01*
X98211673Y-84860301D01*
X98115000Y-85093690D01*
X89210000Y-85093690D01*
X89210000Y-81740910D01*
X89938695Y-81740910D01*
X90305640Y-82236343D01*
X91711171Y-82829736D01*
X93236793Y-82840087D01*
X94650246Y-82265819D01*
X94694360Y-82236343D01*
X95061305Y-81740910D01*
X92500000Y-79179605D01*
X89938695Y-81740910D01*
X89210000Y-81740910D01*
X89210000Y-81090729D01*
X89234181Y-81150246D01*
X89263657Y-81194360D01*
X89759090Y-81561305D01*
X92320395Y-79000000D01*
X92679605Y-79000000D01*
X95240910Y-81561305D01*
X95736343Y-81194360D01*
X96329736Y-79788829D01*
X96340087Y-78263207D01*
X95765819Y-76849754D01*
X95736343Y-76805640D01*
X95240910Y-76438695D01*
X92679605Y-79000000D01*
X92320395Y-79000000D01*
X92306253Y-78985858D01*
X92485858Y-78806253D01*
X92500000Y-78820395D01*
X95061305Y-76259090D01*
X94694360Y-75763657D01*
X94567266Y-75710000D01*
X114040000Y-75710000D01*
X114040001Y-101930069D01*
X114040001Y-101930069D01*
G37*
X114040001Y-101930069D02*
X114026091Y-102000000D01*
X114081195Y-102277028D01*
X114238119Y-102511881D01*
X114472972Y-102668805D01*
X114680074Y-102710000D01*
X114680075Y-102710000D01*
X114750000Y-102723909D01*
X114819926Y-102710000D01*
X160180074Y-102710000D01*
X160250000Y-102723909D01*
X160319925Y-102710000D01*
X160319926Y-102710000D01*
X160527028Y-102668805D01*
X160761881Y-102511881D01*
X160918805Y-102277028D01*
X160973909Y-102000000D01*
X160960000Y-101930074D01*
X160960000Y-92285750D01*
X172265000Y-92285750D01*
X172265000Y-92826310D01*
X172361673Y-93059699D01*
X172540302Y-93238327D01*
X172773691Y-93335000D01*
X173189250Y-93335000D01*
X173348000Y-93176250D01*
X173348000Y-92127000D01*
X172423750Y-92127000D01*
X172265000Y-92285750D01*
X160960000Y-92285750D01*
X160960000Y-91173690D01*
X172265000Y-91173690D01*
X172265000Y-91714250D01*
X172423750Y-91873000D01*
X173348000Y-91873000D01*
X173348000Y-90823750D01*
X173602000Y-90823750D01*
X173602000Y-91873000D01*
X173622000Y-91873000D01*
X173622000Y-92127000D01*
X173602000Y-92127000D01*
X173602000Y-93176250D01*
X173760750Y-93335000D01*
X174176309Y-93335000D01*
X174409698Y-93238327D01*
X174564623Y-93083403D01*
X174565414Y-93084586D01*
X174856564Y-93279127D01*
X175199999Y-93347440D01*
X175850001Y-93347440D01*
X176193436Y-93279127D01*
X176484586Y-93084586D01*
X176679127Y-92793436D01*
X176713625Y-92620000D01*
X176896289Y-92620000D01*
X177013720Y-92737431D01*
X177394126Y-92895000D01*
X177805874Y-92895000D01*
X178186280Y-92737431D01*
X178477431Y-92446280D01*
X178635000Y-92065874D01*
X178635000Y-91654126D01*
X178477431Y-91273720D01*
X178186280Y-90982569D01*
X177805874Y-90825000D01*
X177394126Y-90825000D01*
X177013720Y-90982569D01*
X176896289Y-91100000D01*
X176607923Y-91100000D01*
X176484586Y-90915414D01*
X176193436Y-90720873D01*
X175850001Y-90652560D01*
X175199999Y-90652560D01*
X174856564Y-90720873D01*
X174565414Y-90915414D01*
X174564623Y-90916597D01*
X174409698Y-90761673D01*
X174176309Y-90665000D01*
X173760750Y-90665000D01*
X173602000Y-90823750D01*
X173348000Y-90823750D01*
X173189250Y-90665000D01*
X172773691Y-90665000D01*
X172540302Y-90761673D01*
X172361673Y-90940301D01*
X172265000Y-91173690D01*
X160960000Y-91173690D01*
X160960000Y-86285750D01*
X172240000Y-86285750D01*
X172240000Y-86826310D01*
X172336673Y-87059699D01*
X172515302Y-87238327D01*
X172748691Y-87335000D01*
X173164250Y-87335000D01*
X173323000Y-87176250D01*
X173323000Y-86127000D01*
X172398750Y-86127000D01*
X172240000Y-86285750D01*
X160960000Y-86285750D01*
X160960000Y-85173690D01*
X172240000Y-85173690D01*
X172240000Y-85714250D01*
X172398750Y-85873000D01*
X173323000Y-85873000D01*
X173323000Y-84823750D01*
X173577000Y-84823750D01*
X173577000Y-85873000D01*
X173597000Y-85873000D01*
X173597000Y-86127000D01*
X173577000Y-86127000D01*
X173577000Y-87176250D01*
X173735750Y-87335000D01*
X174151309Y-87335000D01*
X174384698Y-87238327D01*
X174539623Y-87083403D01*
X174540414Y-87084586D01*
X174831564Y-87279127D01*
X175174999Y-87347440D01*
X175825001Y-87347440D01*
X176168436Y-87279127D01*
X176459586Y-87084586D01*
X176654127Y-86793436D01*
X176678680Y-86670000D01*
X176686289Y-86670000D01*
X176803720Y-86787431D01*
X177184126Y-86945000D01*
X177595874Y-86945000D01*
X177976280Y-86787431D01*
X178267431Y-86496280D01*
X178425000Y-86115874D01*
X178425000Y-85704126D01*
X178267431Y-85323720D01*
X177976280Y-85032569D01*
X177595874Y-84875000D01*
X177184126Y-84875000D01*
X176803720Y-85032569D01*
X176686289Y-85150000D01*
X176616332Y-85150000D01*
X176459586Y-84915414D01*
X176168436Y-84720873D01*
X175825001Y-84652560D01*
X175174999Y-84652560D01*
X174831564Y-84720873D01*
X174540414Y-84915414D01*
X174539623Y-84916597D01*
X174384698Y-84761673D01*
X174151309Y-84665000D01*
X173735750Y-84665000D01*
X173577000Y-84823750D01*
X173323000Y-84823750D01*
X173164250Y-84665000D01*
X172748691Y-84665000D01*
X172515302Y-84761673D01*
X172336673Y-84940301D01*
X172240000Y-85173690D01*
X160960000Y-85173690D01*
X160960000Y-81740910D01*
X179938695Y-81740910D01*
X180305640Y-82236343D01*
X181711171Y-82829736D01*
X183236793Y-82840087D01*
X184650246Y-82265819D01*
X184694360Y-82236343D01*
X185061305Y-81740910D01*
X182500000Y-79179605D01*
X179938695Y-81740910D01*
X160960000Y-81740910D01*
X160960000Y-79736793D01*
X178659913Y-79736793D01*
X179234181Y-81150246D01*
X179263657Y-81194360D01*
X179759090Y-81561305D01*
X182320395Y-79000000D01*
X179759090Y-76438695D01*
X179263657Y-76805640D01*
X178670264Y-78211171D01*
X178659913Y-79736793D01*
X160960000Y-79736793D01*
X160960000Y-75710000D01*
X180409271Y-75710000D01*
X180349754Y-75734181D01*
X180305640Y-75763657D01*
X179938695Y-76259090D01*
X182500000Y-78820395D01*
X182514143Y-78806253D01*
X182693748Y-78985858D01*
X182679605Y-79000000D01*
X185240910Y-81561305D01*
X185736343Y-81194360D01*
X185790000Y-81067266D01*
X185790001Y-128909273D01*
X185765819Y-128849754D01*
X185736343Y-128805640D01*
X185240910Y-128438695D01*
X182679605Y-131000000D01*
X182693748Y-131014143D01*
X182514143Y-131193748D01*
X182500000Y-131179605D01*
X179938695Y-133740910D01*
X180305640Y-134236343D01*
X180432734Y-134290000D01*
X94590729Y-134290000D01*
X94650246Y-134265819D01*
X94694360Y-134236343D01*
X95061305Y-133740910D01*
X92500000Y-131179605D01*
X92485858Y-131193748D01*
X92306253Y-131014143D01*
X92320395Y-131000000D01*
X92679605Y-131000000D01*
X95240910Y-133561305D01*
X95736343Y-133194360D01*
X96329736Y-131788829D01*
X96340087Y-130263207D01*
X95765819Y-128849754D01*
X95736343Y-128805640D01*
X95240910Y-128438695D01*
X92679605Y-131000000D01*
X92320395Y-131000000D01*
X89759090Y-128438695D01*
X89263657Y-128805640D01*
X89210000Y-128932734D01*
X89210000Y-128259090D01*
X89938695Y-128259090D01*
X92500000Y-130820395D01*
X95061305Y-128259090D01*
X94694360Y-127763657D01*
X93288829Y-127170264D01*
X91763207Y-127159913D01*
X90349754Y-127734181D01*
X90305640Y-127763657D01*
X89938695Y-128259090D01*
X89210000Y-128259090D01*
X89210000Y-118394126D01*
X114865000Y-118394126D01*
X114865000Y-118805874D01*
X115022569Y-119186280D01*
X115313720Y-119477431D01*
X115694126Y-119635000D01*
X115860199Y-119635000D01*
X118109671Y-121884473D01*
X118152071Y-121947929D01*
X118403463Y-122115904D01*
X118625148Y-122160000D01*
X118625153Y-122160000D01*
X118700000Y-122174888D01*
X118774847Y-122160000D01*
X121276285Y-122160000D01*
X121222565Y-122213720D01*
X121064996Y-122594126D01*
X121064996Y-123005874D01*
X121222565Y-123386280D01*
X121513716Y-123677431D01*
X121894122Y-123835000D01*
X122305870Y-123835000D01*
X122686276Y-123677431D01*
X122803707Y-123560000D01*
X124025153Y-123560000D01*
X124100000Y-123574888D01*
X124174847Y-123560000D01*
X124174852Y-123560000D01*
X124396537Y-123515904D01*
X124647929Y-123347929D01*
X124690331Y-123284470D01*
X124739801Y-123235000D01*
X124905874Y-123235000D01*
X125286280Y-123077431D01*
X125577431Y-122786280D01*
X125735000Y-122405874D01*
X125735000Y-122160000D01*
X153476289Y-122160000D01*
X153322569Y-122313720D01*
X153165000Y-122694126D01*
X153165000Y-123105874D01*
X153251623Y-123315000D01*
X152031345Y-123315000D01*
X151896282Y-123179937D01*
X151515876Y-123022368D01*
X151104128Y-123022368D01*
X150723722Y-123179937D01*
X150432571Y-123471088D01*
X150275002Y-123851494D01*
X150275002Y-124115000D01*
X150084126Y-124115000D01*
X149703720Y-124272569D01*
X149412569Y-124563720D01*
X149255000Y-124944126D01*
X149255000Y-125355874D01*
X149412569Y-125736280D01*
X149703720Y-126027431D01*
X150084126Y-126185000D01*
X150495874Y-126185000D01*
X150876280Y-126027431D01*
X150993711Y-125910000D01*
X152755153Y-125910000D01*
X152830000Y-125924888D01*
X152904847Y-125910000D01*
X152904852Y-125910000D01*
X153126537Y-125865904D01*
X153377929Y-125697929D01*
X153420331Y-125634470D01*
X153569801Y-125485000D01*
X157639694Y-125485000D01*
X157427072Y-125627070D01*
X157384672Y-125690526D01*
X156495199Y-126580000D01*
X142154801Y-126580000D01*
X142035000Y-126460199D01*
X142035000Y-126294126D01*
X141877431Y-125913720D01*
X141586280Y-125622569D01*
X141205874Y-125465000D01*
X141039802Y-125465000D01*
X139547440Y-123972639D01*
X139547440Y-123762500D01*
X139480078Y-123423848D01*
X139288247Y-123136753D01*
X139001152Y-122944922D01*
X138662500Y-122877560D01*
X138087500Y-122877560D01*
X137748848Y-122944922D01*
X137500000Y-123111197D01*
X137251152Y-122944922D01*
X136912500Y-122877560D01*
X136337500Y-122877560D01*
X135998848Y-122944922D01*
X135711753Y-123136753D01*
X135642765Y-123240000D01*
X134703711Y-123240000D01*
X134586280Y-123122569D01*
X134205874Y-122965000D01*
X133794126Y-122965000D01*
X133413720Y-123122569D01*
X133122569Y-123413720D01*
X132965000Y-123794126D01*
X132965000Y-124205874D01*
X133122569Y-124586280D01*
X133413720Y-124877431D01*
X133709619Y-124999996D01*
X133413720Y-125122561D01*
X133122569Y-125413712D01*
X132965000Y-125794118D01*
X132965000Y-126205866D01*
X133122569Y-126586272D01*
X133413720Y-126877423D01*
X133709639Y-126999996D01*
X133413720Y-127122570D01*
X133122569Y-127413721D01*
X132965000Y-127794127D01*
X132965000Y-128205875D01*
X133020557Y-128340001D01*
X132341801Y-128340001D01*
X130517329Y-126515530D01*
X130474927Y-126452071D01*
X130223535Y-126284096D01*
X130001850Y-126240000D01*
X130001845Y-126240000D01*
X129926998Y-126225112D01*
X129852151Y-126240000D01*
X126403711Y-126240000D01*
X126286280Y-126122569D01*
X125905874Y-125965000D01*
X125494126Y-125965000D01*
X125113720Y-126122569D01*
X124822569Y-126413720D01*
X124665000Y-126794126D01*
X124665000Y-127205874D01*
X124679135Y-127240000D01*
X122214802Y-127240000D01*
X120935000Y-125960199D01*
X120935000Y-125794126D01*
X120777431Y-125413720D01*
X120486280Y-125122569D01*
X120105874Y-124965000D01*
X119694126Y-124965000D01*
X119313720Y-125122569D01*
X119022569Y-125413720D01*
X118865000Y-125794126D01*
X118865000Y-126205874D01*
X119022569Y-126586280D01*
X119313720Y-126877431D01*
X119694126Y-127035000D01*
X119860199Y-127035000D01*
X121309671Y-128484473D01*
X121352071Y-128547929D01*
X121603463Y-128715904D01*
X121825148Y-128760000D01*
X121825152Y-128760000D01*
X121899999Y-128774888D01*
X121974846Y-128760000D01*
X124161978Y-128760000D01*
X124065000Y-128994126D01*
X124065000Y-129365000D01*
X123894126Y-129365000D01*
X123513720Y-129522569D01*
X123222569Y-129813720D01*
X123065000Y-130194126D01*
X123065000Y-130605874D01*
X123222569Y-130986280D01*
X123513720Y-131277431D01*
X123894126Y-131435000D01*
X124060199Y-131435000D01*
X124109668Y-131484469D01*
X124152070Y-131547928D01*
X124403462Y-131715903D01*
X124625147Y-131759999D01*
X124625151Y-131759999D01*
X124699999Y-131774887D01*
X124774847Y-131759999D01*
X144425154Y-131759999D01*
X144500001Y-131774887D01*
X144574848Y-131759999D01*
X144574853Y-131759999D01*
X144796538Y-131715903D01*
X145047930Y-131547928D01*
X145056568Y-131535000D01*
X145205874Y-131535000D01*
X145586280Y-131377431D01*
X145877431Y-131086280D01*
X146035000Y-130705874D01*
X146035000Y-130294126D01*
X145877431Y-129913720D01*
X145823712Y-129860001D01*
X147508458Y-129860001D01*
X147401161Y-130020582D01*
X147285908Y-130600000D01*
X147401161Y-131179418D01*
X147729375Y-131670625D01*
X148220582Y-131998839D01*
X148653744Y-132085000D01*
X148946256Y-132085000D01*
X149166408Y-132041209D01*
X150209671Y-133084473D01*
X150252071Y-133147929D01*
X150503463Y-133315904D01*
X150725148Y-133360000D01*
X150725152Y-133360000D01*
X150799999Y-133374888D01*
X150874846Y-133360000D01*
X174325153Y-133360000D01*
X174400000Y-133374888D01*
X174474847Y-133360000D01*
X174474852Y-133360000D01*
X174696537Y-133315904D01*
X174947929Y-133147929D01*
X174990330Y-133084471D01*
X175584475Y-132490328D01*
X175647929Y-132447929D01*
X175675158Y-132407177D01*
X175766067Y-132498086D01*
X176146473Y-132655655D01*
X176558221Y-132655655D01*
X176938627Y-132498086D01*
X177229778Y-132206935D01*
X177387347Y-131826529D01*
X177387347Y-131736793D01*
X178659913Y-131736793D01*
X179234181Y-133150246D01*
X179263657Y-133194360D01*
X179759090Y-133561305D01*
X182320395Y-131000000D01*
X179759090Y-128438695D01*
X179263657Y-128805640D01*
X178670264Y-130211171D01*
X178659913Y-131736793D01*
X177387347Y-131736793D01*
X177387347Y-131660456D01*
X177784473Y-131263331D01*
X177847929Y-131220931D01*
X177897638Y-131146537D01*
X178015904Y-130969540D01*
X178041564Y-130840538D01*
X178060000Y-130747854D01*
X178060000Y-130747850D01*
X178074888Y-130673002D01*
X178060000Y-130598154D01*
X178060000Y-128259090D01*
X179938695Y-128259090D01*
X182500000Y-130820395D01*
X185061305Y-128259090D01*
X184694360Y-127763657D01*
X183288829Y-127170264D01*
X181763207Y-127159913D01*
X180349754Y-127734181D01*
X180305640Y-127763657D01*
X179938695Y-128259090D01*
X178060000Y-128259090D01*
X178060000Y-126774848D01*
X178074888Y-126700000D01*
X178060000Y-126625152D01*
X178060000Y-126625148D01*
X178015904Y-126403463D01*
X178015904Y-126403462D01*
X177890329Y-126215527D01*
X177847929Y-126152071D01*
X177784473Y-126109671D01*
X176509801Y-124835000D01*
X178100143Y-124835000D01*
X178174990Y-124849888D01*
X178249837Y-124835000D01*
X178249842Y-124835000D01*
X178471527Y-124790904D01*
X178722919Y-124622929D01*
X178765321Y-124559470D01*
X181039793Y-122285000D01*
X181205864Y-122285000D01*
X181586270Y-122127431D01*
X181877421Y-121836280D01*
X182034990Y-121455874D01*
X182034990Y-121044126D01*
X181877421Y-120663720D01*
X181586270Y-120372569D01*
X181205864Y-120215000D01*
X180794116Y-120215000D01*
X180413710Y-120372569D01*
X180122559Y-120663720D01*
X179999995Y-120959616D01*
X179877431Y-120663720D01*
X179586280Y-120372569D01*
X179205874Y-120215000D01*
X178794126Y-120215000D01*
X178413720Y-120372569D01*
X178122569Y-120663720D01*
X177965000Y-121044126D01*
X177965000Y-121210197D01*
X176510199Y-122665000D01*
X174234802Y-122665000D01*
X174727191Y-122172611D01*
X174836280Y-122127425D01*
X175127431Y-121836274D01*
X175285000Y-121455868D01*
X175285000Y-121044120D01*
X175127431Y-120663714D01*
X174836280Y-120372563D01*
X174455874Y-120214994D01*
X174044126Y-120214994D01*
X173663720Y-120372563D01*
X173372569Y-120663714D01*
X173215000Y-121044120D01*
X173215000Y-121455868D01*
X173238235Y-121511963D01*
X172847639Y-121902560D01*
X171825000Y-121902560D01*
X171577235Y-121951843D01*
X171367191Y-122092191D01*
X171226843Y-122302235D01*
X171177560Y-122550000D01*
X171177560Y-123000000D01*
X171181670Y-123020661D01*
X170805874Y-122865002D01*
X170394126Y-122865002D01*
X170013720Y-123022571D01*
X169722569Y-123313722D01*
X169620708Y-123559636D01*
X169477416Y-123213697D01*
X169186265Y-122922546D01*
X168805859Y-122764977D01*
X168394111Y-122764977D01*
X168022440Y-122918928D01*
X168022440Y-122550000D01*
X167973157Y-122302235D01*
X167832809Y-122092191D01*
X167622765Y-121951843D01*
X167375000Y-121902560D01*
X165953530Y-121902560D01*
X166035000Y-121705874D01*
X166035000Y-121294126D01*
X165877431Y-120913720D01*
X165586280Y-120622569D01*
X165205874Y-120465000D01*
X165030034Y-120465000D01*
X164871535Y-120359094D01*
X164649850Y-120314998D01*
X164649845Y-120314998D01*
X164574998Y-120300110D01*
X164500151Y-120314998D01*
X154626844Y-120314998D01*
X154551997Y-120300110D01*
X154477150Y-120314998D01*
X154477146Y-120314998D01*
X154255461Y-120359094D01*
X154004069Y-120527069D01*
X153961667Y-120590528D01*
X153912195Y-120640000D01*
X119014802Y-120640000D01*
X116935000Y-118560199D01*
X116935000Y-118394126D01*
X116777431Y-118013720D01*
X116486280Y-117722569D01*
X116105874Y-117565000D01*
X115694126Y-117565000D01*
X115313720Y-117722569D01*
X115022569Y-118013720D01*
X114865000Y-118394126D01*
X89210000Y-118394126D01*
X89210000Y-113635000D01*
X94500000Y-113635000D01*
X94743004Y-113586664D01*
X94949013Y-113449013D01*
X95086664Y-113243004D01*
X95135000Y-113000000D01*
X95135000Y-111602180D01*
X95300000Y-111635000D01*
X105900000Y-111635000D01*
X106143004Y-111586664D01*
X106349013Y-111449013D01*
X106486664Y-111243004D01*
X106535000Y-111000000D01*
X106535000Y-107000000D01*
X111865000Y-107000000D01*
X111865000Y-109000000D01*
X111870432Y-109082884D01*
X111938580Y-109600522D01*
X111981485Y-109760642D01*
X112181286Y-110243004D01*
X112264169Y-110386563D01*
X112582006Y-110800777D01*
X112699223Y-110917994D01*
X112900937Y-111072774D01*
X112778129Y-111195582D01*
X112620560Y-111575988D01*
X112620560Y-111987736D01*
X112778129Y-112368142D01*
X113069280Y-112659293D01*
X113449686Y-112816862D01*
X113861434Y-112816862D01*
X114241840Y-112659293D01*
X114341133Y-112560000D01*
X117196289Y-112560000D01*
X117313720Y-112677431D01*
X117694126Y-112835000D01*
X118105874Y-112835000D01*
X118486280Y-112677431D01*
X118777431Y-112386280D01*
X118853742Y-112202048D01*
X125488710Y-118422330D01*
X125550125Y-118473058D01*
X125955471Y-118767131D01*
X126094845Y-118843652D01*
X126560538Y-119027809D01*
X126714553Y-119067308D01*
X127211396Y-119130004D01*
X127290895Y-119135000D01*
X132100000Y-119135000D01*
X132182884Y-119129568D01*
X132700522Y-119061420D01*
X132860642Y-119018515D01*
X133343004Y-118818714D01*
X133486563Y-118735831D01*
X133900777Y-118417994D01*
X134017994Y-118300777D01*
X134335831Y-117886563D01*
X134418714Y-117743004D01*
X134618515Y-117260642D01*
X134661420Y-117100522D01*
X134729568Y-116582884D01*
X134735000Y-116500000D01*
X134735000Y-114800000D01*
X134729568Y-114717116D01*
X134672440Y-114283184D01*
X134672440Y-112870000D01*
X134625696Y-112635000D01*
X134672440Y-112400000D01*
X134672440Y-111600000D01*
X134625696Y-111365000D01*
X134672440Y-111130000D01*
X134672440Y-110330000D01*
X134625696Y-110095000D01*
X134672440Y-109860000D01*
X134672440Y-109060000D01*
X134623157Y-108812235D01*
X134621373Y-108809565D01*
X134660000Y-108716310D01*
X134660000Y-108475750D01*
X134501250Y-108317000D01*
X131852000Y-108317000D01*
X131852000Y-108337000D01*
X131598000Y-108337000D01*
X131598000Y-108317000D01*
X131578000Y-108317000D01*
X131578000Y-108063000D01*
X131598000Y-108063000D01*
X131598000Y-107313750D01*
X131852000Y-107313750D01*
X131852000Y-108063000D01*
X134501250Y-108063000D01*
X134660000Y-107904250D01*
X134660000Y-107663690D01*
X134563327Y-107430301D01*
X134384698Y-107251673D01*
X134151309Y-107155000D01*
X132010750Y-107155000D01*
X131852000Y-107313750D01*
X131598000Y-107313750D01*
X131439250Y-107155000D01*
X129298691Y-107155000D01*
X129065302Y-107251673D01*
X128886673Y-107430301D01*
X128881820Y-107442018D01*
X127155331Y-105715530D01*
X127112929Y-105652071D01*
X126885339Y-105500000D01*
X135365000Y-105500000D01*
X135365000Y-118500000D01*
X135413336Y-118743004D01*
X135550987Y-118949013D01*
X135756996Y-119086664D01*
X136000000Y-119135000D01*
X160000000Y-119135000D01*
X160182556Y-119098688D01*
X160417116Y-119129568D01*
X160500000Y-119135000D01*
X161798438Y-119135000D01*
X161905046Y-119125987D01*
X162567060Y-119013244D01*
X162768256Y-118942668D01*
X163355632Y-118617149D01*
X163444509Y-118557590D01*
X172306934Y-111467649D01*
X172752763Y-111220575D01*
X173255247Y-111135000D01*
X177000000Y-111135000D01*
X177082884Y-111129568D01*
X177600522Y-111061420D01*
X177760642Y-111018515D01*
X178243004Y-110818714D01*
X178386563Y-110735831D01*
X178800777Y-110417994D01*
X178917994Y-110300777D01*
X179235831Y-109886563D01*
X179318714Y-109743004D01*
X179413583Y-109513970D01*
X180245635Y-109513970D01*
X180405418Y-109832739D01*
X181196187Y-110142723D01*
X182045387Y-110126497D01*
X182754582Y-109832739D01*
X182914365Y-109513970D01*
X181580000Y-108179605D01*
X180245635Y-109513970D01*
X179413583Y-109513970D01*
X179518515Y-109260642D01*
X179561420Y-109100522D01*
X179598843Y-108816268D01*
X179747261Y-109174582D01*
X180066030Y-109334365D01*
X181400395Y-108000000D01*
X181759605Y-108000000D01*
X183093970Y-109334365D01*
X183412739Y-109174582D01*
X183722723Y-108383813D01*
X183706497Y-107534613D01*
X183412739Y-106825418D01*
X183093970Y-106665635D01*
X181759605Y-108000000D01*
X181400395Y-108000000D01*
X180066030Y-106665635D01*
X179747261Y-106825418D01*
X179600843Y-107198929D01*
X179561420Y-106899478D01*
X179518515Y-106739358D01*
X179413584Y-106486030D01*
X180245635Y-106486030D01*
X181580000Y-107820395D01*
X182914365Y-106486030D01*
X182754582Y-106167261D01*
X181963813Y-105857277D01*
X181114613Y-105873503D01*
X180405418Y-106167261D01*
X180245635Y-106486030D01*
X179413584Y-106486030D01*
X179318714Y-106256996D01*
X179235831Y-106113437D01*
X178917994Y-105699223D01*
X178800777Y-105582006D01*
X178386563Y-105264169D01*
X178243004Y-105181286D01*
X177760642Y-104981485D01*
X177600522Y-104938580D01*
X177082884Y-104870432D01*
X177000000Y-104865000D01*
X160500000Y-104865000D01*
X160417116Y-104870432D01*
X160182556Y-104901312D01*
X160000000Y-104865000D01*
X136000000Y-104865000D01*
X135756996Y-104913336D01*
X135550987Y-105050987D01*
X135413336Y-105256996D01*
X135365000Y-105500000D01*
X126885339Y-105500000D01*
X126861537Y-105484096D01*
X126844403Y-105480688D01*
X126686284Y-105322569D01*
X126305878Y-105165000D01*
X125894130Y-105165000D01*
X125513724Y-105322569D01*
X125222573Y-105613720D01*
X125065004Y-105994126D01*
X125065004Y-106405874D01*
X125222573Y-106786280D01*
X125513724Y-107077431D01*
X125894130Y-107235000D01*
X126015832Y-107235000D01*
X125683710Y-107372569D01*
X125392559Y-107663720D01*
X125234990Y-108044126D01*
X125234990Y-108455874D01*
X125392559Y-108836280D01*
X125683710Y-109127431D01*
X126064116Y-109285000D01*
X126230189Y-109285000D01*
X126400189Y-109455000D01*
X125994114Y-109455000D01*
X125613708Y-109612569D01*
X125322557Y-109903720D01*
X125164988Y-110284126D01*
X125164988Y-110611492D01*
X119525858Y-105113340D01*
X119463792Y-105060171D01*
X119052940Y-104751744D01*
X118910998Y-104671383D01*
X118435132Y-104477792D01*
X118277402Y-104436241D01*
X117767920Y-104370259D01*
X117686364Y-104365000D01*
X114500000Y-104365000D01*
X114417116Y-104370432D01*
X113899478Y-104438580D01*
X113739358Y-104481485D01*
X113256996Y-104681286D01*
X113113437Y-104764169D01*
X112699223Y-105082006D01*
X112582006Y-105199223D01*
X112264169Y-105613437D01*
X112181286Y-105756996D01*
X111981485Y-106239358D01*
X111938580Y-106399478D01*
X111870432Y-106917116D01*
X111865000Y-107000000D01*
X106535000Y-107000000D01*
X106535000Y-105000000D01*
X106486664Y-104756996D01*
X106349013Y-104550987D01*
X106143004Y-104413336D01*
X105900000Y-104365000D01*
X95300000Y-104365000D01*
X95135000Y-104397820D01*
X95135000Y-99000000D01*
X95086664Y-98756996D01*
X94949013Y-98550987D01*
X94743004Y-98413336D01*
X94500000Y-98365000D01*
X89210000Y-98365000D01*
X89210000Y-96285750D01*
X90365000Y-96285750D01*
X90365000Y-97626310D01*
X90461673Y-97859699D01*
X90640302Y-98038327D01*
X90873691Y-98135000D01*
X92214250Y-98135000D01*
X92373000Y-97976250D01*
X92373000Y-96127000D01*
X92627000Y-96127000D01*
X92627000Y-97976250D01*
X92785750Y-98135000D01*
X94126309Y-98135000D01*
X94359698Y-98038327D01*
X94538327Y-97859699D01*
X94635000Y-97626310D01*
X94635000Y-96285750D01*
X94476250Y-96127000D01*
X92627000Y-96127000D01*
X92373000Y-96127000D01*
X90523750Y-96127000D01*
X90365000Y-96285750D01*
X89210000Y-96285750D01*
X89210000Y-94373690D01*
X90365000Y-94373690D01*
X90365000Y-95714250D01*
X90523750Y-95873000D01*
X92373000Y-95873000D01*
X92373000Y-94023750D01*
X92627000Y-94023750D01*
X92627000Y-95873000D01*
X94476250Y-95873000D01*
X94635000Y-95714250D01*
X94635000Y-94373690D01*
X94538327Y-94140301D01*
X94359698Y-93961673D01*
X94126309Y-93865000D01*
X92785750Y-93865000D01*
X92627000Y-94023750D01*
X92373000Y-94023750D01*
X92214250Y-93865000D01*
X90873691Y-93865000D01*
X90640302Y-93961673D01*
X90461673Y-94140301D01*
X90365000Y-94373690D01*
X89210000Y-94373690D01*
X89210000Y-92285750D01*
X98190000Y-92285750D01*
X98190000Y-92826310D01*
X98286673Y-93059699D01*
X98465302Y-93238327D01*
X98698691Y-93335000D01*
X99114250Y-93335000D01*
X99273000Y-93176250D01*
X99273000Y-92127000D01*
X98348750Y-92127000D01*
X98190000Y-92285750D01*
X89210000Y-92285750D01*
X89210000Y-91173690D01*
X98190000Y-91173690D01*
X98190000Y-91714250D01*
X98348750Y-91873000D01*
X99273000Y-91873000D01*
X99273000Y-90823750D01*
X99527000Y-90823750D01*
X99527000Y-91873000D01*
X99547000Y-91873000D01*
X99547000Y-92127000D01*
X99527000Y-92127000D01*
X99527000Y-93176250D01*
X99685750Y-93335000D01*
X100101309Y-93335000D01*
X100334698Y-93238327D01*
X100489623Y-93083403D01*
X100490414Y-93084586D01*
X100781564Y-93279127D01*
X101124999Y-93347440D01*
X101775001Y-93347440D01*
X102118436Y-93279127D01*
X102409586Y-93084586D01*
X102604127Y-92793436D01*
X102610778Y-92760000D01*
X102946289Y-92760000D01*
X103063720Y-92877431D01*
X103444126Y-93035000D01*
X103855874Y-93035000D01*
X104236280Y-92877431D01*
X104527431Y-92586280D01*
X104685000Y-92205874D01*
X104685000Y-91794126D01*
X105465000Y-91794126D01*
X105465000Y-92205874D01*
X105622569Y-92586280D01*
X105740000Y-92703711D01*
X105740001Y-98296288D01*
X105622569Y-98413720D01*
X105465000Y-98794126D01*
X105465000Y-99205874D01*
X105622569Y-99586280D01*
X105913720Y-99877431D01*
X106294126Y-100035000D01*
X106705874Y-100035000D01*
X107086280Y-99877431D01*
X107377431Y-99586280D01*
X107535000Y-99205874D01*
X107535000Y-98794126D01*
X107377431Y-98413720D01*
X107260000Y-98296289D01*
X107260000Y-92703711D01*
X107377431Y-92586280D01*
X107535000Y-92205874D01*
X107535000Y-91794126D01*
X107377431Y-91413720D01*
X107086280Y-91122569D01*
X106705874Y-90965000D01*
X106294126Y-90965000D01*
X105913720Y-91122569D01*
X105622569Y-91413720D01*
X105465000Y-91794126D01*
X104685000Y-91794126D01*
X104527431Y-91413720D01*
X104236280Y-91122569D01*
X103855874Y-90965000D01*
X103444126Y-90965000D01*
X103063720Y-91122569D01*
X102946289Y-91240000D01*
X102610778Y-91240000D01*
X102604127Y-91206564D01*
X102409586Y-90915414D01*
X102118436Y-90720873D01*
X101775001Y-90652560D01*
X101124999Y-90652560D01*
X100781564Y-90720873D01*
X100490414Y-90915414D01*
X100489623Y-90916597D01*
X100334698Y-90761673D01*
X100101309Y-90665000D01*
X99685750Y-90665000D01*
X99527000Y-90823750D01*
X99273000Y-90823750D01*
X99114250Y-90665000D01*
X98698691Y-90665000D01*
X98465302Y-90761673D01*
X98286673Y-90940301D01*
X98190000Y-91173690D01*
X89210000Y-91173690D01*
X89210000Y-86205750D01*
X98115000Y-86205750D01*
X98115000Y-86746310D01*
X98211673Y-86979699D01*
X98390302Y-87158327D01*
X98623691Y-87255000D01*
X99039250Y-87255000D01*
X99198000Y-87096250D01*
X99198000Y-86047000D01*
X98273750Y-86047000D01*
X98115000Y-86205750D01*
X89210000Y-86205750D01*
X89210000Y-85093690D01*
X98115000Y-85093690D01*
X98115000Y-85634250D01*
X98273750Y-85793000D01*
X99198000Y-85793000D01*
X99198000Y-84743750D01*
X99452000Y-84743750D01*
X99452000Y-85793000D01*
X99472000Y-85793000D01*
X99472000Y-86047000D01*
X99452000Y-86047000D01*
X99452000Y-87096250D01*
X99610750Y-87255000D01*
X100026309Y-87255000D01*
X100259698Y-87158327D01*
X100414623Y-87003403D01*
X100415414Y-87004586D01*
X100706564Y-87199127D01*
X101049999Y-87267440D01*
X101700001Y-87267440D01*
X102043436Y-87199127D01*
X102334586Y-87004586D01*
X102529127Y-86713436D01*
X102533789Y-86690000D01*
X102636289Y-86690000D01*
X102753720Y-86807431D01*
X103134126Y-86965000D01*
X103545874Y-86965000D01*
X103926280Y-86807431D01*
X104217431Y-86516280D01*
X104375000Y-86135874D01*
X104375000Y-85724126D01*
X104217431Y-85343720D01*
X103926280Y-85052569D01*
X103545874Y-84895000D01*
X103134126Y-84895000D01*
X102753720Y-85052569D01*
X102636289Y-85170000D01*
X102537767Y-85170000D01*
X102529127Y-85126564D01*
X102334586Y-84835414D01*
X102043436Y-84640873D01*
X101700001Y-84572560D01*
X101049999Y-84572560D01*
X100706564Y-84640873D01*
X100415414Y-84835414D01*
X100414623Y-84836597D01*
X100259698Y-84681673D01*
X100026309Y-84585000D01*
X99610750Y-84585000D01*
X99452000Y-84743750D01*
X99198000Y-84743750D01*
X99039250Y-84585000D01*
X98623691Y-84585000D01*
X98390302Y-84681673D01*
X98211673Y-84860301D01*
X98115000Y-85093690D01*
X89210000Y-85093690D01*
X89210000Y-81740910D01*
X89938695Y-81740910D01*
X90305640Y-82236343D01*
X91711171Y-82829736D01*
X93236793Y-82840087D01*
X94650246Y-82265819D01*
X94694360Y-82236343D01*
X95061305Y-81740910D01*
X92500000Y-79179605D01*
X89938695Y-81740910D01*
X89210000Y-81740910D01*
X89210000Y-81090729D01*
X89234181Y-81150246D01*
X89263657Y-81194360D01*
X89759090Y-81561305D01*
X92320395Y-79000000D01*
X92679605Y-79000000D01*
X95240910Y-81561305D01*
X95736343Y-81194360D01*
X96329736Y-79788829D01*
X96340087Y-78263207D01*
X95765819Y-76849754D01*
X95736343Y-76805640D01*
X95240910Y-76438695D01*
X92679605Y-79000000D01*
X92320395Y-79000000D01*
X92306253Y-78985858D01*
X92485858Y-78806253D01*
X92500000Y-78820395D01*
X95061305Y-76259090D01*
X94694360Y-75763657D01*
X94567266Y-75710000D01*
X114040000Y-75710000D01*
X114040001Y-101930069D01*
G36*
X156547000Y-130473000D02*
X156567000Y-130473000D01*
X156567000Y-130727000D01*
X156547000Y-130727000D01*
X156547000Y-130747000D01*
X156293000Y-130747000D01*
X156293000Y-130727000D01*
X156273000Y-130727000D01*
X156273000Y-130473000D01*
X156293000Y-130473000D01*
X156293000Y-130453000D01*
X156547000Y-130453000D01*
X156547000Y-130473000D01*
X156547000Y-130473000D01*
G37*
X156547000Y-130473000D02*
X156567000Y-130473000D01*
X156567000Y-130727000D01*
X156547000Y-130727000D01*
X156547000Y-130747000D01*
X156293000Y-130747000D01*
X156293000Y-130727000D01*
X156273000Y-130727000D01*
X156273000Y-130473000D01*
X156293000Y-130473000D01*
X156293000Y-130453000D01*
X156547000Y-130453000D01*
X156547000Y-130473000D01*
G36*
X169722569Y-124486282D02*
X169871997Y-124635710D01*
X169884096Y-124696536D01*
X170052071Y-124947929D01*
X170115530Y-124990331D01*
X170984671Y-125859473D01*
X171027071Y-125922929D01*
X171177560Y-126023483D01*
X171177560Y-126250000D01*
X171197451Y-126350000D01*
X171177560Y-126450000D01*
X171177560Y-126900000D01*
X171197451Y-127000000D01*
X171177560Y-127100000D01*
X171177560Y-127550000D01*
X171197451Y-127650000D01*
X171177560Y-127750000D01*
X171177560Y-128200000D01*
X171197451Y-128300000D01*
X171177560Y-128400000D01*
X171177560Y-128850000D01*
X171226843Y-129097765D01*
X171367191Y-129307809D01*
X171577235Y-129448157D01*
X171790000Y-129490478D01*
X171790001Y-130535198D01*
X171760189Y-130565010D01*
X166203711Y-130565010D01*
X166086280Y-130447579D01*
X165705874Y-130290010D01*
X165294126Y-130290010D01*
X165088541Y-130375166D01*
X165127431Y-130336276D01*
X165285000Y-129955870D01*
X165285000Y-129544122D01*
X165219090Y-129385000D01*
X165582715Y-129385000D01*
X165677235Y-129448157D01*
X165925000Y-129497440D01*
X167375000Y-129497440D01*
X167622765Y-129448157D01*
X167832809Y-129307809D01*
X167973157Y-129097765D01*
X168022440Y-128850000D01*
X168022440Y-128400000D01*
X168002549Y-128300000D01*
X168022440Y-128200000D01*
X168022440Y-127750000D01*
X168002549Y-127650000D01*
X168022440Y-127550000D01*
X168022440Y-127100000D01*
X168002549Y-127000000D01*
X168022440Y-126900000D01*
X168022440Y-126450000D01*
X168008502Y-126379927D01*
X168010000Y-126376310D01*
X168010000Y-126296250D01*
X167987353Y-126273603D01*
X167973157Y-126202235D01*
X167939592Y-126152002D01*
X168010000Y-126152002D01*
X168010000Y-126031795D01*
X168172929Y-125922929D01*
X168215331Y-125859470D01*
X169084458Y-124990344D01*
X169147914Y-124947944D01*
X169315889Y-124696552D01*
X169352829Y-124510844D01*
X169477416Y-124386257D01*
X169579277Y-124140343D01*
X169722569Y-124486282D01*
X169722569Y-124486282D01*
G37*
X169722569Y-124486282D02*
X169871997Y-124635710D01*
X169884096Y-124696536D01*
X170052071Y-124947929D01*
X170115530Y-124990331D01*
X170984671Y-125859473D01*
X171027071Y-125922929D01*
X171177560Y-126023483D01*
X171177560Y-126250000D01*
X171197451Y-126350000D01*
X171177560Y-126450000D01*
X171177560Y-126900000D01*
X171197451Y-127000000D01*
X171177560Y-127100000D01*
X171177560Y-127550000D01*
X171197451Y-127650000D01*
X171177560Y-127750000D01*
X171177560Y-128200000D01*
X171197451Y-128300000D01*
X171177560Y-128400000D01*
X171177560Y-128850000D01*
X171226843Y-129097765D01*
X171367191Y-129307809D01*
X171577235Y-129448157D01*
X171790000Y-129490478D01*
X171790001Y-130535198D01*
X171760189Y-130565010D01*
X166203711Y-130565010D01*
X166086280Y-130447579D01*
X165705874Y-130290010D01*
X165294126Y-130290010D01*
X165088541Y-130375166D01*
X165127431Y-130336276D01*
X165285000Y-129955870D01*
X165285000Y-129544122D01*
X165219090Y-129385000D01*
X165582715Y-129385000D01*
X165677235Y-129448157D01*
X165925000Y-129497440D01*
X167375000Y-129497440D01*
X167622765Y-129448157D01*
X167832809Y-129307809D01*
X167973157Y-129097765D01*
X168022440Y-128850000D01*
X168022440Y-128400000D01*
X168002549Y-128300000D01*
X168022440Y-128200000D01*
X168022440Y-127750000D01*
X168002549Y-127650000D01*
X168022440Y-127550000D01*
X168022440Y-127100000D01*
X168002549Y-127000000D01*
X168022440Y-126900000D01*
X168022440Y-126450000D01*
X168008502Y-126379927D01*
X168010000Y-126376310D01*
X168010000Y-126296250D01*
X167987353Y-126273603D01*
X167973157Y-126202235D01*
X167939592Y-126152002D01*
X168010000Y-126152002D01*
X168010000Y-126031795D01*
X168172929Y-125922929D01*
X168215331Y-125859470D01*
X169084458Y-124990344D01*
X169147914Y-124947944D01*
X169315889Y-124696552D01*
X169352829Y-124510844D01*
X169477416Y-124386257D01*
X169579277Y-124140343D01*
X169722569Y-124486282D01*
G36*
X165277560Y-125600000D02*
X165291498Y-125670073D01*
X165290000Y-125673690D01*
X165290000Y-125753750D01*
X165312647Y-125776397D01*
X165326843Y-125847765D01*
X165360408Y-125897998D01*
X165290000Y-125897998D01*
X165290000Y-125915000D01*
X164262804Y-125915000D01*
X164038332Y-125690528D01*
X163995930Y-125627070D01*
X163783308Y-125485000D01*
X165277560Y-125485000D01*
X165277560Y-125600000D01*
X165277560Y-125600000D01*
G37*
X165277560Y-125600000D02*
X165291498Y-125670073D01*
X165290000Y-125673690D01*
X165290000Y-125753750D01*
X165312647Y-125776397D01*
X165326843Y-125847765D01*
X165360408Y-125897998D01*
X165290000Y-125897998D01*
X165290000Y-125915000D01*
X164262804Y-125915000D01*
X164038332Y-125690528D01*
X163995930Y-125627070D01*
X163783308Y-125485000D01*
X165277560Y-125485000D01*
X165277560Y-125600000D01*
G04 #@! TO.N,+24V*
G36*
X177484485Y-105691880D02*
X177935952Y-105878884D01*
X178323636Y-106176364D01*
X178621116Y-106564048D01*
X178808120Y-107015515D01*
X178873000Y-107508328D01*
X178873000Y-108491672D01*
X178808120Y-108984485D01*
X178621116Y-109435952D01*
X178323636Y-109823636D01*
X177935952Y-110121116D01*
X177484485Y-110308120D01*
X176991672Y-110373000D01*
X173201562Y-110373000D01*
X173180240Y-110374803D01*
X172518226Y-110487546D01*
X172477987Y-110501661D01*
X171890611Y-110827180D01*
X171872836Y-110839092D01*
X162976878Y-117955860D01*
X162417808Y-118265691D01*
X161787703Y-118373000D01*
X160508328Y-118373000D01*
X160015515Y-118308120D01*
X159564048Y-118121116D01*
X159176364Y-117823636D01*
X158878884Y-117435952D01*
X158691880Y-116984485D01*
X158627000Y-116491672D01*
X158627000Y-107508328D01*
X158691880Y-107015515D01*
X158878884Y-106564048D01*
X159176364Y-106176364D01*
X159564048Y-105878884D01*
X160015515Y-105691880D01*
X160508328Y-105627000D01*
X176991672Y-105627000D01*
X177484485Y-105691880D01*
X177484485Y-105691880D01*
G37*
X177484485Y-105691880D02*
X177935952Y-105878884D01*
X178323636Y-106176364D01*
X178621116Y-106564048D01*
X178808120Y-107015515D01*
X178873000Y-107508328D01*
X178873000Y-108491672D01*
X178808120Y-108984485D01*
X178621116Y-109435952D01*
X178323636Y-109823636D01*
X177935952Y-110121116D01*
X177484485Y-110308120D01*
X176991672Y-110373000D01*
X173201562Y-110373000D01*
X173180240Y-110374803D01*
X172518226Y-110487546D01*
X172477987Y-110501661D01*
X171890611Y-110827180D01*
X171872836Y-110839092D01*
X162976878Y-117955860D01*
X162417808Y-118265691D01*
X161787703Y-118373000D01*
X160508328Y-118373000D01*
X160015515Y-118308120D01*
X159564048Y-118121116D01*
X159176364Y-117823636D01*
X158878884Y-117435952D01*
X158691880Y-116984485D01*
X158627000Y-116491672D01*
X158627000Y-107508328D01*
X158691880Y-107015515D01*
X158878884Y-106564048D01*
X159176364Y-106176364D01*
X159564048Y-105878884D01*
X160015515Y-105691880D01*
X160508328Y-105627000D01*
X176991672Y-105627000D01*
X177484485Y-105691880D01*
G04 #@! TD*
M02*
