G04 #@! TF.GenerationSoftware,KiCad,Pcbnew,5.0.2-bee76a0~70~ubuntu16.04.1*
G04 #@! TF.CreationDate,2019-05-19T10:48:13+01:00*
G04 #@! TF.ProjectId,project,70726f6a-6563-4742-9e6b-696361645f70,rev?*
G04 #@! TF.SameCoordinates,Original*
G04 #@! TF.FileFunction,Soldermask,Top*
G04 #@! TF.FilePolarity,Negative*
%FSLAX46Y46*%
G04 Gerber Fmt 4.6, Leading zero omitted, Abs format (unit mm)*
G04 Created by KiCad (PCBNEW 5.0.2-bee76a0~70~ubuntu16.04.1) date Sun 19 May 2019 10:48:13 BST*
%MOMM*%
%LPD*%
G01*
G04 APERTURE LIST*
%ADD10C,0.150000*%
%ADD11C,0.127000*%
%ADD12C,0.076200*%
%ADD13C,0.101600*%
%ADD14R,3.000000X3.000000*%
%ADD15C,3.000000*%
%ADD16R,1.905000X2.000000*%
%ADD17O,1.905000X2.000000*%
%ADD18C,0.100000*%
%ADD19C,0.950000*%
%ADD20C,6.400000*%
%ADD21R,1.700000X1.700000*%
%ADD22O,1.700000X1.700000*%
%ADD23R,0.800000X0.900000*%
%ADD24R,3.800000X2.000000*%
%ADD25R,1.500000X2.000000*%
%ADD26R,1.450000X0.450000*%
%ADD27R,0.900000X1.200000*%
%ADD28C,0.254000*%
G04 APERTURE END LIST*
D10*
G04 #@! TO.C,REF\002A\002A*
X130081623Y-116790000D02*
G75*
G03X130081623Y-116790000I-31623J0D01*
G01*
D11*
X130320000Y-116870000D02*
G75*
G03X130320000Y-116870000I-410000J0D01*
G01*
D10*
X129801623Y-116790000D02*
G75*
G03X129801623Y-116790000I-31623J0D01*
G01*
D12*
X129720000Y-117010000D02*
X129840000Y-117080000D01*
X129840000Y-117080000D02*
X129970000Y-117070000D01*
X129970000Y-117070000D02*
X130090000Y-116980000D01*
D13*
X129800000Y-116400000D02*
X129530000Y-116260000D01*
X129530000Y-116260000D02*
X129250000Y-116330000D01*
X129250000Y-116330000D02*
X129140000Y-116520000D01*
X129140000Y-116520000D02*
X129250000Y-116690000D01*
X129250000Y-116690000D02*
X129460000Y-116740000D01*
X129470000Y-116810000D02*
X129200000Y-116860000D01*
X129200000Y-116860000D02*
X129110000Y-117010000D01*
X129110000Y-117010000D02*
X129150000Y-117140000D01*
X129150000Y-117140000D02*
X129270000Y-117220000D01*
X129270000Y-117220000D02*
X129520000Y-117160000D01*
X129540000Y-117180000D02*
X129460000Y-117380000D01*
X129460000Y-117380000D02*
X129470000Y-117570000D01*
X129470000Y-117570000D02*
X129580000Y-117610000D01*
X129580000Y-117610000D02*
X129700000Y-117570000D01*
X129700000Y-117570000D02*
X129760000Y-117460000D01*
X129760000Y-117460000D02*
X129780000Y-117350000D01*
X129780000Y-117350000D02*
X129800000Y-117330000D01*
X129800000Y-117330000D02*
X129770000Y-117350000D01*
X129770000Y-117350000D02*
X129760000Y-117320000D01*
X129870000Y-116440000D02*
X129960000Y-116170000D01*
X129960000Y-116170000D02*
X130120000Y-116110000D01*
X130120000Y-116110000D02*
X130290000Y-116140000D01*
X130290000Y-116140000D02*
X130340000Y-116250000D01*
X130340000Y-116250000D02*
X130320000Y-116360000D01*
X130320000Y-116360000D02*
X130230000Y-116500000D01*
X130200000Y-116490000D02*
X130570000Y-116480000D01*
X130570000Y-116480000D02*
X130680000Y-116580000D01*
X130680000Y-116580000D02*
X130700000Y-116730000D01*
X130700000Y-116730000D02*
X130600000Y-116800000D01*
X130600000Y-116800000D02*
X130450000Y-116810000D01*
X130450000Y-116810000D02*
X130350000Y-116810000D01*
X130350000Y-116840000D02*
X130530000Y-116950000D01*
X130530000Y-116950000D02*
X130630000Y-117090000D01*
X130630000Y-117090000D02*
X130630000Y-117230000D01*
X130630000Y-117230000D02*
X130590000Y-117330000D01*
X130590000Y-117330000D02*
X130480000Y-117370000D01*
X130480000Y-117370000D02*
X130350000Y-117340000D01*
X130350000Y-117340000D02*
X130260000Y-117210000D01*
X129830000Y-117340000D02*
X129900000Y-117530000D01*
X129900000Y-117530000D02*
X130020000Y-117660000D01*
X130020000Y-117660000D02*
X130140000Y-117630000D01*
X130140000Y-117630000D02*
X130190000Y-117540000D01*
X130190000Y-117540000D02*
X130170000Y-117440000D01*
X130170000Y-117440000D02*
X130170000Y-117270000D01*
X129800000Y-117430000D02*
X129890000Y-117860000D01*
X129890000Y-117860000D02*
X130110000Y-118160000D01*
X130110000Y-118160000D02*
X130230000Y-118440000D01*
X130230000Y-118440000D02*
X130190000Y-118660000D01*
X130190000Y-118660000D02*
X130350000Y-118140000D01*
G04 #@! TD*
D14*
G04 #@! TO.C,SC1*
X137800000Y-73120000D03*
D15*
X137800000Y-68040000D03*
G04 #@! TD*
D16*
G04 #@! TO.C,Q3*
X139570000Y-77500000D03*
D17*
X137030000Y-77500000D03*
X134490000Y-77500000D03*
G04 #@! TD*
D18*
G04 #@! TO.C,C1*
G36*
X129935779Y-89766144D02*
X129958834Y-89769563D01*
X129981443Y-89775227D01*
X130003387Y-89783079D01*
X130024457Y-89793044D01*
X130044448Y-89805026D01*
X130063168Y-89818910D01*
X130080438Y-89834562D01*
X130096090Y-89851832D01*
X130109974Y-89870552D01*
X130121956Y-89890543D01*
X130131921Y-89911613D01*
X130139773Y-89933557D01*
X130145437Y-89956166D01*
X130148856Y-89979221D01*
X130150000Y-90002500D01*
X130150000Y-90477500D01*
X130148856Y-90500779D01*
X130145437Y-90523834D01*
X130139773Y-90546443D01*
X130131921Y-90568387D01*
X130121956Y-90589457D01*
X130109974Y-90609448D01*
X130096090Y-90628168D01*
X130080438Y-90645438D01*
X130063168Y-90661090D01*
X130044448Y-90674974D01*
X130024457Y-90686956D01*
X130003387Y-90696921D01*
X129981443Y-90704773D01*
X129958834Y-90710437D01*
X129935779Y-90713856D01*
X129912500Y-90715000D01*
X129337500Y-90715000D01*
X129314221Y-90713856D01*
X129291166Y-90710437D01*
X129268557Y-90704773D01*
X129246613Y-90696921D01*
X129225543Y-90686956D01*
X129205552Y-90674974D01*
X129186832Y-90661090D01*
X129169562Y-90645438D01*
X129153910Y-90628168D01*
X129140026Y-90609448D01*
X129128044Y-90589457D01*
X129118079Y-90568387D01*
X129110227Y-90546443D01*
X129104563Y-90523834D01*
X129101144Y-90500779D01*
X129100000Y-90477500D01*
X129100000Y-90002500D01*
X129101144Y-89979221D01*
X129104563Y-89956166D01*
X129110227Y-89933557D01*
X129118079Y-89911613D01*
X129128044Y-89890543D01*
X129140026Y-89870552D01*
X129153910Y-89851832D01*
X129169562Y-89834562D01*
X129186832Y-89818910D01*
X129205552Y-89805026D01*
X129225543Y-89793044D01*
X129246613Y-89783079D01*
X129268557Y-89775227D01*
X129291166Y-89769563D01*
X129314221Y-89766144D01*
X129337500Y-89765000D01*
X129912500Y-89765000D01*
X129935779Y-89766144D01*
X129935779Y-89766144D01*
G37*
D19*
X129625000Y-90240000D03*
D18*
G36*
X128185779Y-89766144D02*
X128208834Y-89769563D01*
X128231443Y-89775227D01*
X128253387Y-89783079D01*
X128274457Y-89793044D01*
X128294448Y-89805026D01*
X128313168Y-89818910D01*
X128330438Y-89834562D01*
X128346090Y-89851832D01*
X128359974Y-89870552D01*
X128371956Y-89890543D01*
X128381921Y-89911613D01*
X128389773Y-89933557D01*
X128395437Y-89956166D01*
X128398856Y-89979221D01*
X128400000Y-90002500D01*
X128400000Y-90477500D01*
X128398856Y-90500779D01*
X128395437Y-90523834D01*
X128389773Y-90546443D01*
X128381921Y-90568387D01*
X128371956Y-90589457D01*
X128359974Y-90609448D01*
X128346090Y-90628168D01*
X128330438Y-90645438D01*
X128313168Y-90661090D01*
X128294448Y-90674974D01*
X128274457Y-90686956D01*
X128253387Y-90696921D01*
X128231443Y-90704773D01*
X128208834Y-90710437D01*
X128185779Y-90713856D01*
X128162500Y-90715000D01*
X127587500Y-90715000D01*
X127564221Y-90713856D01*
X127541166Y-90710437D01*
X127518557Y-90704773D01*
X127496613Y-90696921D01*
X127475543Y-90686956D01*
X127455552Y-90674974D01*
X127436832Y-90661090D01*
X127419562Y-90645438D01*
X127403910Y-90628168D01*
X127390026Y-90609448D01*
X127378044Y-90589457D01*
X127368079Y-90568387D01*
X127360227Y-90546443D01*
X127354563Y-90523834D01*
X127351144Y-90500779D01*
X127350000Y-90477500D01*
X127350000Y-90002500D01*
X127351144Y-89979221D01*
X127354563Y-89956166D01*
X127360227Y-89933557D01*
X127368079Y-89911613D01*
X127378044Y-89890543D01*
X127390026Y-89870552D01*
X127403910Y-89851832D01*
X127419562Y-89834562D01*
X127436832Y-89818910D01*
X127455552Y-89805026D01*
X127475543Y-89793044D01*
X127496613Y-89783079D01*
X127518557Y-89775227D01*
X127541166Y-89769563D01*
X127564221Y-89766144D01*
X127587500Y-89765000D01*
X128162500Y-89765000D01*
X128185779Y-89766144D01*
X128185779Y-89766144D01*
G37*
D19*
X127875000Y-90240000D03*
G04 #@! TD*
D18*
G04 #@! TO.C,C3*
G36*
X133505779Y-89776144D02*
X133528834Y-89779563D01*
X133551443Y-89785227D01*
X133573387Y-89793079D01*
X133594457Y-89803044D01*
X133614448Y-89815026D01*
X133633168Y-89828910D01*
X133650438Y-89844562D01*
X133666090Y-89861832D01*
X133679974Y-89880552D01*
X133691956Y-89900543D01*
X133701921Y-89921613D01*
X133709773Y-89943557D01*
X133715437Y-89966166D01*
X133718856Y-89989221D01*
X133720000Y-90012500D01*
X133720000Y-90487500D01*
X133718856Y-90510779D01*
X133715437Y-90533834D01*
X133709773Y-90556443D01*
X133701921Y-90578387D01*
X133691956Y-90599457D01*
X133679974Y-90619448D01*
X133666090Y-90638168D01*
X133650438Y-90655438D01*
X133633168Y-90671090D01*
X133614448Y-90684974D01*
X133594457Y-90696956D01*
X133573387Y-90706921D01*
X133551443Y-90714773D01*
X133528834Y-90720437D01*
X133505779Y-90723856D01*
X133482500Y-90725000D01*
X132907500Y-90725000D01*
X132884221Y-90723856D01*
X132861166Y-90720437D01*
X132838557Y-90714773D01*
X132816613Y-90706921D01*
X132795543Y-90696956D01*
X132775552Y-90684974D01*
X132756832Y-90671090D01*
X132739562Y-90655438D01*
X132723910Y-90638168D01*
X132710026Y-90619448D01*
X132698044Y-90599457D01*
X132688079Y-90578387D01*
X132680227Y-90556443D01*
X132674563Y-90533834D01*
X132671144Y-90510779D01*
X132670000Y-90487500D01*
X132670000Y-90012500D01*
X132671144Y-89989221D01*
X132674563Y-89966166D01*
X132680227Y-89943557D01*
X132688079Y-89921613D01*
X132698044Y-89900543D01*
X132710026Y-89880552D01*
X132723910Y-89861832D01*
X132739562Y-89844562D01*
X132756832Y-89828910D01*
X132775552Y-89815026D01*
X132795543Y-89803044D01*
X132816613Y-89793079D01*
X132838557Y-89785227D01*
X132861166Y-89779563D01*
X132884221Y-89776144D01*
X132907500Y-89775000D01*
X133482500Y-89775000D01*
X133505779Y-89776144D01*
X133505779Y-89776144D01*
G37*
D19*
X133195000Y-90250000D03*
D18*
G36*
X131755779Y-89776144D02*
X131778834Y-89779563D01*
X131801443Y-89785227D01*
X131823387Y-89793079D01*
X131844457Y-89803044D01*
X131864448Y-89815026D01*
X131883168Y-89828910D01*
X131900438Y-89844562D01*
X131916090Y-89861832D01*
X131929974Y-89880552D01*
X131941956Y-89900543D01*
X131951921Y-89921613D01*
X131959773Y-89943557D01*
X131965437Y-89966166D01*
X131968856Y-89989221D01*
X131970000Y-90012500D01*
X131970000Y-90487500D01*
X131968856Y-90510779D01*
X131965437Y-90533834D01*
X131959773Y-90556443D01*
X131951921Y-90578387D01*
X131941956Y-90599457D01*
X131929974Y-90619448D01*
X131916090Y-90638168D01*
X131900438Y-90655438D01*
X131883168Y-90671090D01*
X131864448Y-90684974D01*
X131844457Y-90696956D01*
X131823387Y-90706921D01*
X131801443Y-90714773D01*
X131778834Y-90720437D01*
X131755779Y-90723856D01*
X131732500Y-90725000D01*
X131157500Y-90725000D01*
X131134221Y-90723856D01*
X131111166Y-90720437D01*
X131088557Y-90714773D01*
X131066613Y-90706921D01*
X131045543Y-90696956D01*
X131025552Y-90684974D01*
X131006832Y-90671090D01*
X130989562Y-90655438D01*
X130973910Y-90638168D01*
X130960026Y-90619448D01*
X130948044Y-90599457D01*
X130938079Y-90578387D01*
X130930227Y-90556443D01*
X130924563Y-90533834D01*
X130921144Y-90510779D01*
X130920000Y-90487500D01*
X130920000Y-90012500D01*
X130921144Y-89989221D01*
X130924563Y-89966166D01*
X130930227Y-89943557D01*
X130938079Y-89921613D01*
X130948044Y-89900543D01*
X130960026Y-89880552D01*
X130973910Y-89861832D01*
X130989562Y-89844562D01*
X131006832Y-89828910D01*
X131025552Y-89815026D01*
X131045543Y-89803044D01*
X131066613Y-89793079D01*
X131088557Y-89785227D01*
X131111166Y-89779563D01*
X131134221Y-89776144D01*
X131157500Y-89775000D01*
X131732500Y-89775000D01*
X131755779Y-89776144D01*
X131755779Y-89776144D01*
G37*
D19*
X131445000Y-90250000D03*
G04 #@! TD*
D20*
G04 #@! TO.C,H1*
X136630000Y-117890000D03*
G04 #@! TD*
D21*
G04 #@! TO.C,J1*
X146200000Y-94440000D03*
D22*
X146200000Y-96980000D03*
X146200000Y-99520000D03*
X146200000Y-102060000D03*
X146200000Y-104600000D03*
X146200000Y-107140000D03*
G04 #@! TD*
D23*
G04 #@! TO.C,Q1*
X144570000Y-81000000D03*
X145520000Y-83000000D03*
X143620000Y-83000000D03*
G04 #@! TD*
G04 #@! TO.C,Q2*
X139530000Y-90630000D03*
X138580000Y-88630000D03*
X140480000Y-88630000D03*
G04 #@! TD*
G04 #@! TO.C,Q4*
X142330000Y-90630000D03*
X144230000Y-90630000D03*
X143280000Y-88630000D03*
G04 #@! TD*
D18*
G04 #@! TO.C,R3*
G36*
X138965779Y-86406144D02*
X138988834Y-86409563D01*
X139011443Y-86415227D01*
X139033387Y-86423079D01*
X139054457Y-86433044D01*
X139074448Y-86445026D01*
X139093168Y-86458910D01*
X139110438Y-86474562D01*
X139126090Y-86491832D01*
X139139974Y-86510552D01*
X139151956Y-86530543D01*
X139161921Y-86551613D01*
X139169773Y-86573557D01*
X139175437Y-86596166D01*
X139178856Y-86619221D01*
X139180000Y-86642500D01*
X139180000Y-87117500D01*
X139178856Y-87140779D01*
X139175437Y-87163834D01*
X139169773Y-87186443D01*
X139161921Y-87208387D01*
X139151956Y-87229457D01*
X139139974Y-87249448D01*
X139126090Y-87268168D01*
X139110438Y-87285438D01*
X139093168Y-87301090D01*
X139074448Y-87314974D01*
X139054457Y-87326956D01*
X139033387Y-87336921D01*
X139011443Y-87344773D01*
X138988834Y-87350437D01*
X138965779Y-87353856D01*
X138942500Y-87355000D01*
X138367500Y-87355000D01*
X138344221Y-87353856D01*
X138321166Y-87350437D01*
X138298557Y-87344773D01*
X138276613Y-87336921D01*
X138255543Y-87326956D01*
X138235552Y-87314974D01*
X138216832Y-87301090D01*
X138199562Y-87285438D01*
X138183910Y-87268168D01*
X138170026Y-87249448D01*
X138158044Y-87229457D01*
X138148079Y-87208387D01*
X138140227Y-87186443D01*
X138134563Y-87163834D01*
X138131144Y-87140779D01*
X138130000Y-87117500D01*
X138130000Y-86642500D01*
X138131144Y-86619221D01*
X138134563Y-86596166D01*
X138140227Y-86573557D01*
X138148079Y-86551613D01*
X138158044Y-86530543D01*
X138170026Y-86510552D01*
X138183910Y-86491832D01*
X138199562Y-86474562D01*
X138216832Y-86458910D01*
X138235552Y-86445026D01*
X138255543Y-86433044D01*
X138276613Y-86423079D01*
X138298557Y-86415227D01*
X138321166Y-86409563D01*
X138344221Y-86406144D01*
X138367500Y-86405000D01*
X138942500Y-86405000D01*
X138965779Y-86406144D01*
X138965779Y-86406144D01*
G37*
D19*
X138655000Y-86880000D03*
D18*
G36*
X140715779Y-86406144D02*
X140738834Y-86409563D01*
X140761443Y-86415227D01*
X140783387Y-86423079D01*
X140804457Y-86433044D01*
X140824448Y-86445026D01*
X140843168Y-86458910D01*
X140860438Y-86474562D01*
X140876090Y-86491832D01*
X140889974Y-86510552D01*
X140901956Y-86530543D01*
X140911921Y-86551613D01*
X140919773Y-86573557D01*
X140925437Y-86596166D01*
X140928856Y-86619221D01*
X140930000Y-86642500D01*
X140930000Y-87117500D01*
X140928856Y-87140779D01*
X140925437Y-87163834D01*
X140919773Y-87186443D01*
X140911921Y-87208387D01*
X140901956Y-87229457D01*
X140889974Y-87249448D01*
X140876090Y-87268168D01*
X140860438Y-87285438D01*
X140843168Y-87301090D01*
X140824448Y-87314974D01*
X140804457Y-87326956D01*
X140783387Y-87336921D01*
X140761443Y-87344773D01*
X140738834Y-87350437D01*
X140715779Y-87353856D01*
X140692500Y-87355000D01*
X140117500Y-87355000D01*
X140094221Y-87353856D01*
X140071166Y-87350437D01*
X140048557Y-87344773D01*
X140026613Y-87336921D01*
X140005543Y-87326956D01*
X139985552Y-87314974D01*
X139966832Y-87301090D01*
X139949562Y-87285438D01*
X139933910Y-87268168D01*
X139920026Y-87249448D01*
X139908044Y-87229457D01*
X139898079Y-87208387D01*
X139890227Y-87186443D01*
X139884563Y-87163834D01*
X139881144Y-87140779D01*
X139880000Y-87117500D01*
X139880000Y-86642500D01*
X139881144Y-86619221D01*
X139884563Y-86596166D01*
X139890227Y-86573557D01*
X139898079Y-86551613D01*
X139908044Y-86530543D01*
X139920026Y-86510552D01*
X139933910Y-86491832D01*
X139949562Y-86474562D01*
X139966832Y-86458910D01*
X139985552Y-86445026D01*
X140005543Y-86433044D01*
X140026613Y-86423079D01*
X140048557Y-86415227D01*
X140071166Y-86409563D01*
X140094221Y-86406144D01*
X140117500Y-86405000D01*
X140692500Y-86405000D01*
X140715779Y-86406144D01*
X140715779Y-86406144D01*
G37*
D19*
X140405000Y-86880000D03*
G04 #@! TD*
D18*
G04 #@! TO.C,R4*
G36*
X144005779Y-84276144D02*
X144028834Y-84279563D01*
X144051443Y-84285227D01*
X144073387Y-84293079D01*
X144094457Y-84303044D01*
X144114448Y-84315026D01*
X144133168Y-84328910D01*
X144150438Y-84344562D01*
X144166090Y-84361832D01*
X144179974Y-84380552D01*
X144191956Y-84400543D01*
X144201921Y-84421613D01*
X144209773Y-84443557D01*
X144215437Y-84466166D01*
X144218856Y-84489221D01*
X144220000Y-84512500D01*
X144220000Y-84987500D01*
X144218856Y-85010779D01*
X144215437Y-85033834D01*
X144209773Y-85056443D01*
X144201921Y-85078387D01*
X144191956Y-85099457D01*
X144179974Y-85119448D01*
X144166090Y-85138168D01*
X144150438Y-85155438D01*
X144133168Y-85171090D01*
X144114448Y-85184974D01*
X144094457Y-85196956D01*
X144073387Y-85206921D01*
X144051443Y-85214773D01*
X144028834Y-85220437D01*
X144005779Y-85223856D01*
X143982500Y-85225000D01*
X143407500Y-85225000D01*
X143384221Y-85223856D01*
X143361166Y-85220437D01*
X143338557Y-85214773D01*
X143316613Y-85206921D01*
X143295543Y-85196956D01*
X143275552Y-85184974D01*
X143256832Y-85171090D01*
X143239562Y-85155438D01*
X143223910Y-85138168D01*
X143210026Y-85119448D01*
X143198044Y-85099457D01*
X143188079Y-85078387D01*
X143180227Y-85056443D01*
X143174563Y-85033834D01*
X143171144Y-85010779D01*
X143170000Y-84987500D01*
X143170000Y-84512500D01*
X143171144Y-84489221D01*
X143174563Y-84466166D01*
X143180227Y-84443557D01*
X143188079Y-84421613D01*
X143198044Y-84400543D01*
X143210026Y-84380552D01*
X143223910Y-84361832D01*
X143239562Y-84344562D01*
X143256832Y-84328910D01*
X143275552Y-84315026D01*
X143295543Y-84303044D01*
X143316613Y-84293079D01*
X143338557Y-84285227D01*
X143361166Y-84279563D01*
X143384221Y-84276144D01*
X143407500Y-84275000D01*
X143982500Y-84275000D01*
X144005779Y-84276144D01*
X144005779Y-84276144D01*
G37*
D19*
X143695000Y-84750000D03*
D18*
G36*
X145755779Y-84276144D02*
X145778834Y-84279563D01*
X145801443Y-84285227D01*
X145823387Y-84293079D01*
X145844457Y-84303044D01*
X145864448Y-84315026D01*
X145883168Y-84328910D01*
X145900438Y-84344562D01*
X145916090Y-84361832D01*
X145929974Y-84380552D01*
X145941956Y-84400543D01*
X145951921Y-84421613D01*
X145959773Y-84443557D01*
X145965437Y-84466166D01*
X145968856Y-84489221D01*
X145970000Y-84512500D01*
X145970000Y-84987500D01*
X145968856Y-85010779D01*
X145965437Y-85033834D01*
X145959773Y-85056443D01*
X145951921Y-85078387D01*
X145941956Y-85099457D01*
X145929974Y-85119448D01*
X145916090Y-85138168D01*
X145900438Y-85155438D01*
X145883168Y-85171090D01*
X145864448Y-85184974D01*
X145844457Y-85196956D01*
X145823387Y-85206921D01*
X145801443Y-85214773D01*
X145778834Y-85220437D01*
X145755779Y-85223856D01*
X145732500Y-85225000D01*
X145157500Y-85225000D01*
X145134221Y-85223856D01*
X145111166Y-85220437D01*
X145088557Y-85214773D01*
X145066613Y-85206921D01*
X145045543Y-85196956D01*
X145025552Y-85184974D01*
X145006832Y-85171090D01*
X144989562Y-85155438D01*
X144973910Y-85138168D01*
X144960026Y-85119448D01*
X144948044Y-85099457D01*
X144938079Y-85078387D01*
X144930227Y-85056443D01*
X144924563Y-85033834D01*
X144921144Y-85010779D01*
X144920000Y-84987500D01*
X144920000Y-84512500D01*
X144921144Y-84489221D01*
X144924563Y-84466166D01*
X144930227Y-84443557D01*
X144938079Y-84421613D01*
X144948044Y-84400543D01*
X144960026Y-84380552D01*
X144973910Y-84361832D01*
X144989562Y-84344562D01*
X145006832Y-84328910D01*
X145025552Y-84315026D01*
X145045543Y-84303044D01*
X145066613Y-84293079D01*
X145088557Y-84285227D01*
X145111166Y-84279563D01*
X145134221Y-84276144D01*
X145157500Y-84275000D01*
X145732500Y-84275000D01*
X145755779Y-84276144D01*
X145755779Y-84276144D01*
G37*
D19*
X145445000Y-84750000D03*
G04 #@! TD*
D18*
G04 #@! TO.C,R7*
G36*
X141580779Y-80576144D02*
X141603834Y-80579563D01*
X141626443Y-80585227D01*
X141648387Y-80593079D01*
X141669457Y-80603044D01*
X141689448Y-80615026D01*
X141708168Y-80628910D01*
X141725438Y-80644562D01*
X141741090Y-80661832D01*
X141754974Y-80680552D01*
X141766956Y-80700543D01*
X141776921Y-80721613D01*
X141784773Y-80743557D01*
X141790437Y-80766166D01*
X141793856Y-80789221D01*
X141795000Y-80812500D01*
X141795000Y-81287500D01*
X141793856Y-81310779D01*
X141790437Y-81333834D01*
X141784773Y-81356443D01*
X141776921Y-81378387D01*
X141766956Y-81399457D01*
X141754974Y-81419448D01*
X141741090Y-81438168D01*
X141725438Y-81455438D01*
X141708168Y-81471090D01*
X141689448Y-81484974D01*
X141669457Y-81496956D01*
X141648387Y-81506921D01*
X141626443Y-81514773D01*
X141603834Y-81520437D01*
X141580779Y-81523856D01*
X141557500Y-81525000D01*
X140982500Y-81525000D01*
X140959221Y-81523856D01*
X140936166Y-81520437D01*
X140913557Y-81514773D01*
X140891613Y-81506921D01*
X140870543Y-81496956D01*
X140850552Y-81484974D01*
X140831832Y-81471090D01*
X140814562Y-81455438D01*
X140798910Y-81438168D01*
X140785026Y-81419448D01*
X140773044Y-81399457D01*
X140763079Y-81378387D01*
X140755227Y-81356443D01*
X140749563Y-81333834D01*
X140746144Y-81310779D01*
X140745000Y-81287500D01*
X140745000Y-80812500D01*
X140746144Y-80789221D01*
X140749563Y-80766166D01*
X140755227Y-80743557D01*
X140763079Y-80721613D01*
X140773044Y-80700543D01*
X140785026Y-80680552D01*
X140798910Y-80661832D01*
X140814562Y-80644562D01*
X140831832Y-80628910D01*
X140850552Y-80615026D01*
X140870543Y-80603044D01*
X140891613Y-80593079D01*
X140913557Y-80585227D01*
X140936166Y-80579563D01*
X140959221Y-80576144D01*
X140982500Y-80575000D01*
X141557500Y-80575000D01*
X141580779Y-80576144D01*
X141580779Y-80576144D01*
G37*
D19*
X141270000Y-81050000D03*
D18*
G36*
X139830779Y-80576144D02*
X139853834Y-80579563D01*
X139876443Y-80585227D01*
X139898387Y-80593079D01*
X139919457Y-80603044D01*
X139939448Y-80615026D01*
X139958168Y-80628910D01*
X139975438Y-80644562D01*
X139991090Y-80661832D01*
X140004974Y-80680552D01*
X140016956Y-80700543D01*
X140026921Y-80721613D01*
X140034773Y-80743557D01*
X140040437Y-80766166D01*
X140043856Y-80789221D01*
X140045000Y-80812500D01*
X140045000Y-81287500D01*
X140043856Y-81310779D01*
X140040437Y-81333834D01*
X140034773Y-81356443D01*
X140026921Y-81378387D01*
X140016956Y-81399457D01*
X140004974Y-81419448D01*
X139991090Y-81438168D01*
X139975438Y-81455438D01*
X139958168Y-81471090D01*
X139939448Y-81484974D01*
X139919457Y-81496956D01*
X139898387Y-81506921D01*
X139876443Y-81514773D01*
X139853834Y-81520437D01*
X139830779Y-81523856D01*
X139807500Y-81525000D01*
X139232500Y-81525000D01*
X139209221Y-81523856D01*
X139186166Y-81520437D01*
X139163557Y-81514773D01*
X139141613Y-81506921D01*
X139120543Y-81496956D01*
X139100552Y-81484974D01*
X139081832Y-81471090D01*
X139064562Y-81455438D01*
X139048910Y-81438168D01*
X139035026Y-81419448D01*
X139023044Y-81399457D01*
X139013079Y-81378387D01*
X139005227Y-81356443D01*
X138999563Y-81333834D01*
X138996144Y-81310779D01*
X138995000Y-81287500D01*
X138995000Y-80812500D01*
X138996144Y-80789221D01*
X138999563Y-80766166D01*
X139005227Y-80743557D01*
X139013079Y-80721613D01*
X139023044Y-80700543D01*
X139035026Y-80680552D01*
X139048910Y-80661832D01*
X139064562Y-80644562D01*
X139081832Y-80628910D01*
X139100552Y-80615026D01*
X139120543Y-80603044D01*
X139141613Y-80593079D01*
X139163557Y-80585227D01*
X139186166Y-80579563D01*
X139209221Y-80576144D01*
X139232500Y-80575000D01*
X139807500Y-80575000D01*
X139830779Y-80576144D01*
X139830779Y-80576144D01*
G37*
D19*
X139520000Y-81050000D03*
G04 #@! TD*
D18*
G04 #@! TO.C,R9*
G36*
X132218601Y-111341797D02*
X132241656Y-111345216D01*
X132264265Y-111350880D01*
X132286209Y-111358732D01*
X132307279Y-111368697D01*
X132327270Y-111380679D01*
X132345990Y-111394563D01*
X132363260Y-111410215D01*
X132378912Y-111427485D01*
X132392796Y-111446205D01*
X132404778Y-111466196D01*
X132414743Y-111487266D01*
X132422595Y-111509210D01*
X132428259Y-111531819D01*
X132431678Y-111554874D01*
X132432822Y-111578153D01*
X132432822Y-112053153D01*
X132431678Y-112076432D01*
X132428259Y-112099487D01*
X132422595Y-112122096D01*
X132414743Y-112144040D01*
X132404778Y-112165110D01*
X132392796Y-112185101D01*
X132378912Y-112203821D01*
X132363260Y-112221091D01*
X132345990Y-112236743D01*
X132327270Y-112250627D01*
X132307279Y-112262609D01*
X132286209Y-112272574D01*
X132264265Y-112280426D01*
X132241656Y-112286090D01*
X132218601Y-112289509D01*
X132195322Y-112290653D01*
X131620322Y-112290653D01*
X131597043Y-112289509D01*
X131573988Y-112286090D01*
X131551379Y-112280426D01*
X131529435Y-112272574D01*
X131508365Y-112262609D01*
X131488374Y-112250627D01*
X131469654Y-112236743D01*
X131452384Y-112221091D01*
X131436732Y-112203821D01*
X131422848Y-112185101D01*
X131410866Y-112165110D01*
X131400901Y-112144040D01*
X131393049Y-112122096D01*
X131387385Y-112099487D01*
X131383966Y-112076432D01*
X131382822Y-112053153D01*
X131382822Y-111578153D01*
X131383966Y-111554874D01*
X131387385Y-111531819D01*
X131393049Y-111509210D01*
X131400901Y-111487266D01*
X131410866Y-111466196D01*
X131422848Y-111446205D01*
X131436732Y-111427485D01*
X131452384Y-111410215D01*
X131469654Y-111394563D01*
X131488374Y-111380679D01*
X131508365Y-111368697D01*
X131529435Y-111358732D01*
X131551379Y-111350880D01*
X131573988Y-111345216D01*
X131597043Y-111341797D01*
X131620322Y-111340653D01*
X132195322Y-111340653D01*
X132218601Y-111341797D01*
X132218601Y-111341797D01*
G37*
D19*
X131907822Y-111815653D03*
D18*
G36*
X130468601Y-111341797D02*
X130491656Y-111345216D01*
X130514265Y-111350880D01*
X130536209Y-111358732D01*
X130557279Y-111368697D01*
X130577270Y-111380679D01*
X130595990Y-111394563D01*
X130613260Y-111410215D01*
X130628912Y-111427485D01*
X130642796Y-111446205D01*
X130654778Y-111466196D01*
X130664743Y-111487266D01*
X130672595Y-111509210D01*
X130678259Y-111531819D01*
X130681678Y-111554874D01*
X130682822Y-111578153D01*
X130682822Y-112053153D01*
X130681678Y-112076432D01*
X130678259Y-112099487D01*
X130672595Y-112122096D01*
X130664743Y-112144040D01*
X130654778Y-112165110D01*
X130642796Y-112185101D01*
X130628912Y-112203821D01*
X130613260Y-112221091D01*
X130595990Y-112236743D01*
X130577270Y-112250627D01*
X130557279Y-112262609D01*
X130536209Y-112272574D01*
X130514265Y-112280426D01*
X130491656Y-112286090D01*
X130468601Y-112289509D01*
X130445322Y-112290653D01*
X129870322Y-112290653D01*
X129847043Y-112289509D01*
X129823988Y-112286090D01*
X129801379Y-112280426D01*
X129779435Y-112272574D01*
X129758365Y-112262609D01*
X129738374Y-112250627D01*
X129719654Y-112236743D01*
X129702384Y-112221091D01*
X129686732Y-112203821D01*
X129672848Y-112185101D01*
X129660866Y-112165110D01*
X129650901Y-112144040D01*
X129643049Y-112122096D01*
X129637385Y-112099487D01*
X129633966Y-112076432D01*
X129632822Y-112053153D01*
X129632822Y-111578153D01*
X129633966Y-111554874D01*
X129637385Y-111531819D01*
X129643049Y-111509210D01*
X129650901Y-111487266D01*
X129660866Y-111466196D01*
X129672848Y-111446205D01*
X129686732Y-111427485D01*
X129702384Y-111410215D01*
X129719654Y-111394563D01*
X129738374Y-111380679D01*
X129758365Y-111368697D01*
X129779435Y-111358732D01*
X129801379Y-111350880D01*
X129823988Y-111345216D01*
X129847043Y-111341797D01*
X129870322Y-111340653D01*
X130445322Y-111340653D01*
X130468601Y-111341797D01*
X130468601Y-111341797D01*
G37*
D19*
X130157822Y-111815653D03*
G04 #@! TD*
D18*
G04 #@! TO.C,R10*
G36*
X141793601Y-111341797D02*
X141816656Y-111345216D01*
X141839265Y-111350880D01*
X141861209Y-111358732D01*
X141882279Y-111368697D01*
X141902270Y-111380679D01*
X141920990Y-111394563D01*
X141938260Y-111410215D01*
X141953912Y-111427485D01*
X141967796Y-111446205D01*
X141979778Y-111466196D01*
X141989743Y-111487266D01*
X141997595Y-111509210D01*
X142003259Y-111531819D01*
X142006678Y-111554874D01*
X142007822Y-111578153D01*
X142007822Y-112053153D01*
X142006678Y-112076432D01*
X142003259Y-112099487D01*
X141997595Y-112122096D01*
X141989743Y-112144040D01*
X141979778Y-112165110D01*
X141967796Y-112185101D01*
X141953912Y-112203821D01*
X141938260Y-112221091D01*
X141920990Y-112236743D01*
X141902270Y-112250627D01*
X141882279Y-112262609D01*
X141861209Y-112272574D01*
X141839265Y-112280426D01*
X141816656Y-112286090D01*
X141793601Y-112289509D01*
X141770322Y-112290653D01*
X141195322Y-112290653D01*
X141172043Y-112289509D01*
X141148988Y-112286090D01*
X141126379Y-112280426D01*
X141104435Y-112272574D01*
X141083365Y-112262609D01*
X141063374Y-112250627D01*
X141044654Y-112236743D01*
X141027384Y-112221091D01*
X141011732Y-112203821D01*
X140997848Y-112185101D01*
X140985866Y-112165110D01*
X140975901Y-112144040D01*
X140968049Y-112122096D01*
X140962385Y-112099487D01*
X140958966Y-112076432D01*
X140957822Y-112053153D01*
X140957822Y-111578153D01*
X140958966Y-111554874D01*
X140962385Y-111531819D01*
X140968049Y-111509210D01*
X140975901Y-111487266D01*
X140985866Y-111466196D01*
X140997848Y-111446205D01*
X141011732Y-111427485D01*
X141027384Y-111410215D01*
X141044654Y-111394563D01*
X141063374Y-111380679D01*
X141083365Y-111368697D01*
X141104435Y-111358732D01*
X141126379Y-111350880D01*
X141148988Y-111345216D01*
X141172043Y-111341797D01*
X141195322Y-111340653D01*
X141770322Y-111340653D01*
X141793601Y-111341797D01*
X141793601Y-111341797D01*
G37*
D19*
X141482822Y-111815653D03*
D18*
G36*
X143543601Y-111341797D02*
X143566656Y-111345216D01*
X143589265Y-111350880D01*
X143611209Y-111358732D01*
X143632279Y-111368697D01*
X143652270Y-111380679D01*
X143670990Y-111394563D01*
X143688260Y-111410215D01*
X143703912Y-111427485D01*
X143717796Y-111446205D01*
X143729778Y-111466196D01*
X143739743Y-111487266D01*
X143747595Y-111509210D01*
X143753259Y-111531819D01*
X143756678Y-111554874D01*
X143757822Y-111578153D01*
X143757822Y-112053153D01*
X143756678Y-112076432D01*
X143753259Y-112099487D01*
X143747595Y-112122096D01*
X143739743Y-112144040D01*
X143729778Y-112165110D01*
X143717796Y-112185101D01*
X143703912Y-112203821D01*
X143688260Y-112221091D01*
X143670990Y-112236743D01*
X143652270Y-112250627D01*
X143632279Y-112262609D01*
X143611209Y-112272574D01*
X143589265Y-112280426D01*
X143566656Y-112286090D01*
X143543601Y-112289509D01*
X143520322Y-112290653D01*
X142945322Y-112290653D01*
X142922043Y-112289509D01*
X142898988Y-112286090D01*
X142876379Y-112280426D01*
X142854435Y-112272574D01*
X142833365Y-112262609D01*
X142813374Y-112250627D01*
X142794654Y-112236743D01*
X142777384Y-112221091D01*
X142761732Y-112203821D01*
X142747848Y-112185101D01*
X142735866Y-112165110D01*
X142725901Y-112144040D01*
X142718049Y-112122096D01*
X142712385Y-112099487D01*
X142708966Y-112076432D01*
X142707822Y-112053153D01*
X142707822Y-111578153D01*
X142708966Y-111554874D01*
X142712385Y-111531819D01*
X142718049Y-111509210D01*
X142725901Y-111487266D01*
X142735866Y-111466196D01*
X142747848Y-111446205D01*
X142761732Y-111427485D01*
X142777384Y-111410215D01*
X142794654Y-111394563D01*
X142813374Y-111380679D01*
X142833365Y-111368697D01*
X142854435Y-111358732D01*
X142876379Y-111350880D01*
X142898988Y-111345216D01*
X142922043Y-111341797D01*
X142945322Y-111340653D01*
X143520322Y-111340653D01*
X143543601Y-111341797D01*
X143543601Y-111341797D01*
G37*
D19*
X143232822Y-111815653D03*
G04 #@! TD*
D18*
G04 #@! TO.C,R11*
G36*
X136168601Y-111341797D02*
X136191656Y-111345216D01*
X136214265Y-111350880D01*
X136236209Y-111358732D01*
X136257279Y-111368697D01*
X136277270Y-111380679D01*
X136295990Y-111394563D01*
X136313260Y-111410215D01*
X136328912Y-111427485D01*
X136342796Y-111446205D01*
X136354778Y-111466196D01*
X136364743Y-111487266D01*
X136372595Y-111509210D01*
X136378259Y-111531819D01*
X136381678Y-111554874D01*
X136382822Y-111578153D01*
X136382822Y-112053153D01*
X136381678Y-112076432D01*
X136378259Y-112099487D01*
X136372595Y-112122096D01*
X136364743Y-112144040D01*
X136354778Y-112165110D01*
X136342796Y-112185101D01*
X136328912Y-112203821D01*
X136313260Y-112221091D01*
X136295990Y-112236743D01*
X136277270Y-112250627D01*
X136257279Y-112262609D01*
X136236209Y-112272574D01*
X136214265Y-112280426D01*
X136191656Y-112286090D01*
X136168601Y-112289509D01*
X136145322Y-112290653D01*
X135570322Y-112290653D01*
X135547043Y-112289509D01*
X135523988Y-112286090D01*
X135501379Y-112280426D01*
X135479435Y-112272574D01*
X135458365Y-112262609D01*
X135438374Y-112250627D01*
X135419654Y-112236743D01*
X135402384Y-112221091D01*
X135386732Y-112203821D01*
X135372848Y-112185101D01*
X135360866Y-112165110D01*
X135350901Y-112144040D01*
X135343049Y-112122096D01*
X135337385Y-112099487D01*
X135333966Y-112076432D01*
X135332822Y-112053153D01*
X135332822Y-111578153D01*
X135333966Y-111554874D01*
X135337385Y-111531819D01*
X135343049Y-111509210D01*
X135350901Y-111487266D01*
X135360866Y-111466196D01*
X135372848Y-111446205D01*
X135386732Y-111427485D01*
X135402384Y-111410215D01*
X135419654Y-111394563D01*
X135438374Y-111380679D01*
X135458365Y-111368697D01*
X135479435Y-111358732D01*
X135501379Y-111350880D01*
X135523988Y-111345216D01*
X135547043Y-111341797D01*
X135570322Y-111340653D01*
X136145322Y-111340653D01*
X136168601Y-111341797D01*
X136168601Y-111341797D01*
G37*
D19*
X135857822Y-111815653D03*
D18*
G36*
X137918601Y-111341797D02*
X137941656Y-111345216D01*
X137964265Y-111350880D01*
X137986209Y-111358732D01*
X138007279Y-111368697D01*
X138027270Y-111380679D01*
X138045990Y-111394563D01*
X138063260Y-111410215D01*
X138078912Y-111427485D01*
X138092796Y-111446205D01*
X138104778Y-111466196D01*
X138114743Y-111487266D01*
X138122595Y-111509210D01*
X138128259Y-111531819D01*
X138131678Y-111554874D01*
X138132822Y-111578153D01*
X138132822Y-112053153D01*
X138131678Y-112076432D01*
X138128259Y-112099487D01*
X138122595Y-112122096D01*
X138114743Y-112144040D01*
X138104778Y-112165110D01*
X138092796Y-112185101D01*
X138078912Y-112203821D01*
X138063260Y-112221091D01*
X138045990Y-112236743D01*
X138027270Y-112250627D01*
X138007279Y-112262609D01*
X137986209Y-112272574D01*
X137964265Y-112280426D01*
X137941656Y-112286090D01*
X137918601Y-112289509D01*
X137895322Y-112290653D01*
X137320322Y-112290653D01*
X137297043Y-112289509D01*
X137273988Y-112286090D01*
X137251379Y-112280426D01*
X137229435Y-112272574D01*
X137208365Y-112262609D01*
X137188374Y-112250627D01*
X137169654Y-112236743D01*
X137152384Y-112221091D01*
X137136732Y-112203821D01*
X137122848Y-112185101D01*
X137110866Y-112165110D01*
X137100901Y-112144040D01*
X137093049Y-112122096D01*
X137087385Y-112099487D01*
X137083966Y-112076432D01*
X137082822Y-112053153D01*
X137082822Y-111578153D01*
X137083966Y-111554874D01*
X137087385Y-111531819D01*
X137093049Y-111509210D01*
X137100901Y-111487266D01*
X137110866Y-111466196D01*
X137122848Y-111446205D01*
X137136732Y-111427485D01*
X137152384Y-111410215D01*
X137169654Y-111394563D01*
X137188374Y-111380679D01*
X137208365Y-111368697D01*
X137229435Y-111358732D01*
X137251379Y-111350880D01*
X137273988Y-111345216D01*
X137297043Y-111341797D01*
X137320322Y-111340653D01*
X137895322Y-111340653D01*
X137918601Y-111341797D01*
X137918601Y-111341797D01*
G37*
D19*
X137607822Y-111815653D03*
G04 #@! TD*
D18*
G04 #@! TO.C,R12*
G36*
X144465779Y-86406144D02*
X144488834Y-86409563D01*
X144511443Y-86415227D01*
X144533387Y-86423079D01*
X144554457Y-86433044D01*
X144574448Y-86445026D01*
X144593168Y-86458910D01*
X144610438Y-86474562D01*
X144626090Y-86491832D01*
X144639974Y-86510552D01*
X144651956Y-86530543D01*
X144661921Y-86551613D01*
X144669773Y-86573557D01*
X144675437Y-86596166D01*
X144678856Y-86619221D01*
X144680000Y-86642500D01*
X144680000Y-87117500D01*
X144678856Y-87140779D01*
X144675437Y-87163834D01*
X144669773Y-87186443D01*
X144661921Y-87208387D01*
X144651956Y-87229457D01*
X144639974Y-87249448D01*
X144626090Y-87268168D01*
X144610438Y-87285438D01*
X144593168Y-87301090D01*
X144574448Y-87314974D01*
X144554457Y-87326956D01*
X144533387Y-87336921D01*
X144511443Y-87344773D01*
X144488834Y-87350437D01*
X144465779Y-87353856D01*
X144442500Y-87355000D01*
X143867500Y-87355000D01*
X143844221Y-87353856D01*
X143821166Y-87350437D01*
X143798557Y-87344773D01*
X143776613Y-87336921D01*
X143755543Y-87326956D01*
X143735552Y-87314974D01*
X143716832Y-87301090D01*
X143699562Y-87285438D01*
X143683910Y-87268168D01*
X143670026Y-87249448D01*
X143658044Y-87229457D01*
X143648079Y-87208387D01*
X143640227Y-87186443D01*
X143634563Y-87163834D01*
X143631144Y-87140779D01*
X143630000Y-87117500D01*
X143630000Y-86642500D01*
X143631144Y-86619221D01*
X143634563Y-86596166D01*
X143640227Y-86573557D01*
X143648079Y-86551613D01*
X143658044Y-86530543D01*
X143670026Y-86510552D01*
X143683910Y-86491832D01*
X143699562Y-86474562D01*
X143716832Y-86458910D01*
X143735552Y-86445026D01*
X143755543Y-86433044D01*
X143776613Y-86423079D01*
X143798557Y-86415227D01*
X143821166Y-86409563D01*
X143844221Y-86406144D01*
X143867500Y-86405000D01*
X144442500Y-86405000D01*
X144465779Y-86406144D01*
X144465779Y-86406144D01*
G37*
D19*
X144155000Y-86880000D03*
D18*
G36*
X142715779Y-86406144D02*
X142738834Y-86409563D01*
X142761443Y-86415227D01*
X142783387Y-86423079D01*
X142804457Y-86433044D01*
X142824448Y-86445026D01*
X142843168Y-86458910D01*
X142860438Y-86474562D01*
X142876090Y-86491832D01*
X142889974Y-86510552D01*
X142901956Y-86530543D01*
X142911921Y-86551613D01*
X142919773Y-86573557D01*
X142925437Y-86596166D01*
X142928856Y-86619221D01*
X142930000Y-86642500D01*
X142930000Y-87117500D01*
X142928856Y-87140779D01*
X142925437Y-87163834D01*
X142919773Y-87186443D01*
X142911921Y-87208387D01*
X142901956Y-87229457D01*
X142889974Y-87249448D01*
X142876090Y-87268168D01*
X142860438Y-87285438D01*
X142843168Y-87301090D01*
X142824448Y-87314974D01*
X142804457Y-87326956D01*
X142783387Y-87336921D01*
X142761443Y-87344773D01*
X142738834Y-87350437D01*
X142715779Y-87353856D01*
X142692500Y-87355000D01*
X142117500Y-87355000D01*
X142094221Y-87353856D01*
X142071166Y-87350437D01*
X142048557Y-87344773D01*
X142026613Y-87336921D01*
X142005543Y-87326956D01*
X141985552Y-87314974D01*
X141966832Y-87301090D01*
X141949562Y-87285438D01*
X141933910Y-87268168D01*
X141920026Y-87249448D01*
X141908044Y-87229457D01*
X141898079Y-87208387D01*
X141890227Y-87186443D01*
X141884563Y-87163834D01*
X141881144Y-87140779D01*
X141880000Y-87117500D01*
X141880000Y-86642500D01*
X141881144Y-86619221D01*
X141884563Y-86596166D01*
X141890227Y-86573557D01*
X141898079Y-86551613D01*
X141908044Y-86530543D01*
X141920026Y-86510552D01*
X141933910Y-86491832D01*
X141949562Y-86474562D01*
X141966832Y-86458910D01*
X141985552Y-86445026D01*
X142005543Y-86433044D01*
X142026613Y-86423079D01*
X142048557Y-86415227D01*
X142071166Y-86409563D01*
X142094221Y-86406144D01*
X142117500Y-86405000D01*
X142692500Y-86405000D01*
X142715779Y-86406144D01*
X142715779Y-86406144D01*
G37*
D19*
X142405000Y-86880000D03*
G04 #@! TD*
D24*
G04 #@! TO.C,U1*
X130570000Y-81100000D03*
D25*
X130570000Y-87400000D03*
X132870000Y-87400000D03*
X128270000Y-87400000D03*
G04 #@! TD*
D26*
G04 #@! TO.C,U2*
X133820000Y-100625000D03*
X133820000Y-101275000D03*
X133820000Y-101925000D03*
X133820000Y-102575000D03*
X133820000Y-103225000D03*
X133820000Y-103875000D03*
X133820000Y-104525000D03*
X133820000Y-105175000D03*
X133820000Y-105825000D03*
X133820000Y-106475000D03*
X139720000Y-106475000D03*
X139720000Y-105825000D03*
X139720000Y-105175000D03*
X139720000Y-104525000D03*
X139720000Y-103875000D03*
X139720000Y-103225000D03*
X139720000Y-102575000D03*
X139720000Y-101925000D03*
X139720000Y-101275000D03*
X139720000Y-100625000D03*
G04 #@! TD*
D27*
G04 #@! TO.C,D3*
X138495000Y-84325000D03*
X141795000Y-84325000D03*
G04 #@! TD*
D14*
G04 #@! TO.C,BT1*
X129400000Y-73140000D03*
D15*
X129400000Y-68060000D03*
G04 #@! TD*
D28*
G36*
X130855234Y-71774719D02*
X131014312Y-71891248D01*
X134846664Y-76525721D01*
X134938272Y-76785932D01*
X134839443Y-77043490D01*
X134436103Y-77504450D01*
X134435674Y-77504943D01*
X134432334Y-77508800D01*
X134431914Y-77509286D01*
X134120916Y-77872117D01*
X133882903Y-78006296D01*
X133614298Y-77956217D01*
X128198963Y-74760282D01*
X128041249Y-74588509D01*
X128005713Y-74358041D01*
X128297959Y-72312320D01*
X128415623Y-72081515D01*
X128649995Y-71971115D01*
X130659887Y-71747794D01*
X130855234Y-71774719D01*
X130855234Y-71774719D01*
G37*
X130855234Y-71774719D02*
X131014312Y-71891248D01*
X134846664Y-76525721D01*
X134938272Y-76785932D01*
X134839443Y-77043490D01*
X134436103Y-77504450D01*
X134435674Y-77504943D01*
X134432334Y-77508800D01*
X134431914Y-77509286D01*
X134120916Y-77872117D01*
X133882903Y-78006296D01*
X133614298Y-77956217D01*
X128198963Y-74760282D01*
X128041249Y-74588509D01*
X128005713Y-74358041D01*
X128297959Y-72312320D01*
X128415623Y-72081515D01*
X128649995Y-71971115D01*
X130659887Y-71747794D01*
X130855234Y-71774719D01*
G36*
X139214259Y-71570852D02*
X139349148Y-71705741D01*
X139403000Y-71906721D01*
X139403000Y-74305698D01*
X139353423Y-74499144D01*
X139228213Y-74632832D01*
X139038427Y-74694962D01*
X138298377Y-74743489D01*
X138255980Y-74753779D01*
X138028882Y-74852677D01*
X137988183Y-74880945D01*
X137966336Y-74911645D01*
X137854247Y-75132530D01*
X137841481Y-75174248D01*
X137807842Y-75443360D01*
X137807106Y-75451221D01*
X137803245Y-75513238D01*
X137803000Y-75521129D01*
X137803000Y-77073279D01*
X137749148Y-77274259D01*
X137614259Y-77409148D01*
X137413279Y-77463000D01*
X136538545Y-77463000D01*
X136339413Y-77410216D01*
X136204772Y-77277729D01*
X136148782Y-77079468D01*
X136065450Y-71912907D01*
X136117102Y-71709230D01*
X136252205Y-71571930D01*
X136455025Y-71517000D01*
X139013279Y-71517000D01*
X139214259Y-71570852D01*
X139214259Y-71570852D01*
G37*
X139214259Y-71570852D02*
X139349148Y-71705741D01*
X139403000Y-71906721D01*
X139403000Y-74305698D01*
X139353423Y-74499144D01*
X139228213Y-74632832D01*
X139038427Y-74694962D01*
X138298377Y-74743489D01*
X138255980Y-74753779D01*
X138028882Y-74852677D01*
X137988183Y-74880945D01*
X137966336Y-74911645D01*
X137854247Y-75132530D01*
X137841481Y-75174248D01*
X137807842Y-75443360D01*
X137807106Y-75451221D01*
X137803245Y-75513238D01*
X137803000Y-75521129D01*
X137803000Y-77073279D01*
X137749148Y-77274259D01*
X137614259Y-77409148D01*
X137413279Y-77463000D01*
X136538545Y-77463000D01*
X136339413Y-77410216D01*
X136204772Y-77277729D01*
X136148782Y-77079468D01*
X136065450Y-71912907D01*
X136117102Y-71709230D01*
X136252205Y-71571930D01*
X136455025Y-71517000D01*
X139013279Y-71517000D01*
X139214259Y-71570852D01*
G36*
X137650688Y-66696063D02*
X137679872Y-66765149D01*
X137701117Y-69314636D01*
X137672745Y-69384508D01*
X137603196Y-69413667D01*
X129555527Y-69437337D01*
X129485875Y-69408665D01*
X129457000Y-69339100D01*
X129457000Y-66789625D01*
X129485686Y-66720226D01*
X129554999Y-66691337D01*
X137581277Y-66667660D01*
X137650688Y-66696063D01*
X137650688Y-66696063D01*
G37*
X137650688Y-66696063D02*
X137679872Y-66765149D01*
X137701117Y-69314636D01*
X137672745Y-69384508D01*
X137603196Y-69413667D01*
X129555527Y-69437337D01*
X129485875Y-69408665D01*
X129457000Y-69339100D01*
X129457000Y-66789625D01*
X129485686Y-66720226D01*
X129554999Y-66691337D01*
X137581277Y-66667660D01*
X137650688Y-66696063D01*
M02*
