G04 #@! TF.GenerationSoftware,KiCad,Pcbnew,5.0.2-bee76a0~70~ubuntu16.04.1*
G04 #@! TF.CreationDate,2019-05-19T16:37:23+01:00*
G04 #@! TF.ProjectId,project,70726f6a-6563-4742-9e6b-696361645f70,rev?*
G04 #@! TF.SameCoordinates,Original*
G04 #@! TF.FileFunction,Copper,L1,Top*
G04 #@! TF.FilePolarity,Positive*
%FSLAX46Y46*%
G04 Gerber Fmt 4.6, Leading zero omitted, Abs format (unit mm)*
G04 Created by KiCad (PCBNEW 5.0.2-bee76a0~70~ubuntu16.04.1) date Sun 19 May 2019 16:37:23 BST*
%MOMM*%
%LPD*%
G01*
G04 APERTURE LIST*
G04 #@! TA.AperFunction,ComponentPad*
%ADD10R,3.000000X3.000000*%
G04 #@! TD*
G04 #@! TA.AperFunction,ComponentPad*
%ADD11C,3.000000*%
G04 #@! TD*
G04 #@! TA.AperFunction,ComponentPad*
%ADD12O,1.905000X2.000000*%
G04 #@! TD*
G04 #@! TA.AperFunction,ComponentPad*
%ADD13R,1.905000X2.000000*%
G04 #@! TD*
G04 #@! TA.AperFunction,Conductor*
%ADD14C,0.100000*%
G04 #@! TD*
G04 #@! TA.AperFunction,SMDPad,CuDef*
%ADD15C,0.950000*%
G04 #@! TD*
G04 #@! TA.AperFunction,ComponentPad*
%ADD16C,6.400000*%
G04 #@! TD*
G04 #@! TA.AperFunction,ComponentPad*
%ADD17C,1.700000*%
G04 #@! TD*
G04 #@! TA.AperFunction,Conductor*
%ADD18C,1.700000*%
G04 #@! TD*
G04 #@! TA.AperFunction,SMDPad,CuDef*
%ADD19R,0.800000X0.900000*%
G04 #@! TD*
G04 #@! TA.AperFunction,SMDPad,CuDef*
%ADD20R,3.800000X2.000000*%
G04 #@! TD*
G04 #@! TA.AperFunction,SMDPad,CuDef*
%ADD21R,1.500000X2.000000*%
G04 #@! TD*
G04 #@! TA.AperFunction,SMDPad,CuDef*
%ADD22R,1.450000X0.450000*%
G04 #@! TD*
G04 #@! TA.AperFunction,SMDPad,CuDef*
%ADD23R,0.900000X1.200000*%
G04 #@! TD*
G04 #@! TA.AperFunction,ViaPad*
%ADD24C,0.800000*%
G04 #@! TD*
G04 #@! TA.AperFunction,Conductor*
%ADD25C,0.250000*%
G04 #@! TD*
G04 #@! TA.AperFunction,Conductor*
%ADD26C,0.254000*%
G04 #@! TD*
G04 APERTURE END LIST*
D10*
G04 #@! TO.P,SC1,1*
G04 #@! TO.N,/SOLAR*
X143130000Y-73270000D03*
D11*
G04 #@! TO.P,SC1,2*
G04 #@! TO.N,GND*
X143130000Y-68190000D03*
G04 #@! TD*
D12*
G04 #@! TO.P,Q3,3*
G04 #@! TO.N,/BATT*
X134100000Y-77490000D03*
G04 #@! TO.P,Q3,2*
G04 #@! TO.N,/SOLAR*
X136640000Y-77490000D03*
D13*
G04 #@! TO.P,Q3,1*
G04 #@! TO.N,Net-(Q3-Pad1)*
X139180000Y-77490000D03*
G04 #@! TD*
D14*
G04 #@! TO.N,GND*
G04 #@! TO.C,C1*
G36*
X129935779Y-89766144D02*
X129958834Y-89769563D01*
X129981443Y-89775227D01*
X130003387Y-89783079D01*
X130024457Y-89793044D01*
X130044448Y-89805026D01*
X130063168Y-89818910D01*
X130080438Y-89834562D01*
X130096090Y-89851832D01*
X130109974Y-89870552D01*
X130121956Y-89890543D01*
X130131921Y-89911613D01*
X130139773Y-89933557D01*
X130145437Y-89956166D01*
X130148856Y-89979221D01*
X130150000Y-90002500D01*
X130150000Y-90477500D01*
X130148856Y-90500779D01*
X130145437Y-90523834D01*
X130139773Y-90546443D01*
X130131921Y-90568387D01*
X130121956Y-90589457D01*
X130109974Y-90609448D01*
X130096090Y-90628168D01*
X130080438Y-90645438D01*
X130063168Y-90661090D01*
X130044448Y-90674974D01*
X130024457Y-90686956D01*
X130003387Y-90696921D01*
X129981443Y-90704773D01*
X129958834Y-90710437D01*
X129935779Y-90713856D01*
X129912500Y-90715000D01*
X129337500Y-90715000D01*
X129314221Y-90713856D01*
X129291166Y-90710437D01*
X129268557Y-90704773D01*
X129246613Y-90696921D01*
X129225543Y-90686956D01*
X129205552Y-90674974D01*
X129186832Y-90661090D01*
X129169562Y-90645438D01*
X129153910Y-90628168D01*
X129140026Y-90609448D01*
X129128044Y-90589457D01*
X129118079Y-90568387D01*
X129110227Y-90546443D01*
X129104563Y-90523834D01*
X129101144Y-90500779D01*
X129100000Y-90477500D01*
X129100000Y-90002500D01*
X129101144Y-89979221D01*
X129104563Y-89956166D01*
X129110227Y-89933557D01*
X129118079Y-89911613D01*
X129128044Y-89890543D01*
X129140026Y-89870552D01*
X129153910Y-89851832D01*
X129169562Y-89834562D01*
X129186832Y-89818910D01*
X129205552Y-89805026D01*
X129225543Y-89793044D01*
X129246613Y-89783079D01*
X129268557Y-89775227D01*
X129291166Y-89769563D01*
X129314221Y-89766144D01*
X129337500Y-89765000D01*
X129912500Y-89765000D01*
X129935779Y-89766144D01*
X129935779Y-89766144D01*
G37*
D15*
G04 #@! TD*
G04 #@! TO.P,C1,2*
G04 #@! TO.N,GND*
X129625000Y-90240000D03*
D14*
G04 #@! TO.N,/REG_IN*
G04 #@! TO.C,C1*
G36*
X128185779Y-89766144D02*
X128208834Y-89769563D01*
X128231443Y-89775227D01*
X128253387Y-89783079D01*
X128274457Y-89793044D01*
X128294448Y-89805026D01*
X128313168Y-89818910D01*
X128330438Y-89834562D01*
X128346090Y-89851832D01*
X128359974Y-89870552D01*
X128371956Y-89890543D01*
X128381921Y-89911613D01*
X128389773Y-89933557D01*
X128395437Y-89956166D01*
X128398856Y-89979221D01*
X128400000Y-90002500D01*
X128400000Y-90477500D01*
X128398856Y-90500779D01*
X128395437Y-90523834D01*
X128389773Y-90546443D01*
X128381921Y-90568387D01*
X128371956Y-90589457D01*
X128359974Y-90609448D01*
X128346090Y-90628168D01*
X128330438Y-90645438D01*
X128313168Y-90661090D01*
X128294448Y-90674974D01*
X128274457Y-90686956D01*
X128253387Y-90696921D01*
X128231443Y-90704773D01*
X128208834Y-90710437D01*
X128185779Y-90713856D01*
X128162500Y-90715000D01*
X127587500Y-90715000D01*
X127564221Y-90713856D01*
X127541166Y-90710437D01*
X127518557Y-90704773D01*
X127496613Y-90696921D01*
X127475543Y-90686956D01*
X127455552Y-90674974D01*
X127436832Y-90661090D01*
X127419562Y-90645438D01*
X127403910Y-90628168D01*
X127390026Y-90609448D01*
X127378044Y-90589457D01*
X127368079Y-90568387D01*
X127360227Y-90546443D01*
X127354563Y-90523834D01*
X127351144Y-90500779D01*
X127350000Y-90477500D01*
X127350000Y-90002500D01*
X127351144Y-89979221D01*
X127354563Y-89956166D01*
X127360227Y-89933557D01*
X127368079Y-89911613D01*
X127378044Y-89890543D01*
X127390026Y-89870552D01*
X127403910Y-89851832D01*
X127419562Y-89834562D01*
X127436832Y-89818910D01*
X127455552Y-89805026D01*
X127475543Y-89793044D01*
X127496613Y-89783079D01*
X127518557Y-89775227D01*
X127541166Y-89769563D01*
X127564221Y-89766144D01*
X127587500Y-89765000D01*
X128162500Y-89765000D01*
X128185779Y-89766144D01*
X128185779Y-89766144D01*
G37*
D15*
G04 #@! TD*
G04 #@! TO.P,C1,1*
G04 #@! TO.N,/REG_IN*
X127875000Y-90240000D03*
D14*
G04 #@! TO.N,+3V3*
G04 #@! TO.C,C3*
G36*
X133505779Y-89776144D02*
X133528834Y-89779563D01*
X133551443Y-89785227D01*
X133573387Y-89793079D01*
X133594457Y-89803044D01*
X133614448Y-89815026D01*
X133633168Y-89828910D01*
X133650438Y-89844562D01*
X133666090Y-89861832D01*
X133679974Y-89880552D01*
X133691956Y-89900543D01*
X133701921Y-89921613D01*
X133709773Y-89943557D01*
X133715437Y-89966166D01*
X133718856Y-89989221D01*
X133720000Y-90012500D01*
X133720000Y-90487500D01*
X133718856Y-90510779D01*
X133715437Y-90533834D01*
X133709773Y-90556443D01*
X133701921Y-90578387D01*
X133691956Y-90599457D01*
X133679974Y-90619448D01*
X133666090Y-90638168D01*
X133650438Y-90655438D01*
X133633168Y-90671090D01*
X133614448Y-90684974D01*
X133594457Y-90696956D01*
X133573387Y-90706921D01*
X133551443Y-90714773D01*
X133528834Y-90720437D01*
X133505779Y-90723856D01*
X133482500Y-90725000D01*
X132907500Y-90725000D01*
X132884221Y-90723856D01*
X132861166Y-90720437D01*
X132838557Y-90714773D01*
X132816613Y-90706921D01*
X132795543Y-90696956D01*
X132775552Y-90684974D01*
X132756832Y-90671090D01*
X132739562Y-90655438D01*
X132723910Y-90638168D01*
X132710026Y-90619448D01*
X132698044Y-90599457D01*
X132688079Y-90578387D01*
X132680227Y-90556443D01*
X132674563Y-90533834D01*
X132671144Y-90510779D01*
X132670000Y-90487500D01*
X132670000Y-90012500D01*
X132671144Y-89989221D01*
X132674563Y-89966166D01*
X132680227Y-89943557D01*
X132688079Y-89921613D01*
X132698044Y-89900543D01*
X132710026Y-89880552D01*
X132723910Y-89861832D01*
X132739562Y-89844562D01*
X132756832Y-89828910D01*
X132775552Y-89815026D01*
X132795543Y-89803044D01*
X132816613Y-89793079D01*
X132838557Y-89785227D01*
X132861166Y-89779563D01*
X132884221Y-89776144D01*
X132907500Y-89775000D01*
X133482500Y-89775000D01*
X133505779Y-89776144D01*
X133505779Y-89776144D01*
G37*
D15*
G04 #@! TD*
G04 #@! TO.P,C3,1*
G04 #@! TO.N,+3V3*
X133195000Y-90250000D03*
D14*
G04 #@! TO.N,GND*
G04 #@! TO.C,C3*
G36*
X131755779Y-89776144D02*
X131778834Y-89779563D01*
X131801443Y-89785227D01*
X131823387Y-89793079D01*
X131844457Y-89803044D01*
X131864448Y-89815026D01*
X131883168Y-89828910D01*
X131900438Y-89844562D01*
X131916090Y-89861832D01*
X131929974Y-89880552D01*
X131941956Y-89900543D01*
X131951921Y-89921613D01*
X131959773Y-89943557D01*
X131965437Y-89966166D01*
X131968856Y-89989221D01*
X131970000Y-90012500D01*
X131970000Y-90487500D01*
X131968856Y-90510779D01*
X131965437Y-90533834D01*
X131959773Y-90556443D01*
X131951921Y-90578387D01*
X131941956Y-90599457D01*
X131929974Y-90619448D01*
X131916090Y-90638168D01*
X131900438Y-90655438D01*
X131883168Y-90671090D01*
X131864448Y-90684974D01*
X131844457Y-90696956D01*
X131823387Y-90706921D01*
X131801443Y-90714773D01*
X131778834Y-90720437D01*
X131755779Y-90723856D01*
X131732500Y-90725000D01*
X131157500Y-90725000D01*
X131134221Y-90723856D01*
X131111166Y-90720437D01*
X131088557Y-90714773D01*
X131066613Y-90706921D01*
X131045543Y-90696956D01*
X131025552Y-90684974D01*
X131006832Y-90671090D01*
X130989562Y-90655438D01*
X130973910Y-90638168D01*
X130960026Y-90619448D01*
X130948044Y-90599457D01*
X130938079Y-90578387D01*
X130930227Y-90556443D01*
X130924563Y-90533834D01*
X130921144Y-90510779D01*
X130920000Y-90487500D01*
X130920000Y-90012500D01*
X130921144Y-89989221D01*
X130924563Y-89966166D01*
X130930227Y-89943557D01*
X130938079Y-89921613D01*
X130948044Y-89900543D01*
X130960026Y-89880552D01*
X130973910Y-89861832D01*
X130989562Y-89844562D01*
X131006832Y-89828910D01*
X131025552Y-89815026D01*
X131045543Y-89803044D01*
X131066613Y-89793079D01*
X131088557Y-89785227D01*
X131111166Y-89779563D01*
X131134221Y-89776144D01*
X131157500Y-89775000D01*
X131732500Y-89775000D01*
X131755779Y-89776144D01*
X131755779Y-89776144D01*
G37*
D15*
G04 #@! TD*
G04 #@! TO.P,C3,2*
G04 #@! TO.N,GND*
X131445000Y-90250000D03*
D16*
G04 #@! TO.P,H1,1*
G04 #@! TO.N,GND*
X152130000Y-63290000D03*
G04 #@! TD*
D17*
G04 #@! TO.P,J1,1*
G04 #@! TO.N,+3V3*
X158030000Y-87090000D03*
D14*
G04 #@! TD*
G04 #@! TO.N,+3V3*
G04 #@! TO.C,J1*
G36*
X159227507Y-86985232D02*
X158134768Y-88287507D01*
X156832493Y-87194768D01*
X157925232Y-85892493D01*
X159227507Y-86985232D01*
X159227507Y-86985232D01*
G37*
D17*
G04 #@! TO.P,J1,2*
G04 #@! TO.N,SWCLK*
X156397319Y-89035753D03*
D18*
G04 #@! TD*
G04 #@! TO.N,SWCLK*
G04 #@! TO.C,J1*
X156397319Y-89035753D02*
X156397319Y-89035753D01*
D17*
G04 #@! TO.P,J1,3*
G04 #@! TO.N,GND*
X154764639Y-90981506D03*
D18*
G04 #@! TD*
G04 #@! TO.N,GND*
G04 #@! TO.C,J1*
X154764639Y-90981506D02*
X154764639Y-90981506D01*
D17*
G04 #@! TO.P,J1,4*
G04 #@! TO.N,SWDI0*
X153131958Y-92927259D03*
D18*
G04 #@! TD*
G04 #@! TO.N,SWDI0*
G04 #@! TO.C,J1*
X153131958Y-92927259D02*
X153131958Y-92927259D01*
D17*
G04 #@! TO.P,J1,5*
G04 #@! TO.N,NRST*
X151499278Y-94873012D03*
D18*
G04 #@! TD*
G04 #@! TO.N,NRST*
G04 #@! TO.C,J1*
X151499278Y-94873012D02*
X151499278Y-94873012D01*
D17*
G04 #@! TO.P,J1,6*
G04 #@! TO.N,UART_TX*
X149866597Y-96818764D03*
D18*
G04 #@! TD*
G04 #@! TO.N,UART_TX*
G04 #@! TO.C,J1*
X149866597Y-96818764D02*
X149866597Y-96818764D01*
D19*
G04 #@! TO.P,Q1,3*
G04 #@! TO.N,/BATT*
X144570000Y-81000000D03*
G04 #@! TO.P,Q1,2*
G04 #@! TO.N,Net-(D3-Pad1)*
X145520000Y-83000000D03*
G04 #@! TO.P,Q1,1*
G04 #@! TO.N,Net-(D3-Pad2)*
X143620000Y-83000000D03*
G04 #@! TD*
G04 #@! TO.P,Q2,3*
G04 #@! TO.N,Net-(D3-Pad2)*
X139530000Y-90630000D03*
G04 #@! TO.P,Q2,2*
G04 #@! TO.N,/V_GATE*
X138580000Y-88630000D03*
G04 #@! TO.P,Q2,1*
G04 #@! TO.N,Net-(Q2-Pad1)*
X140480000Y-88630000D03*
G04 #@! TD*
G04 #@! TO.P,Q4,1*
G04 #@! TO.N,/PWM*
X142330000Y-90630000D03*
G04 #@! TO.P,Q4,2*
G04 #@! TO.N,Net-(Q4-Pad2)*
X144230000Y-90630000D03*
G04 #@! TO.P,Q4,3*
G04 #@! TO.N,Net-(Q2-Pad1)*
X143280000Y-88630000D03*
G04 #@! TD*
D14*
G04 #@! TO.N,/V_GATE*
G04 #@! TO.C,R3*
G36*
X138965779Y-86406144D02*
X138988834Y-86409563D01*
X139011443Y-86415227D01*
X139033387Y-86423079D01*
X139054457Y-86433044D01*
X139074448Y-86445026D01*
X139093168Y-86458910D01*
X139110438Y-86474562D01*
X139126090Y-86491832D01*
X139139974Y-86510552D01*
X139151956Y-86530543D01*
X139161921Y-86551613D01*
X139169773Y-86573557D01*
X139175437Y-86596166D01*
X139178856Y-86619221D01*
X139180000Y-86642500D01*
X139180000Y-87117500D01*
X139178856Y-87140779D01*
X139175437Y-87163834D01*
X139169773Y-87186443D01*
X139161921Y-87208387D01*
X139151956Y-87229457D01*
X139139974Y-87249448D01*
X139126090Y-87268168D01*
X139110438Y-87285438D01*
X139093168Y-87301090D01*
X139074448Y-87314974D01*
X139054457Y-87326956D01*
X139033387Y-87336921D01*
X139011443Y-87344773D01*
X138988834Y-87350437D01*
X138965779Y-87353856D01*
X138942500Y-87355000D01*
X138367500Y-87355000D01*
X138344221Y-87353856D01*
X138321166Y-87350437D01*
X138298557Y-87344773D01*
X138276613Y-87336921D01*
X138255543Y-87326956D01*
X138235552Y-87314974D01*
X138216832Y-87301090D01*
X138199562Y-87285438D01*
X138183910Y-87268168D01*
X138170026Y-87249448D01*
X138158044Y-87229457D01*
X138148079Y-87208387D01*
X138140227Y-87186443D01*
X138134563Y-87163834D01*
X138131144Y-87140779D01*
X138130000Y-87117500D01*
X138130000Y-86642500D01*
X138131144Y-86619221D01*
X138134563Y-86596166D01*
X138140227Y-86573557D01*
X138148079Y-86551613D01*
X138158044Y-86530543D01*
X138170026Y-86510552D01*
X138183910Y-86491832D01*
X138199562Y-86474562D01*
X138216832Y-86458910D01*
X138235552Y-86445026D01*
X138255543Y-86433044D01*
X138276613Y-86423079D01*
X138298557Y-86415227D01*
X138321166Y-86409563D01*
X138344221Y-86406144D01*
X138367500Y-86405000D01*
X138942500Y-86405000D01*
X138965779Y-86406144D01*
X138965779Y-86406144D01*
G37*
D15*
G04 #@! TD*
G04 #@! TO.P,R3,1*
G04 #@! TO.N,/V_GATE*
X138655000Y-86880000D03*
D14*
G04 #@! TO.N,Net-(Q2-Pad1)*
G04 #@! TO.C,R3*
G36*
X140715779Y-86406144D02*
X140738834Y-86409563D01*
X140761443Y-86415227D01*
X140783387Y-86423079D01*
X140804457Y-86433044D01*
X140824448Y-86445026D01*
X140843168Y-86458910D01*
X140860438Y-86474562D01*
X140876090Y-86491832D01*
X140889974Y-86510552D01*
X140901956Y-86530543D01*
X140911921Y-86551613D01*
X140919773Y-86573557D01*
X140925437Y-86596166D01*
X140928856Y-86619221D01*
X140930000Y-86642500D01*
X140930000Y-87117500D01*
X140928856Y-87140779D01*
X140925437Y-87163834D01*
X140919773Y-87186443D01*
X140911921Y-87208387D01*
X140901956Y-87229457D01*
X140889974Y-87249448D01*
X140876090Y-87268168D01*
X140860438Y-87285438D01*
X140843168Y-87301090D01*
X140824448Y-87314974D01*
X140804457Y-87326956D01*
X140783387Y-87336921D01*
X140761443Y-87344773D01*
X140738834Y-87350437D01*
X140715779Y-87353856D01*
X140692500Y-87355000D01*
X140117500Y-87355000D01*
X140094221Y-87353856D01*
X140071166Y-87350437D01*
X140048557Y-87344773D01*
X140026613Y-87336921D01*
X140005543Y-87326956D01*
X139985552Y-87314974D01*
X139966832Y-87301090D01*
X139949562Y-87285438D01*
X139933910Y-87268168D01*
X139920026Y-87249448D01*
X139908044Y-87229457D01*
X139898079Y-87208387D01*
X139890227Y-87186443D01*
X139884563Y-87163834D01*
X139881144Y-87140779D01*
X139880000Y-87117500D01*
X139880000Y-86642500D01*
X139881144Y-86619221D01*
X139884563Y-86596166D01*
X139890227Y-86573557D01*
X139898079Y-86551613D01*
X139908044Y-86530543D01*
X139920026Y-86510552D01*
X139933910Y-86491832D01*
X139949562Y-86474562D01*
X139966832Y-86458910D01*
X139985552Y-86445026D01*
X140005543Y-86433044D01*
X140026613Y-86423079D01*
X140048557Y-86415227D01*
X140071166Y-86409563D01*
X140094221Y-86406144D01*
X140117500Y-86405000D01*
X140692500Y-86405000D01*
X140715779Y-86406144D01*
X140715779Y-86406144D01*
G37*
D15*
G04 #@! TD*
G04 #@! TO.P,R3,2*
G04 #@! TO.N,Net-(Q2-Pad1)*
X140405000Y-86880000D03*
D14*
G04 #@! TO.N,Net-(D3-Pad2)*
G04 #@! TO.C,R4*
G36*
X144005779Y-84276144D02*
X144028834Y-84279563D01*
X144051443Y-84285227D01*
X144073387Y-84293079D01*
X144094457Y-84303044D01*
X144114448Y-84315026D01*
X144133168Y-84328910D01*
X144150438Y-84344562D01*
X144166090Y-84361832D01*
X144179974Y-84380552D01*
X144191956Y-84400543D01*
X144201921Y-84421613D01*
X144209773Y-84443557D01*
X144215437Y-84466166D01*
X144218856Y-84489221D01*
X144220000Y-84512500D01*
X144220000Y-84987500D01*
X144218856Y-85010779D01*
X144215437Y-85033834D01*
X144209773Y-85056443D01*
X144201921Y-85078387D01*
X144191956Y-85099457D01*
X144179974Y-85119448D01*
X144166090Y-85138168D01*
X144150438Y-85155438D01*
X144133168Y-85171090D01*
X144114448Y-85184974D01*
X144094457Y-85196956D01*
X144073387Y-85206921D01*
X144051443Y-85214773D01*
X144028834Y-85220437D01*
X144005779Y-85223856D01*
X143982500Y-85225000D01*
X143407500Y-85225000D01*
X143384221Y-85223856D01*
X143361166Y-85220437D01*
X143338557Y-85214773D01*
X143316613Y-85206921D01*
X143295543Y-85196956D01*
X143275552Y-85184974D01*
X143256832Y-85171090D01*
X143239562Y-85155438D01*
X143223910Y-85138168D01*
X143210026Y-85119448D01*
X143198044Y-85099457D01*
X143188079Y-85078387D01*
X143180227Y-85056443D01*
X143174563Y-85033834D01*
X143171144Y-85010779D01*
X143170000Y-84987500D01*
X143170000Y-84512500D01*
X143171144Y-84489221D01*
X143174563Y-84466166D01*
X143180227Y-84443557D01*
X143188079Y-84421613D01*
X143198044Y-84400543D01*
X143210026Y-84380552D01*
X143223910Y-84361832D01*
X143239562Y-84344562D01*
X143256832Y-84328910D01*
X143275552Y-84315026D01*
X143295543Y-84303044D01*
X143316613Y-84293079D01*
X143338557Y-84285227D01*
X143361166Y-84279563D01*
X143384221Y-84276144D01*
X143407500Y-84275000D01*
X143982500Y-84275000D01*
X144005779Y-84276144D01*
X144005779Y-84276144D01*
G37*
D15*
G04 #@! TD*
G04 #@! TO.P,R4,2*
G04 #@! TO.N,Net-(D3-Pad2)*
X143695000Y-84750000D03*
D14*
G04 #@! TO.N,/BATT*
G04 #@! TO.C,R4*
G36*
X145755779Y-84276144D02*
X145778834Y-84279563D01*
X145801443Y-84285227D01*
X145823387Y-84293079D01*
X145844457Y-84303044D01*
X145864448Y-84315026D01*
X145883168Y-84328910D01*
X145900438Y-84344562D01*
X145916090Y-84361832D01*
X145929974Y-84380552D01*
X145941956Y-84400543D01*
X145951921Y-84421613D01*
X145959773Y-84443557D01*
X145965437Y-84466166D01*
X145968856Y-84489221D01*
X145970000Y-84512500D01*
X145970000Y-84987500D01*
X145968856Y-85010779D01*
X145965437Y-85033834D01*
X145959773Y-85056443D01*
X145951921Y-85078387D01*
X145941956Y-85099457D01*
X145929974Y-85119448D01*
X145916090Y-85138168D01*
X145900438Y-85155438D01*
X145883168Y-85171090D01*
X145864448Y-85184974D01*
X145844457Y-85196956D01*
X145823387Y-85206921D01*
X145801443Y-85214773D01*
X145778834Y-85220437D01*
X145755779Y-85223856D01*
X145732500Y-85225000D01*
X145157500Y-85225000D01*
X145134221Y-85223856D01*
X145111166Y-85220437D01*
X145088557Y-85214773D01*
X145066613Y-85206921D01*
X145045543Y-85196956D01*
X145025552Y-85184974D01*
X145006832Y-85171090D01*
X144989562Y-85155438D01*
X144973910Y-85138168D01*
X144960026Y-85119448D01*
X144948044Y-85099457D01*
X144938079Y-85078387D01*
X144930227Y-85056443D01*
X144924563Y-85033834D01*
X144921144Y-85010779D01*
X144920000Y-84987500D01*
X144920000Y-84512500D01*
X144921144Y-84489221D01*
X144924563Y-84466166D01*
X144930227Y-84443557D01*
X144938079Y-84421613D01*
X144948044Y-84400543D01*
X144960026Y-84380552D01*
X144973910Y-84361832D01*
X144989562Y-84344562D01*
X145006832Y-84328910D01*
X145025552Y-84315026D01*
X145045543Y-84303044D01*
X145066613Y-84293079D01*
X145088557Y-84285227D01*
X145111166Y-84279563D01*
X145134221Y-84276144D01*
X145157500Y-84275000D01*
X145732500Y-84275000D01*
X145755779Y-84276144D01*
X145755779Y-84276144D01*
G37*
D15*
G04 #@! TD*
G04 #@! TO.P,R4,1*
G04 #@! TO.N,/BATT*
X145445000Y-84750000D03*
D14*
G04 #@! TO.N,Net-(D3-Pad1)*
G04 #@! TO.C,R7*
G36*
X141580779Y-80576144D02*
X141603834Y-80579563D01*
X141626443Y-80585227D01*
X141648387Y-80593079D01*
X141669457Y-80603044D01*
X141689448Y-80615026D01*
X141708168Y-80628910D01*
X141725438Y-80644562D01*
X141741090Y-80661832D01*
X141754974Y-80680552D01*
X141766956Y-80700543D01*
X141776921Y-80721613D01*
X141784773Y-80743557D01*
X141790437Y-80766166D01*
X141793856Y-80789221D01*
X141795000Y-80812500D01*
X141795000Y-81287500D01*
X141793856Y-81310779D01*
X141790437Y-81333834D01*
X141784773Y-81356443D01*
X141776921Y-81378387D01*
X141766956Y-81399457D01*
X141754974Y-81419448D01*
X141741090Y-81438168D01*
X141725438Y-81455438D01*
X141708168Y-81471090D01*
X141689448Y-81484974D01*
X141669457Y-81496956D01*
X141648387Y-81506921D01*
X141626443Y-81514773D01*
X141603834Y-81520437D01*
X141580779Y-81523856D01*
X141557500Y-81525000D01*
X140982500Y-81525000D01*
X140959221Y-81523856D01*
X140936166Y-81520437D01*
X140913557Y-81514773D01*
X140891613Y-81506921D01*
X140870543Y-81496956D01*
X140850552Y-81484974D01*
X140831832Y-81471090D01*
X140814562Y-81455438D01*
X140798910Y-81438168D01*
X140785026Y-81419448D01*
X140773044Y-81399457D01*
X140763079Y-81378387D01*
X140755227Y-81356443D01*
X140749563Y-81333834D01*
X140746144Y-81310779D01*
X140745000Y-81287500D01*
X140745000Y-80812500D01*
X140746144Y-80789221D01*
X140749563Y-80766166D01*
X140755227Y-80743557D01*
X140763079Y-80721613D01*
X140773044Y-80700543D01*
X140785026Y-80680552D01*
X140798910Y-80661832D01*
X140814562Y-80644562D01*
X140831832Y-80628910D01*
X140850552Y-80615026D01*
X140870543Y-80603044D01*
X140891613Y-80593079D01*
X140913557Y-80585227D01*
X140936166Y-80579563D01*
X140959221Y-80576144D01*
X140982500Y-80575000D01*
X141557500Y-80575000D01*
X141580779Y-80576144D01*
X141580779Y-80576144D01*
G37*
D15*
G04 #@! TD*
G04 #@! TO.P,R7,2*
G04 #@! TO.N,Net-(D3-Pad1)*
X141270000Y-81050000D03*
D14*
G04 #@! TO.N,Net-(Q3-Pad1)*
G04 #@! TO.C,R7*
G36*
X139830779Y-80576144D02*
X139853834Y-80579563D01*
X139876443Y-80585227D01*
X139898387Y-80593079D01*
X139919457Y-80603044D01*
X139939448Y-80615026D01*
X139958168Y-80628910D01*
X139975438Y-80644562D01*
X139991090Y-80661832D01*
X140004974Y-80680552D01*
X140016956Y-80700543D01*
X140026921Y-80721613D01*
X140034773Y-80743557D01*
X140040437Y-80766166D01*
X140043856Y-80789221D01*
X140045000Y-80812500D01*
X140045000Y-81287500D01*
X140043856Y-81310779D01*
X140040437Y-81333834D01*
X140034773Y-81356443D01*
X140026921Y-81378387D01*
X140016956Y-81399457D01*
X140004974Y-81419448D01*
X139991090Y-81438168D01*
X139975438Y-81455438D01*
X139958168Y-81471090D01*
X139939448Y-81484974D01*
X139919457Y-81496956D01*
X139898387Y-81506921D01*
X139876443Y-81514773D01*
X139853834Y-81520437D01*
X139830779Y-81523856D01*
X139807500Y-81525000D01*
X139232500Y-81525000D01*
X139209221Y-81523856D01*
X139186166Y-81520437D01*
X139163557Y-81514773D01*
X139141613Y-81506921D01*
X139120543Y-81496956D01*
X139100552Y-81484974D01*
X139081832Y-81471090D01*
X139064562Y-81455438D01*
X139048910Y-81438168D01*
X139035026Y-81419448D01*
X139023044Y-81399457D01*
X139013079Y-81378387D01*
X139005227Y-81356443D01*
X138999563Y-81333834D01*
X138996144Y-81310779D01*
X138995000Y-81287500D01*
X138995000Y-80812500D01*
X138996144Y-80789221D01*
X138999563Y-80766166D01*
X139005227Y-80743557D01*
X139013079Y-80721613D01*
X139023044Y-80700543D01*
X139035026Y-80680552D01*
X139048910Y-80661832D01*
X139064562Y-80644562D01*
X139081832Y-80628910D01*
X139100552Y-80615026D01*
X139120543Y-80603044D01*
X139141613Y-80593079D01*
X139163557Y-80585227D01*
X139186166Y-80579563D01*
X139209221Y-80576144D01*
X139232500Y-80575000D01*
X139807500Y-80575000D01*
X139830779Y-80576144D01*
X139830779Y-80576144D01*
G37*
D15*
G04 #@! TD*
G04 #@! TO.P,R7,1*
G04 #@! TO.N,Net-(Q3-Pad1)*
X139520000Y-81050000D03*
D14*
G04 #@! TO.N,/LED_1*
G04 #@! TO.C,R9*
G36*
X117818601Y-84041797D02*
X117841656Y-84045216D01*
X117864265Y-84050880D01*
X117886209Y-84058732D01*
X117907279Y-84068697D01*
X117927270Y-84080679D01*
X117945990Y-84094563D01*
X117963260Y-84110215D01*
X117978912Y-84127485D01*
X117992796Y-84146205D01*
X118004778Y-84166196D01*
X118014743Y-84187266D01*
X118022595Y-84209210D01*
X118028259Y-84231819D01*
X118031678Y-84254874D01*
X118032822Y-84278153D01*
X118032822Y-84753153D01*
X118031678Y-84776432D01*
X118028259Y-84799487D01*
X118022595Y-84822096D01*
X118014743Y-84844040D01*
X118004778Y-84865110D01*
X117992796Y-84885101D01*
X117978912Y-84903821D01*
X117963260Y-84921091D01*
X117945990Y-84936743D01*
X117927270Y-84950627D01*
X117907279Y-84962609D01*
X117886209Y-84972574D01*
X117864265Y-84980426D01*
X117841656Y-84986090D01*
X117818601Y-84989509D01*
X117795322Y-84990653D01*
X117220322Y-84990653D01*
X117197043Y-84989509D01*
X117173988Y-84986090D01*
X117151379Y-84980426D01*
X117129435Y-84972574D01*
X117108365Y-84962609D01*
X117088374Y-84950627D01*
X117069654Y-84936743D01*
X117052384Y-84921091D01*
X117036732Y-84903821D01*
X117022848Y-84885101D01*
X117010866Y-84865110D01*
X117000901Y-84844040D01*
X116993049Y-84822096D01*
X116987385Y-84799487D01*
X116983966Y-84776432D01*
X116982822Y-84753153D01*
X116982822Y-84278153D01*
X116983966Y-84254874D01*
X116987385Y-84231819D01*
X116993049Y-84209210D01*
X117000901Y-84187266D01*
X117010866Y-84166196D01*
X117022848Y-84146205D01*
X117036732Y-84127485D01*
X117052384Y-84110215D01*
X117069654Y-84094563D01*
X117088374Y-84080679D01*
X117108365Y-84068697D01*
X117129435Y-84058732D01*
X117151379Y-84050880D01*
X117173988Y-84045216D01*
X117197043Y-84041797D01*
X117220322Y-84040653D01*
X117795322Y-84040653D01*
X117818601Y-84041797D01*
X117818601Y-84041797D01*
G37*
D15*
G04 #@! TD*
G04 #@! TO.P,R9,1*
G04 #@! TO.N,/LED_1*
X117507822Y-84515653D03*
D14*
G04 #@! TO.N,Net-(R9-Pad2)*
G04 #@! TO.C,R9*
G36*
X116068601Y-84041797D02*
X116091656Y-84045216D01*
X116114265Y-84050880D01*
X116136209Y-84058732D01*
X116157279Y-84068697D01*
X116177270Y-84080679D01*
X116195990Y-84094563D01*
X116213260Y-84110215D01*
X116228912Y-84127485D01*
X116242796Y-84146205D01*
X116254778Y-84166196D01*
X116264743Y-84187266D01*
X116272595Y-84209210D01*
X116278259Y-84231819D01*
X116281678Y-84254874D01*
X116282822Y-84278153D01*
X116282822Y-84753153D01*
X116281678Y-84776432D01*
X116278259Y-84799487D01*
X116272595Y-84822096D01*
X116264743Y-84844040D01*
X116254778Y-84865110D01*
X116242796Y-84885101D01*
X116228912Y-84903821D01*
X116213260Y-84921091D01*
X116195990Y-84936743D01*
X116177270Y-84950627D01*
X116157279Y-84962609D01*
X116136209Y-84972574D01*
X116114265Y-84980426D01*
X116091656Y-84986090D01*
X116068601Y-84989509D01*
X116045322Y-84990653D01*
X115470322Y-84990653D01*
X115447043Y-84989509D01*
X115423988Y-84986090D01*
X115401379Y-84980426D01*
X115379435Y-84972574D01*
X115358365Y-84962609D01*
X115338374Y-84950627D01*
X115319654Y-84936743D01*
X115302384Y-84921091D01*
X115286732Y-84903821D01*
X115272848Y-84885101D01*
X115260866Y-84865110D01*
X115250901Y-84844040D01*
X115243049Y-84822096D01*
X115237385Y-84799487D01*
X115233966Y-84776432D01*
X115232822Y-84753153D01*
X115232822Y-84278153D01*
X115233966Y-84254874D01*
X115237385Y-84231819D01*
X115243049Y-84209210D01*
X115250901Y-84187266D01*
X115260866Y-84166196D01*
X115272848Y-84146205D01*
X115286732Y-84127485D01*
X115302384Y-84110215D01*
X115319654Y-84094563D01*
X115338374Y-84080679D01*
X115358365Y-84068697D01*
X115379435Y-84058732D01*
X115401379Y-84050880D01*
X115423988Y-84045216D01*
X115447043Y-84041797D01*
X115470322Y-84040653D01*
X116045322Y-84040653D01*
X116068601Y-84041797D01*
X116068601Y-84041797D01*
G37*
D15*
G04 #@! TD*
G04 #@! TO.P,R9,2*
G04 #@! TO.N,Net-(R9-Pad2)*
X115757822Y-84515653D03*
D14*
G04 #@! TO.N,/PWM*
G04 #@! TO.C,R10*
G36*
X136065779Y-109516144D02*
X136088834Y-109519563D01*
X136111443Y-109525227D01*
X136133387Y-109533079D01*
X136154457Y-109543044D01*
X136174448Y-109555026D01*
X136193168Y-109568910D01*
X136210438Y-109584562D01*
X136226090Y-109601832D01*
X136239974Y-109620552D01*
X136251956Y-109640543D01*
X136261921Y-109661613D01*
X136269773Y-109683557D01*
X136275437Y-109706166D01*
X136278856Y-109729221D01*
X136280000Y-109752500D01*
X136280000Y-110227500D01*
X136278856Y-110250779D01*
X136275437Y-110273834D01*
X136269773Y-110296443D01*
X136261921Y-110318387D01*
X136251956Y-110339457D01*
X136239974Y-110359448D01*
X136226090Y-110378168D01*
X136210438Y-110395438D01*
X136193168Y-110411090D01*
X136174448Y-110424974D01*
X136154457Y-110436956D01*
X136133387Y-110446921D01*
X136111443Y-110454773D01*
X136088834Y-110460437D01*
X136065779Y-110463856D01*
X136042500Y-110465000D01*
X135467500Y-110465000D01*
X135444221Y-110463856D01*
X135421166Y-110460437D01*
X135398557Y-110454773D01*
X135376613Y-110446921D01*
X135355543Y-110436956D01*
X135335552Y-110424974D01*
X135316832Y-110411090D01*
X135299562Y-110395438D01*
X135283910Y-110378168D01*
X135270026Y-110359448D01*
X135258044Y-110339457D01*
X135248079Y-110318387D01*
X135240227Y-110296443D01*
X135234563Y-110273834D01*
X135231144Y-110250779D01*
X135230000Y-110227500D01*
X135230000Y-109752500D01*
X135231144Y-109729221D01*
X135234563Y-109706166D01*
X135240227Y-109683557D01*
X135248079Y-109661613D01*
X135258044Y-109640543D01*
X135270026Y-109620552D01*
X135283910Y-109601832D01*
X135299562Y-109584562D01*
X135316832Y-109568910D01*
X135335552Y-109555026D01*
X135355543Y-109543044D01*
X135376613Y-109533079D01*
X135398557Y-109525227D01*
X135421166Y-109519563D01*
X135444221Y-109516144D01*
X135467500Y-109515000D01*
X136042500Y-109515000D01*
X136065779Y-109516144D01*
X136065779Y-109516144D01*
G37*
D15*
G04 #@! TD*
G04 #@! TO.P,R10,1*
G04 #@! TO.N,/PWM*
X135755000Y-109990000D03*
D14*
G04 #@! TO.N,/LED_3*
G04 #@! TO.C,R10*
G36*
X137815779Y-109516144D02*
X137838834Y-109519563D01*
X137861443Y-109525227D01*
X137883387Y-109533079D01*
X137904457Y-109543044D01*
X137924448Y-109555026D01*
X137943168Y-109568910D01*
X137960438Y-109584562D01*
X137976090Y-109601832D01*
X137989974Y-109620552D01*
X138001956Y-109640543D01*
X138011921Y-109661613D01*
X138019773Y-109683557D01*
X138025437Y-109706166D01*
X138028856Y-109729221D01*
X138030000Y-109752500D01*
X138030000Y-110227500D01*
X138028856Y-110250779D01*
X138025437Y-110273834D01*
X138019773Y-110296443D01*
X138011921Y-110318387D01*
X138001956Y-110339457D01*
X137989974Y-110359448D01*
X137976090Y-110378168D01*
X137960438Y-110395438D01*
X137943168Y-110411090D01*
X137924448Y-110424974D01*
X137904457Y-110436956D01*
X137883387Y-110446921D01*
X137861443Y-110454773D01*
X137838834Y-110460437D01*
X137815779Y-110463856D01*
X137792500Y-110465000D01*
X137217500Y-110465000D01*
X137194221Y-110463856D01*
X137171166Y-110460437D01*
X137148557Y-110454773D01*
X137126613Y-110446921D01*
X137105543Y-110436956D01*
X137085552Y-110424974D01*
X137066832Y-110411090D01*
X137049562Y-110395438D01*
X137033910Y-110378168D01*
X137020026Y-110359448D01*
X137008044Y-110339457D01*
X136998079Y-110318387D01*
X136990227Y-110296443D01*
X136984563Y-110273834D01*
X136981144Y-110250779D01*
X136980000Y-110227500D01*
X136980000Y-109752500D01*
X136981144Y-109729221D01*
X136984563Y-109706166D01*
X136990227Y-109683557D01*
X136998079Y-109661613D01*
X137008044Y-109640543D01*
X137020026Y-109620552D01*
X137033910Y-109601832D01*
X137049562Y-109584562D01*
X137066832Y-109568910D01*
X137085552Y-109555026D01*
X137105543Y-109543044D01*
X137126613Y-109533079D01*
X137148557Y-109525227D01*
X137171166Y-109519563D01*
X137194221Y-109516144D01*
X137217500Y-109515000D01*
X137792500Y-109515000D01*
X137815779Y-109516144D01*
X137815779Y-109516144D01*
G37*
D15*
G04 #@! TD*
G04 #@! TO.P,R10,2*
G04 #@! TO.N,/LED_3*
X137505000Y-109990000D03*
D14*
G04 #@! TO.N,Net-(R11-Pad2)*
G04 #@! TO.C,R11*
G36*
X120868601Y-90441797D02*
X120891656Y-90445216D01*
X120914265Y-90450880D01*
X120936209Y-90458732D01*
X120957279Y-90468697D01*
X120977270Y-90480679D01*
X120995990Y-90494563D01*
X121013260Y-90510215D01*
X121028912Y-90527485D01*
X121042796Y-90546205D01*
X121054778Y-90566196D01*
X121064743Y-90587266D01*
X121072595Y-90609210D01*
X121078259Y-90631819D01*
X121081678Y-90654874D01*
X121082822Y-90678153D01*
X121082822Y-91153153D01*
X121081678Y-91176432D01*
X121078259Y-91199487D01*
X121072595Y-91222096D01*
X121064743Y-91244040D01*
X121054778Y-91265110D01*
X121042796Y-91285101D01*
X121028912Y-91303821D01*
X121013260Y-91321091D01*
X120995990Y-91336743D01*
X120977270Y-91350627D01*
X120957279Y-91362609D01*
X120936209Y-91372574D01*
X120914265Y-91380426D01*
X120891656Y-91386090D01*
X120868601Y-91389509D01*
X120845322Y-91390653D01*
X120270322Y-91390653D01*
X120247043Y-91389509D01*
X120223988Y-91386090D01*
X120201379Y-91380426D01*
X120179435Y-91372574D01*
X120158365Y-91362609D01*
X120138374Y-91350627D01*
X120119654Y-91336743D01*
X120102384Y-91321091D01*
X120086732Y-91303821D01*
X120072848Y-91285101D01*
X120060866Y-91265110D01*
X120050901Y-91244040D01*
X120043049Y-91222096D01*
X120037385Y-91199487D01*
X120033966Y-91176432D01*
X120032822Y-91153153D01*
X120032822Y-90678153D01*
X120033966Y-90654874D01*
X120037385Y-90631819D01*
X120043049Y-90609210D01*
X120050901Y-90587266D01*
X120060866Y-90566196D01*
X120072848Y-90546205D01*
X120086732Y-90527485D01*
X120102384Y-90510215D01*
X120119654Y-90494563D01*
X120138374Y-90480679D01*
X120158365Y-90468697D01*
X120179435Y-90458732D01*
X120201379Y-90450880D01*
X120223988Y-90445216D01*
X120247043Y-90441797D01*
X120270322Y-90440653D01*
X120845322Y-90440653D01*
X120868601Y-90441797D01*
X120868601Y-90441797D01*
G37*
D15*
G04 #@! TD*
G04 #@! TO.P,R11,2*
G04 #@! TO.N,Net-(R11-Pad2)*
X120557822Y-90915653D03*
D14*
G04 #@! TO.N,/LED_2*
G04 #@! TO.C,R11*
G36*
X122618601Y-90441797D02*
X122641656Y-90445216D01*
X122664265Y-90450880D01*
X122686209Y-90458732D01*
X122707279Y-90468697D01*
X122727270Y-90480679D01*
X122745990Y-90494563D01*
X122763260Y-90510215D01*
X122778912Y-90527485D01*
X122792796Y-90546205D01*
X122804778Y-90566196D01*
X122814743Y-90587266D01*
X122822595Y-90609210D01*
X122828259Y-90631819D01*
X122831678Y-90654874D01*
X122832822Y-90678153D01*
X122832822Y-91153153D01*
X122831678Y-91176432D01*
X122828259Y-91199487D01*
X122822595Y-91222096D01*
X122814743Y-91244040D01*
X122804778Y-91265110D01*
X122792796Y-91285101D01*
X122778912Y-91303821D01*
X122763260Y-91321091D01*
X122745990Y-91336743D01*
X122727270Y-91350627D01*
X122707279Y-91362609D01*
X122686209Y-91372574D01*
X122664265Y-91380426D01*
X122641656Y-91386090D01*
X122618601Y-91389509D01*
X122595322Y-91390653D01*
X122020322Y-91390653D01*
X121997043Y-91389509D01*
X121973988Y-91386090D01*
X121951379Y-91380426D01*
X121929435Y-91372574D01*
X121908365Y-91362609D01*
X121888374Y-91350627D01*
X121869654Y-91336743D01*
X121852384Y-91321091D01*
X121836732Y-91303821D01*
X121822848Y-91285101D01*
X121810866Y-91265110D01*
X121800901Y-91244040D01*
X121793049Y-91222096D01*
X121787385Y-91199487D01*
X121783966Y-91176432D01*
X121782822Y-91153153D01*
X121782822Y-90678153D01*
X121783966Y-90654874D01*
X121787385Y-90631819D01*
X121793049Y-90609210D01*
X121800901Y-90587266D01*
X121810866Y-90566196D01*
X121822848Y-90546205D01*
X121836732Y-90527485D01*
X121852384Y-90510215D01*
X121869654Y-90494563D01*
X121888374Y-90480679D01*
X121908365Y-90468697D01*
X121929435Y-90458732D01*
X121951379Y-90450880D01*
X121973988Y-90445216D01*
X121997043Y-90441797D01*
X122020322Y-90440653D01*
X122595322Y-90440653D01*
X122618601Y-90441797D01*
X122618601Y-90441797D01*
G37*
D15*
G04 #@! TD*
G04 #@! TO.P,R11,1*
G04 #@! TO.N,/LED_2*
X122307822Y-90915653D03*
D14*
G04 #@! TO.N,Net-(Q4-Pad2)*
G04 #@! TO.C,R12*
G36*
X144465779Y-86406144D02*
X144488834Y-86409563D01*
X144511443Y-86415227D01*
X144533387Y-86423079D01*
X144554457Y-86433044D01*
X144574448Y-86445026D01*
X144593168Y-86458910D01*
X144610438Y-86474562D01*
X144626090Y-86491832D01*
X144639974Y-86510552D01*
X144651956Y-86530543D01*
X144661921Y-86551613D01*
X144669773Y-86573557D01*
X144675437Y-86596166D01*
X144678856Y-86619221D01*
X144680000Y-86642500D01*
X144680000Y-87117500D01*
X144678856Y-87140779D01*
X144675437Y-87163834D01*
X144669773Y-87186443D01*
X144661921Y-87208387D01*
X144651956Y-87229457D01*
X144639974Y-87249448D01*
X144626090Y-87268168D01*
X144610438Y-87285438D01*
X144593168Y-87301090D01*
X144574448Y-87314974D01*
X144554457Y-87326956D01*
X144533387Y-87336921D01*
X144511443Y-87344773D01*
X144488834Y-87350437D01*
X144465779Y-87353856D01*
X144442500Y-87355000D01*
X143867500Y-87355000D01*
X143844221Y-87353856D01*
X143821166Y-87350437D01*
X143798557Y-87344773D01*
X143776613Y-87336921D01*
X143755543Y-87326956D01*
X143735552Y-87314974D01*
X143716832Y-87301090D01*
X143699562Y-87285438D01*
X143683910Y-87268168D01*
X143670026Y-87249448D01*
X143658044Y-87229457D01*
X143648079Y-87208387D01*
X143640227Y-87186443D01*
X143634563Y-87163834D01*
X143631144Y-87140779D01*
X143630000Y-87117500D01*
X143630000Y-86642500D01*
X143631144Y-86619221D01*
X143634563Y-86596166D01*
X143640227Y-86573557D01*
X143648079Y-86551613D01*
X143658044Y-86530543D01*
X143670026Y-86510552D01*
X143683910Y-86491832D01*
X143699562Y-86474562D01*
X143716832Y-86458910D01*
X143735552Y-86445026D01*
X143755543Y-86433044D01*
X143776613Y-86423079D01*
X143798557Y-86415227D01*
X143821166Y-86409563D01*
X143844221Y-86406144D01*
X143867500Y-86405000D01*
X144442500Y-86405000D01*
X144465779Y-86406144D01*
X144465779Y-86406144D01*
G37*
D15*
G04 #@! TD*
G04 #@! TO.P,R12,1*
G04 #@! TO.N,Net-(Q4-Pad2)*
X144155000Y-86880000D03*
D14*
G04 #@! TO.N,GND*
G04 #@! TO.C,R12*
G36*
X142715779Y-86406144D02*
X142738834Y-86409563D01*
X142761443Y-86415227D01*
X142783387Y-86423079D01*
X142804457Y-86433044D01*
X142824448Y-86445026D01*
X142843168Y-86458910D01*
X142860438Y-86474562D01*
X142876090Y-86491832D01*
X142889974Y-86510552D01*
X142901956Y-86530543D01*
X142911921Y-86551613D01*
X142919773Y-86573557D01*
X142925437Y-86596166D01*
X142928856Y-86619221D01*
X142930000Y-86642500D01*
X142930000Y-87117500D01*
X142928856Y-87140779D01*
X142925437Y-87163834D01*
X142919773Y-87186443D01*
X142911921Y-87208387D01*
X142901956Y-87229457D01*
X142889974Y-87249448D01*
X142876090Y-87268168D01*
X142860438Y-87285438D01*
X142843168Y-87301090D01*
X142824448Y-87314974D01*
X142804457Y-87326956D01*
X142783387Y-87336921D01*
X142761443Y-87344773D01*
X142738834Y-87350437D01*
X142715779Y-87353856D01*
X142692500Y-87355000D01*
X142117500Y-87355000D01*
X142094221Y-87353856D01*
X142071166Y-87350437D01*
X142048557Y-87344773D01*
X142026613Y-87336921D01*
X142005543Y-87326956D01*
X141985552Y-87314974D01*
X141966832Y-87301090D01*
X141949562Y-87285438D01*
X141933910Y-87268168D01*
X141920026Y-87249448D01*
X141908044Y-87229457D01*
X141898079Y-87208387D01*
X141890227Y-87186443D01*
X141884563Y-87163834D01*
X141881144Y-87140779D01*
X141880000Y-87117500D01*
X141880000Y-86642500D01*
X141881144Y-86619221D01*
X141884563Y-86596166D01*
X141890227Y-86573557D01*
X141898079Y-86551613D01*
X141908044Y-86530543D01*
X141920026Y-86510552D01*
X141933910Y-86491832D01*
X141949562Y-86474562D01*
X141966832Y-86458910D01*
X141985552Y-86445026D01*
X142005543Y-86433044D01*
X142026613Y-86423079D01*
X142048557Y-86415227D01*
X142071166Y-86409563D01*
X142094221Y-86406144D01*
X142117500Y-86405000D01*
X142692500Y-86405000D01*
X142715779Y-86406144D01*
X142715779Y-86406144D01*
G37*
D15*
G04 #@! TD*
G04 #@! TO.P,R12,2*
G04 #@! TO.N,GND*
X142405000Y-86880000D03*
D20*
G04 #@! TO.P,U1,2*
G04 #@! TO.N,GND*
X130570000Y-81100000D03*
D21*
X130570000Y-87400000D03*
G04 #@! TO.P,U1,3*
G04 #@! TO.N,+3V3*
X132870000Y-87400000D03*
G04 #@! TO.P,U1,1*
G04 #@! TO.N,/REG_IN*
X128270000Y-87400000D03*
G04 #@! TD*
D22*
G04 #@! TO.P,U2,1*
G04 #@! TO.N,Net-(R8-Pad1)*
X133820000Y-99125000D03*
G04 #@! TO.P,U2,2*
G04 #@! TO.N,Net-(R9-Pad2)*
X133820000Y-99775000D03*
G04 #@! TO.P,U2,3*
G04 #@! TO.N,Net-(R11-Pad2)*
X133820000Y-100425000D03*
G04 #@! TO.P,U2,4*
G04 #@! TO.N,NRST*
X133820000Y-101075000D03*
G04 #@! TO.P,U2,5*
G04 #@! TO.N,+3V3*
X133820000Y-101725000D03*
G04 #@! TO.P,U2,6*
G04 #@! TO.N,/PANEL_SENSE*
X133820000Y-102375000D03*
G04 #@! TO.P,U2,7*
G04 #@! TO.N,/BATT_SENSE*
X133820000Y-103025000D03*
G04 #@! TO.P,U2,8*
G04 #@! TO.N,UART_TX*
X133820000Y-103675000D03*
G04 #@! TO.P,U2,9*
G04 #@! TO.N,Net-(U2-Pad9)*
X133820000Y-104325000D03*
G04 #@! TO.P,U2,10*
G04 #@! TO.N,Net-(U2-Pad10)*
X133820000Y-104975000D03*
G04 #@! TO.P,U2,11*
G04 #@! TO.N,/PWM*
X139720000Y-104975000D03*
G04 #@! TO.P,U2,12*
G04 #@! TO.N,pump1*
X139720000Y-104325000D03*
G04 #@! TO.P,U2,13*
G04 #@! TO.N,pump2*
X139720000Y-103675000D03*
G04 #@! TO.P,U2,14*
G04 #@! TO.N,Net-(U2-Pad14)*
X139720000Y-103025000D03*
G04 #@! TO.P,U2,15*
G04 #@! TO.N,GND*
X139720000Y-102375000D03*
G04 #@! TO.P,U2,16*
G04 #@! TO.N,+3V3*
X139720000Y-101725000D03*
G04 #@! TO.P,U2,17*
G04 #@! TO.N,Net-(U2-Pad17)*
X139720000Y-101075000D03*
G04 #@! TO.P,U2,18*
G04 #@! TO.N,Net-(U2-Pad18)*
X139720000Y-100425000D03*
G04 #@! TO.P,U2,19*
G04 #@! TO.N,SWDI0*
X139720000Y-99775000D03*
G04 #@! TO.P,U2,20*
G04 #@! TO.N,SWCLK*
X139720000Y-99125000D03*
G04 #@! TD*
D23*
G04 #@! TO.P,D3,1*
G04 #@! TO.N,Net-(D3-Pad1)*
X138495000Y-84325000D03*
G04 #@! TO.P,D3,2*
G04 #@! TO.N,Net-(D3-Pad2)*
X141795000Y-84325000D03*
G04 #@! TD*
D10*
G04 #@! TO.P,BT1,1*
G04 #@! TO.N,/BATT*
X130230000Y-73290000D03*
D11*
G04 #@! TO.P,BT1,2*
G04 #@! TO.N,GND*
X130230000Y-68210000D03*
G04 #@! TD*
D16*
G04 #@! TO.P,H2,1*
G04 #@! TO.N,GND*
X120230000Y-63290000D03*
G04 #@! TD*
D24*
G04 #@! TO.N,GND*
X146350000Y-86615000D03*
X141650000Y-101440000D03*
X130610000Y-106300000D03*
X132500000Y-84940000D03*
X141955000Y-82440000D03*
X130030000Y-78890000D03*
X130230000Y-102290000D03*
X134930000Y-96290000D03*
X138030000Y-96290000D03*
G04 #@! TO.N,+3V3*
X135850016Y-101749998D03*
X137910367Y-101725000D03*
X136690000Y-106630000D03*
X136690000Y-94470000D03*
G04 #@! TO.N,SWCLK*
X139830000Y-97890000D03*
G04 #@! TO.N,SWDI0*
X143030000Y-100190000D03*
G04 #@! TO.N,NRST*
X132370001Y-101119999D03*
G04 #@! TO.N,UART_TX*
X131710000Y-105430000D03*
G04 #@! TO.N,/PANEL_SENSE*
X131400000Y-100010000D03*
G04 #@! TO.N,/BATT_SENSE*
X131650000Y-103430000D03*
G04 #@! TO.N,/LED_1*
X115530000Y-82490000D03*
G04 #@! TO.N,/LED_2*
X119730000Y-88890000D03*
G04 #@! TO.N,/LED_3*
X139430000Y-109990000D03*
G04 #@! TO.N,/BATT*
X137560000Y-80000000D03*
X140905000Y-79590002D03*
G04 #@! TO.N,pump1*
X137320002Y-82020000D03*
X141090000Y-93000000D03*
X133700000Y-81865000D03*
G04 #@! TO.N,pump2*
X132800000Y-83090000D03*
X136520000Y-83170000D03*
X139115307Y-93321154D03*
G04 #@! TO.N,/V_GATE*
X133360000Y-92160000D03*
G04 #@! TO.N,Net-(R8-Pad1)*
X132330000Y-96390000D03*
G04 #@! TO.N,/REG_IN*
X127950000Y-79190000D03*
G04 #@! TD*
D25*
G04 #@! TO.N,GND*
X131445000Y-90250000D02*
X129570000Y-90250000D01*
X130570000Y-87400000D02*
X130570000Y-81100000D01*
X142405000Y-86305000D02*
X142870000Y-85840000D01*
X142405000Y-86880000D02*
X142405000Y-86305000D01*
X145575000Y-85840000D02*
X146350000Y-86615000D01*
X142870000Y-85840000D02*
X145575000Y-85840000D01*
X140715000Y-102375000D02*
X141650000Y-101440000D01*
X139720000Y-102375000D02*
X140715000Y-102375000D01*
X138745000Y-102375000D02*
X137930000Y-103190000D01*
X139720000Y-102375000D02*
X138745000Y-102375000D01*
X130570000Y-90240000D02*
X129625000Y-90240000D01*
X130570000Y-87400000D02*
X130570000Y-90240000D01*
X130610000Y-106300000D02*
X130610000Y-102670000D01*
X130610000Y-102670000D02*
X130230000Y-102290000D01*
G04 #@! TO.N,+3V3*
X132870000Y-89925000D02*
X133195000Y-90250000D01*
X132870000Y-87400000D02*
X132870000Y-89925000D01*
X139720000Y-101725000D02*
X137910367Y-101725000D01*
X137910367Y-101725000D02*
X137855892Y-101670525D01*
X133820000Y-101725000D02*
X135825018Y-101725000D01*
X135825018Y-101725000D02*
X135850016Y-101749998D01*
X136690000Y-106064315D02*
X136690000Y-106630000D01*
X136690000Y-94470000D02*
X136690000Y-106064315D01*
X132130000Y-91315000D02*
X133195000Y-90250000D01*
X132130000Y-92490000D02*
X132130000Y-91315000D01*
X134110000Y-94470000D02*
X132130000Y-92490000D01*
X136690000Y-94470000D02*
X134110000Y-94470000D01*
G04 #@! TO.N,Net-(D3-Pad2)*
X143620000Y-84675000D02*
X143695000Y-84750000D01*
X143620000Y-83000000D02*
X143620000Y-84675000D01*
X142295000Y-84325000D02*
X143620000Y-83000000D01*
X141795000Y-84325000D02*
X142295000Y-84325000D01*
X141095000Y-84325000D02*
X141795000Y-84325000D01*
X139530000Y-85890000D02*
X141095000Y-84325000D01*
X139530000Y-90630000D02*
X139530000Y-85890000D01*
G04 #@! TO.N,SWCLK*
X139720000Y-99125000D02*
X139720000Y-98000000D01*
X139720000Y-98000000D02*
X139830000Y-97890000D01*
G04 #@! TO.N,SWDI0*
X139720000Y-99775000D02*
X142615000Y-99775000D01*
X142615000Y-99775000D02*
X142630001Y-99790001D01*
X142630001Y-99790001D02*
X143030000Y-100190000D01*
G04 #@! TO.N,NRST*
X133820000Y-101075000D02*
X132415000Y-101075000D01*
X132415000Y-101075000D02*
X132370001Y-101119999D01*
G04 #@! TO.N,UART_TX*
X131710000Y-104810000D02*
X131710000Y-104864315D01*
X131710000Y-104864315D02*
X131710000Y-105430000D01*
X132845000Y-103675000D02*
X131710000Y-104810000D01*
X133820000Y-103675000D02*
X132845000Y-103675000D01*
G04 #@! TO.N,/PANEL_SENSE*
X131400000Y-100575685D02*
X131400000Y-100010000D01*
X131400000Y-101291996D02*
X131400000Y-100575685D01*
X132483004Y-102375000D02*
X131400000Y-101291996D01*
X133820000Y-102375000D02*
X132483004Y-102375000D01*
G04 #@! TO.N,/BATT_SENSE*
X132049999Y-103030001D02*
X131650000Y-103430000D01*
X132055000Y-103025000D02*
X132049999Y-103030001D01*
X133820000Y-103025000D02*
X132055000Y-103025000D01*
G04 #@! TO.N,/PWM*
X139720000Y-105280000D02*
X139720000Y-104975000D01*
X135755000Y-109415000D02*
X139720000Y-105450000D01*
X139720000Y-105450000D02*
X139720000Y-105280000D01*
X135755000Y-109990000D02*
X135755000Y-109415000D01*
X143845000Y-104975000D02*
X139720000Y-104975000D01*
X142330000Y-90630000D02*
X142330000Y-94330000D01*
X142330000Y-94330000D02*
X145830000Y-97830000D01*
X145830000Y-97830000D02*
X145830000Y-102990000D01*
X145830000Y-102990000D02*
X143845000Y-104975000D01*
G04 #@! TO.N,/LED_1*
X117507822Y-84467822D02*
X117507822Y-84515653D01*
X115530000Y-82490000D02*
X117507822Y-84467822D01*
G04 #@! TO.N,/LED_2*
X120282169Y-88890000D02*
X119730000Y-88890000D01*
X122307822Y-90915653D02*
X120282169Y-88890000D01*
G04 #@! TO.N,/LED_3*
X137505000Y-109990000D02*
X139430000Y-109990000D01*
G04 #@! TO.N,/BATT*
X136942500Y-80000000D02*
X136994315Y-80000000D01*
X134490000Y-77547500D02*
X136942500Y-80000000D01*
X134490000Y-77500000D02*
X134490000Y-77547500D01*
X136994315Y-80000000D02*
X137560000Y-80000000D01*
X134490000Y-77500000D02*
X134490000Y-77452500D01*
X145944072Y-84250928D02*
X145445000Y-84750000D01*
X146330000Y-83865000D02*
X145944072Y-84250928D01*
X145220000Y-81000000D02*
X146330000Y-82110000D01*
X144570000Y-81000000D02*
X145220000Y-81000000D01*
X146330000Y-82110000D02*
X146330000Y-83865000D01*
X144570000Y-81000000D02*
X143920000Y-81000000D01*
X143920000Y-81000000D02*
X142510002Y-79590002D01*
X142510002Y-79590002D02*
X141470685Y-79590002D01*
X141470685Y-79590002D02*
X140905000Y-79590002D01*
G04 #@! TO.N,pump1*
X133855000Y-82020000D02*
X133700000Y-81865000D01*
X137320002Y-82020000D02*
X133855000Y-82020000D01*
X143495000Y-104325000D02*
X139720000Y-104325000D01*
X141090000Y-93000000D02*
X141090000Y-93943589D01*
X141090000Y-93943589D02*
X145030000Y-97883589D01*
X145030000Y-97883589D02*
X145030000Y-102790000D01*
X145030000Y-102790000D02*
X143495000Y-104325000D01*
G04 #@! TO.N,pump2*
X132800000Y-83090000D02*
X136440000Y-83090000D01*
X136440000Y-83090000D02*
X136520000Y-83170000D01*
X139515306Y-93721153D02*
X139115307Y-93321154D01*
X139720000Y-103675000D02*
X142945000Y-103675000D01*
X144330000Y-98535847D02*
X139515306Y-93721153D01*
X142945000Y-103675000D02*
X144330000Y-102290000D01*
X144330000Y-102290000D02*
X144330000Y-98535847D01*
G04 #@! TO.N,/V_GATE*
X138580000Y-86955000D02*
X138655000Y-86880000D01*
X138580000Y-88630000D02*
X138580000Y-86955000D01*
X138655000Y-86880000D02*
X133375000Y-92160000D01*
X133375000Y-92160000D02*
X133360000Y-92160000D01*
G04 #@! TO.N,Net-(D3-Pad1)*
X141270000Y-81400000D02*
X141270000Y-81050000D01*
X138495000Y-84325000D02*
X138495000Y-84175000D01*
X138495000Y-84175000D02*
X141270000Y-81400000D01*
X145520000Y-82950000D02*
X145520000Y-83000000D01*
X141270000Y-81050000D02*
X143105002Y-81050000D01*
X143105002Y-81050000D02*
X144055000Y-81999998D01*
X144055000Y-81999998D02*
X144569998Y-81999998D01*
X144569998Y-81999998D02*
X145520000Y-82950000D01*
G04 #@! TO.N,Net-(Q2-Pad1)*
X140480000Y-88630000D02*
X143280000Y-88630000D01*
X140405000Y-88555000D02*
X140480000Y-88630000D01*
X140405000Y-86880000D02*
X140405000Y-88555000D01*
G04 #@! TO.N,Net-(Q3-Pad1)*
X139570000Y-81000000D02*
X139520000Y-81050000D01*
X139570000Y-77500000D02*
X139570000Y-81000000D01*
G04 #@! TO.N,/SOLAR*
X137030000Y-77452500D02*
X137030000Y-77500000D01*
G04 #@! TO.N,Net-(Q4-Pad2)*
X144155000Y-90555000D02*
X144230000Y-90630000D01*
X144155000Y-86880000D02*
X144155000Y-90555000D01*
G04 #@! TO.N,Net-(R8-Pad1)*
X133820000Y-97880000D02*
X132330000Y-96390000D01*
X133820000Y-99125000D02*
X133820000Y-97880000D01*
G04 #@! TO.N,Net-(R9-Pad2)*
X116256894Y-85014725D02*
X115757822Y-84515653D01*
X133820000Y-99775000D02*
X132845000Y-99775000D01*
X117432169Y-86190000D02*
X116256894Y-85014725D01*
X132845000Y-99775000D02*
X119260000Y-86190000D01*
X119260000Y-86190000D02*
X117432169Y-86190000D01*
G04 #@! TO.N,Net-(R11-Pad2)*
X121056894Y-91414725D02*
X120557822Y-90915653D01*
X133820000Y-100425000D02*
X132845000Y-100425000D01*
X132845000Y-100425000D02*
X124710000Y-92290000D01*
X124710000Y-92290000D02*
X121932169Y-92290000D01*
X121932169Y-92290000D02*
X121056894Y-91414725D01*
G04 #@! TO.N,/REG_IN*
X128270000Y-89845000D02*
X127875000Y-90240000D01*
X128270000Y-87400000D02*
X128270000Y-89845000D01*
X127100000Y-90090000D02*
X127250000Y-90240000D01*
X127100000Y-80040000D02*
X127100000Y-90090000D01*
X127250000Y-90240000D02*
X127875000Y-90240000D01*
X127950000Y-79190000D02*
X127100000Y-80040000D01*
G04 #@! TD*
D26*
G04 #@! TO.N,GND*
G36*
X151544356Y-58376239D02*
X153008795Y-58603916D01*
X154438453Y-58978249D01*
X155823575Y-59495094D01*
X157154320Y-60150319D01*
X158420813Y-60939805D01*
X159613151Y-61859446D01*
X160721541Y-62905273D01*
X161725882Y-64060659D01*
X162609979Y-65304872D01*
X163369698Y-66627772D01*
X164000777Y-68019019D01*
X164498944Y-69468194D01*
X164859962Y-70964852D01*
X165079633Y-72498571D01*
X165153606Y-74055256D01*
X164965914Y-77257331D01*
X164333686Y-80517588D01*
X163148123Y-83915823D01*
X161295496Y-87527557D01*
X159692195Y-89873080D01*
X157210570Y-93054770D01*
X150502874Y-100872730D01*
X142963308Y-108888893D01*
X139440825Y-112323803D01*
X136784607Y-114676746D01*
X133816806Y-112349938D01*
X130113821Y-108911754D01*
X126287911Y-104967845D01*
X122535748Y-100802890D01*
X115997722Y-92910720D01*
X112026931Y-87486808D01*
X111054528Y-85792740D01*
X110274788Y-84097685D01*
X109670042Y-82409396D01*
X109636461Y-82284126D01*
X114495000Y-82284126D01*
X114495000Y-82695874D01*
X114652569Y-83076280D01*
X114943720Y-83367431D01*
X115156612Y-83455614D01*
X115131670Y-83460575D01*
X114844575Y-83652406D01*
X114652744Y-83939501D01*
X114585382Y-84278153D01*
X114585382Y-84753153D01*
X114652744Y-85091805D01*
X114844575Y-85378900D01*
X115131670Y-85570731D01*
X115470322Y-85638093D01*
X115805461Y-85638093D01*
X116841839Y-86674472D01*
X116884240Y-86737929D01*
X116947696Y-86780329D01*
X117135631Y-86905904D01*
X117183774Y-86915480D01*
X117357317Y-86950000D01*
X117357321Y-86950000D01*
X117432169Y-86964888D01*
X117507017Y-86950000D01*
X118945199Y-86950000D01*
X119850199Y-87855000D01*
X119524126Y-87855000D01*
X119143720Y-88012569D01*
X118852569Y-88303720D01*
X118695000Y-88684126D01*
X118695000Y-89095874D01*
X118852569Y-89476280D01*
X119143720Y-89767431D01*
X119524126Y-89925000D01*
X119835251Y-89925000D01*
X119644575Y-90052406D01*
X119452744Y-90339501D01*
X119385382Y-90678153D01*
X119385382Y-91153153D01*
X119452744Y-91491805D01*
X119644575Y-91778900D01*
X119931670Y-91970731D01*
X120270322Y-92038093D01*
X120605461Y-92038093D01*
X121341839Y-92774472D01*
X121384240Y-92837929D01*
X121447696Y-92880329D01*
X121635631Y-93005904D01*
X121683774Y-93015480D01*
X121857317Y-93050000D01*
X121857321Y-93050000D01*
X121932169Y-93064888D01*
X122007017Y-93050000D01*
X124395199Y-93050000D01*
X130645743Y-99300546D01*
X130522569Y-99423720D01*
X130365000Y-99804126D01*
X130365000Y-100215874D01*
X130522569Y-100596280D01*
X130640000Y-100713711D01*
X130640000Y-101217149D01*
X130625112Y-101291996D01*
X130640000Y-101366843D01*
X130640000Y-101366847D01*
X130684096Y-101588532D01*
X130852071Y-101839925D01*
X130915530Y-101882327D01*
X131432866Y-102399664D01*
X131063720Y-102552569D01*
X130772569Y-102843720D01*
X130615000Y-103224126D01*
X130615000Y-103635874D01*
X130772569Y-104016280D01*
X131063720Y-104307431D01*
X131117013Y-104329506D01*
X130994096Y-104513464D01*
X130952200Y-104724089D01*
X130832569Y-104843720D01*
X130675000Y-105224126D01*
X130675000Y-105635874D01*
X130832569Y-106016280D01*
X131123720Y-106307431D01*
X131504126Y-106465000D01*
X131915874Y-106465000D01*
X132296280Y-106307431D01*
X132587431Y-106016280D01*
X132714514Y-105709475D01*
X132847235Y-105798157D01*
X133095000Y-105847440D01*
X134545000Y-105847440D01*
X134792765Y-105798157D01*
X135002809Y-105657809D01*
X135143157Y-105447765D01*
X135192440Y-105200000D01*
X135192440Y-104750000D01*
X135172549Y-104650000D01*
X135192440Y-104550000D01*
X135192440Y-104100000D01*
X135172549Y-104000000D01*
X135192440Y-103900000D01*
X135192440Y-103450000D01*
X135172549Y-103350000D01*
X135192440Y-103250000D01*
X135192440Y-102800000D01*
X135172549Y-102700000D01*
X135192440Y-102600000D01*
X135192440Y-102556133D01*
X135263736Y-102627429D01*
X135644142Y-102784998D01*
X135930001Y-102784998D01*
X135930001Y-105926288D01*
X135812569Y-106043720D01*
X135655000Y-106424126D01*
X135655000Y-106835874D01*
X135812569Y-107216280D01*
X136103720Y-107507431D01*
X136445994Y-107649205D01*
X135270528Y-108824671D01*
X135207072Y-108867071D01*
X135166776Y-108927378D01*
X135128848Y-108934922D01*
X134841753Y-109126753D01*
X134649922Y-109413848D01*
X134582560Y-109752500D01*
X134582560Y-110227500D01*
X134649922Y-110566152D01*
X134841753Y-110853247D01*
X135128848Y-111045078D01*
X135467500Y-111112440D01*
X136042500Y-111112440D01*
X136381152Y-111045078D01*
X136630000Y-110878803D01*
X136878848Y-111045078D01*
X137217500Y-111112440D01*
X137792500Y-111112440D01*
X138131152Y-111045078D01*
X138418247Y-110853247D01*
X138487235Y-110750000D01*
X138726289Y-110750000D01*
X138843720Y-110867431D01*
X139224126Y-111025000D01*
X139635874Y-111025000D01*
X140016280Y-110867431D01*
X140307431Y-110576280D01*
X140465000Y-110195874D01*
X140465000Y-109784126D01*
X140307431Y-109403720D01*
X140016280Y-109112569D01*
X139635874Y-108955000D01*
X139224126Y-108955000D01*
X138843720Y-109112569D01*
X138726289Y-109230000D01*
X138487235Y-109230000D01*
X138418247Y-109126753D01*
X138131152Y-108934922D01*
X137792500Y-108867560D01*
X137377241Y-108867560D01*
X140204473Y-106040329D01*
X140267929Y-105997929D01*
X140368483Y-105847440D01*
X140445000Y-105847440D01*
X140692765Y-105798157D01*
X140787285Y-105735000D01*
X143770153Y-105735000D01*
X143845000Y-105749888D01*
X143919847Y-105735000D01*
X143919852Y-105735000D01*
X144141537Y-105690904D01*
X144392929Y-105522929D01*
X144435331Y-105459470D01*
X146314473Y-103580329D01*
X146377929Y-103537929D01*
X146545904Y-103286537D01*
X146590000Y-103064852D01*
X146590000Y-103064847D01*
X146604888Y-102990000D01*
X146590000Y-102915153D01*
X146590000Y-97904846D01*
X146604888Y-97829999D01*
X146590000Y-97755152D01*
X146590000Y-97755148D01*
X146545904Y-97533463D01*
X146473431Y-97425000D01*
X146420329Y-97345526D01*
X146420327Y-97345524D01*
X146377929Y-97282071D01*
X146314476Y-97239673D01*
X145893567Y-96818764D01*
X148352505Y-96818764D01*
X148467758Y-97398182D01*
X148795972Y-97889389D01*
X149287179Y-98217603D01*
X149720341Y-98303764D01*
X150012853Y-98303764D01*
X150446015Y-98217603D01*
X150937222Y-97889389D01*
X151265436Y-97398182D01*
X151380689Y-96818764D01*
X151286404Y-96344761D01*
X151353022Y-96358012D01*
X151645534Y-96358012D01*
X152078696Y-96271851D01*
X152569903Y-95943637D01*
X152898117Y-95452430D01*
X153013370Y-94873012D01*
X152919085Y-94399008D01*
X152985702Y-94412259D01*
X153278214Y-94412259D01*
X153711376Y-94326098D01*
X154202583Y-93997884D01*
X154530797Y-93506677D01*
X154646050Y-92927259D01*
X154547270Y-92430657D01*
X154671550Y-92463595D01*
X155245806Y-92386402D01*
X155639469Y-92181463D01*
X155694302Y-91927373D01*
X154780293Y-91160428D01*
X154767437Y-91175749D01*
X154572862Y-91012480D01*
X154585717Y-90997160D01*
X153671708Y-90230214D01*
X153431000Y-90328337D01*
X153297533Y-90751606D01*
X153321231Y-91330543D01*
X153382566Y-91463016D01*
X153278214Y-91442259D01*
X152985702Y-91442259D01*
X152552540Y-91528420D01*
X152061333Y-91856634D01*
X151733119Y-92347841D01*
X151617866Y-92927259D01*
X151712151Y-93401263D01*
X151645534Y-93388012D01*
X151353022Y-93388012D01*
X150919860Y-93474173D01*
X150428653Y-93802387D01*
X150100439Y-94293594D01*
X149985186Y-94873012D01*
X150079471Y-95347015D01*
X150012853Y-95333764D01*
X149720341Y-95333764D01*
X149287179Y-95419925D01*
X148795972Y-95748139D01*
X148467758Y-96239346D01*
X148352505Y-96818764D01*
X145893567Y-96818764D01*
X143090000Y-94015199D01*
X143090000Y-91603163D01*
X143187809Y-91537809D01*
X143280000Y-91399836D01*
X143372191Y-91537809D01*
X143582235Y-91678157D01*
X143830000Y-91727440D01*
X144630000Y-91727440D01*
X144877765Y-91678157D01*
X145087809Y-91537809D01*
X145228157Y-91327765D01*
X145277440Y-91080000D01*
X145277440Y-90180000D01*
X145248726Y-90035639D01*
X153834976Y-90035639D01*
X154748985Y-90802584D01*
X154761841Y-90787263D01*
X154956416Y-90950532D01*
X154943561Y-90965852D01*
X155857570Y-91732798D01*
X156098278Y-91634675D01*
X156231745Y-91211406D01*
X156208047Y-90632469D01*
X156146713Y-90499996D01*
X156251063Y-90520753D01*
X156543575Y-90520753D01*
X156976737Y-90434592D01*
X157467944Y-90106378D01*
X157796158Y-89615171D01*
X157911411Y-89035753D01*
X157878701Y-88871308D01*
X157940079Y-88904981D01*
X158191196Y-88932483D01*
X158433722Y-88861793D01*
X158630736Y-88703674D01*
X159723475Y-87401399D01*
X159844981Y-87179921D01*
X159872483Y-86928804D01*
X159801793Y-86686278D01*
X159643674Y-86489264D01*
X158341399Y-85396525D01*
X158119921Y-85275019D01*
X157868804Y-85247517D01*
X157626278Y-85318207D01*
X157429264Y-85476326D01*
X156336525Y-86778601D01*
X156215019Y-87000079D01*
X156187517Y-87251196D01*
X156258207Y-87493722D01*
X156303979Y-87550753D01*
X156251063Y-87550753D01*
X155817901Y-87636914D01*
X155326694Y-87965128D01*
X154998480Y-88456335D01*
X154883227Y-89035753D01*
X154982007Y-89532355D01*
X154857728Y-89499417D01*
X154283472Y-89576610D01*
X153889809Y-89781549D01*
X153834976Y-90035639D01*
X145248726Y-90035639D01*
X145228157Y-89932235D01*
X145087809Y-89722191D01*
X144915000Y-89606723D01*
X144915000Y-87845644D01*
X145068247Y-87743247D01*
X145260078Y-87456152D01*
X145327440Y-87117500D01*
X145327440Y-86642500D01*
X145260078Y-86303848D01*
X145068247Y-86016753D01*
X144781152Y-85824922D01*
X144442500Y-85757560D01*
X144392268Y-85757560D01*
X144570000Y-85638803D01*
X144818848Y-85805078D01*
X145157500Y-85872440D01*
X145732500Y-85872440D01*
X146071152Y-85805078D01*
X146358247Y-85613247D01*
X146550078Y-85326152D01*
X146617440Y-84987500D01*
X146617440Y-84652361D01*
X146814470Y-84455331D01*
X146877929Y-84412929D01*
X147045904Y-84161537D01*
X147090000Y-83939852D01*
X147090000Y-83939848D01*
X147104888Y-83865000D01*
X147090000Y-83790152D01*
X147090000Y-82184846D01*
X147104888Y-82109999D01*
X147090000Y-82035152D01*
X147090000Y-82035148D01*
X147045904Y-81813463D01*
X146877929Y-81562071D01*
X146814473Y-81519671D01*
X145810331Y-80515530D01*
X145767929Y-80452071D01*
X145571908Y-80321094D01*
X145568157Y-80302235D01*
X145427809Y-80092191D01*
X145217765Y-79951843D01*
X144970000Y-79902560D01*
X144170000Y-79902560D01*
X143942595Y-79947793D01*
X143100333Y-79105532D01*
X143057931Y-79042073D01*
X142806539Y-78874098D01*
X142584854Y-78830002D01*
X142584849Y-78830002D01*
X142510002Y-78815114D01*
X142435155Y-78830002D01*
X141608711Y-78830002D01*
X141491280Y-78712571D01*
X141110874Y-78555002D01*
X140767010Y-78555002D01*
X140779940Y-78490000D01*
X140779940Y-76490000D01*
X140730657Y-76242235D01*
X140590309Y-76032191D01*
X140380265Y-75891843D01*
X140132500Y-75842560D01*
X138265000Y-75842560D01*
X138265000Y-75425000D01*
X144630000Y-75425000D01*
X144873004Y-75376664D01*
X145079013Y-75239013D01*
X145085443Y-75229390D01*
X145087809Y-75227809D01*
X145228157Y-75017765D01*
X145277440Y-74770000D01*
X145277440Y-71770000D01*
X145228157Y-71522235D01*
X145087809Y-71312191D01*
X144877765Y-71171843D01*
X144630000Y-71122560D01*
X141630000Y-71122560D01*
X141466911Y-71155000D01*
X135730000Y-71155000D01*
X135486996Y-71203336D01*
X135380000Y-71274829D01*
X135273004Y-71203336D01*
X135030000Y-71155000D01*
X131792541Y-71155000D01*
X131730000Y-71142560D01*
X128730000Y-71142560D01*
X128482235Y-71191843D01*
X128272191Y-71332191D01*
X128131843Y-71542235D01*
X128082560Y-71790000D01*
X128082560Y-74790000D01*
X128095000Y-74852541D01*
X128095000Y-74890000D01*
X128143336Y-75133004D01*
X128280987Y-75339013D01*
X128486996Y-75476664D01*
X128730000Y-75525000D01*
X132495000Y-75525000D01*
X132495000Y-77590000D01*
X132512500Y-77677979D01*
X132512500Y-77693849D01*
X132604609Y-78156910D01*
X132955477Y-78682023D01*
X133480589Y-79032891D01*
X134100000Y-79156100D01*
X134719410Y-79032891D01*
X134828019Y-78960321D01*
X136352171Y-80484473D01*
X136394571Y-80547929D01*
X136458027Y-80590329D01*
X136645962Y-80715904D01*
X136694105Y-80725480D01*
X136853469Y-80757180D01*
X136973720Y-80877431D01*
X137233415Y-80985000D01*
X137114128Y-80985000D01*
X136733722Y-81142569D01*
X136616291Y-81260000D01*
X134558711Y-81260000D01*
X134286280Y-80987569D01*
X133905874Y-80830000D01*
X133494126Y-80830000D01*
X133113720Y-80987569D01*
X133105000Y-80996289D01*
X133105000Y-80972998D01*
X132946252Y-80972998D01*
X133105000Y-80814250D01*
X133105000Y-79973691D01*
X133008327Y-79740302D01*
X132829699Y-79561673D01*
X132596310Y-79465000D01*
X130855750Y-79465000D01*
X130697000Y-79623750D01*
X130697000Y-80973000D01*
X130717000Y-80973000D01*
X130717000Y-81227000D01*
X130697000Y-81227000D01*
X130697000Y-82576250D01*
X130855750Y-82735000D01*
X131826770Y-82735000D01*
X131765000Y-82884126D01*
X131765000Y-83295874D01*
X131922569Y-83676280D01*
X132213720Y-83967431D01*
X132594126Y-84125000D01*
X133005874Y-84125000D01*
X133386280Y-83967431D01*
X133503711Y-83850000D01*
X135736289Y-83850000D01*
X135933720Y-84047431D01*
X136314126Y-84205000D01*
X136725874Y-84205000D01*
X137106280Y-84047431D01*
X137397431Y-83756280D01*
X137397560Y-83755969D01*
X137397560Y-84925000D01*
X137446843Y-85172765D01*
X137587191Y-85382809D01*
X137797235Y-85523157D01*
X138045000Y-85572440D01*
X138828144Y-85572440D01*
X138814097Y-85593463D01*
X138781456Y-85757560D01*
X138367500Y-85757560D01*
X138028848Y-85824922D01*
X137741753Y-86016753D01*
X137549922Y-86303848D01*
X137482560Y-86642500D01*
X137482560Y-86977638D01*
X134367440Y-90092759D01*
X134367440Y-90012500D01*
X134300078Y-89673848D01*
X134108247Y-89386753D01*
X133821152Y-89194922D01*
X133630000Y-89156900D01*
X133630000Y-89045451D01*
X133867765Y-88998157D01*
X134077809Y-88857809D01*
X134218157Y-88647765D01*
X134267440Y-88400000D01*
X134267440Y-86400000D01*
X134218157Y-86152235D01*
X134077809Y-85942191D01*
X133867765Y-85801843D01*
X133620000Y-85752560D01*
X132120000Y-85752560D01*
X131872235Y-85801843D01*
X131720953Y-85902927D01*
X131679699Y-85861673D01*
X131446310Y-85765000D01*
X130855750Y-85765000D01*
X130697000Y-85923750D01*
X130697000Y-87273000D01*
X130717000Y-87273000D01*
X130717000Y-87527000D01*
X130697000Y-87527000D01*
X130697000Y-88876250D01*
X130855750Y-89035000D01*
X131446310Y-89035000D01*
X131679699Y-88938327D01*
X131720953Y-88897073D01*
X131872235Y-88998157D01*
X132110001Y-89045451D01*
X132110001Y-89145671D01*
X132096309Y-89140000D01*
X131730750Y-89140000D01*
X131572000Y-89298750D01*
X131572000Y-90123000D01*
X131592000Y-90123000D01*
X131592000Y-90377000D01*
X131572000Y-90377000D01*
X131572000Y-90397000D01*
X131318000Y-90397000D01*
X131318000Y-90377000D01*
X130636250Y-90377000D01*
X130626250Y-90367000D01*
X129752000Y-90367000D01*
X129752000Y-91191250D01*
X129910750Y-91350000D01*
X130276309Y-91350000D01*
X130509698Y-91253327D01*
X130530000Y-91233025D01*
X130560302Y-91263327D01*
X130793691Y-91360000D01*
X131159250Y-91360000D01*
X131317998Y-91201252D01*
X131317998Y-91360000D01*
X131364063Y-91360000D01*
X131370001Y-91389851D01*
X131370000Y-92415153D01*
X131355112Y-92490000D01*
X131370000Y-92564847D01*
X131370000Y-92564851D01*
X131414096Y-92786536D01*
X131582071Y-93037929D01*
X131645530Y-93080331D01*
X133519671Y-94954473D01*
X133562071Y-95017929D01*
X133625527Y-95060329D01*
X133813462Y-95185904D01*
X133861605Y-95195480D01*
X134035148Y-95230000D01*
X134035152Y-95230000D01*
X134110000Y-95244888D01*
X134184848Y-95230000D01*
X135930000Y-95230000D01*
X135930001Y-100714998D01*
X135644142Y-100714998D01*
X135263736Y-100872567D01*
X135192440Y-100943863D01*
X135192440Y-100850000D01*
X135172549Y-100750000D01*
X135192440Y-100650000D01*
X135192440Y-100200000D01*
X135172549Y-100100000D01*
X135192440Y-100000000D01*
X135192440Y-99550000D01*
X135172549Y-99450000D01*
X135192440Y-99350000D01*
X135192440Y-98900000D01*
X135143157Y-98652235D01*
X135002809Y-98442191D01*
X134792765Y-98301843D01*
X134580000Y-98259522D01*
X134580000Y-97954846D01*
X134594888Y-97879999D01*
X134580000Y-97805152D01*
X134580000Y-97805148D01*
X134535904Y-97583463D01*
X134367929Y-97332071D01*
X134304473Y-97289671D01*
X133365000Y-96350199D01*
X133365000Y-96184126D01*
X133207431Y-95803720D01*
X132916280Y-95512569D01*
X132535874Y-95355000D01*
X132124126Y-95355000D01*
X131743720Y-95512569D01*
X131452569Y-95803720D01*
X131295000Y-96184126D01*
X131295000Y-96595874D01*
X131452569Y-96976280D01*
X131743720Y-97267431D01*
X132124126Y-97425000D01*
X132290199Y-97425000D01*
X133060001Y-98194803D01*
X133060001Y-98259522D01*
X132847235Y-98301843D01*
X132637191Y-98442191D01*
X132617084Y-98472282D01*
X119850331Y-85705530D01*
X119807929Y-85642071D01*
X119556537Y-85474096D01*
X119334852Y-85430000D01*
X119334847Y-85430000D01*
X119260000Y-85415112D01*
X119185153Y-85430000D01*
X118344593Y-85430000D01*
X118421069Y-85378900D01*
X118612900Y-85091805D01*
X118680262Y-84753153D01*
X118680262Y-84278153D01*
X118612900Y-83939501D01*
X118421069Y-83652406D01*
X118133974Y-83460575D01*
X117795322Y-83393213D01*
X117508015Y-83393213D01*
X116565000Y-82450199D01*
X116565000Y-82284126D01*
X116407431Y-81903720D01*
X116116280Y-81612569D01*
X115735874Y-81455000D01*
X115324126Y-81455000D01*
X114943720Y-81612569D01*
X114652569Y-81903720D01*
X114495000Y-82284126D01*
X109636461Y-82284126D01*
X109222620Y-80740370D01*
X109113655Y-80040000D01*
X126325112Y-80040000D01*
X126340000Y-80114847D01*
X126340001Y-90015148D01*
X126325112Y-90090000D01*
X126384097Y-90386537D01*
X126496661Y-90555000D01*
X126552072Y-90637929D01*
X126615528Y-90680329D01*
X126659669Y-90724470D01*
X126702071Y-90787929D01*
X126790580Y-90847069D01*
X126961753Y-91103247D01*
X127248848Y-91295078D01*
X127587500Y-91362440D01*
X128162500Y-91362440D01*
X128501152Y-91295078D01*
X128669540Y-91182565D01*
X128740302Y-91253327D01*
X128973691Y-91350000D01*
X129339250Y-91350000D01*
X129498000Y-91191250D01*
X129498000Y-90367000D01*
X129478000Y-90367000D01*
X129478000Y-90113000D01*
X129498000Y-90113000D01*
X129498000Y-89288750D01*
X129752000Y-89288750D01*
X129752000Y-90113000D01*
X130433750Y-90113000D01*
X130443750Y-90123000D01*
X131318000Y-90123000D01*
X131318000Y-89298750D01*
X131159250Y-89140000D01*
X130793691Y-89140000D01*
X130560302Y-89236673D01*
X130540000Y-89256975D01*
X130509698Y-89226673D01*
X130276309Y-89130000D01*
X129910750Y-89130000D01*
X129752000Y-89288750D01*
X129498000Y-89288750D01*
X129339250Y-89130000D01*
X129030000Y-89130000D01*
X129030000Y-89045451D01*
X129267765Y-88998157D01*
X129419047Y-88897073D01*
X129460301Y-88938327D01*
X129693690Y-89035000D01*
X130284250Y-89035000D01*
X130443000Y-88876250D01*
X130443000Y-87527000D01*
X130423000Y-87527000D01*
X130423000Y-87273000D01*
X130443000Y-87273000D01*
X130443000Y-85923750D01*
X130284250Y-85765000D01*
X129693690Y-85765000D01*
X129460301Y-85861673D01*
X129419047Y-85902927D01*
X129267765Y-85801843D01*
X129020000Y-85752560D01*
X127860000Y-85752560D01*
X127860000Y-81385750D01*
X128035000Y-81385750D01*
X128035000Y-82226309D01*
X128131673Y-82459698D01*
X128310301Y-82638327D01*
X128543690Y-82735000D01*
X130284250Y-82735000D01*
X130443000Y-82576250D01*
X130443000Y-81227000D01*
X128193750Y-81227000D01*
X128035000Y-81385750D01*
X127860000Y-81385750D01*
X127860000Y-80354801D01*
X127989801Y-80225000D01*
X128035000Y-80225000D01*
X128035000Y-80814250D01*
X128193750Y-80973000D01*
X130443000Y-80973000D01*
X130443000Y-79623750D01*
X130284250Y-79465000D01*
X128956367Y-79465000D01*
X128985000Y-79395874D01*
X128985000Y-78984126D01*
X128827431Y-78603720D01*
X128536280Y-78312569D01*
X128155874Y-78155000D01*
X127744126Y-78155000D01*
X127363720Y-78312569D01*
X127072569Y-78603720D01*
X126915000Y-78984126D01*
X126915000Y-79150199D01*
X126615530Y-79449669D01*
X126552071Y-79492071D01*
X126384096Y-79743464D01*
X126340000Y-79965149D01*
X126340000Y-79965153D01*
X126325112Y-80040000D01*
X109113655Y-80040000D01*
X108702833Y-77399469D01*
X108565526Y-74142641D01*
X108639765Y-72580323D01*
X108859432Y-71046616D01*
X109178476Y-69723970D01*
X128895635Y-69723970D01*
X129055418Y-70042739D01*
X129846187Y-70352723D01*
X130695387Y-70336497D01*
X131404582Y-70042739D01*
X131564365Y-69723970D01*
X131544365Y-69703970D01*
X141795635Y-69703970D01*
X141955418Y-70022739D01*
X142746187Y-70332723D01*
X143595387Y-70316497D01*
X144304582Y-70022739D01*
X144464365Y-69703970D01*
X143130000Y-68369605D01*
X141795635Y-69703970D01*
X131544365Y-69703970D01*
X130230000Y-68389605D01*
X128895635Y-69723970D01*
X109178476Y-69723970D01*
X109220456Y-69549938D01*
X109718631Y-68100755D01*
X109843178Y-67826187D01*
X128087277Y-67826187D01*
X128103503Y-68675387D01*
X128397261Y-69384582D01*
X128716030Y-69544365D01*
X130050395Y-68210000D01*
X130409605Y-68210000D01*
X131743970Y-69544365D01*
X132062739Y-69384582D01*
X132372723Y-68593813D01*
X132357674Y-67806187D01*
X140987277Y-67806187D01*
X141003503Y-68655387D01*
X141297261Y-69364582D01*
X141616030Y-69524365D01*
X142950395Y-68190000D01*
X143309605Y-68190000D01*
X144643970Y-69524365D01*
X144962739Y-69364582D01*
X145272723Y-68573813D01*
X145256497Y-67724613D01*
X144962739Y-67015418D01*
X144643970Y-66855635D01*
X143309605Y-68190000D01*
X142950395Y-68190000D01*
X141616030Y-66855635D01*
X141297261Y-67015418D01*
X140987277Y-67806187D01*
X132357674Y-67806187D01*
X132356497Y-67744613D01*
X132062739Y-67035418D01*
X131743970Y-66875635D01*
X130409605Y-68210000D01*
X130050395Y-68210000D01*
X128716030Y-66875635D01*
X128397261Y-67035418D01*
X128087277Y-67826187D01*
X109843178Y-67826187D01*
X110349719Y-66709501D01*
X110739426Y-66030910D01*
X117668695Y-66030910D01*
X118035640Y-66526343D01*
X119441171Y-67119736D01*
X120966793Y-67130087D01*
X122035142Y-66696030D01*
X128895635Y-66696030D01*
X130230000Y-68030395D01*
X131564365Y-66696030D01*
X131554340Y-66676030D01*
X141795635Y-66676030D01*
X143130000Y-68010395D01*
X144464365Y-66676030D01*
X144304582Y-66357261D01*
X143513813Y-66047277D01*
X142664613Y-66063503D01*
X141955418Y-66357261D01*
X141795635Y-66676030D01*
X131554340Y-66676030D01*
X131404582Y-66377261D01*
X130613813Y-66067277D01*
X129764613Y-66083503D01*
X129055418Y-66377261D01*
X128895635Y-66696030D01*
X122035142Y-66696030D01*
X122380246Y-66555819D01*
X122424360Y-66526343D01*
X122791305Y-66030910D01*
X149568695Y-66030910D01*
X149935640Y-66526343D01*
X151341171Y-67119736D01*
X152866793Y-67130087D01*
X154280246Y-66555819D01*
X154324360Y-66526343D01*
X154691305Y-66030910D01*
X152130000Y-63469605D01*
X149568695Y-66030910D01*
X122791305Y-66030910D01*
X120230000Y-63469605D01*
X117668695Y-66030910D01*
X110739426Y-66030910D01*
X111109444Y-65386604D01*
X111993550Y-64142386D01*
X112094032Y-64026793D01*
X116389913Y-64026793D01*
X116964181Y-65440246D01*
X116993657Y-65484360D01*
X117489090Y-65851305D01*
X120050395Y-63290000D01*
X120409605Y-63290000D01*
X122970910Y-65851305D01*
X123466343Y-65484360D01*
X124059736Y-64078829D01*
X124070087Y-62553207D01*
X123495819Y-61139754D01*
X123466343Y-61095640D01*
X122970910Y-60728695D01*
X120409605Y-63290000D01*
X120050395Y-63290000D01*
X117489090Y-60728695D01*
X116993657Y-61095640D01*
X116400264Y-62501171D01*
X116389913Y-64026793D01*
X112094032Y-64026793D01*
X112997907Y-62986995D01*
X114106296Y-61941172D01*
X115298637Y-61021532D01*
X116056531Y-60549090D01*
X117668695Y-60549090D01*
X120230000Y-63110395D01*
X122791305Y-60549090D01*
X122424360Y-60053657D01*
X121018829Y-59460264D01*
X119493207Y-59449913D01*
X118079754Y-60024181D01*
X118035640Y-60053657D01*
X117668695Y-60549090D01*
X116056531Y-60549090D01*
X116565129Y-60232050D01*
X117895889Y-59576823D01*
X119281003Y-59059986D01*
X120710661Y-58685659D01*
X122175101Y-58457990D01*
X123653344Y-58381743D01*
X125487094Y-58537848D01*
X127202975Y-58981552D01*
X128803857Y-59686864D01*
X130247584Y-60607808D01*
X131186502Y-61608842D01*
X132369028Y-63034645D01*
X133089163Y-63971831D01*
X133105146Y-63998023D01*
X133130159Y-64025184D01*
X133152665Y-64054473D01*
X133175756Y-64074695D01*
X133918128Y-64880809D01*
X133940832Y-64923480D01*
X134009599Y-64980135D01*
X134023375Y-64995093D01*
X134061585Y-65022963D01*
X134098069Y-65053021D01*
X134115976Y-65062636D01*
X134187968Y-65115147D01*
X134234950Y-65126520D01*
X135452220Y-65780133D01*
X135501815Y-65821942D01*
X135571085Y-65843958D01*
X135574533Y-65845809D01*
X135635412Y-65864402D01*
X135695970Y-65883649D01*
X135699852Y-65884083D01*
X135769374Y-65905316D01*
X135833945Y-65899080D01*
X136769448Y-66003705D01*
X136831833Y-66011524D01*
X136836415Y-66011195D01*
X136840975Y-66011705D01*
X136903563Y-66006374D01*
X137924570Y-65933068D01*
X137965355Y-65941456D01*
X138059348Y-65923392D01*
X138086223Y-65921462D01*
X138125467Y-65910684D01*
X138165418Y-65903006D01*
X138190371Y-65892859D01*
X138282675Y-65867509D01*
X138315552Y-65841955D01*
X138807868Y-65641759D01*
X138812151Y-65641735D01*
X138933854Y-65590528D01*
X138992607Y-65566636D01*
X138996090Y-65564341D01*
X138999931Y-65562725D01*
X139052427Y-65527224D01*
X139162728Y-65454552D01*
X139165131Y-65451006D01*
X139652146Y-65121653D01*
X139697143Y-65105865D01*
X139764022Y-65045995D01*
X139781394Y-65034247D01*
X139814181Y-65001093D01*
X139848933Y-64969983D01*
X139861533Y-64953211D01*
X139924645Y-64889392D01*
X139942648Y-64845236D01*
X140557494Y-64026793D01*
X148289913Y-64026793D01*
X148864181Y-65440246D01*
X148893657Y-65484360D01*
X149389090Y-65851305D01*
X151950395Y-63290000D01*
X152309605Y-63290000D01*
X154870910Y-65851305D01*
X155366343Y-65484360D01*
X155959736Y-64078829D01*
X155970087Y-62553207D01*
X155395819Y-61139754D01*
X155366343Y-61095640D01*
X154870910Y-60728695D01*
X152309605Y-63290000D01*
X151950395Y-63290000D01*
X149389090Y-60728695D01*
X148893657Y-61095640D01*
X148300264Y-62501171D01*
X148289913Y-64026793D01*
X140557494Y-64026793D01*
X140560623Y-64022628D01*
X140582556Y-63998937D01*
X140601030Y-63968841D01*
X140622254Y-63940589D01*
X140636245Y-63911472D01*
X141217355Y-62964790D01*
X142209893Y-61563037D01*
X142715717Y-60956899D01*
X143194254Y-60549090D01*
X149568695Y-60549090D01*
X152130000Y-63110395D01*
X154691305Y-60549090D01*
X154324360Y-60053657D01*
X152918829Y-59460264D01*
X151393207Y-59449913D01*
X149979754Y-60024181D01*
X149935640Y-60053657D01*
X149568695Y-60549090D01*
X143194254Y-60549090D01*
X143283922Y-60472675D01*
X144814998Y-59577276D01*
X146466137Y-58891001D01*
X148213920Y-58455002D01*
X150015656Y-58304163D01*
X150054659Y-58311921D01*
X150104676Y-58301972D01*
X151544356Y-58376239D01*
X151544356Y-58376239D01*
G37*
X151544356Y-58376239D02*
X153008795Y-58603916D01*
X154438453Y-58978249D01*
X155823575Y-59495094D01*
X157154320Y-60150319D01*
X158420813Y-60939805D01*
X159613151Y-61859446D01*
X160721541Y-62905273D01*
X161725882Y-64060659D01*
X162609979Y-65304872D01*
X163369698Y-66627772D01*
X164000777Y-68019019D01*
X164498944Y-69468194D01*
X164859962Y-70964852D01*
X165079633Y-72498571D01*
X165153606Y-74055256D01*
X164965914Y-77257331D01*
X164333686Y-80517588D01*
X163148123Y-83915823D01*
X161295496Y-87527557D01*
X159692195Y-89873080D01*
X157210570Y-93054770D01*
X150502874Y-100872730D01*
X142963308Y-108888893D01*
X139440825Y-112323803D01*
X136784607Y-114676746D01*
X133816806Y-112349938D01*
X130113821Y-108911754D01*
X126287911Y-104967845D01*
X122535748Y-100802890D01*
X115997722Y-92910720D01*
X112026931Y-87486808D01*
X111054528Y-85792740D01*
X110274788Y-84097685D01*
X109670042Y-82409396D01*
X109636461Y-82284126D01*
X114495000Y-82284126D01*
X114495000Y-82695874D01*
X114652569Y-83076280D01*
X114943720Y-83367431D01*
X115156612Y-83455614D01*
X115131670Y-83460575D01*
X114844575Y-83652406D01*
X114652744Y-83939501D01*
X114585382Y-84278153D01*
X114585382Y-84753153D01*
X114652744Y-85091805D01*
X114844575Y-85378900D01*
X115131670Y-85570731D01*
X115470322Y-85638093D01*
X115805461Y-85638093D01*
X116841839Y-86674472D01*
X116884240Y-86737929D01*
X116947696Y-86780329D01*
X117135631Y-86905904D01*
X117183774Y-86915480D01*
X117357317Y-86950000D01*
X117357321Y-86950000D01*
X117432169Y-86964888D01*
X117507017Y-86950000D01*
X118945199Y-86950000D01*
X119850199Y-87855000D01*
X119524126Y-87855000D01*
X119143720Y-88012569D01*
X118852569Y-88303720D01*
X118695000Y-88684126D01*
X118695000Y-89095874D01*
X118852569Y-89476280D01*
X119143720Y-89767431D01*
X119524126Y-89925000D01*
X119835251Y-89925000D01*
X119644575Y-90052406D01*
X119452744Y-90339501D01*
X119385382Y-90678153D01*
X119385382Y-91153153D01*
X119452744Y-91491805D01*
X119644575Y-91778900D01*
X119931670Y-91970731D01*
X120270322Y-92038093D01*
X120605461Y-92038093D01*
X121341839Y-92774472D01*
X121384240Y-92837929D01*
X121447696Y-92880329D01*
X121635631Y-93005904D01*
X121683774Y-93015480D01*
X121857317Y-93050000D01*
X121857321Y-93050000D01*
X121932169Y-93064888D01*
X122007017Y-93050000D01*
X124395199Y-93050000D01*
X130645743Y-99300546D01*
X130522569Y-99423720D01*
X130365000Y-99804126D01*
X130365000Y-100215874D01*
X130522569Y-100596280D01*
X130640000Y-100713711D01*
X130640000Y-101217149D01*
X130625112Y-101291996D01*
X130640000Y-101366843D01*
X130640000Y-101366847D01*
X130684096Y-101588532D01*
X130852071Y-101839925D01*
X130915530Y-101882327D01*
X131432866Y-102399664D01*
X131063720Y-102552569D01*
X130772569Y-102843720D01*
X130615000Y-103224126D01*
X130615000Y-103635874D01*
X130772569Y-104016280D01*
X131063720Y-104307431D01*
X131117013Y-104329506D01*
X130994096Y-104513464D01*
X130952200Y-104724089D01*
X130832569Y-104843720D01*
X130675000Y-105224126D01*
X130675000Y-105635874D01*
X130832569Y-106016280D01*
X131123720Y-106307431D01*
X131504126Y-106465000D01*
X131915874Y-106465000D01*
X132296280Y-106307431D01*
X132587431Y-106016280D01*
X132714514Y-105709475D01*
X132847235Y-105798157D01*
X133095000Y-105847440D01*
X134545000Y-105847440D01*
X134792765Y-105798157D01*
X135002809Y-105657809D01*
X135143157Y-105447765D01*
X135192440Y-105200000D01*
X135192440Y-104750000D01*
X135172549Y-104650000D01*
X135192440Y-104550000D01*
X135192440Y-104100000D01*
X135172549Y-104000000D01*
X135192440Y-103900000D01*
X135192440Y-103450000D01*
X135172549Y-103350000D01*
X135192440Y-103250000D01*
X135192440Y-102800000D01*
X135172549Y-102700000D01*
X135192440Y-102600000D01*
X135192440Y-102556133D01*
X135263736Y-102627429D01*
X135644142Y-102784998D01*
X135930001Y-102784998D01*
X135930001Y-105926288D01*
X135812569Y-106043720D01*
X135655000Y-106424126D01*
X135655000Y-106835874D01*
X135812569Y-107216280D01*
X136103720Y-107507431D01*
X136445994Y-107649205D01*
X135270528Y-108824671D01*
X135207072Y-108867071D01*
X135166776Y-108927378D01*
X135128848Y-108934922D01*
X134841753Y-109126753D01*
X134649922Y-109413848D01*
X134582560Y-109752500D01*
X134582560Y-110227500D01*
X134649922Y-110566152D01*
X134841753Y-110853247D01*
X135128848Y-111045078D01*
X135467500Y-111112440D01*
X136042500Y-111112440D01*
X136381152Y-111045078D01*
X136630000Y-110878803D01*
X136878848Y-111045078D01*
X137217500Y-111112440D01*
X137792500Y-111112440D01*
X138131152Y-111045078D01*
X138418247Y-110853247D01*
X138487235Y-110750000D01*
X138726289Y-110750000D01*
X138843720Y-110867431D01*
X139224126Y-111025000D01*
X139635874Y-111025000D01*
X140016280Y-110867431D01*
X140307431Y-110576280D01*
X140465000Y-110195874D01*
X140465000Y-109784126D01*
X140307431Y-109403720D01*
X140016280Y-109112569D01*
X139635874Y-108955000D01*
X139224126Y-108955000D01*
X138843720Y-109112569D01*
X138726289Y-109230000D01*
X138487235Y-109230000D01*
X138418247Y-109126753D01*
X138131152Y-108934922D01*
X137792500Y-108867560D01*
X137377241Y-108867560D01*
X140204473Y-106040329D01*
X140267929Y-105997929D01*
X140368483Y-105847440D01*
X140445000Y-105847440D01*
X140692765Y-105798157D01*
X140787285Y-105735000D01*
X143770153Y-105735000D01*
X143845000Y-105749888D01*
X143919847Y-105735000D01*
X143919852Y-105735000D01*
X144141537Y-105690904D01*
X144392929Y-105522929D01*
X144435331Y-105459470D01*
X146314473Y-103580329D01*
X146377929Y-103537929D01*
X146545904Y-103286537D01*
X146590000Y-103064852D01*
X146590000Y-103064847D01*
X146604888Y-102990000D01*
X146590000Y-102915153D01*
X146590000Y-97904846D01*
X146604888Y-97829999D01*
X146590000Y-97755152D01*
X146590000Y-97755148D01*
X146545904Y-97533463D01*
X146473431Y-97425000D01*
X146420329Y-97345526D01*
X146420327Y-97345524D01*
X146377929Y-97282071D01*
X146314476Y-97239673D01*
X145893567Y-96818764D01*
X148352505Y-96818764D01*
X148467758Y-97398182D01*
X148795972Y-97889389D01*
X149287179Y-98217603D01*
X149720341Y-98303764D01*
X150012853Y-98303764D01*
X150446015Y-98217603D01*
X150937222Y-97889389D01*
X151265436Y-97398182D01*
X151380689Y-96818764D01*
X151286404Y-96344761D01*
X151353022Y-96358012D01*
X151645534Y-96358012D01*
X152078696Y-96271851D01*
X152569903Y-95943637D01*
X152898117Y-95452430D01*
X153013370Y-94873012D01*
X152919085Y-94399008D01*
X152985702Y-94412259D01*
X153278214Y-94412259D01*
X153711376Y-94326098D01*
X154202583Y-93997884D01*
X154530797Y-93506677D01*
X154646050Y-92927259D01*
X154547270Y-92430657D01*
X154671550Y-92463595D01*
X155245806Y-92386402D01*
X155639469Y-92181463D01*
X155694302Y-91927373D01*
X154780293Y-91160428D01*
X154767437Y-91175749D01*
X154572862Y-91012480D01*
X154585717Y-90997160D01*
X153671708Y-90230214D01*
X153431000Y-90328337D01*
X153297533Y-90751606D01*
X153321231Y-91330543D01*
X153382566Y-91463016D01*
X153278214Y-91442259D01*
X152985702Y-91442259D01*
X152552540Y-91528420D01*
X152061333Y-91856634D01*
X151733119Y-92347841D01*
X151617866Y-92927259D01*
X151712151Y-93401263D01*
X151645534Y-93388012D01*
X151353022Y-93388012D01*
X150919860Y-93474173D01*
X150428653Y-93802387D01*
X150100439Y-94293594D01*
X149985186Y-94873012D01*
X150079471Y-95347015D01*
X150012853Y-95333764D01*
X149720341Y-95333764D01*
X149287179Y-95419925D01*
X148795972Y-95748139D01*
X148467758Y-96239346D01*
X148352505Y-96818764D01*
X145893567Y-96818764D01*
X143090000Y-94015199D01*
X143090000Y-91603163D01*
X143187809Y-91537809D01*
X143280000Y-91399836D01*
X143372191Y-91537809D01*
X143582235Y-91678157D01*
X143830000Y-91727440D01*
X144630000Y-91727440D01*
X144877765Y-91678157D01*
X145087809Y-91537809D01*
X145228157Y-91327765D01*
X145277440Y-91080000D01*
X145277440Y-90180000D01*
X145248726Y-90035639D01*
X153834976Y-90035639D01*
X154748985Y-90802584D01*
X154761841Y-90787263D01*
X154956416Y-90950532D01*
X154943561Y-90965852D01*
X155857570Y-91732798D01*
X156098278Y-91634675D01*
X156231745Y-91211406D01*
X156208047Y-90632469D01*
X156146713Y-90499996D01*
X156251063Y-90520753D01*
X156543575Y-90520753D01*
X156976737Y-90434592D01*
X157467944Y-90106378D01*
X157796158Y-89615171D01*
X157911411Y-89035753D01*
X157878701Y-88871308D01*
X157940079Y-88904981D01*
X158191196Y-88932483D01*
X158433722Y-88861793D01*
X158630736Y-88703674D01*
X159723475Y-87401399D01*
X159844981Y-87179921D01*
X159872483Y-86928804D01*
X159801793Y-86686278D01*
X159643674Y-86489264D01*
X158341399Y-85396525D01*
X158119921Y-85275019D01*
X157868804Y-85247517D01*
X157626278Y-85318207D01*
X157429264Y-85476326D01*
X156336525Y-86778601D01*
X156215019Y-87000079D01*
X156187517Y-87251196D01*
X156258207Y-87493722D01*
X156303979Y-87550753D01*
X156251063Y-87550753D01*
X155817901Y-87636914D01*
X155326694Y-87965128D01*
X154998480Y-88456335D01*
X154883227Y-89035753D01*
X154982007Y-89532355D01*
X154857728Y-89499417D01*
X154283472Y-89576610D01*
X153889809Y-89781549D01*
X153834976Y-90035639D01*
X145248726Y-90035639D01*
X145228157Y-89932235D01*
X145087809Y-89722191D01*
X144915000Y-89606723D01*
X144915000Y-87845644D01*
X145068247Y-87743247D01*
X145260078Y-87456152D01*
X145327440Y-87117500D01*
X145327440Y-86642500D01*
X145260078Y-86303848D01*
X145068247Y-86016753D01*
X144781152Y-85824922D01*
X144442500Y-85757560D01*
X144392268Y-85757560D01*
X144570000Y-85638803D01*
X144818848Y-85805078D01*
X145157500Y-85872440D01*
X145732500Y-85872440D01*
X146071152Y-85805078D01*
X146358247Y-85613247D01*
X146550078Y-85326152D01*
X146617440Y-84987500D01*
X146617440Y-84652361D01*
X146814470Y-84455331D01*
X146877929Y-84412929D01*
X147045904Y-84161537D01*
X147090000Y-83939852D01*
X147090000Y-83939848D01*
X147104888Y-83865000D01*
X147090000Y-83790152D01*
X147090000Y-82184846D01*
X147104888Y-82109999D01*
X147090000Y-82035152D01*
X147090000Y-82035148D01*
X147045904Y-81813463D01*
X146877929Y-81562071D01*
X146814473Y-81519671D01*
X145810331Y-80515530D01*
X145767929Y-80452071D01*
X145571908Y-80321094D01*
X145568157Y-80302235D01*
X145427809Y-80092191D01*
X145217765Y-79951843D01*
X144970000Y-79902560D01*
X144170000Y-79902560D01*
X143942595Y-79947793D01*
X143100333Y-79105532D01*
X143057931Y-79042073D01*
X142806539Y-78874098D01*
X142584854Y-78830002D01*
X142584849Y-78830002D01*
X142510002Y-78815114D01*
X142435155Y-78830002D01*
X141608711Y-78830002D01*
X141491280Y-78712571D01*
X141110874Y-78555002D01*
X140767010Y-78555002D01*
X140779940Y-78490000D01*
X140779940Y-76490000D01*
X140730657Y-76242235D01*
X140590309Y-76032191D01*
X140380265Y-75891843D01*
X140132500Y-75842560D01*
X138265000Y-75842560D01*
X138265000Y-75425000D01*
X144630000Y-75425000D01*
X144873004Y-75376664D01*
X145079013Y-75239013D01*
X145085443Y-75229390D01*
X145087809Y-75227809D01*
X145228157Y-75017765D01*
X145277440Y-74770000D01*
X145277440Y-71770000D01*
X145228157Y-71522235D01*
X145087809Y-71312191D01*
X144877765Y-71171843D01*
X144630000Y-71122560D01*
X141630000Y-71122560D01*
X141466911Y-71155000D01*
X135730000Y-71155000D01*
X135486996Y-71203336D01*
X135380000Y-71274829D01*
X135273004Y-71203336D01*
X135030000Y-71155000D01*
X131792541Y-71155000D01*
X131730000Y-71142560D01*
X128730000Y-71142560D01*
X128482235Y-71191843D01*
X128272191Y-71332191D01*
X128131843Y-71542235D01*
X128082560Y-71790000D01*
X128082560Y-74790000D01*
X128095000Y-74852541D01*
X128095000Y-74890000D01*
X128143336Y-75133004D01*
X128280987Y-75339013D01*
X128486996Y-75476664D01*
X128730000Y-75525000D01*
X132495000Y-75525000D01*
X132495000Y-77590000D01*
X132512500Y-77677979D01*
X132512500Y-77693849D01*
X132604609Y-78156910D01*
X132955477Y-78682023D01*
X133480589Y-79032891D01*
X134100000Y-79156100D01*
X134719410Y-79032891D01*
X134828019Y-78960321D01*
X136352171Y-80484473D01*
X136394571Y-80547929D01*
X136458027Y-80590329D01*
X136645962Y-80715904D01*
X136694105Y-80725480D01*
X136853469Y-80757180D01*
X136973720Y-80877431D01*
X137233415Y-80985000D01*
X137114128Y-80985000D01*
X136733722Y-81142569D01*
X136616291Y-81260000D01*
X134558711Y-81260000D01*
X134286280Y-80987569D01*
X133905874Y-80830000D01*
X133494126Y-80830000D01*
X133113720Y-80987569D01*
X133105000Y-80996289D01*
X133105000Y-80972998D01*
X132946252Y-80972998D01*
X133105000Y-80814250D01*
X133105000Y-79973691D01*
X133008327Y-79740302D01*
X132829699Y-79561673D01*
X132596310Y-79465000D01*
X130855750Y-79465000D01*
X130697000Y-79623750D01*
X130697000Y-80973000D01*
X130717000Y-80973000D01*
X130717000Y-81227000D01*
X130697000Y-81227000D01*
X130697000Y-82576250D01*
X130855750Y-82735000D01*
X131826770Y-82735000D01*
X131765000Y-82884126D01*
X131765000Y-83295874D01*
X131922569Y-83676280D01*
X132213720Y-83967431D01*
X132594126Y-84125000D01*
X133005874Y-84125000D01*
X133386280Y-83967431D01*
X133503711Y-83850000D01*
X135736289Y-83850000D01*
X135933720Y-84047431D01*
X136314126Y-84205000D01*
X136725874Y-84205000D01*
X137106280Y-84047431D01*
X137397431Y-83756280D01*
X137397560Y-83755969D01*
X137397560Y-84925000D01*
X137446843Y-85172765D01*
X137587191Y-85382809D01*
X137797235Y-85523157D01*
X138045000Y-85572440D01*
X138828144Y-85572440D01*
X138814097Y-85593463D01*
X138781456Y-85757560D01*
X138367500Y-85757560D01*
X138028848Y-85824922D01*
X137741753Y-86016753D01*
X137549922Y-86303848D01*
X137482560Y-86642500D01*
X137482560Y-86977638D01*
X134367440Y-90092759D01*
X134367440Y-90012500D01*
X134300078Y-89673848D01*
X134108247Y-89386753D01*
X133821152Y-89194922D01*
X133630000Y-89156900D01*
X133630000Y-89045451D01*
X133867765Y-88998157D01*
X134077809Y-88857809D01*
X134218157Y-88647765D01*
X134267440Y-88400000D01*
X134267440Y-86400000D01*
X134218157Y-86152235D01*
X134077809Y-85942191D01*
X133867765Y-85801843D01*
X133620000Y-85752560D01*
X132120000Y-85752560D01*
X131872235Y-85801843D01*
X131720953Y-85902927D01*
X131679699Y-85861673D01*
X131446310Y-85765000D01*
X130855750Y-85765000D01*
X130697000Y-85923750D01*
X130697000Y-87273000D01*
X130717000Y-87273000D01*
X130717000Y-87527000D01*
X130697000Y-87527000D01*
X130697000Y-88876250D01*
X130855750Y-89035000D01*
X131446310Y-89035000D01*
X131679699Y-88938327D01*
X131720953Y-88897073D01*
X131872235Y-88998157D01*
X132110001Y-89045451D01*
X132110001Y-89145671D01*
X132096309Y-89140000D01*
X131730750Y-89140000D01*
X131572000Y-89298750D01*
X131572000Y-90123000D01*
X131592000Y-90123000D01*
X131592000Y-90377000D01*
X131572000Y-90377000D01*
X131572000Y-90397000D01*
X131318000Y-90397000D01*
X131318000Y-90377000D01*
X130636250Y-90377000D01*
X130626250Y-90367000D01*
X129752000Y-90367000D01*
X129752000Y-91191250D01*
X129910750Y-91350000D01*
X130276309Y-91350000D01*
X130509698Y-91253327D01*
X130530000Y-91233025D01*
X130560302Y-91263327D01*
X130793691Y-91360000D01*
X131159250Y-91360000D01*
X131317998Y-91201252D01*
X131317998Y-91360000D01*
X131364063Y-91360000D01*
X131370001Y-91389851D01*
X131370000Y-92415153D01*
X131355112Y-92490000D01*
X131370000Y-92564847D01*
X131370000Y-92564851D01*
X131414096Y-92786536D01*
X131582071Y-93037929D01*
X131645530Y-93080331D01*
X133519671Y-94954473D01*
X133562071Y-95017929D01*
X133625527Y-95060329D01*
X133813462Y-95185904D01*
X133861605Y-95195480D01*
X134035148Y-95230000D01*
X134035152Y-95230000D01*
X134110000Y-95244888D01*
X134184848Y-95230000D01*
X135930000Y-95230000D01*
X135930001Y-100714998D01*
X135644142Y-100714998D01*
X135263736Y-100872567D01*
X135192440Y-100943863D01*
X135192440Y-100850000D01*
X135172549Y-100750000D01*
X135192440Y-100650000D01*
X135192440Y-100200000D01*
X135172549Y-100100000D01*
X135192440Y-100000000D01*
X135192440Y-99550000D01*
X135172549Y-99450000D01*
X135192440Y-99350000D01*
X135192440Y-98900000D01*
X135143157Y-98652235D01*
X135002809Y-98442191D01*
X134792765Y-98301843D01*
X134580000Y-98259522D01*
X134580000Y-97954846D01*
X134594888Y-97879999D01*
X134580000Y-97805152D01*
X134580000Y-97805148D01*
X134535904Y-97583463D01*
X134367929Y-97332071D01*
X134304473Y-97289671D01*
X133365000Y-96350199D01*
X133365000Y-96184126D01*
X133207431Y-95803720D01*
X132916280Y-95512569D01*
X132535874Y-95355000D01*
X132124126Y-95355000D01*
X131743720Y-95512569D01*
X131452569Y-95803720D01*
X131295000Y-96184126D01*
X131295000Y-96595874D01*
X131452569Y-96976280D01*
X131743720Y-97267431D01*
X132124126Y-97425000D01*
X132290199Y-97425000D01*
X133060001Y-98194803D01*
X133060001Y-98259522D01*
X132847235Y-98301843D01*
X132637191Y-98442191D01*
X132617084Y-98472282D01*
X119850331Y-85705530D01*
X119807929Y-85642071D01*
X119556537Y-85474096D01*
X119334852Y-85430000D01*
X119334847Y-85430000D01*
X119260000Y-85415112D01*
X119185153Y-85430000D01*
X118344593Y-85430000D01*
X118421069Y-85378900D01*
X118612900Y-85091805D01*
X118680262Y-84753153D01*
X118680262Y-84278153D01*
X118612900Y-83939501D01*
X118421069Y-83652406D01*
X118133974Y-83460575D01*
X117795322Y-83393213D01*
X117508015Y-83393213D01*
X116565000Y-82450199D01*
X116565000Y-82284126D01*
X116407431Y-81903720D01*
X116116280Y-81612569D01*
X115735874Y-81455000D01*
X115324126Y-81455000D01*
X114943720Y-81612569D01*
X114652569Y-81903720D01*
X114495000Y-82284126D01*
X109636461Y-82284126D01*
X109222620Y-80740370D01*
X109113655Y-80040000D01*
X126325112Y-80040000D01*
X126340000Y-80114847D01*
X126340001Y-90015148D01*
X126325112Y-90090000D01*
X126384097Y-90386537D01*
X126496661Y-90555000D01*
X126552072Y-90637929D01*
X126615528Y-90680329D01*
X126659669Y-90724470D01*
X126702071Y-90787929D01*
X126790580Y-90847069D01*
X126961753Y-91103247D01*
X127248848Y-91295078D01*
X127587500Y-91362440D01*
X128162500Y-91362440D01*
X128501152Y-91295078D01*
X128669540Y-91182565D01*
X128740302Y-91253327D01*
X128973691Y-91350000D01*
X129339250Y-91350000D01*
X129498000Y-91191250D01*
X129498000Y-90367000D01*
X129478000Y-90367000D01*
X129478000Y-90113000D01*
X129498000Y-90113000D01*
X129498000Y-89288750D01*
X129752000Y-89288750D01*
X129752000Y-90113000D01*
X130433750Y-90113000D01*
X130443750Y-90123000D01*
X131318000Y-90123000D01*
X131318000Y-89298750D01*
X131159250Y-89140000D01*
X130793691Y-89140000D01*
X130560302Y-89236673D01*
X130540000Y-89256975D01*
X130509698Y-89226673D01*
X130276309Y-89130000D01*
X129910750Y-89130000D01*
X129752000Y-89288750D01*
X129498000Y-89288750D01*
X129339250Y-89130000D01*
X129030000Y-89130000D01*
X129030000Y-89045451D01*
X129267765Y-88998157D01*
X129419047Y-88897073D01*
X129460301Y-88938327D01*
X129693690Y-89035000D01*
X130284250Y-89035000D01*
X130443000Y-88876250D01*
X130443000Y-87527000D01*
X130423000Y-87527000D01*
X130423000Y-87273000D01*
X130443000Y-87273000D01*
X130443000Y-85923750D01*
X130284250Y-85765000D01*
X129693690Y-85765000D01*
X129460301Y-85861673D01*
X129419047Y-85902927D01*
X129267765Y-85801843D01*
X129020000Y-85752560D01*
X127860000Y-85752560D01*
X127860000Y-81385750D01*
X128035000Y-81385750D01*
X128035000Y-82226309D01*
X128131673Y-82459698D01*
X128310301Y-82638327D01*
X128543690Y-82735000D01*
X130284250Y-82735000D01*
X130443000Y-82576250D01*
X130443000Y-81227000D01*
X128193750Y-81227000D01*
X128035000Y-81385750D01*
X127860000Y-81385750D01*
X127860000Y-80354801D01*
X127989801Y-80225000D01*
X128035000Y-80225000D01*
X128035000Y-80814250D01*
X128193750Y-80973000D01*
X130443000Y-80973000D01*
X130443000Y-79623750D01*
X130284250Y-79465000D01*
X128956367Y-79465000D01*
X128985000Y-79395874D01*
X128985000Y-78984126D01*
X128827431Y-78603720D01*
X128536280Y-78312569D01*
X128155874Y-78155000D01*
X127744126Y-78155000D01*
X127363720Y-78312569D01*
X127072569Y-78603720D01*
X126915000Y-78984126D01*
X126915000Y-79150199D01*
X126615530Y-79449669D01*
X126552071Y-79492071D01*
X126384096Y-79743464D01*
X126340000Y-79965149D01*
X126340000Y-79965153D01*
X126325112Y-80040000D01*
X109113655Y-80040000D01*
X108702833Y-77399469D01*
X108565526Y-74142641D01*
X108639765Y-72580323D01*
X108859432Y-71046616D01*
X109178476Y-69723970D01*
X128895635Y-69723970D01*
X129055418Y-70042739D01*
X129846187Y-70352723D01*
X130695387Y-70336497D01*
X131404582Y-70042739D01*
X131564365Y-69723970D01*
X131544365Y-69703970D01*
X141795635Y-69703970D01*
X141955418Y-70022739D01*
X142746187Y-70332723D01*
X143595387Y-70316497D01*
X144304582Y-70022739D01*
X144464365Y-69703970D01*
X143130000Y-68369605D01*
X141795635Y-69703970D01*
X131544365Y-69703970D01*
X130230000Y-68389605D01*
X128895635Y-69723970D01*
X109178476Y-69723970D01*
X109220456Y-69549938D01*
X109718631Y-68100755D01*
X109843178Y-67826187D01*
X128087277Y-67826187D01*
X128103503Y-68675387D01*
X128397261Y-69384582D01*
X128716030Y-69544365D01*
X130050395Y-68210000D01*
X130409605Y-68210000D01*
X131743970Y-69544365D01*
X132062739Y-69384582D01*
X132372723Y-68593813D01*
X132357674Y-67806187D01*
X140987277Y-67806187D01*
X141003503Y-68655387D01*
X141297261Y-69364582D01*
X141616030Y-69524365D01*
X142950395Y-68190000D01*
X143309605Y-68190000D01*
X144643970Y-69524365D01*
X144962739Y-69364582D01*
X145272723Y-68573813D01*
X145256497Y-67724613D01*
X144962739Y-67015418D01*
X144643970Y-66855635D01*
X143309605Y-68190000D01*
X142950395Y-68190000D01*
X141616030Y-66855635D01*
X141297261Y-67015418D01*
X140987277Y-67806187D01*
X132357674Y-67806187D01*
X132356497Y-67744613D01*
X132062739Y-67035418D01*
X131743970Y-66875635D01*
X130409605Y-68210000D01*
X130050395Y-68210000D01*
X128716030Y-66875635D01*
X128397261Y-67035418D01*
X128087277Y-67826187D01*
X109843178Y-67826187D01*
X110349719Y-66709501D01*
X110739426Y-66030910D01*
X117668695Y-66030910D01*
X118035640Y-66526343D01*
X119441171Y-67119736D01*
X120966793Y-67130087D01*
X122035142Y-66696030D01*
X128895635Y-66696030D01*
X130230000Y-68030395D01*
X131564365Y-66696030D01*
X131554340Y-66676030D01*
X141795635Y-66676030D01*
X143130000Y-68010395D01*
X144464365Y-66676030D01*
X144304582Y-66357261D01*
X143513813Y-66047277D01*
X142664613Y-66063503D01*
X141955418Y-66357261D01*
X141795635Y-66676030D01*
X131554340Y-66676030D01*
X131404582Y-66377261D01*
X130613813Y-66067277D01*
X129764613Y-66083503D01*
X129055418Y-66377261D01*
X128895635Y-66696030D01*
X122035142Y-66696030D01*
X122380246Y-66555819D01*
X122424360Y-66526343D01*
X122791305Y-66030910D01*
X149568695Y-66030910D01*
X149935640Y-66526343D01*
X151341171Y-67119736D01*
X152866793Y-67130087D01*
X154280246Y-66555819D01*
X154324360Y-66526343D01*
X154691305Y-66030910D01*
X152130000Y-63469605D01*
X149568695Y-66030910D01*
X122791305Y-66030910D01*
X120230000Y-63469605D01*
X117668695Y-66030910D01*
X110739426Y-66030910D01*
X111109444Y-65386604D01*
X111993550Y-64142386D01*
X112094032Y-64026793D01*
X116389913Y-64026793D01*
X116964181Y-65440246D01*
X116993657Y-65484360D01*
X117489090Y-65851305D01*
X120050395Y-63290000D01*
X120409605Y-63290000D01*
X122970910Y-65851305D01*
X123466343Y-65484360D01*
X124059736Y-64078829D01*
X124070087Y-62553207D01*
X123495819Y-61139754D01*
X123466343Y-61095640D01*
X122970910Y-60728695D01*
X120409605Y-63290000D01*
X120050395Y-63290000D01*
X117489090Y-60728695D01*
X116993657Y-61095640D01*
X116400264Y-62501171D01*
X116389913Y-64026793D01*
X112094032Y-64026793D01*
X112997907Y-62986995D01*
X114106296Y-61941172D01*
X115298637Y-61021532D01*
X116056531Y-60549090D01*
X117668695Y-60549090D01*
X120230000Y-63110395D01*
X122791305Y-60549090D01*
X122424360Y-60053657D01*
X121018829Y-59460264D01*
X119493207Y-59449913D01*
X118079754Y-60024181D01*
X118035640Y-60053657D01*
X117668695Y-60549090D01*
X116056531Y-60549090D01*
X116565129Y-60232050D01*
X117895889Y-59576823D01*
X119281003Y-59059986D01*
X120710661Y-58685659D01*
X122175101Y-58457990D01*
X123653344Y-58381743D01*
X125487094Y-58537848D01*
X127202975Y-58981552D01*
X128803857Y-59686864D01*
X130247584Y-60607808D01*
X131186502Y-61608842D01*
X132369028Y-63034645D01*
X133089163Y-63971831D01*
X133105146Y-63998023D01*
X133130159Y-64025184D01*
X133152665Y-64054473D01*
X133175756Y-64074695D01*
X133918128Y-64880809D01*
X133940832Y-64923480D01*
X134009599Y-64980135D01*
X134023375Y-64995093D01*
X134061585Y-65022963D01*
X134098069Y-65053021D01*
X134115976Y-65062636D01*
X134187968Y-65115147D01*
X134234950Y-65126520D01*
X135452220Y-65780133D01*
X135501815Y-65821942D01*
X135571085Y-65843958D01*
X135574533Y-65845809D01*
X135635412Y-65864402D01*
X135695970Y-65883649D01*
X135699852Y-65884083D01*
X135769374Y-65905316D01*
X135833945Y-65899080D01*
X136769448Y-66003705D01*
X136831833Y-66011524D01*
X136836415Y-66011195D01*
X136840975Y-66011705D01*
X136903563Y-66006374D01*
X137924570Y-65933068D01*
X137965355Y-65941456D01*
X138059348Y-65923392D01*
X138086223Y-65921462D01*
X138125467Y-65910684D01*
X138165418Y-65903006D01*
X138190371Y-65892859D01*
X138282675Y-65867509D01*
X138315552Y-65841955D01*
X138807868Y-65641759D01*
X138812151Y-65641735D01*
X138933854Y-65590528D01*
X138992607Y-65566636D01*
X138996090Y-65564341D01*
X138999931Y-65562725D01*
X139052427Y-65527224D01*
X139162728Y-65454552D01*
X139165131Y-65451006D01*
X139652146Y-65121653D01*
X139697143Y-65105865D01*
X139764022Y-65045995D01*
X139781394Y-65034247D01*
X139814181Y-65001093D01*
X139848933Y-64969983D01*
X139861533Y-64953211D01*
X139924645Y-64889392D01*
X139942648Y-64845236D01*
X140557494Y-64026793D01*
X148289913Y-64026793D01*
X148864181Y-65440246D01*
X148893657Y-65484360D01*
X149389090Y-65851305D01*
X151950395Y-63290000D01*
X152309605Y-63290000D01*
X154870910Y-65851305D01*
X155366343Y-65484360D01*
X155959736Y-64078829D01*
X155970087Y-62553207D01*
X155395819Y-61139754D01*
X155366343Y-61095640D01*
X154870910Y-60728695D01*
X152309605Y-63290000D01*
X151950395Y-63290000D01*
X149389090Y-60728695D01*
X148893657Y-61095640D01*
X148300264Y-62501171D01*
X148289913Y-64026793D01*
X140557494Y-64026793D01*
X140560623Y-64022628D01*
X140582556Y-63998937D01*
X140601030Y-63968841D01*
X140622254Y-63940589D01*
X140636245Y-63911472D01*
X141217355Y-62964790D01*
X142209893Y-61563037D01*
X142715717Y-60956899D01*
X143194254Y-60549090D01*
X149568695Y-60549090D01*
X152130000Y-63110395D01*
X154691305Y-60549090D01*
X154324360Y-60053657D01*
X152918829Y-59460264D01*
X151393207Y-59449913D01*
X149979754Y-60024181D01*
X149935640Y-60053657D01*
X149568695Y-60549090D01*
X143194254Y-60549090D01*
X143283922Y-60472675D01*
X144814998Y-59577276D01*
X146466137Y-58891001D01*
X148213920Y-58455002D01*
X150015656Y-58304163D01*
X150054659Y-58311921D01*
X150104676Y-58301972D01*
X151544356Y-58376239D01*
G36*
X137704493Y-102760000D02*
X138116241Y-102760000D01*
X138360000Y-102659032D01*
X138360000Y-102726310D01*
X138361498Y-102729927D01*
X138347560Y-102800000D01*
X138347560Y-103250000D01*
X138367451Y-103350000D01*
X138347560Y-103450000D01*
X138347560Y-103900000D01*
X138367451Y-104000000D01*
X138347560Y-104100000D01*
X138347560Y-104550000D01*
X138367451Y-104650000D01*
X138347560Y-104750000D01*
X138347560Y-105200000D01*
X138396843Y-105447765D01*
X138497216Y-105597982D01*
X137709205Y-106385993D01*
X137567431Y-106043720D01*
X137450000Y-105926289D01*
X137450000Y-102654586D01*
X137704493Y-102760000D01*
X137704493Y-102760000D01*
G37*
X137704493Y-102760000D02*
X138116241Y-102760000D01*
X138360000Y-102659032D01*
X138360000Y-102726310D01*
X138361498Y-102729927D01*
X138347560Y-102800000D01*
X138347560Y-103250000D01*
X138367451Y-103350000D01*
X138347560Y-103450000D01*
X138347560Y-103900000D01*
X138367451Y-104000000D01*
X138347560Y-104100000D01*
X138347560Y-104550000D01*
X138367451Y-104650000D01*
X138347560Y-104750000D01*
X138347560Y-105200000D01*
X138396843Y-105447765D01*
X138497216Y-105597982D01*
X137709205Y-106385993D01*
X137567431Y-106043720D01*
X137450000Y-105926289D01*
X137450000Y-102654586D01*
X137704493Y-102760000D01*
G36*
X142152569Y-100776280D02*
X142443720Y-101067431D01*
X142824126Y-101225000D01*
X143235874Y-101225000D01*
X143570000Y-101086601D01*
X143570000Y-101975198D01*
X142630199Y-102915000D01*
X141092440Y-102915000D01*
X141092440Y-102800000D01*
X141078502Y-102729927D01*
X141080000Y-102726310D01*
X141080000Y-102646250D01*
X141057353Y-102623603D01*
X141043157Y-102552235D01*
X140924731Y-102375000D01*
X141043157Y-102197765D01*
X141057353Y-102126397D01*
X141080000Y-102103750D01*
X141080000Y-102023690D01*
X141078502Y-102020073D01*
X141092440Y-101950000D01*
X141092440Y-101500000D01*
X141072549Y-101400000D01*
X141092440Y-101300000D01*
X141092440Y-100850000D01*
X141072549Y-100750000D01*
X141092440Y-100650000D01*
X141092440Y-100535000D01*
X142052628Y-100535000D01*
X142152569Y-100776280D01*
X142152569Y-100776280D01*
G37*
X142152569Y-100776280D02*
X142443720Y-101067431D01*
X142824126Y-101225000D01*
X143235874Y-101225000D01*
X143570000Y-101086601D01*
X143570000Y-101975198D01*
X142630199Y-102915000D01*
X141092440Y-102915000D01*
X141092440Y-102800000D01*
X141078502Y-102729927D01*
X141080000Y-102726310D01*
X141080000Y-102646250D01*
X141057353Y-102623603D01*
X141043157Y-102552235D01*
X140924731Y-102375000D01*
X141043157Y-102197765D01*
X141057353Y-102126397D01*
X141080000Y-102103750D01*
X141080000Y-102023690D01*
X141078502Y-102020073D01*
X141092440Y-101950000D01*
X141092440Y-101500000D01*
X141072549Y-101400000D01*
X141092440Y-101300000D01*
X141092440Y-100850000D01*
X141072549Y-100750000D01*
X141092440Y-100650000D01*
X141092440Y-100535000D01*
X142052628Y-100535000D01*
X142152569Y-100776280D01*
G36*
X137532560Y-89080000D02*
X137581843Y-89327765D01*
X137722191Y-89537809D01*
X137932235Y-89678157D01*
X138180000Y-89727440D01*
X138668684Y-89727440D01*
X138531843Y-89932235D01*
X138482560Y-90180000D01*
X138482560Y-91080000D01*
X138531843Y-91327765D01*
X138672191Y-91537809D01*
X138882235Y-91678157D01*
X139130000Y-91727440D01*
X139930000Y-91727440D01*
X140177765Y-91678157D01*
X140387809Y-91537809D01*
X140528157Y-91327765D01*
X140577440Y-91080000D01*
X140577440Y-90180000D01*
X140528157Y-89932235D01*
X140391316Y-89727440D01*
X140880000Y-89727440D01*
X141127765Y-89678157D01*
X141337809Y-89537809D01*
X141436573Y-89390000D01*
X142323427Y-89390000D01*
X142418684Y-89532560D01*
X141930000Y-89532560D01*
X141682235Y-89581843D01*
X141472191Y-89722191D01*
X141331843Y-89932235D01*
X141282560Y-90180000D01*
X141282560Y-91080000D01*
X141331843Y-91327765D01*
X141472191Y-91537809D01*
X141570000Y-91603164D01*
X141570000Y-92078547D01*
X141295874Y-91965000D01*
X140884126Y-91965000D01*
X140503720Y-92122569D01*
X140212569Y-92413720D01*
X140055000Y-92794126D01*
X140055000Y-92885188D01*
X139992738Y-92734874D01*
X139701587Y-92443723D01*
X139321181Y-92286154D01*
X138909433Y-92286154D01*
X138529027Y-92443723D01*
X138237876Y-92734874D01*
X138080307Y-93115280D01*
X138080307Y-93527028D01*
X138237876Y-93907434D01*
X138529027Y-94198585D01*
X138909433Y-94356154D01*
X139075506Y-94356154D01*
X143570001Y-98850650D01*
X143570001Y-99293400D01*
X143235874Y-99155000D01*
X143055067Y-99155000D01*
X142911537Y-99059096D01*
X142689852Y-99015000D01*
X142689847Y-99015000D01*
X142615000Y-99000112D01*
X142540153Y-99015000D01*
X141092440Y-99015000D01*
X141092440Y-98900000D01*
X141043157Y-98652235D01*
X140902809Y-98442191D01*
X140760843Y-98347332D01*
X140865000Y-98095874D01*
X140865000Y-97684126D01*
X140707431Y-97303720D01*
X140416280Y-97012569D01*
X140035874Y-96855000D01*
X139624126Y-96855000D01*
X139243720Y-97012569D01*
X138952569Y-97303720D01*
X138795000Y-97684126D01*
X138795000Y-98095874D01*
X138870185Y-98277387D01*
X138747235Y-98301843D01*
X138537191Y-98442191D01*
X138396843Y-98652235D01*
X138347560Y-98900000D01*
X138347560Y-99350000D01*
X138367451Y-99450000D01*
X138347560Y-99550000D01*
X138347560Y-100000000D01*
X138367451Y-100100000D01*
X138347560Y-100200000D01*
X138347560Y-100650000D01*
X138367451Y-100750000D01*
X138359355Y-100790701D01*
X138116241Y-100690000D01*
X137704493Y-100690000D01*
X137450000Y-100795414D01*
X137450000Y-95173711D01*
X137567431Y-95056280D01*
X137725000Y-94675874D01*
X137725000Y-94264126D01*
X137567431Y-93883720D01*
X137276280Y-93592569D01*
X136895874Y-93435000D01*
X136484126Y-93435000D01*
X136103720Y-93592569D01*
X135986289Y-93710000D01*
X134424802Y-93710000D01*
X133809068Y-93094266D01*
X133946280Y-93037431D01*
X134237431Y-92746280D01*
X134395000Y-92365874D01*
X134395000Y-92214801D01*
X137532560Y-89077242D01*
X137532560Y-89080000D01*
X137532560Y-89080000D01*
G37*
X137532560Y-89080000D02*
X137581843Y-89327765D01*
X137722191Y-89537809D01*
X137932235Y-89678157D01*
X138180000Y-89727440D01*
X138668684Y-89727440D01*
X138531843Y-89932235D01*
X138482560Y-90180000D01*
X138482560Y-91080000D01*
X138531843Y-91327765D01*
X138672191Y-91537809D01*
X138882235Y-91678157D01*
X139130000Y-91727440D01*
X139930000Y-91727440D01*
X140177765Y-91678157D01*
X140387809Y-91537809D01*
X140528157Y-91327765D01*
X140577440Y-91080000D01*
X140577440Y-90180000D01*
X140528157Y-89932235D01*
X140391316Y-89727440D01*
X140880000Y-89727440D01*
X141127765Y-89678157D01*
X141337809Y-89537809D01*
X141436573Y-89390000D01*
X142323427Y-89390000D01*
X142418684Y-89532560D01*
X141930000Y-89532560D01*
X141682235Y-89581843D01*
X141472191Y-89722191D01*
X141331843Y-89932235D01*
X141282560Y-90180000D01*
X141282560Y-91080000D01*
X141331843Y-91327765D01*
X141472191Y-91537809D01*
X141570000Y-91603164D01*
X141570000Y-92078547D01*
X141295874Y-91965000D01*
X140884126Y-91965000D01*
X140503720Y-92122569D01*
X140212569Y-92413720D01*
X140055000Y-92794126D01*
X140055000Y-92885188D01*
X139992738Y-92734874D01*
X139701587Y-92443723D01*
X139321181Y-92286154D01*
X138909433Y-92286154D01*
X138529027Y-92443723D01*
X138237876Y-92734874D01*
X138080307Y-93115280D01*
X138080307Y-93527028D01*
X138237876Y-93907434D01*
X138529027Y-94198585D01*
X138909433Y-94356154D01*
X139075506Y-94356154D01*
X143570001Y-98850650D01*
X143570001Y-99293400D01*
X143235874Y-99155000D01*
X143055067Y-99155000D01*
X142911537Y-99059096D01*
X142689852Y-99015000D01*
X142689847Y-99015000D01*
X142615000Y-99000112D01*
X142540153Y-99015000D01*
X141092440Y-99015000D01*
X141092440Y-98900000D01*
X141043157Y-98652235D01*
X140902809Y-98442191D01*
X140760843Y-98347332D01*
X140865000Y-98095874D01*
X140865000Y-97684126D01*
X140707431Y-97303720D01*
X140416280Y-97012569D01*
X140035874Y-96855000D01*
X139624126Y-96855000D01*
X139243720Y-97012569D01*
X138952569Y-97303720D01*
X138795000Y-97684126D01*
X138795000Y-98095874D01*
X138870185Y-98277387D01*
X138747235Y-98301843D01*
X138537191Y-98442191D01*
X138396843Y-98652235D01*
X138347560Y-98900000D01*
X138347560Y-99350000D01*
X138367451Y-99450000D01*
X138347560Y-99550000D01*
X138347560Y-100000000D01*
X138367451Y-100100000D01*
X138347560Y-100200000D01*
X138347560Y-100650000D01*
X138367451Y-100750000D01*
X138359355Y-100790701D01*
X138116241Y-100690000D01*
X137704493Y-100690000D01*
X137450000Y-100795414D01*
X137450000Y-95173711D01*
X137567431Y-95056280D01*
X137725000Y-94675874D01*
X137725000Y-94264126D01*
X137567431Y-93883720D01*
X137276280Y-93592569D01*
X136895874Y-93435000D01*
X136484126Y-93435000D01*
X136103720Y-93592569D01*
X135986289Y-93710000D01*
X134424802Y-93710000D01*
X133809068Y-93094266D01*
X133946280Y-93037431D01*
X134237431Y-92746280D01*
X134395000Y-92365874D01*
X134395000Y-92214801D01*
X137532560Y-89077242D01*
X137532560Y-89080000D01*
G36*
X142781753Y-85613247D02*
X143016350Y-85770000D01*
X142690750Y-85770000D01*
X142532000Y-85928750D01*
X142532000Y-86753000D01*
X142552000Y-86753000D01*
X142552000Y-87007000D01*
X142532000Y-87007000D01*
X142532000Y-87027000D01*
X142278000Y-87027000D01*
X142278000Y-87007000D01*
X142258000Y-87007000D01*
X142258000Y-86753000D01*
X142278000Y-86753000D01*
X142278000Y-85928750D01*
X142119250Y-85770000D01*
X141753691Y-85770000D01*
X141520302Y-85866673D01*
X141341673Y-86045301D01*
X141340008Y-86049321D01*
X141318247Y-86016753D01*
X141031152Y-85824922D01*
X140729818Y-85764983D01*
X141021949Y-85472852D01*
X141097235Y-85523157D01*
X141345000Y-85572440D01*
X142245000Y-85572440D01*
X142492765Y-85523157D01*
X142650938Y-85417468D01*
X142781753Y-85613247D01*
X142781753Y-85613247D01*
G37*
X142781753Y-85613247D02*
X143016350Y-85770000D01*
X142690750Y-85770000D01*
X142532000Y-85928750D01*
X142532000Y-86753000D01*
X142552000Y-86753000D01*
X142552000Y-87007000D01*
X142532000Y-87007000D01*
X142532000Y-87027000D01*
X142278000Y-87027000D01*
X142278000Y-87007000D01*
X142258000Y-87007000D01*
X142258000Y-86753000D01*
X142278000Y-86753000D01*
X142278000Y-85928750D01*
X142119250Y-85770000D01*
X141753691Y-85770000D01*
X141520302Y-85866673D01*
X141341673Y-86045301D01*
X141340008Y-86049321D01*
X141318247Y-86016753D01*
X141031152Y-85824922D01*
X140729818Y-85764983D01*
X141021949Y-85472852D01*
X141097235Y-85523157D01*
X141345000Y-85572440D01*
X142245000Y-85572440D01*
X142492765Y-85523157D01*
X142650938Y-85417468D01*
X142781753Y-85613247D01*
G36*
X142948142Y-81967941D02*
X142762191Y-82092191D01*
X142621843Y-82302235D01*
X142572560Y-82550000D01*
X142572560Y-82972638D01*
X142430701Y-83114498D01*
X142245000Y-83077560D01*
X141345000Y-83077560D01*
X141097235Y-83126843D01*
X140887191Y-83267191D01*
X140746843Y-83477235D01*
X140708682Y-83669086D01*
X140547071Y-83777071D01*
X140504671Y-83840527D01*
X139592440Y-84752759D01*
X139592440Y-84152361D01*
X141576052Y-82168750D01*
X141896152Y-82105078D01*
X142183247Y-81913247D01*
X142252235Y-81810000D01*
X142790201Y-81810000D01*
X142948142Y-81967941D01*
X142948142Y-81967941D01*
G37*
X142948142Y-81967941D02*
X142762191Y-82092191D01*
X142621843Y-82302235D01*
X142572560Y-82550000D01*
X142572560Y-82972638D01*
X142430701Y-83114498D01*
X142245000Y-83077560D01*
X141345000Y-83077560D01*
X141097235Y-83126843D01*
X140887191Y-83267191D01*
X140746843Y-83477235D01*
X140708682Y-83669086D01*
X140547071Y-83777071D01*
X140504671Y-83840527D01*
X139592440Y-84752759D01*
X139592440Y-84152361D01*
X141576052Y-82168750D01*
X141896152Y-82105078D01*
X142183247Y-81913247D01*
X142252235Y-81810000D01*
X142790201Y-81810000D01*
X142948142Y-81967941D01*
G04 #@! TO.N,/SOLAR*
G36*
X144503000Y-74663000D02*
X137630000Y-74663000D01*
X137581399Y-74672667D01*
X137540197Y-74700197D01*
X137512667Y-74741399D01*
X137503000Y-74790000D01*
X137503000Y-77463000D01*
X135857000Y-77463000D01*
X135857000Y-71917000D01*
X144503000Y-71917000D01*
X144503000Y-74663000D01*
X144503000Y-74663000D01*
G37*
X144503000Y-74663000D02*
X137630000Y-74663000D01*
X137581399Y-74672667D01*
X137540197Y-74700197D01*
X137512667Y-74741399D01*
X137503000Y-74790000D01*
X137503000Y-77463000D01*
X135857000Y-77463000D01*
X135857000Y-71917000D01*
X144503000Y-71917000D01*
X144503000Y-74663000D01*
G04 #@! TO.N,/BATT*
G36*
X134903000Y-77463000D02*
X133257000Y-77463000D01*
X133257000Y-74890000D01*
X133247333Y-74841399D01*
X133219803Y-74800197D01*
X133178601Y-74772667D01*
X133130000Y-74763000D01*
X128857000Y-74763000D01*
X128857000Y-71917000D01*
X134903000Y-71917000D01*
X134903000Y-77463000D01*
X134903000Y-77463000D01*
G37*
X134903000Y-77463000D02*
X133257000Y-77463000D01*
X133257000Y-74890000D01*
X133247333Y-74841399D01*
X133219803Y-74800197D01*
X133178601Y-74772667D01*
X133130000Y-74763000D01*
X128857000Y-74763000D01*
X128857000Y-71917000D01*
X134903000Y-71917000D01*
X134903000Y-77463000D01*
G04 #@! TD*
M02*
