G04 #@! TF.GenerationSoftware,KiCad,Pcbnew,5.0.2-bee76a0~70~ubuntu16.04.1*
G04 #@! TF.CreationDate,2019-06-24T22:08:56+01:00*
G04 #@! TF.ProjectId,project,70726f6a-6563-4742-9e6b-696361645f70,rev?*
G04 #@! TF.SameCoordinates,Original*
G04 #@! TF.FileFunction,Soldermask,Bot*
G04 #@! TF.FilePolarity,Negative*
%FSLAX46Y46*%
G04 Gerber Fmt 4.6, Leading zero omitted, Abs format (unit mm)*
G04 Created by KiCad (PCBNEW 5.0.2-bee76a0~70~ubuntu16.04.1) date Mon 24 Jun 2019 22:08:56 BST*
%MOMM*%
%LPD*%
G01*
G04 APERTURE LIST*
%ADD10C,0.150000*%
%ADD11C,0.127000*%
%ADD12C,0.076200*%
%ADD13C,0.101600*%
%ADD14C,0.100000*%
%ADD15C,0.950000*%
%ADD16C,1.150000*%
%ADD17R,1.700000X1.700000*%
%ADD18O,1.700000X1.700000*%
%ADD19R,1.450000X0.450000*%
%ADD20R,9.540000X10.940000*%
%ADD21R,4.740000X0.590000*%
%ADD22C,3.000000*%
%ADD23R,3.000000X3.000000*%
%ADD24C,0.254000*%
G04 APERTURE END LIST*
D10*
G36*
X132290000Y-94500000D02*
X128290000Y-94500000D01*
X128290000Y-83750000D01*
X133540000Y-83750000D01*
X133540000Y-89000000D01*
X132290000Y-90500000D01*
X132290000Y-94500000D01*
G37*
X132290000Y-94500000D02*
X128290000Y-94500000D01*
X128290000Y-83750000D01*
X133540000Y-83750000D01*
X133540000Y-89000000D01*
X132290000Y-90500000D01*
X132290000Y-94500000D01*
G36*
X145290000Y-94500000D02*
X140290000Y-94500000D01*
X140290000Y-87750000D01*
X145290000Y-87750000D01*
X145290000Y-94500000D01*
G37*
X145290000Y-94500000D02*
X140290000Y-94500000D01*
X140290000Y-87750000D01*
X145290000Y-87750000D01*
X145290000Y-94500000D01*
G04 #@! TO.C,REF\002A\002A*
X148051623Y-74650000D02*
G75*
G03X148051623Y-74650000I-31623J0D01*
G01*
D11*
X148570000Y-74730000D02*
G75*
G03X148570000Y-74730000I-410000J0D01*
G01*
D10*
X148331623Y-74650000D02*
G75*
G03X148331623Y-74650000I-31623J0D01*
G01*
D12*
X148350000Y-74870000D02*
X148230000Y-74940000D01*
X148230000Y-74940000D02*
X148100000Y-74930000D01*
X148100000Y-74930000D02*
X147980000Y-74840000D01*
D13*
X148270000Y-74260000D02*
X148540000Y-74120000D01*
X148540000Y-74120000D02*
X148820000Y-74190000D01*
X148820000Y-74190000D02*
X148930000Y-74380000D01*
X148930000Y-74380000D02*
X148820000Y-74550000D01*
X148820000Y-74550000D02*
X148610000Y-74600000D01*
X148600000Y-74670000D02*
X148870000Y-74720000D01*
X148870000Y-74720000D02*
X148960000Y-74870000D01*
X148960000Y-74870000D02*
X148920000Y-75000000D01*
X148920000Y-75000000D02*
X148800000Y-75080000D01*
X148800000Y-75080000D02*
X148550000Y-75020000D01*
X148530000Y-75040000D02*
X148610000Y-75240000D01*
X148610000Y-75240000D02*
X148600000Y-75430000D01*
X148600000Y-75430000D02*
X148490000Y-75470000D01*
X148490000Y-75470000D02*
X148370000Y-75430000D01*
X148370000Y-75430000D02*
X148310000Y-75320000D01*
X148310000Y-75320000D02*
X148290000Y-75210000D01*
X148290000Y-75210000D02*
X148270000Y-75190000D01*
X148270000Y-75190000D02*
X148300000Y-75210000D01*
X148300000Y-75210000D02*
X148310000Y-75180000D01*
X148200000Y-74300000D02*
X148110000Y-74030000D01*
X148110000Y-74030000D02*
X147950000Y-73970000D01*
X147950000Y-73970000D02*
X147780000Y-74000000D01*
X147780000Y-74000000D02*
X147730000Y-74110000D01*
X147730000Y-74110000D02*
X147750000Y-74220000D01*
X147750000Y-74220000D02*
X147840000Y-74360000D01*
X147870000Y-74350000D02*
X147500000Y-74340000D01*
X147500000Y-74340000D02*
X147390000Y-74440000D01*
X147390000Y-74440000D02*
X147370000Y-74590000D01*
X147370000Y-74590000D02*
X147470000Y-74660000D01*
X147470000Y-74660000D02*
X147620000Y-74670000D01*
X147620000Y-74670000D02*
X147720000Y-74670000D01*
X147720000Y-74700000D02*
X147540000Y-74810000D01*
X147540000Y-74810000D02*
X147440000Y-74950000D01*
X147440000Y-74950000D02*
X147440000Y-75090000D01*
X147440000Y-75090000D02*
X147480000Y-75190000D01*
X147480000Y-75190000D02*
X147590000Y-75230000D01*
X147590000Y-75230000D02*
X147720000Y-75200000D01*
X147720000Y-75200000D02*
X147810000Y-75070000D01*
X148240000Y-75200000D02*
X148170000Y-75390000D01*
X148170000Y-75390000D02*
X148050000Y-75520000D01*
X148050000Y-75520000D02*
X147930000Y-75490000D01*
X147930000Y-75490000D02*
X147880000Y-75400000D01*
X147880000Y-75400000D02*
X147900000Y-75300000D01*
X147900000Y-75300000D02*
X147900000Y-75130000D01*
X148270000Y-75290000D02*
X148180000Y-75720000D01*
X148180000Y-75720000D02*
X147960000Y-76020000D01*
X147960000Y-76020000D02*
X147840000Y-76300000D01*
X147840000Y-76300000D02*
X147880000Y-76520000D01*
X147880000Y-76520000D02*
X147720000Y-76000000D01*
G04 #@! TD*
D14*
G04 #@! TO.C,R11*
G36*
X134625779Y-75326144D02*
X134648834Y-75329563D01*
X134671443Y-75335227D01*
X134693387Y-75343079D01*
X134714457Y-75353044D01*
X134734448Y-75365026D01*
X134753168Y-75378910D01*
X134770438Y-75394562D01*
X134786090Y-75411832D01*
X134799974Y-75430552D01*
X134811956Y-75450543D01*
X134821921Y-75471613D01*
X134829773Y-75493557D01*
X134835437Y-75516166D01*
X134838856Y-75539221D01*
X134840000Y-75562500D01*
X134840000Y-76037500D01*
X134838856Y-76060779D01*
X134835437Y-76083834D01*
X134829773Y-76106443D01*
X134821921Y-76128387D01*
X134811956Y-76149457D01*
X134799974Y-76169448D01*
X134786090Y-76188168D01*
X134770438Y-76205438D01*
X134753168Y-76221090D01*
X134734448Y-76234974D01*
X134714457Y-76246956D01*
X134693387Y-76256921D01*
X134671443Y-76264773D01*
X134648834Y-76270437D01*
X134625779Y-76273856D01*
X134602500Y-76275000D01*
X134027500Y-76275000D01*
X134004221Y-76273856D01*
X133981166Y-76270437D01*
X133958557Y-76264773D01*
X133936613Y-76256921D01*
X133915543Y-76246956D01*
X133895552Y-76234974D01*
X133876832Y-76221090D01*
X133859562Y-76205438D01*
X133843910Y-76188168D01*
X133830026Y-76169448D01*
X133818044Y-76149457D01*
X133808079Y-76128387D01*
X133800227Y-76106443D01*
X133794563Y-76083834D01*
X133791144Y-76060779D01*
X133790000Y-76037500D01*
X133790000Y-75562500D01*
X133791144Y-75539221D01*
X133794563Y-75516166D01*
X133800227Y-75493557D01*
X133808079Y-75471613D01*
X133818044Y-75450543D01*
X133830026Y-75430552D01*
X133843910Y-75411832D01*
X133859562Y-75394562D01*
X133876832Y-75378910D01*
X133895552Y-75365026D01*
X133915543Y-75353044D01*
X133936613Y-75343079D01*
X133958557Y-75335227D01*
X133981166Y-75329563D01*
X134004221Y-75326144D01*
X134027500Y-75325000D01*
X134602500Y-75325000D01*
X134625779Y-75326144D01*
X134625779Y-75326144D01*
G37*
D15*
X134315000Y-75800000D03*
D14*
G36*
X136375779Y-75326144D02*
X136398834Y-75329563D01*
X136421443Y-75335227D01*
X136443387Y-75343079D01*
X136464457Y-75353044D01*
X136484448Y-75365026D01*
X136503168Y-75378910D01*
X136520438Y-75394562D01*
X136536090Y-75411832D01*
X136549974Y-75430552D01*
X136561956Y-75450543D01*
X136571921Y-75471613D01*
X136579773Y-75493557D01*
X136585437Y-75516166D01*
X136588856Y-75539221D01*
X136590000Y-75562500D01*
X136590000Y-76037500D01*
X136588856Y-76060779D01*
X136585437Y-76083834D01*
X136579773Y-76106443D01*
X136571921Y-76128387D01*
X136561956Y-76149457D01*
X136549974Y-76169448D01*
X136536090Y-76188168D01*
X136520438Y-76205438D01*
X136503168Y-76221090D01*
X136484448Y-76234974D01*
X136464457Y-76246956D01*
X136443387Y-76256921D01*
X136421443Y-76264773D01*
X136398834Y-76270437D01*
X136375779Y-76273856D01*
X136352500Y-76275000D01*
X135777500Y-76275000D01*
X135754221Y-76273856D01*
X135731166Y-76270437D01*
X135708557Y-76264773D01*
X135686613Y-76256921D01*
X135665543Y-76246956D01*
X135645552Y-76234974D01*
X135626832Y-76221090D01*
X135609562Y-76205438D01*
X135593910Y-76188168D01*
X135580026Y-76169448D01*
X135568044Y-76149457D01*
X135558079Y-76128387D01*
X135550227Y-76106443D01*
X135544563Y-76083834D01*
X135541144Y-76060779D01*
X135540000Y-76037500D01*
X135540000Y-75562500D01*
X135541144Y-75539221D01*
X135544563Y-75516166D01*
X135550227Y-75493557D01*
X135558079Y-75471613D01*
X135568044Y-75450543D01*
X135580026Y-75430552D01*
X135593910Y-75411832D01*
X135609562Y-75394562D01*
X135626832Y-75378910D01*
X135645552Y-75365026D01*
X135665543Y-75353044D01*
X135686613Y-75343079D01*
X135708557Y-75335227D01*
X135731166Y-75329563D01*
X135754221Y-75326144D01*
X135777500Y-75325000D01*
X136352500Y-75325000D01*
X136375779Y-75326144D01*
X136375779Y-75326144D01*
G37*
D15*
X136065000Y-75800000D03*
G04 #@! TD*
D14*
G04 #@! TO.C,D1*
G36*
X147314505Y-65701204D02*
X147338773Y-65704804D01*
X147362572Y-65710765D01*
X147385671Y-65719030D01*
X147407850Y-65729520D01*
X147428893Y-65742132D01*
X147448599Y-65756747D01*
X147466777Y-65773223D01*
X147483253Y-65791401D01*
X147497868Y-65811107D01*
X147510480Y-65832150D01*
X147520970Y-65854329D01*
X147529235Y-65877428D01*
X147535196Y-65901227D01*
X147538796Y-65925495D01*
X147540000Y-65949999D01*
X147540000Y-66850001D01*
X147538796Y-66874505D01*
X147535196Y-66898773D01*
X147529235Y-66922572D01*
X147520970Y-66945671D01*
X147510480Y-66967850D01*
X147497868Y-66988893D01*
X147483253Y-67008599D01*
X147466777Y-67026777D01*
X147448599Y-67043253D01*
X147428893Y-67057868D01*
X147407850Y-67070480D01*
X147385671Y-67080970D01*
X147362572Y-67089235D01*
X147338773Y-67095196D01*
X147314505Y-67098796D01*
X147290001Y-67100000D01*
X146639999Y-67100000D01*
X146615495Y-67098796D01*
X146591227Y-67095196D01*
X146567428Y-67089235D01*
X146544329Y-67080970D01*
X146522150Y-67070480D01*
X146501107Y-67057868D01*
X146481401Y-67043253D01*
X146463223Y-67026777D01*
X146446747Y-67008599D01*
X146432132Y-66988893D01*
X146419520Y-66967850D01*
X146409030Y-66945671D01*
X146400765Y-66922572D01*
X146394804Y-66898773D01*
X146391204Y-66874505D01*
X146390000Y-66850001D01*
X146390000Y-65949999D01*
X146391204Y-65925495D01*
X146394804Y-65901227D01*
X146400765Y-65877428D01*
X146409030Y-65854329D01*
X146419520Y-65832150D01*
X146432132Y-65811107D01*
X146446747Y-65791401D01*
X146463223Y-65773223D01*
X146481401Y-65756747D01*
X146501107Y-65742132D01*
X146522150Y-65729520D01*
X146544329Y-65719030D01*
X146567428Y-65710765D01*
X146591227Y-65704804D01*
X146615495Y-65701204D01*
X146639999Y-65700000D01*
X147290001Y-65700000D01*
X147314505Y-65701204D01*
X147314505Y-65701204D01*
G37*
D16*
X146965000Y-66400000D03*
D14*
G36*
X149364505Y-65701204D02*
X149388773Y-65704804D01*
X149412572Y-65710765D01*
X149435671Y-65719030D01*
X149457850Y-65729520D01*
X149478893Y-65742132D01*
X149498599Y-65756747D01*
X149516777Y-65773223D01*
X149533253Y-65791401D01*
X149547868Y-65811107D01*
X149560480Y-65832150D01*
X149570970Y-65854329D01*
X149579235Y-65877428D01*
X149585196Y-65901227D01*
X149588796Y-65925495D01*
X149590000Y-65949999D01*
X149590000Y-66850001D01*
X149588796Y-66874505D01*
X149585196Y-66898773D01*
X149579235Y-66922572D01*
X149570970Y-66945671D01*
X149560480Y-66967850D01*
X149547868Y-66988893D01*
X149533253Y-67008599D01*
X149516777Y-67026777D01*
X149498599Y-67043253D01*
X149478893Y-67057868D01*
X149457850Y-67070480D01*
X149435671Y-67080970D01*
X149412572Y-67089235D01*
X149388773Y-67095196D01*
X149364505Y-67098796D01*
X149340001Y-67100000D01*
X148689999Y-67100000D01*
X148665495Y-67098796D01*
X148641227Y-67095196D01*
X148617428Y-67089235D01*
X148594329Y-67080970D01*
X148572150Y-67070480D01*
X148551107Y-67057868D01*
X148531401Y-67043253D01*
X148513223Y-67026777D01*
X148496747Y-67008599D01*
X148482132Y-66988893D01*
X148469520Y-66967850D01*
X148459030Y-66945671D01*
X148450765Y-66922572D01*
X148444804Y-66898773D01*
X148441204Y-66874505D01*
X148440000Y-66850001D01*
X148440000Y-65949999D01*
X148441204Y-65925495D01*
X148444804Y-65901227D01*
X148450765Y-65877428D01*
X148459030Y-65854329D01*
X148469520Y-65832150D01*
X148482132Y-65811107D01*
X148496747Y-65791401D01*
X148513223Y-65773223D01*
X148531401Y-65756747D01*
X148551107Y-65742132D01*
X148572150Y-65729520D01*
X148594329Y-65719030D01*
X148617428Y-65710765D01*
X148641227Y-65704804D01*
X148665495Y-65701204D01*
X148689999Y-65700000D01*
X149340001Y-65700000D01*
X149364505Y-65701204D01*
X149364505Y-65701204D01*
G37*
D16*
X149015000Y-66400000D03*
G04 #@! TD*
D14*
G04 #@! TO.C,D2*
G36*
X149364505Y-71701204D02*
X149388773Y-71704804D01*
X149412572Y-71710765D01*
X149435671Y-71719030D01*
X149457850Y-71729520D01*
X149478893Y-71742132D01*
X149498599Y-71756747D01*
X149516777Y-71773223D01*
X149533253Y-71791401D01*
X149547868Y-71811107D01*
X149560480Y-71832150D01*
X149570970Y-71854329D01*
X149579235Y-71877428D01*
X149585196Y-71901227D01*
X149588796Y-71925495D01*
X149590000Y-71949999D01*
X149590000Y-72850001D01*
X149588796Y-72874505D01*
X149585196Y-72898773D01*
X149579235Y-72922572D01*
X149570970Y-72945671D01*
X149560480Y-72967850D01*
X149547868Y-72988893D01*
X149533253Y-73008599D01*
X149516777Y-73026777D01*
X149498599Y-73043253D01*
X149478893Y-73057868D01*
X149457850Y-73070480D01*
X149435671Y-73080970D01*
X149412572Y-73089235D01*
X149388773Y-73095196D01*
X149364505Y-73098796D01*
X149340001Y-73100000D01*
X148689999Y-73100000D01*
X148665495Y-73098796D01*
X148641227Y-73095196D01*
X148617428Y-73089235D01*
X148594329Y-73080970D01*
X148572150Y-73070480D01*
X148551107Y-73057868D01*
X148531401Y-73043253D01*
X148513223Y-73026777D01*
X148496747Y-73008599D01*
X148482132Y-72988893D01*
X148469520Y-72967850D01*
X148459030Y-72945671D01*
X148450765Y-72922572D01*
X148444804Y-72898773D01*
X148441204Y-72874505D01*
X148440000Y-72850001D01*
X148440000Y-71949999D01*
X148441204Y-71925495D01*
X148444804Y-71901227D01*
X148450765Y-71877428D01*
X148459030Y-71854329D01*
X148469520Y-71832150D01*
X148482132Y-71811107D01*
X148496747Y-71791401D01*
X148513223Y-71773223D01*
X148531401Y-71756747D01*
X148551107Y-71742132D01*
X148572150Y-71729520D01*
X148594329Y-71719030D01*
X148617428Y-71710765D01*
X148641227Y-71704804D01*
X148665495Y-71701204D01*
X148689999Y-71700000D01*
X149340001Y-71700000D01*
X149364505Y-71701204D01*
X149364505Y-71701204D01*
G37*
D16*
X149015000Y-72400000D03*
D14*
G36*
X147314505Y-71701204D02*
X147338773Y-71704804D01*
X147362572Y-71710765D01*
X147385671Y-71719030D01*
X147407850Y-71729520D01*
X147428893Y-71742132D01*
X147448599Y-71756747D01*
X147466777Y-71773223D01*
X147483253Y-71791401D01*
X147497868Y-71811107D01*
X147510480Y-71832150D01*
X147520970Y-71854329D01*
X147529235Y-71877428D01*
X147535196Y-71901227D01*
X147538796Y-71925495D01*
X147540000Y-71949999D01*
X147540000Y-72850001D01*
X147538796Y-72874505D01*
X147535196Y-72898773D01*
X147529235Y-72922572D01*
X147520970Y-72945671D01*
X147510480Y-72967850D01*
X147497868Y-72988893D01*
X147483253Y-73008599D01*
X147466777Y-73026777D01*
X147448599Y-73043253D01*
X147428893Y-73057868D01*
X147407850Y-73070480D01*
X147385671Y-73080970D01*
X147362572Y-73089235D01*
X147338773Y-73095196D01*
X147314505Y-73098796D01*
X147290001Y-73100000D01*
X146639999Y-73100000D01*
X146615495Y-73098796D01*
X146591227Y-73095196D01*
X146567428Y-73089235D01*
X146544329Y-73080970D01*
X146522150Y-73070480D01*
X146501107Y-73057868D01*
X146481401Y-73043253D01*
X146463223Y-73026777D01*
X146446747Y-73008599D01*
X146432132Y-72988893D01*
X146419520Y-72967850D01*
X146409030Y-72945671D01*
X146400765Y-72922572D01*
X146394804Y-72898773D01*
X146391204Y-72874505D01*
X146390000Y-72850001D01*
X146390000Y-71949999D01*
X146391204Y-71925495D01*
X146394804Y-71901227D01*
X146400765Y-71877428D01*
X146409030Y-71854329D01*
X146419520Y-71832150D01*
X146432132Y-71811107D01*
X146446747Y-71791401D01*
X146463223Y-71773223D01*
X146481401Y-71756747D01*
X146501107Y-71742132D01*
X146522150Y-71729520D01*
X146544329Y-71719030D01*
X146567428Y-71710765D01*
X146591227Y-71704804D01*
X146615495Y-71701204D01*
X146639999Y-71700000D01*
X147290001Y-71700000D01*
X147314505Y-71701204D01*
X147314505Y-71701204D01*
G37*
D16*
X146965000Y-72400000D03*
G04 #@! TD*
D17*
G04 #@! TO.C,J1*
X133040000Y-61500000D03*
D18*
X135580000Y-61500000D03*
X138120000Y-61500000D03*
X140660000Y-61500000D03*
X143200000Y-61500000D03*
X145740000Y-61500000D03*
G04 #@! TD*
D14*
G04 #@! TO.C,R1*
G36*
X149175779Y-67726144D02*
X149198834Y-67729563D01*
X149221443Y-67735227D01*
X149243387Y-67743079D01*
X149264457Y-67753044D01*
X149284448Y-67765026D01*
X149303168Y-67778910D01*
X149320438Y-67794562D01*
X149336090Y-67811832D01*
X149349974Y-67830552D01*
X149361956Y-67850543D01*
X149371921Y-67871613D01*
X149379773Y-67893557D01*
X149385437Y-67916166D01*
X149388856Y-67939221D01*
X149390000Y-67962500D01*
X149390000Y-68437500D01*
X149388856Y-68460779D01*
X149385437Y-68483834D01*
X149379773Y-68506443D01*
X149371921Y-68528387D01*
X149361956Y-68549457D01*
X149349974Y-68569448D01*
X149336090Y-68588168D01*
X149320438Y-68605438D01*
X149303168Y-68621090D01*
X149284448Y-68634974D01*
X149264457Y-68646956D01*
X149243387Y-68656921D01*
X149221443Y-68664773D01*
X149198834Y-68670437D01*
X149175779Y-68673856D01*
X149152500Y-68675000D01*
X148577500Y-68675000D01*
X148554221Y-68673856D01*
X148531166Y-68670437D01*
X148508557Y-68664773D01*
X148486613Y-68656921D01*
X148465543Y-68646956D01*
X148445552Y-68634974D01*
X148426832Y-68621090D01*
X148409562Y-68605438D01*
X148393910Y-68588168D01*
X148380026Y-68569448D01*
X148368044Y-68549457D01*
X148358079Y-68528387D01*
X148350227Y-68506443D01*
X148344563Y-68483834D01*
X148341144Y-68460779D01*
X148340000Y-68437500D01*
X148340000Y-67962500D01*
X148341144Y-67939221D01*
X148344563Y-67916166D01*
X148350227Y-67893557D01*
X148358079Y-67871613D01*
X148368044Y-67850543D01*
X148380026Y-67830552D01*
X148393910Y-67811832D01*
X148409562Y-67794562D01*
X148426832Y-67778910D01*
X148445552Y-67765026D01*
X148465543Y-67753044D01*
X148486613Y-67743079D01*
X148508557Y-67735227D01*
X148531166Y-67729563D01*
X148554221Y-67726144D01*
X148577500Y-67725000D01*
X149152500Y-67725000D01*
X149175779Y-67726144D01*
X149175779Y-67726144D01*
G37*
D15*
X148865000Y-68200000D03*
D14*
G36*
X147425779Y-67726144D02*
X147448834Y-67729563D01*
X147471443Y-67735227D01*
X147493387Y-67743079D01*
X147514457Y-67753044D01*
X147534448Y-67765026D01*
X147553168Y-67778910D01*
X147570438Y-67794562D01*
X147586090Y-67811832D01*
X147599974Y-67830552D01*
X147611956Y-67850543D01*
X147621921Y-67871613D01*
X147629773Y-67893557D01*
X147635437Y-67916166D01*
X147638856Y-67939221D01*
X147640000Y-67962500D01*
X147640000Y-68437500D01*
X147638856Y-68460779D01*
X147635437Y-68483834D01*
X147629773Y-68506443D01*
X147621921Y-68528387D01*
X147611956Y-68549457D01*
X147599974Y-68569448D01*
X147586090Y-68588168D01*
X147570438Y-68605438D01*
X147553168Y-68621090D01*
X147534448Y-68634974D01*
X147514457Y-68646956D01*
X147493387Y-68656921D01*
X147471443Y-68664773D01*
X147448834Y-68670437D01*
X147425779Y-68673856D01*
X147402500Y-68675000D01*
X146827500Y-68675000D01*
X146804221Y-68673856D01*
X146781166Y-68670437D01*
X146758557Y-68664773D01*
X146736613Y-68656921D01*
X146715543Y-68646956D01*
X146695552Y-68634974D01*
X146676832Y-68621090D01*
X146659562Y-68605438D01*
X146643910Y-68588168D01*
X146630026Y-68569448D01*
X146618044Y-68549457D01*
X146608079Y-68528387D01*
X146600227Y-68506443D01*
X146594563Y-68483834D01*
X146591144Y-68460779D01*
X146590000Y-68437500D01*
X146590000Y-67962500D01*
X146591144Y-67939221D01*
X146594563Y-67916166D01*
X146600227Y-67893557D01*
X146608079Y-67871613D01*
X146618044Y-67850543D01*
X146630026Y-67830552D01*
X146643910Y-67811832D01*
X146659562Y-67794562D01*
X146676832Y-67778910D01*
X146695552Y-67765026D01*
X146715543Y-67753044D01*
X146736613Y-67743079D01*
X146758557Y-67735227D01*
X146781166Y-67729563D01*
X146804221Y-67726144D01*
X146827500Y-67725000D01*
X147402500Y-67725000D01*
X147425779Y-67726144D01*
X147425779Y-67726144D01*
G37*
D15*
X147115000Y-68200000D03*
G04 #@! TD*
D14*
G04 #@! TO.C,R2*
G36*
X147425779Y-69726144D02*
X147448834Y-69729563D01*
X147471443Y-69735227D01*
X147493387Y-69743079D01*
X147514457Y-69753044D01*
X147534448Y-69765026D01*
X147553168Y-69778910D01*
X147570438Y-69794562D01*
X147586090Y-69811832D01*
X147599974Y-69830552D01*
X147611956Y-69850543D01*
X147621921Y-69871613D01*
X147629773Y-69893557D01*
X147635437Y-69916166D01*
X147638856Y-69939221D01*
X147640000Y-69962500D01*
X147640000Y-70437500D01*
X147638856Y-70460779D01*
X147635437Y-70483834D01*
X147629773Y-70506443D01*
X147621921Y-70528387D01*
X147611956Y-70549457D01*
X147599974Y-70569448D01*
X147586090Y-70588168D01*
X147570438Y-70605438D01*
X147553168Y-70621090D01*
X147534448Y-70634974D01*
X147514457Y-70646956D01*
X147493387Y-70656921D01*
X147471443Y-70664773D01*
X147448834Y-70670437D01*
X147425779Y-70673856D01*
X147402500Y-70675000D01*
X146827500Y-70675000D01*
X146804221Y-70673856D01*
X146781166Y-70670437D01*
X146758557Y-70664773D01*
X146736613Y-70656921D01*
X146715543Y-70646956D01*
X146695552Y-70634974D01*
X146676832Y-70621090D01*
X146659562Y-70605438D01*
X146643910Y-70588168D01*
X146630026Y-70569448D01*
X146618044Y-70549457D01*
X146608079Y-70528387D01*
X146600227Y-70506443D01*
X146594563Y-70483834D01*
X146591144Y-70460779D01*
X146590000Y-70437500D01*
X146590000Y-69962500D01*
X146591144Y-69939221D01*
X146594563Y-69916166D01*
X146600227Y-69893557D01*
X146608079Y-69871613D01*
X146618044Y-69850543D01*
X146630026Y-69830552D01*
X146643910Y-69811832D01*
X146659562Y-69794562D01*
X146676832Y-69778910D01*
X146695552Y-69765026D01*
X146715543Y-69753044D01*
X146736613Y-69743079D01*
X146758557Y-69735227D01*
X146781166Y-69729563D01*
X146804221Y-69726144D01*
X146827500Y-69725000D01*
X147402500Y-69725000D01*
X147425779Y-69726144D01*
X147425779Y-69726144D01*
G37*
D15*
X147115000Y-70200000D03*
D14*
G36*
X149175779Y-69726144D02*
X149198834Y-69729563D01*
X149221443Y-69735227D01*
X149243387Y-69743079D01*
X149264457Y-69753044D01*
X149284448Y-69765026D01*
X149303168Y-69778910D01*
X149320438Y-69794562D01*
X149336090Y-69811832D01*
X149349974Y-69830552D01*
X149361956Y-69850543D01*
X149371921Y-69871613D01*
X149379773Y-69893557D01*
X149385437Y-69916166D01*
X149388856Y-69939221D01*
X149390000Y-69962500D01*
X149390000Y-70437500D01*
X149388856Y-70460779D01*
X149385437Y-70483834D01*
X149379773Y-70506443D01*
X149371921Y-70528387D01*
X149361956Y-70549457D01*
X149349974Y-70569448D01*
X149336090Y-70588168D01*
X149320438Y-70605438D01*
X149303168Y-70621090D01*
X149284448Y-70634974D01*
X149264457Y-70646956D01*
X149243387Y-70656921D01*
X149221443Y-70664773D01*
X149198834Y-70670437D01*
X149175779Y-70673856D01*
X149152500Y-70675000D01*
X148577500Y-70675000D01*
X148554221Y-70673856D01*
X148531166Y-70670437D01*
X148508557Y-70664773D01*
X148486613Y-70656921D01*
X148465543Y-70646956D01*
X148445552Y-70634974D01*
X148426832Y-70621090D01*
X148409562Y-70605438D01*
X148393910Y-70588168D01*
X148380026Y-70569448D01*
X148368044Y-70549457D01*
X148358079Y-70528387D01*
X148350227Y-70506443D01*
X148344563Y-70483834D01*
X148341144Y-70460779D01*
X148340000Y-70437500D01*
X148340000Y-69962500D01*
X148341144Y-69939221D01*
X148344563Y-69916166D01*
X148350227Y-69893557D01*
X148358079Y-69871613D01*
X148368044Y-69850543D01*
X148380026Y-69830552D01*
X148393910Y-69811832D01*
X148409562Y-69794562D01*
X148426832Y-69778910D01*
X148445552Y-69765026D01*
X148465543Y-69753044D01*
X148486613Y-69743079D01*
X148508557Y-69735227D01*
X148531166Y-69729563D01*
X148554221Y-69726144D01*
X148577500Y-69725000D01*
X149152500Y-69725000D01*
X149175779Y-69726144D01*
X149175779Y-69726144D01*
G37*
D15*
X148865000Y-70200000D03*
G04 #@! TD*
D19*
G04 #@! TO.C,U3*
X141709660Y-67652360D03*
X141709660Y-68302360D03*
X141709660Y-68952360D03*
X141709660Y-69602360D03*
X141709660Y-70252360D03*
X141709660Y-70902360D03*
X141709660Y-71552360D03*
X141709660Y-72202360D03*
X141709660Y-72852360D03*
X141709660Y-73502360D03*
X135809660Y-73502360D03*
X135809660Y-72852360D03*
X135809660Y-72202360D03*
X135809660Y-71552360D03*
X135809660Y-70902360D03*
X135809660Y-70252360D03*
X135809660Y-69602360D03*
X135809660Y-68952360D03*
X135809660Y-68302360D03*
X135809660Y-67652360D03*
G04 #@! TD*
D20*
G04 #@! TO.C,U4*
X140415000Y-83000000D03*
D21*
X131265000Y-81300000D03*
X131265000Y-82150000D03*
X131265000Y-83850000D03*
X131265000Y-84700000D03*
X131265000Y-85550000D03*
X131265000Y-83000000D03*
X131265000Y-80450000D03*
G04 #@! TD*
D22*
G04 #@! TO.C,BT1*
X135370000Y-93000000D03*
D23*
X130290000Y-93000000D03*
G04 #@! TD*
G04 #@! TO.C,SC1*
X143290000Y-93000000D03*
D22*
X148370000Y-93000000D03*
G04 #@! TD*
D24*
G36*
X149663000Y-88473000D02*
X135717000Y-88473000D01*
X135717000Y-77727000D01*
X149663000Y-77727000D01*
X149663000Y-88473000D01*
X149663000Y-88473000D01*
G37*
X149663000Y-88473000D02*
X135717000Y-88473000D01*
X135717000Y-77727000D01*
X149663000Y-77727000D01*
X149663000Y-88473000D01*
M02*
