M48
;DRILL file {KiCad 5.0.2-bee76a0~70~ubuntu16.04.1} date Sun 19 May 2019 16:37:27 BST
;FORMAT={-:-/ absolute / inch / decimal}
FMAT,2
INCH,TZ
T1C0.0157
T2C0.0394
T3C0.0472
T4C0.0598
T5C0.1260
%
G90
G05
T1
X4.5484Y-3.2476
X4.7138Y-3.4996
X5.0374Y-3.1177
X5.1193Y-3.1059
X5.1272Y-4.0272
X5.1421Y-4.185
X5.1732Y-3.9374
X5.1831Y-4.072
X5.1854Y-4.1508
X5.2098Y-3.7949
X5.2114Y-3.9811
X5.2165Y-3.3441
X5.2283Y-3.2713
X5.2504Y-3.6283
X5.2638Y-3.223
X5.3122Y-3.7909
X5.3484Y-4.0059
X5.3748Y-3.2744
X5.3815Y-3.7193
X5.3815Y-4.198
X5.4063Y-3.2291
X5.4157Y-3.1496
X5.4295Y-4.0049
X5.4343Y-3.7909
X5.477Y-3.6741
X5.4894Y-4.3303
X5.5051Y-3.8539
X5.5474Y-3.1335
X5.5547Y-3.6614
X5.5768Y-3.9937
X5.5888Y-3.2457
X5.6311Y-3.9445
X5.7618Y-3.41
T2
X5.9003Y-3.8118
X5.9645Y-3.7352
X6.0288Y-3.6586
X6.0931Y-3.5819
X6.1574Y-3.5053
X6.2217Y-3.4287
T3
X5.2795Y-3.0508
X5.3795Y-3.0508
X5.4795Y-3.0508
T4
X5.635Y-2.6846
X5.635Y-2.8846
X5.1272Y-2.6854
X5.1272Y-2.8854
T5
X5.9894Y-2.4917
X4.7335Y-2.4917
T0
M30
