G04 #@! TF.GenerationSoftware,KiCad,Pcbnew,5.0.2-bee76a0~70~ubuntu16.04.1*
G04 #@! TF.CreationDate,2019-06-24T22:08:56+01:00*
G04 #@! TF.ProjectId,project,70726f6a-6563-4742-9e6b-696361645f70,rev?*
G04 #@! TF.SameCoordinates,Original*
G04 #@! TF.FileFunction,Copper,L2,Bot*
G04 #@! TF.FilePolarity,Positive*
%FSLAX46Y46*%
G04 Gerber Fmt 4.6, Leading zero omitted, Abs format (unit mm)*
G04 Created by KiCad (PCBNEW 5.0.2-bee76a0~70~ubuntu16.04.1) date Mon 24 Jun 2019 22:08:56 BST*
%MOMM*%
%LPD*%
G01*
G04 APERTURE LIST*
G04 #@! TA.AperFunction,Conductor*
%ADD10C,0.100000*%
G04 #@! TD*
G04 #@! TA.AperFunction,SMDPad,CuDef*
%ADD11C,0.950000*%
G04 #@! TD*
G04 #@! TA.AperFunction,SMDPad,CuDef*
%ADD12C,1.150000*%
G04 #@! TD*
G04 #@! TA.AperFunction,ComponentPad*
%ADD13R,1.700000X1.700000*%
G04 #@! TD*
G04 #@! TA.AperFunction,ComponentPad*
%ADD14O,1.700000X1.700000*%
G04 #@! TD*
G04 #@! TA.AperFunction,SMDPad,CuDef*
%ADD15R,1.450000X0.450000*%
G04 #@! TD*
G04 #@! TA.AperFunction,SMDPad,CuDef*
%ADD16R,9.400000X10.800000*%
G04 #@! TD*
G04 #@! TA.AperFunction,SMDPad,CuDef*
%ADD17R,4.600000X0.450000*%
G04 #@! TD*
G04 #@! TA.AperFunction,ComponentPad*
%ADD18C,3.000000*%
G04 #@! TD*
G04 #@! TA.AperFunction,ComponentPad*
%ADD19R,3.000000X3.000000*%
G04 #@! TD*
G04 #@! TA.AperFunction,ViaPad*
%ADD20C,0.800000*%
G04 #@! TD*
G04 #@! TA.AperFunction,Conductor*
%ADD21C,0.250000*%
G04 #@! TD*
G04 #@! TA.AperFunction,Conductor*
%ADD22C,0.350000*%
G04 #@! TD*
G04 #@! TA.AperFunction,Conductor*
%ADD23C,0.254000*%
G04 #@! TD*
G04 APERTURE END LIST*
D10*
G04 #@! TO.N,/INPUT*
G04 #@! TO.C,R11*
G36*
X134625779Y-75326144D02*
X134648834Y-75329563D01*
X134671443Y-75335227D01*
X134693387Y-75343079D01*
X134714457Y-75353044D01*
X134734448Y-75365026D01*
X134753168Y-75378910D01*
X134770438Y-75394562D01*
X134786090Y-75411832D01*
X134799974Y-75430552D01*
X134811956Y-75450543D01*
X134821921Y-75471613D01*
X134829773Y-75493557D01*
X134835437Y-75516166D01*
X134838856Y-75539221D01*
X134840000Y-75562500D01*
X134840000Y-76037500D01*
X134838856Y-76060779D01*
X134835437Y-76083834D01*
X134829773Y-76106443D01*
X134821921Y-76128387D01*
X134811956Y-76149457D01*
X134799974Y-76169448D01*
X134786090Y-76188168D01*
X134770438Y-76205438D01*
X134753168Y-76221090D01*
X134734448Y-76234974D01*
X134714457Y-76246956D01*
X134693387Y-76256921D01*
X134671443Y-76264773D01*
X134648834Y-76270437D01*
X134625779Y-76273856D01*
X134602500Y-76275000D01*
X134027500Y-76275000D01*
X134004221Y-76273856D01*
X133981166Y-76270437D01*
X133958557Y-76264773D01*
X133936613Y-76256921D01*
X133915543Y-76246956D01*
X133895552Y-76234974D01*
X133876832Y-76221090D01*
X133859562Y-76205438D01*
X133843910Y-76188168D01*
X133830026Y-76169448D01*
X133818044Y-76149457D01*
X133808079Y-76128387D01*
X133800227Y-76106443D01*
X133794563Y-76083834D01*
X133791144Y-76060779D01*
X133790000Y-76037500D01*
X133790000Y-75562500D01*
X133791144Y-75539221D01*
X133794563Y-75516166D01*
X133800227Y-75493557D01*
X133808079Y-75471613D01*
X133818044Y-75450543D01*
X133830026Y-75430552D01*
X133843910Y-75411832D01*
X133859562Y-75394562D01*
X133876832Y-75378910D01*
X133895552Y-75365026D01*
X133915543Y-75353044D01*
X133936613Y-75343079D01*
X133958557Y-75335227D01*
X133981166Y-75329563D01*
X134004221Y-75326144D01*
X134027500Y-75325000D01*
X134602500Y-75325000D01*
X134625779Y-75326144D01*
X134625779Y-75326144D01*
G37*
D11*
G04 #@! TD*
G04 #@! TO.P,R11,1*
G04 #@! TO.N,/INPUT*
X134315000Y-75800000D03*
D10*
G04 #@! TO.N,/PWM*
G04 #@! TO.C,R11*
G36*
X136375779Y-75326144D02*
X136398834Y-75329563D01*
X136421443Y-75335227D01*
X136443387Y-75343079D01*
X136464457Y-75353044D01*
X136484448Y-75365026D01*
X136503168Y-75378910D01*
X136520438Y-75394562D01*
X136536090Y-75411832D01*
X136549974Y-75430552D01*
X136561956Y-75450543D01*
X136571921Y-75471613D01*
X136579773Y-75493557D01*
X136585437Y-75516166D01*
X136588856Y-75539221D01*
X136590000Y-75562500D01*
X136590000Y-76037500D01*
X136588856Y-76060779D01*
X136585437Y-76083834D01*
X136579773Y-76106443D01*
X136571921Y-76128387D01*
X136561956Y-76149457D01*
X136549974Y-76169448D01*
X136536090Y-76188168D01*
X136520438Y-76205438D01*
X136503168Y-76221090D01*
X136484448Y-76234974D01*
X136464457Y-76246956D01*
X136443387Y-76256921D01*
X136421443Y-76264773D01*
X136398834Y-76270437D01*
X136375779Y-76273856D01*
X136352500Y-76275000D01*
X135777500Y-76275000D01*
X135754221Y-76273856D01*
X135731166Y-76270437D01*
X135708557Y-76264773D01*
X135686613Y-76256921D01*
X135665543Y-76246956D01*
X135645552Y-76234974D01*
X135626832Y-76221090D01*
X135609562Y-76205438D01*
X135593910Y-76188168D01*
X135580026Y-76169448D01*
X135568044Y-76149457D01*
X135558079Y-76128387D01*
X135550227Y-76106443D01*
X135544563Y-76083834D01*
X135541144Y-76060779D01*
X135540000Y-76037500D01*
X135540000Y-75562500D01*
X135541144Y-75539221D01*
X135544563Y-75516166D01*
X135550227Y-75493557D01*
X135558079Y-75471613D01*
X135568044Y-75450543D01*
X135580026Y-75430552D01*
X135593910Y-75411832D01*
X135609562Y-75394562D01*
X135626832Y-75378910D01*
X135645552Y-75365026D01*
X135665543Y-75353044D01*
X135686613Y-75343079D01*
X135708557Y-75335227D01*
X135731166Y-75329563D01*
X135754221Y-75326144D01*
X135777500Y-75325000D01*
X136352500Y-75325000D01*
X136375779Y-75326144D01*
X136375779Y-75326144D01*
G37*
D11*
G04 #@! TD*
G04 #@! TO.P,R11,2*
G04 #@! TO.N,/PWM*
X136065000Y-75800000D03*
D10*
G04 #@! TO.N,GND*
G04 #@! TO.C,D1*
G36*
X147314505Y-65701204D02*
X147338773Y-65704804D01*
X147362572Y-65710765D01*
X147385671Y-65719030D01*
X147407850Y-65729520D01*
X147428893Y-65742132D01*
X147448599Y-65756747D01*
X147466777Y-65773223D01*
X147483253Y-65791401D01*
X147497868Y-65811107D01*
X147510480Y-65832150D01*
X147520970Y-65854329D01*
X147529235Y-65877428D01*
X147535196Y-65901227D01*
X147538796Y-65925495D01*
X147540000Y-65949999D01*
X147540000Y-66850001D01*
X147538796Y-66874505D01*
X147535196Y-66898773D01*
X147529235Y-66922572D01*
X147520970Y-66945671D01*
X147510480Y-66967850D01*
X147497868Y-66988893D01*
X147483253Y-67008599D01*
X147466777Y-67026777D01*
X147448599Y-67043253D01*
X147428893Y-67057868D01*
X147407850Y-67070480D01*
X147385671Y-67080970D01*
X147362572Y-67089235D01*
X147338773Y-67095196D01*
X147314505Y-67098796D01*
X147290001Y-67100000D01*
X146639999Y-67100000D01*
X146615495Y-67098796D01*
X146591227Y-67095196D01*
X146567428Y-67089235D01*
X146544329Y-67080970D01*
X146522150Y-67070480D01*
X146501107Y-67057868D01*
X146481401Y-67043253D01*
X146463223Y-67026777D01*
X146446747Y-67008599D01*
X146432132Y-66988893D01*
X146419520Y-66967850D01*
X146409030Y-66945671D01*
X146400765Y-66922572D01*
X146394804Y-66898773D01*
X146391204Y-66874505D01*
X146390000Y-66850001D01*
X146390000Y-65949999D01*
X146391204Y-65925495D01*
X146394804Y-65901227D01*
X146400765Y-65877428D01*
X146409030Y-65854329D01*
X146419520Y-65832150D01*
X146432132Y-65811107D01*
X146446747Y-65791401D01*
X146463223Y-65773223D01*
X146481401Y-65756747D01*
X146501107Y-65742132D01*
X146522150Y-65729520D01*
X146544329Y-65719030D01*
X146567428Y-65710765D01*
X146591227Y-65704804D01*
X146615495Y-65701204D01*
X146639999Y-65700000D01*
X147290001Y-65700000D01*
X147314505Y-65701204D01*
X147314505Y-65701204D01*
G37*
D12*
G04 #@! TD*
G04 #@! TO.P,D1,1*
G04 #@! TO.N,GND*
X146965000Y-66400000D03*
D10*
G04 #@! TO.N,Net-(D1-Pad2)*
G04 #@! TO.C,D1*
G36*
X149364505Y-65701204D02*
X149388773Y-65704804D01*
X149412572Y-65710765D01*
X149435671Y-65719030D01*
X149457850Y-65729520D01*
X149478893Y-65742132D01*
X149498599Y-65756747D01*
X149516777Y-65773223D01*
X149533253Y-65791401D01*
X149547868Y-65811107D01*
X149560480Y-65832150D01*
X149570970Y-65854329D01*
X149579235Y-65877428D01*
X149585196Y-65901227D01*
X149588796Y-65925495D01*
X149590000Y-65949999D01*
X149590000Y-66850001D01*
X149588796Y-66874505D01*
X149585196Y-66898773D01*
X149579235Y-66922572D01*
X149570970Y-66945671D01*
X149560480Y-66967850D01*
X149547868Y-66988893D01*
X149533253Y-67008599D01*
X149516777Y-67026777D01*
X149498599Y-67043253D01*
X149478893Y-67057868D01*
X149457850Y-67070480D01*
X149435671Y-67080970D01*
X149412572Y-67089235D01*
X149388773Y-67095196D01*
X149364505Y-67098796D01*
X149340001Y-67100000D01*
X148689999Y-67100000D01*
X148665495Y-67098796D01*
X148641227Y-67095196D01*
X148617428Y-67089235D01*
X148594329Y-67080970D01*
X148572150Y-67070480D01*
X148551107Y-67057868D01*
X148531401Y-67043253D01*
X148513223Y-67026777D01*
X148496747Y-67008599D01*
X148482132Y-66988893D01*
X148469520Y-66967850D01*
X148459030Y-66945671D01*
X148450765Y-66922572D01*
X148444804Y-66898773D01*
X148441204Y-66874505D01*
X148440000Y-66850001D01*
X148440000Y-65949999D01*
X148441204Y-65925495D01*
X148444804Y-65901227D01*
X148450765Y-65877428D01*
X148459030Y-65854329D01*
X148469520Y-65832150D01*
X148482132Y-65811107D01*
X148496747Y-65791401D01*
X148513223Y-65773223D01*
X148531401Y-65756747D01*
X148551107Y-65742132D01*
X148572150Y-65729520D01*
X148594329Y-65719030D01*
X148617428Y-65710765D01*
X148641227Y-65704804D01*
X148665495Y-65701204D01*
X148689999Y-65700000D01*
X149340001Y-65700000D01*
X149364505Y-65701204D01*
X149364505Y-65701204D01*
G37*
D12*
G04 #@! TD*
G04 #@! TO.P,D1,2*
G04 #@! TO.N,Net-(D1-Pad2)*
X149015000Y-66400000D03*
D10*
G04 #@! TO.N,Net-(D2-Pad2)*
G04 #@! TO.C,D2*
G36*
X149364505Y-71701204D02*
X149388773Y-71704804D01*
X149412572Y-71710765D01*
X149435671Y-71719030D01*
X149457850Y-71729520D01*
X149478893Y-71742132D01*
X149498599Y-71756747D01*
X149516777Y-71773223D01*
X149533253Y-71791401D01*
X149547868Y-71811107D01*
X149560480Y-71832150D01*
X149570970Y-71854329D01*
X149579235Y-71877428D01*
X149585196Y-71901227D01*
X149588796Y-71925495D01*
X149590000Y-71949999D01*
X149590000Y-72850001D01*
X149588796Y-72874505D01*
X149585196Y-72898773D01*
X149579235Y-72922572D01*
X149570970Y-72945671D01*
X149560480Y-72967850D01*
X149547868Y-72988893D01*
X149533253Y-73008599D01*
X149516777Y-73026777D01*
X149498599Y-73043253D01*
X149478893Y-73057868D01*
X149457850Y-73070480D01*
X149435671Y-73080970D01*
X149412572Y-73089235D01*
X149388773Y-73095196D01*
X149364505Y-73098796D01*
X149340001Y-73100000D01*
X148689999Y-73100000D01*
X148665495Y-73098796D01*
X148641227Y-73095196D01*
X148617428Y-73089235D01*
X148594329Y-73080970D01*
X148572150Y-73070480D01*
X148551107Y-73057868D01*
X148531401Y-73043253D01*
X148513223Y-73026777D01*
X148496747Y-73008599D01*
X148482132Y-72988893D01*
X148469520Y-72967850D01*
X148459030Y-72945671D01*
X148450765Y-72922572D01*
X148444804Y-72898773D01*
X148441204Y-72874505D01*
X148440000Y-72850001D01*
X148440000Y-71949999D01*
X148441204Y-71925495D01*
X148444804Y-71901227D01*
X148450765Y-71877428D01*
X148459030Y-71854329D01*
X148469520Y-71832150D01*
X148482132Y-71811107D01*
X148496747Y-71791401D01*
X148513223Y-71773223D01*
X148531401Y-71756747D01*
X148551107Y-71742132D01*
X148572150Y-71729520D01*
X148594329Y-71719030D01*
X148617428Y-71710765D01*
X148641227Y-71704804D01*
X148665495Y-71701204D01*
X148689999Y-71700000D01*
X149340001Y-71700000D01*
X149364505Y-71701204D01*
X149364505Y-71701204D01*
G37*
D12*
G04 #@! TD*
G04 #@! TO.P,D2,2*
G04 #@! TO.N,Net-(D2-Pad2)*
X149015000Y-72400000D03*
D10*
G04 #@! TO.N,GND*
G04 #@! TO.C,D2*
G36*
X147314505Y-71701204D02*
X147338773Y-71704804D01*
X147362572Y-71710765D01*
X147385671Y-71719030D01*
X147407850Y-71729520D01*
X147428893Y-71742132D01*
X147448599Y-71756747D01*
X147466777Y-71773223D01*
X147483253Y-71791401D01*
X147497868Y-71811107D01*
X147510480Y-71832150D01*
X147520970Y-71854329D01*
X147529235Y-71877428D01*
X147535196Y-71901227D01*
X147538796Y-71925495D01*
X147540000Y-71949999D01*
X147540000Y-72850001D01*
X147538796Y-72874505D01*
X147535196Y-72898773D01*
X147529235Y-72922572D01*
X147520970Y-72945671D01*
X147510480Y-72967850D01*
X147497868Y-72988893D01*
X147483253Y-73008599D01*
X147466777Y-73026777D01*
X147448599Y-73043253D01*
X147428893Y-73057868D01*
X147407850Y-73070480D01*
X147385671Y-73080970D01*
X147362572Y-73089235D01*
X147338773Y-73095196D01*
X147314505Y-73098796D01*
X147290001Y-73100000D01*
X146639999Y-73100000D01*
X146615495Y-73098796D01*
X146591227Y-73095196D01*
X146567428Y-73089235D01*
X146544329Y-73080970D01*
X146522150Y-73070480D01*
X146501107Y-73057868D01*
X146481401Y-73043253D01*
X146463223Y-73026777D01*
X146446747Y-73008599D01*
X146432132Y-72988893D01*
X146419520Y-72967850D01*
X146409030Y-72945671D01*
X146400765Y-72922572D01*
X146394804Y-72898773D01*
X146391204Y-72874505D01*
X146390000Y-72850001D01*
X146390000Y-71949999D01*
X146391204Y-71925495D01*
X146394804Y-71901227D01*
X146400765Y-71877428D01*
X146409030Y-71854329D01*
X146419520Y-71832150D01*
X146432132Y-71811107D01*
X146446747Y-71791401D01*
X146463223Y-71773223D01*
X146481401Y-71756747D01*
X146501107Y-71742132D01*
X146522150Y-71729520D01*
X146544329Y-71719030D01*
X146567428Y-71710765D01*
X146591227Y-71704804D01*
X146615495Y-71701204D01*
X146639999Y-71700000D01*
X147290001Y-71700000D01*
X147314505Y-71701204D01*
X147314505Y-71701204D01*
G37*
D12*
G04 #@! TD*
G04 #@! TO.P,D2,1*
G04 #@! TO.N,GND*
X146965000Y-72400000D03*
D13*
G04 #@! TO.P,J1,1*
G04 #@! TO.N,+3V3*
X133040000Y-61500000D03*
D14*
G04 #@! TO.P,J1,2*
G04 #@! TO.N,SWCLK*
X135580000Y-61500000D03*
G04 #@! TO.P,J1,3*
G04 #@! TO.N,GND*
X138120000Y-61500000D03*
G04 #@! TO.P,J1,4*
G04 #@! TO.N,SWDI0*
X140660000Y-61500000D03*
G04 #@! TO.P,J1,5*
G04 #@! TO.N,NRST*
X143200000Y-61500000D03*
G04 #@! TO.P,J1,6*
G04 #@! TO.N,UART_TX*
X145740000Y-61500000D03*
G04 #@! TD*
D10*
G04 #@! TO.N,Net-(D1-Pad2)*
G04 #@! TO.C,R1*
G36*
X149175779Y-67726144D02*
X149198834Y-67729563D01*
X149221443Y-67735227D01*
X149243387Y-67743079D01*
X149264457Y-67753044D01*
X149284448Y-67765026D01*
X149303168Y-67778910D01*
X149320438Y-67794562D01*
X149336090Y-67811832D01*
X149349974Y-67830552D01*
X149361956Y-67850543D01*
X149371921Y-67871613D01*
X149379773Y-67893557D01*
X149385437Y-67916166D01*
X149388856Y-67939221D01*
X149390000Y-67962500D01*
X149390000Y-68437500D01*
X149388856Y-68460779D01*
X149385437Y-68483834D01*
X149379773Y-68506443D01*
X149371921Y-68528387D01*
X149361956Y-68549457D01*
X149349974Y-68569448D01*
X149336090Y-68588168D01*
X149320438Y-68605438D01*
X149303168Y-68621090D01*
X149284448Y-68634974D01*
X149264457Y-68646956D01*
X149243387Y-68656921D01*
X149221443Y-68664773D01*
X149198834Y-68670437D01*
X149175779Y-68673856D01*
X149152500Y-68675000D01*
X148577500Y-68675000D01*
X148554221Y-68673856D01*
X148531166Y-68670437D01*
X148508557Y-68664773D01*
X148486613Y-68656921D01*
X148465543Y-68646956D01*
X148445552Y-68634974D01*
X148426832Y-68621090D01*
X148409562Y-68605438D01*
X148393910Y-68588168D01*
X148380026Y-68569448D01*
X148368044Y-68549457D01*
X148358079Y-68528387D01*
X148350227Y-68506443D01*
X148344563Y-68483834D01*
X148341144Y-68460779D01*
X148340000Y-68437500D01*
X148340000Y-67962500D01*
X148341144Y-67939221D01*
X148344563Y-67916166D01*
X148350227Y-67893557D01*
X148358079Y-67871613D01*
X148368044Y-67850543D01*
X148380026Y-67830552D01*
X148393910Y-67811832D01*
X148409562Y-67794562D01*
X148426832Y-67778910D01*
X148445552Y-67765026D01*
X148465543Y-67753044D01*
X148486613Y-67743079D01*
X148508557Y-67735227D01*
X148531166Y-67729563D01*
X148554221Y-67726144D01*
X148577500Y-67725000D01*
X149152500Y-67725000D01*
X149175779Y-67726144D01*
X149175779Y-67726144D01*
G37*
D11*
G04 #@! TD*
G04 #@! TO.P,R1,1*
G04 #@! TO.N,Net-(D1-Pad2)*
X148865000Y-68200000D03*
D10*
G04 #@! TO.N,/LED_1*
G04 #@! TO.C,R1*
G36*
X147425779Y-67726144D02*
X147448834Y-67729563D01*
X147471443Y-67735227D01*
X147493387Y-67743079D01*
X147514457Y-67753044D01*
X147534448Y-67765026D01*
X147553168Y-67778910D01*
X147570438Y-67794562D01*
X147586090Y-67811832D01*
X147599974Y-67830552D01*
X147611956Y-67850543D01*
X147621921Y-67871613D01*
X147629773Y-67893557D01*
X147635437Y-67916166D01*
X147638856Y-67939221D01*
X147640000Y-67962500D01*
X147640000Y-68437500D01*
X147638856Y-68460779D01*
X147635437Y-68483834D01*
X147629773Y-68506443D01*
X147621921Y-68528387D01*
X147611956Y-68549457D01*
X147599974Y-68569448D01*
X147586090Y-68588168D01*
X147570438Y-68605438D01*
X147553168Y-68621090D01*
X147534448Y-68634974D01*
X147514457Y-68646956D01*
X147493387Y-68656921D01*
X147471443Y-68664773D01*
X147448834Y-68670437D01*
X147425779Y-68673856D01*
X147402500Y-68675000D01*
X146827500Y-68675000D01*
X146804221Y-68673856D01*
X146781166Y-68670437D01*
X146758557Y-68664773D01*
X146736613Y-68656921D01*
X146715543Y-68646956D01*
X146695552Y-68634974D01*
X146676832Y-68621090D01*
X146659562Y-68605438D01*
X146643910Y-68588168D01*
X146630026Y-68569448D01*
X146618044Y-68549457D01*
X146608079Y-68528387D01*
X146600227Y-68506443D01*
X146594563Y-68483834D01*
X146591144Y-68460779D01*
X146590000Y-68437500D01*
X146590000Y-67962500D01*
X146591144Y-67939221D01*
X146594563Y-67916166D01*
X146600227Y-67893557D01*
X146608079Y-67871613D01*
X146618044Y-67850543D01*
X146630026Y-67830552D01*
X146643910Y-67811832D01*
X146659562Y-67794562D01*
X146676832Y-67778910D01*
X146695552Y-67765026D01*
X146715543Y-67753044D01*
X146736613Y-67743079D01*
X146758557Y-67735227D01*
X146781166Y-67729563D01*
X146804221Y-67726144D01*
X146827500Y-67725000D01*
X147402500Y-67725000D01*
X147425779Y-67726144D01*
X147425779Y-67726144D01*
G37*
D11*
G04 #@! TD*
G04 #@! TO.P,R1,2*
G04 #@! TO.N,/LED_1*
X147115000Y-68200000D03*
D10*
G04 #@! TO.N,/LED_2*
G04 #@! TO.C,R2*
G36*
X147425779Y-69726144D02*
X147448834Y-69729563D01*
X147471443Y-69735227D01*
X147493387Y-69743079D01*
X147514457Y-69753044D01*
X147534448Y-69765026D01*
X147553168Y-69778910D01*
X147570438Y-69794562D01*
X147586090Y-69811832D01*
X147599974Y-69830552D01*
X147611956Y-69850543D01*
X147621921Y-69871613D01*
X147629773Y-69893557D01*
X147635437Y-69916166D01*
X147638856Y-69939221D01*
X147640000Y-69962500D01*
X147640000Y-70437500D01*
X147638856Y-70460779D01*
X147635437Y-70483834D01*
X147629773Y-70506443D01*
X147621921Y-70528387D01*
X147611956Y-70549457D01*
X147599974Y-70569448D01*
X147586090Y-70588168D01*
X147570438Y-70605438D01*
X147553168Y-70621090D01*
X147534448Y-70634974D01*
X147514457Y-70646956D01*
X147493387Y-70656921D01*
X147471443Y-70664773D01*
X147448834Y-70670437D01*
X147425779Y-70673856D01*
X147402500Y-70675000D01*
X146827500Y-70675000D01*
X146804221Y-70673856D01*
X146781166Y-70670437D01*
X146758557Y-70664773D01*
X146736613Y-70656921D01*
X146715543Y-70646956D01*
X146695552Y-70634974D01*
X146676832Y-70621090D01*
X146659562Y-70605438D01*
X146643910Y-70588168D01*
X146630026Y-70569448D01*
X146618044Y-70549457D01*
X146608079Y-70528387D01*
X146600227Y-70506443D01*
X146594563Y-70483834D01*
X146591144Y-70460779D01*
X146590000Y-70437500D01*
X146590000Y-69962500D01*
X146591144Y-69939221D01*
X146594563Y-69916166D01*
X146600227Y-69893557D01*
X146608079Y-69871613D01*
X146618044Y-69850543D01*
X146630026Y-69830552D01*
X146643910Y-69811832D01*
X146659562Y-69794562D01*
X146676832Y-69778910D01*
X146695552Y-69765026D01*
X146715543Y-69753044D01*
X146736613Y-69743079D01*
X146758557Y-69735227D01*
X146781166Y-69729563D01*
X146804221Y-69726144D01*
X146827500Y-69725000D01*
X147402500Y-69725000D01*
X147425779Y-69726144D01*
X147425779Y-69726144D01*
G37*
D11*
G04 #@! TD*
G04 #@! TO.P,R2,2*
G04 #@! TO.N,/LED_2*
X147115000Y-70200000D03*
D10*
G04 #@! TO.N,Net-(D2-Pad2)*
G04 #@! TO.C,R2*
G36*
X149175779Y-69726144D02*
X149198834Y-69729563D01*
X149221443Y-69735227D01*
X149243387Y-69743079D01*
X149264457Y-69753044D01*
X149284448Y-69765026D01*
X149303168Y-69778910D01*
X149320438Y-69794562D01*
X149336090Y-69811832D01*
X149349974Y-69830552D01*
X149361956Y-69850543D01*
X149371921Y-69871613D01*
X149379773Y-69893557D01*
X149385437Y-69916166D01*
X149388856Y-69939221D01*
X149390000Y-69962500D01*
X149390000Y-70437500D01*
X149388856Y-70460779D01*
X149385437Y-70483834D01*
X149379773Y-70506443D01*
X149371921Y-70528387D01*
X149361956Y-70549457D01*
X149349974Y-70569448D01*
X149336090Y-70588168D01*
X149320438Y-70605438D01*
X149303168Y-70621090D01*
X149284448Y-70634974D01*
X149264457Y-70646956D01*
X149243387Y-70656921D01*
X149221443Y-70664773D01*
X149198834Y-70670437D01*
X149175779Y-70673856D01*
X149152500Y-70675000D01*
X148577500Y-70675000D01*
X148554221Y-70673856D01*
X148531166Y-70670437D01*
X148508557Y-70664773D01*
X148486613Y-70656921D01*
X148465543Y-70646956D01*
X148445552Y-70634974D01*
X148426832Y-70621090D01*
X148409562Y-70605438D01*
X148393910Y-70588168D01*
X148380026Y-70569448D01*
X148368044Y-70549457D01*
X148358079Y-70528387D01*
X148350227Y-70506443D01*
X148344563Y-70483834D01*
X148341144Y-70460779D01*
X148340000Y-70437500D01*
X148340000Y-69962500D01*
X148341144Y-69939221D01*
X148344563Y-69916166D01*
X148350227Y-69893557D01*
X148358079Y-69871613D01*
X148368044Y-69850543D01*
X148380026Y-69830552D01*
X148393910Y-69811832D01*
X148409562Y-69794562D01*
X148426832Y-69778910D01*
X148445552Y-69765026D01*
X148465543Y-69753044D01*
X148486613Y-69743079D01*
X148508557Y-69735227D01*
X148531166Y-69729563D01*
X148554221Y-69726144D01*
X148577500Y-69725000D01*
X149152500Y-69725000D01*
X149175779Y-69726144D01*
X149175779Y-69726144D01*
G37*
D11*
G04 #@! TD*
G04 #@! TO.P,R2,1*
G04 #@! TO.N,Net-(D2-Pad2)*
X148865000Y-70200000D03*
D15*
G04 #@! TO.P,U3,1*
G04 #@! TO.N,Net-(R3-Pad1)*
X141709660Y-67652360D03*
G04 #@! TO.P,U3,2*
G04 #@! TO.N,/LED_1*
X141709660Y-68302360D03*
G04 #@! TO.P,U3,3*
G04 #@! TO.N,/LED_2*
X141709660Y-68952360D03*
G04 #@! TO.P,U3,4*
G04 #@! TO.N,NRST*
X141709660Y-69602360D03*
G04 #@! TO.P,U3,5*
G04 #@! TO.N,+3V3*
X141709660Y-70252360D03*
G04 #@! TO.P,U3,6*
G04 #@! TO.N,/PANEL_SENSE*
X141709660Y-70902360D03*
G04 #@! TO.P,U3,7*
G04 #@! TO.N,/BATT_SENSE*
X141709660Y-71552360D03*
G04 #@! TO.P,U3,8*
G04 #@! TO.N,UART_TX*
X141709660Y-72202360D03*
G04 #@! TO.P,U3,9*
G04 #@! TO.N,Net-(U3-Pad9)*
X141709660Y-72852360D03*
G04 #@! TO.P,U3,10*
G04 #@! TO.N,/PA4*
X141709660Y-73502360D03*
G04 #@! TO.P,U3,11*
G04 #@! TO.N,/PWM*
X135809660Y-73502360D03*
G04 #@! TO.P,U3,12*
G04 #@! TO.N,Net-(R12-Pad2)*
X135809660Y-72852360D03*
G04 #@! TO.P,U3,13*
G04 #@! TO.N,Net-(U3-Pad13)*
X135809660Y-72202360D03*
G04 #@! TO.P,U3,14*
G04 #@! TO.N,CURRENT_SENSE*
X135809660Y-71552360D03*
G04 #@! TO.P,U3,15*
G04 #@! TO.N,GND*
X135809660Y-70902360D03*
G04 #@! TO.P,U3,16*
G04 #@! TO.N,+3V3*
X135809660Y-70252360D03*
G04 #@! TO.P,U3,17*
G04 #@! TO.N,Net-(U3-Pad17)*
X135809660Y-69602360D03*
G04 #@! TO.P,U3,18*
G04 #@! TO.N,Net-(U3-Pad18)*
X135809660Y-68952360D03*
G04 #@! TO.P,U3,19*
G04 #@! TO.N,SWDI0*
X135809660Y-68302360D03*
G04 #@! TO.P,U3,20*
G04 #@! TO.N,SWCLK*
X135809660Y-67652360D03*
G04 #@! TD*
D16*
G04 #@! TO.P,U4,8*
G04 #@! TO.N,+24V*
X140415000Y-83000000D03*
D17*
G04 #@! TO.P,U4,6*
G04 #@! TO.N,/FR_DIAG*
X131265000Y-81300000D03*
G04 #@! TO.P,U4,5*
G04 #@! TO.N,Net-(R13-Pad1)*
X131265000Y-82150000D03*
G04 #@! TO.P,U4,3*
G04 #@! TO.N,/OUT*
X131265000Y-83850000D03*
G04 #@! TO.P,U4,2*
X131265000Y-84700000D03*
G04 #@! TO.P,U4,1*
X131265000Y-85550000D03*
G04 #@! TO.P,U4,4*
G04 #@! TO.N,/INPUT*
X131265000Y-83000000D03*
G04 #@! TO.P,U4,7*
G04 #@! TO.N,GND*
X131265000Y-80450000D03*
G04 #@! TD*
D18*
G04 #@! TO.P,BT1,2*
G04 #@! TO.N,GND*
X135370000Y-93000000D03*
D19*
G04 #@! TO.P,BT1,1*
G04 #@! TO.N,/OUT*
X130290000Y-93000000D03*
G04 #@! TD*
G04 #@! TO.P,SC1,1*
G04 #@! TO.N,+24V*
X143290000Y-93000000D03*
D18*
G04 #@! TO.P,SC1,2*
G04 #@! TO.N,GND*
X148370000Y-93000000D03*
G04 #@! TD*
D20*
G04 #@! TO.N,GND*
X132490000Y-76850000D03*
X142990000Y-76000000D03*
X140040000Y-76000000D03*
X149590000Y-74000000D03*
X138790000Y-71600000D03*
X144440000Y-63800000D03*
G04 #@! TO.N,+24V*
X136790000Y-79000000D03*
X138790000Y-79000000D03*
X140790000Y-79000000D03*
X142790000Y-79000000D03*
X144790000Y-79000000D03*
X137790000Y-81000000D03*
X139790000Y-81000000D03*
X141790000Y-81000000D03*
X143790000Y-81000000D03*
X136790000Y-83000000D03*
X138790000Y-83000000D03*
X142790000Y-83000000D03*
X144790000Y-83000000D03*
X137790000Y-85000000D03*
X139790000Y-85000000D03*
X141790000Y-85000000D03*
X143790000Y-85000000D03*
X136790000Y-87000000D03*
X138790000Y-87000000D03*
X140790000Y-87000000D03*
X142790000Y-87000000D03*
X144790000Y-87000000D03*
X140790000Y-83000000D03*
G04 #@! TO.N,+3V3*
X133990000Y-70400000D03*
X143408141Y-69726495D03*
G04 #@! TO.N,UART_TX*
X145490000Y-70600000D03*
X145490000Y-67699998D03*
G04 #@! TO.N,Net-(R3-Pad1)*
X140040000Y-65950000D03*
G04 #@! TO.N,/PANEL_SENSE*
X144140000Y-71024990D03*
G04 #@! TO.N,/BATT_SENSE*
X138590000Y-73600000D03*
G04 #@! TO.N,/FR_DIAG*
X129440000Y-71900000D03*
G04 #@! TO.N,CURRENT_SENSE*
X133940000Y-71500000D03*
G04 #@! TO.N,Net-(R13-Pad1)*
X127890000Y-68250000D03*
G04 #@! TO.N,Net-(R12-Pad2)*
X133940000Y-72750000D03*
G04 #@! TO.N,/PA4*
X137140000Y-74600000D03*
G04 #@! TD*
D21*
G04 #@! TO.N,GND*
X146965000Y-73625000D02*
X146965000Y-72400000D01*
X138092360Y-70902360D02*
X138790000Y-71600000D01*
X135809660Y-70902360D02*
X138092360Y-70902360D01*
G04 #@! TO.N,+24V*
X143990000Y-86575000D02*
X140415000Y-83000000D01*
X143990000Y-93000000D02*
X143990000Y-86575000D01*
D22*
G04 #@! TO.N,+3V3*
X134137640Y-70252360D02*
X135809660Y-70252360D01*
X133990000Y-70400000D02*
X134137640Y-70252360D01*
X142882276Y-70252360D02*
X143008142Y-70126494D01*
X143008142Y-70126494D02*
X143408141Y-69726495D01*
X141709660Y-70252360D02*
X142882276Y-70252360D01*
D21*
G04 #@! TO.N,Net-(D1-Pad2)*
X148865000Y-66550000D02*
X149015000Y-66400000D01*
X148865000Y-68200000D02*
X148865000Y-66550000D01*
G04 #@! TO.N,Net-(D2-Pad2)*
X148865000Y-72250000D02*
X149015000Y-72400000D01*
X148865000Y-70200000D02*
X148865000Y-72250000D01*
G04 #@! TO.N,SWCLK*
X135809660Y-67652360D02*
X135309660Y-67652360D01*
X136987640Y-67652360D02*
X135809660Y-67652360D01*
X137290000Y-67350000D02*
X136987640Y-67652360D01*
X137290000Y-64900000D02*
X137290000Y-67350000D01*
X136540000Y-64150000D02*
X137290000Y-64900000D01*
X135580000Y-61500000D02*
X136540000Y-62460000D01*
X136540000Y-62460000D02*
X136540000Y-64150000D01*
G04 #@! TO.N,SWDI0*
X140660000Y-62702081D02*
X140660000Y-61500000D01*
X138190000Y-65172081D02*
X140660000Y-62702081D01*
X138190000Y-67450000D02*
X138190000Y-65172081D01*
X135809660Y-68302360D02*
X137337640Y-68302360D01*
X137337640Y-68302360D02*
X138190000Y-67450000D01*
G04 #@! TO.N,NRST*
X140734660Y-69602360D02*
X141709660Y-69602360D01*
X142350001Y-62349999D02*
X142350001Y-62389999D01*
X143200000Y-61500000D02*
X142350001Y-62349999D01*
X139892360Y-69602360D02*
X140734660Y-69602360D01*
X142350001Y-62389999D02*
X138990000Y-65750000D01*
X138990000Y-65750000D02*
X138990000Y-68700000D01*
X138990000Y-68700000D02*
X139892360Y-69602360D01*
G04 #@! TO.N,UART_TX*
X146290000Y-61500000D02*
X145740000Y-61500000D01*
X145490000Y-61750000D02*
X145490000Y-67699998D01*
X145740000Y-61500000D02*
X145490000Y-61750000D01*
X145490000Y-71650000D02*
X145490000Y-70600000D01*
X141709660Y-72202360D02*
X144937640Y-72202360D01*
X144937640Y-72202360D02*
X145490000Y-71650000D01*
G04 #@! TO.N,Net-(R3-Pad1)*
X140592360Y-67652360D02*
X141709660Y-67652360D01*
X140040000Y-65950000D02*
X140040000Y-67100000D01*
X140040000Y-67100000D02*
X140592360Y-67652360D01*
G04 #@! TO.N,/PANEL_SENSE*
X141709660Y-70902360D02*
X144017370Y-70902360D01*
X144017370Y-70902360D02*
X144140000Y-71024990D01*
G04 #@! TO.N,/BATT_SENSE*
X138590000Y-73034315D02*
X140071955Y-71552360D01*
X140734660Y-71552360D02*
X141709660Y-71552360D01*
X140071955Y-71552360D02*
X140734660Y-71552360D01*
X138590000Y-73600000D02*
X138590000Y-73034315D01*
G04 #@! TO.N,/PWM*
X136065000Y-75225000D02*
X135790000Y-74950000D01*
X135809660Y-74930340D02*
X135809660Y-73502360D01*
X135790000Y-74950000D02*
X135809660Y-74930340D01*
X136065000Y-75800000D02*
X136065000Y-75225000D01*
G04 #@! TO.N,/FR_DIAG*
X129440000Y-72465685D02*
X129440000Y-71900000D01*
X128490000Y-73415685D02*
X129440000Y-72465685D01*
X128490000Y-80785002D02*
X128490000Y-73415685D01*
X131265000Y-81300000D02*
X129004998Y-81300000D01*
X129004998Y-81300000D02*
X128490000Y-80785002D01*
G04 #@! TO.N,CURRENT_SENSE*
X135757300Y-71500000D02*
X135809660Y-71552360D01*
X133940000Y-71500000D02*
X135757300Y-71500000D01*
G04 #@! TO.N,Net-(R13-Pad1)*
X127890000Y-68815685D02*
X127890000Y-68250000D01*
X128715000Y-82150000D02*
X127890000Y-81325000D01*
X127890000Y-81325000D02*
X127890000Y-68815685D01*
X131265000Y-82150000D02*
X128715000Y-82150000D01*
G04 #@! TO.N,/INPUT*
X133815000Y-83000000D02*
X131265000Y-83000000D01*
X133990000Y-82825000D02*
X133815000Y-83000000D01*
X134315000Y-75800000D02*
X133990000Y-76125000D01*
X133990000Y-76125000D02*
X133990000Y-82825000D01*
G04 #@! TO.N,Net-(R12-Pad2)*
X134042360Y-72852360D02*
X135809660Y-72852360D01*
X133940000Y-72750000D02*
X134042360Y-72852360D01*
G04 #@! TO.N,/LED_1*
X145141999Y-68925001D02*
X146389999Y-68925001D01*
X146389999Y-68925001D02*
X146615928Y-68699072D01*
X141709660Y-68302360D02*
X144519358Y-68302360D01*
X144519358Y-68302360D02*
X145141999Y-68925001D01*
X146615928Y-68699072D02*
X147115000Y-68200000D01*
G04 #@! TO.N,/LED_2*
X146615928Y-69700928D02*
X147115000Y-70200000D01*
X141709660Y-68952360D02*
X144532947Y-68952360D01*
X145281515Y-69700928D02*
X146615928Y-69700928D01*
X144532947Y-68952360D02*
X145281515Y-69700928D01*
G04 #@! TO.N,/OUT*
X129590000Y-92910000D02*
X129500000Y-93000000D01*
X131265000Y-83850000D02*
X129590000Y-85525000D01*
X129590000Y-85525000D02*
X129590000Y-92910000D01*
X131265000Y-83850000D02*
X131265000Y-84700000D01*
X131265000Y-84700000D02*
X131265000Y-85550000D01*
G04 #@! TO.N,/PA4*
X141709660Y-73977360D02*
X141709660Y-73502360D01*
X141087020Y-74600000D02*
X141709660Y-73977360D01*
X137140000Y-74600000D02*
X141087020Y-74600000D01*
G04 #@! TD*
D23*
G04 #@! TO.N,GND*
G36*
X148450809Y-59780776D02*
X149084631Y-59979404D01*
X149665562Y-60301418D01*
X150169879Y-60733670D01*
X150576981Y-61258503D01*
X150870234Y-61854473D01*
X151039868Y-62505707D01*
X151080000Y-63027269D01*
X151080001Y-94819847D01*
X151070532Y-94849696D01*
X151058763Y-94925723D01*
X150984609Y-95655759D01*
X150787499Y-96284734D01*
X150467945Y-96861224D01*
X150039002Y-97361680D01*
X149518182Y-97765669D01*
X148926767Y-98056682D01*
X148280153Y-98225112D01*
X147733612Y-98267166D01*
X147606704Y-98290000D01*
X130970150Y-98290000D01*
X130940304Y-98280532D01*
X130864277Y-98268763D01*
X130134241Y-98194609D01*
X129505266Y-97997499D01*
X128928776Y-97677945D01*
X128428320Y-97249002D01*
X128024331Y-96728182D01*
X127733318Y-96136767D01*
X127732858Y-96135000D01*
X132290000Y-96135000D01*
X132533004Y-96086664D01*
X132739013Y-95949013D01*
X132876664Y-95743004D01*
X132925000Y-95500000D01*
X132925000Y-94513970D01*
X134035635Y-94513970D01*
X134195418Y-94832739D01*
X134986187Y-95142723D01*
X135835387Y-95126497D01*
X136544582Y-94832739D01*
X136704365Y-94513970D01*
X135370000Y-93179605D01*
X134035635Y-94513970D01*
X132925000Y-94513970D01*
X132925000Y-92616187D01*
X133227277Y-92616187D01*
X133243503Y-93465387D01*
X133537261Y-94174582D01*
X133856030Y-94334365D01*
X135190395Y-93000000D01*
X135549605Y-93000000D01*
X136883970Y-94334365D01*
X137202739Y-94174582D01*
X137512723Y-93383813D01*
X137496497Y-92534613D01*
X137202739Y-91825418D01*
X136883970Y-91665635D01*
X135549605Y-93000000D01*
X135190395Y-93000000D01*
X133856030Y-91665635D01*
X133537261Y-91825418D01*
X133227277Y-92616187D01*
X132925000Y-92616187D01*
X132925000Y-91486030D01*
X134035635Y-91486030D01*
X135370000Y-92820395D01*
X136704365Y-91486030D01*
X136544582Y-91167261D01*
X135753813Y-90857277D01*
X134904613Y-90873503D01*
X134195418Y-91167261D01*
X134035635Y-91486030D01*
X132925000Y-91486030D01*
X132925000Y-90763026D01*
X134239013Y-89449013D01*
X134376664Y-89243004D01*
X134425000Y-89000000D01*
X134425000Y-83500000D01*
X134419160Y-83470641D01*
X134474472Y-83415330D01*
X134537929Y-83372929D01*
X134705904Y-83121537D01*
X134750000Y-82899852D01*
X134750000Y-82899848D01*
X134764888Y-82825001D01*
X134750000Y-82750154D01*
X134750000Y-77800000D01*
X134955000Y-77800000D01*
X134955000Y-88400000D01*
X135003337Y-88643006D01*
X135061916Y-88784427D01*
X135199565Y-88990432D01*
X135405573Y-89128084D01*
X135546994Y-89186663D01*
X135790000Y-89235000D01*
X139655000Y-89235000D01*
X139655000Y-95500000D01*
X139703336Y-95743004D01*
X139840987Y-95949013D01*
X140046996Y-96086664D01*
X140290000Y-96135000D01*
X145290000Y-96135000D01*
X145533004Y-96086664D01*
X145739013Y-95949013D01*
X145876664Y-95743004D01*
X145925000Y-95500000D01*
X145925000Y-94513970D01*
X147035635Y-94513970D01*
X147195418Y-94832739D01*
X147986187Y-95142723D01*
X148835387Y-95126497D01*
X149544582Y-94832739D01*
X149704365Y-94513970D01*
X148370000Y-93179605D01*
X147035635Y-94513970D01*
X145925000Y-94513970D01*
X145925000Y-92616187D01*
X146227277Y-92616187D01*
X146243503Y-93465387D01*
X146537261Y-94174582D01*
X146856030Y-94334365D01*
X148190395Y-93000000D01*
X148549605Y-93000000D01*
X149883970Y-94334365D01*
X150202739Y-94174582D01*
X150512723Y-93383813D01*
X150496497Y-92534613D01*
X150202739Y-91825418D01*
X149883970Y-91665635D01*
X148549605Y-93000000D01*
X148190395Y-93000000D01*
X146856030Y-91665635D01*
X146537261Y-91825418D01*
X146227277Y-92616187D01*
X145925000Y-92616187D01*
X145925000Y-91486030D01*
X147035635Y-91486030D01*
X148370000Y-92820395D01*
X149704365Y-91486030D01*
X149544582Y-91167261D01*
X148753813Y-90857277D01*
X147904613Y-90873503D01*
X147195418Y-91167261D01*
X147035635Y-91486030D01*
X145925000Y-91486030D01*
X145925000Y-89235000D01*
X149590000Y-89235000D01*
X149833006Y-89186663D01*
X149974427Y-89128084D01*
X150180432Y-88990435D01*
X150318084Y-88784427D01*
X150376663Y-88643006D01*
X150425000Y-88400000D01*
X150425000Y-77800000D01*
X150376663Y-77556994D01*
X150318084Y-77415573D01*
X150180435Y-77209568D01*
X149974427Y-77071916D01*
X149833006Y-77013337D01*
X149590000Y-76965000D01*
X145177541Y-76965000D01*
X145115000Y-76952560D01*
X135715000Y-76952560D01*
X135467235Y-77001843D01*
X135257191Y-77142191D01*
X135222340Y-77194349D01*
X135199568Y-77209565D01*
X135061916Y-77415573D01*
X135003337Y-77556994D01*
X134955000Y-77800000D01*
X134750000Y-77800000D01*
X134750000Y-76893100D01*
X134941152Y-76855078D01*
X135190000Y-76688803D01*
X135438848Y-76855078D01*
X135777500Y-76922440D01*
X136352500Y-76922440D01*
X136691152Y-76855078D01*
X136978247Y-76663247D01*
X137170078Y-76376152D01*
X137237440Y-76037500D01*
X137237440Y-75635000D01*
X137345874Y-75635000D01*
X137726280Y-75477431D01*
X137843711Y-75360000D01*
X141012173Y-75360000D01*
X141087020Y-75374888D01*
X141161867Y-75360000D01*
X141161872Y-75360000D01*
X141383557Y-75315904D01*
X141634949Y-75147929D01*
X141677351Y-75084470D01*
X142194133Y-74567689D01*
X142257589Y-74525289D01*
X142358143Y-74374800D01*
X142434660Y-74374800D01*
X142682425Y-74325517D01*
X142892469Y-74185169D01*
X143032817Y-73975125D01*
X143082100Y-73727360D01*
X143082100Y-73277360D01*
X143062209Y-73177360D01*
X143082100Y-73077360D01*
X143082100Y-72962360D01*
X144862793Y-72962360D01*
X144937640Y-72977248D01*
X145012487Y-72962360D01*
X145012492Y-72962360D01*
X145234177Y-72918264D01*
X145485569Y-72750289D01*
X145527971Y-72686830D01*
X145755000Y-72459802D01*
X145755000Y-72527002D01*
X145913748Y-72527002D01*
X145755000Y-72685750D01*
X145755000Y-73226310D01*
X145851673Y-73459699D01*
X146030302Y-73638327D01*
X146263691Y-73735000D01*
X146679250Y-73735000D01*
X146838000Y-73576250D01*
X146838000Y-72527000D01*
X146818000Y-72527000D01*
X146818000Y-72273000D01*
X146838000Y-72273000D01*
X146838000Y-72253000D01*
X147092000Y-72253000D01*
X147092000Y-72273000D01*
X147112000Y-72273000D01*
X147112000Y-72527000D01*
X147092000Y-72527000D01*
X147092000Y-73576250D01*
X147250750Y-73735000D01*
X147666309Y-73735000D01*
X147899698Y-73638327D01*
X148054623Y-73483403D01*
X148055414Y-73484586D01*
X148346564Y-73679127D01*
X148689999Y-73747440D01*
X149340001Y-73747440D01*
X149683436Y-73679127D01*
X149974586Y-73484586D01*
X150169127Y-73193436D01*
X150237440Y-72850001D01*
X150237440Y-71949999D01*
X150169127Y-71606564D01*
X149974586Y-71315414D01*
X149687720Y-71123735D01*
X149778247Y-71063247D01*
X149970078Y-70776152D01*
X150037440Y-70437500D01*
X150037440Y-69962500D01*
X149970078Y-69623848D01*
X149778247Y-69336753D01*
X149573582Y-69200000D01*
X149778247Y-69063247D01*
X149970078Y-68776152D01*
X150037440Y-68437500D01*
X150037440Y-67962500D01*
X149970078Y-67623848D01*
X149907139Y-67529653D01*
X149974586Y-67484586D01*
X150169127Y-67193436D01*
X150237440Y-66850001D01*
X150237440Y-65949999D01*
X150169127Y-65606564D01*
X149974586Y-65315414D01*
X149683436Y-65120873D01*
X149340001Y-65052560D01*
X148689999Y-65052560D01*
X148346564Y-65120873D01*
X148055414Y-65315414D01*
X148054623Y-65316597D01*
X147899698Y-65161673D01*
X147666309Y-65065000D01*
X147250750Y-65065000D01*
X147092000Y-65223750D01*
X147092000Y-66273000D01*
X147112000Y-66273000D01*
X147112000Y-66527000D01*
X147092000Y-66527000D01*
X147092000Y-66547000D01*
X146838000Y-66547000D01*
X146838000Y-66527000D01*
X146818000Y-66527000D01*
X146818000Y-66273000D01*
X146838000Y-66273000D01*
X146838000Y-65223750D01*
X146679250Y-65065000D01*
X146263691Y-65065000D01*
X146250000Y-65070671D01*
X146250000Y-62912647D01*
X146319418Y-62898839D01*
X146810625Y-62570625D01*
X147138839Y-62079418D01*
X147254092Y-61500000D01*
X147138839Y-60920582D01*
X146810625Y-60429375D01*
X146319418Y-60101161D01*
X145886256Y-60015000D01*
X145593744Y-60015000D01*
X145160582Y-60101161D01*
X144669375Y-60429375D01*
X144470000Y-60727761D01*
X144270625Y-60429375D01*
X143779418Y-60101161D01*
X143346256Y-60015000D01*
X143053744Y-60015000D01*
X142620582Y-60101161D01*
X142129375Y-60429375D01*
X141930000Y-60727761D01*
X141730625Y-60429375D01*
X141239418Y-60101161D01*
X140806256Y-60015000D01*
X140513744Y-60015000D01*
X140080582Y-60101161D01*
X139589375Y-60429375D01*
X139376157Y-60748478D01*
X139315183Y-60618642D01*
X138886924Y-60228355D01*
X138476890Y-60058524D01*
X138247000Y-60179845D01*
X138247000Y-61373000D01*
X138267000Y-61373000D01*
X138267000Y-61627000D01*
X138247000Y-61627000D01*
X138247000Y-62820155D01*
X138476890Y-62941476D01*
X138886924Y-62771645D01*
X139315183Y-62381358D01*
X139376157Y-62251522D01*
X139589375Y-62570625D01*
X139665673Y-62621606D01*
X137876894Y-64410386D01*
X137837929Y-64352071D01*
X137774473Y-64309671D01*
X137300000Y-63835199D01*
X137300000Y-62723275D01*
X137353076Y-62771645D01*
X137763110Y-62941476D01*
X137993000Y-62820155D01*
X137993000Y-61627000D01*
X137973000Y-61627000D01*
X137973000Y-61373000D01*
X137993000Y-61373000D01*
X137993000Y-60179845D01*
X137763110Y-60058524D01*
X137353076Y-60228355D01*
X136924817Y-60618642D01*
X136863843Y-60748478D01*
X136650625Y-60429375D01*
X136159418Y-60101161D01*
X135726256Y-60015000D01*
X135433744Y-60015000D01*
X135000582Y-60101161D01*
X134509375Y-60429375D01*
X134497184Y-60447619D01*
X134488157Y-60402235D01*
X134347809Y-60192191D01*
X134137765Y-60051843D01*
X133890000Y-60002560D01*
X132190000Y-60002560D01*
X131942235Y-60051843D01*
X131732191Y-60192191D01*
X131591843Y-60402235D01*
X131542560Y-60650000D01*
X131542560Y-62350000D01*
X131591843Y-62597765D01*
X131732191Y-62807809D01*
X131942235Y-62948157D01*
X132190000Y-62997440D01*
X133890000Y-62997440D01*
X134137765Y-62948157D01*
X134347809Y-62807809D01*
X134488157Y-62597765D01*
X134497184Y-62552381D01*
X134509375Y-62570625D01*
X135000582Y-62898839D01*
X135433744Y-62985000D01*
X135726256Y-62985000D01*
X135780000Y-62974310D01*
X135780001Y-64075149D01*
X135765112Y-64150000D01*
X135780001Y-64224852D01*
X135814282Y-64397192D01*
X135824097Y-64446537D01*
X135942776Y-64624152D01*
X135992072Y-64697929D01*
X136055528Y-64740329D01*
X136530000Y-65214802D01*
X136530001Y-66779920D01*
X135084660Y-66779920D01*
X134836895Y-66829203D01*
X134626851Y-66969551D01*
X134486503Y-67179595D01*
X134437220Y-67427360D01*
X134437220Y-67877360D01*
X134457111Y-67977360D01*
X134437220Y-68077360D01*
X134437220Y-68527360D01*
X134457111Y-68627360D01*
X134437220Y-68727360D01*
X134437220Y-69177360D01*
X134457111Y-69277360D01*
X134437220Y-69377360D01*
X134437220Y-69442360D01*
X134382638Y-69442360D01*
X134195874Y-69365000D01*
X133784126Y-69365000D01*
X133403720Y-69522569D01*
X133112569Y-69813720D01*
X132955000Y-70194126D01*
X132955000Y-70605874D01*
X133076672Y-70899617D01*
X133062569Y-70913720D01*
X132905000Y-71294126D01*
X132905000Y-71705874D01*
X133062569Y-72086280D01*
X133101289Y-72125000D01*
X133062569Y-72163720D01*
X132905000Y-72544126D01*
X132905000Y-72955874D01*
X133062569Y-73336280D01*
X133353720Y-73627431D01*
X133734126Y-73785000D01*
X134145874Y-73785000D01*
X134437220Y-73664321D01*
X134437220Y-73727360D01*
X134486503Y-73975125D01*
X134626851Y-74185169D01*
X134836895Y-74325517D01*
X135049660Y-74367838D01*
X135049660Y-74776315D01*
X135042442Y-74812602D01*
X134941152Y-74744922D01*
X134602500Y-74677560D01*
X134027500Y-74677560D01*
X133688848Y-74744922D01*
X133401753Y-74936753D01*
X133209922Y-75223848D01*
X133142560Y-75562500D01*
X133142560Y-76037500D01*
X133209922Y-76376152D01*
X133230000Y-76406201D01*
X133230001Y-79590000D01*
X131550750Y-79590000D01*
X131392000Y-79748750D01*
X131392000Y-80337500D01*
X131412000Y-80337500D01*
X131412000Y-80427560D01*
X131118000Y-80427560D01*
X131118000Y-80337500D01*
X131138000Y-80337500D01*
X131138000Y-79748750D01*
X130979250Y-79590000D01*
X129250000Y-79590000D01*
X129250000Y-73730486D01*
X129924473Y-73056014D01*
X129987929Y-73013614D01*
X130155904Y-72762222D01*
X130184314Y-72619397D01*
X130317431Y-72486280D01*
X130475000Y-72105874D01*
X130475000Y-71694126D01*
X130317431Y-71313720D01*
X130026280Y-71022569D01*
X129645874Y-70865000D01*
X129234126Y-70865000D01*
X128853720Y-71022569D01*
X128650000Y-71226289D01*
X128650000Y-68953711D01*
X128767431Y-68836280D01*
X128925000Y-68455874D01*
X128925000Y-68044126D01*
X128767431Y-67663720D01*
X128476280Y-67372569D01*
X128095874Y-67215000D01*
X127684126Y-67215000D01*
X127500000Y-67291267D01*
X127500000Y-63035964D01*
X127570776Y-62339191D01*
X127769404Y-61705369D01*
X128091418Y-61124438D01*
X128523670Y-60620121D01*
X129048503Y-60213019D01*
X129644473Y-59919766D01*
X130295707Y-59750132D01*
X130817269Y-59710000D01*
X147754036Y-59710000D01*
X148450809Y-59780776D01*
X148450809Y-59780776D01*
G37*
X148450809Y-59780776D02*
X149084631Y-59979404D01*
X149665562Y-60301418D01*
X150169879Y-60733670D01*
X150576981Y-61258503D01*
X150870234Y-61854473D01*
X151039868Y-62505707D01*
X151080000Y-63027269D01*
X151080001Y-94819847D01*
X151070532Y-94849696D01*
X151058763Y-94925723D01*
X150984609Y-95655759D01*
X150787499Y-96284734D01*
X150467945Y-96861224D01*
X150039002Y-97361680D01*
X149518182Y-97765669D01*
X148926767Y-98056682D01*
X148280153Y-98225112D01*
X147733612Y-98267166D01*
X147606704Y-98290000D01*
X130970150Y-98290000D01*
X130940304Y-98280532D01*
X130864277Y-98268763D01*
X130134241Y-98194609D01*
X129505266Y-97997499D01*
X128928776Y-97677945D01*
X128428320Y-97249002D01*
X128024331Y-96728182D01*
X127733318Y-96136767D01*
X127732858Y-96135000D01*
X132290000Y-96135000D01*
X132533004Y-96086664D01*
X132739013Y-95949013D01*
X132876664Y-95743004D01*
X132925000Y-95500000D01*
X132925000Y-94513970D01*
X134035635Y-94513970D01*
X134195418Y-94832739D01*
X134986187Y-95142723D01*
X135835387Y-95126497D01*
X136544582Y-94832739D01*
X136704365Y-94513970D01*
X135370000Y-93179605D01*
X134035635Y-94513970D01*
X132925000Y-94513970D01*
X132925000Y-92616187D01*
X133227277Y-92616187D01*
X133243503Y-93465387D01*
X133537261Y-94174582D01*
X133856030Y-94334365D01*
X135190395Y-93000000D01*
X135549605Y-93000000D01*
X136883970Y-94334365D01*
X137202739Y-94174582D01*
X137512723Y-93383813D01*
X137496497Y-92534613D01*
X137202739Y-91825418D01*
X136883970Y-91665635D01*
X135549605Y-93000000D01*
X135190395Y-93000000D01*
X133856030Y-91665635D01*
X133537261Y-91825418D01*
X133227277Y-92616187D01*
X132925000Y-92616187D01*
X132925000Y-91486030D01*
X134035635Y-91486030D01*
X135370000Y-92820395D01*
X136704365Y-91486030D01*
X136544582Y-91167261D01*
X135753813Y-90857277D01*
X134904613Y-90873503D01*
X134195418Y-91167261D01*
X134035635Y-91486030D01*
X132925000Y-91486030D01*
X132925000Y-90763026D01*
X134239013Y-89449013D01*
X134376664Y-89243004D01*
X134425000Y-89000000D01*
X134425000Y-83500000D01*
X134419160Y-83470641D01*
X134474472Y-83415330D01*
X134537929Y-83372929D01*
X134705904Y-83121537D01*
X134750000Y-82899852D01*
X134750000Y-82899848D01*
X134764888Y-82825001D01*
X134750000Y-82750154D01*
X134750000Y-77800000D01*
X134955000Y-77800000D01*
X134955000Y-88400000D01*
X135003337Y-88643006D01*
X135061916Y-88784427D01*
X135199565Y-88990432D01*
X135405573Y-89128084D01*
X135546994Y-89186663D01*
X135790000Y-89235000D01*
X139655000Y-89235000D01*
X139655000Y-95500000D01*
X139703336Y-95743004D01*
X139840987Y-95949013D01*
X140046996Y-96086664D01*
X140290000Y-96135000D01*
X145290000Y-96135000D01*
X145533004Y-96086664D01*
X145739013Y-95949013D01*
X145876664Y-95743004D01*
X145925000Y-95500000D01*
X145925000Y-94513970D01*
X147035635Y-94513970D01*
X147195418Y-94832739D01*
X147986187Y-95142723D01*
X148835387Y-95126497D01*
X149544582Y-94832739D01*
X149704365Y-94513970D01*
X148370000Y-93179605D01*
X147035635Y-94513970D01*
X145925000Y-94513970D01*
X145925000Y-92616187D01*
X146227277Y-92616187D01*
X146243503Y-93465387D01*
X146537261Y-94174582D01*
X146856030Y-94334365D01*
X148190395Y-93000000D01*
X148549605Y-93000000D01*
X149883970Y-94334365D01*
X150202739Y-94174582D01*
X150512723Y-93383813D01*
X150496497Y-92534613D01*
X150202739Y-91825418D01*
X149883970Y-91665635D01*
X148549605Y-93000000D01*
X148190395Y-93000000D01*
X146856030Y-91665635D01*
X146537261Y-91825418D01*
X146227277Y-92616187D01*
X145925000Y-92616187D01*
X145925000Y-91486030D01*
X147035635Y-91486030D01*
X148370000Y-92820395D01*
X149704365Y-91486030D01*
X149544582Y-91167261D01*
X148753813Y-90857277D01*
X147904613Y-90873503D01*
X147195418Y-91167261D01*
X147035635Y-91486030D01*
X145925000Y-91486030D01*
X145925000Y-89235000D01*
X149590000Y-89235000D01*
X149833006Y-89186663D01*
X149974427Y-89128084D01*
X150180432Y-88990435D01*
X150318084Y-88784427D01*
X150376663Y-88643006D01*
X150425000Y-88400000D01*
X150425000Y-77800000D01*
X150376663Y-77556994D01*
X150318084Y-77415573D01*
X150180435Y-77209568D01*
X149974427Y-77071916D01*
X149833006Y-77013337D01*
X149590000Y-76965000D01*
X145177541Y-76965000D01*
X145115000Y-76952560D01*
X135715000Y-76952560D01*
X135467235Y-77001843D01*
X135257191Y-77142191D01*
X135222340Y-77194349D01*
X135199568Y-77209565D01*
X135061916Y-77415573D01*
X135003337Y-77556994D01*
X134955000Y-77800000D01*
X134750000Y-77800000D01*
X134750000Y-76893100D01*
X134941152Y-76855078D01*
X135190000Y-76688803D01*
X135438848Y-76855078D01*
X135777500Y-76922440D01*
X136352500Y-76922440D01*
X136691152Y-76855078D01*
X136978247Y-76663247D01*
X137170078Y-76376152D01*
X137237440Y-76037500D01*
X137237440Y-75635000D01*
X137345874Y-75635000D01*
X137726280Y-75477431D01*
X137843711Y-75360000D01*
X141012173Y-75360000D01*
X141087020Y-75374888D01*
X141161867Y-75360000D01*
X141161872Y-75360000D01*
X141383557Y-75315904D01*
X141634949Y-75147929D01*
X141677351Y-75084470D01*
X142194133Y-74567689D01*
X142257589Y-74525289D01*
X142358143Y-74374800D01*
X142434660Y-74374800D01*
X142682425Y-74325517D01*
X142892469Y-74185169D01*
X143032817Y-73975125D01*
X143082100Y-73727360D01*
X143082100Y-73277360D01*
X143062209Y-73177360D01*
X143082100Y-73077360D01*
X143082100Y-72962360D01*
X144862793Y-72962360D01*
X144937640Y-72977248D01*
X145012487Y-72962360D01*
X145012492Y-72962360D01*
X145234177Y-72918264D01*
X145485569Y-72750289D01*
X145527971Y-72686830D01*
X145755000Y-72459802D01*
X145755000Y-72527002D01*
X145913748Y-72527002D01*
X145755000Y-72685750D01*
X145755000Y-73226310D01*
X145851673Y-73459699D01*
X146030302Y-73638327D01*
X146263691Y-73735000D01*
X146679250Y-73735000D01*
X146838000Y-73576250D01*
X146838000Y-72527000D01*
X146818000Y-72527000D01*
X146818000Y-72273000D01*
X146838000Y-72273000D01*
X146838000Y-72253000D01*
X147092000Y-72253000D01*
X147092000Y-72273000D01*
X147112000Y-72273000D01*
X147112000Y-72527000D01*
X147092000Y-72527000D01*
X147092000Y-73576250D01*
X147250750Y-73735000D01*
X147666309Y-73735000D01*
X147899698Y-73638327D01*
X148054623Y-73483403D01*
X148055414Y-73484586D01*
X148346564Y-73679127D01*
X148689999Y-73747440D01*
X149340001Y-73747440D01*
X149683436Y-73679127D01*
X149974586Y-73484586D01*
X150169127Y-73193436D01*
X150237440Y-72850001D01*
X150237440Y-71949999D01*
X150169127Y-71606564D01*
X149974586Y-71315414D01*
X149687720Y-71123735D01*
X149778247Y-71063247D01*
X149970078Y-70776152D01*
X150037440Y-70437500D01*
X150037440Y-69962500D01*
X149970078Y-69623848D01*
X149778247Y-69336753D01*
X149573582Y-69200000D01*
X149778247Y-69063247D01*
X149970078Y-68776152D01*
X150037440Y-68437500D01*
X150037440Y-67962500D01*
X149970078Y-67623848D01*
X149907139Y-67529653D01*
X149974586Y-67484586D01*
X150169127Y-67193436D01*
X150237440Y-66850001D01*
X150237440Y-65949999D01*
X150169127Y-65606564D01*
X149974586Y-65315414D01*
X149683436Y-65120873D01*
X149340001Y-65052560D01*
X148689999Y-65052560D01*
X148346564Y-65120873D01*
X148055414Y-65315414D01*
X148054623Y-65316597D01*
X147899698Y-65161673D01*
X147666309Y-65065000D01*
X147250750Y-65065000D01*
X147092000Y-65223750D01*
X147092000Y-66273000D01*
X147112000Y-66273000D01*
X147112000Y-66527000D01*
X147092000Y-66527000D01*
X147092000Y-66547000D01*
X146838000Y-66547000D01*
X146838000Y-66527000D01*
X146818000Y-66527000D01*
X146818000Y-66273000D01*
X146838000Y-66273000D01*
X146838000Y-65223750D01*
X146679250Y-65065000D01*
X146263691Y-65065000D01*
X146250000Y-65070671D01*
X146250000Y-62912647D01*
X146319418Y-62898839D01*
X146810625Y-62570625D01*
X147138839Y-62079418D01*
X147254092Y-61500000D01*
X147138839Y-60920582D01*
X146810625Y-60429375D01*
X146319418Y-60101161D01*
X145886256Y-60015000D01*
X145593744Y-60015000D01*
X145160582Y-60101161D01*
X144669375Y-60429375D01*
X144470000Y-60727761D01*
X144270625Y-60429375D01*
X143779418Y-60101161D01*
X143346256Y-60015000D01*
X143053744Y-60015000D01*
X142620582Y-60101161D01*
X142129375Y-60429375D01*
X141930000Y-60727761D01*
X141730625Y-60429375D01*
X141239418Y-60101161D01*
X140806256Y-60015000D01*
X140513744Y-60015000D01*
X140080582Y-60101161D01*
X139589375Y-60429375D01*
X139376157Y-60748478D01*
X139315183Y-60618642D01*
X138886924Y-60228355D01*
X138476890Y-60058524D01*
X138247000Y-60179845D01*
X138247000Y-61373000D01*
X138267000Y-61373000D01*
X138267000Y-61627000D01*
X138247000Y-61627000D01*
X138247000Y-62820155D01*
X138476890Y-62941476D01*
X138886924Y-62771645D01*
X139315183Y-62381358D01*
X139376157Y-62251522D01*
X139589375Y-62570625D01*
X139665673Y-62621606D01*
X137876894Y-64410386D01*
X137837929Y-64352071D01*
X137774473Y-64309671D01*
X137300000Y-63835199D01*
X137300000Y-62723275D01*
X137353076Y-62771645D01*
X137763110Y-62941476D01*
X137993000Y-62820155D01*
X137993000Y-61627000D01*
X137973000Y-61627000D01*
X137973000Y-61373000D01*
X137993000Y-61373000D01*
X137993000Y-60179845D01*
X137763110Y-60058524D01*
X137353076Y-60228355D01*
X136924817Y-60618642D01*
X136863843Y-60748478D01*
X136650625Y-60429375D01*
X136159418Y-60101161D01*
X135726256Y-60015000D01*
X135433744Y-60015000D01*
X135000582Y-60101161D01*
X134509375Y-60429375D01*
X134497184Y-60447619D01*
X134488157Y-60402235D01*
X134347809Y-60192191D01*
X134137765Y-60051843D01*
X133890000Y-60002560D01*
X132190000Y-60002560D01*
X131942235Y-60051843D01*
X131732191Y-60192191D01*
X131591843Y-60402235D01*
X131542560Y-60650000D01*
X131542560Y-62350000D01*
X131591843Y-62597765D01*
X131732191Y-62807809D01*
X131942235Y-62948157D01*
X132190000Y-62997440D01*
X133890000Y-62997440D01*
X134137765Y-62948157D01*
X134347809Y-62807809D01*
X134488157Y-62597765D01*
X134497184Y-62552381D01*
X134509375Y-62570625D01*
X135000582Y-62898839D01*
X135433744Y-62985000D01*
X135726256Y-62985000D01*
X135780000Y-62974310D01*
X135780001Y-64075149D01*
X135765112Y-64150000D01*
X135780001Y-64224852D01*
X135814282Y-64397192D01*
X135824097Y-64446537D01*
X135942776Y-64624152D01*
X135992072Y-64697929D01*
X136055528Y-64740329D01*
X136530000Y-65214802D01*
X136530001Y-66779920D01*
X135084660Y-66779920D01*
X134836895Y-66829203D01*
X134626851Y-66969551D01*
X134486503Y-67179595D01*
X134437220Y-67427360D01*
X134437220Y-67877360D01*
X134457111Y-67977360D01*
X134437220Y-68077360D01*
X134437220Y-68527360D01*
X134457111Y-68627360D01*
X134437220Y-68727360D01*
X134437220Y-69177360D01*
X134457111Y-69277360D01*
X134437220Y-69377360D01*
X134437220Y-69442360D01*
X134382638Y-69442360D01*
X134195874Y-69365000D01*
X133784126Y-69365000D01*
X133403720Y-69522569D01*
X133112569Y-69813720D01*
X132955000Y-70194126D01*
X132955000Y-70605874D01*
X133076672Y-70899617D01*
X133062569Y-70913720D01*
X132905000Y-71294126D01*
X132905000Y-71705874D01*
X133062569Y-72086280D01*
X133101289Y-72125000D01*
X133062569Y-72163720D01*
X132905000Y-72544126D01*
X132905000Y-72955874D01*
X133062569Y-73336280D01*
X133353720Y-73627431D01*
X133734126Y-73785000D01*
X134145874Y-73785000D01*
X134437220Y-73664321D01*
X134437220Y-73727360D01*
X134486503Y-73975125D01*
X134626851Y-74185169D01*
X134836895Y-74325517D01*
X135049660Y-74367838D01*
X135049660Y-74776315D01*
X135042442Y-74812602D01*
X134941152Y-74744922D01*
X134602500Y-74677560D01*
X134027500Y-74677560D01*
X133688848Y-74744922D01*
X133401753Y-74936753D01*
X133209922Y-75223848D01*
X133142560Y-75562500D01*
X133142560Y-76037500D01*
X133209922Y-76376152D01*
X133230000Y-76406201D01*
X133230001Y-79590000D01*
X131550750Y-79590000D01*
X131392000Y-79748750D01*
X131392000Y-80337500D01*
X131412000Y-80337500D01*
X131412000Y-80427560D01*
X131118000Y-80427560D01*
X131118000Y-80337500D01*
X131138000Y-80337500D01*
X131138000Y-79748750D01*
X130979250Y-79590000D01*
X129250000Y-79590000D01*
X129250000Y-73730486D01*
X129924473Y-73056014D01*
X129987929Y-73013614D01*
X130155904Y-72762222D01*
X130184314Y-72619397D01*
X130317431Y-72486280D01*
X130475000Y-72105874D01*
X130475000Y-71694126D01*
X130317431Y-71313720D01*
X130026280Y-71022569D01*
X129645874Y-70865000D01*
X129234126Y-70865000D01*
X128853720Y-71022569D01*
X128650000Y-71226289D01*
X128650000Y-68953711D01*
X128767431Y-68836280D01*
X128925000Y-68455874D01*
X128925000Y-68044126D01*
X128767431Y-67663720D01*
X128476280Y-67372569D01*
X128095874Y-67215000D01*
X127684126Y-67215000D01*
X127500000Y-67291267D01*
X127500000Y-63035964D01*
X127570776Y-62339191D01*
X127769404Y-61705369D01*
X128091418Y-61124438D01*
X128523670Y-60620121D01*
X129048503Y-60213019D01*
X129644473Y-59919766D01*
X130295707Y-59750132D01*
X130817269Y-59710000D01*
X147754036Y-59710000D01*
X148450809Y-59780776D01*
G36*
X138230001Y-68625148D02*
X138215112Y-68700000D01*
X138230001Y-68774852D01*
X138259867Y-68925000D01*
X138274097Y-68996537D01*
X138393209Y-69174800D01*
X138442072Y-69247929D01*
X138505528Y-69290329D01*
X139302031Y-70086833D01*
X139344431Y-70150289D01*
X139407887Y-70192689D01*
X139595822Y-70318264D01*
X139643965Y-70327840D01*
X139817508Y-70362360D01*
X139817512Y-70362360D01*
X139892360Y-70377248D01*
X139967208Y-70362360D01*
X140337220Y-70362360D01*
X140337220Y-70477360D01*
X140357111Y-70577360D01*
X140337220Y-70677360D01*
X140337220Y-70792360D01*
X140146802Y-70792360D01*
X140071955Y-70777472D01*
X139997108Y-70792360D01*
X139997103Y-70792360D01*
X139775418Y-70836456D01*
X139524026Y-71004431D01*
X139481626Y-71067887D01*
X138105528Y-72443986D01*
X138042072Y-72486386D01*
X137874096Y-72737778D01*
X137845686Y-72880603D01*
X137712569Y-73013720D01*
X137555000Y-73394126D01*
X137555000Y-73651623D01*
X137345874Y-73565000D01*
X137182100Y-73565000D01*
X137182100Y-73277360D01*
X137162209Y-73177360D01*
X137182100Y-73077360D01*
X137182100Y-72627360D01*
X137162209Y-72527360D01*
X137182100Y-72427360D01*
X137182100Y-71977360D01*
X137162209Y-71877360D01*
X137182100Y-71777360D01*
X137182100Y-71327360D01*
X137168162Y-71257287D01*
X137169660Y-71253670D01*
X137169660Y-71173610D01*
X137147013Y-71150963D01*
X137132817Y-71079595D01*
X137014391Y-70902360D01*
X137132817Y-70725125D01*
X137147013Y-70653757D01*
X137169660Y-70631110D01*
X137169660Y-70551050D01*
X137168162Y-70547433D01*
X137182100Y-70477360D01*
X137182100Y-70027360D01*
X137162209Y-69927360D01*
X137182100Y-69827360D01*
X137182100Y-69377360D01*
X137162209Y-69277360D01*
X137182100Y-69177360D01*
X137182100Y-69062360D01*
X137262793Y-69062360D01*
X137337640Y-69077248D01*
X137412487Y-69062360D01*
X137412492Y-69062360D01*
X137634177Y-69018264D01*
X137885569Y-68850289D01*
X137927971Y-68786830D01*
X138230001Y-68484801D01*
X138230001Y-68625148D01*
X138230001Y-68625148D01*
G37*
X138230001Y-68625148D02*
X138215112Y-68700000D01*
X138230001Y-68774852D01*
X138259867Y-68925000D01*
X138274097Y-68996537D01*
X138393209Y-69174800D01*
X138442072Y-69247929D01*
X138505528Y-69290329D01*
X139302031Y-70086833D01*
X139344431Y-70150289D01*
X139407887Y-70192689D01*
X139595822Y-70318264D01*
X139643965Y-70327840D01*
X139817508Y-70362360D01*
X139817512Y-70362360D01*
X139892360Y-70377248D01*
X139967208Y-70362360D01*
X140337220Y-70362360D01*
X140337220Y-70477360D01*
X140357111Y-70577360D01*
X140337220Y-70677360D01*
X140337220Y-70792360D01*
X140146802Y-70792360D01*
X140071955Y-70777472D01*
X139997108Y-70792360D01*
X139997103Y-70792360D01*
X139775418Y-70836456D01*
X139524026Y-71004431D01*
X139481626Y-71067887D01*
X138105528Y-72443986D01*
X138042072Y-72486386D01*
X137874096Y-72737778D01*
X137845686Y-72880603D01*
X137712569Y-73013720D01*
X137555000Y-73394126D01*
X137555000Y-73651623D01*
X137345874Y-73565000D01*
X137182100Y-73565000D01*
X137182100Y-73277360D01*
X137162209Y-73177360D01*
X137182100Y-73077360D01*
X137182100Y-72627360D01*
X137162209Y-72527360D01*
X137182100Y-72427360D01*
X137182100Y-71977360D01*
X137162209Y-71877360D01*
X137182100Y-71777360D01*
X137182100Y-71327360D01*
X137168162Y-71257287D01*
X137169660Y-71253670D01*
X137169660Y-71173610D01*
X137147013Y-71150963D01*
X137132817Y-71079595D01*
X137014391Y-70902360D01*
X137132817Y-70725125D01*
X137147013Y-70653757D01*
X137169660Y-70631110D01*
X137169660Y-70551050D01*
X137168162Y-70547433D01*
X137182100Y-70477360D01*
X137182100Y-70027360D01*
X137162209Y-69927360D01*
X137182100Y-69827360D01*
X137182100Y-69377360D01*
X137162209Y-69277360D01*
X137182100Y-69177360D01*
X137182100Y-69062360D01*
X137262793Y-69062360D01*
X137337640Y-69077248D01*
X137412487Y-69062360D01*
X137412492Y-69062360D01*
X137634177Y-69018264D01*
X137885569Y-68850289D01*
X137927971Y-68786830D01*
X138230001Y-68484801D01*
X138230001Y-68625148D01*
G36*
X144669375Y-62570625D02*
X144730000Y-62611133D01*
X144730001Y-66996286D01*
X144612569Y-67113718D01*
X144455000Y-67494124D01*
X144455000Y-67540274D01*
X144444511Y-67542360D01*
X143082100Y-67542360D01*
X143082100Y-67427360D01*
X143032817Y-67179595D01*
X142892469Y-66969551D01*
X142682425Y-66829203D01*
X142434660Y-66779920D01*
X140984660Y-66779920D01*
X140826234Y-66811433D01*
X140800000Y-66785199D01*
X140800000Y-66653711D01*
X140917431Y-66536280D01*
X141075000Y-66155874D01*
X141075000Y-65744126D01*
X140917431Y-65363720D01*
X140684256Y-65130545D01*
X142834474Y-62980328D01*
X142879387Y-62950318D01*
X143053744Y-62985000D01*
X143346256Y-62985000D01*
X143779418Y-62898839D01*
X144270625Y-62570625D01*
X144470000Y-62272239D01*
X144669375Y-62570625D01*
X144669375Y-62570625D01*
G37*
X144669375Y-62570625D02*
X144730000Y-62611133D01*
X144730001Y-66996286D01*
X144612569Y-67113718D01*
X144455000Y-67494124D01*
X144455000Y-67540274D01*
X144444511Y-67542360D01*
X143082100Y-67542360D01*
X143082100Y-67427360D01*
X143032817Y-67179595D01*
X142892469Y-66969551D01*
X142682425Y-66829203D01*
X142434660Y-66779920D01*
X140984660Y-66779920D01*
X140826234Y-66811433D01*
X140800000Y-66785199D01*
X140800000Y-66653711D01*
X140917431Y-66536280D01*
X141075000Y-66155874D01*
X141075000Y-65744126D01*
X140917431Y-65363720D01*
X140684256Y-65130545D01*
X142834474Y-62980328D01*
X142879387Y-62950318D01*
X143053744Y-62985000D01*
X143346256Y-62985000D01*
X143779418Y-62898839D01*
X144270625Y-62570625D01*
X144470000Y-62272239D01*
X144669375Y-62570625D01*
G04 #@! TO.N,+24V*
G36*
X149634219Y-77755781D02*
X149663000Y-77825263D01*
X149663000Y-88374737D01*
X149634219Y-88444219D01*
X149564737Y-88473000D01*
X135815263Y-88473000D01*
X135745781Y-88444219D01*
X135717000Y-88374737D01*
X135717000Y-77825263D01*
X135745781Y-77755781D01*
X135815263Y-77727000D01*
X149564737Y-77727000D01*
X149634219Y-77755781D01*
X149634219Y-77755781D01*
G37*
X149634219Y-77755781D02*
X149663000Y-77825263D01*
X149663000Y-88374737D01*
X149634219Y-88444219D01*
X149564737Y-88473000D01*
X135815263Y-88473000D01*
X135745781Y-88444219D01*
X135717000Y-88374737D01*
X135717000Y-77825263D01*
X135745781Y-77755781D01*
X135815263Y-77727000D01*
X149564737Y-77727000D01*
X149634219Y-77755781D01*
G36*
X145163000Y-95373000D02*
X140417000Y-95373000D01*
X140417000Y-88727000D01*
X145163000Y-88727000D01*
X145163000Y-95373000D01*
X145163000Y-95373000D01*
G37*
X145163000Y-95373000D02*
X140417000Y-95373000D01*
X140417000Y-88727000D01*
X145163000Y-88727000D01*
X145163000Y-95373000D01*
G04 #@! TO.N,/OUT*
G36*
X128507191Y-83682809D02*
X128717235Y-83823157D01*
X128965000Y-83872440D01*
X133565000Y-83872440D01*
X133663000Y-83852947D01*
X133663000Y-88947394D01*
X132200197Y-90410197D01*
X132172667Y-90451399D01*
X132163000Y-90500000D01*
X132163000Y-95373000D01*
X127555874Y-95373000D01*
X127522834Y-94943612D01*
X127500000Y-94816704D01*
X127500000Y-83627000D01*
X128469900Y-83627000D01*
X128507191Y-83682809D01*
X128507191Y-83682809D01*
G37*
X128507191Y-83682809D02*
X128717235Y-83823157D01*
X128965000Y-83872440D01*
X133565000Y-83872440D01*
X133663000Y-83852947D01*
X133663000Y-88947394D01*
X132200197Y-90410197D01*
X132172667Y-90451399D01*
X132163000Y-90500000D01*
X132163000Y-95373000D01*
X127555874Y-95373000D01*
X127522834Y-94943612D01*
X127500000Y-94816704D01*
X127500000Y-83627000D01*
X128469900Y-83627000D01*
X128507191Y-83682809D01*
G04 #@! TD*
M02*
