G04 #@! TF.GenerationSoftware,KiCad,Pcbnew,5.0.2-bee76a0~70~ubuntu16.04.1*
G04 #@! TF.CreationDate,2019-05-19T20:47:43+01:00*
G04 #@! TF.ProjectId,project,70726f6a-6563-4742-9e6b-696361645f70,rev?*
G04 #@! TF.SameCoordinates,Original*
G04 #@! TF.FileFunction,Legend,Bot*
G04 #@! TF.FilePolarity,Positive*
%FSLAX46Y46*%
G04 Gerber Fmt 4.6, Leading zero omitted, Abs format (unit mm)*
G04 Created by KiCad (PCBNEW 5.0.2-bee76a0~70~ubuntu16.04.1) date Sun 19 May 2019 20:47:43 BST*
%MOMM*%
%LPD*%
G01*
G04 APERTURE LIST*
%ADD10C,0.375000*%
%ADD11C,0.100000*%
%ADD12C,0.150000*%
%ADD13C,0.300000*%
%ADD14C,0.120000*%
G04 APERTURE END LIST*
D10*
X143701428Y-70497142D02*
X142558571Y-70497142D01*
X143130000Y-71068571D02*
X143130000Y-69925714D01*
X148701428Y-70497142D02*
X147558571Y-70497142D01*
D11*
X159196666Y-78248333D02*
X159796666Y-79148333D01*
X159063333Y-78515000D02*
X158796666Y-78515000D01*
X158963333Y-78281666D02*
X158963333Y-78881666D01*
X158930000Y-78948333D01*
X158863333Y-78981666D01*
X158796666Y-78981666D01*
X158563333Y-78981666D02*
X158563333Y-78281666D01*
X158263333Y-78981666D02*
X158263333Y-78615000D01*
X158296666Y-78548333D01*
X158363333Y-78515000D01*
X158463333Y-78515000D01*
X158530000Y-78548333D01*
X158563333Y-78581666D01*
X157663333Y-78948333D02*
X157730000Y-78981666D01*
X157863333Y-78981666D01*
X157930000Y-78948333D01*
X157963333Y-78881666D01*
X157963333Y-78615000D01*
X157930000Y-78548333D01*
X157863333Y-78515000D01*
X157730000Y-78515000D01*
X157663333Y-78548333D01*
X157630000Y-78615000D01*
X157630000Y-78681666D01*
X157963333Y-78748333D01*
X157030000Y-78981666D02*
X157030000Y-78615000D01*
X157063333Y-78548333D01*
X157130000Y-78515000D01*
X157263333Y-78515000D01*
X157330000Y-78548333D01*
X157030000Y-78948333D02*
X157096666Y-78981666D01*
X157263333Y-78981666D01*
X157330000Y-78948333D01*
X157363333Y-78881666D01*
X157363333Y-78815000D01*
X157330000Y-78748333D01*
X157263333Y-78715000D01*
X157096666Y-78715000D01*
X157030000Y-78681666D01*
X156696666Y-78515000D02*
X156696666Y-79215000D01*
X156696666Y-78548333D02*
X156630000Y-78515000D01*
X156496666Y-78515000D01*
X156430000Y-78548333D01*
X156396666Y-78581666D01*
X156363333Y-78648333D01*
X156363333Y-78848333D01*
X156396666Y-78915000D01*
X156430000Y-78948333D01*
X156496666Y-78981666D01*
X156630000Y-78981666D01*
X156696666Y-78948333D01*
X156063333Y-78981666D02*
X156063333Y-78515000D01*
X156063333Y-78281666D02*
X156096666Y-78315000D01*
X156063333Y-78348333D01*
X156030000Y-78315000D01*
X156063333Y-78281666D01*
X156063333Y-78348333D01*
X155230000Y-78248333D02*
X155830000Y-79148333D01*
X154996666Y-78515000D02*
X154996666Y-79215000D01*
X154996666Y-78548333D02*
X154930000Y-78515000D01*
X154796666Y-78515000D01*
X154730000Y-78548333D01*
X154696666Y-78581666D01*
X154663333Y-78648333D01*
X154663333Y-78848333D01*
X154696666Y-78915000D01*
X154730000Y-78948333D01*
X154796666Y-78981666D01*
X154930000Y-78981666D01*
X154996666Y-78948333D01*
X154430000Y-78515000D02*
X154296666Y-78981666D01*
X154163333Y-78648333D01*
X154030000Y-78981666D01*
X153896666Y-78515000D01*
X153630000Y-78981666D02*
X153630000Y-78515000D01*
X153630000Y-78581666D02*
X153596666Y-78548333D01*
X153530000Y-78515000D01*
X153430000Y-78515000D01*
X153363333Y-78548333D01*
X153330000Y-78615000D01*
X153330000Y-78981666D01*
X153330000Y-78615000D02*
X153296666Y-78548333D01*
X153230000Y-78515000D01*
X153130000Y-78515000D01*
X153063333Y-78548333D01*
X153030000Y-78615000D01*
X153030000Y-78981666D01*
X152696666Y-78715000D02*
X152163333Y-78715000D01*
X151530000Y-78948333D02*
X151596666Y-78981666D01*
X151730000Y-78981666D01*
X151796666Y-78948333D01*
X151830000Y-78915000D01*
X151863333Y-78848333D01*
X151863333Y-78648333D01*
X151830000Y-78581666D01*
X151796666Y-78548333D01*
X151730000Y-78515000D01*
X151596666Y-78515000D01*
X151530000Y-78548333D01*
X151230000Y-78981666D02*
X151230000Y-78281666D01*
X150930000Y-78981666D02*
X150930000Y-78615000D01*
X150963333Y-78548333D01*
X151030000Y-78515000D01*
X151130000Y-78515000D01*
X151196666Y-78548333D01*
X151230000Y-78581666D01*
X150296666Y-78981666D02*
X150296666Y-78615000D01*
X150330000Y-78548333D01*
X150396666Y-78515000D01*
X150530000Y-78515000D01*
X150596666Y-78548333D01*
X150296666Y-78948333D02*
X150363333Y-78981666D01*
X150530000Y-78981666D01*
X150596666Y-78948333D01*
X150630000Y-78881666D01*
X150630000Y-78815000D01*
X150596666Y-78748333D01*
X150530000Y-78715000D01*
X150363333Y-78715000D01*
X150296666Y-78681666D01*
X149963333Y-78981666D02*
X149963333Y-78515000D01*
X149963333Y-78648333D02*
X149930000Y-78581666D01*
X149896666Y-78548333D01*
X149830000Y-78515000D01*
X149763333Y-78515000D01*
X149230000Y-78515000D02*
X149230000Y-79081666D01*
X149263333Y-79148333D01*
X149296666Y-79181666D01*
X149363333Y-79215000D01*
X149463333Y-79215000D01*
X149530000Y-79181666D01*
X149230000Y-78948333D02*
X149296666Y-78981666D01*
X149430000Y-78981666D01*
X149496666Y-78948333D01*
X149530000Y-78915000D01*
X149563333Y-78848333D01*
X149563333Y-78648333D01*
X149530000Y-78581666D01*
X149496666Y-78548333D01*
X149430000Y-78515000D01*
X149296666Y-78515000D01*
X149230000Y-78548333D01*
X148630000Y-78948333D02*
X148696666Y-78981666D01*
X148830000Y-78981666D01*
X148896666Y-78948333D01*
X148930000Y-78881666D01*
X148930000Y-78615000D01*
X148896666Y-78548333D01*
X148830000Y-78515000D01*
X148696666Y-78515000D01*
X148630000Y-78548333D01*
X148596666Y-78615000D01*
X148596666Y-78681666D01*
X148930000Y-78748333D01*
X148296666Y-78715000D02*
X147763333Y-78715000D01*
X147130000Y-78948333D02*
X147196666Y-78981666D01*
X147330000Y-78981666D01*
X147396666Y-78948333D01*
X147430000Y-78915000D01*
X147463333Y-78848333D01*
X147463333Y-78648333D01*
X147430000Y-78581666D01*
X147396666Y-78548333D01*
X147330000Y-78515000D01*
X147196666Y-78515000D01*
X147130000Y-78548333D01*
X146730000Y-78981666D02*
X146796666Y-78948333D01*
X146830000Y-78915000D01*
X146863333Y-78848333D01*
X146863333Y-78648333D01*
X146830000Y-78581666D01*
X146796666Y-78548333D01*
X146730000Y-78515000D01*
X146630000Y-78515000D01*
X146563333Y-78548333D01*
X146530000Y-78581666D01*
X146496666Y-78648333D01*
X146496666Y-78848333D01*
X146530000Y-78915000D01*
X146563333Y-78948333D01*
X146630000Y-78981666D01*
X146730000Y-78981666D01*
X146196666Y-78515000D02*
X146196666Y-78981666D01*
X146196666Y-78581666D02*
X146163333Y-78548333D01*
X146096666Y-78515000D01*
X145996666Y-78515000D01*
X145930000Y-78548333D01*
X145896666Y-78615000D01*
X145896666Y-78981666D01*
X145663333Y-78515000D02*
X145396666Y-78515000D01*
X145563333Y-78281666D02*
X145563333Y-78881666D01*
X145530000Y-78948333D01*
X145463333Y-78981666D01*
X145396666Y-78981666D01*
X145163333Y-78981666D02*
X145163333Y-78515000D01*
X145163333Y-78648333D02*
X145130000Y-78581666D01*
X145096666Y-78548333D01*
X145030000Y-78515000D01*
X144963333Y-78515000D01*
X144630000Y-78981666D02*
X144696666Y-78948333D01*
X144730000Y-78915000D01*
X144763333Y-78848333D01*
X144763333Y-78648333D01*
X144730000Y-78581666D01*
X144696666Y-78548333D01*
X144630000Y-78515000D01*
X144530000Y-78515000D01*
X144463333Y-78548333D01*
X144430000Y-78581666D01*
X144396666Y-78648333D01*
X144396666Y-78848333D01*
X144430000Y-78915000D01*
X144463333Y-78948333D01*
X144530000Y-78981666D01*
X144630000Y-78981666D01*
X143996666Y-78981666D02*
X144063333Y-78948333D01*
X144096666Y-78881666D01*
X144096666Y-78281666D01*
X143630000Y-78981666D02*
X143696666Y-78948333D01*
X143730000Y-78881666D01*
X143730000Y-78281666D01*
X143096666Y-78948333D02*
X143163333Y-78981666D01*
X143296666Y-78981666D01*
X143363333Y-78948333D01*
X143396666Y-78881666D01*
X143396666Y-78615000D01*
X143363333Y-78548333D01*
X143296666Y-78515000D01*
X143163333Y-78515000D01*
X143096666Y-78548333D01*
X143063333Y-78615000D01*
X143063333Y-78681666D01*
X143396666Y-78748333D01*
X142763333Y-78981666D02*
X142763333Y-78515000D01*
X142763333Y-78648333D02*
X142730000Y-78581666D01*
X142696666Y-78548333D01*
X142630000Y-78515000D01*
X142563333Y-78515000D01*
X155030000Y-79665000D02*
X154863333Y-80131666D01*
X154696666Y-79665000D01*
X154463333Y-79498333D02*
X154430000Y-79465000D01*
X154363333Y-79431666D01*
X154196666Y-79431666D01*
X154130000Y-79465000D01*
X154096666Y-79498333D01*
X154063333Y-79565000D01*
X154063333Y-79631666D01*
X154096666Y-79731666D01*
X154496666Y-80131666D01*
X154063333Y-80131666D01*
X153763333Y-80065000D02*
X153730000Y-80098333D01*
X153763333Y-80131666D01*
X153796666Y-80098333D01*
X153763333Y-80065000D01*
X153763333Y-80131666D01*
X153296666Y-79431666D02*
X153230000Y-79431666D01*
X153163333Y-79465000D01*
X153130000Y-79498333D01*
X153096666Y-79565000D01*
X153063333Y-79698333D01*
X153063333Y-79865000D01*
X153096666Y-79998333D01*
X153130000Y-80065000D01*
X153163333Y-80098333D01*
X153230000Y-80131666D01*
X153296666Y-80131666D01*
X153363333Y-80098333D01*
X153396666Y-80065000D01*
X153430000Y-79998333D01*
X153463333Y-79865000D01*
X153463333Y-79698333D01*
X153430000Y-79565000D01*
X153396666Y-79498333D01*
X153363333Y-79465000D01*
X153296666Y-79431666D01*
X152230000Y-80131666D02*
X152230000Y-79431666D01*
X151996666Y-79931666D01*
X151763333Y-79431666D01*
X151763333Y-80131666D01*
X151130000Y-80131666D02*
X151130000Y-79765000D01*
X151163333Y-79698333D01*
X151230000Y-79665000D01*
X151363333Y-79665000D01*
X151430000Y-79698333D01*
X151130000Y-80098333D02*
X151196666Y-80131666D01*
X151363333Y-80131666D01*
X151430000Y-80098333D01*
X151463333Y-80031666D01*
X151463333Y-79965000D01*
X151430000Y-79898333D01*
X151363333Y-79865000D01*
X151196666Y-79865000D01*
X151130000Y-79831666D01*
X150863333Y-79665000D02*
X150696666Y-80131666D01*
X150530000Y-79665000D02*
X150696666Y-80131666D01*
X150763333Y-80298333D01*
X150796666Y-80331666D01*
X150863333Y-80365000D01*
X149763333Y-79498333D02*
X149730000Y-79465000D01*
X149663333Y-79431666D01*
X149496666Y-79431666D01*
X149430000Y-79465000D01*
X149396666Y-79498333D01*
X149363333Y-79565000D01*
X149363333Y-79631666D01*
X149396666Y-79731666D01*
X149796666Y-80131666D01*
X149363333Y-80131666D01*
X148930000Y-79431666D02*
X148863333Y-79431666D01*
X148796666Y-79465000D01*
X148763333Y-79498333D01*
X148730000Y-79565000D01*
X148696666Y-79698333D01*
X148696666Y-79865000D01*
X148730000Y-79998333D01*
X148763333Y-80065000D01*
X148796666Y-80098333D01*
X148863333Y-80131666D01*
X148930000Y-80131666D01*
X148996666Y-80098333D01*
X149030000Y-80065000D01*
X149063333Y-79998333D01*
X149096666Y-79865000D01*
X149096666Y-79698333D01*
X149063333Y-79565000D01*
X149030000Y-79498333D01*
X148996666Y-79465000D01*
X148930000Y-79431666D01*
X148030000Y-80131666D02*
X148430000Y-80131666D01*
X148230000Y-80131666D02*
X148230000Y-79431666D01*
X148296666Y-79531666D01*
X148363333Y-79598333D01*
X148430000Y-79631666D01*
X147696666Y-80131666D02*
X147563333Y-80131666D01*
X147496666Y-80098333D01*
X147463333Y-80065000D01*
X147396666Y-79965000D01*
X147363333Y-79831666D01*
X147363333Y-79565000D01*
X147396666Y-79498333D01*
X147430000Y-79465000D01*
X147496666Y-79431666D01*
X147630000Y-79431666D01*
X147696666Y-79465000D01*
X147730000Y-79498333D01*
X147763333Y-79565000D01*
X147763333Y-79731666D01*
X147730000Y-79798333D01*
X147696666Y-79831666D01*
X147630000Y-79865000D01*
X147496666Y-79865000D01*
X147430000Y-79831666D01*
X147396666Y-79798333D01*
X147363333Y-79731666D01*
D10*
X130951428Y-70547142D02*
X129808571Y-70547142D01*
X130380000Y-71118571D02*
X130380000Y-69975714D01*
X125701428Y-70547142D02*
X124558571Y-70547142D01*
D12*
X130130000Y-68368571D02*
X129987142Y-68416190D01*
X129939523Y-68463809D01*
X129891904Y-68559047D01*
X129891904Y-68701904D01*
X129939523Y-68797142D01*
X129987142Y-68844761D01*
X130082380Y-68892380D01*
X130463333Y-68892380D01*
X130463333Y-67892380D01*
X130130000Y-67892380D01*
X130034761Y-67940000D01*
X129987142Y-67987619D01*
X129939523Y-68082857D01*
X129939523Y-68178095D01*
X129987142Y-68273333D01*
X130034761Y-68320952D01*
X130130000Y-68368571D01*
X130463333Y-68368571D01*
X129510952Y-68606666D02*
X129034761Y-68606666D01*
X129606190Y-68892380D02*
X129272857Y-67892380D01*
X128939523Y-68892380D01*
X128749047Y-67892380D02*
X128177619Y-67892380D01*
X128463333Y-68892380D02*
X128463333Y-67892380D01*
X127987142Y-67892380D02*
X127415714Y-67892380D01*
X127701428Y-68892380D02*
X127701428Y-67892380D01*
X127082380Y-68368571D02*
X126749047Y-68368571D01*
X126606190Y-68892380D02*
X127082380Y-68892380D01*
X127082380Y-67892380D01*
X126606190Y-67892380D01*
X125606190Y-68892380D02*
X125939523Y-68416190D01*
X126177619Y-68892380D02*
X126177619Y-67892380D01*
X125796666Y-67892380D01*
X125701428Y-67940000D01*
X125653809Y-67987619D01*
X125606190Y-68082857D01*
X125606190Y-68225714D01*
X125653809Y-68320952D01*
X125701428Y-68368571D01*
X125796666Y-68416190D01*
X126177619Y-68416190D01*
X124987142Y-68416190D02*
X124987142Y-68892380D01*
X125320476Y-67892380D02*
X124987142Y-68416190D01*
X124653809Y-67892380D01*
X147772857Y-68844761D02*
X147630000Y-68892380D01*
X147391904Y-68892380D01*
X147296666Y-68844761D01*
X147249047Y-68797142D01*
X147201428Y-68701904D01*
X147201428Y-68606666D01*
X147249047Y-68511428D01*
X147296666Y-68463809D01*
X147391904Y-68416190D01*
X147582380Y-68368571D01*
X147677619Y-68320952D01*
X147725238Y-68273333D01*
X147772857Y-68178095D01*
X147772857Y-68082857D01*
X147725238Y-67987619D01*
X147677619Y-67940000D01*
X147582380Y-67892380D01*
X147344285Y-67892380D01*
X147201428Y-67940000D01*
X146582380Y-67892380D02*
X146391904Y-67892380D01*
X146296666Y-67940000D01*
X146201428Y-68035238D01*
X146153809Y-68225714D01*
X146153809Y-68559047D01*
X146201428Y-68749523D01*
X146296666Y-68844761D01*
X146391904Y-68892380D01*
X146582380Y-68892380D01*
X146677619Y-68844761D01*
X146772857Y-68749523D01*
X146820476Y-68559047D01*
X146820476Y-68225714D01*
X146772857Y-68035238D01*
X146677619Y-67940000D01*
X146582380Y-67892380D01*
X145249047Y-68892380D02*
X145725238Y-68892380D01*
X145725238Y-67892380D01*
X144963333Y-68606666D02*
X144487142Y-68606666D01*
X145058571Y-68892380D02*
X144725238Y-67892380D01*
X144391904Y-68892380D01*
X143487142Y-68892380D02*
X143820476Y-68416190D01*
X144058571Y-68892380D02*
X144058571Y-67892380D01*
X143677619Y-67892380D01*
X143582380Y-67940000D01*
X143534761Y-67987619D01*
X143487142Y-68082857D01*
X143487142Y-68225714D01*
X143534761Y-68320952D01*
X143582380Y-68368571D01*
X143677619Y-68416190D01*
X144058571Y-68416190D01*
X133665714Y-79844761D02*
X133522857Y-79892380D01*
X133284761Y-79892380D01*
X133189523Y-79844761D01*
X133141904Y-79797142D01*
X133094285Y-79701904D01*
X133094285Y-79606666D01*
X133141904Y-79511428D01*
X133189523Y-79463809D01*
X133284761Y-79416190D01*
X133475238Y-79368571D01*
X133570476Y-79320952D01*
X133618095Y-79273333D01*
X133665714Y-79178095D01*
X133665714Y-79082857D01*
X133618095Y-78987619D01*
X133570476Y-78940000D01*
X133475238Y-78892380D01*
X133237142Y-78892380D01*
X133094285Y-78940000D01*
X136141904Y-79892380D02*
X136141904Y-78892380D01*
X135903809Y-78892380D01*
X135760952Y-78940000D01*
X135665714Y-79035238D01*
X135618095Y-79130476D01*
X135570476Y-79320952D01*
X135570476Y-79463809D01*
X135618095Y-79654285D01*
X135665714Y-79749523D01*
X135760952Y-79844761D01*
X135903809Y-79892380D01*
X136141904Y-79892380D01*
X138118095Y-78940000D02*
X138213333Y-78892380D01*
X138356190Y-78892380D01*
X138499047Y-78940000D01*
X138594285Y-79035238D01*
X138641904Y-79130476D01*
X138689523Y-79320952D01*
X138689523Y-79463809D01*
X138641904Y-79654285D01*
X138594285Y-79749523D01*
X138499047Y-79844761D01*
X138356190Y-79892380D01*
X138260952Y-79892380D01*
X138118095Y-79844761D01*
X138070476Y-79797142D01*
X138070476Y-79463809D01*
X138260952Y-79463809D01*
X158618095Y-80792380D02*
X157999047Y-80792380D01*
X158332380Y-81173333D01*
X158189523Y-81173333D01*
X158094285Y-81220952D01*
X158046666Y-81268571D01*
X157999047Y-81363809D01*
X157999047Y-81601904D01*
X158046666Y-81697142D01*
X158094285Y-81744761D01*
X158189523Y-81792380D01*
X158475238Y-81792380D01*
X158570476Y-81744761D01*
X158618095Y-81697142D01*
X157713333Y-80792380D02*
X157380000Y-81792380D01*
X157046666Y-80792380D01*
X156808571Y-80792380D02*
X156189523Y-80792380D01*
X156522857Y-81173333D01*
X156380000Y-81173333D01*
X156284761Y-81220952D01*
X156237142Y-81268571D01*
X156189523Y-81363809D01*
X156189523Y-81601904D01*
X156237142Y-81697142D01*
X156284761Y-81744761D01*
X156380000Y-81792380D01*
X156665714Y-81792380D01*
X156760952Y-81744761D01*
X156808571Y-81697142D01*
X156350238Y-83722142D02*
X156397857Y-83769761D01*
X156540714Y-83817380D01*
X156635952Y-83817380D01*
X156778809Y-83769761D01*
X156874047Y-83674523D01*
X156921666Y-83579285D01*
X156969285Y-83388809D01*
X156969285Y-83245952D01*
X156921666Y-83055476D01*
X156874047Y-82960238D01*
X156778809Y-82865000D01*
X156635952Y-82817380D01*
X156540714Y-82817380D01*
X156397857Y-82865000D01*
X156350238Y-82912619D01*
X155445476Y-83817380D02*
X155921666Y-83817380D01*
X155921666Y-82817380D01*
X155112142Y-83817380D02*
X155112142Y-82817380D01*
X154540714Y-83817380D02*
X154969285Y-83245952D01*
X154540714Y-82817380D02*
X155112142Y-83388809D01*
X154791904Y-84715000D02*
X154887142Y-84667380D01*
X155030000Y-84667380D01*
X155172857Y-84715000D01*
X155268095Y-84810238D01*
X155315714Y-84905476D01*
X155363333Y-85095952D01*
X155363333Y-85238809D01*
X155315714Y-85429285D01*
X155268095Y-85524523D01*
X155172857Y-85619761D01*
X155030000Y-85667380D01*
X154934761Y-85667380D01*
X154791904Y-85619761D01*
X154744285Y-85572142D01*
X154744285Y-85238809D01*
X154934761Y-85238809D01*
X154315714Y-85667380D02*
X154315714Y-84667380D01*
X153744285Y-85667380D01*
X153744285Y-84667380D01*
X153268095Y-85667380D02*
X153268095Y-84667380D01*
X153030000Y-84667380D01*
X152887142Y-84715000D01*
X152791904Y-84810238D01*
X152744285Y-84905476D01*
X152696666Y-85095952D01*
X152696666Y-85238809D01*
X152744285Y-85429285D01*
X152791904Y-85524523D01*
X152887142Y-85619761D01*
X153030000Y-85667380D01*
X153268095Y-85667380D01*
X153753809Y-87442380D02*
X153753809Y-86442380D01*
X153515714Y-86442380D01*
X153372857Y-86490000D01*
X153277619Y-86585238D01*
X153230000Y-86680476D01*
X153182380Y-86870952D01*
X153182380Y-87013809D01*
X153230000Y-87204285D01*
X153277619Y-87299523D01*
X153372857Y-87394761D01*
X153515714Y-87442380D01*
X153753809Y-87442380D01*
X152753809Y-87442380D02*
X152753809Y-86442380D01*
X152087142Y-86442380D02*
X151896666Y-86442380D01*
X151801428Y-86490000D01*
X151706190Y-86585238D01*
X151658571Y-86775714D01*
X151658571Y-87109047D01*
X151706190Y-87299523D01*
X151801428Y-87394761D01*
X151896666Y-87442380D01*
X152087142Y-87442380D01*
X152182380Y-87394761D01*
X152277619Y-87299523D01*
X152325238Y-87109047D01*
X152325238Y-86775714D01*
X152277619Y-86585238D01*
X152182380Y-86490000D01*
X152087142Y-86442380D01*
X151602619Y-89317380D02*
X151935952Y-88841190D01*
X152174047Y-89317380D02*
X152174047Y-88317380D01*
X151793095Y-88317380D01*
X151697857Y-88365000D01*
X151650238Y-88412619D01*
X151602619Y-88507857D01*
X151602619Y-88650714D01*
X151650238Y-88745952D01*
X151697857Y-88793571D01*
X151793095Y-88841190D01*
X152174047Y-88841190D01*
X151221666Y-89269761D02*
X151078809Y-89317380D01*
X150840714Y-89317380D01*
X150745476Y-89269761D01*
X150697857Y-89222142D01*
X150650238Y-89126904D01*
X150650238Y-89031666D01*
X150697857Y-88936428D01*
X150745476Y-88888809D01*
X150840714Y-88841190D01*
X151031190Y-88793571D01*
X151126428Y-88745952D01*
X151174047Y-88698333D01*
X151221666Y-88603095D01*
X151221666Y-88507857D01*
X151174047Y-88412619D01*
X151126428Y-88365000D01*
X151031190Y-88317380D01*
X150793095Y-88317380D01*
X150650238Y-88365000D01*
X150364523Y-88317380D02*
X149793095Y-88317380D01*
X150078809Y-89317380D02*
X150078809Y-88317380D01*
X150741904Y-90367380D02*
X150170476Y-90367380D01*
X150456190Y-91367380D02*
X150456190Y-90367380D01*
X149932380Y-90367380D02*
X149265714Y-91367380D01*
X149265714Y-90367380D02*
X149932380Y-91367380D01*
D13*
X140558571Y-91618571D02*
X139701428Y-91618571D01*
X140130000Y-93118571D02*
X140130000Y-91618571D01*
X139272857Y-92690000D02*
X138558571Y-92690000D01*
X139415714Y-93118571D02*
X138915714Y-91618571D01*
X138415714Y-93118571D01*
X137415714Y-92332857D02*
X137201428Y-92404285D01*
X137130000Y-92475714D01*
X137058571Y-92618571D01*
X137058571Y-92832857D01*
X137130000Y-92975714D01*
X137201428Y-93047142D01*
X137344285Y-93118571D01*
X137915714Y-93118571D01*
X137915714Y-91618571D01*
X137415714Y-91618571D01*
X137272857Y-91690000D01*
X137201428Y-91761428D01*
X137130000Y-91904285D01*
X137130000Y-92047142D01*
X137201428Y-92190000D01*
X137272857Y-92261428D01*
X137415714Y-92332857D01*
X137915714Y-92332857D01*
X135272857Y-91618571D02*
X135272857Y-92832857D01*
X135201428Y-92975714D01*
X135130000Y-93047142D01*
X134987142Y-93118571D01*
X134701428Y-93118571D01*
X134558571Y-93047142D01*
X134487142Y-92975714D01*
X134415714Y-92832857D01*
X134415714Y-91618571D01*
X133701428Y-93118571D02*
X133701428Y-91618571D01*
X133130000Y-91618571D01*
X132987142Y-91690000D01*
X132915714Y-91761428D01*
X132844285Y-91904285D01*
X132844285Y-92118571D01*
X132915714Y-92261428D01*
X132987142Y-92332857D01*
X133130000Y-92404285D01*
X133701428Y-92404285D01*
D14*
G04 #@! TO.C,SC1*
X150760000Y-69490000D02*
X150760000Y-77110000D01*
X140600000Y-69490000D02*
X150760000Y-69490000D01*
G04 #@! TO.C,BT1*
X122610000Y-77100000D02*
X122610000Y-69480000D01*
X122610000Y-69480000D02*
X132770000Y-69480000D01*
G04 #@! TO.C,C6*
X136971267Y-97680000D02*
X136628733Y-97680000D01*
X136971267Y-98700000D02*
X136628733Y-98700000D01*
G04 #@! TO.C,Q3*
X134100000Y-78640000D02*
X134100000Y-80600000D01*
X136640000Y-78640000D02*
X136640000Y-80600000D01*
X139180000Y-78640000D02*
X139180000Y-80600000D01*
X131390000Y-95070000D02*
X131390000Y-96270000D01*
X131390000Y-92670000D02*
X131390000Y-93870000D01*
X131390000Y-90270000D02*
X131390000Y-91470000D01*
X141890000Y-95070000D02*
X141890000Y-96270000D01*
X141890000Y-92670000D02*
X141890000Y-93870000D01*
X141890000Y-90270000D02*
X141890000Y-91470000D01*
X132290000Y-96710000D02*
X131390000Y-96710000D01*
X134690000Y-96710000D02*
X133490000Y-96710000D01*
X137090000Y-96710000D02*
X135890000Y-96710000D01*
X139491000Y-96710000D02*
X138290000Y-96710000D01*
X141890000Y-96710000D02*
X140690000Y-96710000D01*
X131390000Y-80600000D02*
X131390000Y-90030000D01*
X141890000Y-80600000D02*
X141890000Y-90030000D01*
X141890000Y-90030000D02*
X131390000Y-90030000D01*
X141890000Y-80600000D02*
X131390000Y-80600000D01*
G04 #@! TO.C,C2*
X130055000Y-82021267D02*
X130055000Y-81678733D01*
X129035000Y-82021267D02*
X129035000Y-81678733D01*
G04 #@! TO.C,C4*
X129035000Y-85771267D02*
X129035000Y-85428733D01*
X130055000Y-85771267D02*
X130055000Y-85428733D01*
G04 #@! TO.C,C5*
X128623733Y-87740000D02*
X128966267Y-87740000D01*
X128623733Y-88760000D02*
X128966267Y-88760000D01*
G04 #@! TO.C,C7*
X136971267Y-100700000D02*
X136628733Y-100700000D01*
X136971267Y-99680000D02*
X136628733Y-99680000D01*
G04 #@! TO.C,C8*
X136648733Y-104010000D02*
X136991267Y-104010000D01*
X136648733Y-102990000D02*
X136991267Y-102990000D01*
G04 #@! TO.C,C9*
X136648733Y-104740000D02*
X136991267Y-104740000D01*
X136648733Y-105760000D02*
X136991267Y-105760000D01*
G04 #@! TO.C,C10*
X128210000Y-103518733D02*
X128210000Y-103861267D01*
X129230000Y-103518733D02*
X129230000Y-103861267D01*
G04 #@! TO.C,D2*
X126135000Y-87180000D02*
X126135000Y-86250000D01*
X126135000Y-84020000D02*
X126135000Y-84950000D01*
X126135000Y-84020000D02*
X128295000Y-84020000D01*
X126135000Y-87180000D02*
X127595000Y-87180000D01*
G04 #@! TO.C,J1*
X152080529Y-94417511D02*
X150042851Y-92707696D01*
X160282499Y-84642784D02*
X152080529Y-94417511D01*
X158244821Y-82932969D02*
X150042851Y-92707696D01*
X160282499Y-84642784D02*
X158244821Y-82932969D01*
X161098839Y-83669908D02*
X161953747Y-82651068D01*
X161953747Y-82651068D02*
X160934908Y-81796161D01*
G04 #@! TO.C,R1*
X129440000Y-95518733D02*
X129440000Y-95861267D01*
X130460000Y-95518733D02*
X130460000Y-95861267D01*
G04 #@! TO.C,R2*
X126965000Y-95493733D02*
X126965000Y-95836267D01*
X127985000Y-95493733D02*
X127985000Y-95836267D01*
G04 #@! TO.C,R5*
X130460000Y-99268733D02*
X130460000Y-99611267D01*
X129440000Y-99268733D02*
X129440000Y-99611267D01*
G04 #@! TO.C,R6*
X127985000Y-99243733D02*
X127985000Y-99586267D01*
X126965000Y-99243733D02*
X126965000Y-99586267D01*
G04 #@! TO.C,R8*
X132858733Y-97680000D02*
X133201267Y-97680000D01*
X132858733Y-98700000D02*
X133201267Y-98700000D01*
G04 #@! TO.C,R9*
X115801267Y-75180000D02*
X115458733Y-75180000D01*
X115801267Y-76200000D02*
X115458733Y-76200000D01*
G04 #@! TO.C,R11*
X157801267Y-76200000D02*
X157458733Y-76200000D01*
X157801267Y-75180000D02*
X157458733Y-75180000D01*
G04 #@! TO.C,D1*
X126135000Y-83330000D02*
X126135000Y-82400000D01*
X126135000Y-80170000D02*
X126135000Y-81100000D01*
X126135000Y-80170000D02*
X128295000Y-80170000D01*
X126135000Y-83330000D02*
X127595000Y-83330000D01*
G04 #@! TO.C,SC1*
D12*
X146553333Y-76083333D02*
X146453333Y-76116666D01*
X146286666Y-76116666D01*
X146220000Y-76083333D01*
X146186666Y-76050000D01*
X146153333Y-75983333D01*
X146153333Y-75916666D01*
X146186666Y-75850000D01*
X146220000Y-75816666D01*
X146286666Y-75783333D01*
X146420000Y-75750000D01*
X146486666Y-75716666D01*
X146520000Y-75683333D01*
X146553333Y-75616666D01*
X146553333Y-75550000D01*
X146520000Y-75483333D01*
X146486666Y-75450000D01*
X146420000Y-75416666D01*
X146253333Y-75416666D01*
X146153333Y-75450000D01*
X145453333Y-76050000D02*
X145486666Y-76083333D01*
X145586666Y-76116666D01*
X145653333Y-76116666D01*
X145753333Y-76083333D01*
X145820000Y-76016666D01*
X145853333Y-75950000D01*
X145886666Y-75816666D01*
X145886666Y-75716666D01*
X145853333Y-75583333D01*
X145820000Y-75516666D01*
X145753333Y-75450000D01*
X145653333Y-75416666D01*
X145586666Y-75416666D01*
X145486666Y-75450000D01*
X145453333Y-75483333D01*
X144786666Y-76116666D02*
X145186666Y-76116666D01*
X144986666Y-76116666D02*
X144986666Y-75416666D01*
X145053333Y-75516666D01*
X145120000Y-75583333D01*
X145186666Y-75616666D01*
G04 #@! TO.C,BT1*
X128230000Y-75890000D02*
X128130000Y-75923333D01*
X128096666Y-75956666D01*
X128063333Y-76023333D01*
X128063333Y-76123333D01*
X128096666Y-76190000D01*
X128130000Y-76223333D01*
X128196666Y-76256666D01*
X128463333Y-76256666D01*
X128463333Y-75556666D01*
X128230000Y-75556666D01*
X128163333Y-75590000D01*
X128130000Y-75623333D01*
X128096666Y-75690000D01*
X128096666Y-75756666D01*
X128130000Y-75823333D01*
X128163333Y-75856666D01*
X128230000Y-75890000D01*
X128463333Y-75890000D01*
X127863333Y-75556666D02*
X127463333Y-75556666D01*
X127663333Y-76256666D02*
X127663333Y-75556666D01*
X126863333Y-76256666D02*
X127263333Y-76256666D01*
X127063333Y-76256666D02*
X127063333Y-75556666D01*
X127130000Y-75656666D01*
X127196666Y-75723333D01*
X127263333Y-75756666D01*
G04 #@! TO.C,C6*
X136916666Y-99390000D02*
X136950000Y-99423333D01*
X137050000Y-99456666D01*
X137116666Y-99456666D01*
X137216666Y-99423333D01*
X137283333Y-99356666D01*
X137316666Y-99290000D01*
X137350000Y-99156666D01*
X137350000Y-99056666D01*
X137316666Y-98923333D01*
X137283333Y-98856666D01*
X137216666Y-98790000D01*
X137116666Y-98756666D01*
X137050000Y-98756666D01*
X136950000Y-98790000D01*
X136916666Y-98823333D01*
X136316666Y-98756666D02*
X136450000Y-98756666D01*
X136516666Y-98790000D01*
X136550000Y-98823333D01*
X136616666Y-98923333D01*
X136650000Y-99056666D01*
X136650000Y-99323333D01*
X136616666Y-99390000D01*
X136583333Y-99423333D01*
X136516666Y-99456666D01*
X136383333Y-99456666D01*
X136316666Y-99423333D01*
X136283333Y-99390000D01*
X136250000Y-99323333D01*
X136250000Y-99156666D01*
X136283333Y-99090000D01*
X136316666Y-99056666D01*
X136383333Y-99023333D01*
X136516666Y-99023333D01*
X136583333Y-99056666D01*
X136616666Y-99090000D01*
X136650000Y-99156666D01*
G04 #@! TO.C,Q3*
X136706666Y-81613333D02*
X136773333Y-81580000D01*
X136840000Y-81513333D01*
X136940000Y-81413333D01*
X137006666Y-81380000D01*
X137073333Y-81380000D01*
X137040000Y-81546666D02*
X137106666Y-81513333D01*
X137173333Y-81446666D01*
X137206666Y-81313333D01*
X137206666Y-81080000D01*
X137173333Y-80946666D01*
X137106666Y-80880000D01*
X137040000Y-80846666D01*
X136906666Y-80846666D01*
X136840000Y-80880000D01*
X136773333Y-80946666D01*
X136740000Y-81080000D01*
X136740000Y-81313333D01*
X136773333Y-81446666D01*
X136840000Y-81513333D01*
X136906666Y-81546666D01*
X137040000Y-81546666D01*
X136506666Y-80846666D02*
X136073333Y-80846666D01*
X136306666Y-81113333D01*
X136206666Y-81113333D01*
X136140000Y-81146666D01*
X136106666Y-81180000D01*
X136073333Y-81246666D01*
X136073333Y-81413333D01*
X136106666Y-81480000D01*
X136140000Y-81513333D01*
X136206666Y-81546666D01*
X136406666Y-81546666D01*
X136473333Y-81513333D01*
X136506666Y-81480000D01*
G04 #@! TO.C,C2*
X130980000Y-81673333D02*
X131013333Y-81640000D01*
X131046666Y-81540000D01*
X131046666Y-81473333D01*
X131013333Y-81373333D01*
X130946666Y-81306666D01*
X130880000Y-81273333D01*
X130746666Y-81240000D01*
X130646666Y-81240000D01*
X130513333Y-81273333D01*
X130446666Y-81306666D01*
X130380000Y-81373333D01*
X130346666Y-81473333D01*
X130346666Y-81540000D01*
X130380000Y-81640000D01*
X130413333Y-81673333D01*
X130413333Y-81940000D02*
X130380000Y-81973333D01*
X130346666Y-82040000D01*
X130346666Y-82206666D01*
X130380000Y-82273333D01*
X130413333Y-82306666D01*
X130480000Y-82340000D01*
X130546666Y-82340000D01*
X130646666Y-82306666D01*
X131046666Y-81906666D01*
X131046666Y-82340000D01*
G04 #@! TO.C,C4*
X130980000Y-85573333D02*
X131013333Y-85540000D01*
X131046666Y-85440000D01*
X131046666Y-85373333D01*
X131013333Y-85273333D01*
X130946666Y-85206666D01*
X130880000Y-85173333D01*
X130746666Y-85140000D01*
X130646666Y-85140000D01*
X130513333Y-85173333D01*
X130446666Y-85206666D01*
X130380000Y-85273333D01*
X130346666Y-85373333D01*
X130346666Y-85440000D01*
X130380000Y-85540000D01*
X130413333Y-85573333D01*
X130580000Y-86173333D02*
X131046666Y-86173333D01*
X130313333Y-86006666D02*
X130813333Y-85840000D01*
X130813333Y-86273333D01*
G04 #@! TO.C,C5*
X128911666Y-89930000D02*
X128945000Y-89963333D01*
X129045000Y-89996666D01*
X129111666Y-89996666D01*
X129211666Y-89963333D01*
X129278333Y-89896666D01*
X129311666Y-89830000D01*
X129345000Y-89696666D01*
X129345000Y-89596666D01*
X129311666Y-89463333D01*
X129278333Y-89396666D01*
X129211666Y-89330000D01*
X129111666Y-89296666D01*
X129045000Y-89296666D01*
X128945000Y-89330000D01*
X128911666Y-89363333D01*
X128278333Y-89296666D02*
X128611666Y-89296666D01*
X128645000Y-89630000D01*
X128611666Y-89596666D01*
X128545000Y-89563333D01*
X128378333Y-89563333D01*
X128311666Y-89596666D01*
X128278333Y-89630000D01*
X128245000Y-89696666D01*
X128245000Y-89863333D01*
X128278333Y-89930000D01*
X128311666Y-89963333D01*
X128378333Y-89996666D01*
X128545000Y-89996666D01*
X128611666Y-89963333D01*
X128645000Y-89930000D01*
G04 #@! TO.C,C7*
X136916666Y-101390000D02*
X136950000Y-101423333D01*
X137050000Y-101456666D01*
X137116666Y-101456666D01*
X137216666Y-101423333D01*
X137283333Y-101356666D01*
X137316666Y-101290000D01*
X137350000Y-101156666D01*
X137350000Y-101056666D01*
X137316666Y-100923333D01*
X137283333Y-100856666D01*
X137216666Y-100790000D01*
X137116666Y-100756666D01*
X137050000Y-100756666D01*
X136950000Y-100790000D01*
X136916666Y-100823333D01*
X136683333Y-100756666D02*
X136216666Y-100756666D01*
X136516666Y-101456666D01*
G04 #@! TO.C,C8*
X136916666Y-102790000D02*
X136950000Y-102823333D01*
X137050000Y-102856666D01*
X137116666Y-102856666D01*
X137216666Y-102823333D01*
X137283333Y-102756666D01*
X137316666Y-102690000D01*
X137350000Y-102556666D01*
X137350000Y-102456666D01*
X137316666Y-102323333D01*
X137283333Y-102256666D01*
X137216666Y-102190000D01*
X137116666Y-102156666D01*
X137050000Y-102156666D01*
X136950000Y-102190000D01*
X136916666Y-102223333D01*
X136516666Y-102456666D02*
X136583333Y-102423333D01*
X136616666Y-102390000D01*
X136650000Y-102323333D01*
X136650000Y-102290000D01*
X136616666Y-102223333D01*
X136583333Y-102190000D01*
X136516666Y-102156666D01*
X136383333Y-102156666D01*
X136316666Y-102190000D01*
X136283333Y-102223333D01*
X136250000Y-102290000D01*
X136250000Y-102323333D01*
X136283333Y-102390000D01*
X136316666Y-102423333D01*
X136383333Y-102456666D01*
X136516666Y-102456666D01*
X136583333Y-102490000D01*
X136616666Y-102523333D01*
X136650000Y-102590000D01*
X136650000Y-102723333D01*
X136616666Y-102790000D01*
X136583333Y-102823333D01*
X136516666Y-102856666D01*
X136383333Y-102856666D01*
X136316666Y-102823333D01*
X136283333Y-102790000D01*
X136250000Y-102723333D01*
X136250000Y-102590000D01*
X136283333Y-102523333D01*
X136316666Y-102490000D01*
X136383333Y-102456666D01*
G04 #@! TO.C,C9*
X136916666Y-106490000D02*
X136950000Y-106523333D01*
X137050000Y-106556666D01*
X137116666Y-106556666D01*
X137216666Y-106523333D01*
X137283333Y-106456666D01*
X137316666Y-106390000D01*
X137350000Y-106256666D01*
X137350000Y-106156666D01*
X137316666Y-106023333D01*
X137283333Y-105956666D01*
X137216666Y-105890000D01*
X137116666Y-105856666D01*
X137050000Y-105856666D01*
X136950000Y-105890000D01*
X136916666Y-105923333D01*
X136583333Y-106556666D02*
X136450000Y-106556666D01*
X136383333Y-106523333D01*
X136350000Y-106490000D01*
X136283333Y-106390000D01*
X136250000Y-106256666D01*
X136250000Y-105990000D01*
X136283333Y-105923333D01*
X136316666Y-105890000D01*
X136383333Y-105856666D01*
X136516666Y-105856666D01*
X136583333Y-105890000D01*
X136616666Y-105923333D01*
X136650000Y-105990000D01*
X136650000Y-106156666D01*
X136616666Y-106223333D01*
X136583333Y-106256666D01*
X136516666Y-106290000D01*
X136383333Y-106290000D01*
X136316666Y-106256666D01*
X136283333Y-106223333D01*
X136250000Y-106156666D01*
G04 #@! TO.C,C10*
X130250000Y-103290000D02*
X130283333Y-103256666D01*
X130316666Y-103156666D01*
X130316666Y-103090000D01*
X130283333Y-102990000D01*
X130216666Y-102923333D01*
X130150000Y-102890000D01*
X130016666Y-102856666D01*
X129916666Y-102856666D01*
X129783333Y-102890000D01*
X129716666Y-102923333D01*
X129650000Y-102990000D01*
X129616666Y-103090000D01*
X129616666Y-103156666D01*
X129650000Y-103256666D01*
X129683333Y-103290000D01*
X130316666Y-103956666D02*
X130316666Y-103556666D01*
X130316666Y-103756666D02*
X129616666Y-103756666D01*
X129716666Y-103690000D01*
X129783333Y-103623333D01*
X129816666Y-103556666D01*
X129616666Y-104390000D02*
X129616666Y-104456666D01*
X129650000Y-104523333D01*
X129683333Y-104556666D01*
X129750000Y-104590000D01*
X129883333Y-104623333D01*
X130050000Y-104623333D01*
X130183333Y-104590000D01*
X130250000Y-104556666D01*
X130283333Y-104523333D01*
X130316666Y-104456666D01*
X130316666Y-104390000D01*
X130283333Y-104323333D01*
X130250000Y-104290000D01*
X130183333Y-104256666D01*
X130050000Y-104223333D01*
X129883333Y-104223333D01*
X129750000Y-104256666D01*
X129683333Y-104290000D01*
X129650000Y-104323333D01*
X129616666Y-104390000D01*
G04 #@! TO.C,D2*
X125816666Y-86623333D02*
X125116666Y-86623333D01*
X125116666Y-86790000D01*
X125150000Y-86890000D01*
X125216666Y-86956666D01*
X125283333Y-86990000D01*
X125416666Y-87023333D01*
X125516666Y-87023333D01*
X125650000Y-86990000D01*
X125716666Y-86956666D01*
X125783333Y-86890000D01*
X125816666Y-86790000D01*
X125816666Y-86623333D01*
X125183333Y-87290000D02*
X125150000Y-87323333D01*
X125116666Y-87390000D01*
X125116666Y-87556666D01*
X125150000Y-87623333D01*
X125183333Y-87656666D01*
X125250000Y-87690000D01*
X125316666Y-87690000D01*
X125416666Y-87656666D01*
X125816666Y-87256666D01*
X125816666Y-87690000D01*
G04 #@! TO.C,J1*
X150983805Y-95133361D02*
X150885774Y-95094617D01*
X150758100Y-94987485D01*
X150728456Y-94919098D01*
X150724348Y-94872137D01*
X150741666Y-94799641D01*
X150784518Y-94748572D01*
X150852905Y-94718928D01*
X150899866Y-94714820D01*
X150972362Y-94732137D01*
X151095928Y-94792307D01*
X151168424Y-94809625D01*
X151215385Y-94805517D01*
X151283772Y-94775873D01*
X151326625Y-94724804D01*
X151343942Y-94652308D01*
X151339834Y-94605347D01*
X151310190Y-94536959D01*
X151182516Y-94429828D01*
X151084486Y-94391084D01*
X150927168Y-94215566D02*
X150349543Y-94644665D01*
X150568797Y-94175938D01*
X150145264Y-94473255D01*
X150467541Y-93829893D01*
X149813312Y-94194714D02*
X150263263Y-93658483D01*
X150135589Y-93551352D01*
X150037558Y-93512608D01*
X149943636Y-93520825D01*
X149875249Y-93550468D01*
X149764009Y-93631181D01*
X149699730Y-93707786D01*
X149639560Y-93831351D01*
X149622242Y-93903847D01*
X149630459Y-93997769D01*
X149685638Y-94087583D01*
X149813312Y-94194714D01*
G04 #@! TO.C,R1*
X131416666Y-95623333D02*
X131083333Y-95390000D01*
X131416666Y-95223333D02*
X130716666Y-95223333D01*
X130716666Y-95490000D01*
X130750000Y-95556666D01*
X130783333Y-95590000D01*
X130850000Y-95623333D01*
X130950000Y-95623333D01*
X131016666Y-95590000D01*
X131050000Y-95556666D01*
X131083333Y-95490000D01*
X131083333Y-95223333D01*
X131416666Y-96290000D02*
X131416666Y-95890000D01*
X131416666Y-96090000D02*
X130716666Y-96090000D01*
X130816666Y-96023333D01*
X130883333Y-95956666D01*
X130916666Y-95890000D01*
G04 #@! TO.C,R2*
X128991666Y-95598333D02*
X128658333Y-95365000D01*
X128991666Y-95198333D02*
X128291666Y-95198333D01*
X128291666Y-95465000D01*
X128325000Y-95531666D01*
X128358333Y-95565000D01*
X128425000Y-95598333D01*
X128525000Y-95598333D01*
X128591666Y-95565000D01*
X128625000Y-95531666D01*
X128658333Y-95465000D01*
X128658333Y-95198333D01*
X128358333Y-95865000D02*
X128325000Y-95898333D01*
X128291666Y-95965000D01*
X128291666Y-96131666D01*
X128325000Y-96198333D01*
X128358333Y-96231666D01*
X128425000Y-96265000D01*
X128491666Y-96265000D01*
X128591666Y-96231666D01*
X128991666Y-95831666D01*
X128991666Y-96265000D01*
G04 #@! TO.C,R5*
X131416666Y-99323333D02*
X131083333Y-99090000D01*
X131416666Y-98923333D02*
X130716666Y-98923333D01*
X130716666Y-99190000D01*
X130750000Y-99256666D01*
X130783333Y-99290000D01*
X130850000Y-99323333D01*
X130950000Y-99323333D01*
X131016666Y-99290000D01*
X131050000Y-99256666D01*
X131083333Y-99190000D01*
X131083333Y-98923333D01*
X130716666Y-99956666D02*
X130716666Y-99623333D01*
X131050000Y-99590000D01*
X131016666Y-99623333D01*
X130983333Y-99690000D01*
X130983333Y-99856666D01*
X131016666Y-99923333D01*
X131050000Y-99956666D01*
X131116666Y-99990000D01*
X131283333Y-99990000D01*
X131350000Y-99956666D01*
X131383333Y-99923333D01*
X131416666Y-99856666D01*
X131416666Y-99690000D01*
X131383333Y-99623333D01*
X131350000Y-99590000D01*
G04 #@! TO.C,R6*
X128991666Y-99298333D02*
X128658333Y-99065000D01*
X128991666Y-98898333D02*
X128291666Y-98898333D01*
X128291666Y-99165000D01*
X128325000Y-99231666D01*
X128358333Y-99265000D01*
X128425000Y-99298333D01*
X128525000Y-99298333D01*
X128591666Y-99265000D01*
X128625000Y-99231666D01*
X128658333Y-99165000D01*
X128658333Y-98898333D01*
X128291666Y-99898333D02*
X128291666Y-99765000D01*
X128325000Y-99698333D01*
X128358333Y-99665000D01*
X128458333Y-99598333D01*
X128591666Y-99565000D01*
X128858333Y-99565000D01*
X128925000Y-99598333D01*
X128958333Y-99631666D01*
X128991666Y-99698333D01*
X128991666Y-99831666D01*
X128958333Y-99898333D01*
X128925000Y-99931666D01*
X128858333Y-99965000D01*
X128691666Y-99965000D01*
X128625000Y-99931666D01*
X128591666Y-99898333D01*
X128558333Y-99831666D01*
X128558333Y-99698333D01*
X128591666Y-99631666D01*
X128625000Y-99598333D01*
X128691666Y-99565000D01*
G04 #@! TO.C,R8*
X133126666Y-97546666D02*
X133360000Y-97213333D01*
X133526666Y-97546666D02*
X133526666Y-96846666D01*
X133260000Y-96846666D01*
X133193333Y-96880000D01*
X133160000Y-96913333D01*
X133126666Y-96980000D01*
X133126666Y-97080000D01*
X133160000Y-97146666D01*
X133193333Y-97180000D01*
X133260000Y-97213333D01*
X133526666Y-97213333D01*
X132726666Y-97146666D02*
X132793333Y-97113333D01*
X132826666Y-97080000D01*
X132860000Y-97013333D01*
X132860000Y-96980000D01*
X132826666Y-96913333D01*
X132793333Y-96880000D01*
X132726666Y-96846666D01*
X132593333Y-96846666D01*
X132526666Y-96880000D01*
X132493333Y-96913333D01*
X132460000Y-96980000D01*
X132460000Y-97013333D01*
X132493333Y-97080000D01*
X132526666Y-97113333D01*
X132593333Y-97146666D01*
X132726666Y-97146666D01*
X132793333Y-97180000D01*
X132826666Y-97213333D01*
X132860000Y-97280000D01*
X132860000Y-97413333D01*
X132826666Y-97480000D01*
X132793333Y-97513333D01*
X132726666Y-97546666D01*
X132593333Y-97546666D01*
X132526666Y-97513333D01*
X132493333Y-97480000D01*
X132460000Y-97413333D01*
X132460000Y-97280000D01*
X132493333Y-97213333D01*
X132526666Y-97180000D01*
X132593333Y-97146666D01*
G04 #@! TO.C,R9*
X115746666Y-74576666D02*
X115980000Y-74243333D01*
X116146666Y-74576666D02*
X116146666Y-73876666D01*
X115880000Y-73876666D01*
X115813333Y-73910000D01*
X115780000Y-73943333D01*
X115746666Y-74010000D01*
X115746666Y-74110000D01*
X115780000Y-74176666D01*
X115813333Y-74210000D01*
X115880000Y-74243333D01*
X116146666Y-74243333D01*
X115413333Y-74576666D02*
X115280000Y-74576666D01*
X115213333Y-74543333D01*
X115180000Y-74510000D01*
X115113333Y-74410000D01*
X115080000Y-74276666D01*
X115080000Y-74010000D01*
X115113333Y-73943333D01*
X115146666Y-73910000D01*
X115213333Y-73876666D01*
X115346666Y-73876666D01*
X115413333Y-73910000D01*
X115446666Y-73943333D01*
X115480000Y-74010000D01*
X115480000Y-74176666D01*
X115446666Y-74243333D01*
X115413333Y-74276666D01*
X115346666Y-74310000D01*
X115213333Y-74310000D01*
X115146666Y-74276666D01*
X115113333Y-74243333D01*
X115080000Y-74176666D01*
G04 #@! TO.C,R11*
X158080000Y-74576666D02*
X158313333Y-74243333D01*
X158480000Y-74576666D02*
X158480000Y-73876666D01*
X158213333Y-73876666D01*
X158146666Y-73910000D01*
X158113333Y-73943333D01*
X158080000Y-74010000D01*
X158080000Y-74110000D01*
X158113333Y-74176666D01*
X158146666Y-74210000D01*
X158213333Y-74243333D01*
X158480000Y-74243333D01*
X157413333Y-74576666D02*
X157813333Y-74576666D01*
X157613333Y-74576666D02*
X157613333Y-73876666D01*
X157680000Y-73976666D01*
X157746666Y-74043333D01*
X157813333Y-74076666D01*
X156746666Y-74576666D02*
X157146666Y-74576666D01*
X156946666Y-74576666D02*
X156946666Y-73876666D01*
X157013333Y-73976666D01*
X157080000Y-74043333D01*
X157146666Y-74076666D01*
G04 #@! TO.C,D1*
X125716666Y-79823333D02*
X125016666Y-79823333D01*
X125016666Y-79990000D01*
X125050000Y-80090000D01*
X125116666Y-80156666D01*
X125183333Y-80190000D01*
X125316666Y-80223333D01*
X125416666Y-80223333D01*
X125550000Y-80190000D01*
X125616666Y-80156666D01*
X125683333Y-80090000D01*
X125716666Y-79990000D01*
X125716666Y-79823333D01*
X125716666Y-80890000D02*
X125716666Y-80490000D01*
X125716666Y-80690000D02*
X125016666Y-80690000D01*
X125116666Y-80623333D01*
X125183333Y-80556666D01*
X125216666Y-80490000D01*
G04 #@! TD*
M02*
