M48
;DRILL file {KiCad 5.0.2-bee76a0~70~ubuntu16.04.1} date Mon 24 Jun 2019 22:09:03 BST
;FORMAT={-:-/ absolute / inch / decimal}
FMAT,2
INCH,TZ
T1C0.0157
T2C0.0394
T3C0.0598
%
G90
G05
T1
X5.035Y-2.687
X5.0961Y-2.8307
X5.2161Y-3.0256
X5.2732Y-2.815
X5.2732Y-2.8642
X5.2752Y-2.7717
X5.3854Y-3.1102
X5.3854Y-3.2677
X5.3854Y-3.4252
X5.3992Y-2.937
X5.4248Y-3.189
X5.4248Y-3.3465
X5.4563Y-2.8976
X5.4642Y-2.8189
X5.4642Y-3.1102
X5.4642Y-3.2677
X5.4642Y-3.4252
X5.5035Y-3.189
X5.5035Y-3.3465
X5.5134Y-2.5965
X5.5134Y-2.9921
X5.5429Y-3.1102
X5.5429Y-3.2677
X5.5429Y-3.4252
X5.5823Y-3.189
X5.5823Y-3.3465
X5.6217Y-3.1102
X5.6217Y-3.2677
X5.6217Y-3.4252
X5.6295Y-2.9921
X5.646Y-2.7451
X5.661Y-3.189
X5.661Y-3.3465
X5.6748Y-2.7963
X5.6866Y-2.5118
X5.7004Y-3.1102
X5.7004Y-3.2677
X5.7004Y-3.4252
X5.728Y-2.6654
X5.728Y-2.7795
X5.8894Y-2.9134
T2
X5.2378Y-2.4213
X5.3378Y-2.4213
X5.4378Y-2.4213
X5.5378Y-2.4213
X5.6378Y-2.4213
X5.7378Y-2.4213
T3
X5.6413Y-3.6614
X5.8413Y-3.6614
X5.1295Y-3.6614
X5.3295Y-3.6614
T0
M30
