G04 #@! TF.GenerationSoftware,KiCad,Pcbnew,5.0.2-bee76a0~70~ubuntu16.04.1*
G04 #@! TF.CreationDate,2019-05-19T16:37:23+01:00*
G04 #@! TF.ProjectId,project,70726f6a-6563-4742-9e6b-696361645f70,rev?*
G04 #@! TF.SameCoordinates,Original*
G04 #@! TF.FileFunction,Legend,Top*
G04 #@! TF.FilePolarity,Positive*
%FSLAX46Y46*%
G04 Gerber Fmt 4.6, Leading zero omitted, Abs format (unit mm)*
G04 Created by KiCad (PCBNEW 5.0.2-bee76a0~70~ubuntu16.04.1) date Sun 19 May 2019 16:37:23 BST*
%MOMM*%
%LPD*%
G01*
G04 APERTURE LIST*
%ADD10C,0.375000*%
%ADD11C,0.150000*%
%ADD12C,0.120000*%
G04 APERTURE END LIST*
D10*
X126958571Y-74697142D02*
X128101428Y-74697142D01*
X127530000Y-75268571D02*
X127530000Y-74125714D01*
X126958571Y-66697142D02*
X128101428Y-66697142D01*
X145158571Y-66597142D02*
X146301428Y-66597142D01*
X145358571Y-74697142D02*
X146501428Y-74697142D01*
X145930000Y-75268571D02*
X145930000Y-74125714D01*
D11*
X127530000Y-64618571D02*
X127672857Y-64666190D01*
X127720476Y-64713809D01*
X127768095Y-64809047D01*
X127768095Y-64951904D01*
X127720476Y-65047142D01*
X127672857Y-65094761D01*
X127577619Y-65142380D01*
X127196666Y-65142380D01*
X127196666Y-64142380D01*
X127530000Y-64142380D01*
X127625238Y-64190000D01*
X127672857Y-64237619D01*
X127720476Y-64332857D01*
X127720476Y-64428095D01*
X127672857Y-64523333D01*
X127625238Y-64570952D01*
X127530000Y-64618571D01*
X127196666Y-64618571D01*
X128149047Y-64856666D02*
X128625238Y-64856666D01*
X128053809Y-65142380D02*
X128387142Y-64142380D01*
X128720476Y-65142380D01*
X128910952Y-64142380D02*
X129482380Y-64142380D01*
X129196666Y-65142380D02*
X129196666Y-64142380D01*
X129672857Y-64142380D02*
X130244285Y-64142380D01*
X129958571Y-65142380D02*
X129958571Y-64142380D01*
X130577619Y-64618571D02*
X130910952Y-64618571D01*
X131053809Y-65142380D02*
X130577619Y-65142380D01*
X130577619Y-64142380D01*
X131053809Y-64142380D01*
X132053809Y-65142380D02*
X131720476Y-64666190D01*
X131482380Y-65142380D02*
X131482380Y-64142380D01*
X131863333Y-64142380D01*
X131958571Y-64190000D01*
X132006190Y-64237619D01*
X132053809Y-64332857D01*
X132053809Y-64475714D01*
X132006190Y-64570952D01*
X131958571Y-64618571D01*
X131863333Y-64666190D01*
X131482380Y-64666190D01*
X132672857Y-64666190D02*
X132672857Y-65142380D01*
X132339523Y-64142380D02*
X132672857Y-64666190D01*
X133006190Y-64142380D01*
X140987142Y-65094761D02*
X141130000Y-65142380D01*
X141368095Y-65142380D01*
X141463333Y-65094761D01*
X141510952Y-65047142D01*
X141558571Y-64951904D01*
X141558571Y-64856666D01*
X141510952Y-64761428D01*
X141463333Y-64713809D01*
X141368095Y-64666190D01*
X141177619Y-64618571D01*
X141082380Y-64570952D01*
X141034761Y-64523333D01*
X140987142Y-64428095D01*
X140987142Y-64332857D01*
X141034761Y-64237619D01*
X141082380Y-64190000D01*
X141177619Y-64142380D01*
X141415714Y-64142380D01*
X141558571Y-64190000D01*
X142177619Y-64142380D02*
X142368095Y-64142380D01*
X142463333Y-64190000D01*
X142558571Y-64285238D01*
X142606190Y-64475714D01*
X142606190Y-64809047D01*
X142558571Y-64999523D01*
X142463333Y-65094761D01*
X142368095Y-65142380D01*
X142177619Y-65142380D01*
X142082380Y-65094761D01*
X141987142Y-64999523D01*
X141939523Y-64809047D01*
X141939523Y-64475714D01*
X141987142Y-64285238D01*
X142082380Y-64190000D01*
X142177619Y-64142380D01*
X143510952Y-65142380D02*
X143034761Y-65142380D01*
X143034761Y-64142380D01*
X143796666Y-64856666D02*
X144272857Y-64856666D01*
X143701428Y-65142380D02*
X144034761Y-64142380D01*
X144368095Y-65142380D01*
X145272857Y-65142380D02*
X144939523Y-64666190D01*
X144701428Y-65142380D02*
X144701428Y-64142380D01*
X145082380Y-64142380D01*
X145177619Y-64190000D01*
X145225238Y-64237619D01*
X145272857Y-64332857D01*
X145272857Y-64475714D01*
X145225238Y-64570952D01*
X145177619Y-64618571D01*
X145082380Y-64666190D01*
X144701428Y-64666190D01*
X135485714Y-99892380D02*
X134914285Y-99892380D01*
X135200000Y-99892380D02*
X135200000Y-98892380D01*
X135104761Y-99035238D01*
X135009523Y-99130476D01*
X134914285Y-99178095D01*
D12*
G04 #@! TO.C,C1*
X128578733Y-90750000D02*
X128921267Y-90750000D01*
X128578733Y-89730000D02*
X128921267Y-89730000D01*
G04 #@! TO.C,C3*
X132491267Y-90760000D02*
X132148733Y-90760000D01*
X132491267Y-89740000D02*
X132148733Y-89740000D01*
G04 #@! TO.C,Q1*
X146150000Y-81240000D02*
X146150000Y-82700000D01*
X142990000Y-81240000D02*
X142990000Y-83400000D01*
X142990000Y-81240000D02*
X143920000Y-81240000D01*
X146150000Y-81240000D02*
X145220000Y-81240000D01*
G04 #@! TO.C,Q2*
X137950000Y-90390000D02*
X137950000Y-88930000D01*
X141110000Y-90390000D02*
X141110000Y-88230000D01*
X141110000Y-90390000D02*
X140180000Y-90390000D01*
X137950000Y-90390000D02*
X138880000Y-90390000D01*
G04 #@! TO.C,Q4*
X144860000Y-88870000D02*
X143930000Y-88870000D01*
X141700000Y-88870000D02*
X142630000Y-88870000D01*
X141700000Y-88870000D02*
X141700000Y-91030000D01*
X144860000Y-88870000D02*
X144860000Y-90330000D01*
G04 #@! TO.C,R3*
X139358733Y-86370000D02*
X139701267Y-86370000D01*
X139358733Y-87390000D02*
X139701267Y-87390000D01*
G04 #@! TO.C,R4*
X144741267Y-84240000D02*
X144398733Y-84240000D01*
X144741267Y-85260000D02*
X144398733Y-85260000D01*
G04 #@! TO.C,R7*
X140223733Y-81560000D02*
X140566267Y-81560000D01*
X140223733Y-80540000D02*
X140566267Y-80540000D01*
G04 #@! TO.C,R9*
X116804089Y-85025653D02*
X116461555Y-85025653D01*
X116804089Y-84005653D02*
X116461555Y-84005653D01*
G04 #@! TO.C,R10*
X136458733Y-109480000D02*
X136801267Y-109480000D01*
X136458733Y-110500000D02*
X136801267Y-110500000D01*
G04 #@! TO.C,R11*
X121604089Y-90405653D02*
X121261555Y-90405653D01*
X121604089Y-91425653D02*
X121261555Y-91425653D01*
G04 #@! TO.C,R12*
X143451267Y-87390000D02*
X143108733Y-87390000D01*
X143451267Y-86370000D02*
X143108733Y-86370000D01*
G04 #@! TO.C,U1*
X133980000Y-82340000D02*
X132720000Y-82340000D01*
X127160000Y-82340000D02*
X128420000Y-82340000D01*
X133980000Y-86100000D02*
X133980000Y-82340000D01*
X127160000Y-88350000D02*
X127160000Y-82340000D01*
D11*
G04 #@! TO.C,U2*
X134545000Y-105500000D02*
X138995000Y-105500000D01*
X133020000Y-98600000D02*
X138995000Y-98600000D01*
D12*
G04 #@! TO.C,D3*
X137895000Y-83325000D02*
X137895000Y-85325000D01*
X137895000Y-85325000D02*
X141795000Y-85325000D01*
X137895000Y-83325000D02*
X141795000Y-83325000D01*
G04 #@! TO.C,C1*
D11*
X128683333Y-91690000D02*
X128650000Y-91723333D01*
X128550000Y-91756666D01*
X128483333Y-91756666D01*
X128383333Y-91723333D01*
X128316666Y-91656666D01*
X128283333Y-91590000D01*
X128250000Y-91456666D01*
X128250000Y-91356666D01*
X128283333Y-91223333D01*
X128316666Y-91156666D01*
X128383333Y-91090000D01*
X128483333Y-91056666D01*
X128550000Y-91056666D01*
X128650000Y-91090000D01*
X128683333Y-91123333D01*
X129350000Y-91756666D02*
X128950000Y-91756666D01*
X129150000Y-91756666D02*
X129150000Y-91056666D01*
X129083333Y-91156666D01*
X129016666Y-91223333D01*
X128950000Y-91256666D01*
G04 #@! TO.C,C3*
X132183333Y-91790000D02*
X132150000Y-91823333D01*
X132050000Y-91856666D01*
X131983333Y-91856666D01*
X131883333Y-91823333D01*
X131816666Y-91756666D01*
X131783333Y-91690000D01*
X131750000Y-91556666D01*
X131750000Y-91456666D01*
X131783333Y-91323333D01*
X131816666Y-91256666D01*
X131883333Y-91190000D01*
X131983333Y-91156666D01*
X132050000Y-91156666D01*
X132150000Y-91190000D01*
X132183333Y-91223333D01*
X132416666Y-91156666D02*
X132850000Y-91156666D01*
X132616666Y-91423333D01*
X132716666Y-91423333D01*
X132783333Y-91456666D01*
X132816666Y-91490000D01*
X132850000Y-91556666D01*
X132850000Y-91723333D01*
X132816666Y-91790000D01*
X132783333Y-91823333D01*
X132716666Y-91856666D01*
X132516666Y-91856666D01*
X132450000Y-91823333D01*
X132416666Y-91790000D01*
G04 #@! TO.C,Q1*
X146933333Y-82423333D02*
X146866666Y-82390000D01*
X146800000Y-82323333D01*
X146700000Y-82223333D01*
X146633333Y-82190000D01*
X146566666Y-82190000D01*
X146600000Y-82356666D02*
X146533333Y-82323333D01*
X146466666Y-82256666D01*
X146433333Y-82123333D01*
X146433333Y-81890000D01*
X146466666Y-81756666D01*
X146533333Y-81690000D01*
X146600000Y-81656666D01*
X146733333Y-81656666D01*
X146800000Y-81690000D01*
X146866666Y-81756666D01*
X146900000Y-81890000D01*
X146900000Y-82123333D01*
X146866666Y-82256666D01*
X146800000Y-82323333D01*
X146733333Y-82356666D01*
X146600000Y-82356666D01*
X147566666Y-82356666D02*
X147166666Y-82356666D01*
X147366666Y-82356666D02*
X147366666Y-81656666D01*
X147300000Y-81756666D01*
X147233333Y-81823333D01*
X147166666Y-81856666D01*
G04 #@! TO.C,Q2*
X139433333Y-92323333D02*
X139366666Y-92290000D01*
X139300000Y-92223333D01*
X139200000Y-92123333D01*
X139133333Y-92090000D01*
X139066666Y-92090000D01*
X139100000Y-92256666D02*
X139033333Y-92223333D01*
X138966666Y-92156666D01*
X138933333Y-92023333D01*
X138933333Y-91790000D01*
X138966666Y-91656666D01*
X139033333Y-91590000D01*
X139100000Y-91556666D01*
X139233333Y-91556666D01*
X139300000Y-91590000D01*
X139366666Y-91656666D01*
X139400000Y-91790000D01*
X139400000Y-92023333D01*
X139366666Y-92156666D01*
X139300000Y-92223333D01*
X139233333Y-92256666D01*
X139100000Y-92256666D01*
X139666666Y-91623333D02*
X139700000Y-91590000D01*
X139766666Y-91556666D01*
X139933333Y-91556666D01*
X140000000Y-91590000D01*
X140033333Y-91623333D01*
X140066666Y-91690000D01*
X140066666Y-91756666D01*
X140033333Y-91856666D01*
X139633333Y-92256666D01*
X140066666Y-92256666D01*
G04 #@! TO.C,Q4*
X143233333Y-92323333D02*
X143166666Y-92290000D01*
X143100000Y-92223333D01*
X143000000Y-92123333D01*
X142933333Y-92090000D01*
X142866666Y-92090000D01*
X142900000Y-92256666D02*
X142833333Y-92223333D01*
X142766666Y-92156666D01*
X142733333Y-92023333D01*
X142733333Y-91790000D01*
X142766666Y-91656666D01*
X142833333Y-91590000D01*
X142900000Y-91556666D01*
X143033333Y-91556666D01*
X143100000Y-91590000D01*
X143166666Y-91656666D01*
X143200000Y-91790000D01*
X143200000Y-92023333D01*
X143166666Y-92156666D01*
X143100000Y-92223333D01*
X143033333Y-92256666D01*
X142900000Y-92256666D01*
X143800000Y-91790000D02*
X143800000Y-92256666D01*
X143633333Y-91523333D02*
X143466666Y-92023333D01*
X143900000Y-92023333D01*
G04 #@! TO.C,R3*
X136883333Y-87156666D02*
X136650000Y-86823333D01*
X136483333Y-87156666D02*
X136483333Y-86456666D01*
X136750000Y-86456666D01*
X136816666Y-86490000D01*
X136850000Y-86523333D01*
X136883333Y-86590000D01*
X136883333Y-86690000D01*
X136850000Y-86756666D01*
X136816666Y-86790000D01*
X136750000Y-86823333D01*
X136483333Y-86823333D01*
X137116666Y-86456666D02*
X137550000Y-86456666D01*
X137316666Y-86723333D01*
X137416666Y-86723333D01*
X137483333Y-86756666D01*
X137516666Y-86790000D01*
X137550000Y-86856666D01*
X137550000Y-87023333D01*
X137516666Y-87090000D01*
X137483333Y-87123333D01*
X137416666Y-87156666D01*
X137216666Y-87156666D01*
X137150000Y-87123333D01*
X137116666Y-87090000D01*
G04 #@! TO.C,R4*
X146783333Y-85056666D02*
X146550000Y-84723333D01*
X146383333Y-85056666D02*
X146383333Y-84356666D01*
X146650000Y-84356666D01*
X146716666Y-84390000D01*
X146750000Y-84423333D01*
X146783333Y-84490000D01*
X146783333Y-84590000D01*
X146750000Y-84656666D01*
X146716666Y-84690000D01*
X146650000Y-84723333D01*
X146383333Y-84723333D01*
X147383333Y-84590000D02*
X147383333Y-85056666D01*
X147216666Y-84323333D02*
X147050000Y-84823333D01*
X147483333Y-84823333D01*
G04 #@! TO.C,R7*
X140283333Y-82456666D02*
X140050000Y-82123333D01*
X139883333Y-82456666D02*
X139883333Y-81756666D01*
X140150000Y-81756666D01*
X140216666Y-81790000D01*
X140250000Y-81823333D01*
X140283333Y-81890000D01*
X140283333Y-81990000D01*
X140250000Y-82056666D01*
X140216666Y-82090000D01*
X140150000Y-82123333D01*
X139883333Y-82123333D01*
X140516666Y-81756666D02*
X140983333Y-81756666D01*
X140683333Y-82456666D01*
G04 #@! TO.C,R9*
X116516155Y-86262319D02*
X116282822Y-85928986D01*
X116116155Y-86262319D02*
X116116155Y-85562319D01*
X116382822Y-85562319D01*
X116449488Y-85595653D01*
X116482822Y-85628986D01*
X116516155Y-85695653D01*
X116516155Y-85795653D01*
X116482822Y-85862319D01*
X116449488Y-85895653D01*
X116382822Y-85928986D01*
X116116155Y-85928986D01*
X116849488Y-86262319D02*
X116982822Y-86262319D01*
X117049488Y-86228986D01*
X117082822Y-86195653D01*
X117149488Y-86095653D01*
X117182822Y-85962319D01*
X117182822Y-85695653D01*
X117149488Y-85628986D01*
X117116155Y-85595653D01*
X117049488Y-85562319D01*
X116916155Y-85562319D01*
X116849488Y-85595653D01*
X116816155Y-85628986D01*
X116782822Y-85695653D01*
X116782822Y-85862319D01*
X116816155Y-85928986D01*
X116849488Y-85962319D01*
X116916155Y-85995653D01*
X117049488Y-85995653D01*
X117116155Y-85962319D01*
X117149488Y-85928986D01*
X117182822Y-85862319D01*
G04 #@! TO.C,R10*
X136165000Y-111616666D02*
X135931666Y-111283333D01*
X135765000Y-111616666D02*
X135765000Y-110916666D01*
X136031666Y-110916666D01*
X136098333Y-110950000D01*
X136131666Y-110983333D01*
X136165000Y-111050000D01*
X136165000Y-111150000D01*
X136131666Y-111216666D01*
X136098333Y-111250000D01*
X136031666Y-111283333D01*
X135765000Y-111283333D01*
X136831666Y-111616666D02*
X136431666Y-111616666D01*
X136631666Y-111616666D02*
X136631666Y-110916666D01*
X136565000Y-111016666D01*
X136498333Y-111083333D01*
X136431666Y-111116666D01*
X137265000Y-110916666D02*
X137331666Y-110916666D01*
X137398333Y-110950000D01*
X137431666Y-110983333D01*
X137465000Y-111050000D01*
X137498333Y-111183333D01*
X137498333Y-111350000D01*
X137465000Y-111483333D01*
X137431666Y-111550000D01*
X137398333Y-111583333D01*
X137331666Y-111616666D01*
X137265000Y-111616666D01*
X137198333Y-111583333D01*
X137165000Y-111550000D01*
X137131666Y-111483333D01*
X137098333Y-111350000D01*
X137098333Y-111183333D01*
X137131666Y-111050000D01*
X137165000Y-110983333D01*
X137198333Y-110950000D01*
X137265000Y-110916666D01*
G04 #@! TO.C,R11*
X120982822Y-92662319D02*
X120749488Y-92328986D01*
X120582822Y-92662319D02*
X120582822Y-91962319D01*
X120849488Y-91962319D01*
X120916155Y-91995653D01*
X120949488Y-92028986D01*
X120982822Y-92095653D01*
X120982822Y-92195653D01*
X120949488Y-92262319D01*
X120916155Y-92295653D01*
X120849488Y-92328986D01*
X120582822Y-92328986D01*
X121649488Y-92662319D02*
X121249488Y-92662319D01*
X121449488Y-92662319D02*
X121449488Y-91962319D01*
X121382822Y-92062319D01*
X121316155Y-92128986D01*
X121249488Y-92162319D01*
X122316155Y-92662319D02*
X121916155Y-92662319D01*
X122116155Y-92662319D02*
X122116155Y-91962319D01*
X122049488Y-92062319D01*
X121982822Y-92128986D01*
X121916155Y-92162319D01*
G04 #@! TO.C,R12*
X145450000Y-87256666D02*
X145216666Y-86923333D01*
X145050000Y-87256666D02*
X145050000Y-86556666D01*
X145316666Y-86556666D01*
X145383333Y-86590000D01*
X145416666Y-86623333D01*
X145450000Y-86690000D01*
X145450000Y-86790000D01*
X145416666Y-86856666D01*
X145383333Y-86890000D01*
X145316666Y-86923333D01*
X145050000Y-86923333D01*
X146116666Y-87256666D02*
X145716666Y-87256666D01*
X145916666Y-87256666D02*
X145916666Y-86556666D01*
X145850000Y-86656666D01*
X145783333Y-86723333D01*
X145716666Y-86756666D01*
X146383333Y-86623333D02*
X146416666Y-86590000D01*
X146483333Y-86556666D01*
X146650000Y-86556666D01*
X146716666Y-86590000D01*
X146750000Y-86623333D01*
X146783333Y-86690000D01*
X146783333Y-86756666D01*
X146750000Y-86856666D01*
X146350000Y-87256666D01*
X146783333Y-87256666D01*
G04 #@! TO.C,U1*
X130066666Y-79056666D02*
X130066666Y-79623333D01*
X130100000Y-79690000D01*
X130133333Y-79723333D01*
X130200000Y-79756666D01*
X130333333Y-79756666D01*
X130400000Y-79723333D01*
X130433333Y-79690000D01*
X130466666Y-79623333D01*
X130466666Y-79056666D01*
X131166666Y-79756666D02*
X130766666Y-79756666D01*
X130966666Y-79756666D02*
X130966666Y-79056666D01*
X130900000Y-79156666D01*
X130833333Y-79223333D01*
X130766666Y-79256666D01*
G04 #@! TO.C,U2*
X136236666Y-97366666D02*
X136236666Y-97933333D01*
X136270000Y-98000000D01*
X136303333Y-98033333D01*
X136370000Y-98066666D01*
X136503333Y-98066666D01*
X136570000Y-98033333D01*
X136603333Y-98000000D01*
X136636666Y-97933333D01*
X136636666Y-97366666D01*
X136936666Y-97433333D02*
X136970000Y-97400000D01*
X137036666Y-97366666D01*
X137203333Y-97366666D01*
X137270000Y-97400000D01*
X137303333Y-97433333D01*
X137336666Y-97500000D01*
X137336666Y-97566666D01*
X137303333Y-97666666D01*
X136903333Y-98066666D01*
X137336666Y-98066666D01*
X132686666Y-106633333D02*
X132786666Y-106666666D01*
X132953333Y-106666666D01*
X133020000Y-106633333D01*
X133053333Y-106600000D01*
X133086666Y-106533333D01*
X133086666Y-106466666D01*
X133053333Y-106400000D01*
X133020000Y-106366666D01*
X132953333Y-106333333D01*
X132820000Y-106300000D01*
X132753333Y-106266666D01*
X132720000Y-106233333D01*
X132686666Y-106166666D01*
X132686666Y-106100000D01*
X132720000Y-106033333D01*
X132753333Y-106000000D01*
X132820000Y-105966666D01*
X132986666Y-105966666D01*
X133086666Y-106000000D01*
X133286666Y-105966666D02*
X133686666Y-105966666D01*
X133486666Y-106666666D02*
X133486666Y-105966666D01*
X133920000Y-106666666D02*
X133920000Y-105966666D01*
X134153333Y-106466666D01*
X134386666Y-105966666D01*
X134386666Y-106666666D01*
X134653333Y-105966666D02*
X135086666Y-105966666D01*
X134853333Y-106233333D01*
X134953333Y-106233333D01*
X135020000Y-106266666D01*
X135053333Y-106300000D01*
X135086666Y-106366666D01*
X135086666Y-106533333D01*
X135053333Y-106600000D01*
X135020000Y-106633333D01*
X134953333Y-106666666D01*
X134753333Y-106666666D01*
X134686666Y-106633333D01*
X134653333Y-106600000D01*
X135353333Y-106033333D02*
X135386666Y-106000000D01*
X135453333Y-105966666D01*
X135620000Y-105966666D01*
X135686666Y-106000000D01*
X135720000Y-106033333D01*
X135753333Y-106100000D01*
X135753333Y-106166666D01*
X135720000Y-106266666D01*
X135320000Y-106666666D01*
X135753333Y-106666666D01*
X136386666Y-106666666D02*
X136053333Y-106666666D01*
X136053333Y-105966666D01*
X136753333Y-105966666D02*
X136820000Y-105966666D01*
X136886666Y-106000000D01*
X136920000Y-106033333D01*
X136953333Y-106100000D01*
X136986666Y-106233333D01*
X136986666Y-106400000D01*
X136953333Y-106533333D01*
X136920000Y-106600000D01*
X136886666Y-106633333D01*
X136820000Y-106666666D01*
X136753333Y-106666666D01*
X136686666Y-106633333D01*
X136653333Y-106600000D01*
X136620000Y-106533333D01*
X136586666Y-106400000D01*
X136586666Y-106233333D01*
X136620000Y-106100000D01*
X136653333Y-106033333D01*
X136686666Y-106000000D01*
X136753333Y-105966666D01*
X137220000Y-105966666D02*
X137653333Y-105966666D01*
X137420000Y-106233333D01*
X137520000Y-106233333D01*
X137586666Y-106266666D01*
X137620000Y-106300000D01*
X137653333Y-106366666D01*
X137653333Y-106533333D01*
X137620000Y-106600000D01*
X137586666Y-106633333D01*
X137520000Y-106666666D01*
X137320000Y-106666666D01*
X137253333Y-106633333D01*
X137220000Y-106600000D01*
X138320000Y-106666666D02*
X137920000Y-106666666D01*
X138120000Y-106666666D02*
X138120000Y-105966666D01*
X138053333Y-106066666D01*
X137986666Y-106133333D01*
X137920000Y-106166666D01*
X138853333Y-106300000D02*
X138620000Y-106300000D01*
X138620000Y-106666666D02*
X138620000Y-105966666D01*
X138953333Y-105966666D01*
X139520000Y-106200000D02*
X139520000Y-106666666D01*
X139353333Y-105933333D02*
X139186666Y-106433333D01*
X139620000Y-106433333D01*
X139886666Y-106666666D02*
X139886666Y-105966666D01*
X140153333Y-105966666D01*
X140220000Y-106000000D01*
X140253333Y-106033333D01*
X140286666Y-106100000D01*
X140286666Y-106200000D01*
X140253333Y-106266666D01*
X140220000Y-106300000D01*
X140153333Y-106333333D01*
X139886666Y-106333333D01*
X140520000Y-106666666D02*
X140886666Y-106200000D01*
X140520000Y-106200000D02*
X140886666Y-106666666D01*
G04 #@! TO.C,D3*
X136383333Y-84656666D02*
X136383333Y-83956666D01*
X136550000Y-83956666D01*
X136650000Y-83990000D01*
X136716666Y-84056666D01*
X136750000Y-84123333D01*
X136783333Y-84256666D01*
X136783333Y-84356666D01*
X136750000Y-84490000D01*
X136716666Y-84556666D01*
X136650000Y-84623333D01*
X136550000Y-84656666D01*
X136383333Y-84656666D01*
X137016666Y-83956666D02*
X137450000Y-83956666D01*
X137216666Y-84223333D01*
X137316666Y-84223333D01*
X137383333Y-84256666D01*
X137416666Y-84290000D01*
X137450000Y-84356666D01*
X137450000Y-84523333D01*
X137416666Y-84590000D01*
X137383333Y-84623333D01*
X137316666Y-84656666D01*
X137116666Y-84656666D01*
X137050000Y-84623333D01*
X137016666Y-84590000D01*
G04 #@! TD*
M02*
