M48
;DRILL file {KiCad 5.0.2-bee76a0~70~ubuntu16.04.1} date Sat 16 Mar 2019 14:37:58 GMT
;FORMAT={-:-/ absolute / inch / decimal}
FMAT,2
INCH,TZ
T1C0.0157
T2C0.0394
T3C0.0598
T4C0.0630
T5C0.1260
%
G90
G05
T1
X4.0685Y-3.3831
X4.0807Y-3.622
X4.1929Y-3.622
X4.1929Y-3.8976
X4.4746Y-4.4009
X4.4921Y-4.8504
X4.5157Y-4.5276
X4.563Y-4.6693
X4.6417Y-4.4016
X4.6417Y-4.5276
X4.6425Y-4.9622
X4.6457Y-5.1122
X4.7205Y-4.9606
X4.8071Y-4.8346
X4.8858Y-5.1339
X4.9094Y-4.811
X4.9252Y-5.0866
X4.9488Y-5.
X4.9646Y-4.1811
X4.9685Y-4.35
X4.9713Y-4.2618
X5.0591Y-4.9016
X5.0984Y-5.0394
X5.2244Y-4.7323
X5.2756Y-4.8819
X5.2756Y-4.9606
X5.2756Y-5.0394
X5.4134Y-4.2323
X5.4134Y-4.2323
X5.4134Y-4.3307
X5.4134Y-4.4291
X5.4134Y-4.5276
X5.4134Y-4.626
X5.4606Y-4.189
X5.4606Y-4.2756
X5.4606Y-4.3858
X5.4606Y-4.4803
X5.4606Y-4.5748
X5.5118Y-4.2323
X5.5118Y-4.3307
X5.5118Y-4.4291
X5.5118Y-4.5276
X5.5118Y-4.626
X5.5512Y-4.9803
X5.563Y-4.189
X5.563Y-4.2756
X5.563Y-4.378
X5.563Y-4.4724
X5.563Y-4.5748
X5.6102Y-4.2323
X5.6102Y-4.3307
X5.6102Y-4.4291
X5.6102Y-4.5276
X5.6102Y-4.626
X5.6417Y-4.9685
X5.6417Y-5.126
X5.7087Y-5.1378
X5.9055Y-4.8425
X5.9169Y-4.9272
X5.9571Y-4.8841
X6.0709Y-4.8386
X6.1654Y-4.9567
X6.2874Y-4.811
X6.3941Y-4.9996
X6.4665Y-5.1083
X6.4961Y-4.7835
X6.5157Y-5.1703
X6.6378Y-4.874
X6.6732Y-5.1132
X6.7165Y-4.878
X6.8573Y-5.1819
X6.8602Y-4.7736
X6.9327Y-5.0713
X6.9394Y-5.0114
X6.943Y-5.1819
X6.9839Y-3.3823
X6.9921Y-3.6165
X7.0472Y-4.7736
X7.126Y-4.7736
X7.1457Y-4.6654
T2
X5.8583Y-5.1417
X5.9583Y-5.1417
X6.0583Y-5.1417
X6.1583Y-5.1417
X6.2583Y-5.1417
X6.3583Y-5.1417
T3
X6.9488Y-4.252
X7.1488Y-4.252
X3.6417Y-3.7795
X3.6417Y-4.0157
X3.6417Y-4.252
X3.8417Y-4.252
T4
X4.0748Y-4.252
X4.5748Y-4.252
T5
X7.185Y-3.1102
X3.6417Y-3.1102
X7.185Y-5.1575
X3.6417Y-5.1575
T0
M30
