G04 #@! TF.GenerationSoftware,KiCad,Pcbnew,5.0.2-bee76a0~70~ubuntu16.04.1*
G04 #@! TF.CreationDate,2019-06-24T22:08:56+01:00*
G04 #@! TF.ProjectId,project,70726f6a-6563-4742-9e6b-696361645f70,rev?*
G04 #@! TF.SameCoordinates,Original*
G04 #@! TF.FileFunction,Copper,L1,Top*
G04 #@! TF.FilePolarity,Positive*
%FSLAX46Y46*%
G04 Gerber Fmt 4.6, Leading zero omitted, Abs format (unit mm)*
G04 Created by KiCad (PCBNEW 5.0.2-bee76a0~70~ubuntu16.04.1) date Mon 24 Jun 2019 22:08:56 BST*
%MOMM*%
%LPD*%
G01*
G04 APERTURE LIST*
G04 #@! TA.AperFunction,Conductor*
%ADD10C,0.100000*%
G04 #@! TD*
G04 #@! TA.AperFunction,SMDPad,CuDef*
%ADD11C,0.950000*%
G04 #@! TD*
G04 #@! TA.AperFunction,ComponentPad*
%ADD12R,1.700000X1.700000*%
G04 #@! TD*
G04 #@! TA.AperFunction,ComponentPad*
%ADD13O,1.700000X1.700000*%
G04 #@! TD*
G04 #@! TA.AperFunction,SMDPad,CuDef*
%ADD14C,1.150000*%
G04 #@! TD*
G04 #@! TA.AperFunction,SMDPad,CuDef*
%ADD15R,0.650000X1.560000*%
G04 #@! TD*
G04 #@! TA.AperFunction,SMDPad,CuDef*
%ADD16R,0.900000X0.800000*%
G04 #@! TD*
G04 #@! TA.AperFunction,ComponentPad*
%ADD17C,3.000000*%
G04 #@! TD*
G04 #@! TA.AperFunction,ComponentPad*
%ADD18R,3.000000X3.000000*%
G04 #@! TD*
G04 #@! TA.AperFunction,ViaPad*
%ADD19C,0.800000*%
G04 #@! TD*
G04 #@! TA.AperFunction,Conductor*
%ADD20C,0.250000*%
G04 #@! TD*
G04 #@! TA.AperFunction,Conductor*
%ADD21C,0.350000*%
G04 #@! TD*
G04 #@! TA.AperFunction,Conductor*
%ADD22C,0.254000*%
G04 #@! TD*
G04 APERTURE END LIST*
D10*
G04 #@! TO.N,+24V*
G04 #@! TO.C,C1*
G36*
X147435779Y-74526144D02*
X147458834Y-74529563D01*
X147481443Y-74535227D01*
X147503387Y-74543079D01*
X147524457Y-74553044D01*
X147544448Y-74565026D01*
X147563168Y-74578910D01*
X147580438Y-74594562D01*
X147596090Y-74611832D01*
X147609974Y-74630552D01*
X147621956Y-74650543D01*
X147631921Y-74671613D01*
X147639773Y-74693557D01*
X147645437Y-74716166D01*
X147648856Y-74739221D01*
X147650000Y-74762500D01*
X147650000Y-75237500D01*
X147648856Y-75260779D01*
X147645437Y-75283834D01*
X147639773Y-75306443D01*
X147631921Y-75328387D01*
X147621956Y-75349457D01*
X147609974Y-75369448D01*
X147596090Y-75388168D01*
X147580438Y-75405438D01*
X147563168Y-75421090D01*
X147544448Y-75434974D01*
X147524457Y-75446956D01*
X147503387Y-75456921D01*
X147481443Y-75464773D01*
X147458834Y-75470437D01*
X147435779Y-75473856D01*
X147412500Y-75475000D01*
X146837500Y-75475000D01*
X146814221Y-75473856D01*
X146791166Y-75470437D01*
X146768557Y-75464773D01*
X146746613Y-75456921D01*
X146725543Y-75446956D01*
X146705552Y-75434974D01*
X146686832Y-75421090D01*
X146669562Y-75405438D01*
X146653910Y-75388168D01*
X146640026Y-75369448D01*
X146628044Y-75349457D01*
X146618079Y-75328387D01*
X146610227Y-75306443D01*
X146604563Y-75283834D01*
X146601144Y-75260779D01*
X146600000Y-75237500D01*
X146600000Y-74762500D01*
X146601144Y-74739221D01*
X146604563Y-74716166D01*
X146610227Y-74693557D01*
X146618079Y-74671613D01*
X146628044Y-74650543D01*
X146640026Y-74630552D01*
X146653910Y-74611832D01*
X146669562Y-74594562D01*
X146686832Y-74578910D01*
X146705552Y-74565026D01*
X146725543Y-74553044D01*
X146746613Y-74543079D01*
X146768557Y-74535227D01*
X146791166Y-74529563D01*
X146814221Y-74526144D01*
X146837500Y-74525000D01*
X147412500Y-74525000D01*
X147435779Y-74526144D01*
X147435779Y-74526144D01*
G37*
D11*
G04 #@! TD*
G04 #@! TO.P,C1,1*
G04 #@! TO.N,+24V*
X147125000Y-75000000D03*
D10*
G04 #@! TO.N,GND*
G04 #@! TO.C,C1*
G36*
X149185779Y-74526144D02*
X149208834Y-74529563D01*
X149231443Y-74535227D01*
X149253387Y-74543079D01*
X149274457Y-74553044D01*
X149294448Y-74565026D01*
X149313168Y-74578910D01*
X149330438Y-74594562D01*
X149346090Y-74611832D01*
X149359974Y-74630552D01*
X149371956Y-74650543D01*
X149381921Y-74671613D01*
X149389773Y-74693557D01*
X149395437Y-74716166D01*
X149398856Y-74739221D01*
X149400000Y-74762500D01*
X149400000Y-75237500D01*
X149398856Y-75260779D01*
X149395437Y-75283834D01*
X149389773Y-75306443D01*
X149381921Y-75328387D01*
X149371956Y-75349457D01*
X149359974Y-75369448D01*
X149346090Y-75388168D01*
X149330438Y-75405438D01*
X149313168Y-75421090D01*
X149294448Y-75434974D01*
X149274457Y-75446956D01*
X149253387Y-75456921D01*
X149231443Y-75464773D01*
X149208834Y-75470437D01*
X149185779Y-75473856D01*
X149162500Y-75475000D01*
X148587500Y-75475000D01*
X148564221Y-75473856D01*
X148541166Y-75470437D01*
X148518557Y-75464773D01*
X148496613Y-75456921D01*
X148475543Y-75446956D01*
X148455552Y-75434974D01*
X148436832Y-75421090D01*
X148419562Y-75405438D01*
X148403910Y-75388168D01*
X148390026Y-75369448D01*
X148378044Y-75349457D01*
X148368079Y-75328387D01*
X148360227Y-75306443D01*
X148354563Y-75283834D01*
X148351144Y-75260779D01*
X148350000Y-75237500D01*
X148350000Y-74762500D01*
X148351144Y-74739221D01*
X148354563Y-74716166D01*
X148360227Y-74693557D01*
X148368079Y-74671613D01*
X148378044Y-74650543D01*
X148390026Y-74630552D01*
X148403910Y-74611832D01*
X148419562Y-74594562D01*
X148436832Y-74578910D01*
X148455552Y-74565026D01*
X148475543Y-74553044D01*
X148496613Y-74543079D01*
X148518557Y-74535227D01*
X148541166Y-74529563D01*
X148564221Y-74526144D01*
X148587500Y-74525000D01*
X149162500Y-74525000D01*
X149185779Y-74526144D01*
X149185779Y-74526144D01*
G37*
D11*
G04 #@! TD*
G04 #@! TO.P,C1,2*
G04 #@! TO.N,GND*
X148875000Y-75000000D03*
D10*
G04 #@! TO.N,+24V*
G04 #@! TO.C,C3*
G36*
X147435779Y-72526144D02*
X147458834Y-72529563D01*
X147481443Y-72535227D01*
X147503387Y-72543079D01*
X147524457Y-72553044D01*
X147544448Y-72565026D01*
X147563168Y-72578910D01*
X147580438Y-72594562D01*
X147596090Y-72611832D01*
X147609974Y-72630552D01*
X147621956Y-72650543D01*
X147631921Y-72671613D01*
X147639773Y-72693557D01*
X147645437Y-72716166D01*
X147648856Y-72739221D01*
X147650000Y-72762500D01*
X147650000Y-73237500D01*
X147648856Y-73260779D01*
X147645437Y-73283834D01*
X147639773Y-73306443D01*
X147631921Y-73328387D01*
X147621956Y-73349457D01*
X147609974Y-73369448D01*
X147596090Y-73388168D01*
X147580438Y-73405438D01*
X147563168Y-73421090D01*
X147544448Y-73434974D01*
X147524457Y-73446956D01*
X147503387Y-73456921D01*
X147481443Y-73464773D01*
X147458834Y-73470437D01*
X147435779Y-73473856D01*
X147412500Y-73475000D01*
X146837500Y-73475000D01*
X146814221Y-73473856D01*
X146791166Y-73470437D01*
X146768557Y-73464773D01*
X146746613Y-73456921D01*
X146725543Y-73446956D01*
X146705552Y-73434974D01*
X146686832Y-73421090D01*
X146669562Y-73405438D01*
X146653910Y-73388168D01*
X146640026Y-73369448D01*
X146628044Y-73349457D01*
X146618079Y-73328387D01*
X146610227Y-73306443D01*
X146604563Y-73283834D01*
X146601144Y-73260779D01*
X146600000Y-73237500D01*
X146600000Y-72762500D01*
X146601144Y-72739221D01*
X146604563Y-72716166D01*
X146610227Y-72693557D01*
X146618079Y-72671613D01*
X146628044Y-72650543D01*
X146640026Y-72630552D01*
X146653910Y-72611832D01*
X146669562Y-72594562D01*
X146686832Y-72578910D01*
X146705552Y-72565026D01*
X146725543Y-72553044D01*
X146746613Y-72543079D01*
X146768557Y-72535227D01*
X146791166Y-72529563D01*
X146814221Y-72526144D01*
X146837500Y-72525000D01*
X147412500Y-72525000D01*
X147435779Y-72526144D01*
X147435779Y-72526144D01*
G37*
D11*
G04 #@! TD*
G04 #@! TO.P,C3,1*
G04 #@! TO.N,+24V*
X147125000Y-73000000D03*
D10*
G04 #@! TO.N,GND*
G04 #@! TO.C,C3*
G36*
X149185779Y-72526144D02*
X149208834Y-72529563D01*
X149231443Y-72535227D01*
X149253387Y-72543079D01*
X149274457Y-72553044D01*
X149294448Y-72565026D01*
X149313168Y-72578910D01*
X149330438Y-72594562D01*
X149346090Y-72611832D01*
X149359974Y-72630552D01*
X149371956Y-72650543D01*
X149381921Y-72671613D01*
X149389773Y-72693557D01*
X149395437Y-72716166D01*
X149398856Y-72739221D01*
X149400000Y-72762500D01*
X149400000Y-73237500D01*
X149398856Y-73260779D01*
X149395437Y-73283834D01*
X149389773Y-73306443D01*
X149381921Y-73328387D01*
X149371956Y-73349457D01*
X149359974Y-73369448D01*
X149346090Y-73388168D01*
X149330438Y-73405438D01*
X149313168Y-73421090D01*
X149294448Y-73434974D01*
X149274457Y-73446956D01*
X149253387Y-73456921D01*
X149231443Y-73464773D01*
X149208834Y-73470437D01*
X149185779Y-73473856D01*
X149162500Y-73475000D01*
X148587500Y-73475000D01*
X148564221Y-73473856D01*
X148541166Y-73470437D01*
X148518557Y-73464773D01*
X148496613Y-73456921D01*
X148475543Y-73446956D01*
X148455552Y-73434974D01*
X148436832Y-73421090D01*
X148419562Y-73405438D01*
X148403910Y-73388168D01*
X148390026Y-73369448D01*
X148378044Y-73349457D01*
X148368079Y-73328387D01*
X148360227Y-73306443D01*
X148354563Y-73283834D01*
X148351144Y-73260779D01*
X148350000Y-73237500D01*
X148350000Y-72762500D01*
X148351144Y-72739221D01*
X148354563Y-72716166D01*
X148360227Y-72693557D01*
X148368079Y-72671613D01*
X148378044Y-72650543D01*
X148390026Y-72630552D01*
X148403910Y-72611832D01*
X148419562Y-72594562D01*
X148436832Y-72578910D01*
X148455552Y-72565026D01*
X148475543Y-72553044D01*
X148496613Y-72543079D01*
X148518557Y-72535227D01*
X148541166Y-72529563D01*
X148564221Y-72526144D01*
X148587500Y-72525000D01*
X149162500Y-72525000D01*
X149185779Y-72526144D01*
X149185779Y-72526144D01*
G37*
D11*
G04 #@! TD*
G04 #@! TO.P,C3,2*
G04 #@! TO.N,GND*
X148875000Y-73000000D03*
D10*
G04 #@! TO.N,GND*
G04 #@! TO.C,C4*
G36*
X136050779Y-71551144D02*
X136073834Y-71554563D01*
X136096443Y-71560227D01*
X136118387Y-71568079D01*
X136139457Y-71578044D01*
X136159448Y-71590026D01*
X136178168Y-71603910D01*
X136195438Y-71619562D01*
X136211090Y-71636832D01*
X136224974Y-71655552D01*
X136236956Y-71675543D01*
X136246921Y-71696613D01*
X136254773Y-71718557D01*
X136260437Y-71741166D01*
X136263856Y-71764221D01*
X136265000Y-71787500D01*
X136265000Y-72362500D01*
X136263856Y-72385779D01*
X136260437Y-72408834D01*
X136254773Y-72431443D01*
X136246921Y-72453387D01*
X136236956Y-72474457D01*
X136224974Y-72494448D01*
X136211090Y-72513168D01*
X136195438Y-72530438D01*
X136178168Y-72546090D01*
X136159448Y-72559974D01*
X136139457Y-72571956D01*
X136118387Y-72581921D01*
X136096443Y-72589773D01*
X136073834Y-72595437D01*
X136050779Y-72598856D01*
X136027500Y-72600000D01*
X135552500Y-72600000D01*
X135529221Y-72598856D01*
X135506166Y-72595437D01*
X135483557Y-72589773D01*
X135461613Y-72581921D01*
X135440543Y-72571956D01*
X135420552Y-72559974D01*
X135401832Y-72546090D01*
X135384562Y-72530438D01*
X135368910Y-72513168D01*
X135355026Y-72494448D01*
X135343044Y-72474457D01*
X135333079Y-72453387D01*
X135325227Y-72431443D01*
X135319563Y-72408834D01*
X135316144Y-72385779D01*
X135315000Y-72362500D01*
X135315000Y-71787500D01*
X135316144Y-71764221D01*
X135319563Y-71741166D01*
X135325227Y-71718557D01*
X135333079Y-71696613D01*
X135343044Y-71675543D01*
X135355026Y-71655552D01*
X135368910Y-71636832D01*
X135384562Y-71619562D01*
X135401832Y-71603910D01*
X135420552Y-71590026D01*
X135440543Y-71578044D01*
X135461613Y-71568079D01*
X135483557Y-71560227D01*
X135506166Y-71554563D01*
X135529221Y-71551144D01*
X135552500Y-71550000D01*
X136027500Y-71550000D01*
X136050779Y-71551144D01*
X136050779Y-71551144D01*
G37*
D11*
G04 #@! TD*
G04 #@! TO.P,C4,2*
G04 #@! TO.N,GND*
X135790000Y-72075000D03*
D10*
G04 #@! TO.N,+3V3*
G04 #@! TO.C,C4*
G36*
X136050779Y-69801144D02*
X136073834Y-69804563D01*
X136096443Y-69810227D01*
X136118387Y-69818079D01*
X136139457Y-69828044D01*
X136159448Y-69840026D01*
X136178168Y-69853910D01*
X136195438Y-69869562D01*
X136211090Y-69886832D01*
X136224974Y-69905552D01*
X136236956Y-69925543D01*
X136246921Y-69946613D01*
X136254773Y-69968557D01*
X136260437Y-69991166D01*
X136263856Y-70014221D01*
X136265000Y-70037500D01*
X136265000Y-70612500D01*
X136263856Y-70635779D01*
X136260437Y-70658834D01*
X136254773Y-70681443D01*
X136246921Y-70703387D01*
X136236956Y-70724457D01*
X136224974Y-70744448D01*
X136211090Y-70763168D01*
X136195438Y-70780438D01*
X136178168Y-70796090D01*
X136159448Y-70809974D01*
X136139457Y-70821956D01*
X136118387Y-70831921D01*
X136096443Y-70839773D01*
X136073834Y-70845437D01*
X136050779Y-70848856D01*
X136027500Y-70850000D01*
X135552500Y-70850000D01*
X135529221Y-70848856D01*
X135506166Y-70845437D01*
X135483557Y-70839773D01*
X135461613Y-70831921D01*
X135440543Y-70821956D01*
X135420552Y-70809974D01*
X135401832Y-70796090D01*
X135384562Y-70780438D01*
X135368910Y-70763168D01*
X135355026Y-70744448D01*
X135343044Y-70724457D01*
X135333079Y-70703387D01*
X135325227Y-70681443D01*
X135319563Y-70658834D01*
X135316144Y-70635779D01*
X135315000Y-70612500D01*
X135315000Y-70037500D01*
X135316144Y-70014221D01*
X135319563Y-69991166D01*
X135325227Y-69968557D01*
X135333079Y-69946613D01*
X135343044Y-69925543D01*
X135355026Y-69905552D01*
X135368910Y-69886832D01*
X135384562Y-69869562D01*
X135401832Y-69853910D01*
X135420552Y-69840026D01*
X135440543Y-69828044D01*
X135461613Y-69818079D01*
X135483557Y-69810227D01*
X135506166Y-69804563D01*
X135529221Y-69801144D01*
X135552500Y-69800000D01*
X136027500Y-69800000D01*
X136050779Y-69801144D01*
X136050779Y-69801144D01*
G37*
D11*
G04 #@! TD*
G04 #@! TO.P,C4,1*
G04 #@! TO.N,+3V3*
X135790000Y-70325000D03*
D10*
G04 #@! TO.N,GND*
G04 #@! TO.C,C5*
G36*
X149175779Y-65126144D02*
X149198834Y-65129563D01*
X149221443Y-65135227D01*
X149243387Y-65143079D01*
X149264457Y-65153044D01*
X149284448Y-65165026D01*
X149303168Y-65178910D01*
X149320438Y-65194562D01*
X149336090Y-65211832D01*
X149349974Y-65230552D01*
X149361956Y-65250543D01*
X149371921Y-65271613D01*
X149379773Y-65293557D01*
X149385437Y-65316166D01*
X149388856Y-65339221D01*
X149390000Y-65362500D01*
X149390000Y-65837500D01*
X149388856Y-65860779D01*
X149385437Y-65883834D01*
X149379773Y-65906443D01*
X149371921Y-65928387D01*
X149361956Y-65949457D01*
X149349974Y-65969448D01*
X149336090Y-65988168D01*
X149320438Y-66005438D01*
X149303168Y-66021090D01*
X149284448Y-66034974D01*
X149264457Y-66046956D01*
X149243387Y-66056921D01*
X149221443Y-66064773D01*
X149198834Y-66070437D01*
X149175779Y-66073856D01*
X149152500Y-66075000D01*
X148577500Y-66075000D01*
X148554221Y-66073856D01*
X148531166Y-66070437D01*
X148508557Y-66064773D01*
X148486613Y-66056921D01*
X148465543Y-66046956D01*
X148445552Y-66034974D01*
X148426832Y-66021090D01*
X148409562Y-66005438D01*
X148393910Y-65988168D01*
X148380026Y-65969448D01*
X148368044Y-65949457D01*
X148358079Y-65928387D01*
X148350227Y-65906443D01*
X148344563Y-65883834D01*
X148341144Y-65860779D01*
X148340000Y-65837500D01*
X148340000Y-65362500D01*
X148341144Y-65339221D01*
X148344563Y-65316166D01*
X148350227Y-65293557D01*
X148358079Y-65271613D01*
X148368044Y-65250543D01*
X148380026Y-65230552D01*
X148393910Y-65211832D01*
X148409562Y-65194562D01*
X148426832Y-65178910D01*
X148445552Y-65165026D01*
X148465543Y-65153044D01*
X148486613Y-65143079D01*
X148508557Y-65135227D01*
X148531166Y-65129563D01*
X148554221Y-65126144D01*
X148577500Y-65125000D01*
X149152500Y-65125000D01*
X149175779Y-65126144D01*
X149175779Y-65126144D01*
G37*
D11*
G04 #@! TD*
G04 #@! TO.P,C5,2*
G04 #@! TO.N,GND*
X148865000Y-65600000D03*
D10*
G04 #@! TO.N,+3V3*
G04 #@! TO.C,C5*
G36*
X147425779Y-65126144D02*
X147448834Y-65129563D01*
X147471443Y-65135227D01*
X147493387Y-65143079D01*
X147514457Y-65153044D01*
X147534448Y-65165026D01*
X147553168Y-65178910D01*
X147570438Y-65194562D01*
X147586090Y-65211832D01*
X147599974Y-65230552D01*
X147611956Y-65250543D01*
X147621921Y-65271613D01*
X147629773Y-65293557D01*
X147635437Y-65316166D01*
X147638856Y-65339221D01*
X147640000Y-65362500D01*
X147640000Y-65837500D01*
X147638856Y-65860779D01*
X147635437Y-65883834D01*
X147629773Y-65906443D01*
X147621921Y-65928387D01*
X147611956Y-65949457D01*
X147599974Y-65969448D01*
X147586090Y-65988168D01*
X147570438Y-66005438D01*
X147553168Y-66021090D01*
X147534448Y-66034974D01*
X147514457Y-66046956D01*
X147493387Y-66056921D01*
X147471443Y-66064773D01*
X147448834Y-66070437D01*
X147425779Y-66073856D01*
X147402500Y-66075000D01*
X146827500Y-66075000D01*
X146804221Y-66073856D01*
X146781166Y-66070437D01*
X146758557Y-66064773D01*
X146736613Y-66056921D01*
X146715543Y-66046956D01*
X146695552Y-66034974D01*
X146676832Y-66021090D01*
X146659562Y-66005438D01*
X146643910Y-65988168D01*
X146630026Y-65969448D01*
X146618044Y-65949457D01*
X146608079Y-65928387D01*
X146600227Y-65906443D01*
X146594563Y-65883834D01*
X146591144Y-65860779D01*
X146590000Y-65837500D01*
X146590000Y-65362500D01*
X146591144Y-65339221D01*
X146594563Y-65316166D01*
X146600227Y-65293557D01*
X146608079Y-65271613D01*
X146618044Y-65250543D01*
X146630026Y-65230552D01*
X146643910Y-65211832D01*
X146659562Y-65194562D01*
X146676832Y-65178910D01*
X146695552Y-65165026D01*
X146715543Y-65153044D01*
X146736613Y-65143079D01*
X146758557Y-65135227D01*
X146781166Y-65129563D01*
X146804221Y-65126144D01*
X146827500Y-65125000D01*
X147402500Y-65125000D01*
X147425779Y-65126144D01*
X147425779Y-65126144D01*
G37*
D11*
G04 #@! TD*
G04 #@! TO.P,C5,1*
G04 #@! TO.N,+3V3*
X147115000Y-65600000D03*
D10*
G04 #@! TO.N,+3V3*
G04 #@! TO.C,C6*
G36*
X137850779Y-69801144D02*
X137873834Y-69804563D01*
X137896443Y-69810227D01*
X137918387Y-69818079D01*
X137939457Y-69828044D01*
X137959448Y-69840026D01*
X137978168Y-69853910D01*
X137995438Y-69869562D01*
X138011090Y-69886832D01*
X138024974Y-69905552D01*
X138036956Y-69925543D01*
X138046921Y-69946613D01*
X138054773Y-69968557D01*
X138060437Y-69991166D01*
X138063856Y-70014221D01*
X138065000Y-70037500D01*
X138065000Y-70612500D01*
X138063856Y-70635779D01*
X138060437Y-70658834D01*
X138054773Y-70681443D01*
X138046921Y-70703387D01*
X138036956Y-70724457D01*
X138024974Y-70744448D01*
X138011090Y-70763168D01*
X137995438Y-70780438D01*
X137978168Y-70796090D01*
X137959448Y-70809974D01*
X137939457Y-70821956D01*
X137918387Y-70831921D01*
X137896443Y-70839773D01*
X137873834Y-70845437D01*
X137850779Y-70848856D01*
X137827500Y-70850000D01*
X137352500Y-70850000D01*
X137329221Y-70848856D01*
X137306166Y-70845437D01*
X137283557Y-70839773D01*
X137261613Y-70831921D01*
X137240543Y-70821956D01*
X137220552Y-70809974D01*
X137201832Y-70796090D01*
X137184562Y-70780438D01*
X137168910Y-70763168D01*
X137155026Y-70744448D01*
X137143044Y-70724457D01*
X137133079Y-70703387D01*
X137125227Y-70681443D01*
X137119563Y-70658834D01*
X137116144Y-70635779D01*
X137115000Y-70612500D01*
X137115000Y-70037500D01*
X137116144Y-70014221D01*
X137119563Y-69991166D01*
X137125227Y-69968557D01*
X137133079Y-69946613D01*
X137143044Y-69925543D01*
X137155026Y-69905552D01*
X137168910Y-69886832D01*
X137184562Y-69869562D01*
X137201832Y-69853910D01*
X137220552Y-69840026D01*
X137240543Y-69828044D01*
X137261613Y-69818079D01*
X137283557Y-69810227D01*
X137306166Y-69804563D01*
X137329221Y-69801144D01*
X137352500Y-69800000D01*
X137827500Y-69800000D01*
X137850779Y-69801144D01*
X137850779Y-69801144D01*
G37*
D11*
G04 #@! TD*
G04 #@! TO.P,C6,1*
G04 #@! TO.N,+3V3*
X137590000Y-70325000D03*
D10*
G04 #@! TO.N,GND*
G04 #@! TO.C,C6*
G36*
X137850779Y-71551144D02*
X137873834Y-71554563D01*
X137896443Y-71560227D01*
X137918387Y-71568079D01*
X137939457Y-71578044D01*
X137959448Y-71590026D01*
X137978168Y-71603910D01*
X137995438Y-71619562D01*
X138011090Y-71636832D01*
X138024974Y-71655552D01*
X138036956Y-71675543D01*
X138046921Y-71696613D01*
X138054773Y-71718557D01*
X138060437Y-71741166D01*
X138063856Y-71764221D01*
X138065000Y-71787500D01*
X138065000Y-72362500D01*
X138063856Y-72385779D01*
X138060437Y-72408834D01*
X138054773Y-72431443D01*
X138046921Y-72453387D01*
X138036956Y-72474457D01*
X138024974Y-72494448D01*
X138011090Y-72513168D01*
X137995438Y-72530438D01*
X137978168Y-72546090D01*
X137959448Y-72559974D01*
X137939457Y-72571956D01*
X137918387Y-72581921D01*
X137896443Y-72589773D01*
X137873834Y-72595437D01*
X137850779Y-72598856D01*
X137827500Y-72600000D01*
X137352500Y-72600000D01*
X137329221Y-72598856D01*
X137306166Y-72595437D01*
X137283557Y-72589773D01*
X137261613Y-72581921D01*
X137240543Y-72571956D01*
X137220552Y-72559974D01*
X137201832Y-72546090D01*
X137184562Y-72530438D01*
X137168910Y-72513168D01*
X137155026Y-72494448D01*
X137143044Y-72474457D01*
X137133079Y-72453387D01*
X137125227Y-72431443D01*
X137119563Y-72408834D01*
X137116144Y-72385779D01*
X137115000Y-72362500D01*
X137115000Y-71787500D01*
X137116144Y-71764221D01*
X137119563Y-71741166D01*
X137125227Y-71718557D01*
X137133079Y-71696613D01*
X137143044Y-71675543D01*
X137155026Y-71655552D01*
X137168910Y-71636832D01*
X137184562Y-71619562D01*
X137201832Y-71603910D01*
X137220552Y-71590026D01*
X137240543Y-71578044D01*
X137261613Y-71568079D01*
X137283557Y-71560227D01*
X137306166Y-71554563D01*
X137329221Y-71551144D01*
X137352500Y-71550000D01*
X137827500Y-71550000D01*
X137850779Y-71551144D01*
X137850779Y-71551144D01*
G37*
D11*
G04 #@! TD*
G04 #@! TO.P,C6,2*
G04 #@! TO.N,GND*
X137590000Y-72075000D03*
D10*
G04 #@! TO.N,GND*
G04 #@! TO.C,C7*
G36*
X142050779Y-71551144D02*
X142073834Y-71554563D01*
X142096443Y-71560227D01*
X142118387Y-71568079D01*
X142139457Y-71578044D01*
X142159448Y-71590026D01*
X142178168Y-71603910D01*
X142195438Y-71619562D01*
X142211090Y-71636832D01*
X142224974Y-71655552D01*
X142236956Y-71675543D01*
X142246921Y-71696613D01*
X142254773Y-71718557D01*
X142260437Y-71741166D01*
X142263856Y-71764221D01*
X142265000Y-71787500D01*
X142265000Y-72362500D01*
X142263856Y-72385779D01*
X142260437Y-72408834D01*
X142254773Y-72431443D01*
X142246921Y-72453387D01*
X142236956Y-72474457D01*
X142224974Y-72494448D01*
X142211090Y-72513168D01*
X142195438Y-72530438D01*
X142178168Y-72546090D01*
X142159448Y-72559974D01*
X142139457Y-72571956D01*
X142118387Y-72581921D01*
X142096443Y-72589773D01*
X142073834Y-72595437D01*
X142050779Y-72598856D01*
X142027500Y-72600000D01*
X141552500Y-72600000D01*
X141529221Y-72598856D01*
X141506166Y-72595437D01*
X141483557Y-72589773D01*
X141461613Y-72581921D01*
X141440543Y-72571956D01*
X141420552Y-72559974D01*
X141401832Y-72546090D01*
X141384562Y-72530438D01*
X141368910Y-72513168D01*
X141355026Y-72494448D01*
X141343044Y-72474457D01*
X141333079Y-72453387D01*
X141325227Y-72431443D01*
X141319563Y-72408834D01*
X141316144Y-72385779D01*
X141315000Y-72362500D01*
X141315000Y-71787500D01*
X141316144Y-71764221D01*
X141319563Y-71741166D01*
X141325227Y-71718557D01*
X141333079Y-71696613D01*
X141343044Y-71675543D01*
X141355026Y-71655552D01*
X141368910Y-71636832D01*
X141384562Y-71619562D01*
X141401832Y-71603910D01*
X141420552Y-71590026D01*
X141440543Y-71578044D01*
X141461613Y-71568079D01*
X141483557Y-71560227D01*
X141506166Y-71554563D01*
X141529221Y-71551144D01*
X141552500Y-71550000D01*
X142027500Y-71550000D01*
X142050779Y-71551144D01*
X142050779Y-71551144D01*
G37*
D11*
G04 #@! TD*
G04 #@! TO.P,C7,2*
G04 #@! TO.N,GND*
X141790000Y-72075000D03*
D10*
G04 #@! TO.N,+3V3*
G04 #@! TO.C,C7*
G36*
X142050779Y-69801144D02*
X142073834Y-69804563D01*
X142096443Y-69810227D01*
X142118387Y-69818079D01*
X142139457Y-69828044D01*
X142159448Y-69840026D01*
X142178168Y-69853910D01*
X142195438Y-69869562D01*
X142211090Y-69886832D01*
X142224974Y-69905552D01*
X142236956Y-69925543D01*
X142246921Y-69946613D01*
X142254773Y-69968557D01*
X142260437Y-69991166D01*
X142263856Y-70014221D01*
X142265000Y-70037500D01*
X142265000Y-70612500D01*
X142263856Y-70635779D01*
X142260437Y-70658834D01*
X142254773Y-70681443D01*
X142246921Y-70703387D01*
X142236956Y-70724457D01*
X142224974Y-70744448D01*
X142211090Y-70763168D01*
X142195438Y-70780438D01*
X142178168Y-70796090D01*
X142159448Y-70809974D01*
X142139457Y-70821956D01*
X142118387Y-70831921D01*
X142096443Y-70839773D01*
X142073834Y-70845437D01*
X142050779Y-70848856D01*
X142027500Y-70850000D01*
X141552500Y-70850000D01*
X141529221Y-70848856D01*
X141506166Y-70845437D01*
X141483557Y-70839773D01*
X141461613Y-70831921D01*
X141440543Y-70821956D01*
X141420552Y-70809974D01*
X141401832Y-70796090D01*
X141384562Y-70780438D01*
X141368910Y-70763168D01*
X141355026Y-70744448D01*
X141343044Y-70724457D01*
X141333079Y-70703387D01*
X141325227Y-70681443D01*
X141319563Y-70658834D01*
X141316144Y-70635779D01*
X141315000Y-70612500D01*
X141315000Y-70037500D01*
X141316144Y-70014221D01*
X141319563Y-69991166D01*
X141325227Y-69968557D01*
X141333079Y-69946613D01*
X141343044Y-69925543D01*
X141355026Y-69905552D01*
X141368910Y-69886832D01*
X141384562Y-69869562D01*
X141401832Y-69853910D01*
X141420552Y-69840026D01*
X141440543Y-69828044D01*
X141461613Y-69818079D01*
X141483557Y-69810227D01*
X141506166Y-69804563D01*
X141529221Y-69801144D01*
X141552500Y-69800000D01*
X142027500Y-69800000D01*
X142050779Y-69801144D01*
X142050779Y-69801144D01*
G37*
D11*
G04 #@! TD*
G04 #@! TO.P,C7,1*
G04 #@! TO.N,+3V3*
X141790000Y-70325000D03*
D10*
G04 #@! TO.N,+3V3*
G04 #@! TO.C,C8*
G36*
X140250779Y-69801144D02*
X140273834Y-69804563D01*
X140296443Y-69810227D01*
X140318387Y-69818079D01*
X140339457Y-69828044D01*
X140359448Y-69840026D01*
X140378168Y-69853910D01*
X140395438Y-69869562D01*
X140411090Y-69886832D01*
X140424974Y-69905552D01*
X140436956Y-69925543D01*
X140446921Y-69946613D01*
X140454773Y-69968557D01*
X140460437Y-69991166D01*
X140463856Y-70014221D01*
X140465000Y-70037500D01*
X140465000Y-70612500D01*
X140463856Y-70635779D01*
X140460437Y-70658834D01*
X140454773Y-70681443D01*
X140446921Y-70703387D01*
X140436956Y-70724457D01*
X140424974Y-70744448D01*
X140411090Y-70763168D01*
X140395438Y-70780438D01*
X140378168Y-70796090D01*
X140359448Y-70809974D01*
X140339457Y-70821956D01*
X140318387Y-70831921D01*
X140296443Y-70839773D01*
X140273834Y-70845437D01*
X140250779Y-70848856D01*
X140227500Y-70850000D01*
X139752500Y-70850000D01*
X139729221Y-70848856D01*
X139706166Y-70845437D01*
X139683557Y-70839773D01*
X139661613Y-70831921D01*
X139640543Y-70821956D01*
X139620552Y-70809974D01*
X139601832Y-70796090D01*
X139584562Y-70780438D01*
X139568910Y-70763168D01*
X139555026Y-70744448D01*
X139543044Y-70724457D01*
X139533079Y-70703387D01*
X139525227Y-70681443D01*
X139519563Y-70658834D01*
X139516144Y-70635779D01*
X139515000Y-70612500D01*
X139515000Y-70037500D01*
X139516144Y-70014221D01*
X139519563Y-69991166D01*
X139525227Y-69968557D01*
X139533079Y-69946613D01*
X139543044Y-69925543D01*
X139555026Y-69905552D01*
X139568910Y-69886832D01*
X139584562Y-69869562D01*
X139601832Y-69853910D01*
X139620552Y-69840026D01*
X139640543Y-69828044D01*
X139661613Y-69818079D01*
X139683557Y-69810227D01*
X139706166Y-69804563D01*
X139729221Y-69801144D01*
X139752500Y-69800000D01*
X140227500Y-69800000D01*
X140250779Y-69801144D01*
X140250779Y-69801144D01*
G37*
D11*
G04 #@! TD*
G04 #@! TO.P,C8,1*
G04 #@! TO.N,+3V3*
X139990000Y-70325000D03*
D10*
G04 #@! TO.N,GND*
G04 #@! TO.C,C8*
G36*
X140250779Y-71551144D02*
X140273834Y-71554563D01*
X140296443Y-71560227D01*
X140318387Y-71568079D01*
X140339457Y-71578044D01*
X140359448Y-71590026D01*
X140378168Y-71603910D01*
X140395438Y-71619562D01*
X140411090Y-71636832D01*
X140424974Y-71655552D01*
X140436956Y-71675543D01*
X140446921Y-71696613D01*
X140454773Y-71718557D01*
X140460437Y-71741166D01*
X140463856Y-71764221D01*
X140465000Y-71787500D01*
X140465000Y-72362500D01*
X140463856Y-72385779D01*
X140460437Y-72408834D01*
X140454773Y-72431443D01*
X140446921Y-72453387D01*
X140436956Y-72474457D01*
X140424974Y-72494448D01*
X140411090Y-72513168D01*
X140395438Y-72530438D01*
X140378168Y-72546090D01*
X140359448Y-72559974D01*
X140339457Y-72571956D01*
X140318387Y-72581921D01*
X140296443Y-72589773D01*
X140273834Y-72595437D01*
X140250779Y-72598856D01*
X140227500Y-72600000D01*
X139752500Y-72600000D01*
X139729221Y-72598856D01*
X139706166Y-72595437D01*
X139683557Y-72589773D01*
X139661613Y-72581921D01*
X139640543Y-72571956D01*
X139620552Y-72559974D01*
X139601832Y-72546090D01*
X139584562Y-72530438D01*
X139568910Y-72513168D01*
X139555026Y-72494448D01*
X139543044Y-72474457D01*
X139533079Y-72453387D01*
X139525227Y-72431443D01*
X139519563Y-72408834D01*
X139516144Y-72385779D01*
X139515000Y-72362500D01*
X139515000Y-71787500D01*
X139516144Y-71764221D01*
X139519563Y-71741166D01*
X139525227Y-71718557D01*
X139533079Y-71696613D01*
X139543044Y-71675543D01*
X139555026Y-71655552D01*
X139568910Y-71636832D01*
X139584562Y-71619562D01*
X139601832Y-71603910D01*
X139620552Y-71590026D01*
X139640543Y-71578044D01*
X139661613Y-71568079D01*
X139683557Y-71560227D01*
X139706166Y-71554563D01*
X139729221Y-71551144D01*
X139752500Y-71550000D01*
X140227500Y-71550000D01*
X140250779Y-71551144D01*
X140250779Y-71551144D01*
G37*
D11*
G04 #@! TD*
G04 #@! TO.P,C8,2*
G04 #@! TO.N,GND*
X139990000Y-72075000D03*
D10*
G04 #@! TO.N,GND*
G04 #@! TO.C,C9*
G36*
X130850779Y-74951144D02*
X130873834Y-74954563D01*
X130896443Y-74960227D01*
X130918387Y-74968079D01*
X130939457Y-74978044D01*
X130959448Y-74990026D01*
X130978168Y-75003910D01*
X130995438Y-75019562D01*
X131011090Y-75036832D01*
X131024974Y-75055552D01*
X131036956Y-75075543D01*
X131046921Y-75096613D01*
X131054773Y-75118557D01*
X131060437Y-75141166D01*
X131063856Y-75164221D01*
X131065000Y-75187500D01*
X131065000Y-75762500D01*
X131063856Y-75785779D01*
X131060437Y-75808834D01*
X131054773Y-75831443D01*
X131046921Y-75853387D01*
X131036956Y-75874457D01*
X131024974Y-75894448D01*
X131011090Y-75913168D01*
X130995438Y-75930438D01*
X130978168Y-75946090D01*
X130959448Y-75959974D01*
X130939457Y-75971956D01*
X130918387Y-75981921D01*
X130896443Y-75989773D01*
X130873834Y-75995437D01*
X130850779Y-75998856D01*
X130827500Y-76000000D01*
X130352500Y-76000000D01*
X130329221Y-75998856D01*
X130306166Y-75995437D01*
X130283557Y-75989773D01*
X130261613Y-75981921D01*
X130240543Y-75971956D01*
X130220552Y-75959974D01*
X130201832Y-75946090D01*
X130184562Y-75930438D01*
X130168910Y-75913168D01*
X130155026Y-75894448D01*
X130143044Y-75874457D01*
X130133079Y-75853387D01*
X130125227Y-75831443D01*
X130119563Y-75808834D01*
X130116144Y-75785779D01*
X130115000Y-75762500D01*
X130115000Y-75187500D01*
X130116144Y-75164221D01*
X130119563Y-75141166D01*
X130125227Y-75118557D01*
X130133079Y-75096613D01*
X130143044Y-75075543D01*
X130155026Y-75055552D01*
X130168910Y-75036832D01*
X130184562Y-75019562D01*
X130201832Y-75003910D01*
X130220552Y-74990026D01*
X130240543Y-74978044D01*
X130261613Y-74968079D01*
X130283557Y-74960227D01*
X130306166Y-74954563D01*
X130329221Y-74951144D01*
X130352500Y-74950000D01*
X130827500Y-74950000D01*
X130850779Y-74951144D01*
X130850779Y-74951144D01*
G37*
D11*
G04 #@! TD*
G04 #@! TO.P,C9,2*
G04 #@! TO.N,GND*
X130590000Y-75475000D03*
D10*
G04 #@! TO.N,/BATT_SENSE*
G04 #@! TO.C,C9*
G36*
X130850779Y-73201144D02*
X130873834Y-73204563D01*
X130896443Y-73210227D01*
X130918387Y-73218079D01*
X130939457Y-73228044D01*
X130959448Y-73240026D01*
X130978168Y-73253910D01*
X130995438Y-73269562D01*
X131011090Y-73286832D01*
X131024974Y-73305552D01*
X131036956Y-73325543D01*
X131046921Y-73346613D01*
X131054773Y-73368557D01*
X131060437Y-73391166D01*
X131063856Y-73414221D01*
X131065000Y-73437500D01*
X131065000Y-74012500D01*
X131063856Y-74035779D01*
X131060437Y-74058834D01*
X131054773Y-74081443D01*
X131046921Y-74103387D01*
X131036956Y-74124457D01*
X131024974Y-74144448D01*
X131011090Y-74163168D01*
X130995438Y-74180438D01*
X130978168Y-74196090D01*
X130959448Y-74209974D01*
X130939457Y-74221956D01*
X130918387Y-74231921D01*
X130896443Y-74239773D01*
X130873834Y-74245437D01*
X130850779Y-74248856D01*
X130827500Y-74250000D01*
X130352500Y-74250000D01*
X130329221Y-74248856D01*
X130306166Y-74245437D01*
X130283557Y-74239773D01*
X130261613Y-74231921D01*
X130240543Y-74221956D01*
X130220552Y-74209974D01*
X130201832Y-74196090D01*
X130184562Y-74180438D01*
X130168910Y-74163168D01*
X130155026Y-74144448D01*
X130143044Y-74124457D01*
X130133079Y-74103387D01*
X130125227Y-74081443D01*
X130119563Y-74058834D01*
X130116144Y-74035779D01*
X130115000Y-74012500D01*
X130115000Y-73437500D01*
X130116144Y-73414221D01*
X130119563Y-73391166D01*
X130125227Y-73368557D01*
X130133079Y-73346613D01*
X130143044Y-73325543D01*
X130155026Y-73305552D01*
X130168910Y-73286832D01*
X130184562Y-73269562D01*
X130201832Y-73253910D01*
X130220552Y-73240026D01*
X130240543Y-73228044D01*
X130261613Y-73218079D01*
X130283557Y-73210227D01*
X130306166Y-73204563D01*
X130329221Y-73201144D01*
X130352500Y-73200000D01*
X130827500Y-73200000D01*
X130850779Y-73201144D01*
X130850779Y-73201144D01*
G37*
D11*
G04 #@! TD*
G04 #@! TO.P,C9,1*
G04 #@! TO.N,/BATT_SENSE*
X130590000Y-73725000D03*
D10*
G04 #@! TO.N,+24V*
G04 #@! TO.C,C10*
G36*
X140375779Y-91776144D02*
X140398834Y-91779563D01*
X140421443Y-91785227D01*
X140443387Y-91793079D01*
X140464457Y-91803044D01*
X140484448Y-91815026D01*
X140503168Y-91828910D01*
X140520438Y-91844562D01*
X140536090Y-91861832D01*
X140549974Y-91880552D01*
X140561956Y-91900543D01*
X140571921Y-91921613D01*
X140579773Y-91943557D01*
X140585437Y-91966166D01*
X140588856Y-91989221D01*
X140590000Y-92012500D01*
X140590000Y-92487500D01*
X140588856Y-92510779D01*
X140585437Y-92533834D01*
X140579773Y-92556443D01*
X140571921Y-92578387D01*
X140561956Y-92599457D01*
X140549974Y-92619448D01*
X140536090Y-92638168D01*
X140520438Y-92655438D01*
X140503168Y-92671090D01*
X140484448Y-92684974D01*
X140464457Y-92696956D01*
X140443387Y-92706921D01*
X140421443Y-92714773D01*
X140398834Y-92720437D01*
X140375779Y-92723856D01*
X140352500Y-92725000D01*
X139777500Y-92725000D01*
X139754221Y-92723856D01*
X139731166Y-92720437D01*
X139708557Y-92714773D01*
X139686613Y-92706921D01*
X139665543Y-92696956D01*
X139645552Y-92684974D01*
X139626832Y-92671090D01*
X139609562Y-92655438D01*
X139593910Y-92638168D01*
X139580026Y-92619448D01*
X139568044Y-92599457D01*
X139558079Y-92578387D01*
X139550227Y-92556443D01*
X139544563Y-92533834D01*
X139541144Y-92510779D01*
X139540000Y-92487500D01*
X139540000Y-92012500D01*
X139541144Y-91989221D01*
X139544563Y-91966166D01*
X139550227Y-91943557D01*
X139558079Y-91921613D01*
X139568044Y-91900543D01*
X139580026Y-91880552D01*
X139593910Y-91861832D01*
X139609562Y-91844562D01*
X139626832Y-91828910D01*
X139645552Y-91815026D01*
X139665543Y-91803044D01*
X139686613Y-91793079D01*
X139708557Y-91785227D01*
X139731166Y-91779563D01*
X139754221Y-91776144D01*
X139777500Y-91775000D01*
X140352500Y-91775000D01*
X140375779Y-91776144D01*
X140375779Y-91776144D01*
G37*
D11*
G04 #@! TD*
G04 #@! TO.P,C10,1*
G04 #@! TO.N,+24V*
X140065000Y-92250000D03*
D10*
G04 #@! TO.N,GND*
G04 #@! TO.C,C10*
G36*
X138625779Y-91776144D02*
X138648834Y-91779563D01*
X138671443Y-91785227D01*
X138693387Y-91793079D01*
X138714457Y-91803044D01*
X138734448Y-91815026D01*
X138753168Y-91828910D01*
X138770438Y-91844562D01*
X138786090Y-91861832D01*
X138799974Y-91880552D01*
X138811956Y-91900543D01*
X138821921Y-91921613D01*
X138829773Y-91943557D01*
X138835437Y-91966166D01*
X138838856Y-91989221D01*
X138840000Y-92012500D01*
X138840000Y-92487500D01*
X138838856Y-92510779D01*
X138835437Y-92533834D01*
X138829773Y-92556443D01*
X138821921Y-92578387D01*
X138811956Y-92599457D01*
X138799974Y-92619448D01*
X138786090Y-92638168D01*
X138770438Y-92655438D01*
X138753168Y-92671090D01*
X138734448Y-92684974D01*
X138714457Y-92696956D01*
X138693387Y-92706921D01*
X138671443Y-92714773D01*
X138648834Y-92720437D01*
X138625779Y-92723856D01*
X138602500Y-92725000D01*
X138027500Y-92725000D01*
X138004221Y-92723856D01*
X137981166Y-92720437D01*
X137958557Y-92714773D01*
X137936613Y-92706921D01*
X137915543Y-92696956D01*
X137895552Y-92684974D01*
X137876832Y-92671090D01*
X137859562Y-92655438D01*
X137843910Y-92638168D01*
X137830026Y-92619448D01*
X137818044Y-92599457D01*
X137808079Y-92578387D01*
X137800227Y-92556443D01*
X137794563Y-92533834D01*
X137791144Y-92510779D01*
X137790000Y-92487500D01*
X137790000Y-92012500D01*
X137791144Y-91989221D01*
X137794563Y-91966166D01*
X137800227Y-91943557D01*
X137808079Y-91921613D01*
X137818044Y-91900543D01*
X137830026Y-91880552D01*
X137843910Y-91861832D01*
X137859562Y-91844562D01*
X137876832Y-91828910D01*
X137895552Y-91815026D01*
X137915543Y-91803044D01*
X137936613Y-91793079D01*
X137958557Y-91785227D01*
X137981166Y-91779563D01*
X138004221Y-91776144D01*
X138027500Y-91775000D01*
X138602500Y-91775000D01*
X138625779Y-91776144D01*
X138625779Y-91776144D01*
G37*
D11*
G04 #@! TD*
G04 #@! TO.P,C10,2*
G04 #@! TO.N,GND*
X138315000Y-92250000D03*
D10*
G04 #@! TO.N,GND*
G04 #@! TO.C,C11*
G36*
X138575779Y-89176144D02*
X138598834Y-89179563D01*
X138621443Y-89185227D01*
X138643387Y-89193079D01*
X138664457Y-89203044D01*
X138684448Y-89215026D01*
X138703168Y-89228910D01*
X138720438Y-89244562D01*
X138736090Y-89261832D01*
X138749974Y-89280552D01*
X138761956Y-89300543D01*
X138771921Y-89321613D01*
X138779773Y-89343557D01*
X138785437Y-89366166D01*
X138788856Y-89389221D01*
X138790000Y-89412500D01*
X138790000Y-89887500D01*
X138788856Y-89910779D01*
X138785437Y-89933834D01*
X138779773Y-89956443D01*
X138771921Y-89978387D01*
X138761956Y-89999457D01*
X138749974Y-90019448D01*
X138736090Y-90038168D01*
X138720438Y-90055438D01*
X138703168Y-90071090D01*
X138684448Y-90084974D01*
X138664457Y-90096956D01*
X138643387Y-90106921D01*
X138621443Y-90114773D01*
X138598834Y-90120437D01*
X138575779Y-90123856D01*
X138552500Y-90125000D01*
X137977500Y-90125000D01*
X137954221Y-90123856D01*
X137931166Y-90120437D01*
X137908557Y-90114773D01*
X137886613Y-90106921D01*
X137865543Y-90096956D01*
X137845552Y-90084974D01*
X137826832Y-90071090D01*
X137809562Y-90055438D01*
X137793910Y-90038168D01*
X137780026Y-90019448D01*
X137768044Y-89999457D01*
X137758079Y-89978387D01*
X137750227Y-89956443D01*
X137744563Y-89933834D01*
X137741144Y-89910779D01*
X137740000Y-89887500D01*
X137740000Y-89412500D01*
X137741144Y-89389221D01*
X137744563Y-89366166D01*
X137750227Y-89343557D01*
X137758079Y-89321613D01*
X137768044Y-89300543D01*
X137780026Y-89280552D01*
X137793910Y-89261832D01*
X137809562Y-89244562D01*
X137826832Y-89228910D01*
X137845552Y-89215026D01*
X137865543Y-89203044D01*
X137886613Y-89193079D01*
X137908557Y-89185227D01*
X137931166Y-89179563D01*
X137954221Y-89176144D01*
X137977500Y-89175000D01*
X138552500Y-89175000D01*
X138575779Y-89176144D01*
X138575779Y-89176144D01*
G37*
D11*
G04 #@! TD*
G04 #@! TO.P,C11,2*
G04 #@! TO.N,GND*
X138265000Y-89650000D03*
D10*
G04 #@! TO.N,+24V*
G04 #@! TO.C,C11*
G36*
X140325779Y-89176144D02*
X140348834Y-89179563D01*
X140371443Y-89185227D01*
X140393387Y-89193079D01*
X140414457Y-89203044D01*
X140434448Y-89215026D01*
X140453168Y-89228910D01*
X140470438Y-89244562D01*
X140486090Y-89261832D01*
X140499974Y-89280552D01*
X140511956Y-89300543D01*
X140521921Y-89321613D01*
X140529773Y-89343557D01*
X140535437Y-89366166D01*
X140538856Y-89389221D01*
X140540000Y-89412500D01*
X140540000Y-89887500D01*
X140538856Y-89910779D01*
X140535437Y-89933834D01*
X140529773Y-89956443D01*
X140521921Y-89978387D01*
X140511956Y-89999457D01*
X140499974Y-90019448D01*
X140486090Y-90038168D01*
X140470438Y-90055438D01*
X140453168Y-90071090D01*
X140434448Y-90084974D01*
X140414457Y-90096956D01*
X140393387Y-90106921D01*
X140371443Y-90114773D01*
X140348834Y-90120437D01*
X140325779Y-90123856D01*
X140302500Y-90125000D01*
X139727500Y-90125000D01*
X139704221Y-90123856D01*
X139681166Y-90120437D01*
X139658557Y-90114773D01*
X139636613Y-90106921D01*
X139615543Y-90096956D01*
X139595552Y-90084974D01*
X139576832Y-90071090D01*
X139559562Y-90055438D01*
X139543910Y-90038168D01*
X139530026Y-90019448D01*
X139518044Y-89999457D01*
X139508079Y-89978387D01*
X139500227Y-89956443D01*
X139494563Y-89933834D01*
X139491144Y-89910779D01*
X139490000Y-89887500D01*
X139490000Y-89412500D01*
X139491144Y-89389221D01*
X139494563Y-89366166D01*
X139500227Y-89343557D01*
X139508079Y-89321613D01*
X139518044Y-89300543D01*
X139530026Y-89280552D01*
X139543910Y-89261832D01*
X139559562Y-89244562D01*
X139576832Y-89228910D01*
X139595552Y-89215026D01*
X139615543Y-89203044D01*
X139636613Y-89193079D01*
X139658557Y-89185227D01*
X139681166Y-89179563D01*
X139704221Y-89176144D01*
X139727500Y-89175000D01*
X140302500Y-89175000D01*
X140325779Y-89176144D01*
X140325779Y-89176144D01*
G37*
D11*
G04 #@! TD*
G04 #@! TO.P,C11,1*
G04 #@! TO.N,+24V*
X140015000Y-89650000D03*
D12*
G04 #@! TO.P,J1,1*
G04 #@! TO.N,+3V3*
X133040000Y-61500000D03*
D13*
G04 #@! TO.P,J1,2*
G04 #@! TO.N,SWCLK*
X135580000Y-61500000D03*
G04 #@! TO.P,J1,3*
G04 #@! TO.N,GND*
X138120000Y-61500000D03*
G04 #@! TO.P,J1,4*
G04 #@! TO.N,SWDI0*
X140660000Y-61500000D03*
G04 #@! TO.P,J1,5*
G04 #@! TO.N,NRST*
X143200000Y-61500000D03*
G04 #@! TO.P,J1,6*
G04 #@! TO.N,UART_TX*
X145740000Y-61500000D03*
G04 #@! TD*
D10*
G04 #@! TO.N,GND*
G04 #@! TO.C,R3*
G36*
X143775779Y-64926144D02*
X143798834Y-64929563D01*
X143821443Y-64935227D01*
X143843387Y-64943079D01*
X143864457Y-64953044D01*
X143884448Y-64965026D01*
X143903168Y-64978910D01*
X143920438Y-64994562D01*
X143936090Y-65011832D01*
X143949974Y-65030552D01*
X143961956Y-65050543D01*
X143971921Y-65071613D01*
X143979773Y-65093557D01*
X143985437Y-65116166D01*
X143988856Y-65139221D01*
X143990000Y-65162500D01*
X143990000Y-65637500D01*
X143988856Y-65660779D01*
X143985437Y-65683834D01*
X143979773Y-65706443D01*
X143971921Y-65728387D01*
X143961956Y-65749457D01*
X143949974Y-65769448D01*
X143936090Y-65788168D01*
X143920438Y-65805438D01*
X143903168Y-65821090D01*
X143884448Y-65834974D01*
X143864457Y-65846956D01*
X143843387Y-65856921D01*
X143821443Y-65864773D01*
X143798834Y-65870437D01*
X143775779Y-65873856D01*
X143752500Y-65875000D01*
X143177500Y-65875000D01*
X143154221Y-65873856D01*
X143131166Y-65870437D01*
X143108557Y-65864773D01*
X143086613Y-65856921D01*
X143065543Y-65846956D01*
X143045552Y-65834974D01*
X143026832Y-65821090D01*
X143009562Y-65805438D01*
X142993910Y-65788168D01*
X142980026Y-65769448D01*
X142968044Y-65749457D01*
X142958079Y-65728387D01*
X142950227Y-65706443D01*
X142944563Y-65683834D01*
X142941144Y-65660779D01*
X142940000Y-65637500D01*
X142940000Y-65162500D01*
X142941144Y-65139221D01*
X142944563Y-65116166D01*
X142950227Y-65093557D01*
X142958079Y-65071613D01*
X142968044Y-65050543D01*
X142980026Y-65030552D01*
X142993910Y-65011832D01*
X143009562Y-64994562D01*
X143026832Y-64978910D01*
X143045552Y-64965026D01*
X143065543Y-64953044D01*
X143086613Y-64943079D01*
X143108557Y-64935227D01*
X143131166Y-64929563D01*
X143154221Y-64926144D01*
X143177500Y-64925000D01*
X143752500Y-64925000D01*
X143775779Y-64926144D01*
X143775779Y-64926144D01*
G37*
D11*
G04 #@! TD*
G04 #@! TO.P,R3,2*
G04 #@! TO.N,GND*
X143465000Y-65400000D03*
D10*
G04 #@! TO.N,Net-(R3-Pad1)*
G04 #@! TO.C,R3*
G36*
X142025779Y-64926144D02*
X142048834Y-64929563D01*
X142071443Y-64935227D01*
X142093387Y-64943079D01*
X142114457Y-64953044D01*
X142134448Y-64965026D01*
X142153168Y-64978910D01*
X142170438Y-64994562D01*
X142186090Y-65011832D01*
X142199974Y-65030552D01*
X142211956Y-65050543D01*
X142221921Y-65071613D01*
X142229773Y-65093557D01*
X142235437Y-65116166D01*
X142238856Y-65139221D01*
X142240000Y-65162500D01*
X142240000Y-65637500D01*
X142238856Y-65660779D01*
X142235437Y-65683834D01*
X142229773Y-65706443D01*
X142221921Y-65728387D01*
X142211956Y-65749457D01*
X142199974Y-65769448D01*
X142186090Y-65788168D01*
X142170438Y-65805438D01*
X142153168Y-65821090D01*
X142134448Y-65834974D01*
X142114457Y-65846956D01*
X142093387Y-65856921D01*
X142071443Y-65864773D01*
X142048834Y-65870437D01*
X142025779Y-65873856D01*
X142002500Y-65875000D01*
X141427500Y-65875000D01*
X141404221Y-65873856D01*
X141381166Y-65870437D01*
X141358557Y-65864773D01*
X141336613Y-65856921D01*
X141315543Y-65846956D01*
X141295552Y-65834974D01*
X141276832Y-65821090D01*
X141259562Y-65805438D01*
X141243910Y-65788168D01*
X141230026Y-65769448D01*
X141218044Y-65749457D01*
X141208079Y-65728387D01*
X141200227Y-65706443D01*
X141194563Y-65683834D01*
X141191144Y-65660779D01*
X141190000Y-65637500D01*
X141190000Y-65162500D01*
X141191144Y-65139221D01*
X141194563Y-65116166D01*
X141200227Y-65093557D01*
X141208079Y-65071613D01*
X141218044Y-65050543D01*
X141230026Y-65030552D01*
X141243910Y-65011832D01*
X141259562Y-64994562D01*
X141276832Y-64978910D01*
X141295552Y-64965026D01*
X141315543Y-64953044D01*
X141336613Y-64943079D01*
X141358557Y-64935227D01*
X141381166Y-64929563D01*
X141404221Y-64926144D01*
X141427500Y-64925000D01*
X142002500Y-64925000D01*
X142025779Y-64926144D01*
X142025779Y-64926144D01*
G37*
D11*
G04 #@! TD*
G04 #@! TO.P,R3,1*
G04 #@! TO.N,Net-(R3-Pad1)*
X141715000Y-65400000D03*
D10*
G04 #@! TO.N,/PA4*
G04 #@! TO.C,R7*
G36*
X132400779Y-79601144D02*
X132423834Y-79604563D01*
X132446443Y-79610227D01*
X132468387Y-79618079D01*
X132489457Y-79628044D01*
X132509448Y-79640026D01*
X132528168Y-79653910D01*
X132545438Y-79669562D01*
X132561090Y-79686832D01*
X132574974Y-79705552D01*
X132586956Y-79725543D01*
X132596921Y-79746613D01*
X132604773Y-79768557D01*
X132610437Y-79791166D01*
X132613856Y-79814221D01*
X132615000Y-79837500D01*
X132615000Y-80412500D01*
X132613856Y-80435779D01*
X132610437Y-80458834D01*
X132604773Y-80481443D01*
X132596921Y-80503387D01*
X132586956Y-80524457D01*
X132574974Y-80544448D01*
X132561090Y-80563168D01*
X132545438Y-80580438D01*
X132528168Y-80596090D01*
X132509448Y-80609974D01*
X132489457Y-80621956D01*
X132468387Y-80631921D01*
X132446443Y-80639773D01*
X132423834Y-80645437D01*
X132400779Y-80648856D01*
X132377500Y-80650000D01*
X131902500Y-80650000D01*
X131879221Y-80648856D01*
X131856166Y-80645437D01*
X131833557Y-80639773D01*
X131811613Y-80631921D01*
X131790543Y-80621956D01*
X131770552Y-80609974D01*
X131751832Y-80596090D01*
X131734562Y-80580438D01*
X131718910Y-80563168D01*
X131705026Y-80544448D01*
X131693044Y-80524457D01*
X131683079Y-80503387D01*
X131675227Y-80481443D01*
X131669563Y-80458834D01*
X131666144Y-80435779D01*
X131665000Y-80412500D01*
X131665000Y-79837500D01*
X131666144Y-79814221D01*
X131669563Y-79791166D01*
X131675227Y-79768557D01*
X131683079Y-79746613D01*
X131693044Y-79725543D01*
X131705026Y-79705552D01*
X131718910Y-79686832D01*
X131734562Y-79669562D01*
X131751832Y-79653910D01*
X131770552Y-79640026D01*
X131790543Y-79628044D01*
X131811613Y-79618079D01*
X131833557Y-79610227D01*
X131856166Y-79604563D01*
X131879221Y-79601144D01*
X131902500Y-79600000D01*
X132377500Y-79600000D01*
X132400779Y-79601144D01*
X132400779Y-79601144D01*
G37*
D11*
G04 #@! TD*
G04 #@! TO.P,R7,2*
G04 #@! TO.N,/PA4*
X132140000Y-80125000D03*
D10*
G04 #@! TO.N,Net-(Q2-Pad1)*
G04 #@! TO.C,R7*
G36*
X132400779Y-81351144D02*
X132423834Y-81354563D01*
X132446443Y-81360227D01*
X132468387Y-81368079D01*
X132489457Y-81378044D01*
X132509448Y-81390026D01*
X132528168Y-81403910D01*
X132545438Y-81419562D01*
X132561090Y-81436832D01*
X132574974Y-81455552D01*
X132586956Y-81475543D01*
X132596921Y-81496613D01*
X132604773Y-81518557D01*
X132610437Y-81541166D01*
X132613856Y-81564221D01*
X132615000Y-81587500D01*
X132615000Y-82162500D01*
X132613856Y-82185779D01*
X132610437Y-82208834D01*
X132604773Y-82231443D01*
X132596921Y-82253387D01*
X132586956Y-82274457D01*
X132574974Y-82294448D01*
X132561090Y-82313168D01*
X132545438Y-82330438D01*
X132528168Y-82346090D01*
X132509448Y-82359974D01*
X132489457Y-82371956D01*
X132468387Y-82381921D01*
X132446443Y-82389773D01*
X132423834Y-82395437D01*
X132400779Y-82398856D01*
X132377500Y-82400000D01*
X131902500Y-82400000D01*
X131879221Y-82398856D01*
X131856166Y-82395437D01*
X131833557Y-82389773D01*
X131811613Y-82381921D01*
X131790543Y-82371956D01*
X131770552Y-82359974D01*
X131751832Y-82346090D01*
X131734562Y-82330438D01*
X131718910Y-82313168D01*
X131705026Y-82294448D01*
X131693044Y-82274457D01*
X131683079Y-82253387D01*
X131675227Y-82231443D01*
X131669563Y-82208834D01*
X131666144Y-82185779D01*
X131665000Y-82162500D01*
X131665000Y-81587500D01*
X131666144Y-81564221D01*
X131669563Y-81541166D01*
X131675227Y-81518557D01*
X131683079Y-81496613D01*
X131693044Y-81475543D01*
X131705026Y-81455552D01*
X131718910Y-81436832D01*
X131734562Y-81419562D01*
X131751832Y-81403910D01*
X131770552Y-81390026D01*
X131790543Y-81378044D01*
X131811613Y-81368079D01*
X131833557Y-81360227D01*
X131856166Y-81354563D01*
X131879221Y-81351144D01*
X131902500Y-81350000D01*
X132377500Y-81350000D01*
X132400779Y-81351144D01*
X132400779Y-81351144D01*
G37*
D11*
G04 #@! TD*
G04 #@! TO.P,R7,1*
G04 #@! TO.N,Net-(Q2-Pad1)*
X132140000Y-81875000D03*
D10*
G04 #@! TO.N,/PANEL_SENSE*
G04 #@! TO.C,R8*
G36*
X145550779Y-71651144D02*
X145573834Y-71654563D01*
X145596443Y-71660227D01*
X145618387Y-71668079D01*
X145639457Y-71678044D01*
X145659448Y-71690026D01*
X145678168Y-71703910D01*
X145695438Y-71719562D01*
X145711090Y-71736832D01*
X145724974Y-71755552D01*
X145736956Y-71775543D01*
X145746921Y-71796613D01*
X145754773Y-71818557D01*
X145760437Y-71841166D01*
X145763856Y-71864221D01*
X145765000Y-71887500D01*
X145765000Y-72462500D01*
X145763856Y-72485779D01*
X145760437Y-72508834D01*
X145754773Y-72531443D01*
X145746921Y-72553387D01*
X145736956Y-72574457D01*
X145724974Y-72594448D01*
X145711090Y-72613168D01*
X145695438Y-72630438D01*
X145678168Y-72646090D01*
X145659448Y-72659974D01*
X145639457Y-72671956D01*
X145618387Y-72681921D01*
X145596443Y-72689773D01*
X145573834Y-72695437D01*
X145550779Y-72698856D01*
X145527500Y-72700000D01*
X145052500Y-72700000D01*
X145029221Y-72698856D01*
X145006166Y-72695437D01*
X144983557Y-72689773D01*
X144961613Y-72681921D01*
X144940543Y-72671956D01*
X144920552Y-72659974D01*
X144901832Y-72646090D01*
X144884562Y-72630438D01*
X144868910Y-72613168D01*
X144855026Y-72594448D01*
X144843044Y-72574457D01*
X144833079Y-72553387D01*
X144825227Y-72531443D01*
X144819563Y-72508834D01*
X144816144Y-72485779D01*
X144815000Y-72462500D01*
X144815000Y-71887500D01*
X144816144Y-71864221D01*
X144819563Y-71841166D01*
X144825227Y-71818557D01*
X144833079Y-71796613D01*
X144843044Y-71775543D01*
X144855026Y-71755552D01*
X144868910Y-71736832D01*
X144884562Y-71719562D01*
X144901832Y-71703910D01*
X144920552Y-71690026D01*
X144940543Y-71678044D01*
X144961613Y-71668079D01*
X144983557Y-71660227D01*
X145006166Y-71654563D01*
X145029221Y-71651144D01*
X145052500Y-71650000D01*
X145527500Y-71650000D01*
X145550779Y-71651144D01*
X145550779Y-71651144D01*
G37*
D11*
G04 #@! TD*
G04 #@! TO.P,R8,2*
G04 #@! TO.N,/PANEL_SENSE*
X145290000Y-72175000D03*
D10*
G04 #@! TO.N,+24V*
G04 #@! TO.C,R8*
G36*
X145550779Y-73401144D02*
X145573834Y-73404563D01*
X145596443Y-73410227D01*
X145618387Y-73418079D01*
X145639457Y-73428044D01*
X145659448Y-73440026D01*
X145678168Y-73453910D01*
X145695438Y-73469562D01*
X145711090Y-73486832D01*
X145724974Y-73505552D01*
X145736956Y-73525543D01*
X145746921Y-73546613D01*
X145754773Y-73568557D01*
X145760437Y-73591166D01*
X145763856Y-73614221D01*
X145765000Y-73637500D01*
X145765000Y-74212500D01*
X145763856Y-74235779D01*
X145760437Y-74258834D01*
X145754773Y-74281443D01*
X145746921Y-74303387D01*
X145736956Y-74324457D01*
X145724974Y-74344448D01*
X145711090Y-74363168D01*
X145695438Y-74380438D01*
X145678168Y-74396090D01*
X145659448Y-74409974D01*
X145639457Y-74421956D01*
X145618387Y-74431921D01*
X145596443Y-74439773D01*
X145573834Y-74445437D01*
X145550779Y-74448856D01*
X145527500Y-74450000D01*
X145052500Y-74450000D01*
X145029221Y-74448856D01*
X145006166Y-74445437D01*
X144983557Y-74439773D01*
X144961613Y-74431921D01*
X144940543Y-74421956D01*
X144920552Y-74409974D01*
X144901832Y-74396090D01*
X144884562Y-74380438D01*
X144868910Y-74363168D01*
X144855026Y-74344448D01*
X144843044Y-74324457D01*
X144833079Y-74303387D01*
X144825227Y-74281443D01*
X144819563Y-74258834D01*
X144816144Y-74235779D01*
X144815000Y-74212500D01*
X144815000Y-73637500D01*
X144816144Y-73614221D01*
X144819563Y-73591166D01*
X144825227Y-73568557D01*
X144833079Y-73546613D01*
X144843044Y-73525543D01*
X144855026Y-73505552D01*
X144868910Y-73486832D01*
X144884562Y-73469562D01*
X144901832Y-73453910D01*
X144920552Y-73440026D01*
X144940543Y-73428044D01*
X144961613Y-73418079D01*
X144983557Y-73410227D01*
X145006166Y-73404563D01*
X145029221Y-73401144D01*
X145052500Y-73400000D01*
X145527500Y-73400000D01*
X145550779Y-73401144D01*
X145550779Y-73401144D01*
G37*
D11*
G04 #@! TD*
G04 #@! TO.P,R8,1*
G04 #@! TO.N,+24V*
X145290000Y-73925000D03*
D10*
G04 #@! TO.N,/PANEL_SENSE*
G04 #@! TO.C,R9*
G36*
X143800779Y-71651144D02*
X143823834Y-71654563D01*
X143846443Y-71660227D01*
X143868387Y-71668079D01*
X143889457Y-71678044D01*
X143909448Y-71690026D01*
X143928168Y-71703910D01*
X143945438Y-71719562D01*
X143961090Y-71736832D01*
X143974974Y-71755552D01*
X143986956Y-71775543D01*
X143996921Y-71796613D01*
X144004773Y-71818557D01*
X144010437Y-71841166D01*
X144013856Y-71864221D01*
X144015000Y-71887500D01*
X144015000Y-72462500D01*
X144013856Y-72485779D01*
X144010437Y-72508834D01*
X144004773Y-72531443D01*
X143996921Y-72553387D01*
X143986956Y-72574457D01*
X143974974Y-72594448D01*
X143961090Y-72613168D01*
X143945438Y-72630438D01*
X143928168Y-72646090D01*
X143909448Y-72659974D01*
X143889457Y-72671956D01*
X143868387Y-72681921D01*
X143846443Y-72689773D01*
X143823834Y-72695437D01*
X143800779Y-72698856D01*
X143777500Y-72700000D01*
X143302500Y-72700000D01*
X143279221Y-72698856D01*
X143256166Y-72695437D01*
X143233557Y-72689773D01*
X143211613Y-72681921D01*
X143190543Y-72671956D01*
X143170552Y-72659974D01*
X143151832Y-72646090D01*
X143134562Y-72630438D01*
X143118910Y-72613168D01*
X143105026Y-72594448D01*
X143093044Y-72574457D01*
X143083079Y-72553387D01*
X143075227Y-72531443D01*
X143069563Y-72508834D01*
X143066144Y-72485779D01*
X143065000Y-72462500D01*
X143065000Y-71887500D01*
X143066144Y-71864221D01*
X143069563Y-71841166D01*
X143075227Y-71818557D01*
X143083079Y-71796613D01*
X143093044Y-71775543D01*
X143105026Y-71755552D01*
X143118910Y-71736832D01*
X143134562Y-71719562D01*
X143151832Y-71703910D01*
X143170552Y-71690026D01*
X143190543Y-71678044D01*
X143211613Y-71668079D01*
X143233557Y-71660227D01*
X143256166Y-71654563D01*
X143279221Y-71651144D01*
X143302500Y-71650000D01*
X143777500Y-71650000D01*
X143800779Y-71651144D01*
X143800779Y-71651144D01*
G37*
D11*
G04 #@! TD*
G04 #@! TO.P,R9,1*
G04 #@! TO.N,/PANEL_SENSE*
X143540000Y-72175000D03*
D10*
G04 #@! TO.N,GND*
G04 #@! TO.C,R9*
G36*
X143800779Y-73401144D02*
X143823834Y-73404563D01*
X143846443Y-73410227D01*
X143868387Y-73418079D01*
X143889457Y-73428044D01*
X143909448Y-73440026D01*
X143928168Y-73453910D01*
X143945438Y-73469562D01*
X143961090Y-73486832D01*
X143974974Y-73505552D01*
X143986956Y-73525543D01*
X143996921Y-73546613D01*
X144004773Y-73568557D01*
X144010437Y-73591166D01*
X144013856Y-73614221D01*
X144015000Y-73637500D01*
X144015000Y-74212500D01*
X144013856Y-74235779D01*
X144010437Y-74258834D01*
X144004773Y-74281443D01*
X143996921Y-74303387D01*
X143986956Y-74324457D01*
X143974974Y-74344448D01*
X143961090Y-74363168D01*
X143945438Y-74380438D01*
X143928168Y-74396090D01*
X143909448Y-74409974D01*
X143889457Y-74421956D01*
X143868387Y-74431921D01*
X143846443Y-74439773D01*
X143823834Y-74445437D01*
X143800779Y-74448856D01*
X143777500Y-74450000D01*
X143302500Y-74450000D01*
X143279221Y-74448856D01*
X143256166Y-74445437D01*
X143233557Y-74439773D01*
X143211613Y-74431921D01*
X143190543Y-74421956D01*
X143170552Y-74409974D01*
X143151832Y-74396090D01*
X143134562Y-74380438D01*
X143118910Y-74363168D01*
X143105026Y-74344448D01*
X143093044Y-74324457D01*
X143083079Y-74303387D01*
X143075227Y-74281443D01*
X143069563Y-74258834D01*
X143066144Y-74235779D01*
X143065000Y-74212500D01*
X143065000Y-73637500D01*
X143066144Y-73614221D01*
X143069563Y-73591166D01*
X143075227Y-73568557D01*
X143083079Y-73546613D01*
X143093044Y-73525543D01*
X143105026Y-73505552D01*
X143118910Y-73486832D01*
X143134562Y-73469562D01*
X143151832Y-73453910D01*
X143170552Y-73440026D01*
X143190543Y-73428044D01*
X143211613Y-73418079D01*
X143233557Y-73410227D01*
X143256166Y-73404563D01*
X143279221Y-73401144D01*
X143302500Y-73400000D01*
X143777500Y-73400000D01*
X143800779Y-73401144D01*
X143800779Y-73401144D01*
G37*
D11*
G04 #@! TD*
G04 #@! TO.P,R9,2*
G04 #@! TO.N,GND*
X143540000Y-73925000D03*
D10*
G04 #@! TO.N,/FR_DIAG*
G04 #@! TO.C,R12*
G36*
X129850779Y-69626144D02*
X129873834Y-69629563D01*
X129896443Y-69635227D01*
X129918387Y-69643079D01*
X129939457Y-69653044D01*
X129959448Y-69665026D01*
X129978168Y-69678910D01*
X129995438Y-69694562D01*
X130011090Y-69711832D01*
X130024974Y-69730552D01*
X130036956Y-69750543D01*
X130046921Y-69771613D01*
X130054773Y-69793557D01*
X130060437Y-69816166D01*
X130063856Y-69839221D01*
X130065000Y-69862500D01*
X130065000Y-70337500D01*
X130063856Y-70360779D01*
X130060437Y-70383834D01*
X130054773Y-70406443D01*
X130046921Y-70428387D01*
X130036956Y-70449457D01*
X130024974Y-70469448D01*
X130011090Y-70488168D01*
X129995438Y-70505438D01*
X129978168Y-70521090D01*
X129959448Y-70534974D01*
X129939457Y-70546956D01*
X129918387Y-70556921D01*
X129896443Y-70564773D01*
X129873834Y-70570437D01*
X129850779Y-70573856D01*
X129827500Y-70575000D01*
X129252500Y-70575000D01*
X129229221Y-70573856D01*
X129206166Y-70570437D01*
X129183557Y-70564773D01*
X129161613Y-70556921D01*
X129140543Y-70546956D01*
X129120552Y-70534974D01*
X129101832Y-70521090D01*
X129084562Y-70505438D01*
X129068910Y-70488168D01*
X129055026Y-70469448D01*
X129043044Y-70449457D01*
X129033079Y-70428387D01*
X129025227Y-70406443D01*
X129019563Y-70383834D01*
X129016144Y-70360779D01*
X129015000Y-70337500D01*
X129015000Y-69862500D01*
X129016144Y-69839221D01*
X129019563Y-69816166D01*
X129025227Y-69793557D01*
X129033079Y-69771613D01*
X129043044Y-69750543D01*
X129055026Y-69730552D01*
X129068910Y-69711832D01*
X129084562Y-69694562D01*
X129101832Y-69678910D01*
X129120552Y-69665026D01*
X129140543Y-69653044D01*
X129161613Y-69643079D01*
X129183557Y-69635227D01*
X129206166Y-69629563D01*
X129229221Y-69626144D01*
X129252500Y-69625000D01*
X129827500Y-69625000D01*
X129850779Y-69626144D01*
X129850779Y-69626144D01*
G37*
D11*
G04 #@! TD*
G04 #@! TO.P,R12,1*
G04 #@! TO.N,/FR_DIAG*
X129540000Y-70100000D03*
D10*
G04 #@! TO.N,Net-(R12-Pad2)*
G04 #@! TO.C,R12*
G36*
X131600779Y-69626144D02*
X131623834Y-69629563D01*
X131646443Y-69635227D01*
X131668387Y-69643079D01*
X131689457Y-69653044D01*
X131709448Y-69665026D01*
X131728168Y-69678910D01*
X131745438Y-69694562D01*
X131761090Y-69711832D01*
X131774974Y-69730552D01*
X131786956Y-69750543D01*
X131796921Y-69771613D01*
X131804773Y-69793557D01*
X131810437Y-69816166D01*
X131813856Y-69839221D01*
X131815000Y-69862500D01*
X131815000Y-70337500D01*
X131813856Y-70360779D01*
X131810437Y-70383834D01*
X131804773Y-70406443D01*
X131796921Y-70428387D01*
X131786956Y-70449457D01*
X131774974Y-70469448D01*
X131761090Y-70488168D01*
X131745438Y-70505438D01*
X131728168Y-70521090D01*
X131709448Y-70534974D01*
X131689457Y-70546956D01*
X131668387Y-70556921D01*
X131646443Y-70564773D01*
X131623834Y-70570437D01*
X131600779Y-70573856D01*
X131577500Y-70575000D01*
X131002500Y-70575000D01*
X130979221Y-70573856D01*
X130956166Y-70570437D01*
X130933557Y-70564773D01*
X130911613Y-70556921D01*
X130890543Y-70546956D01*
X130870552Y-70534974D01*
X130851832Y-70521090D01*
X130834562Y-70505438D01*
X130818910Y-70488168D01*
X130805026Y-70469448D01*
X130793044Y-70449457D01*
X130783079Y-70428387D01*
X130775227Y-70406443D01*
X130769563Y-70383834D01*
X130766144Y-70360779D01*
X130765000Y-70337500D01*
X130765000Y-69862500D01*
X130766144Y-69839221D01*
X130769563Y-69816166D01*
X130775227Y-69793557D01*
X130783079Y-69771613D01*
X130793044Y-69750543D01*
X130805026Y-69730552D01*
X130818910Y-69711832D01*
X130834562Y-69694562D01*
X130851832Y-69678910D01*
X130870552Y-69665026D01*
X130890543Y-69653044D01*
X130911613Y-69643079D01*
X130933557Y-69635227D01*
X130956166Y-69629563D01*
X130979221Y-69626144D01*
X131002500Y-69625000D01*
X131577500Y-69625000D01*
X131600779Y-69626144D01*
X131600779Y-69626144D01*
G37*
D11*
G04 #@! TD*
G04 #@! TO.P,R12,2*
G04 #@! TO.N,Net-(R12-Pad2)*
X131290000Y-70100000D03*
D10*
G04 #@! TO.N,CURRENT_SENSE*
G04 #@! TO.C,R13*
G36*
X131600779Y-67576144D02*
X131623834Y-67579563D01*
X131646443Y-67585227D01*
X131668387Y-67593079D01*
X131689457Y-67603044D01*
X131709448Y-67615026D01*
X131728168Y-67628910D01*
X131745438Y-67644562D01*
X131761090Y-67661832D01*
X131774974Y-67680552D01*
X131786956Y-67700543D01*
X131796921Y-67721613D01*
X131804773Y-67743557D01*
X131810437Y-67766166D01*
X131813856Y-67789221D01*
X131815000Y-67812500D01*
X131815000Y-68287500D01*
X131813856Y-68310779D01*
X131810437Y-68333834D01*
X131804773Y-68356443D01*
X131796921Y-68378387D01*
X131786956Y-68399457D01*
X131774974Y-68419448D01*
X131761090Y-68438168D01*
X131745438Y-68455438D01*
X131728168Y-68471090D01*
X131709448Y-68484974D01*
X131689457Y-68496956D01*
X131668387Y-68506921D01*
X131646443Y-68514773D01*
X131623834Y-68520437D01*
X131600779Y-68523856D01*
X131577500Y-68525000D01*
X131002500Y-68525000D01*
X130979221Y-68523856D01*
X130956166Y-68520437D01*
X130933557Y-68514773D01*
X130911613Y-68506921D01*
X130890543Y-68496956D01*
X130870552Y-68484974D01*
X130851832Y-68471090D01*
X130834562Y-68455438D01*
X130818910Y-68438168D01*
X130805026Y-68419448D01*
X130793044Y-68399457D01*
X130783079Y-68378387D01*
X130775227Y-68356443D01*
X130769563Y-68333834D01*
X130766144Y-68310779D01*
X130765000Y-68287500D01*
X130765000Y-67812500D01*
X130766144Y-67789221D01*
X130769563Y-67766166D01*
X130775227Y-67743557D01*
X130783079Y-67721613D01*
X130793044Y-67700543D01*
X130805026Y-67680552D01*
X130818910Y-67661832D01*
X130834562Y-67644562D01*
X130851832Y-67628910D01*
X130870552Y-67615026D01*
X130890543Y-67603044D01*
X130911613Y-67593079D01*
X130933557Y-67585227D01*
X130956166Y-67579563D01*
X130979221Y-67576144D01*
X131002500Y-67575000D01*
X131577500Y-67575000D01*
X131600779Y-67576144D01*
X131600779Y-67576144D01*
G37*
D11*
G04 #@! TD*
G04 #@! TO.P,R13,2*
G04 #@! TO.N,CURRENT_SENSE*
X131290000Y-68050000D03*
D10*
G04 #@! TO.N,Net-(R13-Pad1)*
G04 #@! TO.C,R13*
G36*
X129850779Y-67576144D02*
X129873834Y-67579563D01*
X129896443Y-67585227D01*
X129918387Y-67593079D01*
X129939457Y-67603044D01*
X129959448Y-67615026D01*
X129978168Y-67628910D01*
X129995438Y-67644562D01*
X130011090Y-67661832D01*
X130024974Y-67680552D01*
X130036956Y-67700543D01*
X130046921Y-67721613D01*
X130054773Y-67743557D01*
X130060437Y-67766166D01*
X130063856Y-67789221D01*
X130065000Y-67812500D01*
X130065000Y-68287500D01*
X130063856Y-68310779D01*
X130060437Y-68333834D01*
X130054773Y-68356443D01*
X130046921Y-68378387D01*
X130036956Y-68399457D01*
X130024974Y-68419448D01*
X130011090Y-68438168D01*
X129995438Y-68455438D01*
X129978168Y-68471090D01*
X129959448Y-68484974D01*
X129939457Y-68496956D01*
X129918387Y-68506921D01*
X129896443Y-68514773D01*
X129873834Y-68520437D01*
X129850779Y-68523856D01*
X129827500Y-68525000D01*
X129252500Y-68525000D01*
X129229221Y-68523856D01*
X129206166Y-68520437D01*
X129183557Y-68514773D01*
X129161613Y-68506921D01*
X129140543Y-68496956D01*
X129120552Y-68484974D01*
X129101832Y-68471090D01*
X129084562Y-68455438D01*
X129068910Y-68438168D01*
X129055026Y-68419448D01*
X129043044Y-68399457D01*
X129033079Y-68378387D01*
X129025227Y-68356443D01*
X129019563Y-68333834D01*
X129016144Y-68310779D01*
X129015000Y-68287500D01*
X129015000Y-67812500D01*
X129016144Y-67789221D01*
X129019563Y-67766166D01*
X129025227Y-67743557D01*
X129033079Y-67721613D01*
X129043044Y-67700543D01*
X129055026Y-67680552D01*
X129068910Y-67661832D01*
X129084562Y-67644562D01*
X129101832Y-67628910D01*
X129120552Y-67615026D01*
X129140543Y-67603044D01*
X129161613Y-67593079D01*
X129183557Y-67585227D01*
X129206166Y-67579563D01*
X129229221Y-67576144D01*
X129252500Y-67575000D01*
X129827500Y-67575000D01*
X129850779Y-67576144D01*
X129850779Y-67576144D01*
G37*
D11*
G04 #@! TD*
G04 #@! TO.P,R13,1*
G04 #@! TO.N,Net-(R13-Pad1)*
X129540000Y-68050000D03*
D10*
G04 #@! TO.N,Net-(Q1-Pad3)*
G04 #@! TO.C,R14*
G36*
X129050779Y-74951144D02*
X129073834Y-74954563D01*
X129096443Y-74960227D01*
X129118387Y-74968079D01*
X129139457Y-74978044D01*
X129159448Y-74990026D01*
X129178168Y-75003910D01*
X129195438Y-75019562D01*
X129211090Y-75036832D01*
X129224974Y-75055552D01*
X129236956Y-75075543D01*
X129246921Y-75096613D01*
X129254773Y-75118557D01*
X129260437Y-75141166D01*
X129263856Y-75164221D01*
X129265000Y-75187500D01*
X129265000Y-75762500D01*
X129263856Y-75785779D01*
X129260437Y-75808834D01*
X129254773Y-75831443D01*
X129246921Y-75853387D01*
X129236956Y-75874457D01*
X129224974Y-75894448D01*
X129211090Y-75913168D01*
X129195438Y-75930438D01*
X129178168Y-75946090D01*
X129159448Y-75959974D01*
X129139457Y-75971956D01*
X129118387Y-75981921D01*
X129096443Y-75989773D01*
X129073834Y-75995437D01*
X129050779Y-75998856D01*
X129027500Y-76000000D01*
X128552500Y-76000000D01*
X128529221Y-75998856D01*
X128506166Y-75995437D01*
X128483557Y-75989773D01*
X128461613Y-75981921D01*
X128440543Y-75971956D01*
X128420552Y-75959974D01*
X128401832Y-75946090D01*
X128384562Y-75930438D01*
X128368910Y-75913168D01*
X128355026Y-75894448D01*
X128343044Y-75874457D01*
X128333079Y-75853387D01*
X128325227Y-75831443D01*
X128319563Y-75808834D01*
X128316144Y-75785779D01*
X128315000Y-75762500D01*
X128315000Y-75187500D01*
X128316144Y-75164221D01*
X128319563Y-75141166D01*
X128325227Y-75118557D01*
X128333079Y-75096613D01*
X128343044Y-75075543D01*
X128355026Y-75055552D01*
X128368910Y-75036832D01*
X128384562Y-75019562D01*
X128401832Y-75003910D01*
X128420552Y-74990026D01*
X128440543Y-74978044D01*
X128461613Y-74968079D01*
X128483557Y-74960227D01*
X128506166Y-74954563D01*
X128529221Y-74951144D01*
X128552500Y-74950000D01*
X129027500Y-74950000D01*
X129050779Y-74951144D01*
X129050779Y-74951144D01*
G37*
D11*
G04 #@! TD*
G04 #@! TO.P,R14,1*
G04 #@! TO.N,Net-(Q1-Pad3)*
X128790000Y-75475000D03*
D10*
G04 #@! TO.N,/BATT_SENSE*
G04 #@! TO.C,R14*
G36*
X129050779Y-73201144D02*
X129073834Y-73204563D01*
X129096443Y-73210227D01*
X129118387Y-73218079D01*
X129139457Y-73228044D01*
X129159448Y-73240026D01*
X129178168Y-73253910D01*
X129195438Y-73269562D01*
X129211090Y-73286832D01*
X129224974Y-73305552D01*
X129236956Y-73325543D01*
X129246921Y-73346613D01*
X129254773Y-73368557D01*
X129260437Y-73391166D01*
X129263856Y-73414221D01*
X129265000Y-73437500D01*
X129265000Y-74012500D01*
X129263856Y-74035779D01*
X129260437Y-74058834D01*
X129254773Y-74081443D01*
X129246921Y-74103387D01*
X129236956Y-74124457D01*
X129224974Y-74144448D01*
X129211090Y-74163168D01*
X129195438Y-74180438D01*
X129178168Y-74196090D01*
X129159448Y-74209974D01*
X129139457Y-74221956D01*
X129118387Y-74231921D01*
X129096443Y-74239773D01*
X129073834Y-74245437D01*
X129050779Y-74248856D01*
X129027500Y-74250000D01*
X128552500Y-74250000D01*
X128529221Y-74248856D01*
X128506166Y-74245437D01*
X128483557Y-74239773D01*
X128461613Y-74231921D01*
X128440543Y-74221956D01*
X128420552Y-74209974D01*
X128401832Y-74196090D01*
X128384562Y-74180438D01*
X128368910Y-74163168D01*
X128355026Y-74144448D01*
X128343044Y-74124457D01*
X128333079Y-74103387D01*
X128325227Y-74081443D01*
X128319563Y-74058834D01*
X128316144Y-74035779D01*
X128315000Y-74012500D01*
X128315000Y-73437500D01*
X128316144Y-73414221D01*
X128319563Y-73391166D01*
X128325227Y-73368557D01*
X128333079Y-73346613D01*
X128343044Y-73325543D01*
X128355026Y-73305552D01*
X128368910Y-73286832D01*
X128384562Y-73269562D01*
X128401832Y-73253910D01*
X128420552Y-73240026D01*
X128440543Y-73228044D01*
X128461613Y-73218079D01*
X128483557Y-73210227D01*
X128506166Y-73204563D01*
X128529221Y-73201144D01*
X128552500Y-73200000D01*
X129027500Y-73200000D01*
X129050779Y-73201144D01*
X129050779Y-73201144D01*
G37*
D11*
G04 #@! TD*
G04 #@! TO.P,R14,2*
G04 #@! TO.N,/BATT_SENSE*
X128790000Y-73725000D03*
D10*
G04 #@! TO.N,GND*
G04 #@! TO.C,R15*
G36*
X132850779Y-74951144D02*
X132873834Y-74954563D01*
X132896443Y-74960227D01*
X132918387Y-74968079D01*
X132939457Y-74978044D01*
X132959448Y-74990026D01*
X132978168Y-75003910D01*
X132995438Y-75019562D01*
X133011090Y-75036832D01*
X133024974Y-75055552D01*
X133036956Y-75075543D01*
X133046921Y-75096613D01*
X133054773Y-75118557D01*
X133060437Y-75141166D01*
X133063856Y-75164221D01*
X133065000Y-75187500D01*
X133065000Y-75762500D01*
X133063856Y-75785779D01*
X133060437Y-75808834D01*
X133054773Y-75831443D01*
X133046921Y-75853387D01*
X133036956Y-75874457D01*
X133024974Y-75894448D01*
X133011090Y-75913168D01*
X132995438Y-75930438D01*
X132978168Y-75946090D01*
X132959448Y-75959974D01*
X132939457Y-75971956D01*
X132918387Y-75981921D01*
X132896443Y-75989773D01*
X132873834Y-75995437D01*
X132850779Y-75998856D01*
X132827500Y-76000000D01*
X132352500Y-76000000D01*
X132329221Y-75998856D01*
X132306166Y-75995437D01*
X132283557Y-75989773D01*
X132261613Y-75981921D01*
X132240543Y-75971956D01*
X132220552Y-75959974D01*
X132201832Y-75946090D01*
X132184562Y-75930438D01*
X132168910Y-75913168D01*
X132155026Y-75894448D01*
X132143044Y-75874457D01*
X132133079Y-75853387D01*
X132125227Y-75831443D01*
X132119563Y-75808834D01*
X132116144Y-75785779D01*
X132115000Y-75762500D01*
X132115000Y-75187500D01*
X132116144Y-75164221D01*
X132119563Y-75141166D01*
X132125227Y-75118557D01*
X132133079Y-75096613D01*
X132143044Y-75075543D01*
X132155026Y-75055552D01*
X132168910Y-75036832D01*
X132184562Y-75019562D01*
X132201832Y-75003910D01*
X132220552Y-74990026D01*
X132240543Y-74978044D01*
X132261613Y-74968079D01*
X132283557Y-74960227D01*
X132306166Y-74954563D01*
X132329221Y-74951144D01*
X132352500Y-74950000D01*
X132827500Y-74950000D01*
X132850779Y-74951144D01*
X132850779Y-74951144D01*
G37*
D11*
G04 #@! TD*
G04 #@! TO.P,R15,2*
G04 #@! TO.N,GND*
X132590000Y-75475000D03*
D10*
G04 #@! TO.N,/BATT_SENSE*
G04 #@! TO.C,R15*
G36*
X132850779Y-73201144D02*
X132873834Y-73204563D01*
X132896443Y-73210227D01*
X132918387Y-73218079D01*
X132939457Y-73228044D01*
X132959448Y-73240026D01*
X132978168Y-73253910D01*
X132995438Y-73269562D01*
X133011090Y-73286832D01*
X133024974Y-73305552D01*
X133036956Y-73325543D01*
X133046921Y-73346613D01*
X133054773Y-73368557D01*
X133060437Y-73391166D01*
X133063856Y-73414221D01*
X133065000Y-73437500D01*
X133065000Y-74012500D01*
X133063856Y-74035779D01*
X133060437Y-74058834D01*
X133054773Y-74081443D01*
X133046921Y-74103387D01*
X133036956Y-74124457D01*
X133024974Y-74144448D01*
X133011090Y-74163168D01*
X132995438Y-74180438D01*
X132978168Y-74196090D01*
X132959448Y-74209974D01*
X132939457Y-74221956D01*
X132918387Y-74231921D01*
X132896443Y-74239773D01*
X132873834Y-74245437D01*
X132850779Y-74248856D01*
X132827500Y-74250000D01*
X132352500Y-74250000D01*
X132329221Y-74248856D01*
X132306166Y-74245437D01*
X132283557Y-74239773D01*
X132261613Y-74231921D01*
X132240543Y-74221956D01*
X132220552Y-74209974D01*
X132201832Y-74196090D01*
X132184562Y-74180438D01*
X132168910Y-74163168D01*
X132155026Y-74144448D01*
X132143044Y-74124457D01*
X132133079Y-74103387D01*
X132125227Y-74081443D01*
X132119563Y-74058834D01*
X132116144Y-74035779D01*
X132115000Y-74012500D01*
X132115000Y-73437500D01*
X132116144Y-73414221D01*
X132119563Y-73391166D01*
X132125227Y-73368557D01*
X132133079Y-73346613D01*
X132143044Y-73325543D01*
X132155026Y-73305552D01*
X132168910Y-73286832D01*
X132184562Y-73269562D01*
X132201832Y-73253910D01*
X132220552Y-73240026D01*
X132240543Y-73228044D01*
X132261613Y-73218079D01*
X132283557Y-73210227D01*
X132306166Y-73204563D01*
X132329221Y-73201144D01*
X132352500Y-73200000D01*
X132827500Y-73200000D01*
X132850779Y-73201144D01*
X132850779Y-73201144D01*
G37*
D11*
G04 #@! TD*
G04 #@! TO.P,R15,1*
G04 #@! TO.N,/BATT_SENSE*
X132590000Y-73725000D03*
D10*
G04 #@! TO.N,Net-(R13-Pad1)*
G04 #@! TO.C,R16*
G36*
X129539505Y-64251204D02*
X129563773Y-64254804D01*
X129587572Y-64260765D01*
X129610671Y-64269030D01*
X129632850Y-64279520D01*
X129653893Y-64292132D01*
X129673599Y-64306747D01*
X129691777Y-64323223D01*
X129708253Y-64341401D01*
X129722868Y-64361107D01*
X129735480Y-64382150D01*
X129745970Y-64404329D01*
X129754235Y-64427428D01*
X129760196Y-64451227D01*
X129763796Y-64475495D01*
X129765000Y-64499999D01*
X129765000Y-65400001D01*
X129763796Y-65424505D01*
X129760196Y-65448773D01*
X129754235Y-65472572D01*
X129745970Y-65495671D01*
X129735480Y-65517850D01*
X129722868Y-65538893D01*
X129708253Y-65558599D01*
X129691777Y-65576777D01*
X129673599Y-65593253D01*
X129653893Y-65607868D01*
X129632850Y-65620480D01*
X129610671Y-65630970D01*
X129587572Y-65639235D01*
X129563773Y-65645196D01*
X129539505Y-65648796D01*
X129515001Y-65650000D01*
X128864999Y-65650000D01*
X128840495Y-65648796D01*
X128816227Y-65645196D01*
X128792428Y-65639235D01*
X128769329Y-65630970D01*
X128747150Y-65620480D01*
X128726107Y-65607868D01*
X128706401Y-65593253D01*
X128688223Y-65576777D01*
X128671747Y-65558599D01*
X128657132Y-65538893D01*
X128644520Y-65517850D01*
X128634030Y-65495671D01*
X128625765Y-65472572D01*
X128619804Y-65448773D01*
X128616204Y-65424505D01*
X128615000Y-65400001D01*
X128615000Y-64499999D01*
X128616204Y-64475495D01*
X128619804Y-64451227D01*
X128625765Y-64427428D01*
X128634030Y-64404329D01*
X128644520Y-64382150D01*
X128657132Y-64361107D01*
X128671747Y-64341401D01*
X128688223Y-64323223D01*
X128706401Y-64306747D01*
X128726107Y-64292132D01*
X128747150Y-64279520D01*
X128769329Y-64269030D01*
X128792428Y-64260765D01*
X128816227Y-64254804D01*
X128840495Y-64251204D01*
X128864999Y-64250000D01*
X129515001Y-64250000D01*
X129539505Y-64251204D01*
X129539505Y-64251204D01*
G37*
D14*
G04 #@! TD*
G04 #@! TO.P,R16,1*
G04 #@! TO.N,Net-(R13-Pad1)*
X129190000Y-64950000D03*
D10*
G04 #@! TO.N,GND*
G04 #@! TO.C,R16*
G36*
X131589505Y-64251204D02*
X131613773Y-64254804D01*
X131637572Y-64260765D01*
X131660671Y-64269030D01*
X131682850Y-64279520D01*
X131703893Y-64292132D01*
X131723599Y-64306747D01*
X131741777Y-64323223D01*
X131758253Y-64341401D01*
X131772868Y-64361107D01*
X131785480Y-64382150D01*
X131795970Y-64404329D01*
X131804235Y-64427428D01*
X131810196Y-64451227D01*
X131813796Y-64475495D01*
X131815000Y-64499999D01*
X131815000Y-65400001D01*
X131813796Y-65424505D01*
X131810196Y-65448773D01*
X131804235Y-65472572D01*
X131795970Y-65495671D01*
X131785480Y-65517850D01*
X131772868Y-65538893D01*
X131758253Y-65558599D01*
X131741777Y-65576777D01*
X131723599Y-65593253D01*
X131703893Y-65607868D01*
X131682850Y-65620480D01*
X131660671Y-65630970D01*
X131637572Y-65639235D01*
X131613773Y-65645196D01*
X131589505Y-65648796D01*
X131565001Y-65650000D01*
X130914999Y-65650000D01*
X130890495Y-65648796D01*
X130866227Y-65645196D01*
X130842428Y-65639235D01*
X130819329Y-65630970D01*
X130797150Y-65620480D01*
X130776107Y-65607868D01*
X130756401Y-65593253D01*
X130738223Y-65576777D01*
X130721747Y-65558599D01*
X130707132Y-65538893D01*
X130694520Y-65517850D01*
X130684030Y-65495671D01*
X130675765Y-65472572D01*
X130669804Y-65448773D01*
X130666204Y-65424505D01*
X130665000Y-65400001D01*
X130665000Y-64499999D01*
X130666204Y-64475495D01*
X130669804Y-64451227D01*
X130675765Y-64427428D01*
X130684030Y-64404329D01*
X130694520Y-64382150D01*
X130707132Y-64361107D01*
X130721747Y-64341401D01*
X130738223Y-64323223D01*
X130756401Y-64306747D01*
X130776107Y-64292132D01*
X130797150Y-64279520D01*
X130819329Y-64269030D01*
X130842428Y-64260765D01*
X130866227Y-64254804D01*
X130890495Y-64251204D01*
X130914999Y-64250000D01*
X131565001Y-64250000D01*
X131589505Y-64251204D01*
X131589505Y-64251204D01*
G37*
D14*
G04 #@! TD*
G04 #@! TO.P,R16,2*
G04 #@! TO.N,GND*
X131240000Y-64950000D03*
D15*
G04 #@! TO.P,U2,1*
G04 #@! TO.N,+24V*
X147050000Y-70350000D03*
G04 #@! TO.P,U2,2*
G04 #@! TO.N,GND*
X148000000Y-70350000D03*
G04 #@! TO.P,U2,3*
G04 #@! TO.N,+24V*
X148950000Y-70350000D03*
G04 #@! TO.P,U2,4*
G04 #@! TO.N,Net-(U2-Pad4)*
X148950000Y-67650000D03*
G04 #@! TO.P,U2,5*
G04 #@! TO.N,+3V3*
X147050000Y-67650000D03*
G04 #@! TD*
D16*
G04 #@! TO.P,Q1,3*
G04 #@! TO.N,Net-(Q1-Pad3)*
X132140000Y-84950000D03*
G04 #@! TO.P,Q1,2*
G04 #@! TO.N,/OUT*
X130140000Y-85900000D03*
G04 #@! TO.P,Q1,1*
G04 #@! TO.N,Net-(Q1-Pad1)*
X130140000Y-84000000D03*
G04 #@! TD*
G04 #@! TO.P,Q2,1*
G04 #@! TO.N,Net-(Q2-Pad1)*
X130340000Y-81900000D03*
G04 #@! TO.P,Q2,2*
G04 #@! TO.N,GND*
X130340000Y-80000000D03*
G04 #@! TO.P,Q2,3*
G04 #@! TO.N,Net-(Q1-Pad1)*
X128340000Y-80950000D03*
G04 #@! TD*
D10*
G04 #@! TO.N,/OUT*
G04 #@! TO.C,R10*
G36*
X128600779Y-85201144D02*
X128623834Y-85204563D01*
X128646443Y-85210227D01*
X128668387Y-85218079D01*
X128689457Y-85228044D01*
X128709448Y-85240026D01*
X128728168Y-85253910D01*
X128745438Y-85269562D01*
X128761090Y-85286832D01*
X128774974Y-85305552D01*
X128786956Y-85325543D01*
X128796921Y-85346613D01*
X128804773Y-85368557D01*
X128810437Y-85391166D01*
X128813856Y-85414221D01*
X128815000Y-85437500D01*
X128815000Y-86012500D01*
X128813856Y-86035779D01*
X128810437Y-86058834D01*
X128804773Y-86081443D01*
X128796921Y-86103387D01*
X128786956Y-86124457D01*
X128774974Y-86144448D01*
X128761090Y-86163168D01*
X128745438Y-86180438D01*
X128728168Y-86196090D01*
X128709448Y-86209974D01*
X128689457Y-86221956D01*
X128668387Y-86231921D01*
X128646443Y-86239773D01*
X128623834Y-86245437D01*
X128600779Y-86248856D01*
X128577500Y-86250000D01*
X128102500Y-86250000D01*
X128079221Y-86248856D01*
X128056166Y-86245437D01*
X128033557Y-86239773D01*
X128011613Y-86231921D01*
X127990543Y-86221956D01*
X127970552Y-86209974D01*
X127951832Y-86196090D01*
X127934562Y-86180438D01*
X127918910Y-86163168D01*
X127905026Y-86144448D01*
X127893044Y-86124457D01*
X127883079Y-86103387D01*
X127875227Y-86081443D01*
X127869563Y-86058834D01*
X127866144Y-86035779D01*
X127865000Y-86012500D01*
X127865000Y-85437500D01*
X127866144Y-85414221D01*
X127869563Y-85391166D01*
X127875227Y-85368557D01*
X127883079Y-85346613D01*
X127893044Y-85325543D01*
X127905026Y-85305552D01*
X127918910Y-85286832D01*
X127934562Y-85269562D01*
X127951832Y-85253910D01*
X127970552Y-85240026D01*
X127990543Y-85228044D01*
X128011613Y-85218079D01*
X128033557Y-85210227D01*
X128056166Y-85204563D01*
X128079221Y-85201144D01*
X128102500Y-85200000D01*
X128577500Y-85200000D01*
X128600779Y-85201144D01*
X128600779Y-85201144D01*
G37*
D11*
G04 #@! TD*
G04 #@! TO.P,R10,1*
G04 #@! TO.N,/OUT*
X128340000Y-85725000D03*
D10*
G04 #@! TO.N,Net-(Q1-Pad1)*
G04 #@! TO.C,R10*
G36*
X128600779Y-83451144D02*
X128623834Y-83454563D01*
X128646443Y-83460227D01*
X128668387Y-83468079D01*
X128689457Y-83478044D01*
X128709448Y-83490026D01*
X128728168Y-83503910D01*
X128745438Y-83519562D01*
X128761090Y-83536832D01*
X128774974Y-83555552D01*
X128786956Y-83575543D01*
X128796921Y-83596613D01*
X128804773Y-83618557D01*
X128810437Y-83641166D01*
X128813856Y-83664221D01*
X128815000Y-83687500D01*
X128815000Y-84262500D01*
X128813856Y-84285779D01*
X128810437Y-84308834D01*
X128804773Y-84331443D01*
X128796921Y-84353387D01*
X128786956Y-84374457D01*
X128774974Y-84394448D01*
X128761090Y-84413168D01*
X128745438Y-84430438D01*
X128728168Y-84446090D01*
X128709448Y-84459974D01*
X128689457Y-84471956D01*
X128668387Y-84481921D01*
X128646443Y-84489773D01*
X128623834Y-84495437D01*
X128600779Y-84498856D01*
X128577500Y-84500000D01*
X128102500Y-84500000D01*
X128079221Y-84498856D01*
X128056166Y-84495437D01*
X128033557Y-84489773D01*
X128011613Y-84481921D01*
X127990543Y-84471956D01*
X127970552Y-84459974D01*
X127951832Y-84446090D01*
X127934562Y-84430438D01*
X127918910Y-84413168D01*
X127905026Y-84394448D01*
X127893044Y-84374457D01*
X127883079Y-84353387D01*
X127875227Y-84331443D01*
X127869563Y-84308834D01*
X127866144Y-84285779D01*
X127865000Y-84262500D01*
X127865000Y-83687500D01*
X127866144Y-83664221D01*
X127869563Y-83641166D01*
X127875227Y-83618557D01*
X127883079Y-83596613D01*
X127893044Y-83575543D01*
X127905026Y-83555552D01*
X127918910Y-83536832D01*
X127934562Y-83519562D01*
X127951832Y-83503910D01*
X127970552Y-83490026D01*
X127990543Y-83478044D01*
X128011613Y-83468079D01*
X128033557Y-83460227D01*
X128056166Y-83454563D01*
X128079221Y-83451144D01*
X128102500Y-83450000D01*
X128577500Y-83450000D01*
X128600779Y-83451144D01*
X128600779Y-83451144D01*
G37*
D11*
G04 #@! TD*
G04 #@! TO.P,R10,2*
G04 #@! TO.N,Net-(Q1-Pad1)*
X128340000Y-83975000D03*
D17*
G04 #@! TO.P,BT1,2*
G04 #@! TO.N,GND*
X135370000Y-93000000D03*
D18*
G04 #@! TO.P,BT1,1*
G04 #@! TO.N,/OUT*
X130290000Y-93000000D03*
G04 #@! TD*
G04 #@! TO.P,SC1,1*
G04 #@! TO.N,+24V*
X143290000Y-93000000D03*
D17*
G04 #@! TO.P,SC1,2*
G04 #@! TO.N,GND*
X148370000Y-93000000D03*
G04 #@! TD*
D19*
G04 #@! TO.N,GND*
X132490000Y-76850000D03*
X142990000Y-76000000D03*
X140040000Y-76000000D03*
X149590000Y-74000000D03*
X138790000Y-71600000D03*
X144440000Y-63800000D03*
G04 #@! TO.N,+24V*
X136790000Y-79000000D03*
X138790000Y-79000000D03*
X140790000Y-79000000D03*
X142790000Y-79000000D03*
X144790000Y-79000000D03*
X137790000Y-81000000D03*
X139790000Y-81000000D03*
X141790000Y-81000000D03*
X143790000Y-81000000D03*
X136790000Y-83000000D03*
X138790000Y-83000000D03*
X142790000Y-83000000D03*
X144790000Y-83000000D03*
X137790000Y-85000000D03*
X139790000Y-85000000D03*
X141790000Y-85000000D03*
X143790000Y-85000000D03*
X136790000Y-87000000D03*
X138790000Y-87000000D03*
X140790000Y-87000000D03*
X142790000Y-87000000D03*
X144790000Y-87000000D03*
X140790000Y-83000000D03*
G04 #@! TO.N,+3V3*
X133990000Y-70400000D03*
X143408141Y-69726495D03*
G04 #@! TO.N,UART_TX*
X145490000Y-70600000D03*
X145490000Y-67699998D03*
G04 #@! TO.N,Net-(R3-Pad1)*
X140040000Y-65950000D03*
G04 #@! TO.N,/PANEL_SENSE*
X144140000Y-71024990D03*
G04 #@! TO.N,/BATT_SENSE*
X138590000Y-73600000D03*
G04 #@! TO.N,/FR_DIAG*
X129440000Y-71900000D03*
G04 #@! TO.N,CURRENT_SENSE*
X133940000Y-71500000D03*
G04 #@! TO.N,Net-(R13-Pad1)*
X127890000Y-68250000D03*
G04 #@! TO.N,Net-(R12-Pad2)*
X133940000Y-72750000D03*
G04 #@! TO.N,/PA4*
X137140000Y-74600000D03*
G04 #@! TD*
D20*
G04 #@! TO.N,GND*
X130590000Y-75475000D02*
X132590000Y-75475000D01*
X149374072Y-72500928D02*
X148875000Y-73000000D01*
X148000000Y-69320000D02*
X148270000Y-69050000D01*
X149740000Y-69449998D02*
X149740000Y-72135000D01*
X148270000Y-69050000D02*
X149340002Y-69050000D01*
X149340002Y-69050000D02*
X149740000Y-69449998D01*
X149740000Y-72135000D02*
X149374072Y-72500928D01*
X148875000Y-73000000D02*
X148875000Y-75000000D01*
X148000000Y-69320000D02*
X148000000Y-70350000D01*
X135790000Y-72075000D02*
X137590000Y-72075000D01*
X138315000Y-72075000D02*
X138790000Y-71600000D01*
X137590000Y-72075000D02*
X138315000Y-72075000D01*
X139990000Y-72075000D02*
X141790000Y-72075000D01*
X139965000Y-72100000D02*
X139990000Y-72075000D01*
X139090000Y-72100000D02*
X139965000Y-72100000D01*
X138790000Y-71600000D02*
X138790000Y-71800000D01*
X138790000Y-71800000D02*
X139090000Y-72100000D01*
G04 #@! TO.N,+24V*
X147125000Y-75000000D02*
X147125000Y-73000000D01*
X147125000Y-70425000D02*
X147050000Y-70350000D01*
X147125000Y-73000000D02*
X147125000Y-70425000D01*
X148950000Y-71380000D02*
X148950000Y-70350000D01*
X148380000Y-71950000D02*
X148950000Y-71380000D01*
X147125000Y-73000000D02*
X147125000Y-71950000D01*
X147125000Y-71950000D02*
X148380000Y-71950000D01*
X146215000Y-73000000D02*
X145290000Y-73925000D01*
X147125000Y-73000000D02*
X146215000Y-73000000D01*
X147125000Y-76665000D02*
X144790000Y-79000000D01*
X147125000Y-75000000D02*
X147125000Y-76665000D01*
X141015000Y-93000000D02*
X140065000Y-92050000D01*
X143290000Y-93000000D02*
X141015000Y-93000000D01*
X140065000Y-92050000D02*
X140065000Y-89550000D01*
X140065000Y-88275000D02*
X138790000Y-87000000D01*
X140065000Y-89550000D02*
X140065000Y-88275000D01*
D21*
G04 #@! TO.N,+3V3*
X147125000Y-67575000D02*
X147050000Y-67650000D01*
X138790000Y-69125000D02*
X137590000Y-70325000D01*
X137590000Y-70325000D02*
X135790000Y-70325000D01*
X135790000Y-70325000D02*
X134065000Y-70325000D01*
X134065000Y-70325000D02*
X133990000Y-70400000D01*
X138790000Y-69125000D02*
X139990000Y-70325000D01*
X139990000Y-70325000D02*
X141790000Y-70325000D01*
X133040000Y-69450000D02*
X133990000Y-70400000D01*
X133040000Y-61500000D02*
X133040000Y-69450000D01*
X147115000Y-67585000D02*
X147050000Y-67650000D01*
X147115000Y-65600000D02*
X147115000Y-67585000D01*
X143408141Y-69781859D02*
X143408141Y-69726495D01*
X142890000Y-70300000D02*
X143408141Y-69781859D01*
X141790000Y-70325000D02*
X141815000Y-70300000D01*
X141815000Y-70300000D02*
X142890000Y-70300000D01*
X143280000Y-68610000D02*
X146290000Y-65600000D01*
X146290000Y-65600000D02*
X147115000Y-65600000D01*
X139305000Y-68610000D02*
X143280000Y-68610000D01*
X138790000Y-69125000D02*
X139305000Y-68610000D01*
D20*
G04 #@! TO.N,UART_TX*
X145490000Y-70600000D02*
X145490000Y-67699998D01*
G04 #@! TO.N,Net-(R3-Pad1)*
X141715000Y-65400000D02*
X140590000Y-65400000D01*
X140590000Y-65400000D02*
X140040000Y-65950000D01*
G04 #@! TO.N,/PANEL_SENSE*
X145290000Y-72175000D02*
X143540000Y-72175000D01*
X144140000Y-71025000D02*
X144140000Y-71024990D01*
X145290000Y-72175000D02*
X144140000Y-71025000D01*
G04 #@! TO.N,/BATT_SENSE*
X138465000Y-73725000D02*
X138590000Y-73600000D01*
X128790000Y-73725000D02*
X138465000Y-73725000D01*
G04 #@! TO.N,/FR_DIAG*
X129440000Y-70200000D02*
X129540000Y-70100000D01*
X129440000Y-71900000D02*
X129440000Y-70200000D01*
G04 #@! TO.N,CURRENT_SENSE*
X132140010Y-69700010D02*
X133940000Y-71500000D01*
X131290000Y-68050000D02*
X132140010Y-68900010D01*
X132140010Y-68900010D02*
X132140010Y-69700010D01*
G04 #@! TO.N,Net-(R13-Pad1)*
X129340000Y-68250000D02*
X129540000Y-68050000D01*
X127890000Y-68250000D02*
X129340000Y-68250000D01*
X129540000Y-65300000D02*
X129190000Y-64950000D01*
X129540000Y-68050000D02*
X129540000Y-65300000D01*
G04 #@! TO.N,Net-(R12-Pad2)*
X131290000Y-70100000D02*
X133940000Y-72750000D01*
G04 #@! TO.N,/OUT*
X129965000Y-85725000D02*
X130140000Y-85900000D01*
X128340000Y-85725000D02*
X129965000Y-85725000D01*
X130140000Y-92850000D02*
X130290000Y-93000000D01*
X130140000Y-85900000D02*
X130140000Y-92850000D01*
G04 #@! TO.N,Net-(Q1-Pad3)*
X128790000Y-76100000D02*
X128790000Y-75475000D01*
X132140000Y-84300000D02*
X130840000Y-83000000D01*
X132140000Y-84950000D02*
X132140000Y-84300000D01*
X130840000Y-83000000D02*
X130004998Y-83000000D01*
X130004998Y-83000000D02*
X129376956Y-82371958D01*
X129376956Y-82371958D02*
X129376956Y-76686956D01*
X129376956Y-76686956D02*
X128790000Y-76100000D01*
G04 #@! TO.N,Net-(Q1-Pad1)*
X128340000Y-80950000D02*
X128340000Y-83975000D01*
X130115000Y-83975000D02*
X130140000Y-84000000D01*
X128340000Y-83975000D02*
X130115000Y-83975000D01*
G04 #@! TO.N,Net-(Q2-Pad1)*
X132115000Y-81900000D02*
X132140000Y-81875000D01*
X130340000Y-81900000D02*
X132115000Y-81900000D01*
G04 #@! TO.N,/PA4*
X132140000Y-80125000D02*
X132140000Y-78250000D01*
X132140000Y-78250000D02*
X135790000Y-74600000D01*
X135790000Y-74600000D02*
X137140000Y-74600000D01*
G04 #@! TD*
D22*
G04 #@! TO.N,GND*
G36*
X148450809Y-59780776D02*
X149084631Y-59979404D01*
X149665562Y-60301418D01*
X150169879Y-60733670D01*
X150576981Y-61258503D01*
X150870234Y-61854473D01*
X151039868Y-62505707D01*
X151080000Y-63027269D01*
X151080001Y-94819847D01*
X151070532Y-94849696D01*
X151058763Y-94925723D01*
X150984609Y-95655759D01*
X150787499Y-96284734D01*
X150467945Y-96861224D01*
X150039002Y-97361680D01*
X149518182Y-97765669D01*
X148926767Y-98056682D01*
X148280153Y-98225112D01*
X147733612Y-98267166D01*
X147606704Y-98290000D01*
X130970150Y-98290000D01*
X130940304Y-98280532D01*
X130864277Y-98268763D01*
X130134241Y-98194609D01*
X129505266Y-97997499D01*
X128928776Y-97677945D01*
X128428320Y-97249002D01*
X128024331Y-96728182D01*
X127733318Y-96136767D01*
X127564888Y-95490153D01*
X127522834Y-94943612D01*
X127500000Y-94816704D01*
X127500000Y-86653780D01*
X127763848Y-86830078D01*
X128102500Y-86897440D01*
X128577500Y-86897440D01*
X128916152Y-86830078D01*
X129168026Y-86661781D01*
X129232191Y-86757809D01*
X129380000Y-86856573D01*
X129380001Y-90852560D01*
X128790000Y-90852560D01*
X128542235Y-90901843D01*
X128332191Y-91042191D01*
X128191843Y-91252235D01*
X128142560Y-91500000D01*
X128142560Y-94500000D01*
X128191843Y-94747765D01*
X128332191Y-94957809D01*
X128542235Y-95098157D01*
X128790000Y-95147440D01*
X131790000Y-95147440D01*
X132037765Y-95098157D01*
X132247809Y-94957809D01*
X132388157Y-94747765D01*
X132434661Y-94513970D01*
X134035635Y-94513970D01*
X134195418Y-94832739D01*
X134986187Y-95142723D01*
X135835387Y-95126497D01*
X136544582Y-94832739D01*
X136704365Y-94513970D01*
X135370000Y-93179605D01*
X134035635Y-94513970D01*
X132434661Y-94513970D01*
X132437440Y-94500000D01*
X132437440Y-92616187D01*
X133227277Y-92616187D01*
X133243503Y-93465387D01*
X133537261Y-94174582D01*
X133856030Y-94334365D01*
X135190395Y-93000000D01*
X135549605Y-93000000D01*
X136883970Y-94334365D01*
X137202739Y-94174582D01*
X137512723Y-93383813D01*
X137511060Y-93296778D01*
X137663691Y-93360000D01*
X138029250Y-93360000D01*
X138188000Y-93201250D01*
X138188000Y-92377000D01*
X138168000Y-92377000D01*
X138168000Y-92123000D01*
X138188000Y-92123000D01*
X138188000Y-91298750D01*
X138029250Y-91140000D01*
X137663691Y-91140000D01*
X137430302Y-91236673D01*
X137251673Y-91415301D01*
X137155000Y-91648690D01*
X137155000Y-91801489D01*
X136883970Y-91665635D01*
X135549605Y-93000000D01*
X135190395Y-93000000D01*
X133856030Y-91665635D01*
X133537261Y-91825418D01*
X133227277Y-92616187D01*
X132437440Y-92616187D01*
X132437440Y-91500000D01*
X132434662Y-91486030D01*
X134035635Y-91486030D01*
X135370000Y-92820395D01*
X136704365Y-91486030D01*
X136544582Y-91167261D01*
X135753813Y-90857277D01*
X134904613Y-90873503D01*
X134195418Y-91167261D01*
X134035635Y-91486030D01*
X132434662Y-91486030D01*
X132388157Y-91252235D01*
X132247809Y-91042191D01*
X132037765Y-90901843D01*
X131790000Y-90852560D01*
X130900000Y-90852560D01*
X130900000Y-89935750D01*
X137105000Y-89935750D01*
X137105000Y-90251310D01*
X137201673Y-90484699D01*
X137380302Y-90663327D01*
X137613691Y-90760000D01*
X137979250Y-90760000D01*
X138138000Y-90601250D01*
X138138000Y-89777000D01*
X137263750Y-89777000D01*
X137105000Y-89935750D01*
X130900000Y-89935750D01*
X130900000Y-86856573D01*
X131047809Y-86757809D01*
X131188157Y-86547765D01*
X131237440Y-86300000D01*
X131237440Y-85811316D01*
X131442235Y-85948157D01*
X131690000Y-85997440D01*
X132590000Y-85997440D01*
X132837765Y-85948157D01*
X133047809Y-85807809D01*
X133188157Y-85597765D01*
X133237440Y-85350000D01*
X133237440Y-84550000D01*
X133188157Y-84302235D01*
X133047809Y-84092191D01*
X132837765Y-83951843D01*
X132818906Y-83948092D01*
X132687929Y-83752071D01*
X132624473Y-83709671D01*
X131962241Y-83047440D01*
X132377500Y-83047440D01*
X132716152Y-82980078D01*
X133003247Y-82788247D01*
X133195078Y-82501152D01*
X133262440Y-82162500D01*
X133262440Y-81587500D01*
X133195078Y-81248848D01*
X133028803Y-81000000D01*
X133195078Y-80751152D01*
X133262440Y-80412500D01*
X133262440Y-79837500D01*
X133195078Y-79498848D01*
X133003247Y-79211753D01*
X132900000Y-79142765D01*
X132900000Y-78564801D01*
X136104802Y-75360000D01*
X136436289Y-75360000D01*
X136553720Y-75477431D01*
X136934126Y-75635000D01*
X137345874Y-75635000D01*
X137726280Y-75477431D01*
X138017431Y-75186280D01*
X138175000Y-74805874D01*
X138175000Y-74548377D01*
X138384126Y-74635000D01*
X138795874Y-74635000D01*
X139176280Y-74477431D01*
X139442961Y-74210750D01*
X142430000Y-74210750D01*
X142430000Y-74576309D01*
X142526673Y-74809698D01*
X142705301Y-74988327D01*
X142938690Y-75085000D01*
X143254250Y-75085000D01*
X143413000Y-74926250D01*
X143413000Y-74052000D01*
X142588750Y-74052000D01*
X142430000Y-74210750D01*
X139442961Y-74210750D01*
X139467431Y-74186280D01*
X139625000Y-73805874D01*
X139625000Y-73394126D01*
X139559088Y-73235000D01*
X139704250Y-73235000D01*
X139863000Y-73076250D01*
X139863000Y-72202000D01*
X140117000Y-72202000D01*
X140117000Y-73076250D01*
X140275750Y-73235000D01*
X140591310Y-73235000D01*
X140824699Y-73138327D01*
X140890000Y-73073026D01*
X140955301Y-73138327D01*
X141188690Y-73235000D01*
X141504250Y-73235000D01*
X141663000Y-73076250D01*
X141663000Y-72202000D01*
X140117000Y-72202000D01*
X139863000Y-72202000D01*
X139038750Y-72202000D01*
X138880000Y-72360750D01*
X138880000Y-72599846D01*
X138795874Y-72565000D01*
X138700000Y-72565000D01*
X138700000Y-72360750D01*
X138541250Y-72202000D01*
X137717000Y-72202000D01*
X137717000Y-72222000D01*
X137463000Y-72222000D01*
X137463000Y-72202000D01*
X135917000Y-72202000D01*
X135917000Y-72222000D01*
X135663000Y-72222000D01*
X135663000Y-72202000D01*
X135643000Y-72202000D01*
X135643000Y-71948000D01*
X135663000Y-71948000D01*
X135663000Y-71928000D01*
X135917000Y-71928000D01*
X135917000Y-71948000D01*
X137463000Y-71948000D01*
X137463000Y-71928000D01*
X137717000Y-71928000D01*
X137717000Y-71948000D01*
X138541250Y-71948000D01*
X138700000Y-71789250D01*
X138700000Y-71423691D01*
X138603327Y-71190302D01*
X138532565Y-71119540D01*
X138645078Y-70951152D01*
X138712440Y-70612500D01*
X138712440Y-70348072D01*
X138790000Y-70270513D01*
X138867560Y-70348073D01*
X138867560Y-70612500D01*
X138934922Y-70951152D01*
X139047435Y-71119540D01*
X138976673Y-71190302D01*
X138880000Y-71423691D01*
X138880000Y-71789250D01*
X139038750Y-71948000D01*
X139863000Y-71948000D01*
X139863000Y-71928000D01*
X140117000Y-71928000D01*
X140117000Y-71948000D01*
X141663000Y-71948000D01*
X141663000Y-71928000D01*
X141917000Y-71928000D01*
X141917000Y-71948000D01*
X141937000Y-71948000D01*
X141937000Y-72202000D01*
X141917000Y-72202000D01*
X141917000Y-73076250D01*
X142075750Y-73235000D01*
X142391310Y-73235000D01*
X142457359Y-73207642D01*
X142430000Y-73273691D01*
X142430000Y-73639250D01*
X142588750Y-73798000D01*
X143413000Y-73798000D01*
X143413000Y-73778000D01*
X143667000Y-73778000D01*
X143667000Y-73798000D01*
X143687000Y-73798000D01*
X143687000Y-74052000D01*
X143667000Y-74052000D01*
X143667000Y-74926250D01*
X143825750Y-75085000D01*
X144141310Y-75085000D01*
X144374699Y-74988327D01*
X144485515Y-74877510D01*
X144713848Y-75030078D01*
X145052500Y-75097440D01*
X145527500Y-75097440D01*
X145866152Y-75030078D01*
X145952560Y-74972342D01*
X145952560Y-75237500D01*
X146019922Y-75576152D01*
X146211753Y-75863247D01*
X146365001Y-75965644D01*
X146365001Y-76350197D01*
X145750198Y-76965000D01*
X135790000Y-76965000D01*
X135546994Y-77013337D01*
X135405573Y-77071916D01*
X135199568Y-77209565D01*
X135061916Y-77415573D01*
X135003337Y-77556994D01*
X134955000Y-77800000D01*
X134955000Y-88400000D01*
X135003337Y-88643006D01*
X135061916Y-88784427D01*
X135199565Y-88990432D01*
X135405573Y-89128084D01*
X135546994Y-89186663D01*
X135790000Y-89235000D01*
X137105000Y-89235000D01*
X137105000Y-89364250D01*
X137263750Y-89523000D01*
X138138000Y-89523000D01*
X138138000Y-89503000D01*
X138392000Y-89503000D01*
X138392000Y-89523000D01*
X138412000Y-89523000D01*
X138412000Y-89777000D01*
X138392000Y-89777000D01*
X138392000Y-90601250D01*
X138550750Y-90760000D01*
X138916309Y-90760000D01*
X139149698Y-90663327D01*
X139220460Y-90592565D01*
X139305001Y-90649053D01*
X139305000Y-91284356D01*
X139270460Y-91307435D01*
X139199698Y-91236673D01*
X138966309Y-91140000D01*
X138600750Y-91140000D01*
X138442000Y-91298750D01*
X138442000Y-92123000D01*
X138462000Y-92123000D01*
X138462000Y-92377000D01*
X138442000Y-92377000D01*
X138442000Y-93201250D01*
X138600750Y-93360000D01*
X138966309Y-93360000D01*
X139199698Y-93263327D01*
X139270460Y-93192565D01*
X139438848Y-93305078D01*
X139777500Y-93372440D01*
X140312638Y-93372440D01*
X140424671Y-93484473D01*
X140467071Y-93547929D01*
X140718463Y-93715904D01*
X140940148Y-93760000D01*
X140940153Y-93760000D01*
X141015000Y-93774888D01*
X141089847Y-93760000D01*
X141142560Y-93760000D01*
X141142560Y-94500000D01*
X141191843Y-94747765D01*
X141332191Y-94957809D01*
X141542235Y-95098157D01*
X141790000Y-95147440D01*
X144790000Y-95147440D01*
X145037765Y-95098157D01*
X145247809Y-94957809D01*
X145388157Y-94747765D01*
X145434661Y-94513970D01*
X147035635Y-94513970D01*
X147195418Y-94832739D01*
X147986187Y-95142723D01*
X148835387Y-95126497D01*
X149544582Y-94832739D01*
X149704365Y-94513970D01*
X148370000Y-93179605D01*
X147035635Y-94513970D01*
X145434661Y-94513970D01*
X145437440Y-94500000D01*
X145437440Y-92616187D01*
X146227277Y-92616187D01*
X146243503Y-93465387D01*
X146537261Y-94174582D01*
X146856030Y-94334365D01*
X148190395Y-93000000D01*
X148549605Y-93000000D01*
X149883970Y-94334365D01*
X150202739Y-94174582D01*
X150512723Y-93383813D01*
X150496497Y-92534613D01*
X150202739Y-91825418D01*
X149883970Y-91665635D01*
X148549605Y-93000000D01*
X148190395Y-93000000D01*
X146856030Y-91665635D01*
X146537261Y-91825418D01*
X146227277Y-92616187D01*
X145437440Y-92616187D01*
X145437440Y-91500000D01*
X145434662Y-91486030D01*
X147035635Y-91486030D01*
X148370000Y-92820395D01*
X149704365Y-91486030D01*
X149544582Y-91167261D01*
X148753813Y-90857277D01*
X147904613Y-90873503D01*
X147195418Y-91167261D01*
X147035635Y-91486030D01*
X145434662Y-91486030D01*
X145388157Y-91252235D01*
X145247809Y-91042191D01*
X145037765Y-90901843D01*
X144790000Y-90852560D01*
X141790000Y-90852560D01*
X141542235Y-90901843D01*
X141332191Y-91042191D01*
X141191843Y-91252235D01*
X141142560Y-91500000D01*
X141142560Y-91632664D01*
X140978247Y-91386753D01*
X140825000Y-91284356D01*
X140825000Y-90582235D01*
X140928247Y-90513247D01*
X141120078Y-90226152D01*
X141187440Y-89887500D01*
X141187440Y-89412500D01*
X141152133Y-89235000D01*
X149590000Y-89235000D01*
X149833006Y-89186663D01*
X149974427Y-89128084D01*
X150180432Y-88990435D01*
X150318084Y-88784427D01*
X150376663Y-88643006D01*
X150425000Y-88400000D01*
X150425000Y-77800000D01*
X150376663Y-77556994D01*
X150318084Y-77415573D01*
X150180435Y-77209568D01*
X149974427Y-77071916D01*
X149833006Y-77013337D01*
X149590000Y-76965000D01*
X147838591Y-76965000D01*
X147840904Y-76961538D01*
X147869872Y-76815904D01*
X147885000Y-76739852D01*
X147885000Y-76739848D01*
X147899888Y-76665000D01*
X147885000Y-76590152D01*
X147885000Y-75965644D01*
X147919540Y-75942565D01*
X147990302Y-76013327D01*
X148223691Y-76110000D01*
X148589250Y-76110000D01*
X148748000Y-75951250D01*
X148748000Y-75127000D01*
X149002000Y-75127000D01*
X149002000Y-75951250D01*
X149160750Y-76110000D01*
X149526309Y-76110000D01*
X149759698Y-76013327D01*
X149938327Y-75834699D01*
X150035000Y-75601310D01*
X150035000Y-75285750D01*
X149876250Y-75127000D01*
X149002000Y-75127000D01*
X148748000Y-75127000D01*
X148728000Y-75127000D01*
X148728000Y-74873000D01*
X148748000Y-74873000D01*
X148748000Y-74048750D01*
X148699250Y-74000000D01*
X148748000Y-73951250D01*
X148748000Y-73127000D01*
X149002000Y-73127000D01*
X149002000Y-73951250D01*
X149050750Y-74000000D01*
X149002000Y-74048750D01*
X149002000Y-74873000D01*
X149876250Y-74873000D01*
X150035000Y-74714250D01*
X150035000Y-74398690D01*
X149938327Y-74165301D01*
X149773025Y-74000000D01*
X149938327Y-73834699D01*
X150035000Y-73601310D01*
X150035000Y-73285750D01*
X149876250Y-73127000D01*
X149002000Y-73127000D01*
X148748000Y-73127000D01*
X148728000Y-73127000D01*
X148728000Y-72873000D01*
X148748000Y-72873000D01*
X148748000Y-72853000D01*
X149002000Y-72853000D01*
X149002000Y-72873000D01*
X149876250Y-72873000D01*
X150035000Y-72714250D01*
X150035000Y-72398690D01*
X149938327Y-72165301D01*
X149759698Y-71986673D01*
X149526309Y-71890000D01*
X149523272Y-71890000D01*
X149583483Y-71799889D01*
X149665904Y-71676538D01*
X149676003Y-71625766D01*
X149732809Y-71587809D01*
X149873157Y-71377765D01*
X149922440Y-71130000D01*
X149922440Y-69570000D01*
X149873157Y-69322235D01*
X149732809Y-69112191D01*
X149564905Y-69000000D01*
X149732809Y-68887809D01*
X149873157Y-68677765D01*
X149922440Y-68430000D01*
X149922440Y-66870000D01*
X149873157Y-66622235D01*
X149820138Y-66542887D01*
X149928327Y-66434699D01*
X150025000Y-66201310D01*
X150025000Y-65885750D01*
X149866250Y-65727000D01*
X148992000Y-65727000D01*
X148992000Y-65747000D01*
X148738000Y-65747000D01*
X148738000Y-65727000D01*
X148718000Y-65727000D01*
X148718000Y-65473000D01*
X148738000Y-65473000D01*
X148738000Y-64648750D01*
X148992000Y-64648750D01*
X148992000Y-65473000D01*
X149866250Y-65473000D01*
X150025000Y-65314250D01*
X150025000Y-64998690D01*
X149928327Y-64765301D01*
X149749698Y-64586673D01*
X149516309Y-64490000D01*
X149150750Y-64490000D01*
X148992000Y-64648750D01*
X148738000Y-64648750D01*
X148579250Y-64490000D01*
X148213691Y-64490000D01*
X147980302Y-64586673D01*
X147909540Y-64657435D01*
X147741152Y-64544922D01*
X147402500Y-64477560D01*
X146827500Y-64477560D01*
X146488848Y-64544922D01*
X146201753Y-64736753D01*
X146159422Y-64800105D01*
X145973954Y-64836997D01*
X145706023Y-65016023D01*
X145660834Y-65083653D01*
X144541436Y-66203052D01*
X144625000Y-66001310D01*
X144625000Y-65685750D01*
X144466250Y-65527000D01*
X143592000Y-65527000D01*
X143592000Y-66351250D01*
X143750750Y-66510000D01*
X144116309Y-66510000D01*
X144318052Y-66426435D01*
X142944488Y-67800000D01*
X139384773Y-67800000D01*
X139305000Y-67784132D01*
X139225227Y-67800000D01*
X139225226Y-67800000D01*
X138988954Y-67846997D01*
X138721023Y-68026023D01*
X138675832Y-68093656D01*
X138273655Y-68495833D01*
X138273652Y-68495835D01*
X138273648Y-68495839D01*
X138206024Y-68541024D01*
X138160838Y-68608649D01*
X137616928Y-69152560D01*
X137352500Y-69152560D01*
X137013848Y-69219922D01*
X136726753Y-69411753D01*
X136690000Y-69466758D01*
X136653247Y-69411753D01*
X136366152Y-69219922D01*
X136027500Y-69152560D01*
X135552500Y-69152560D01*
X135213848Y-69219922D01*
X134926753Y-69411753D01*
X134857765Y-69515000D01*
X134558007Y-69515000D01*
X134195874Y-69365000D01*
X134100513Y-69365000D01*
X133850000Y-69114488D01*
X133850000Y-65744126D01*
X139005000Y-65744126D01*
X139005000Y-66155874D01*
X139162569Y-66536280D01*
X139453720Y-66827431D01*
X139834126Y-66985000D01*
X140245874Y-66985000D01*
X140626280Y-66827431D01*
X140917431Y-66536280D01*
X140980933Y-66382972D01*
X141088848Y-66455078D01*
X141427500Y-66522440D01*
X142002500Y-66522440D01*
X142341152Y-66455078D01*
X142509540Y-66342565D01*
X142580302Y-66413327D01*
X142813691Y-66510000D01*
X143179250Y-66510000D01*
X143338000Y-66351250D01*
X143338000Y-65527000D01*
X143318000Y-65527000D01*
X143318000Y-65273000D01*
X143338000Y-65273000D01*
X143338000Y-64448750D01*
X143592000Y-64448750D01*
X143592000Y-65273000D01*
X144466250Y-65273000D01*
X144625000Y-65114250D01*
X144625000Y-64798690D01*
X144528327Y-64565301D01*
X144349698Y-64386673D01*
X144116309Y-64290000D01*
X143750750Y-64290000D01*
X143592000Y-64448750D01*
X143338000Y-64448750D01*
X143179250Y-64290000D01*
X142813691Y-64290000D01*
X142580302Y-64386673D01*
X142509540Y-64457435D01*
X142341152Y-64344922D01*
X142002500Y-64277560D01*
X141427500Y-64277560D01*
X141088848Y-64344922D01*
X140801753Y-64536753D01*
X140732765Y-64640000D01*
X140664846Y-64640000D01*
X140589999Y-64625112D01*
X140515152Y-64640000D01*
X140515148Y-64640000D01*
X140293463Y-64684096D01*
X140293461Y-64684097D01*
X140293462Y-64684097D01*
X140105526Y-64809671D01*
X140105524Y-64809673D01*
X140042071Y-64852071D01*
X140000023Y-64915000D01*
X139834126Y-64915000D01*
X139453720Y-65072569D01*
X139162569Y-65363720D01*
X139005000Y-65744126D01*
X133850000Y-65744126D01*
X133850000Y-62997440D01*
X133890000Y-62997440D01*
X134137765Y-62948157D01*
X134347809Y-62807809D01*
X134488157Y-62597765D01*
X134497184Y-62552381D01*
X134509375Y-62570625D01*
X135000582Y-62898839D01*
X135433744Y-62985000D01*
X135726256Y-62985000D01*
X136159418Y-62898839D01*
X136650625Y-62570625D01*
X136863843Y-62251522D01*
X136924817Y-62381358D01*
X137353076Y-62771645D01*
X137763110Y-62941476D01*
X137993000Y-62820155D01*
X137993000Y-61627000D01*
X137973000Y-61627000D01*
X137973000Y-61373000D01*
X137993000Y-61373000D01*
X137993000Y-60179845D01*
X138247000Y-60179845D01*
X138247000Y-61373000D01*
X138267000Y-61373000D01*
X138267000Y-61627000D01*
X138247000Y-61627000D01*
X138247000Y-62820155D01*
X138476890Y-62941476D01*
X138886924Y-62771645D01*
X139315183Y-62381358D01*
X139376157Y-62251522D01*
X139589375Y-62570625D01*
X140080582Y-62898839D01*
X140513744Y-62985000D01*
X140806256Y-62985000D01*
X141239418Y-62898839D01*
X141730625Y-62570625D01*
X141930000Y-62272239D01*
X142129375Y-62570625D01*
X142620582Y-62898839D01*
X143053744Y-62985000D01*
X143346256Y-62985000D01*
X143779418Y-62898839D01*
X144270625Y-62570625D01*
X144470000Y-62272239D01*
X144669375Y-62570625D01*
X145160582Y-62898839D01*
X145593744Y-62985000D01*
X145886256Y-62985000D01*
X146319418Y-62898839D01*
X146810625Y-62570625D01*
X147138839Y-62079418D01*
X147254092Y-61500000D01*
X147138839Y-60920582D01*
X146810625Y-60429375D01*
X146319418Y-60101161D01*
X145886256Y-60015000D01*
X145593744Y-60015000D01*
X145160582Y-60101161D01*
X144669375Y-60429375D01*
X144470000Y-60727761D01*
X144270625Y-60429375D01*
X143779418Y-60101161D01*
X143346256Y-60015000D01*
X143053744Y-60015000D01*
X142620582Y-60101161D01*
X142129375Y-60429375D01*
X141930000Y-60727761D01*
X141730625Y-60429375D01*
X141239418Y-60101161D01*
X140806256Y-60015000D01*
X140513744Y-60015000D01*
X140080582Y-60101161D01*
X139589375Y-60429375D01*
X139376157Y-60748478D01*
X139315183Y-60618642D01*
X138886924Y-60228355D01*
X138476890Y-60058524D01*
X138247000Y-60179845D01*
X137993000Y-60179845D01*
X137763110Y-60058524D01*
X137353076Y-60228355D01*
X136924817Y-60618642D01*
X136863843Y-60748478D01*
X136650625Y-60429375D01*
X136159418Y-60101161D01*
X135726256Y-60015000D01*
X135433744Y-60015000D01*
X135000582Y-60101161D01*
X134509375Y-60429375D01*
X134497184Y-60447619D01*
X134488157Y-60402235D01*
X134347809Y-60192191D01*
X134137765Y-60051843D01*
X133890000Y-60002560D01*
X132190000Y-60002560D01*
X131942235Y-60051843D01*
X131732191Y-60192191D01*
X131591843Y-60402235D01*
X131542560Y-60650000D01*
X131542560Y-62350000D01*
X131591843Y-62597765D01*
X131732191Y-62807809D01*
X131942235Y-62948157D01*
X132190000Y-62997440D01*
X132230000Y-62997440D01*
X132230000Y-63766975D01*
X132174698Y-63711673D01*
X131941309Y-63615000D01*
X131525750Y-63615000D01*
X131367000Y-63773750D01*
X131367000Y-64823000D01*
X131387000Y-64823000D01*
X131387000Y-65077000D01*
X131367000Y-65077000D01*
X131367000Y-66126250D01*
X131525750Y-66285000D01*
X131941309Y-66285000D01*
X132174698Y-66188327D01*
X132230001Y-66133025D01*
X132230001Y-67226793D01*
X132203247Y-67186753D01*
X131916152Y-66994922D01*
X131577500Y-66927560D01*
X131002500Y-66927560D01*
X130663848Y-66994922D01*
X130415000Y-67161197D01*
X130300000Y-67084356D01*
X130300000Y-66183025D01*
X130305302Y-66188327D01*
X130538691Y-66285000D01*
X130954250Y-66285000D01*
X131113000Y-66126250D01*
X131113000Y-65077000D01*
X131093000Y-65077000D01*
X131093000Y-64823000D01*
X131113000Y-64823000D01*
X131113000Y-63773750D01*
X130954250Y-63615000D01*
X130538691Y-63615000D01*
X130305302Y-63711673D01*
X130150377Y-63866597D01*
X130149586Y-63865414D01*
X129858436Y-63670873D01*
X129515001Y-63602560D01*
X128864999Y-63602560D01*
X128521564Y-63670873D01*
X128230414Y-63865414D01*
X128035873Y-64156564D01*
X127967560Y-64499999D01*
X127967560Y-65400001D01*
X128035873Y-65743436D01*
X128230414Y-66034586D01*
X128521564Y-66229127D01*
X128780001Y-66280533D01*
X128780000Y-67084356D01*
X128626753Y-67186753D01*
X128492054Y-67388343D01*
X128476280Y-67372569D01*
X128095874Y-67215000D01*
X127684126Y-67215000D01*
X127500000Y-67291267D01*
X127500000Y-63035964D01*
X127570776Y-62339191D01*
X127769404Y-61705369D01*
X128091418Y-61124438D01*
X128523670Y-60620121D01*
X129048503Y-60213019D01*
X129644473Y-59919766D01*
X130295707Y-59750132D01*
X130817269Y-59710000D01*
X147754036Y-59710000D01*
X148450809Y-59780776D01*
X148450809Y-59780776D01*
G37*
X148450809Y-59780776D02*
X149084631Y-59979404D01*
X149665562Y-60301418D01*
X150169879Y-60733670D01*
X150576981Y-61258503D01*
X150870234Y-61854473D01*
X151039868Y-62505707D01*
X151080000Y-63027269D01*
X151080001Y-94819847D01*
X151070532Y-94849696D01*
X151058763Y-94925723D01*
X150984609Y-95655759D01*
X150787499Y-96284734D01*
X150467945Y-96861224D01*
X150039002Y-97361680D01*
X149518182Y-97765669D01*
X148926767Y-98056682D01*
X148280153Y-98225112D01*
X147733612Y-98267166D01*
X147606704Y-98290000D01*
X130970150Y-98290000D01*
X130940304Y-98280532D01*
X130864277Y-98268763D01*
X130134241Y-98194609D01*
X129505266Y-97997499D01*
X128928776Y-97677945D01*
X128428320Y-97249002D01*
X128024331Y-96728182D01*
X127733318Y-96136767D01*
X127564888Y-95490153D01*
X127522834Y-94943612D01*
X127500000Y-94816704D01*
X127500000Y-86653780D01*
X127763848Y-86830078D01*
X128102500Y-86897440D01*
X128577500Y-86897440D01*
X128916152Y-86830078D01*
X129168026Y-86661781D01*
X129232191Y-86757809D01*
X129380000Y-86856573D01*
X129380001Y-90852560D01*
X128790000Y-90852560D01*
X128542235Y-90901843D01*
X128332191Y-91042191D01*
X128191843Y-91252235D01*
X128142560Y-91500000D01*
X128142560Y-94500000D01*
X128191843Y-94747765D01*
X128332191Y-94957809D01*
X128542235Y-95098157D01*
X128790000Y-95147440D01*
X131790000Y-95147440D01*
X132037765Y-95098157D01*
X132247809Y-94957809D01*
X132388157Y-94747765D01*
X132434661Y-94513970D01*
X134035635Y-94513970D01*
X134195418Y-94832739D01*
X134986187Y-95142723D01*
X135835387Y-95126497D01*
X136544582Y-94832739D01*
X136704365Y-94513970D01*
X135370000Y-93179605D01*
X134035635Y-94513970D01*
X132434661Y-94513970D01*
X132437440Y-94500000D01*
X132437440Y-92616187D01*
X133227277Y-92616187D01*
X133243503Y-93465387D01*
X133537261Y-94174582D01*
X133856030Y-94334365D01*
X135190395Y-93000000D01*
X135549605Y-93000000D01*
X136883970Y-94334365D01*
X137202739Y-94174582D01*
X137512723Y-93383813D01*
X137511060Y-93296778D01*
X137663691Y-93360000D01*
X138029250Y-93360000D01*
X138188000Y-93201250D01*
X138188000Y-92377000D01*
X138168000Y-92377000D01*
X138168000Y-92123000D01*
X138188000Y-92123000D01*
X138188000Y-91298750D01*
X138029250Y-91140000D01*
X137663691Y-91140000D01*
X137430302Y-91236673D01*
X137251673Y-91415301D01*
X137155000Y-91648690D01*
X137155000Y-91801489D01*
X136883970Y-91665635D01*
X135549605Y-93000000D01*
X135190395Y-93000000D01*
X133856030Y-91665635D01*
X133537261Y-91825418D01*
X133227277Y-92616187D01*
X132437440Y-92616187D01*
X132437440Y-91500000D01*
X132434662Y-91486030D01*
X134035635Y-91486030D01*
X135370000Y-92820395D01*
X136704365Y-91486030D01*
X136544582Y-91167261D01*
X135753813Y-90857277D01*
X134904613Y-90873503D01*
X134195418Y-91167261D01*
X134035635Y-91486030D01*
X132434662Y-91486030D01*
X132388157Y-91252235D01*
X132247809Y-91042191D01*
X132037765Y-90901843D01*
X131790000Y-90852560D01*
X130900000Y-90852560D01*
X130900000Y-89935750D01*
X137105000Y-89935750D01*
X137105000Y-90251310D01*
X137201673Y-90484699D01*
X137380302Y-90663327D01*
X137613691Y-90760000D01*
X137979250Y-90760000D01*
X138138000Y-90601250D01*
X138138000Y-89777000D01*
X137263750Y-89777000D01*
X137105000Y-89935750D01*
X130900000Y-89935750D01*
X130900000Y-86856573D01*
X131047809Y-86757809D01*
X131188157Y-86547765D01*
X131237440Y-86300000D01*
X131237440Y-85811316D01*
X131442235Y-85948157D01*
X131690000Y-85997440D01*
X132590000Y-85997440D01*
X132837765Y-85948157D01*
X133047809Y-85807809D01*
X133188157Y-85597765D01*
X133237440Y-85350000D01*
X133237440Y-84550000D01*
X133188157Y-84302235D01*
X133047809Y-84092191D01*
X132837765Y-83951843D01*
X132818906Y-83948092D01*
X132687929Y-83752071D01*
X132624473Y-83709671D01*
X131962241Y-83047440D01*
X132377500Y-83047440D01*
X132716152Y-82980078D01*
X133003247Y-82788247D01*
X133195078Y-82501152D01*
X133262440Y-82162500D01*
X133262440Y-81587500D01*
X133195078Y-81248848D01*
X133028803Y-81000000D01*
X133195078Y-80751152D01*
X133262440Y-80412500D01*
X133262440Y-79837500D01*
X133195078Y-79498848D01*
X133003247Y-79211753D01*
X132900000Y-79142765D01*
X132900000Y-78564801D01*
X136104802Y-75360000D01*
X136436289Y-75360000D01*
X136553720Y-75477431D01*
X136934126Y-75635000D01*
X137345874Y-75635000D01*
X137726280Y-75477431D01*
X138017431Y-75186280D01*
X138175000Y-74805874D01*
X138175000Y-74548377D01*
X138384126Y-74635000D01*
X138795874Y-74635000D01*
X139176280Y-74477431D01*
X139442961Y-74210750D01*
X142430000Y-74210750D01*
X142430000Y-74576309D01*
X142526673Y-74809698D01*
X142705301Y-74988327D01*
X142938690Y-75085000D01*
X143254250Y-75085000D01*
X143413000Y-74926250D01*
X143413000Y-74052000D01*
X142588750Y-74052000D01*
X142430000Y-74210750D01*
X139442961Y-74210750D01*
X139467431Y-74186280D01*
X139625000Y-73805874D01*
X139625000Y-73394126D01*
X139559088Y-73235000D01*
X139704250Y-73235000D01*
X139863000Y-73076250D01*
X139863000Y-72202000D01*
X140117000Y-72202000D01*
X140117000Y-73076250D01*
X140275750Y-73235000D01*
X140591310Y-73235000D01*
X140824699Y-73138327D01*
X140890000Y-73073026D01*
X140955301Y-73138327D01*
X141188690Y-73235000D01*
X141504250Y-73235000D01*
X141663000Y-73076250D01*
X141663000Y-72202000D01*
X140117000Y-72202000D01*
X139863000Y-72202000D01*
X139038750Y-72202000D01*
X138880000Y-72360750D01*
X138880000Y-72599846D01*
X138795874Y-72565000D01*
X138700000Y-72565000D01*
X138700000Y-72360750D01*
X138541250Y-72202000D01*
X137717000Y-72202000D01*
X137717000Y-72222000D01*
X137463000Y-72222000D01*
X137463000Y-72202000D01*
X135917000Y-72202000D01*
X135917000Y-72222000D01*
X135663000Y-72222000D01*
X135663000Y-72202000D01*
X135643000Y-72202000D01*
X135643000Y-71948000D01*
X135663000Y-71948000D01*
X135663000Y-71928000D01*
X135917000Y-71928000D01*
X135917000Y-71948000D01*
X137463000Y-71948000D01*
X137463000Y-71928000D01*
X137717000Y-71928000D01*
X137717000Y-71948000D01*
X138541250Y-71948000D01*
X138700000Y-71789250D01*
X138700000Y-71423691D01*
X138603327Y-71190302D01*
X138532565Y-71119540D01*
X138645078Y-70951152D01*
X138712440Y-70612500D01*
X138712440Y-70348072D01*
X138790000Y-70270513D01*
X138867560Y-70348073D01*
X138867560Y-70612500D01*
X138934922Y-70951152D01*
X139047435Y-71119540D01*
X138976673Y-71190302D01*
X138880000Y-71423691D01*
X138880000Y-71789250D01*
X139038750Y-71948000D01*
X139863000Y-71948000D01*
X139863000Y-71928000D01*
X140117000Y-71928000D01*
X140117000Y-71948000D01*
X141663000Y-71948000D01*
X141663000Y-71928000D01*
X141917000Y-71928000D01*
X141917000Y-71948000D01*
X141937000Y-71948000D01*
X141937000Y-72202000D01*
X141917000Y-72202000D01*
X141917000Y-73076250D01*
X142075750Y-73235000D01*
X142391310Y-73235000D01*
X142457359Y-73207642D01*
X142430000Y-73273691D01*
X142430000Y-73639250D01*
X142588750Y-73798000D01*
X143413000Y-73798000D01*
X143413000Y-73778000D01*
X143667000Y-73778000D01*
X143667000Y-73798000D01*
X143687000Y-73798000D01*
X143687000Y-74052000D01*
X143667000Y-74052000D01*
X143667000Y-74926250D01*
X143825750Y-75085000D01*
X144141310Y-75085000D01*
X144374699Y-74988327D01*
X144485515Y-74877510D01*
X144713848Y-75030078D01*
X145052500Y-75097440D01*
X145527500Y-75097440D01*
X145866152Y-75030078D01*
X145952560Y-74972342D01*
X145952560Y-75237500D01*
X146019922Y-75576152D01*
X146211753Y-75863247D01*
X146365001Y-75965644D01*
X146365001Y-76350197D01*
X145750198Y-76965000D01*
X135790000Y-76965000D01*
X135546994Y-77013337D01*
X135405573Y-77071916D01*
X135199568Y-77209565D01*
X135061916Y-77415573D01*
X135003337Y-77556994D01*
X134955000Y-77800000D01*
X134955000Y-88400000D01*
X135003337Y-88643006D01*
X135061916Y-88784427D01*
X135199565Y-88990432D01*
X135405573Y-89128084D01*
X135546994Y-89186663D01*
X135790000Y-89235000D01*
X137105000Y-89235000D01*
X137105000Y-89364250D01*
X137263750Y-89523000D01*
X138138000Y-89523000D01*
X138138000Y-89503000D01*
X138392000Y-89503000D01*
X138392000Y-89523000D01*
X138412000Y-89523000D01*
X138412000Y-89777000D01*
X138392000Y-89777000D01*
X138392000Y-90601250D01*
X138550750Y-90760000D01*
X138916309Y-90760000D01*
X139149698Y-90663327D01*
X139220460Y-90592565D01*
X139305001Y-90649053D01*
X139305000Y-91284356D01*
X139270460Y-91307435D01*
X139199698Y-91236673D01*
X138966309Y-91140000D01*
X138600750Y-91140000D01*
X138442000Y-91298750D01*
X138442000Y-92123000D01*
X138462000Y-92123000D01*
X138462000Y-92377000D01*
X138442000Y-92377000D01*
X138442000Y-93201250D01*
X138600750Y-93360000D01*
X138966309Y-93360000D01*
X139199698Y-93263327D01*
X139270460Y-93192565D01*
X139438848Y-93305078D01*
X139777500Y-93372440D01*
X140312638Y-93372440D01*
X140424671Y-93484473D01*
X140467071Y-93547929D01*
X140718463Y-93715904D01*
X140940148Y-93760000D01*
X140940153Y-93760000D01*
X141015000Y-93774888D01*
X141089847Y-93760000D01*
X141142560Y-93760000D01*
X141142560Y-94500000D01*
X141191843Y-94747765D01*
X141332191Y-94957809D01*
X141542235Y-95098157D01*
X141790000Y-95147440D01*
X144790000Y-95147440D01*
X145037765Y-95098157D01*
X145247809Y-94957809D01*
X145388157Y-94747765D01*
X145434661Y-94513970D01*
X147035635Y-94513970D01*
X147195418Y-94832739D01*
X147986187Y-95142723D01*
X148835387Y-95126497D01*
X149544582Y-94832739D01*
X149704365Y-94513970D01*
X148370000Y-93179605D01*
X147035635Y-94513970D01*
X145434661Y-94513970D01*
X145437440Y-94500000D01*
X145437440Y-92616187D01*
X146227277Y-92616187D01*
X146243503Y-93465387D01*
X146537261Y-94174582D01*
X146856030Y-94334365D01*
X148190395Y-93000000D01*
X148549605Y-93000000D01*
X149883970Y-94334365D01*
X150202739Y-94174582D01*
X150512723Y-93383813D01*
X150496497Y-92534613D01*
X150202739Y-91825418D01*
X149883970Y-91665635D01*
X148549605Y-93000000D01*
X148190395Y-93000000D01*
X146856030Y-91665635D01*
X146537261Y-91825418D01*
X146227277Y-92616187D01*
X145437440Y-92616187D01*
X145437440Y-91500000D01*
X145434662Y-91486030D01*
X147035635Y-91486030D01*
X148370000Y-92820395D01*
X149704365Y-91486030D01*
X149544582Y-91167261D01*
X148753813Y-90857277D01*
X147904613Y-90873503D01*
X147195418Y-91167261D01*
X147035635Y-91486030D01*
X145434662Y-91486030D01*
X145388157Y-91252235D01*
X145247809Y-91042191D01*
X145037765Y-90901843D01*
X144790000Y-90852560D01*
X141790000Y-90852560D01*
X141542235Y-90901843D01*
X141332191Y-91042191D01*
X141191843Y-91252235D01*
X141142560Y-91500000D01*
X141142560Y-91632664D01*
X140978247Y-91386753D01*
X140825000Y-91284356D01*
X140825000Y-90582235D01*
X140928247Y-90513247D01*
X141120078Y-90226152D01*
X141187440Y-89887500D01*
X141187440Y-89412500D01*
X141152133Y-89235000D01*
X149590000Y-89235000D01*
X149833006Y-89186663D01*
X149974427Y-89128084D01*
X150180432Y-88990435D01*
X150318084Y-88784427D01*
X150376663Y-88643006D01*
X150425000Y-88400000D01*
X150425000Y-77800000D01*
X150376663Y-77556994D01*
X150318084Y-77415573D01*
X150180435Y-77209568D01*
X149974427Y-77071916D01*
X149833006Y-77013337D01*
X149590000Y-76965000D01*
X147838591Y-76965000D01*
X147840904Y-76961538D01*
X147869872Y-76815904D01*
X147885000Y-76739852D01*
X147885000Y-76739848D01*
X147899888Y-76665000D01*
X147885000Y-76590152D01*
X147885000Y-75965644D01*
X147919540Y-75942565D01*
X147990302Y-76013327D01*
X148223691Y-76110000D01*
X148589250Y-76110000D01*
X148748000Y-75951250D01*
X148748000Y-75127000D01*
X149002000Y-75127000D01*
X149002000Y-75951250D01*
X149160750Y-76110000D01*
X149526309Y-76110000D01*
X149759698Y-76013327D01*
X149938327Y-75834699D01*
X150035000Y-75601310D01*
X150035000Y-75285750D01*
X149876250Y-75127000D01*
X149002000Y-75127000D01*
X148748000Y-75127000D01*
X148728000Y-75127000D01*
X148728000Y-74873000D01*
X148748000Y-74873000D01*
X148748000Y-74048750D01*
X148699250Y-74000000D01*
X148748000Y-73951250D01*
X148748000Y-73127000D01*
X149002000Y-73127000D01*
X149002000Y-73951250D01*
X149050750Y-74000000D01*
X149002000Y-74048750D01*
X149002000Y-74873000D01*
X149876250Y-74873000D01*
X150035000Y-74714250D01*
X150035000Y-74398690D01*
X149938327Y-74165301D01*
X149773025Y-74000000D01*
X149938327Y-73834699D01*
X150035000Y-73601310D01*
X150035000Y-73285750D01*
X149876250Y-73127000D01*
X149002000Y-73127000D01*
X148748000Y-73127000D01*
X148728000Y-73127000D01*
X148728000Y-72873000D01*
X148748000Y-72873000D01*
X148748000Y-72853000D01*
X149002000Y-72853000D01*
X149002000Y-72873000D01*
X149876250Y-72873000D01*
X150035000Y-72714250D01*
X150035000Y-72398690D01*
X149938327Y-72165301D01*
X149759698Y-71986673D01*
X149526309Y-71890000D01*
X149523272Y-71890000D01*
X149583483Y-71799889D01*
X149665904Y-71676538D01*
X149676003Y-71625766D01*
X149732809Y-71587809D01*
X149873157Y-71377765D01*
X149922440Y-71130000D01*
X149922440Y-69570000D01*
X149873157Y-69322235D01*
X149732809Y-69112191D01*
X149564905Y-69000000D01*
X149732809Y-68887809D01*
X149873157Y-68677765D01*
X149922440Y-68430000D01*
X149922440Y-66870000D01*
X149873157Y-66622235D01*
X149820138Y-66542887D01*
X149928327Y-66434699D01*
X150025000Y-66201310D01*
X150025000Y-65885750D01*
X149866250Y-65727000D01*
X148992000Y-65727000D01*
X148992000Y-65747000D01*
X148738000Y-65747000D01*
X148738000Y-65727000D01*
X148718000Y-65727000D01*
X148718000Y-65473000D01*
X148738000Y-65473000D01*
X148738000Y-64648750D01*
X148992000Y-64648750D01*
X148992000Y-65473000D01*
X149866250Y-65473000D01*
X150025000Y-65314250D01*
X150025000Y-64998690D01*
X149928327Y-64765301D01*
X149749698Y-64586673D01*
X149516309Y-64490000D01*
X149150750Y-64490000D01*
X148992000Y-64648750D01*
X148738000Y-64648750D01*
X148579250Y-64490000D01*
X148213691Y-64490000D01*
X147980302Y-64586673D01*
X147909540Y-64657435D01*
X147741152Y-64544922D01*
X147402500Y-64477560D01*
X146827500Y-64477560D01*
X146488848Y-64544922D01*
X146201753Y-64736753D01*
X146159422Y-64800105D01*
X145973954Y-64836997D01*
X145706023Y-65016023D01*
X145660834Y-65083653D01*
X144541436Y-66203052D01*
X144625000Y-66001310D01*
X144625000Y-65685750D01*
X144466250Y-65527000D01*
X143592000Y-65527000D01*
X143592000Y-66351250D01*
X143750750Y-66510000D01*
X144116309Y-66510000D01*
X144318052Y-66426435D01*
X142944488Y-67800000D01*
X139384773Y-67800000D01*
X139305000Y-67784132D01*
X139225227Y-67800000D01*
X139225226Y-67800000D01*
X138988954Y-67846997D01*
X138721023Y-68026023D01*
X138675832Y-68093656D01*
X138273655Y-68495833D01*
X138273652Y-68495835D01*
X138273648Y-68495839D01*
X138206024Y-68541024D01*
X138160838Y-68608649D01*
X137616928Y-69152560D01*
X137352500Y-69152560D01*
X137013848Y-69219922D01*
X136726753Y-69411753D01*
X136690000Y-69466758D01*
X136653247Y-69411753D01*
X136366152Y-69219922D01*
X136027500Y-69152560D01*
X135552500Y-69152560D01*
X135213848Y-69219922D01*
X134926753Y-69411753D01*
X134857765Y-69515000D01*
X134558007Y-69515000D01*
X134195874Y-69365000D01*
X134100513Y-69365000D01*
X133850000Y-69114488D01*
X133850000Y-65744126D01*
X139005000Y-65744126D01*
X139005000Y-66155874D01*
X139162569Y-66536280D01*
X139453720Y-66827431D01*
X139834126Y-66985000D01*
X140245874Y-66985000D01*
X140626280Y-66827431D01*
X140917431Y-66536280D01*
X140980933Y-66382972D01*
X141088848Y-66455078D01*
X141427500Y-66522440D01*
X142002500Y-66522440D01*
X142341152Y-66455078D01*
X142509540Y-66342565D01*
X142580302Y-66413327D01*
X142813691Y-66510000D01*
X143179250Y-66510000D01*
X143338000Y-66351250D01*
X143338000Y-65527000D01*
X143318000Y-65527000D01*
X143318000Y-65273000D01*
X143338000Y-65273000D01*
X143338000Y-64448750D01*
X143592000Y-64448750D01*
X143592000Y-65273000D01*
X144466250Y-65273000D01*
X144625000Y-65114250D01*
X144625000Y-64798690D01*
X144528327Y-64565301D01*
X144349698Y-64386673D01*
X144116309Y-64290000D01*
X143750750Y-64290000D01*
X143592000Y-64448750D01*
X143338000Y-64448750D01*
X143179250Y-64290000D01*
X142813691Y-64290000D01*
X142580302Y-64386673D01*
X142509540Y-64457435D01*
X142341152Y-64344922D01*
X142002500Y-64277560D01*
X141427500Y-64277560D01*
X141088848Y-64344922D01*
X140801753Y-64536753D01*
X140732765Y-64640000D01*
X140664846Y-64640000D01*
X140589999Y-64625112D01*
X140515152Y-64640000D01*
X140515148Y-64640000D01*
X140293463Y-64684096D01*
X140293461Y-64684097D01*
X140293462Y-64684097D01*
X140105526Y-64809671D01*
X140105524Y-64809673D01*
X140042071Y-64852071D01*
X140000023Y-64915000D01*
X139834126Y-64915000D01*
X139453720Y-65072569D01*
X139162569Y-65363720D01*
X139005000Y-65744126D01*
X133850000Y-65744126D01*
X133850000Y-62997440D01*
X133890000Y-62997440D01*
X134137765Y-62948157D01*
X134347809Y-62807809D01*
X134488157Y-62597765D01*
X134497184Y-62552381D01*
X134509375Y-62570625D01*
X135000582Y-62898839D01*
X135433744Y-62985000D01*
X135726256Y-62985000D01*
X136159418Y-62898839D01*
X136650625Y-62570625D01*
X136863843Y-62251522D01*
X136924817Y-62381358D01*
X137353076Y-62771645D01*
X137763110Y-62941476D01*
X137993000Y-62820155D01*
X137993000Y-61627000D01*
X137973000Y-61627000D01*
X137973000Y-61373000D01*
X137993000Y-61373000D01*
X137993000Y-60179845D01*
X138247000Y-60179845D01*
X138247000Y-61373000D01*
X138267000Y-61373000D01*
X138267000Y-61627000D01*
X138247000Y-61627000D01*
X138247000Y-62820155D01*
X138476890Y-62941476D01*
X138886924Y-62771645D01*
X139315183Y-62381358D01*
X139376157Y-62251522D01*
X139589375Y-62570625D01*
X140080582Y-62898839D01*
X140513744Y-62985000D01*
X140806256Y-62985000D01*
X141239418Y-62898839D01*
X141730625Y-62570625D01*
X141930000Y-62272239D01*
X142129375Y-62570625D01*
X142620582Y-62898839D01*
X143053744Y-62985000D01*
X143346256Y-62985000D01*
X143779418Y-62898839D01*
X144270625Y-62570625D01*
X144470000Y-62272239D01*
X144669375Y-62570625D01*
X145160582Y-62898839D01*
X145593744Y-62985000D01*
X145886256Y-62985000D01*
X146319418Y-62898839D01*
X146810625Y-62570625D01*
X147138839Y-62079418D01*
X147254092Y-61500000D01*
X147138839Y-60920582D01*
X146810625Y-60429375D01*
X146319418Y-60101161D01*
X145886256Y-60015000D01*
X145593744Y-60015000D01*
X145160582Y-60101161D01*
X144669375Y-60429375D01*
X144470000Y-60727761D01*
X144270625Y-60429375D01*
X143779418Y-60101161D01*
X143346256Y-60015000D01*
X143053744Y-60015000D01*
X142620582Y-60101161D01*
X142129375Y-60429375D01*
X141930000Y-60727761D01*
X141730625Y-60429375D01*
X141239418Y-60101161D01*
X140806256Y-60015000D01*
X140513744Y-60015000D01*
X140080582Y-60101161D01*
X139589375Y-60429375D01*
X139376157Y-60748478D01*
X139315183Y-60618642D01*
X138886924Y-60228355D01*
X138476890Y-60058524D01*
X138247000Y-60179845D01*
X137993000Y-60179845D01*
X137763110Y-60058524D01*
X137353076Y-60228355D01*
X136924817Y-60618642D01*
X136863843Y-60748478D01*
X136650625Y-60429375D01*
X136159418Y-60101161D01*
X135726256Y-60015000D01*
X135433744Y-60015000D01*
X135000582Y-60101161D01*
X134509375Y-60429375D01*
X134497184Y-60447619D01*
X134488157Y-60402235D01*
X134347809Y-60192191D01*
X134137765Y-60051843D01*
X133890000Y-60002560D01*
X132190000Y-60002560D01*
X131942235Y-60051843D01*
X131732191Y-60192191D01*
X131591843Y-60402235D01*
X131542560Y-60650000D01*
X131542560Y-62350000D01*
X131591843Y-62597765D01*
X131732191Y-62807809D01*
X131942235Y-62948157D01*
X132190000Y-62997440D01*
X132230000Y-62997440D01*
X132230000Y-63766975D01*
X132174698Y-63711673D01*
X131941309Y-63615000D01*
X131525750Y-63615000D01*
X131367000Y-63773750D01*
X131367000Y-64823000D01*
X131387000Y-64823000D01*
X131387000Y-65077000D01*
X131367000Y-65077000D01*
X131367000Y-66126250D01*
X131525750Y-66285000D01*
X131941309Y-66285000D01*
X132174698Y-66188327D01*
X132230001Y-66133025D01*
X132230001Y-67226793D01*
X132203247Y-67186753D01*
X131916152Y-66994922D01*
X131577500Y-66927560D01*
X131002500Y-66927560D01*
X130663848Y-66994922D01*
X130415000Y-67161197D01*
X130300000Y-67084356D01*
X130300000Y-66183025D01*
X130305302Y-66188327D01*
X130538691Y-66285000D01*
X130954250Y-66285000D01*
X131113000Y-66126250D01*
X131113000Y-65077000D01*
X131093000Y-65077000D01*
X131093000Y-64823000D01*
X131113000Y-64823000D01*
X131113000Y-63773750D01*
X130954250Y-63615000D01*
X130538691Y-63615000D01*
X130305302Y-63711673D01*
X130150377Y-63866597D01*
X130149586Y-63865414D01*
X129858436Y-63670873D01*
X129515001Y-63602560D01*
X128864999Y-63602560D01*
X128521564Y-63670873D01*
X128230414Y-63865414D01*
X128035873Y-64156564D01*
X127967560Y-64499999D01*
X127967560Y-65400001D01*
X128035873Y-65743436D01*
X128230414Y-66034586D01*
X128521564Y-66229127D01*
X128780001Y-66280533D01*
X128780000Y-67084356D01*
X128626753Y-67186753D01*
X128492054Y-67388343D01*
X128476280Y-67372569D01*
X128095874Y-67215000D01*
X127684126Y-67215000D01*
X127500000Y-67291267D01*
X127500000Y-63035964D01*
X127570776Y-62339191D01*
X127769404Y-61705369D01*
X128091418Y-61124438D01*
X128523670Y-60620121D01*
X129048503Y-60213019D01*
X129644473Y-59919766D01*
X130295707Y-59750132D01*
X130817269Y-59710000D01*
X147754036Y-59710000D01*
X148450809Y-59780776D01*
G36*
X133627224Y-75687974D02*
X133541250Y-75602000D01*
X132717000Y-75602000D01*
X132717000Y-76476250D01*
X132777974Y-76537224D01*
X131655528Y-77659671D01*
X131592072Y-77702071D01*
X131549672Y-77765527D01*
X131549671Y-77765528D01*
X131424097Y-77953463D01*
X131365112Y-78250000D01*
X131380001Y-78324852D01*
X131380001Y-79142765D01*
X131290556Y-79202530D01*
X131149698Y-79061673D01*
X130916309Y-78965000D01*
X130625750Y-78965000D01*
X130467000Y-79123750D01*
X130467000Y-79873000D01*
X130487000Y-79873000D01*
X130487000Y-80127000D01*
X130467000Y-80127000D01*
X130467000Y-80147000D01*
X130213000Y-80147000D01*
X130213000Y-80127000D01*
X130193000Y-80127000D01*
X130193000Y-79873000D01*
X130213000Y-79873000D01*
X130213000Y-79123750D01*
X130136956Y-79047706D01*
X130136956Y-76761802D01*
X130151844Y-76686955D01*
X130141509Y-76635000D01*
X130304250Y-76635000D01*
X130463000Y-76476250D01*
X130463000Y-75602000D01*
X130717000Y-75602000D01*
X130717000Y-76476250D01*
X130875750Y-76635000D01*
X131191310Y-76635000D01*
X131424699Y-76538327D01*
X131590000Y-76373025D01*
X131755301Y-76538327D01*
X131988690Y-76635000D01*
X132304250Y-76635000D01*
X132463000Y-76476250D01*
X132463000Y-75602000D01*
X131638750Y-75602000D01*
X131590000Y-75650750D01*
X131541250Y-75602000D01*
X130717000Y-75602000D01*
X130463000Y-75602000D01*
X130443000Y-75602000D01*
X130443000Y-75348000D01*
X130463000Y-75348000D01*
X130463000Y-75328000D01*
X130717000Y-75328000D01*
X130717000Y-75348000D01*
X131541250Y-75348000D01*
X131590000Y-75299250D01*
X131638750Y-75348000D01*
X132463000Y-75348000D01*
X132463000Y-75328000D01*
X132717000Y-75328000D01*
X132717000Y-75348000D01*
X133541250Y-75348000D01*
X133700000Y-75189250D01*
X133700000Y-74823691D01*
X133603327Y-74590302D01*
X133532565Y-74519540D01*
X133555644Y-74485000D01*
X134830198Y-74485000D01*
X133627224Y-75687974D01*
X133627224Y-75687974D01*
G37*
X133627224Y-75687974D02*
X133541250Y-75602000D01*
X132717000Y-75602000D01*
X132717000Y-76476250D01*
X132777974Y-76537224D01*
X131655528Y-77659671D01*
X131592072Y-77702071D01*
X131549672Y-77765527D01*
X131549671Y-77765528D01*
X131424097Y-77953463D01*
X131365112Y-78250000D01*
X131380001Y-78324852D01*
X131380001Y-79142765D01*
X131290556Y-79202530D01*
X131149698Y-79061673D01*
X130916309Y-78965000D01*
X130625750Y-78965000D01*
X130467000Y-79123750D01*
X130467000Y-79873000D01*
X130487000Y-79873000D01*
X130487000Y-80127000D01*
X130467000Y-80127000D01*
X130467000Y-80147000D01*
X130213000Y-80147000D01*
X130213000Y-80127000D01*
X130193000Y-80127000D01*
X130193000Y-79873000D01*
X130213000Y-79873000D01*
X130213000Y-79123750D01*
X130136956Y-79047706D01*
X130136956Y-76761802D01*
X130151844Y-76686955D01*
X130141509Y-76635000D01*
X130304250Y-76635000D01*
X130463000Y-76476250D01*
X130463000Y-75602000D01*
X130717000Y-75602000D01*
X130717000Y-76476250D01*
X130875750Y-76635000D01*
X131191310Y-76635000D01*
X131424699Y-76538327D01*
X131590000Y-76373025D01*
X131755301Y-76538327D01*
X131988690Y-76635000D01*
X132304250Y-76635000D01*
X132463000Y-76476250D01*
X132463000Y-75602000D01*
X131638750Y-75602000D01*
X131590000Y-75650750D01*
X131541250Y-75602000D01*
X130717000Y-75602000D01*
X130463000Y-75602000D01*
X130443000Y-75602000D01*
X130443000Y-75348000D01*
X130463000Y-75348000D01*
X130463000Y-75328000D01*
X130717000Y-75328000D01*
X130717000Y-75348000D01*
X131541250Y-75348000D01*
X131590000Y-75299250D01*
X131638750Y-75348000D01*
X132463000Y-75348000D01*
X132463000Y-75328000D01*
X132717000Y-75328000D01*
X132717000Y-75348000D01*
X133541250Y-75348000D01*
X133700000Y-75189250D01*
X133700000Y-74823691D01*
X133603327Y-74590302D01*
X133532565Y-74519540D01*
X133555644Y-74485000D01*
X134830198Y-74485000D01*
X133627224Y-75687974D01*
G36*
X148026843Y-68677765D02*
X148167191Y-68887809D01*
X148266551Y-68954199D01*
X148127000Y-69093750D01*
X148127000Y-69172341D01*
X148026843Y-69322235D01*
X148000000Y-69457185D01*
X147973157Y-69322235D01*
X147873000Y-69172341D01*
X147873000Y-69093750D01*
X147733449Y-68954199D01*
X147832809Y-68887809D01*
X147973157Y-68677765D01*
X148000000Y-68542815D01*
X148026843Y-68677765D01*
X148026843Y-68677765D01*
G37*
X148026843Y-68677765D02*
X148167191Y-68887809D01*
X148266551Y-68954199D01*
X148127000Y-69093750D01*
X148127000Y-69172341D01*
X148026843Y-69322235D01*
X148000000Y-69457185D01*
X147973157Y-69322235D01*
X147873000Y-69172341D01*
X147873000Y-69093750D01*
X147733449Y-68954199D01*
X147832809Y-68887809D01*
X147973157Y-68677765D01*
X148000000Y-68542815D01*
X148026843Y-68677765D01*
G04 #@! TO.N,+24V*
G36*
X149634219Y-77755781D02*
X149663000Y-77825263D01*
X149663000Y-88374737D01*
X149634219Y-88444219D01*
X149564737Y-88473000D01*
X135815263Y-88473000D01*
X135745781Y-88444219D01*
X135717000Y-88374737D01*
X135717000Y-77825263D01*
X135745781Y-77755781D01*
X135815263Y-77727000D01*
X149564737Y-77727000D01*
X149634219Y-77755781D01*
X149634219Y-77755781D01*
G37*
X149634219Y-77755781D02*
X149663000Y-77825263D01*
X149663000Y-88374737D01*
X149634219Y-88444219D01*
X149564737Y-88473000D01*
X135815263Y-88473000D01*
X135745781Y-88444219D01*
X135717000Y-88374737D01*
X135717000Y-77825263D01*
X135745781Y-77755781D01*
X135815263Y-77727000D01*
X149564737Y-77727000D01*
X149634219Y-77755781D01*
G04 #@! TD*
M02*
