G04 #@! TF.GenerationSoftware,KiCad,Pcbnew,5.0.2-bee76a0~70~ubuntu16.04.1*
G04 #@! TF.CreationDate,2019-05-19T16:37:23+01:00*
G04 #@! TF.ProjectId,project,70726f6a-6563-4742-9e6b-696361645f70,rev?*
G04 #@! TF.SameCoordinates,Original*
G04 #@! TF.FileFunction,Soldermask,Top*
G04 #@! TF.FilePolarity,Negative*
%FSLAX46Y46*%
G04 Gerber Fmt 4.6, Leading zero omitted, Abs format (unit mm)*
G04 Created by KiCad (PCBNEW 5.0.2-bee76a0~70~ubuntu16.04.1) date Sun 19 May 2019 16:37:23 BST*
%MOMM*%
%LPD*%
G01*
G04 APERTURE LIST*
%ADD10C,0.150000*%
%ADD11C,0.127000*%
%ADD12C,0.076200*%
%ADD13C,0.101600*%
%ADD14R,3.000000X3.000000*%
%ADD15C,3.000000*%
%ADD16O,1.905000X2.000000*%
%ADD17R,1.905000X2.000000*%
%ADD18C,0.100000*%
%ADD19C,0.950000*%
%ADD20C,6.400000*%
%ADD21C,1.700000*%
%ADD22C,1.700000*%
%ADD23R,0.800000X0.900000*%
%ADD24R,3.800000X2.000000*%
%ADD25R,1.500000X2.000000*%
%ADD26R,1.450000X0.450000*%
%ADD27R,0.900000X1.200000*%
G04 APERTURE END LIST*
D10*
G04 #@! TO.C,REF\002A\002A*
X136781623Y-67990000D02*
G75*
G03X136781623Y-67990000I-31623J0D01*
G01*
D11*
X137020000Y-68070000D02*
G75*
G03X137020000Y-68070000I-410000J0D01*
G01*
D10*
X136501623Y-67990000D02*
G75*
G03X136501623Y-67990000I-31623J0D01*
G01*
D12*
X136420000Y-68210000D02*
X136540000Y-68280000D01*
X136540000Y-68280000D02*
X136670000Y-68270000D01*
X136670000Y-68270000D02*
X136790000Y-68180000D01*
D13*
X136500000Y-67600000D02*
X136230000Y-67460000D01*
X136230000Y-67460000D02*
X135950000Y-67530000D01*
X135950000Y-67530000D02*
X135840000Y-67720000D01*
X135840000Y-67720000D02*
X135950000Y-67890000D01*
X135950000Y-67890000D02*
X136160000Y-67940000D01*
X136170000Y-68010000D02*
X135900000Y-68060000D01*
X135900000Y-68060000D02*
X135810000Y-68210000D01*
X135810000Y-68210000D02*
X135850000Y-68340000D01*
X135850000Y-68340000D02*
X135970000Y-68420000D01*
X135970000Y-68420000D02*
X136220000Y-68360000D01*
X136240000Y-68380000D02*
X136160000Y-68580000D01*
X136160000Y-68580000D02*
X136170000Y-68770000D01*
X136170000Y-68770000D02*
X136280000Y-68810000D01*
X136280000Y-68810000D02*
X136400000Y-68770000D01*
X136400000Y-68770000D02*
X136460000Y-68660000D01*
X136460000Y-68660000D02*
X136480000Y-68550000D01*
X136480000Y-68550000D02*
X136500000Y-68530000D01*
X136500000Y-68530000D02*
X136470000Y-68550000D01*
X136470000Y-68550000D02*
X136460000Y-68520000D01*
X136570000Y-67640000D02*
X136660000Y-67370000D01*
X136660000Y-67370000D02*
X136820000Y-67310000D01*
X136820000Y-67310000D02*
X136990000Y-67340000D01*
X136990000Y-67340000D02*
X137040000Y-67450000D01*
X137040000Y-67450000D02*
X137020000Y-67560000D01*
X137020000Y-67560000D02*
X136930000Y-67700000D01*
X136900000Y-67690000D02*
X137270000Y-67680000D01*
X137270000Y-67680000D02*
X137380000Y-67780000D01*
X137380000Y-67780000D02*
X137400000Y-67930000D01*
X137400000Y-67930000D02*
X137300000Y-68000000D01*
X137300000Y-68000000D02*
X137150000Y-68010000D01*
X137150000Y-68010000D02*
X137050000Y-68010000D01*
X137050000Y-68040000D02*
X137230000Y-68150000D01*
X137230000Y-68150000D02*
X137330000Y-68290000D01*
X137330000Y-68290000D02*
X137330000Y-68430000D01*
X137330000Y-68430000D02*
X137290000Y-68530000D01*
X137290000Y-68530000D02*
X137180000Y-68570000D01*
X137180000Y-68570000D02*
X137050000Y-68540000D01*
X137050000Y-68540000D02*
X136960000Y-68410000D01*
X136530000Y-68540000D02*
X136600000Y-68730000D01*
X136600000Y-68730000D02*
X136720000Y-68860000D01*
X136720000Y-68860000D02*
X136840000Y-68830000D01*
X136840000Y-68830000D02*
X136890000Y-68740000D01*
X136890000Y-68740000D02*
X136870000Y-68640000D01*
X136870000Y-68640000D02*
X136870000Y-68470000D01*
X136500000Y-68630000D02*
X136590000Y-69060000D01*
X136590000Y-69060000D02*
X136810000Y-69360000D01*
X136810000Y-69360000D02*
X136930000Y-69640000D01*
X136930000Y-69640000D02*
X136890000Y-69860000D01*
X136890000Y-69860000D02*
X137050000Y-69340000D01*
G04 #@! TD*
D14*
G04 #@! TO.C,SC1*
X143130000Y-73270000D03*
D15*
X143130000Y-68190000D03*
G04 #@! TD*
D16*
G04 #@! TO.C,Q3*
X134100000Y-77490000D03*
X136640000Y-77490000D03*
D17*
X139180000Y-77490000D03*
G04 #@! TD*
D18*
G04 #@! TO.C,C1*
G36*
X129935779Y-89766144D02*
X129958834Y-89769563D01*
X129981443Y-89775227D01*
X130003387Y-89783079D01*
X130024457Y-89793044D01*
X130044448Y-89805026D01*
X130063168Y-89818910D01*
X130080438Y-89834562D01*
X130096090Y-89851832D01*
X130109974Y-89870552D01*
X130121956Y-89890543D01*
X130131921Y-89911613D01*
X130139773Y-89933557D01*
X130145437Y-89956166D01*
X130148856Y-89979221D01*
X130150000Y-90002500D01*
X130150000Y-90477500D01*
X130148856Y-90500779D01*
X130145437Y-90523834D01*
X130139773Y-90546443D01*
X130131921Y-90568387D01*
X130121956Y-90589457D01*
X130109974Y-90609448D01*
X130096090Y-90628168D01*
X130080438Y-90645438D01*
X130063168Y-90661090D01*
X130044448Y-90674974D01*
X130024457Y-90686956D01*
X130003387Y-90696921D01*
X129981443Y-90704773D01*
X129958834Y-90710437D01*
X129935779Y-90713856D01*
X129912500Y-90715000D01*
X129337500Y-90715000D01*
X129314221Y-90713856D01*
X129291166Y-90710437D01*
X129268557Y-90704773D01*
X129246613Y-90696921D01*
X129225543Y-90686956D01*
X129205552Y-90674974D01*
X129186832Y-90661090D01*
X129169562Y-90645438D01*
X129153910Y-90628168D01*
X129140026Y-90609448D01*
X129128044Y-90589457D01*
X129118079Y-90568387D01*
X129110227Y-90546443D01*
X129104563Y-90523834D01*
X129101144Y-90500779D01*
X129100000Y-90477500D01*
X129100000Y-90002500D01*
X129101144Y-89979221D01*
X129104563Y-89956166D01*
X129110227Y-89933557D01*
X129118079Y-89911613D01*
X129128044Y-89890543D01*
X129140026Y-89870552D01*
X129153910Y-89851832D01*
X129169562Y-89834562D01*
X129186832Y-89818910D01*
X129205552Y-89805026D01*
X129225543Y-89793044D01*
X129246613Y-89783079D01*
X129268557Y-89775227D01*
X129291166Y-89769563D01*
X129314221Y-89766144D01*
X129337500Y-89765000D01*
X129912500Y-89765000D01*
X129935779Y-89766144D01*
X129935779Y-89766144D01*
G37*
D19*
X129625000Y-90240000D03*
D18*
G36*
X128185779Y-89766144D02*
X128208834Y-89769563D01*
X128231443Y-89775227D01*
X128253387Y-89783079D01*
X128274457Y-89793044D01*
X128294448Y-89805026D01*
X128313168Y-89818910D01*
X128330438Y-89834562D01*
X128346090Y-89851832D01*
X128359974Y-89870552D01*
X128371956Y-89890543D01*
X128381921Y-89911613D01*
X128389773Y-89933557D01*
X128395437Y-89956166D01*
X128398856Y-89979221D01*
X128400000Y-90002500D01*
X128400000Y-90477500D01*
X128398856Y-90500779D01*
X128395437Y-90523834D01*
X128389773Y-90546443D01*
X128381921Y-90568387D01*
X128371956Y-90589457D01*
X128359974Y-90609448D01*
X128346090Y-90628168D01*
X128330438Y-90645438D01*
X128313168Y-90661090D01*
X128294448Y-90674974D01*
X128274457Y-90686956D01*
X128253387Y-90696921D01*
X128231443Y-90704773D01*
X128208834Y-90710437D01*
X128185779Y-90713856D01*
X128162500Y-90715000D01*
X127587500Y-90715000D01*
X127564221Y-90713856D01*
X127541166Y-90710437D01*
X127518557Y-90704773D01*
X127496613Y-90696921D01*
X127475543Y-90686956D01*
X127455552Y-90674974D01*
X127436832Y-90661090D01*
X127419562Y-90645438D01*
X127403910Y-90628168D01*
X127390026Y-90609448D01*
X127378044Y-90589457D01*
X127368079Y-90568387D01*
X127360227Y-90546443D01*
X127354563Y-90523834D01*
X127351144Y-90500779D01*
X127350000Y-90477500D01*
X127350000Y-90002500D01*
X127351144Y-89979221D01*
X127354563Y-89956166D01*
X127360227Y-89933557D01*
X127368079Y-89911613D01*
X127378044Y-89890543D01*
X127390026Y-89870552D01*
X127403910Y-89851832D01*
X127419562Y-89834562D01*
X127436832Y-89818910D01*
X127455552Y-89805026D01*
X127475543Y-89793044D01*
X127496613Y-89783079D01*
X127518557Y-89775227D01*
X127541166Y-89769563D01*
X127564221Y-89766144D01*
X127587500Y-89765000D01*
X128162500Y-89765000D01*
X128185779Y-89766144D01*
X128185779Y-89766144D01*
G37*
D19*
X127875000Y-90240000D03*
G04 #@! TD*
D18*
G04 #@! TO.C,C3*
G36*
X133505779Y-89776144D02*
X133528834Y-89779563D01*
X133551443Y-89785227D01*
X133573387Y-89793079D01*
X133594457Y-89803044D01*
X133614448Y-89815026D01*
X133633168Y-89828910D01*
X133650438Y-89844562D01*
X133666090Y-89861832D01*
X133679974Y-89880552D01*
X133691956Y-89900543D01*
X133701921Y-89921613D01*
X133709773Y-89943557D01*
X133715437Y-89966166D01*
X133718856Y-89989221D01*
X133720000Y-90012500D01*
X133720000Y-90487500D01*
X133718856Y-90510779D01*
X133715437Y-90533834D01*
X133709773Y-90556443D01*
X133701921Y-90578387D01*
X133691956Y-90599457D01*
X133679974Y-90619448D01*
X133666090Y-90638168D01*
X133650438Y-90655438D01*
X133633168Y-90671090D01*
X133614448Y-90684974D01*
X133594457Y-90696956D01*
X133573387Y-90706921D01*
X133551443Y-90714773D01*
X133528834Y-90720437D01*
X133505779Y-90723856D01*
X133482500Y-90725000D01*
X132907500Y-90725000D01*
X132884221Y-90723856D01*
X132861166Y-90720437D01*
X132838557Y-90714773D01*
X132816613Y-90706921D01*
X132795543Y-90696956D01*
X132775552Y-90684974D01*
X132756832Y-90671090D01*
X132739562Y-90655438D01*
X132723910Y-90638168D01*
X132710026Y-90619448D01*
X132698044Y-90599457D01*
X132688079Y-90578387D01*
X132680227Y-90556443D01*
X132674563Y-90533834D01*
X132671144Y-90510779D01*
X132670000Y-90487500D01*
X132670000Y-90012500D01*
X132671144Y-89989221D01*
X132674563Y-89966166D01*
X132680227Y-89943557D01*
X132688079Y-89921613D01*
X132698044Y-89900543D01*
X132710026Y-89880552D01*
X132723910Y-89861832D01*
X132739562Y-89844562D01*
X132756832Y-89828910D01*
X132775552Y-89815026D01*
X132795543Y-89803044D01*
X132816613Y-89793079D01*
X132838557Y-89785227D01*
X132861166Y-89779563D01*
X132884221Y-89776144D01*
X132907500Y-89775000D01*
X133482500Y-89775000D01*
X133505779Y-89776144D01*
X133505779Y-89776144D01*
G37*
D19*
X133195000Y-90250000D03*
D18*
G36*
X131755779Y-89776144D02*
X131778834Y-89779563D01*
X131801443Y-89785227D01*
X131823387Y-89793079D01*
X131844457Y-89803044D01*
X131864448Y-89815026D01*
X131883168Y-89828910D01*
X131900438Y-89844562D01*
X131916090Y-89861832D01*
X131929974Y-89880552D01*
X131941956Y-89900543D01*
X131951921Y-89921613D01*
X131959773Y-89943557D01*
X131965437Y-89966166D01*
X131968856Y-89989221D01*
X131970000Y-90012500D01*
X131970000Y-90487500D01*
X131968856Y-90510779D01*
X131965437Y-90533834D01*
X131959773Y-90556443D01*
X131951921Y-90578387D01*
X131941956Y-90599457D01*
X131929974Y-90619448D01*
X131916090Y-90638168D01*
X131900438Y-90655438D01*
X131883168Y-90671090D01*
X131864448Y-90684974D01*
X131844457Y-90696956D01*
X131823387Y-90706921D01*
X131801443Y-90714773D01*
X131778834Y-90720437D01*
X131755779Y-90723856D01*
X131732500Y-90725000D01*
X131157500Y-90725000D01*
X131134221Y-90723856D01*
X131111166Y-90720437D01*
X131088557Y-90714773D01*
X131066613Y-90706921D01*
X131045543Y-90696956D01*
X131025552Y-90684974D01*
X131006832Y-90671090D01*
X130989562Y-90655438D01*
X130973910Y-90638168D01*
X130960026Y-90619448D01*
X130948044Y-90599457D01*
X130938079Y-90578387D01*
X130930227Y-90556443D01*
X130924563Y-90533834D01*
X130921144Y-90510779D01*
X130920000Y-90487500D01*
X130920000Y-90012500D01*
X130921144Y-89989221D01*
X130924563Y-89966166D01*
X130930227Y-89943557D01*
X130938079Y-89921613D01*
X130948044Y-89900543D01*
X130960026Y-89880552D01*
X130973910Y-89861832D01*
X130989562Y-89844562D01*
X131006832Y-89828910D01*
X131025552Y-89815026D01*
X131045543Y-89803044D01*
X131066613Y-89793079D01*
X131088557Y-89785227D01*
X131111166Y-89779563D01*
X131134221Y-89776144D01*
X131157500Y-89775000D01*
X131732500Y-89775000D01*
X131755779Y-89776144D01*
X131755779Y-89776144D01*
G37*
D19*
X131445000Y-90250000D03*
G04 #@! TD*
D20*
G04 #@! TO.C,H1*
X152130000Y-63290000D03*
G04 #@! TD*
D21*
G04 #@! TO.C,J1*
X158030000Y-87090000D03*
D18*
G36*
X159227507Y-86985232D02*
X158134768Y-88287507D01*
X156832493Y-87194768D01*
X157925232Y-85892493D01*
X159227507Y-86985232D01*
X159227507Y-86985232D01*
G37*
D21*
X156397319Y-89035753D03*
D22*
X156397319Y-89035753D02*
X156397319Y-89035753D01*
D21*
X154764639Y-90981506D03*
D22*
X154764639Y-90981506D02*
X154764639Y-90981506D01*
D21*
X153131958Y-92927259D03*
D22*
X153131958Y-92927259D02*
X153131958Y-92927259D01*
D21*
X151499278Y-94873012D03*
D22*
X151499278Y-94873012D02*
X151499278Y-94873012D01*
D21*
X149866597Y-96818764D03*
D22*
X149866597Y-96818764D02*
X149866597Y-96818764D01*
G04 #@! TD*
D23*
G04 #@! TO.C,Q1*
X144570000Y-81000000D03*
X145520000Y-83000000D03*
X143620000Y-83000000D03*
G04 #@! TD*
G04 #@! TO.C,Q2*
X139530000Y-90630000D03*
X138580000Y-88630000D03*
X140480000Y-88630000D03*
G04 #@! TD*
G04 #@! TO.C,Q4*
X142330000Y-90630000D03*
X144230000Y-90630000D03*
X143280000Y-88630000D03*
G04 #@! TD*
D18*
G04 #@! TO.C,R3*
G36*
X138965779Y-86406144D02*
X138988834Y-86409563D01*
X139011443Y-86415227D01*
X139033387Y-86423079D01*
X139054457Y-86433044D01*
X139074448Y-86445026D01*
X139093168Y-86458910D01*
X139110438Y-86474562D01*
X139126090Y-86491832D01*
X139139974Y-86510552D01*
X139151956Y-86530543D01*
X139161921Y-86551613D01*
X139169773Y-86573557D01*
X139175437Y-86596166D01*
X139178856Y-86619221D01*
X139180000Y-86642500D01*
X139180000Y-87117500D01*
X139178856Y-87140779D01*
X139175437Y-87163834D01*
X139169773Y-87186443D01*
X139161921Y-87208387D01*
X139151956Y-87229457D01*
X139139974Y-87249448D01*
X139126090Y-87268168D01*
X139110438Y-87285438D01*
X139093168Y-87301090D01*
X139074448Y-87314974D01*
X139054457Y-87326956D01*
X139033387Y-87336921D01*
X139011443Y-87344773D01*
X138988834Y-87350437D01*
X138965779Y-87353856D01*
X138942500Y-87355000D01*
X138367500Y-87355000D01*
X138344221Y-87353856D01*
X138321166Y-87350437D01*
X138298557Y-87344773D01*
X138276613Y-87336921D01*
X138255543Y-87326956D01*
X138235552Y-87314974D01*
X138216832Y-87301090D01*
X138199562Y-87285438D01*
X138183910Y-87268168D01*
X138170026Y-87249448D01*
X138158044Y-87229457D01*
X138148079Y-87208387D01*
X138140227Y-87186443D01*
X138134563Y-87163834D01*
X138131144Y-87140779D01*
X138130000Y-87117500D01*
X138130000Y-86642500D01*
X138131144Y-86619221D01*
X138134563Y-86596166D01*
X138140227Y-86573557D01*
X138148079Y-86551613D01*
X138158044Y-86530543D01*
X138170026Y-86510552D01*
X138183910Y-86491832D01*
X138199562Y-86474562D01*
X138216832Y-86458910D01*
X138235552Y-86445026D01*
X138255543Y-86433044D01*
X138276613Y-86423079D01*
X138298557Y-86415227D01*
X138321166Y-86409563D01*
X138344221Y-86406144D01*
X138367500Y-86405000D01*
X138942500Y-86405000D01*
X138965779Y-86406144D01*
X138965779Y-86406144D01*
G37*
D19*
X138655000Y-86880000D03*
D18*
G36*
X140715779Y-86406144D02*
X140738834Y-86409563D01*
X140761443Y-86415227D01*
X140783387Y-86423079D01*
X140804457Y-86433044D01*
X140824448Y-86445026D01*
X140843168Y-86458910D01*
X140860438Y-86474562D01*
X140876090Y-86491832D01*
X140889974Y-86510552D01*
X140901956Y-86530543D01*
X140911921Y-86551613D01*
X140919773Y-86573557D01*
X140925437Y-86596166D01*
X140928856Y-86619221D01*
X140930000Y-86642500D01*
X140930000Y-87117500D01*
X140928856Y-87140779D01*
X140925437Y-87163834D01*
X140919773Y-87186443D01*
X140911921Y-87208387D01*
X140901956Y-87229457D01*
X140889974Y-87249448D01*
X140876090Y-87268168D01*
X140860438Y-87285438D01*
X140843168Y-87301090D01*
X140824448Y-87314974D01*
X140804457Y-87326956D01*
X140783387Y-87336921D01*
X140761443Y-87344773D01*
X140738834Y-87350437D01*
X140715779Y-87353856D01*
X140692500Y-87355000D01*
X140117500Y-87355000D01*
X140094221Y-87353856D01*
X140071166Y-87350437D01*
X140048557Y-87344773D01*
X140026613Y-87336921D01*
X140005543Y-87326956D01*
X139985552Y-87314974D01*
X139966832Y-87301090D01*
X139949562Y-87285438D01*
X139933910Y-87268168D01*
X139920026Y-87249448D01*
X139908044Y-87229457D01*
X139898079Y-87208387D01*
X139890227Y-87186443D01*
X139884563Y-87163834D01*
X139881144Y-87140779D01*
X139880000Y-87117500D01*
X139880000Y-86642500D01*
X139881144Y-86619221D01*
X139884563Y-86596166D01*
X139890227Y-86573557D01*
X139898079Y-86551613D01*
X139908044Y-86530543D01*
X139920026Y-86510552D01*
X139933910Y-86491832D01*
X139949562Y-86474562D01*
X139966832Y-86458910D01*
X139985552Y-86445026D01*
X140005543Y-86433044D01*
X140026613Y-86423079D01*
X140048557Y-86415227D01*
X140071166Y-86409563D01*
X140094221Y-86406144D01*
X140117500Y-86405000D01*
X140692500Y-86405000D01*
X140715779Y-86406144D01*
X140715779Y-86406144D01*
G37*
D19*
X140405000Y-86880000D03*
G04 #@! TD*
D18*
G04 #@! TO.C,R4*
G36*
X144005779Y-84276144D02*
X144028834Y-84279563D01*
X144051443Y-84285227D01*
X144073387Y-84293079D01*
X144094457Y-84303044D01*
X144114448Y-84315026D01*
X144133168Y-84328910D01*
X144150438Y-84344562D01*
X144166090Y-84361832D01*
X144179974Y-84380552D01*
X144191956Y-84400543D01*
X144201921Y-84421613D01*
X144209773Y-84443557D01*
X144215437Y-84466166D01*
X144218856Y-84489221D01*
X144220000Y-84512500D01*
X144220000Y-84987500D01*
X144218856Y-85010779D01*
X144215437Y-85033834D01*
X144209773Y-85056443D01*
X144201921Y-85078387D01*
X144191956Y-85099457D01*
X144179974Y-85119448D01*
X144166090Y-85138168D01*
X144150438Y-85155438D01*
X144133168Y-85171090D01*
X144114448Y-85184974D01*
X144094457Y-85196956D01*
X144073387Y-85206921D01*
X144051443Y-85214773D01*
X144028834Y-85220437D01*
X144005779Y-85223856D01*
X143982500Y-85225000D01*
X143407500Y-85225000D01*
X143384221Y-85223856D01*
X143361166Y-85220437D01*
X143338557Y-85214773D01*
X143316613Y-85206921D01*
X143295543Y-85196956D01*
X143275552Y-85184974D01*
X143256832Y-85171090D01*
X143239562Y-85155438D01*
X143223910Y-85138168D01*
X143210026Y-85119448D01*
X143198044Y-85099457D01*
X143188079Y-85078387D01*
X143180227Y-85056443D01*
X143174563Y-85033834D01*
X143171144Y-85010779D01*
X143170000Y-84987500D01*
X143170000Y-84512500D01*
X143171144Y-84489221D01*
X143174563Y-84466166D01*
X143180227Y-84443557D01*
X143188079Y-84421613D01*
X143198044Y-84400543D01*
X143210026Y-84380552D01*
X143223910Y-84361832D01*
X143239562Y-84344562D01*
X143256832Y-84328910D01*
X143275552Y-84315026D01*
X143295543Y-84303044D01*
X143316613Y-84293079D01*
X143338557Y-84285227D01*
X143361166Y-84279563D01*
X143384221Y-84276144D01*
X143407500Y-84275000D01*
X143982500Y-84275000D01*
X144005779Y-84276144D01*
X144005779Y-84276144D01*
G37*
D19*
X143695000Y-84750000D03*
D18*
G36*
X145755779Y-84276144D02*
X145778834Y-84279563D01*
X145801443Y-84285227D01*
X145823387Y-84293079D01*
X145844457Y-84303044D01*
X145864448Y-84315026D01*
X145883168Y-84328910D01*
X145900438Y-84344562D01*
X145916090Y-84361832D01*
X145929974Y-84380552D01*
X145941956Y-84400543D01*
X145951921Y-84421613D01*
X145959773Y-84443557D01*
X145965437Y-84466166D01*
X145968856Y-84489221D01*
X145970000Y-84512500D01*
X145970000Y-84987500D01*
X145968856Y-85010779D01*
X145965437Y-85033834D01*
X145959773Y-85056443D01*
X145951921Y-85078387D01*
X145941956Y-85099457D01*
X145929974Y-85119448D01*
X145916090Y-85138168D01*
X145900438Y-85155438D01*
X145883168Y-85171090D01*
X145864448Y-85184974D01*
X145844457Y-85196956D01*
X145823387Y-85206921D01*
X145801443Y-85214773D01*
X145778834Y-85220437D01*
X145755779Y-85223856D01*
X145732500Y-85225000D01*
X145157500Y-85225000D01*
X145134221Y-85223856D01*
X145111166Y-85220437D01*
X145088557Y-85214773D01*
X145066613Y-85206921D01*
X145045543Y-85196956D01*
X145025552Y-85184974D01*
X145006832Y-85171090D01*
X144989562Y-85155438D01*
X144973910Y-85138168D01*
X144960026Y-85119448D01*
X144948044Y-85099457D01*
X144938079Y-85078387D01*
X144930227Y-85056443D01*
X144924563Y-85033834D01*
X144921144Y-85010779D01*
X144920000Y-84987500D01*
X144920000Y-84512500D01*
X144921144Y-84489221D01*
X144924563Y-84466166D01*
X144930227Y-84443557D01*
X144938079Y-84421613D01*
X144948044Y-84400543D01*
X144960026Y-84380552D01*
X144973910Y-84361832D01*
X144989562Y-84344562D01*
X145006832Y-84328910D01*
X145025552Y-84315026D01*
X145045543Y-84303044D01*
X145066613Y-84293079D01*
X145088557Y-84285227D01*
X145111166Y-84279563D01*
X145134221Y-84276144D01*
X145157500Y-84275000D01*
X145732500Y-84275000D01*
X145755779Y-84276144D01*
X145755779Y-84276144D01*
G37*
D19*
X145445000Y-84750000D03*
G04 #@! TD*
D18*
G04 #@! TO.C,R7*
G36*
X141580779Y-80576144D02*
X141603834Y-80579563D01*
X141626443Y-80585227D01*
X141648387Y-80593079D01*
X141669457Y-80603044D01*
X141689448Y-80615026D01*
X141708168Y-80628910D01*
X141725438Y-80644562D01*
X141741090Y-80661832D01*
X141754974Y-80680552D01*
X141766956Y-80700543D01*
X141776921Y-80721613D01*
X141784773Y-80743557D01*
X141790437Y-80766166D01*
X141793856Y-80789221D01*
X141795000Y-80812500D01*
X141795000Y-81287500D01*
X141793856Y-81310779D01*
X141790437Y-81333834D01*
X141784773Y-81356443D01*
X141776921Y-81378387D01*
X141766956Y-81399457D01*
X141754974Y-81419448D01*
X141741090Y-81438168D01*
X141725438Y-81455438D01*
X141708168Y-81471090D01*
X141689448Y-81484974D01*
X141669457Y-81496956D01*
X141648387Y-81506921D01*
X141626443Y-81514773D01*
X141603834Y-81520437D01*
X141580779Y-81523856D01*
X141557500Y-81525000D01*
X140982500Y-81525000D01*
X140959221Y-81523856D01*
X140936166Y-81520437D01*
X140913557Y-81514773D01*
X140891613Y-81506921D01*
X140870543Y-81496956D01*
X140850552Y-81484974D01*
X140831832Y-81471090D01*
X140814562Y-81455438D01*
X140798910Y-81438168D01*
X140785026Y-81419448D01*
X140773044Y-81399457D01*
X140763079Y-81378387D01*
X140755227Y-81356443D01*
X140749563Y-81333834D01*
X140746144Y-81310779D01*
X140745000Y-81287500D01*
X140745000Y-80812500D01*
X140746144Y-80789221D01*
X140749563Y-80766166D01*
X140755227Y-80743557D01*
X140763079Y-80721613D01*
X140773044Y-80700543D01*
X140785026Y-80680552D01*
X140798910Y-80661832D01*
X140814562Y-80644562D01*
X140831832Y-80628910D01*
X140850552Y-80615026D01*
X140870543Y-80603044D01*
X140891613Y-80593079D01*
X140913557Y-80585227D01*
X140936166Y-80579563D01*
X140959221Y-80576144D01*
X140982500Y-80575000D01*
X141557500Y-80575000D01*
X141580779Y-80576144D01*
X141580779Y-80576144D01*
G37*
D19*
X141270000Y-81050000D03*
D18*
G36*
X139830779Y-80576144D02*
X139853834Y-80579563D01*
X139876443Y-80585227D01*
X139898387Y-80593079D01*
X139919457Y-80603044D01*
X139939448Y-80615026D01*
X139958168Y-80628910D01*
X139975438Y-80644562D01*
X139991090Y-80661832D01*
X140004974Y-80680552D01*
X140016956Y-80700543D01*
X140026921Y-80721613D01*
X140034773Y-80743557D01*
X140040437Y-80766166D01*
X140043856Y-80789221D01*
X140045000Y-80812500D01*
X140045000Y-81287500D01*
X140043856Y-81310779D01*
X140040437Y-81333834D01*
X140034773Y-81356443D01*
X140026921Y-81378387D01*
X140016956Y-81399457D01*
X140004974Y-81419448D01*
X139991090Y-81438168D01*
X139975438Y-81455438D01*
X139958168Y-81471090D01*
X139939448Y-81484974D01*
X139919457Y-81496956D01*
X139898387Y-81506921D01*
X139876443Y-81514773D01*
X139853834Y-81520437D01*
X139830779Y-81523856D01*
X139807500Y-81525000D01*
X139232500Y-81525000D01*
X139209221Y-81523856D01*
X139186166Y-81520437D01*
X139163557Y-81514773D01*
X139141613Y-81506921D01*
X139120543Y-81496956D01*
X139100552Y-81484974D01*
X139081832Y-81471090D01*
X139064562Y-81455438D01*
X139048910Y-81438168D01*
X139035026Y-81419448D01*
X139023044Y-81399457D01*
X139013079Y-81378387D01*
X139005227Y-81356443D01*
X138999563Y-81333834D01*
X138996144Y-81310779D01*
X138995000Y-81287500D01*
X138995000Y-80812500D01*
X138996144Y-80789221D01*
X138999563Y-80766166D01*
X139005227Y-80743557D01*
X139013079Y-80721613D01*
X139023044Y-80700543D01*
X139035026Y-80680552D01*
X139048910Y-80661832D01*
X139064562Y-80644562D01*
X139081832Y-80628910D01*
X139100552Y-80615026D01*
X139120543Y-80603044D01*
X139141613Y-80593079D01*
X139163557Y-80585227D01*
X139186166Y-80579563D01*
X139209221Y-80576144D01*
X139232500Y-80575000D01*
X139807500Y-80575000D01*
X139830779Y-80576144D01*
X139830779Y-80576144D01*
G37*
D19*
X139520000Y-81050000D03*
G04 #@! TD*
D18*
G04 #@! TO.C,R9*
G36*
X117818601Y-84041797D02*
X117841656Y-84045216D01*
X117864265Y-84050880D01*
X117886209Y-84058732D01*
X117907279Y-84068697D01*
X117927270Y-84080679D01*
X117945990Y-84094563D01*
X117963260Y-84110215D01*
X117978912Y-84127485D01*
X117992796Y-84146205D01*
X118004778Y-84166196D01*
X118014743Y-84187266D01*
X118022595Y-84209210D01*
X118028259Y-84231819D01*
X118031678Y-84254874D01*
X118032822Y-84278153D01*
X118032822Y-84753153D01*
X118031678Y-84776432D01*
X118028259Y-84799487D01*
X118022595Y-84822096D01*
X118014743Y-84844040D01*
X118004778Y-84865110D01*
X117992796Y-84885101D01*
X117978912Y-84903821D01*
X117963260Y-84921091D01*
X117945990Y-84936743D01*
X117927270Y-84950627D01*
X117907279Y-84962609D01*
X117886209Y-84972574D01*
X117864265Y-84980426D01*
X117841656Y-84986090D01*
X117818601Y-84989509D01*
X117795322Y-84990653D01*
X117220322Y-84990653D01*
X117197043Y-84989509D01*
X117173988Y-84986090D01*
X117151379Y-84980426D01*
X117129435Y-84972574D01*
X117108365Y-84962609D01*
X117088374Y-84950627D01*
X117069654Y-84936743D01*
X117052384Y-84921091D01*
X117036732Y-84903821D01*
X117022848Y-84885101D01*
X117010866Y-84865110D01*
X117000901Y-84844040D01*
X116993049Y-84822096D01*
X116987385Y-84799487D01*
X116983966Y-84776432D01*
X116982822Y-84753153D01*
X116982822Y-84278153D01*
X116983966Y-84254874D01*
X116987385Y-84231819D01*
X116993049Y-84209210D01*
X117000901Y-84187266D01*
X117010866Y-84166196D01*
X117022848Y-84146205D01*
X117036732Y-84127485D01*
X117052384Y-84110215D01*
X117069654Y-84094563D01*
X117088374Y-84080679D01*
X117108365Y-84068697D01*
X117129435Y-84058732D01*
X117151379Y-84050880D01*
X117173988Y-84045216D01*
X117197043Y-84041797D01*
X117220322Y-84040653D01*
X117795322Y-84040653D01*
X117818601Y-84041797D01*
X117818601Y-84041797D01*
G37*
D19*
X117507822Y-84515653D03*
D18*
G36*
X116068601Y-84041797D02*
X116091656Y-84045216D01*
X116114265Y-84050880D01*
X116136209Y-84058732D01*
X116157279Y-84068697D01*
X116177270Y-84080679D01*
X116195990Y-84094563D01*
X116213260Y-84110215D01*
X116228912Y-84127485D01*
X116242796Y-84146205D01*
X116254778Y-84166196D01*
X116264743Y-84187266D01*
X116272595Y-84209210D01*
X116278259Y-84231819D01*
X116281678Y-84254874D01*
X116282822Y-84278153D01*
X116282822Y-84753153D01*
X116281678Y-84776432D01*
X116278259Y-84799487D01*
X116272595Y-84822096D01*
X116264743Y-84844040D01*
X116254778Y-84865110D01*
X116242796Y-84885101D01*
X116228912Y-84903821D01*
X116213260Y-84921091D01*
X116195990Y-84936743D01*
X116177270Y-84950627D01*
X116157279Y-84962609D01*
X116136209Y-84972574D01*
X116114265Y-84980426D01*
X116091656Y-84986090D01*
X116068601Y-84989509D01*
X116045322Y-84990653D01*
X115470322Y-84990653D01*
X115447043Y-84989509D01*
X115423988Y-84986090D01*
X115401379Y-84980426D01*
X115379435Y-84972574D01*
X115358365Y-84962609D01*
X115338374Y-84950627D01*
X115319654Y-84936743D01*
X115302384Y-84921091D01*
X115286732Y-84903821D01*
X115272848Y-84885101D01*
X115260866Y-84865110D01*
X115250901Y-84844040D01*
X115243049Y-84822096D01*
X115237385Y-84799487D01*
X115233966Y-84776432D01*
X115232822Y-84753153D01*
X115232822Y-84278153D01*
X115233966Y-84254874D01*
X115237385Y-84231819D01*
X115243049Y-84209210D01*
X115250901Y-84187266D01*
X115260866Y-84166196D01*
X115272848Y-84146205D01*
X115286732Y-84127485D01*
X115302384Y-84110215D01*
X115319654Y-84094563D01*
X115338374Y-84080679D01*
X115358365Y-84068697D01*
X115379435Y-84058732D01*
X115401379Y-84050880D01*
X115423988Y-84045216D01*
X115447043Y-84041797D01*
X115470322Y-84040653D01*
X116045322Y-84040653D01*
X116068601Y-84041797D01*
X116068601Y-84041797D01*
G37*
D19*
X115757822Y-84515653D03*
G04 #@! TD*
D18*
G04 #@! TO.C,R10*
G36*
X136065779Y-109516144D02*
X136088834Y-109519563D01*
X136111443Y-109525227D01*
X136133387Y-109533079D01*
X136154457Y-109543044D01*
X136174448Y-109555026D01*
X136193168Y-109568910D01*
X136210438Y-109584562D01*
X136226090Y-109601832D01*
X136239974Y-109620552D01*
X136251956Y-109640543D01*
X136261921Y-109661613D01*
X136269773Y-109683557D01*
X136275437Y-109706166D01*
X136278856Y-109729221D01*
X136280000Y-109752500D01*
X136280000Y-110227500D01*
X136278856Y-110250779D01*
X136275437Y-110273834D01*
X136269773Y-110296443D01*
X136261921Y-110318387D01*
X136251956Y-110339457D01*
X136239974Y-110359448D01*
X136226090Y-110378168D01*
X136210438Y-110395438D01*
X136193168Y-110411090D01*
X136174448Y-110424974D01*
X136154457Y-110436956D01*
X136133387Y-110446921D01*
X136111443Y-110454773D01*
X136088834Y-110460437D01*
X136065779Y-110463856D01*
X136042500Y-110465000D01*
X135467500Y-110465000D01*
X135444221Y-110463856D01*
X135421166Y-110460437D01*
X135398557Y-110454773D01*
X135376613Y-110446921D01*
X135355543Y-110436956D01*
X135335552Y-110424974D01*
X135316832Y-110411090D01*
X135299562Y-110395438D01*
X135283910Y-110378168D01*
X135270026Y-110359448D01*
X135258044Y-110339457D01*
X135248079Y-110318387D01*
X135240227Y-110296443D01*
X135234563Y-110273834D01*
X135231144Y-110250779D01*
X135230000Y-110227500D01*
X135230000Y-109752500D01*
X135231144Y-109729221D01*
X135234563Y-109706166D01*
X135240227Y-109683557D01*
X135248079Y-109661613D01*
X135258044Y-109640543D01*
X135270026Y-109620552D01*
X135283910Y-109601832D01*
X135299562Y-109584562D01*
X135316832Y-109568910D01*
X135335552Y-109555026D01*
X135355543Y-109543044D01*
X135376613Y-109533079D01*
X135398557Y-109525227D01*
X135421166Y-109519563D01*
X135444221Y-109516144D01*
X135467500Y-109515000D01*
X136042500Y-109515000D01*
X136065779Y-109516144D01*
X136065779Y-109516144D01*
G37*
D19*
X135755000Y-109990000D03*
D18*
G36*
X137815779Y-109516144D02*
X137838834Y-109519563D01*
X137861443Y-109525227D01*
X137883387Y-109533079D01*
X137904457Y-109543044D01*
X137924448Y-109555026D01*
X137943168Y-109568910D01*
X137960438Y-109584562D01*
X137976090Y-109601832D01*
X137989974Y-109620552D01*
X138001956Y-109640543D01*
X138011921Y-109661613D01*
X138019773Y-109683557D01*
X138025437Y-109706166D01*
X138028856Y-109729221D01*
X138030000Y-109752500D01*
X138030000Y-110227500D01*
X138028856Y-110250779D01*
X138025437Y-110273834D01*
X138019773Y-110296443D01*
X138011921Y-110318387D01*
X138001956Y-110339457D01*
X137989974Y-110359448D01*
X137976090Y-110378168D01*
X137960438Y-110395438D01*
X137943168Y-110411090D01*
X137924448Y-110424974D01*
X137904457Y-110436956D01*
X137883387Y-110446921D01*
X137861443Y-110454773D01*
X137838834Y-110460437D01*
X137815779Y-110463856D01*
X137792500Y-110465000D01*
X137217500Y-110465000D01*
X137194221Y-110463856D01*
X137171166Y-110460437D01*
X137148557Y-110454773D01*
X137126613Y-110446921D01*
X137105543Y-110436956D01*
X137085552Y-110424974D01*
X137066832Y-110411090D01*
X137049562Y-110395438D01*
X137033910Y-110378168D01*
X137020026Y-110359448D01*
X137008044Y-110339457D01*
X136998079Y-110318387D01*
X136990227Y-110296443D01*
X136984563Y-110273834D01*
X136981144Y-110250779D01*
X136980000Y-110227500D01*
X136980000Y-109752500D01*
X136981144Y-109729221D01*
X136984563Y-109706166D01*
X136990227Y-109683557D01*
X136998079Y-109661613D01*
X137008044Y-109640543D01*
X137020026Y-109620552D01*
X137033910Y-109601832D01*
X137049562Y-109584562D01*
X137066832Y-109568910D01*
X137085552Y-109555026D01*
X137105543Y-109543044D01*
X137126613Y-109533079D01*
X137148557Y-109525227D01*
X137171166Y-109519563D01*
X137194221Y-109516144D01*
X137217500Y-109515000D01*
X137792500Y-109515000D01*
X137815779Y-109516144D01*
X137815779Y-109516144D01*
G37*
D19*
X137505000Y-109990000D03*
G04 #@! TD*
D18*
G04 #@! TO.C,R11*
G36*
X120868601Y-90441797D02*
X120891656Y-90445216D01*
X120914265Y-90450880D01*
X120936209Y-90458732D01*
X120957279Y-90468697D01*
X120977270Y-90480679D01*
X120995990Y-90494563D01*
X121013260Y-90510215D01*
X121028912Y-90527485D01*
X121042796Y-90546205D01*
X121054778Y-90566196D01*
X121064743Y-90587266D01*
X121072595Y-90609210D01*
X121078259Y-90631819D01*
X121081678Y-90654874D01*
X121082822Y-90678153D01*
X121082822Y-91153153D01*
X121081678Y-91176432D01*
X121078259Y-91199487D01*
X121072595Y-91222096D01*
X121064743Y-91244040D01*
X121054778Y-91265110D01*
X121042796Y-91285101D01*
X121028912Y-91303821D01*
X121013260Y-91321091D01*
X120995990Y-91336743D01*
X120977270Y-91350627D01*
X120957279Y-91362609D01*
X120936209Y-91372574D01*
X120914265Y-91380426D01*
X120891656Y-91386090D01*
X120868601Y-91389509D01*
X120845322Y-91390653D01*
X120270322Y-91390653D01*
X120247043Y-91389509D01*
X120223988Y-91386090D01*
X120201379Y-91380426D01*
X120179435Y-91372574D01*
X120158365Y-91362609D01*
X120138374Y-91350627D01*
X120119654Y-91336743D01*
X120102384Y-91321091D01*
X120086732Y-91303821D01*
X120072848Y-91285101D01*
X120060866Y-91265110D01*
X120050901Y-91244040D01*
X120043049Y-91222096D01*
X120037385Y-91199487D01*
X120033966Y-91176432D01*
X120032822Y-91153153D01*
X120032822Y-90678153D01*
X120033966Y-90654874D01*
X120037385Y-90631819D01*
X120043049Y-90609210D01*
X120050901Y-90587266D01*
X120060866Y-90566196D01*
X120072848Y-90546205D01*
X120086732Y-90527485D01*
X120102384Y-90510215D01*
X120119654Y-90494563D01*
X120138374Y-90480679D01*
X120158365Y-90468697D01*
X120179435Y-90458732D01*
X120201379Y-90450880D01*
X120223988Y-90445216D01*
X120247043Y-90441797D01*
X120270322Y-90440653D01*
X120845322Y-90440653D01*
X120868601Y-90441797D01*
X120868601Y-90441797D01*
G37*
D19*
X120557822Y-90915653D03*
D18*
G36*
X122618601Y-90441797D02*
X122641656Y-90445216D01*
X122664265Y-90450880D01*
X122686209Y-90458732D01*
X122707279Y-90468697D01*
X122727270Y-90480679D01*
X122745990Y-90494563D01*
X122763260Y-90510215D01*
X122778912Y-90527485D01*
X122792796Y-90546205D01*
X122804778Y-90566196D01*
X122814743Y-90587266D01*
X122822595Y-90609210D01*
X122828259Y-90631819D01*
X122831678Y-90654874D01*
X122832822Y-90678153D01*
X122832822Y-91153153D01*
X122831678Y-91176432D01*
X122828259Y-91199487D01*
X122822595Y-91222096D01*
X122814743Y-91244040D01*
X122804778Y-91265110D01*
X122792796Y-91285101D01*
X122778912Y-91303821D01*
X122763260Y-91321091D01*
X122745990Y-91336743D01*
X122727270Y-91350627D01*
X122707279Y-91362609D01*
X122686209Y-91372574D01*
X122664265Y-91380426D01*
X122641656Y-91386090D01*
X122618601Y-91389509D01*
X122595322Y-91390653D01*
X122020322Y-91390653D01*
X121997043Y-91389509D01*
X121973988Y-91386090D01*
X121951379Y-91380426D01*
X121929435Y-91372574D01*
X121908365Y-91362609D01*
X121888374Y-91350627D01*
X121869654Y-91336743D01*
X121852384Y-91321091D01*
X121836732Y-91303821D01*
X121822848Y-91285101D01*
X121810866Y-91265110D01*
X121800901Y-91244040D01*
X121793049Y-91222096D01*
X121787385Y-91199487D01*
X121783966Y-91176432D01*
X121782822Y-91153153D01*
X121782822Y-90678153D01*
X121783966Y-90654874D01*
X121787385Y-90631819D01*
X121793049Y-90609210D01*
X121800901Y-90587266D01*
X121810866Y-90566196D01*
X121822848Y-90546205D01*
X121836732Y-90527485D01*
X121852384Y-90510215D01*
X121869654Y-90494563D01*
X121888374Y-90480679D01*
X121908365Y-90468697D01*
X121929435Y-90458732D01*
X121951379Y-90450880D01*
X121973988Y-90445216D01*
X121997043Y-90441797D01*
X122020322Y-90440653D01*
X122595322Y-90440653D01*
X122618601Y-90441797D01*
X122618601Y-90441797D01*
G37*
D19*
X122307822Y-90915653D03*
G04 #@! TD*
D18*
G04 #@! TO.C,R12*
G36*
X144465779Y-86406144D02*
X144488834Y-86409563D01*
X144511443Y-86415227D01*
X144533387Y-86423079D01*
X144554457Y-86433044D01*
X144574448Y-86445026D01*
X144593168Y-86458910D01*
X144610438Y-86474562D01*
X144626090Y-86491832D01*
X144639974Y-86510552D01*
X144651956Y-86530543D01*
X144661921Y-86551613D01*
X144669773Y-86573557D01*
X144675437Y-86596166D01*
X144678856Y-86619221D01*
X144680000Y-86642500D01*
X144680000Y-87117500D01*
X144678856Y-87140779D01*
X144675437Y-87163834D01*
X144669773Y-87186443D01*
X144661921Y-87208387D01*
X144651956Y-87229457D01*
X144639974Y-87249448D01*
X144626090Y-87268168D01*
X144610438Y-87285438D01*
X144593168Y-87301090D01*
X144574448Y-87314974D01*
X144554457Y-87326956D01*
X144533387Y-87336921D01*
X144511443Y-87344773D01*
X144488834Y-87350437D01*
X144465779Y-87353856D01*
X144442500Y-87355000D01*
X143867500Y-87355000D01*
X143844221Y-87353856D01*
X143821166Y-87350437D01*
X143798557Y-87344773D01*
X143776613Y-87336921D01*
X143755543Y-87326956D01*
X143735552Y-87314974D01*
X143716832Y-87301090D01*
X143699562Y-87285438D01*
X143683910Y-87268168D01*
X143670026Y-87249448D01*
X143658044Y-87229457D01*
X143648079Y-87208387D01*
X143640227Y-87186443D01*
X143634563Y-87163834D01*
X143631144Y-87140779D01*
X143630000Y-87117500D01*
X143630000Y-86642500D01*
X143631144Y-86619221D01*
X143634563Y-86596166D01*
X143640227Y-86573557D01*
X143648079Y-86551613D01*
X143658044Y-86530543D01*
X143670026Y-86510552D01*
X143683910Y-86491832D01*
X143699562Y-86474562D01*
X143716832Y-86458910D01*
X143735552Y-86445026D01*
X143755543Y-86433044D01*
X143776613Y-86423079D01*
X143798557Y-86415227D01*
X143821166Y-86409563D01*
X143844221Y-86406144D01*
X143867500Y-86405000D01*
X144442500Y-86405000D01*
X144465779Y-86406144D01*
X144465779Y-86406144D01*
G37*
D19*
X144155000Y-86880000D03*
D18*
G36*
X142715779Y-86406144D02*
X142738834Y-86409563D01*
X142761443Y-86415227D01*
X142783387Y-86423079D01*
X142804457Y-86433044D01*
X142824448Y-86445026D01*
X142843168Y-86458910D01*
X142860438Y-86474562D01*
X142876090Y-86491832D01*
X142889974Y-86510552D01*
X142901956Y-86530543D01*
X142911921Y-86551613D01*
X142919773Y-86573557D01*
X142925437Y-86596166D01*
X142928856Y-86619221D01*
X142930000Y-86642500D01*
X142930000Y-87117500D01*
X142928856Y-87140779D01*
X142925437Y-87163834D01*
X142919773Y-87186443D01*
X142911921Y-87208387D01*
X142901956Y-87229457D01*
X142889974Y-87249448D01*
X142876090Y-87268168D01*
X142860438Y-87285438D01*
X142843168Y-87301090D01*
X142824448Y-87314974D01*
X142804457Y-87326956D01*
X142783387Y-87336921D01*
X142761443Y-87344773D01*
X142738834Y-87350437D01*
X142715779Y-87353856D01*
X142692500Y-87355000D01*
X142117500Y-87355000D01*
X142094221Y-87353856D01*
X142071166Y-87350437D01*
X142048557Y-87344773D01*
X142026613Y-87336921D01*
X142005543Y-87326956D01*
X141985552Y-87314974D01*
X141966832Y-87301090D01*
X141949562Y-87285438D01*
X141933910Y-87268168D01*
X141920026Y-87249448D01*
X141908044Y-87229457D01*
X141898079Y-87208387D01*
X141890227Y-87186443D01*
X141884563Y-87163834D01*
X141881144Y-87140779D01*
X141880000Y-87117500D01*
X141880000Y-86642500D01*
X141881144Y-86619221D01*
X141884563Y-86596166D01*
X141890227Y-86573557D01*
X141898079Y-86551613D01*
X141908044Y-86530543D01*
X141920026Y-86510552D01*
X141933910Y-86491832D01*
X141949562Y-86474562D01*
X141966832Y-86458910D01*
X141985552Y-86445026D01*
X142005543Y-86433044D01*
X142026613Y-86423079D01*
X142048557Y-86415227D01*
X142071166Y-86409563D01*
X142094221Y-86406144D01*
X142117500Y-86405000D01*
X142692500Y-86405000D01*
X142715779Y-86406144D01*
X142715779Y-86406144D01*
G37*
D19*
X142405000Y-86880000D03*
G04 #@! TD*
D24*
G04 #@! TO.C,U1*
X130570000Y-81100000D03*
D25*
X130570000Y-87400000D03*
X132870000Y-87400000D03*
X128270000Y-87400000D03*
G04 #@! TD*
D26*
G04 #@! TO.C,U2*
X133820000Y-99125000D03*
X133820000Y-99775000D03*
X133820000Y-100425000D03*
X133820000Y-101075000D03*
X133820000Y-101725000D03*
X133820000Y-102375000D03*
X133820000Y-103025000D03*
X133820000Y-103675000D03*
X133820000Y-104325000D03*
X133820000Y-104975000D03*
X139720000Y-104975000D03*
X139720000Y-104325000D03*
X139720000Y-103675000D03*
X139720000Y-103025000D03*
X139720000Y-102375000D03*
X139720000Y-101725000D03*
X139720000Y-101075000D03*
X139720000Y-100425000D03*
X139720000Y-99775000D03*
X139720000Y-99125000D03*
G04 #@! TD*
D27*
G04 #@! TO.C,D3*
X138495000Y-84325000D03*
X141795000Y-84325000D03*
G04 #@! TD*
D14*
G04 #@! TO.C,BT1*
X130230000Y-73290000D03*
D15*
X130230000Y-68210000D03*
G04 #@! TD*
D20*
G04 #@! TO.C,H2*
X120230000Y-63290000D03*
G04 #@! TD*
M02*
