G04 #@! TF.GenerationSoftware,KiCad,Pcbnew,5.0.2-bee76a0~70~ubuntu16.04.1*
G04 #@! TF.CreationDate,2019-03-16T14:37:54+00:00*
G04 #@! TF.ProjectId,project,70726f6a-6563-4742-9e6b-696361645f70,rev?*
G04 #@! TF.SameCoordinates,Original*
G04 #@! TF.FileFunction,Legend,Bot*
G04 #@! TF.FilePolarity,Positive*
%FSLAX46Y46*%
G04 Gerber Fmt 4.6, Leading zero omitted, Abs format (unit mm)*
G04 Created by KiCad (PCBNEW 5.0.2-bee76a0~70~ubuntu16.04.1) date Sat 16 Mar 2019 14:37:54 GMT*
%MOMM*%
%LPD*%
G01*
G04 APERTURE LIST*
%ADD10C,0.200000*%
%ADD11C,0.150000*%
%ADD12C,0.120000*%
G04 APERTURE END LIST*
D10*
X108408065Y-125897619D02*
X108270565Y-124797619D01*
X107851517Y-124797619D01*
X107753303Y-124850000D01*
X107707470Y-124902380D01*
X107668184Y-125007142D01*
X107687827Y-125164285D01*
X107753303Y-125269047D01*
X107812232Y-125321428D01*
X107923541Y-125373809D01*
X108342589Y-125373809D01*
X107275327Y-124797619D02*
X107150922Y-125897619D01*
X106843184Y-125111904D01*
X106731875Y-125897619D01*
X106332470Y-124797619D01*
X106050922Y-125897619D02*
X105913422Y-124797619D01*
X105644970Y-125583333D01*
X105180089Y-124797619D01*
X105317589Y-125897619D01*
X108814017Y-127642857D02*
X108872946Y-127695238D01*
X109036636Y-127747619D01*
X109141398Y-127747619D01*
X109291994Y-127695238D01*
X109383660Y-127590476D01*
X109422946Y-127485714D01*
X109449136Y-127276190D01*
X109429494Y-127119047D01*
X109350922Y-126909523D01*
X109285446Y-126804761D01*
X109167589Y-126700000D01*
X109003898Y-126647619D01*
X108899136Y-126647619D01*
X108748541Y-126700000D01*
X108702708Y-126752380D01*
X108355684Y-127747619D02*
X108218184Y-126647619D01*
X107884255Y-127747619D02*
X107812232Y-127171428D01*
X107851517Y-127066666D01*
X107949732Y-127014285D01*
X108106875Y-127014285D01*
X108218184Y-127066666D01*
X108277113Y-127119047D01*
X106889017Y-127747619D02*
X106816994Y-127171428D01*
X106856279Y-127066666D01*
X106954494Y-127014285D01*
X107164017Y-127014285D01*
X107275327Y-127066666D01*
X106882470Y-127695238D02*
X106993779Y-127747619D01*
X107255684Y-127747619D01*
X107353898Y-127695238D01*
X107393184Y-127590476D01*
X107380089Y-127485714D01*
X107314613Y-127380952D01*
X107203303Y-127328571D01*
X106941398Y-127328571D01*
X106830089Y-127276190D01*
X106365208Y-127747619D02*
X106273541Y-127014285D01*
X106299732Y-127223809D02*
X106234255Y-127119047D01*
X106175327Y-127066666D01*
X106064017Y-127014285D01*
X105959255Y-127014285D01*
X105121160Y-127014285D02*
X105232470Y-127904761D01*
X105297946Y-128009523D01*
X105356875Y-128061904D01*
X105468184Y-128114285D01*
X105625327Y-128114285D01*
X105723541Y-128061904D01*
X105206279Y-127695238D02*
X105317589Y-127747619D01*
X105527113Y-127747619D01*
X105625327Y-127695238D01*
X105671160Y-127642857D01*
X105710446Y-127538095D01*
X105671160Y-127223809D01*
X105605684Y-127119047D01*
X105546755Y-127066666D01*
X105435446Y-127014285D01*
X105225922Y-127014285D01*
X105127708Y-127066666D01*
X104263422Y-127695238D02*
X104374732Y-127747619D01*
X104584255Y-127747619D01*
X104682470Y-127695238D01*
X104721755Y-127590476D01*
X104669375Y-127171428D01*
X104603898Y-127066666D01*
X104492589Y-127014285D01*
X104283065Y-127014285D01*
X104184851Y-127066666D01*
X104145565Y-127171428D01*
X104158660Y-127276190D01*
X104695565Y-127380952D01*
X110044970Y-129492857D02*
X110103898Y-129545238D01*
X110267589Y-129597619D01*
X110372351Y-129597619D01*
X110522946Y-129545238D01*
X110614613Y-129440476D01*
X110653898Y-129335714D01*
X110680089Y-129126190D01*
X110660446Y-128969047D01*
X110581875Y-128759523D01*
X110516398Y-128654761D01*
X110398541Y-128550000D01*
X110234851Y-128497619D01*
X110130089Y-128497619D01*
X109979494Y-128550000D01*
X109933660Y-128602380D01*
X109429494Y-129597619D02*
X109527708Y-129545238D01*
X109573541Y-129492857D01*
X109612827Y-129388095D01*
X109573541Y-129073809D01*
X109508065Y-128969047D01*
X109449136Y-128916666D01*
X109337827Y-128864285D01*
X109180684Y-128864285D01*
X109082470Y-128916666D01*
X109036636Y-128969047D01*
X108997351Y-129073809D01*
X109036636Y-129388095D01*
X109102113Y-129492857D01*
X109161041Y-129545238D01*
X109272351Y-129597619D01*
X109429494Y-129597619D01*
X108499732Y-128864285D02*
X108591398Y-129597619D01*
X108512827Y-128969047D02*
X108453898Y-128916666D01*
X108342589Y-128864285D01*
X108185446Y-128864285D01*
X108087232Y-128916666D01*
X108047946Y-129021428D01*
X108119970Y-129597619D01*
X107661636Y-128864285D02*
X107242589Y-128864285D01*
X107458660Y-128497619D02*
X107576517Y-129440476D01*
X107537232Y-129545238D01*
X107439017Y-129597619D01*
X107334255Y-129597619D01*
X106967589Y-129597619D02*
X106875922Y-128864285D01*
X106902113Y-129073809D02*
X106836636Y-128969047D01*
X106777708Y-128916666D01*
X106666398Y-128864285D01*
X106561636Y-128864285D01*
X106129494Y-129597619D02*
X106227708Y-129545238D01*
X106273541Y-129492857D01*
X106312827Y-129388095D01*
X106273541Y-129073809D01*
X106208065Y-128969047D01*
X106149136Y-128916666D01*
X106037827Y-128864285D01*
X105880684Y-128864285D01*
X105782470Y-128916666D01*
X105736636Y-128969047D01*
X105697351Y-129073809D01*
X105736636Y-129388095D01*
X105802113Y-129492857D01*
X105861041Y-129545238D01*
X105972351Y-129597619D01*
X106129494Y-129597619D01*
X105134255Y-129597619D02*
X105232470Y-129545238D01*
X105271755Y-129440476D01*
X105153898Y-128497619D01*
X104558065Y-129597619D02*
X104656279Y-129545238D01*
X104695565Y-129440476D01*
X104577708Y-128497619D01*
X103713422Y-129545238D02*
X103824732Y-129597619D01*
X104034255Y-129597619D01*
X104132470Y-129545238D01*
X104171755Y-129440476D01*
X104119375Y-129021428D01*
X104053898Y-128916666D01*
X103942589Y-128864285D01*
X103733065Y-128864285D01*
X103634851Y-128916666D01*
X103595565Y-129021428D01*
X103608660Y-129126190D01*
X104145565Y-129230952D01*
X103196160Y-129597619D02*
X103104494Y-128864285D01*
X103130684Y-129073809D02*
X103065208Y-128969047D01*
X103006279Y-128916666D01*
X102894970Y-128864285D01*
X102790208Y-128864285D01*
X175966666Y-94997619D02*
X175966666Y-93897619D01*
X175547619Y-93897619D01*
X175442857Y-93950000D01*
X175390476Y-94002380D01*
X175338095Y-94107142D01*
X175338095Y-94264285D01*
X175390476Y-94369047D01*
X175442857Y-94421428D01*
X175547619Y-94473809D01*
X175966666Y-94473809D01*
X174971428Y-93897619D02*
X174709523Y-94997619D01*
X174500000Y-94211904D01*
X174290476Y-94997619D01*
X174028571Y-93897619D01*
X172980952Y-94997619D02*
X173347619Y-94473809D01*
X173609523Y-94997619D02*
X173609523Y-93897619D01*
X173190476Y-93897619D01*
X173085714Y-93950000D01*
X173033333Y-94002380D01*
X172980952Y-94107142D01*
X172980952Y-94264285D01*
X173033333Y-94369047D01*
X173085714Y-94421428D01*
X173190476Y-94473809D01*
X173609523Y-94473809D01*
X101795238Y-94997619D02*
X101795238Y-93897619D01*
X101376190Y-93897619D01*
X101271428Y-93950000D01*
X101219047Y-94002380D01*
X101166666Y-94107142D01*
X101166666Y-94264285D01*
X101219047Y-94369047D01*
X101271428Y-94421428D01*
X101376190Y-94473809D01*
X101795238Y-94473809D01*
X100800000Y-93897619D02*
X100538095Y-94997619D01*
X100328571Y-94211904D01*
X100119047Y-94997619D01*
X99857142Y-93897619D01*
X99438095Y-94997619D02*
X99438095Y-93897619D01*
X99071428Y-94683333D01*
X98704761Y-93897619D01*
X98704761Y-94997619D01*
D11*
X149359523Y-127561904D02*
X148902380Y-127561904D01*
X149130952Y-128361904D02*
X149130952Y-127561904D01*
X148711904Y-127561904D02*
X148178571Y-128361904D01*
X148178571Y-127561904D02*
X148711904Y-128361904D01*
X151688095Y-128361904D02*
X151954761Y-127980952D01*
X152145238Y-128361904D02*
X152145238Y-127561904D01*
X151840476Y-127561904D01*
X151764285Y-127600000D01*
X151726190Y-127638095D01*
X151688095Y-127714285D01*
X151688095Y-127828571D01*
X151726190Y-127904761D01*
X151764285Y-127942857D01*
X151840476Y-127980952D01*
X152145238Y-127980952D01*
X151383333Y-128323809D02*
X151269047Y-128361904D01*
X151078571Y-128361904D01*
X151002380Y-128323809D01*
X150964285Y-128285714D01*
X150926190Y-128209523D01*
X150926190Y-128133333D01*
X150964285Y-128057142D01*
X151002380Y-128019047D01*
X151078571Y-127980952D01*
X151230952Y-127942857D01*
X151307142Y-127904761D01*
X151345238Y-127866666D01*
X151383333Y-127790476D01*
X151383333Y-127714285D01*
X151345238Y-127638095D01*
X151307142Y-127600000D01*
X151230952Y-127561904D01*
X151040476Y-127561904D01*
X150926190Y-127600000D01*
X150697619Y-127561904D02*
X150240476Y-127561904D01*
X150469047Y-128361904D02*
X150469047Y-127561904D01*
X154719047Y-128361904D02*
X154719047Y-127561904D01*
X154528571Y-127561904D01*
X154414285Y-127600000D01*
X154338095Y-127676190D01*
X154300000Y-127752380D01*
X154261904Y-127904761D01*
X154261904Y-128019047D01*
X154300000Y-128171428D01*
X154338095Y-128247619D01*
X154414285Y-128323809D01*
X154528571Y-128361904D01*
X154719047Y-128361904D01*
X153919047Y-128361904D02*
X153919047Y-127561904D01*
X153385714Y-127561904D02*
X153233333Y-127561904D01*
X153157142Y-127600000D01*
X153080952Y-127676190D01*
X153042857Y-127828571D01*
X153042857Y-128095238D01*
X153080952Y-128247619D01*
X153157142Y-128323809D01*
X153233333Y-128361904D01*
X153385714Y-128361904D01*
X153461904Y-128323809D01*
X153538095Y-128247619D01*
X153576190Y-128095238D01*
X153576190Y-127828571D01*
X153538095Y-127676190D01*
X153461904Y-127600000D01*
X153385714Y-127561904D01*
X157109523Y-127600000D02*
X157185714Y-127561904D01*
X157300000Y-127561904D01*
X157414285Y-127600000D01*
X157490476Y-127676190D01*
X157528571Y-127752380D01*
X157566666Y-127904761D01*
X157566666Y-128019047D01*
X157528571Y-128171428D01*
X157490476Y-128247619D01*
X157414285Y-128323809D01*
X157300000Y-128361904D01*
X157223809Y-128361904D01*
X157109523Y-128323809D01*
X157071428Y-128285714D01*
X157071428Y-128019047D01*
X157223809Y-128019047D01*
X156728571Y-128361904D02*
X156728571Y-127561904D01*
X156271428Y-128361904D01*
X156271428Y-127561904D01*
X155890476Y-128361904D02*
X155890476Y-127561904D01*
X155700000Y-127561904D01*
X155585714Y-127600000D01*
X155509523Y-127676190D01*
X155471428Y-127752380D01*
X155433333Y-127904761D01*
X155433333Y-128019047D01*
X155471428Y-128171428D01*
X155509523Y-128247619D01*
X155585714Y-128323809D01*
X155700000Y-128361904D01*
X155890476Y-128361904D01*
X159476190Y-128285714D02*
X159514285Y-128323809D01*
X159628571Y-128361904D01*
X159704761Y-128361904D01*
X159819047Y-128323809D01*
X159895238Y-128247619D01*
X159933333Y-128171428D01*
X159971428Y-128019047D01*
X159971428Y-127904761D01*
X159933333Y-127752380D01*
X159895238Y-127676190D01*
X159819047Y-127600000D01*
X159704761Y-127561904D01*
X159628571Y-127561904D01*
X159514285Y-127600000D01*
X159476190Y-127638095D01*
X158752380Y-128361904D02*
X159133333Y-128361904D01*
X159133333Y-127561904D01*
X158485714Y-128361904D02*
X158485714Y-127561904D01*
X158028571Y-128361904D02*
X158371428Y-127904761D01*
X158028571Y-127561904D02*
X158485714Y-128019047D01*
X162490476Y-127561904D02*
X161995238Y-127561904D01*
X162261904Y-127866666D01*
X162147619Y-127866666D01*
X162071428Y-127904761D01*
X162033333Y-127942857D01*
X161995238Y-128019047D01*
X161995238Y-128209523D01*
X162033333Y-128285714D01*
X162071428Y-128323809D01*
X162147619Y-128361904D01*
X162376190Y-128361904D01*
X162452380Y-128323809D01*
X162490476Y-128285714D01*
X161766666Y-127561904D02*
X161500000Y-128361904D01*
X161233333Y-127561904D01*
X161042857Y-127561904D02*
X160547619Y-127561904D01*
X160814285Y-127866666D01*
X160700000Y-127866666D01*
X160623809Y-127904761D01*
X160585714Y-127942857D01*
X160547619Y-128019047D01*
X160547619Y-128209523D01*
X160585714Y-128285714D01*
X160623809Y-128323809D01*
X160700000Y-128361904D01*
X160928571Y-128361904D01*
X161004761Y-128323809D01*
X161042857Y-128285714D01*
D10*
X183404761Y-113578571D02*
X182566666Y-113578571D01*
X181257142Y-113945238D02*
X181100000Y-113997619D01*
X180838095Y-113997619D01*
X180733333Y-113945238D01*
X180680952Y-113892857D01*
X180628571Y-113788095D01*
X180628571Y-113683333D01*
X180680952Y-113578571D01*
X180733333Y-113526190D01*
X180838095Y-113473809D01*
X181047619Y-113421428D01*
X181152380Y-113369047D01*
X181204761Y-113316666D01*
X181257142Y-113211904D01*
X181257142Y-113107142D01*
X181204761Y-113002380D01*
X181152380Y-112950000D01*
X181047619Y-112897619D01*
X180785714Y-112897619D01*
X180628571Y-112950000D01*
X179947619Y-112897619D02*
X179738095Y-112897619D01*
X179633333Y-112950000D01*
X179528571Y-113054761D01*
X179476190Y-113264285D01*
X179476190Y-113630952D01*
X179528571Y-113840476D01*
X179633333Y-113945238D01*
X179738095Y-113997619D01*
X179947619Y-113997619D01*
X180052380Y-113945238D01*
X180157142Y-113840476D01*
X180209523Y-113630952D01*
X180209523Y-113264285D01*
X180157142Y-113054761D01*
X180052380Y-112950000D01*
X179947619Y-112897619D01*
X178480952Y-113997619D02*
X179004761Y-113997619D01*
X179004761Y-112897619D01*
X178166666Y-113683333D02*
X177642857Y-113683333D01*
X178271428Y-113997619D02*
X177904761Y-112897619D01*
X177538095Y-113997619D01*
X176542857Y-113997619D02*
X176909523Y-113473809D01*
X177171428Y-113997619D02*
X177171428Y-112897619D01*
X176752380Y-112897619D01*
X176647619Y-112950000D01*
X176595238Y-113002380D01*
X176542857Y-113107142D01*
X176542857Y-113264285D01*
X176595238Y-113369047D01*
X176647619Y-113421428D01*
X176752380Y-113473809D01*
X177171428Y-113473809D01*
X175233333Y-113578571D02*
X174395238Y-113578571D01*
X174814285Y-113997619D02*
X174814285Y-113159523D01*
X100216666Y-113578571D02*
X99378571Y-113578571D01*
X99797619Y-113997619D02*
X99797619Y-113159523D01*
X97650000Y-113421428D02*
X97492857Y-113473809D01*
X97440476Y-113526190D01*
X97388095Y-113630952D01*
X97388095Y-113788095D01*
X97440476Y-113892857D01*
X97492857Y-113945238D01*
X97597619Y-113997619D01*
X98016666Y-113997619D01*
X98016666Y-112897619D01*
X97650000Y-112897619D01*
X97545238Y-112950000D01*
X97492857Y-113002380D01*
X97440476Y-113107142D01*
X97440476Y-113211904D01*
X97492857Y-113316666D01*
X97545238Y-113369047D01*
X97650000Y-113421428D01*
X98016666Y-113421428D01*
X96969047Y-113683333D02*
X96445238Y-113683333D01*
X97073809Y-113997619D02*
X96707142Y-112897619D01*
X96340476Y-113997619D01*
X96130952Y-112897619D02*
X95502380Y-112897619D01*
X95816666Y-113997619D02*
X95816666Y-112897619D01*
X95292857Y-112897619D02*
X94664285Y-112897619D01*
X94978571Y-113997619D02*
X94978571Y-112897619D01*
X94297619Y-113421428D02*
X93930952Y-113421428D01*
X93773809Y-113997619D02*
X94297619Y-113997619D01*
X94297619Y-112897619D01*
X93773809Y-112897619D01*
X92673809Y-113997619D02*
X93040476Y-113473809D01*
X93302380Y-113997619D02*
X93302380Y-112897619D01*
X92883333Y-112897619D01*
X92778571Y-112950000D01*
X92726190Y-113002380D01*
X92673809Y-113107142D01*
X92673809Y-113264285D01*
X92726190Y-113369047D01*
X92778571Y-113421428D01*
X92883333Y-113473809D01*
X93302380Y-113473809D01*
X91992857Y-113473809D02*
X91992857Y-113997619D01*
X92359523Y-112897619D02*
X91992857Y-113473809D01*
X91626190Y-112897619D01*
X90421428Y-113578571D02*
X89583333Y-113578571D01*
D11*
G04 #@! TO.C,REF\002A\002A*
X106880000Y-123030000D02*
X106740000Y-122760000D01*
X106740000Y-122760000D02*
X106620000Y-122570000D01*
X106620000Y-122570000D02*
X106450000Y-122380000D01*
X106450000Y-122380000D02*
X106270000Y-122210000D01*
X106270000Y-122210000D02*
X106590000Y-122250000D01*
X106590000Y-122250000D02*
X106710000Y-122380000D01*
X106710000Y-122380000D02*
X106910000Y-122620000D01*
X107800000Y-118490000D02*
X107350000Y-119550000D01*
X107350000Y-119550000D02*
X107070000Y-120000000D01*
X107070000Y-120000000D02*
X106910000Y-120450000D01*
X106910000Y-120450000D02*
X106910000Y-120890000D01*
X106910000Y-120890000D02*
X106910000Y-121400000D01*
X106910000Y-121400000D02*
X107070000Y-121960000D01*
X107070000Y-121960000D02*
X107070000Y-122350000D01*
X107070000Y-122350000D02*
X106850000Y-123300000D01*
X106850000Y-123300000D02*
X106740000Y-123740000D01*
X106740000Y-123740000D02*
X106790000Y-123740000D01*
X107790000Y-115960000D02*
X107940000Y-116080000D01*
X107940000Y-116080000D02*
X108030000Y-116270000D01*
X108030000Y-116270000D02*
X107930000Y-116370000D01*
X107930000Y-116370000D02*
X107770000Y-116430000D01*
X107770000Y-116430000D02*
X107590000Y-116390000D01*
X107590000Y-116390000D02*
X107470000Y-116220000D01*
X107470000Y-116220000D02*
X107500000Y-116100000D01*
X107500000Y-116100000D02*
X107590000Y-115990000D01*
X107590000Y-115990000D02*
X107770000Y-115950000D01*
X109010000Y-116080000D02*
X109130000Y-116300000D01*
X109130000Y-116300000D02*
X109150000Y-116450000D01*
X109150000Y-116450000D02*
X109050000Y-116540000D01*
X109050000Y-116540000D02*
X108900000Y-116620000D01*
X108900000Y-116620000D02*
X108750000Y-116520000D01*
X108750000Y-116520000D02*
X108630000Y-116370000D01*
X108630000Y-116370000D02*
X108610000Y-116270000D01*
X108610000Y-116270000D02*
X108720000Y-116190000D01*
X108720000Y-116190000D02*
X108980000Y-116130000D01*
X108860000Y-117120000D02*
X108520000Y-117390000D01*
X108520000Y-117390000D02*
X108370000Y-117460000D01*
X108370000Y-117460000D02*
X108180000Y-117460000D01*
X108180000Y-117460000D02*
X108030000Y-117460000D01*
X108030000Y-117460000D02*
X107870000Y-117460000D01*
X107870000Y-117460000D02*
X107720000Y-117390000D01*
X107720000Y-117390000D02*
X107490000Y-117200000D01*
X107490000Y-117200000D02*
X107380000Y-117000000D01*
X107380000Y-117000000D02*
X107260000Y-116780000D01*
X107260000Y-116780000D02*
X107340000Y-116850000D01*
X106730000Y-117040000D02*
X106310000Y-117540000D01*
X106310000Y-117540000D02*
X106080000Y-118070000D01*
X106080000Y-118070000D02*
X106080000Y-118530000D01*
X106080000Y-118530000D02*
X106270000Y-118800000D01*
X106270000Y-118800000D02*
X106620000Y-119060000D01*
X106620000Y-119060000D02*
X106960000Y-119060000D01*
X106960000Y-119060000D02*
X107260000Y-118910000D01*
X107260000Y-118910000D02*
X107450000Y-118720000D01*
X107450000Y-118720000D02*
X107680000Y-118340000D01*
X107680000Y-118340000D02*
X107840000Y-118110000D01*
X107070000Y-115820000D02*
X106430000Y-115630000D01*
X106430000Y-115630000D02*
X105930000Y-115600000D01*
X105930000Y-115600000D02*
X105400000Y-115940000D01*
X105400000Y-115940000D02*
X105320000Y-116360000D01*
X105320000Y-116360000D02*
X105320000Y-116660000D01*
X105320000Y-116660000D02*
X105470000Y-116970000D01*
X105470000Y-116970000D02*
X105820000Y-117080000D01*
X105820000Y-117080000D02*
X106120000Y-117160000D01*
X106120000Y-117160000D02*
X106460000Y-117120000D01*
X106460000Y-117120000D02*
X106690000Y-117040000D01*
X106690000Y-117040000D02*
X106850000Y-116970000D01*
X109400000Y-117540000D02*
X109550000Y-118110000D01*
X109550000Y-118110000D02*
X109590000Y-118680000D01*
X109590000Y-118680000D02*
X109320000Y-119210000D01*
X109320000Y-119210000D02*
X108830000Y-119520000D01*
X108830000Y-119520000D02*
X108250000Y-119410000D01*
X108250000Y-119410000D02*
X108030000Y-119060000D01*
X108030000Y-119060000D02*
X107910000Y-118720000D01*
X107910000Y-118720000D02*
X107840000Y-118380000D01*
X107840000Y-118380000D02*
X107840000Y-118110000D01*
X109550000Y-116090000D02*
X110080000Y-116320000D01*
X110080000Y-116320000D02*
X110500000Y-116590000D01*
X110500000Y-116590000D02*
X110660000Y-116890000D01*
X110660000Y-116890000D02*
X110730000Y-117160000D01*
X110730000Y-117160000D02*
X110730000Y-117420000D01*
X110730000Y-117420000D02*
X110660000Y-117650000D01*
X110660000Y-117650000D02*
X110310000Y-117960000D01*
X110310000Y-117960000D02*
X109930000Y-117960000D01*
X109930000Y-117960000D02*
X109740000Y-117840000D01*
X109740000Y-117840000D02*
X109470000Y-117540000D01*
X109470000Y-117540000D02*
X109400000Y-117540000D01*
X108180000Y-115290000D02*
X108520000Y-114680000D01*
X108520000Y-114680000D02*
X108860000Y-114490000D01*
X108860000Y-114490000D02*
X109440000Y-114410000D01*
X109440000Y-114410000D02*
X109860000Y-114570000D01*
X109860000Y-114570000D02*
X110160000Y-114870000D01*
X110160000Y-114870000D02*
X110270000Y-115480000D01*
X110270000Y-115480000D02*
X110080000Y-115900000D01*
X110080000Y-115900000D02*
X109820000Y-116050000D01*
X109820000Y-116050000D02*
X109590000Y-116090000D01*
X109590000Y-116090000D02*
X109510000Y-116090000D01*
X109510000Y-116090000D02*
X109510000Y-116130000D01*
X108180000Y-115250000D02*
X108030000Y-114870000D01*
X108030000Y-114870000D02*
X107800000Y-114680000D01*
X107800000Y-114680000D02*
X107450000Y-114380000D01*
X107450000Y-114380000D02*
X107070000Y-114340000D01*
X107070000Y-114340000D02*
X106690000Y-114490000D01*
X106690000Y-114490000D02*
X106540000Y-114790000D01*
X106540000Y-114790000D02*
X106500000Y-115140000D01*
X106500000Y-115140000D02*
X106540000Y-115330000D01*
X106540000Y-115330000D02*
X106690000Y-115480000D01*
X106690000Y-115480000D02*
X106880000Y-115560000D01*
X106880000Y-115560000D02*
X107110000Y-115670000D01*
X109584214Y-116690000D02*
G75*
G03X109584214Y-116690000I-1414214J0D01*
G01*
D12*
G04 #@! TO.C,BT1*
X89960000Y-104190000D02*
X100120000Y-104190000D01*
X89960000Y-111810000D02*
X89960000Y-104190000D01*
X100120000Y-111810000D02*
X89960000Y-111810000D01*
X100120000Y-104190000D02*
X100120000Y-111810000D01*
X100120000Y-105460000D02*
X89960000Y-105460000D01*
G04 #@! TO.C,U4*
X133150000Y-107300000D02*
X133850000Y-107300000D01*
X133850000Y-107300000D02*
X133850000Y-107200000D01*
X135050000Y-106800000D02*
X133850000Y-106800000D01*
X133850000Y-106800000D02*
X133850000Y-107200000D01*
X133850000Y-117200000D02*
X135050000Y-117200000D01*
X129425000Y-116700000D02*
X133850000Y-116700000D01*
X133850000Y-116700000D02*
X133850000Y-117200000D01*
G04 #@! TO.C,D1*
X175475000Y-86960000D02*
X172615000Y-86960000D01*
X172615000Y-86960000D02*
X172615000Y-85040000D01*
X172615000Y-85040000D02*
X175475000Y-85040000D01*
G04 #@! TO.C,D2*
X172640000Y-91040000D02*
X175500000Y-91040000D01*
X172640000Y-92960000D02*
X172640000Y-91040000D01*
X175500000Y-92960000D02*
X172640000Y-92960000D01*
G04 #@! TO.C,D3*
X101350000Y-86880000D02*
X98490000Y-86880000D01*
X98490000Y-86880000D02*
X98490000Y-84960000D01*
X98490000Y-84960000D02*
X101350000Y-84960000D01*
G04 #@! TO.C,D4*
X98565000Y-91040000D02*
X101425000Y-91040000D01*
X98565000Y-92960000D02*
X98565000Y-91040000D01*
X101425000Y-92960000D02*
X98565000Y-92960000D01*
G04 #@! TO.C,J1*
X147470000Y-131930000D02*
X147470000Y-129270000D01*
X160230000Y-131930000D02*
X147470000Y-131930000D01*
X160230000Y-129270000D02*
X147470000Y-129270000D01*
X160230000Y-131930000D02*
X160230000Y-129270000D01*
X161500000Y-131930000D02*
X162830000Y-131930000D01*
X162830000Y-131930000D02*
X162830000Y-130600000D01*
G04 #@! TO.C,R11*
X137328733Y-128410000D02*
X137671267Y-128410000D01*
X137328733Y-127390000D02*
X137671267Y-127390000D01*
G04 #@! TO.C,R12*
X137328733Y-126510000D02*
X137671267Y-126510000D01*
X137328733Y-125490000D02*
X137671267Y-125490000D01*
G04 #@! TO.C,R13*
X137328733Y-123490000D02*
X137671267Y-123490000D01*
X137328733Y-124510000D02*
X137671267Y-124510000D01*
G04 #@! TO.C,SC1*
X173960000Y-104190000D02*
X184120000Y-104190000D01*
X173960000Y-111810000D02*
X173960000Y-104190000D01*
X184120000Y-111810000D02*
X173960000Y-111810000D01*
X184120000Y-104190000D02*
X184120000Y-111810000D01*
X184120000Y-105460000D02*
X173960000Y-105460000D01*
D11*
G04 #@! TO.C,U3*
X171825000Y-129150000D02*
X167375000Y-129150000D01*
X173350000Y-122250000D02*
X167375000Y-122250000D01*
D12*
G04 #@! TO.C,D5*
X104980000Y-109840000D02*
X104980000Y-110720000D01*
X104980000Y-110720000D02*
X114720000Y-110720000D01*
X114720000Y-110720000D02*
X114720000Y-109840000D01*
X104980000Y-106160000D02*
X104980000Y-105280000D01*
X104980000Y-105280000D02*
X114720000Y-105280000D01*
X114720000Y-105280000D02*
X114720000Y-106160000D01*
X106525000Y-110720000D02*
X106525000Y-105280000D01*
X106645000Y-110720000D02*
X106645000Y-105280000D01*
X106405000Y-110720000D02*
X106405000Y-105280000D01*
G04 #@! TO.C,J1*
D11*
X163282380Y-130266666D02*
X163996666Y-130266666D01*
X164139523Y-130219047D01*
X164234761Y-130123809D01*
X164282380Y-129980952D01*
X164282380Y-129885714D01*
X164282380Y-131266666D02*
X164282380Y-130695238D01*
X164282380Y-130980952D02*
X163282380Y-130980952D01*
X163425238Y-130885714D01*
X163520476Y-130790476D01*
X163568095Y-130695238D01*
G04 #@! TO.C,U3*
X171261904Y-122702380D02*
X171261904Y-123511904D01*
X171214285Y-123607142D01*
X171166666Y-123654761D01*
X171071428Y-123702380D01*
X170880952Y-123702380D01*
X170785714Y-123654761D01*
X170738095Y-123607142D01*
X170690476Y-123511904D01*
X170690476Y-122702380D01*
X170309523Y-122702380D02*
X169690476Y-122702380D01*
X170023809Y-123083333D01*
X169880952Y-123083333D01*
X169785714Y-123130952D01*
X169738095Y-123178571D01*
X169690476Y-123273809D01*
X169690476Y-123511904D01*
X169738095Y-123607142D01*
X169785714Y-123654761D01*
X169880952Y-123702380D01*
X170166666Y-123702380D01*
X170261904Y-123654761D01*
X170309523Y-123607142D01*
G04 #@! TO.C,D5*
X110988095Y-108452380D02*
X110988095Y-107452380D01*
X110750000Y-107452380D01*
X110607142Y-107500000D01*
X110511904Y-107595238D01*
X110464285Y-107690476D01*
X110416666Y-107880952D01*
X110416666Y-108023809D01*
X110464285Y-108214285D01*
X110511904Y-108309523D01*
X110607142Y-108404761D01*
X110750000Y-108452380D01*
X110988095Y-108452380D01*
X109511904Y-107452380D02*
X109988095Y-107452380D01*
X110035714Y-107928571D01*
X109988095Y-107880952D01*
X109892857Y-107833333D01*
X109654761Y-107833333D01*
X109559523Y-107880952D01*
X109511904Y-107928571D01*
X109464285Y-108023809D01*
X109464285Y-108261904D01*
X109511904Y-108357142D01*
X109559523Y-108404761D01*
X109654761Y-108452380D01*
X109892857Y-108452380D01*
X109988095Y-108404761D01*
X110035714Y-108357142D01*
X106011904Y-108452380D02*
X106011904Y-107452380D01*
X105440476Y-108452380D02*
X105869047Y-107880952D01*
X105440476Y-107452380D02*
X106011904Y-108023809D01*
G04 #@! TD*
M02*
