G04 #@! TF.GenerationSoftware,KiCad,Pcbnew,5.0.2-bee76a0~70~ubuntu16.04.1*
G04 #@! TF.CreationDate,2019-03-17T10:40:41+00:00*
G04 #@! TF.ProjectId,project,70726f6a-6563-4742-9e6b-696361645f70,rev?*
G04 #@! TF.SameCoordinates,Original*
G04 #@! TF.FileFunction,Soldermask,Bot*
G04 #@! TF.FilePolarity,Negative*
%FSLAX46Y46*%
G04 Gerber Fmt 4.6, Leading zero omitted, Abs format (unit mm)*
G04 Created by KiCad (PCBNEW 5.0.2-bee76a0~70~ubuntu16.04.1) date Sun 17 Mar 2019 10:40:41 GMT*
%MOMM*%
%LPD*%
G01*
G04 APERTURE LIST*
%ADD10C,0.150000*%
%ADD11C,0.127000*%
%ADD12C,0.076200*%
%ADD13C,0.101600*%
%ADD14C,3.000000*%
%ADD15R,3.000000X3.000000*%
%ADD16R,9.400000X10.800000*%
%ADD17R,4.600000X0.800000*%
%ADD18R,4.600000X2.000000*%
%ADD19C,0.100000*%
%ADD20C,1.150000*%
%ADD21R,1.700000X1.700000*%
%ADD22O,1.700000X1.700000*%
%ADD23C,0.950000*%
%ADD24R,1.450000X0.450000*%
%ADD25R,3.200000X3.200000*%
%ADD26O,3.200000X3.200000*%
%ADD27C,6.400000*%
%ADD28C,0.254000*%
G04 APERTURE END LIST*
D10*
G04 #@! TO.C,REF\002A\002A*
X178911623Y-101200000D02*
G75*
G03X178911623Y-101200000I-31623J0D01*
G01*
D11*
X179430000Y-101280000D02*
G75*
G03X179430000Y-101280000I-410000J0D01*
G01*
D10*
X179191623Y-101200000D02*
G75*
G03X179191623Y-101200000I-31623J0D01*
G01*
D12*
X179210000Y-101420000D02*
X179090000Y-101490000D01*
X179090000Y-101490000D02*
X178960000Y-101480000D01*
X178960000Y-101480000D02*
X178840000Y-101390000D01*
D13*
X179130000Y-100810000D02*
X179400000Y-100670000D01*
X179400000Y-100670000D02*
X179680000Y-100740000D01*
X179680000Y-100740000D02*
X179790000Y-100930000D01*
X179790000Y-100930000D02*
X179680000Y-101100000D01*
X179680000Y-101100000D02*
X179470000Y-101150000D01*
X179460000Y-101220000D02*
X179730000Y-101270000D01*
X179730000Y-101270000D02*
X179820000Y-101420000D01*
X179820000Y-101420000D02*
X179780000Y-101550000D01*
X179780000Y-101550000D02*
X179660000Y-101630000D01*
X179660000Y-101630000D02*
X179410000Y-101570000D01*
X179390000Y-101590000D02*
X179470000Y-101790000D01*
X179470000Y-101790000D02*
X179460000Y-101980000D01*
X179460000Y-101980000D02*
X179350000Y-102020000D01*
X179350000Y-102020000D02*
X179230000Y-101980000D01*
X179230000Y-101980000D02*
X179170000Y-101870000D01*
X179170000Y-101870000D02*
X179150000Y-101760000D01*
X179150000Y-101760000D02*
X179130000Y-101740000D01*
X179130000Y-101740000D02*
X179160000Y-101760000D01*
X179160000Y-101760000D02*
X179170000Y-101730000D01*
X179060000Y-100850000D02*
X178970000Y-100580000D01*
X178970000Y-100580000D02*
X178810000Y-100520000D01*
X178810000Y-100520000D02*
X178640000Y-100550000D01*
X178640000Y-100550000D02*
X178590000Y-100660000D01*
X178590000Y-100660000D02*
X178610000Y-100770000D01*
X178610000Y-100770000D02*
X178700000Y-100910000D01*
X178730000Y-100900000D02*
X178360000Y-100890000D01*
X178360000Y-100890000D02*
X178250000Y-100990000D01*
X178250000Y-100990000D02*
X178230000Y-101140000D01*
X178230000Y-101140000D02*
X178330000Y-101210000D01*
X178330000Y-101210000D02*
X178480000Y-101220000D01*
X178480000Y-101220000D02*
X178580000Y-101220000D01*
X178580000Y-101250000D02*
X178400000Y-101360000D01*
X178400000Y-101360000D02*
X178300000Y-101500000D01*
X178300000Y-101500000D02*
X178300000Y-101640000D01*
X178300000Y-101640000D02*
X178340000Y-101740000D01*
X178340000Y-101740000D02*
X178450000Y-101780000D01*
X178450000Y-101780000D02*
X178580000Y-101750000D01*
X178580000Y-101750000D02*
X178670000Y-101620000D01*
X179100000Y-101750000D02*
X179030000Y-101940000D01*
X179030000Y-101940000D02*
X178910000Y-102070000D01*
X178910000Y-102070000D02*
X178790000Y-102040000D01*
X178790000Y-102040000D02*
X178740000Y-101950000D01*
X178740000Y-101950000D02*
X178760000Y-101850000D01*
X178760000Y-101850000D02*
X178760000Y-101680000D01*
X179130000Y-101840000D02*
X179040000Y-102270000D01*
X179040000Y-102270000D02*
X178820000Y-102570000D01*
X178820000Y-102570000D02*
X178700000Y-102850000D01*
X178700000Y-102850000D02*
X178740000Y-103070000D01*
X178740000Y-103070000D02*
X178580000Y-102550000D01*
G04 #@! TD*
D14*
G04 #@! TO.C,BT1*
X92500000Y-102000000D03*
D15*
X92500000Y-96000000D03*
D14*
X92500000Y-108000000D03*
D15*
X97580000Y-108000000D03*
G04 #@! TD*
D16*
G04 #@! TO.C,U4*
X140875000Y-112000000D03*
D17*
X131725000Y-109460000D03*
X131725000Y-110730000D03*
X131725000Y-113270000D03*
D18*
X131725000Y-114540000D03*
D17*
X131725000Y-115810000D03*
X131725000Y-112000000D03*
X131725000Y-108190000D03*
G04 #@! TD*
D19*
G04 #@! TO.C,D1*
G36*
X173799505Y-85301204D02*
X173823773Y-85304804D01*
X173847572Y-85310765D01*
X173870671Y-85319030D01*
X173892850Y-85329520D01*
X173913893Y-85342132D01*
X173933599Y-85356747D01*
X173951777Y-85373223D01*
X173968253Y-85391401D01*
X173982868Y-85411107D01*
X173995480Y-85432150D01*
X174005970Y-85454329D01*
X174014235Y-85477428D01*
X174020196Y-85501227D01*
X174023796Y-85525495D01*
X174025000Y-85549999D01*
X174025000Y-86450001D01*
X174023796Y-86474505D01*
X174020196Y-86498773D01*
X174014235Y-86522572D01*
X174005970Y-86545671D01*
X173995480Y-86567850D01*
X173982868Y-86588893D01*
X173968253Y-86608599D01*
X173951777Y-86626777D01*
X173933599Y-86643253D01*
X173913893Y-86657868D01*
X173892850Y-86670480D01*
X173870671Y-86680970D01*
X173847572Y-86689235D01*
X173823773Y-86695196D01*
X173799505Y-86698796D01*
X173775001Y-86700000D01*
X173124999Y-86700000D01*
X173100495Y-86698796D01*
X173076227Y-86695196D01*
X173052428Y-86689235D01*
X173029329Y-86680970D01*
X173007150Y-86670480D01*
X172986107Y-86657868D01*
X172966401Y-86643253D01*
X172948223Y-86626777D01*
X172931747Y-86608599D01*
X172917132Y-86588893D01*
X172904520Y-86567850D01*
X172894030Y-86545671D01*
X172885765Y-86522572D01*
X172879804Y-86498773D01*
X172876204Y-86474505D01*
X172875000Y-86450001D01*
X172875000Y-85549999D01*
X172876204Y-85525495D01*
X172879804Y-85501227D01*
X172885765Y-85477428D01*
X172894030Y-85454329D01*
X172904520Y-85432150D01*
X172917132Y-85411107D01*
X172931747Y-85391401D01*
X172948223Y-85373223D01*
X172966401Y-85356747D01*
X172986107Y-85342132D01*
X173007150Y-85329520D01*
X173029329Y-85319030D01*
X173052428Y-85310765D01*
X173076227Y-85304804D01*
X173100495Y-85301204D01*
X173124999Y-85300000D01*
X173775001Y-85300000D01*
X173799505Y-85301204D01*
X173799505Y-85301204D01*
G37*
D20*
X173450000Y-86000000D03*
D19*
G36*
X175849505Y-85301204D02*
X175873773Y-85304804D01*
X175897572Y-85310765D01*
X175920671Y-85319030D01*
X175942850Y-85329520D01*
X175963893Y-85342132D01*
X175983599Y-85356747D01*
X176001777Y-85373223D01*
X176018253Y-85391401D01*
X176032868Y-85411107D01*
X176045480Y-85432150D01*
X176055970Y-85454329D01*
X176064235Y-85477428D01*
X176070196Y-85501227D01*
X176073796Y-85525495D01*
X176075000Y-85549999D01*
X176075000Y-86450001D01*
X176073796Y-86474505D01*
X176070196Y-86498773D01*
X176064235Y-86522572D01*
X176055970Y-86545671D01*
X176045480Y-86567850D01*
X176032868Y-86588893D01*
X176018253Y-86608599D01*
X176001777Y-86626777D01*
X175983599Y-86643253D01*
X175963893Y-86657868D01*
X175942850Y-86670480D01*
X175920671Y-86680970D01*
X175897572Y-86689235D01*
X175873773Y-86695196D01*
X175849505Y-86698796D01*
X175825001Y-86700000D01*
X175174999Y-86700000D01*
X175150495Y-86698796D01*
X175126227Y-86695196D01*
X175102428Y-86689235D01*
X175079329Y-86680970D01*
X175057150Y-86670480D01*
X175036107Y-86657868D01*
X175016401Y-86643253D01*
X174998223Y-86626777D01*
X174981747Y-86608599D01*
X174967132Y-86588893D01*
X174954520Y-86567850D01*
X174944030Y-86545671D01*
X174935765Y-86522572D01*
X174929804Y-86498773D01*
X174926204Y-86474505D01*
X174925000Y-86450001D01*
X174925000Y-85549999D01*
X174926204Y-85525495D01*
X174929804Y-85501227D01*
X174935765Y-85477428D01*
X174944030Y-85454329D01*
X174954520Y-85432150D01*
X174967132Y-85411107D01*
X174981747Y-85391401D01*
X174998223Y-85373223D01*
X175016401Y-85356747D01*
X175036107Y-85342132D01*
X175057150Y-85329520D01*
X175079329Y-85319030D01*
X175102428Y-85310765D01*
X175126227Y-85304804D01*
X175150495Y-85301204D01*
X175174999Y-85300000D01*
X175825001Y-85300000D01*
X175849505Y-85301204D01*
X175849505Y-85301204D01*
G37*
D20*
X175500000Y-86000000D03*
G04 #@! TD*
D19*
G04 #@! TO.C,D2*
G36*
X175874505Y-91301204D02*
X175898773Y-91304804D01*
X175922572Y-91310765D01*
X175945671Y-91319030D01*
X175967850Y-91329520D01*
X175988893Y-91342132D01*
X176008599Y-91356747D01*
X176026777Y-91373223D01*
X176043253Y-91391401D01*
X176057868Y-91411107D01*
X176070480Y-91432150D01*
X176080970Y-91454329D01*
X176089235Y-91477428D01*
X176095196Y-91501227D01*
X176098796Y-91525495D01*
X176100000Y-91549999D01*
X176100000Y-92450001D01*
X176098796Y-92474505D01*
X176095196Y-92498773D01*
X176089235Y-92522572D01*
X176080970Y-92545671D01*
X176070480Y-92567850D01*
X176057868Y-92588893D01*
X176043253Y-92608599D01*
X176026777Y-92626777D01*
X176008599Y-92643253D01*
X175988893Y-92657868D01*
X175967850Y-92670480D01*
X175945671Y-92680970D01*
X175922572Y-92689235D01*
X175898773Y-92695196D01*
X175874505Y-92698796D01*
X175850001Y-92700000D01*
X175199999Y-92700000D01*
X175175495Y-92698796D01*
X175151227Y-92695196D01*
X175127428Y-92689235D01*
X175104329Y-92680970D01*
X175082150Y-92670480D01*
X175061107Y-92657868D01*
X175041401Y-92643253D01*
X175023223Y-92626777D01*
X175006747Y-92608599D01*
X174992132Y-92588893D01*
X174979520Y-92567850D01*
X174969030Y-92545671D01*
X174960765Y-92522572D01*
X174954804Y-92498773D01*
X174951204Y-92474505D01*
X174950000Y-92450001D01*
X174950000Y-91549999D01*
X174951204Y-91525495D01*
X174954804Y-91501227D01*
X174960765Y-91477428D01*
X174969030Y-91454329D01*
X174979520Y-91432150D01*
X174992132Y-91411107D01*
X175006747Y-91391401D01*
X175023223Y-91373223D01*
X175041401Y-91356747D01*
X175061107Y-91342132D01*
X175082150Y-91329520D01*
X175104329Y-91319030D01*
X175127428Y-91310765D01*
X175151227Y-91304804D01*
X175175495Y-91301204D01*
X175199999Y-91300000D01*
X175850001Y-91300000D01*
X175874505Y-91301204D01*
X175874505Y-91301204D01*
G37*
D20*
X175525000Y-92000000D03*
D19*
G36*
X173824505Y-91301204D02*
X173848773Y-91304804D01*
X173872572Y-91310765D01*
X173895671Y-91319030D01*
X173917850Y-91329520D01*
X173938893Y-91342132D01*
X173958599Y-91356747D01*
X173976777Y-91373223D01*
X173993253Y-91391401D01*
X174007868Y-91411107D01*
X174020480Y-91432150D01*
X174030970Y-91454329D01*
X174039235Y-91477428D01*
X174045196Y-91501227D01*
X174048796Y-91525495D01*
X174050000Y-91549999D01*
X174050000Y-92450001D01*
X174048796Y-92474505D01*
X174045196Y-92498773D01*
X174039235Y-92522572D01*
X174030970Y-92545671D01*
X174020480Y-92567850D01*
X174007868Y-92588893D01*
X173993253Y-92608599D01*
X173976777Y-92626777D01*
X173958599Y-92643253D01*
X173938893Y-92657868D01*
X173917850Y-92670480D01*
X173895671Y-92680970D01*
X173872572Y-92689235D01*
X173848773Y-92695196D01*
X173824505Y-92698796D01*
X173800001Y-92700000D01*
X173149999Y-92700000D01*
X173125495Y-92698796D01*
X173101227Y-92695196D01*
X173077428Y-92689235D01*
X173054329Y-92680970D01*
X173032150Y-92670480D01*
X173011107Y-92657868D01*
X172991401Y-92643253D01*
X172973223Y-92626777D01*
X172956747Y-92608599D01*
X172942132Y-92588893D01*
X172929520Y-92567850D01*
X172919030Y-92545671D01*
X172910765Y-92522572D01*
X172904804Y-92498773D01*
X172901204Y-92474505D01*
X172900000Y-92450001D01*
X172900000Y-91549999D01*
X172901204Y-91525495D01*
X172904804Y-91501227D01*
X172910765Y-91477428D01*
X172919030Y-91454329D01*
X172929520Y-91432150D01*
X172942132Y-91411107D01*
X172956747Y-91391401D01*
X172973223Y-91373223D01*
X172991401Y-91356747D01*
X173011107Y-91342132D01*
X173032150Y-91329520D01*
X173054329Y-91319030D01*
X173077428Y-91310765D01*
X173101227Y-91304804D01*
X173125495Y-91301204D01*
X173149999Y-91300000D01*
X173800001Y-91300000D01*
X173824505Y-91301204D01*
X173824505Y-91301204D01*
G37*
D20*
X173475000Y-92000000D03*
G04 #@! TD*
D19*
G04 #@! TO.C,D3*
G36*
X99674505Y-85221204D02*
X99698773Y-85224804D01*
X99722572Y-85230765D01*
X99745671Y-85239030D01*
X99767850Y-85249520D01*
X99788893Y-85262132D01*
X99808599Y-85276747D01*
X99826777Y-85293223D01*
X99843253Y-85311401D01*
X99857868Y-85331107D01*
X99870480Y-85352150D01*
X99880970Y-85374329D01*
X99889235Y-85397428D01*
X99895196Y-85421227D01*
X99898796Y-85445495D01*
X99900000Y-85469999D01*
X99900000Y-86370001D01*
X99898796Y-86394505D01*
X99895196Y-86418773D01*
X99889235Y-86442572D01*
X99880970Y-86465671D01*
X99870480Y-86487850D01*
X99857868Y-86508893D01*
X99843253Y-86528599D01*
X99826777Y-86546777D01*
X99808599Y-86563253D01*
X99788893Y-86577868D01*
X99767850Y-86590480D01*
X99745671Y-86600970D01*
X99722572Y-86609235D01*
X99698773Y-86615196D01*
X99674505Y-86618796D01*
X99650001Y-86620000D01*
X98999999Y-86620000D01*
X98975495Y-86618796D01*
X98951227Y-86615196D01*
X98927428Y-86609235D01*
X98904329Y-86600970D01*
X98882150Y-86590480D01*
X98861107Y-86577868D01*
X98841401Y-86563253D01*
X98823223Y-86546777D01*
X98806747Y-86528599D01*
X98792132Y-86508893D01*
X98779520Y-86487850D01*
X98769030Y-86465671D01*
X98760765Y-86442572D01*
X98754804Y-86418773D01*
X98751204Y-86394505D01*
X98750000Y-86370001D01*
X98750000Y-85469999D01*
X98751204Y-85445495D01*
X98754804Y-85421227D01*
X98760765Y-85397428D01*
X98769030Y-85374329D01*
X98779520Y-85352150D01*
X98792132Y-85331107D01*
X98806747Y-85311401D01*
X98823223Y-85293223D01*
X98841401Y-85276747D01*
X98861107Y-85262132D01*
X98882150Y-85249520D01*
X98904329Y-85239030D01*
X98927428Y-85230765D01*
X98951227Y-85224804D01*
X98975495Y-85221204D01*
X98999999Y-85220000D01*
X99650001Y-85220000D01*
X99674505Y-85221204D01*
X99674505Y-85221204D01*
G37*
D20*
X99325000Y-85920000D03*
D19*
G36*
X101724505Y-85221204D02*
X101748773Y-85224804D01*
X101772572Y-85230765D01*
X101795671Y-85239030D01*
X101817850Y-85249520D01*
X101838893Y-85262132D01*
X101858599Y-85276747D01*
X101876777Y-85293223D01*
X101893253Y-85311401D01*
X101907868Y-85331107D01*
X101920480Y-85352150D01*
X101930970Y-85374329D01*
X101939235Y-85397428D01*
X101945196Y-85421227D01*
X101948796Y-85445495D01*
X101950000Y-85469999D01*
X101950000Y-86370001D01*
X101948796Y-86394505D01*
X101945196Y-86418773D01*
X101939235Y-86442572D01*
X101930970Y-86465671D01*
X101920480Y-86487850D01*
X101907868Y-86508893D01*
X101893253Y-86528599D01*
X101876777Y-86546777D01*
X101858599Y-86563253D01*
X101838893Y-86577868D01*
X101817850Y-86590480D01*
X101795671Y-86600970D01*
X101772572Y-86609235D01*
X101748773Y-86615196D01*
X101724505Y-86618796D01*
X101700001Y-86620000D01*
X101049999Y-86620000D01*
X101025495Y-86618796D01*
X101001227Y-86615196D01*
X100977428Y-86609235D01*
X100954329Y-86600970D01*
X100932150Y-86590480D01*
X100911107Y-86577868D01*
X100891401Y-86563253D01*
X100873223Y-86546777D01*
X100856747Y-86528599D01*
X100842132Y-86508893D01*
X100829520Y-86487850D01*
X100819030Y-86465671D01*
X100810765Y-86442572D01*
X100804804Y-86418773D01*
X100801204Y-86394505D01*
X100800000Y-86370001D01*
X100800000Y-85469999D01*
X100801204Y-85445495D01*
X100804804Y-85421227D01*
X100810765Y-85397428D01*
X100819030Y-85374329D01*
X100829520Y-85352150D01*
X100842132Y-85331107D01*
X100856747Y-85311401D01*
X100873223Y-85293223D01*
X100891401Y-85276747D01*
X100911107Y-85262132D01*
X100932150Y-85249520D01*
X100954329Y-85239030D01*
X100977428Y-85230765D01*
X101001227Y-85224804D01*
X101025495Y-85221204D01*
X101049999Y-85220000D01*
X101700001Y-85220000D01*
X101724505Y-85221204D01*
X101724505Y-85221204D01*
G37*
D20*
X101375000Y-85920000D03*
G04 #@! TD*
D19*
G04 #@! TO.C,D4*
G36*
X101799505Y-91301204D02*
X101823773Y-91304804D01*
X101847572Y-91310765D01*
X101870671Y-91319030D01*
X101892850Y-91329520D01*
X101913893Y-91342132D01*
X101933599Y-91356747D01*
X101951777Y-91373223D01*
X101968253Y-91391401D01*
X101982868Y-91411107D01*
X101995480Y-91432150D01*
X102005970Y-91454329D01*
X102014235Y-91477428D01*
X102020196Y-91501227D01*
X102023796Y-91525495D01*
X102025000Y-91549999D01*
X102025000Y-92450001D01*
X102023796Y-92474505D01*
X102020196Y-92498773D01*
X102014235Y-92522572D01*
X102005970Y-92545671D01*
X101995480Y-92567850D01*
X101982868Y-92588893D01*
X101968253Y-92608599D01*
X101951777Y-92626777D01*
X101933599Y-92643253D01*
X101913893Y-92657868D01*
X101892850Y-92670480D01*
X101870671Y-92680970D01*
X101847572Y-92689235D01*
X101823773Y-92695196D01*
X101799505Y-92698796D01*
X101775001Y-92700000D01*
X101124999Y-92700000D01*
X101100495Y-92698796D01*
X101076227Y-92695196D01*
X101052428Y-92689235D01*
X101029329Y-92680970D01*
X101007150Y-92670480D01*
X100986107Y-92657868D01*
X100966401Y-92643253D01*
X100948223Y-92626777D01*
X100931747Y-92608599D01*
X100917132Y-92588893D01*
X100904520Y-92567850D01*
X100894030Y-92545671D01*
X100885765Y-92522572D01*
X100879804Y-92498773D01*
X100876204Y-92474505D01*
X100875000Y-92450001D01*
X100875000Y-91549999D01*
X100876204Y-91525495D01*
X100879804Y-91501227D01*
X100885765Y-91477428D01*
X100894030Y-91454329D01*
X100904520Y-91432150D01*
X100917132Y-91411107D01*
X100931747Y-91391401D01*
X100948223Y-91373223D01*
X100966401Y-91356747D01*
X100986107Y-91342132D01*
X101007150Y-91329520D01*
X101029329Y-91319030D01*
X101052428Y-91310765D01*
X101076227Y-91304804D01*
X101100495Y-91301204D01*
X101124999Y-91300000D01*
X101775001Y-91300000D01*
X101799505Y-91301204D01*
X101799505Y-91301204D01*
G37*
D20*
X101450000Y-92000000D03*
D19*
G36*
X99749505Y-91301204D02*
X99773773Y-91304804D01*
X99797572Y-91310765D01*
X99820671Y-91319030D01*
X99842850Y-91329520D01*
X99863893Y-91342132D01*
X99883599Y-91356747D01*
X99901777Y-91373223D01*
X99918253Y-91391401D01*
X99932868Y-91411107D01*
X99945480Y-91432150D01*
X99955970Y-91454329D01*
X99964235Y-91477428D01*
X99970196Y-91501227D01*
X99973796Y-91525495D01*
X99975000Y-91549999D01*
X99975000Y-92450001D01*
X99973796Y-92474505D01*
X99970196Y-92498773D01*
X99964235Y-92522572D01*
X99955970Y-92545671D01*
X99945480Y-92567850D01*
X99932868Y-92588893D01*
X99918253Y-92608599D01*
X99901777Y-92626777D01*
X99883599Y-92643253D01*
X99863893Y-92657868D01*
X99842850Y-92670480D01*
X99820671Y-92680970D01*
X99797572Y-92689235D01*
X99773773Y-92695196D01*
X99749505Y-92698796D01*
X99725001Y-92700000D01*
X99074999Y-92700000D01*
X99050495Y-92698796D01*
X99026227Y-92695196D01*
X99002428Y-92689235D01*
X98979329Y-92680970D01*
X98957150Y-92670480D01*
X98936107Y-92657868D01*
X98916401Y-92643253D01*
X98898223Y-92626777D01*
X98881747Y-92608599D01*
X98867132Y-92588893D01*
X98854520Y-92567850D01*
X98844030Y-92545671D01*
X98835765Y-92522572D01*
X98829804Y-92498773D01*
X98826204Y-92474505D01*
X98825000Y-92450001D01*
X98825000Y-91549999D01*
X98826204Y-91525495D01*
X98829804Y-91501227D01*
X98835765Y-91477428D01*
X98844030Y-91454329D01*
X98854520Y-91432150D01*
X98867132Y-91411107D01*
X98881747Y-91391401D01*
X98898223Y-91373223D01*
X98916401Y-91356747D01*
X98936107Y-91342132D01*
X98957150Y-91329520D01*
X98979329Y-91319030D01*
X99002428Y-91310765D01*
X99026227Y-91304804D01*
X99050495Y-91301204D01*
X99074999Y-91300000D01*
X99725001Y-91300000D01*
X99749505Y-91301204D01*
X99749505Y-91301204D01*
G37*
D20*
X99400000Y-92000000D03*
G04 #@! TD*
D21*
G04 #@! TO.C,J1*
X161500000Y-130600000D03*
D22*
X158960000Y-130600000D03*
X156420000Y-130600000D03*
X153880000Y-130600000D03*
X151340000Y-130600000D03*
X148800000Y-130600000D03*
G04 #@! TD*
D19*
G04 #@! TO.C,R11*
G36*
X136935779Y-127426144D02*
X136958834Y-127429563D01*
X136981443Y-127435227D01*
X137003387Y-127443079D01*
X137024457Y-127453044D01*
X137044448Y-127465026D01*
X137063168Y-127478910D01*
X137080438Y-127494562D01*
X137096090Y-127511832D01*
X137109974Y-127530552D01*
X137121956Y-127550543D01*
X137131921Y-127571613D01*
X137139773Y-127593557D01*
X137145437Y-127616166D01*
X137148856Y-127639221D01*
X137150000Y-127662500D01*
X137150000Y-128137500D01*
X137148856Y-128160779D01*
X137145437Y-128183834D01*
X137139773Y-128206443D01*
X137131921Y-128228387D01*
X137121956Y-128249457D01*
X137109974Y-128269448D01*
X137096090Y-128288168D01*
X137080438Y-128305438D01*
X137063168Y-128321090D01*
X137044448Y-128334974D01*
X137024457Y-128346956D01*
X137003387Y-128356921D01*
X136981443Y-128364773D01*
X136958834Y-128370437D01*
X136935779Y-128373856D01*
X136912500Y-128375000D01*
X136337500Y-128375000D01*
X136314221Y-128373856D01*
X136291166Y-128370437D01*
X136268557Y-128364773D01*
X136246613Y-128356921D01*
X136225543Y-128346956D01*
X136205552Y-128334974D01*
X136186832Y-128321090D01*
X136169562Y-128305438D01*
X136153910Y-128288168D01*
X136140026Y-128269448D01*
X136128044Y-128249457D01*
X136118079Y-128228387D01*
X136110227Y-128206443D01*
X136104563Y-128183834D01*
X136101144Y-128160779D01*
X136100000Y-128137500D01*
X136100000Y-127662500D01*
X136101144Y-127639221D01*
X136104563Y-127616166D01*
X136110227Y-127593557D01*
X136118079Y-127571613D01*
X136128044Y-127550543D01*
X136140026Y-127530552D01*
X136153910Y-127511832D01*
X136169562Y-127494562D01*
X136186832Y-127478910D01*
X136205552Y-127465026D01*
X136225543Y-127453044D01*
X136246613Y-127443079D01*
X136268557Y-127435227D01*
X136291166Y-127429563D01*
X136314221Y-127426144D01*
X136337500Y-127425000D01*
X136912500Y-127425000D01*
X136935779Y-127426144D01*
X136935779Y-127426144D01*
G37*
D23*
X136625000Y-127900000D03*
D19*
G36*
X138685779Y-127426144D02*
X138708834Y-127429563D01*
X138731443Y-127435227D01*
X138753387Y-127443079D01*
X138774457Y-127453044D01*
X138794448Y-127465026D01*
X138813168Y-127478910D01*
X138830438Y-127494562D01*
X138846090Y-127511832D01*
X138859974Y-127530552D01*
X138871956Y-127550543D01*
X138881921Y-127571613D01*
X138889773Y-127593557D01*
X138895437Y-127616166D01*
X138898856Y-127639221D01*
X138900000Y-127662500D01*
X138900000Y-128137500D01*
X138898856Y-128160779D01*
X138895437Y-128183834D01*
X138889773Y-128206443D01*
X138881921Y-128228387D01*
X138871956Y-128249457D01*
X138859974Y-128269448D01*
X138846090Y-128288168D01*
X138830438Y-128305438D01*
X138813168Y-128321090D01*
X138794448Y-128334974D01*
X138774457Y-128346956D01*
X138753387Y-128356921D01*
X138731443Y-128364773D01*
X138708834Y-128370437D01*
X138685779Y-128373856D01*
X138662500Y-128375000D01*
X138087500Y-128375000D01*
X138064221Y-128373856D01*
X138041166Y-128370437D01*
X138018557Y-128364773D01*
X137996613Y-128356921D01*
X137975543Y-128346956D01*
X137955552Y-128334974D01*
X137936832Y-128321090D01*
X137919562Y-128305438D01*
X137903910Y-128288168D01*
X137890026Y-128269448D01*
X137878044Y-128249457D01*
X137868079Y-128228387D01*
X137860227Y-128206443D01*
X137854563Y-128183834D01*
X137851144Y-128160779D01*
X137850000Y-128137500D01*
X137850000Y-127662500D01*
X137851144Y-127639221D01*
X137854563Y-127616166D01*
X137860227Y-127593557D01*
X137868079Y-127571613D01*
X137878044Y-127550543D01*
X137890026Y-127530552D01*
X137903910Y-127511832D01*
X137919562Y-127494562D01*
X137936832Y-127478910D01*
X137955552Y-127465026D01*
X137975543Y-127453044D01*
X137996613Y-127443079D01*
X138018557Y-127435227D01*
X138041166Y-127429563D01*
X138064221Y-127426144D01*
X138087500Y-127425000D01*
X138662500Y-127425000D01*
X138685779Y-127426144D01*
X138685779Y-127426144D01*
G37*
D23*
X138375000Y-127900000D03*
G04 #@! TD*
D19*
G04 #@! TO.C,R12*
G36*
X136935779Y-125526144D02*
X136958834Y-125529563D01*
X136981443Y-125535227D01*
X137003387Y-125543079D01*
X137024457Y-125553044D01*
X137044448Y-125565026D01*
X137063168Y-125578910D01*
X137080438Y-125594562D01*
X137096090Y-125611832D01*
X137109974Y-125630552D01*
X137121956Y-125650543D01*
X137131921Y-125671613D01*
X137139773Y-125693557D01*
X137145437Y-125716166D01*
X137148856Y-125739221D01*
X137150000Y-125762500D01*
X137150000Y-126237500D01*
X137148856Y-126260779D01*
X137145437Y-126283834D01*
X137139773Y-126306443D01*
X137131921Y-126328387D01*
X137121956Y-126349457D01*
X137109974Y-126369448D01*
X137096090Y-126388168D01*
X137080438Y-126405438D01*
X137063168Y-126421090D01*
X137044448Y-126434974D01*
X137024457Y-126446956D01*
X137003387Y-126456921D01*
X136981443Y-126464773D01*
X136958834Y-126470437D01*
X136935779Y-126473856D01*
X136912500Y-126475000D01*
X136337500Y-126475000D01*
X136314221Y-126473856D01*
X136291166Y-126470437D01*
X136268557Y-126464773D01*
X136246613Y-126456921D01*
X136225543Y-126446956D01*
X136205552Y-126434974D01*
X136186832Y-126421090D01*
X136169562Y-126405438D01*
X136153910Y-126388168D01*
X136140026Y-126369448D01*
X136128044Y-126349457D01*
X136118079Y-126328387D01*
X136110227Y-126306443D01*
X136104563Y-126283834D01*
X136101144Y-126260779D01*
X136100000Y-126237500D01*
X136100000Y-125762500D01*
X136101144Y-125739221D01*
X136104563Y-125716166D01*
X136110227Y-125693557D01*
X136118079Y-125671613D01*
X136128044Y-125650543D01*
X136140026Y-125630552D01*
X136153910Y-125611832D01*
X136169562Y-125594562D01*
X136186832Y-125578910D01*
X136205552Y-125565026D01*
X136225543Y-125553044D01*
X136246613Y-125543079D01*
X136268557Y-125535227D01*
X136291166Y-125529563D01*
X136314221Y-125526144D01*
X136337500Y-125525000D01*
X136912500Y-125525000D01*
X136935779Y-125526144D01*
X136935779Y-125526144D01*
G37*
D23*
X136625000Y-126000000D03*
D19*
G36*
X138685779Y-125526144D02*
X138708834Y-125529563D01*
X138731443Y-125535227D01*
X138753387Y-125543079D01*
X138774457Y-125553044D01*
X138794448Y-125565026D01*
X138813168Y-125578910D01*
X138830438Y-125594562D01*
X138846090Y-125611832D01*
X138859974Y-125630552D01*
X138871956Y-125650543D01*
X138881921Y-125671613D01*
X138889773Y-125693557D01*
X138895437Y-125716166D01*
X138898856Y-125739221D01*
X138900000Y-125762500D01*
X138900000Y-126237500D01*
X138898856Y-126260779D01*
X138895437Y-126283834D01*
X138889773Y-126306443D01*
X138881921Y-126328387D01*
X138871956Y-126349457D01*
X138859974Y-126369448D01*
X138846090Y-126388168D01*
X138830438Y-126405438D01*
X138813168Y-126421090D01*
X138794448Y-126434974D01*
X138774457Y-126446956D01*
X138753387Y-126456921D01*
X138731443Y-126464773D01*
X138708834Y-126470437D01*
X138685779Y-126473856D01*
X138662500Y-126475000D01*
X138087500Y-126475000D01*
X138064221Y-126473856D01*
X138041166Y-126470437D01*
X138018557Y-126464773D01*
X137996613Y-126456921D01*
X137975543Y-126446956D01*
X137955552Y-126434974D01*
X137936832Y-126421090D01*
X137919562Y-126405438D01*
X137903910Y-126388168D01*
X137890026Y-126369448D01*
X137878044Y-126349457D01*
X137868079Y-126328387D01*
X137860227Y-126306443D01*
X137854563Y-126283834D01*
X137851144Y-126260779D01*
X137850000Y-126237500D01*
X137850000Y-125762500D01*
X137851144Y-125739221D01*
X137854563Y-125716166D01*
X137860227Y-125693557D01*
X137868079Y-125671613D01*
X137878044Y-125650543D01*
X137890026Y-125630552D01*
X137903910Y-125611832D01*
X137919562Y-125594562D01*
X137936832Y-125578910D01*
X137955552Y-125565026D01*
X137975543Y-125553044D01*
X137996613Y-125543079D01*
X138018557Y-125535227D01*
X138041166Y-125529563D01*
X138064221Y-125526144D01*
X138087500Y-125525000D01*
X138662500Y-125525000D01*
X138685779Y-125526144D01*
X138685779Y-125526144D01*
G37*
D23*
X138375000Y-126000000D03*
G04 #@! TD*
D19*
G04 #@! TO.C,R13*
G36*
X138685779Y-123526144D02*
X138708834Y-123529563D01*
X138731443Y-123535227D01*
X138753387Y-123543079D01*
X138774457Y-123553044D01*
X138794448Y-123565026D01*
X138813168Y-123578910D01*
X138830438Y-123594562D01*
X138846090Y-123611832D01*
X138859974Y-123630552D01*
X138871956Y-123650543D01*
X138881921Y-123671613D01*
X138889773Y-123693557D01*
X138895437Y-123716166D01*
X138898856Y-123739221D01*
X138900000Y-123762500D01*
X138900000Y-124237500D01*
X138898856Y-124260779D01*
X138895437Y-124283834D01*
X138889773Y-124306443D01*
X138881921Y-124328387D01*
X138871956Y-124349457D01*
X138859974Y-124369448D01*
X138846090Y-124388168D01*
X138830438Y-124405438D01*
X138813168Y-124421090D01*
X138794448Y-124434974D01*
X138774457Y-124446956D01*
X138753387Y-124456921D01*
X138731443Y-124464773D01*
X138708834Y-124470437D01*
X138685779Y-124473856D01*
X138662500Y-124475000D01*
X138087500Y-124475000D01*
X138064221Y-124473856D01*
X138041166Y-124470437D01*
X138018557Y-124464773D01*
X137996613Y-124456921D01*
X137975543Y-124446956D01*
X137955552Y-124434974D01*
X137936832Y-124421090D01*
X137919562Y-124405438D01*
X137903910Y-124388168D01*
X137890026Y-124369448D01*
X137878044Y-124349457D01*
X137868079Y-124328387D01*
X137860227Y-124306443D01*
X137854563Y-124283834D01*
X137851144Y-124260779D01*
X137850000Y-124237500D01*
X137850000Y-123762500D01*
X137851144Y-123739221D01*
X137854563Y-123716166D01*
X137860227Y-123693557D01*
X137868079Y-123671613D01*
X137878044Y-123650543D01*
X137890026Y-123630552D01*
X137903910Y-123611832D01*
X137919562Y-123594562D01*
X137936832Y-123578910D01*
X137955552Y-123565026D01*
X137975543Y-123553044D01*
X137996613Y-123543079D01*
X138018557Y-123535227D01*
X138041166Y-123529563D01*
X138064221Y-123526144D01*
X138087500Y-123525000D01*
X138662500Y-123525000D01*
X138685779Y-123526144D01*
X138685779Y-123526144D01*
G37*
D23*
X138375000Y-124000000D03*
D19*
G36*
X136935779Y-123526144D02*
X136958834Y-123529563D01*
X136981443Y-123535227D01*
X137003387Y-123543079D01*
X137024457Y-123553044D01*
X137044448Y-123565026D01*
X137063168Y-123578910D01*
X137080438Y-123594562D01*
X137096090Y-123611832D01*
X137109974Y-123630552D01*
X137121956Y-123650543D01*
X137131921Y-123671613D01*
X137139773Y-123693557D01*
X137145437Y-123716166D01*
X137148856Y-123739221D01*
X137150000Y-123762500D01*
X137150000Y-124237500D01*
X137148856Y-124260779D01*
X137145437Y-124283834D01*
X137139773Y-124306443D01*
X137131921Y-124328387D01*
X137121956Y-124349457D01*
X137109974Y-124369448D01*
X137096090Y-124388168D01*
X137080438Y-124405438D01*
X137063168Y-124421090D01*
X137044448Y-124434974D01*
X137024457Y-124446956D01*
X137003387Y-124456921D01*
X136981443Y-124464773D01*
X136958834Y-124470437D01*
X136935779Y-124473856D01*
X136912500Y-124475000D01*
X136337500Y-124475000D01*
X136314221Y-124473856D01*
X136291166Y-124470437D01*
X136268557Y-124464773D01*
X136246613Y-124456921D01*
X136225543Y-124446956D01*
X136205552Y-124434974D01*
X136186832Y-124421090D01*
X136169562Y-124405438D01*
X136153910Y-124388168D01*
X136140026Y-124369448D01*
X136128044Y-124349457D01*
X136118079Y-124328387D01*
X136110227Y-124306443D01*
X136104563Y-124283834D01*
X136101144Y-124260779D01*
X136100000Y-124237500D01*
X136100000Y-123762500D01*
X136101144Y-123739221D01*
X136104563Y-123716166D01*
X136110227Y-123693557D01*
X136118079Y-123671613D01*
X136128044Y-123650543D01*
X136140026Y-123630552D01*
X136153910Y-123611832D01*
X136169562Y-123594562D01*
X136186832Y-123578910D01*
X136205552Y-123565026D01*
X136225543Y-123553044D01*
X136246613Y-123543079D01*
X136268557Y-123535227D01*
X136291166Y-123529563D01*
X136314221Y-123526144D01*
X136337500Y-123525000D01*
X136912500Y-123525000D01*
X136935779Y-123526144D01*
X136935779Y-123526144D01*
G37*
D23*
X136625000Y-124000000D03*
G04 #@! TD*
D14*
G04 #@! TO.C,SC1*
X181580000Y-108000000D03*
D15*
X176500000Y-108000000D03*
G04 #@! TD*
D24*
G04 #@! TO.C,U3*
X172550000Y-122775000D03*
X172550000Y-123425000D03*
X172550000Y-124075000D03*
X172550000Y-124725000D03*
X172550000Y-125375000D03*
X172550000Y-126025000D03*
X172550000Y-126675000D03*
X172550000Y-127325000D03*
X172550000Y-127975000D03*
X172550000Y-128625000D03*
X166650000Y-128625000D03*
X166650000Y-127975000D03*
X166650000Y-127325000D03*
X166650000Y-126675000D03*
X166650000Y-126025000D03*
X166650000Y-125375000D03*
X166650000Y-124725000D03*
X166650000Y-124075000D03*
X166650000Y-123425000D03*
X166650000Y-122775000D03*
G04 #@! TD*
D25*
G04 #@! TO.C,D5*
X103500000Y-108000000D03*
D26*
X116200000Y-108000000D03*
G04 #@! TD*
D27*
G04 #@! TO.C,H1*
X92500000Y-79000000D03*
G04 #@! TD*
G04 #@! TO.C,H2*
X182500000Y-79000000D03*
G04 #@! TD*
G04 #@! TO.C,H3*
X92500000Y-131000000D03*
G04 #@! TD*
G04 #@! TO.C,H4*
X182500000Y-131000000D03*
G04 #@! TD*
D28*
G36*
X118163223Y-105189817D02*
X118608618Y-105371012D01*
X118999770Y-105664651D01*
X125834260Y-112328278D01*
X125846562Y-112338828D01*
X126253599Y-112645090D01*
X126281712Y-112661088D01*
X126752915Y-112854591D01*
X126784158Y-112862968D01*
X127288961Y-112931159D01*
X127305126Y-112932299D01*
X132104033Y-112963871D01*
X132594390Y-113031439D01*
X133043060Y-113219883D01*
X133427991Y-113517604D01*
X133723171Y-113904482D01*
X133908659Y-114354382D01*
X133973000Y-114845178D01*
X133973000Y-116528443D01*
X133907580Y-117023260D01*
X133719052Y-117476299D01*
X133419266Y-117864777D01*
X133028829Y-118161997D01*
X132574562Y-118347539D01*
X132079318Y-118409704D01*
X127292031Y-118378208D01*
X126823442Y-118316466D01*
X126391901Y-118144170D01*
X126009647Y-117866210D01*
X119163848Y-111448275D01*
X119151565Y-111438129D01*
X118746219Y-111144056D01*
X118718344Y-111128752D01*
X118252651Y-110944595D01*
X118221848Y-110936695D01*
X117725005Y-110873999D01*
X117709105Y-110873000D01*
X114508328Y-110873000D01*
X114015515Y-110808120D01*
X113564048Y-110621116D01*
X113176364Y-110323636D01*
X112878884Y-109935952D01*
X112691880Y-109484485D01*
X112627000Y-108991672D01*
X112627000Y-107008328D01*
X112691880Y-106515515D01*
X112878884Y-106064048D01*
X113176364Y-105676364D01*
X113564048Y-105378884D01*
X114015515Y-105191880D01*
X114508328Y-105127000D01*
X117678176Y-105127000D01*
X118163223Y-105189817D01*
X118163223Y-105189817D01*
G37*
X118163223Y-105189817D02*
X118608618Y-105371012D01*
X118999770Y-105664651D01*
X125834260Y-112328278D01*
X125846562Y-112338828D01*
X126253599Y-112645090D01*
X126281712Y-112661088D01*
X126752915Y-112854591D01*
X126784158Y-112862968D01*
X127288961Y-112931159D01*
X127305126Y-112932299D01*
X132104033Y-112963871D01*
X132594390Y-113031439D01*
X133043060Y-113219883D01*
X133427991Y-113517604D01*
X133723171Y-113904482D01*
X133908659Y-114354382D01*
X133973000Y-114845178D01*
X133973000Y-116528443D01*
X133907580Y-117023260D01*
X133719052Y-117476299D01*
X133419266Y-117864777D01*
X133028829Y-118161997D01*
X132574562Y-118347539D01*
X132079318Y-118409704D01*
X127292031Y-118378208D01*
X126823442Y-118316466D01*
X126391901Y-118144170D01*
X126009647Y-117866210D01*
X119163848Y-111448275D01*
X119151565Y-111438129D01*
X118746219Y-111144056D01*
X118718344Y-111128752D01*
X118252651Y-110944595D01*
X118221848Y-110936695D01*
X117725005Y-110873999D01*
X117709105Y-110873000D01*
X114508328Y-110873000D01*
X114015515Y-110808120D01*
X113564048Y-110621116D01*
X113176364Y-110323636D01*
X112878884Y-109935952D01*
X112691880Y-109484485D01*
X112627000Y-108991672D01*
X112627000Y-107008328D01*
X112691880Y-106515515D01*
X112878884Y-106064048D01*
X113176364Y-105676364D01*
X113564048Y-105378884D01*
X114015515Y-105191880D01*
X114508328Y-105127000D01*
X117678176Y-105127000D01*
X118163223Y-105189817D01*
G36*
X158833130Y-105695752D02*
X159115545Y-105884455D01*
X159304248Y-106166870D01*
X159373000Y-106512509D01*
X159373000Y-117487491D01*
X159304248Y-117833130D01*
X159115545Y-118115545D01*
X158833130Y-118304248D01*
X158487491Y-118373000D01*
X137012509Y-118373000D01*
X136666870Y-118304248D01*
X136384455Y-118115545D01*
X136195752Y-117833130D01*
X136127000Y-117487491D01*
X136127000Y-106512509D01*
X136195752Y-106166870D01*
X136384455Y-105884455D01*
X136666870Y-105695752D01*
X137012509Y-105627000D01*
X158487491Y-105627000D01*
X158833130Y-105695752D01*
X158833130Y-105695752D01*
G37*
X158833130Y-105695752D02*
X159115545Y-105884455D01*
X159304248Y-106166870D01*
X159373000Y-106512509D01*
X159373000Y-117487491D01*
X159304248Y-117833130D01*
X159115545Y-118115545D01*
X158833130Y-118304248D01*
X158487491Y-118373000D01*
X137012509Y-118373000D01*
X136666870Y-118304248D01*
X136384455Y-118115545D01*
X136195752Y-117833130D01*
X136127000Y-117487491D01*
X136127000Y-106512509D01*
X136195752Y-106166870D01*
X136384455Y-105884455D01*
X136666870Y-105695752D01*
X137012509Y-105627000D01*
X158487491Y-105627000D01*
X158833130Y-105695752D01*
G36*
X173833130Y-105695752D02*
X174115545Y-105884455D01*
X174304248Y-106166870D01*
X174373000Y-106512509D01*
X174373000Y-109487491D01*
X174304248Y-109833130D01*
X174115545Y-110115545D01*
X173833130Y-110304248D01*
X173487491Y-110373000D01*
X172850781Y-110373000D01*
X172829459Y-110374803D01*
X172498452Y-110431175D01*
X172458213Y-110445290D01*
X172164525Y-110608049D01*
X172146750Y-110619961D01*
X162702964Y-118174990D01*
X162437582Y-118322062D01*
X162138484Y-118373000D01*
X156512509Y-118373000D01*
X156166870Y-118304248D01*
X155884455Y-118115545D01*
X155695752Y-117833130D01*
X155627000Y-117487491D01*
X155627000Y-106512509D01*
X155695752Y-106166870D01*
X155884455Y-105884455D01*
X156166870Y-105695752D01*
X156512509Y-105627000D01*
X173487491Y-105627000D01*
X173833130Y-105695752D01*
X173833130Y-105695752D01*
G37*
X173833130Y-105695752D02*
X174115545Y-105884455D01*
X174304248Y-106166870D01*
X174373000Y-106512509D01*
X174373000Y-109487491D01*
X174304248Y-109833130D01*
X174115545Y-110115545D01*
X173833130Y-110304248D01*
X173487491Y-110373000D01*
X172850781Y-110373000D01*
X172829459Y-110374803D01*
X172498452Y-110431175D01*
X172458213Y-110445290D01*
X172164525Y-110608049D01*
X172146750Y-110619961D01*
X162702964Y-118174990D01*
X162437582Y-118322062D01*
X162138484Y-118373000D01*
X156512509Y-118373000D01*
X156166870Y-118304248D01*
X155884455Y-118115545D01*
X155695752Y-117833130D01*
X155627000Y-117487491D01*
X155627000Y-106512509D01*
X155695752Y-106166870D01*
X155884455Y-105884455D01*
X156166870Y-105695752D01*
X156512509Y-105627000D01*
X173487491Y-105627000D01*
X173833130Y-105695752D01*
M02*
