M48
;DRILL file {KiCad 5.0.2-bee76a0~70~ubuntu16.04.1} date Sun 19 May 2019 10:48:17 BST
;FORMAT={-:-/ absolute / inch / decimal}
FMAT,2
INCH,TZ
T1C0.0157
T2C0.0394
T3C0.0472
T4C0.0598
T5C0.1260
%
G90
G05
T1
X5.0374Y-3.1177
X5.0482Y-3.661
X5.1193Y-3.1059
X5.1421Y-4.2441
X5.1535Y-4.0748
X5.1732Y-3.9965
X5.1831Y-4.1311
X5.1854Y-4.2098
X5.2114Y-4.0402
X5.2165Y-3.3441
X5.2283Y-3.2713
X5.2504Y-3.6283
X5.2583Y-3.9062
X5.261Y-4.3972
X5.2638Y-3.223
X5.3484Y-4.065
X5.3748Y-3.2744
X5.3803Y-3.6874
X5.3815Y-3.7783
X5.3815Y-4.2571
X5.4063Y-3.2291
X5.4157Y-3.1496
X5.4295Y-4.064
X5.4382Y-4.476
X5.4862Y-3.7205
X5.5465Y-3.6148
X5.5474Y-3.1335
X5.5547Y-3.7205
X5.5752Y-3.8957
X5.5756Y-3.9878
X5.5768Y-4.0528
X5.5888Y-3.2457
X5.7138Y-4.3972
X5.7618Y-3.41
T2
X5.7559Y-3.7181
X5.7559Y-3.8181
X5.7559Y-3.9181
X5.7559Y-4.0181
X5.7559Y-4.1181
X5.7559Y-4.2181
T3
X5.2949Y-3.0512
X5.3949Y-3.0512
X5.4949Y-3.0512
T4
X5.4252Y-2.6787
X5.4252Y-2.8787
X5.0945Y-2.6795
X5.0945Y-2.8795
T5
X5.3791Y-4.6413
T0
M30
