G04 #@! TF.GenerationSoftware,KiCad,Pcbnew,5.0.2-bee76a0~70~ubuntu16.04.1*
G04 #@! TF.CreationDate,2019-06-24T22:08:56+01:00*
G04 #@! TF.ProjectId,project,70726f6a-6563-4742-9e6b-696361645f70,rev?*
G04 #@! TF.SameCoordinates,Original*
G04 #@! TF.FileFunction,Legend,Top*
G04 #@! TF.FilePolarity,Positive*
%FSLAX46Y46*%
G04 Gerber Fmt 4.6, Leading zero omitted, Abs format (unit mm)*
G04 Created by KiCad (PCBNEW 5.0.2-bee76a0~70~ubuntu16.04.1) date Mon 24 Jun 2019 22:08:56 BST*
%MOMM*%
%LPD*%
G01*
G04 APERTURE LIST*
%ADD10C,0.200000*%
%ADD11C,0.150000*%
%ADD12C,0.120000*%
G04 APERTURE END LIST*
D10*
X142454285Y-90264285D02*
X143140000Y-90264285D01*
X142797142Y-90607142D02*
X142797142Y-89921428D01*
X144211428Y-90564285D02*
X144340000Y-90607142D01*
X144554285Y-90607142D01*
X144640000Y-90564285D01*
X144682857Y-90521428D01*
X144725714Y-90435714D01*
X144725714Y-90350000D01*
X144682857Y-90264285D01*
X144640000Y-90221428D01*
X144554285Y-90178571D01*
X144382857Y-90135714D01*
X144297142Y-90092857D01*
X144254285Y-90050000D01*
X144211428Y-89964285D01*
X144211428Y-89878571D01*
X144254285Y-89792857D01*
X144297142Y-89750000D01*
X144382857Y-89707142D01*
X144597142Y-89707142D01*
X144725714Y-89750000D01*
X145282857Y-89707142D02*
X145454285Y-89707142D01*
X145540000Y-89750000D01*
X145625714Y-89835714D01*
X145668571Y-90007142D01*
X145668571Y-90307142D01*
X145625714Y-90478571D01*
X145540000Y-90564285D01*
X145454285Y-90607142D01*
X145282857Y-90607142D01*
X145197142Y-90564285D01*
X145111428Y-90478571D01*
X145068571Y-90307142D01*
X145068571Y-90007142D01*
X145111428Y-89835714D01*
X145197142Y-89750000D01*
X145282857Y-89707142D01*
X146482857Y-90607142D02*
X146054285Y-90607142D01*
X146054285Y-89707142D01*
X146740000Y-90350000D02*
X147168571Y-90350000D01*
X146654285Y-90607142D02*
X146954285Y-89707142D01*
X147254285Y-90607142D01*
X148068571Y-90607142D02*
X147768571Y-90178571D01*
X147554285Y-90607142D02*
X147554285Y-89707142D01*
X147897142Y-89707142D01*
X147982857Y-89750000D01*
X148025714Y-89792857D01*
X148068571Y-89878571D01*
X148068571Y-90007142D01*
X148025714Y-90092857D01*
X147982857Y-90135714D01*
X147897142Y-90178571D01*
X147554285Y-90178571D01*
X149140000Y-90264285D02*
X149825714Y-90264285D01*
X127940000Y-90264285D02*
X128625714Y-90264285D01*
X128282857Y-90607142D02*
X128282857Y-89921428D01*
X130040000Y-90135714D02*
X130168571Y-90178571D01*
X130211428Y-90221428D01*
X130254285Y-90307142D01*
X130254285Y-90435714D01*
X130211428Y-90521428D01*
X130168571Y-90564285D01*
X130082857Y-90607142D01*
X129740000Y-90607142D01*
X129740000Y-89707142D01*
X130040000Y-89707142D01*
X130125714Y-89750000D01*
X130168571Y-89792857D01*
X130211428Y-89878571D01*
X130211428Y-89964285D01*
X130168571Y-90050000D01*
X130125714Y-90092857D01*
X130040000Y-90135714D01*
X129740000Y-90135714D01*
X130597142Y-90350000D02*
X131025714Y-90350000D01*
X130511428Y-90607142D02*
X130811428Y-89707142D01*
X131111428Y-90607142D01*
X131282857Y-89707142D02*
X131797142Y-89707142D01*
X131540000Y-90607142D02*
X131540000Y-89707142D01*
X131968571Y-89707142D02*
X132482857Y-89707142D01*
X132225714Y-90607142D02*
X132225714Y-89707142D01*
X132782857Y-90135714D02*
X133082857Y-90135714D01*
X133211428Y-90607142D02*
X132782857Y-90607142D01*
X132782857Y-89707142D01*
X133211428Y-89707142D01*
X134111428Y-90607142D02*
X133811428Y-90178571D01*
X133597142Y-90607142D02*
X133597142Y-89707142D01*
X133940000Y-89707142D01*
X134025714Y-89750000D01*
X134068571Y-89792857D01*
X134111428Y-89878571D01*
X134111428Y-90007142D01*
X134068571Y-90092857D01*
X134025714Y-90135714D01*
X133940000Y-90178571D01*
X133597142Y-90178571D01*
X134668571Y-90178571D02*
X134668571Y-90607142D01*
X134368571Y-89707142D02*
X134668571Y-90178571D01*
X134968571Y-89707142D01*
X135954285Y-90264285D02*
X136640000Y-90264285D01*
D11*
X132009523Y-63211904D02*
X132504761Y-63211904D01*
X132238095Y-63516666D01*
X132352380Y-63516666D01*
X132428571Y-63554761D01*
X132466666Y-63592857D01*
X132504761Y-63669047D01*
X132504761Y-63859523D01*
X132466666Y-63935714D01*
X132428571Y-63973809D01*
X132352380Y-64011904D01*
X132123809Y-64011904D01*
X132047619Y-63973809D01*
X132009523Y-63935714D01*
X132733333Y-63211904D02*
X133000000Y-64011904D01*
X133266666Y-63211904D01*
X133457142Y-63211904D02*
X133952380Y-63211904D01*
X133685714Y-63516666D01*
X133800000Y-63516666D01*
X133876190Y-63554761D01*
X133914285Y-63592857D01*
X133952380Y-63669047D01*
X133952380Y-63859523D01*
X133914285Y-63935714D01*
X133876190Y-63973809D01*
X133800000Y-64011904D01*
X133571428Y-64011904D01*
X133495238Y-63973809D01*
X133457142Y-63935714D01*
X135013809Y-63935714D02*
X134975714Y-63973809D01*
X134861428Y-64011904D01*
X134785238Y-64011904D01*
X134670952Y-63973809D01*
X134594761Y-63897619D01*
X134556666Y-63821428D01*
X134518571Y-63669047D01*
X134518571Y-63554761D01*
X134556666Y-63402380D01*
X134594761Y-63326190D01*
X134670952Y-63250000D01*
X134785238Y-63211904D01*
X134861428Y-63211904D01*
X134975714Y-63250000D01*
X135013809Y-63288095D01*
X135737619Y-64011904D02*
X135356666Y-64011904D01*
X135356666Y-63211904D01*
X136004285Y-64011904D02*
X136004285Y-63211904D01*
X136461428Y-64011904D02*
X136118571Y-63554761D01*
X136461428Y-63211904D02*
X136004285Y-63669047D01*
X137430476Y-63250000D02*
X137354285Y-63211904D01*
X137240000Y-63211904D01*
X137125714Y-63250000D01*
X137049523Y-63326190D01*
X137011428Y-63402380D01*
X136973333Y-63554761D01*
X136973333Y-63669047D01*
X137011428Y-63821428D01*
X137049523Y-63897619D01*
X137125714Y-63973809D01*
X137240000Y-64011904D01*
X137316190Y-64011904D01*
X137430476Y-63973809D01*
X137468571Y-63935714D01*
X137468571Y-63669047D01*
X137316190Y-63669047D01*
X137811428Y-64011904D02*
X137811428Y-63211904D01*
X138268571Y-64011904D01*
X138268571Y-63211904D01*
X138649523Y-64011904D02*
X138649523Y-63211904D01*
X138840000Y-63211904D01*
X138954285Y-63250000D01*
X139030476Y-63326190D01*
X139068571Y-63402380D01*
X139106666Y-63554761D01*
X139106666Y-63669047D01*
X139068571Y-63821428D01*
X139030476Y-63897619D01*
X138954285Y-63973809D01*
X138840000Y-64011904D01*
X138649523Y-64011904D01*
X139820952Y-64011904D02*
X139820952Y-63211904D01*
X140011428Y-63211904D01*
X140125714Y-63250000D01*
X140201904Y-63326190D01*
X140240000Y-63402380D01*
X140278095Y-63554761D01*
X140278095Y-63669047D01*
X140240000Y-63821428D01*
X140201904Y-63897619D01*
X140125714Y-63973809D01*
X140011428Y-64011904D01*
X139820952Y-64011904D01*
X140620952Y-64011904D02*
X140620952Y-63211904D01*
X141154285Y-63211904D02*
X141306666Y-63211904D01*
X141382857Y-63250000D01*
X141459047Y-63326190D01*
X141497142Y-63478571D01*
X141497142Y-63745238D01*
X141459047Y-63897619D01*
X141382857Y-63973809D01*
X141306666Y-64011904D01*
X141154285Y-64011904D01*
X141078095Y-63973809D01*
X141001904Y-63897619D01*
X140963809Y-63745238D01*
X140963809Y-63478571D01*
X141001904Y-63326190D01*
X141078095Y-63250000D01*
X141154285Y-63211904D01*
X142801904Y-64011904D02*
X142535238Y-63630952D01*
X142344761Y-64011904D02*
X142344761Y-63211904D01*
X142649523Y-63211904D01*
X142725714Y-63250000D01*
X142763809Y-63288095D01*
X142801904Y-63364285D01*
X142801904Y-63478571D01*
X142763809Y-63554761D01*
X142725714Y-63592857D01*
X142649523Y-63630952D01*
X142344761Y-63630952D01*
X143106666Y-63973809D02*
X143220952Y-64011904D01*
X143411428Y-64011904D01*
X143487619Y-63973809D01*
X143525714Y-63935714D01*
X143563809Y-63859523D01*
X143563809Y-63783333D01*
X143525714Y-63707142D01*
X143487619Y-63669047D01*
X143411428Y-63630952D01*
X143259047Y-63592857D01*
X143182857Y-63554761D01*
X143144761Y-63516666D01*
X143106666Y-63440476D01*
X143106666Y-63364285D01*
X143144761Y-63288095D01*
X143182857Y-63250000D01*
X143259047Y-63211904D01*
X143449523Y-63211904D01*
X143563809Y-63250000D01*
X143792380Y-63211904D02*
X144249523Y-63211904D01*
X144020952Y-64011904D02*
X144020952Y-63211904D01*
X145080476Y-63211904D02*
X145537619Y-63211904D01*
X145309047Y-64011904D02*
X145309047Y-63211904D01*
X145728095Y-63211904D02*
X146261428Y-64011904D01*
X146261428Y-63211904D02*
X145728095Y-64011904D01*
D12*
G04 #@! TO.C,C1*
X147828733Y-74490000D02*
X148171267Y-74490000D01*
X147828733Y-75510000D02*
X148171267Y-75510000D01*
G04 #@! TO.C,C3*
X147828733Y-72490000D02*
X148171267Y-72490000D01*
X147828733Y-73510000D02*
X148171267Y-73510000D01*
G04 #@! TO.C,C4*
X135280000Y-71028733D02*
X135280000Y-71371267D01*
X136300000Y-71028733D02*
X136300000Y-71371267D01*
G04 #@! TO.C,C5*
X147818733Y-66110000D02*
X148161267Y-66110000D01*
X147818733Y-65090000D02*
X148161267Y-65090000D01*
G04 #@! TO.C,C6*
X138100000Y-71028733D02*
X138100000Y-71371267D01*
X137080000Y-71028733D02*
X137080000Y-71371267D01*
G04 #@! TO.C,C7*
X141280000Y-71028733D02*
X141280000Y-71371267D01*
X142300000Y-71028733D02*
X142300000Y-71371267D01*
G04 #@! TO.C,C8*
X140500000Y-71028733D02*
X140500000Y-71371267D01*
X139480000Y-71028733D02*
X139480000Y-71371267D01*
G04 #@! TO.C,C9*
X130080000Y-74428733D02*
X130080000Y-74771267D01*
X131100000Y-74428733D02*
X131100000Y-74771267D01*
G04 #@! TO.C,C10*
X139361267Y-92760000D02*
X139018733Y-92760000D01*
X139361267Y-91740000D02*
X139018733Y-91740000D01*
G04 #@! TO.C,C11*
X139311267Y-89140000D02*
X138968733Y-89140000D01*
X139311267Y-90160000D02*
X138968733Y-90160000D01*
G04 #@! TO.C,R3*
X142418733Y-65910000D02*
X142761267Y-65910000D01*
X142418733Y-64890000D02*
X142761267Y-64890000D01*
G04 #@! TO.C,R7*
X132650000Y-81171267D02*
X132650000Y-80828733D01*
X131630000Y-81171267D02*
X131630000Y-80828733D01*
G04 #@! TO.C,R8*
X145800000Y-73221267D02*
X145800000Y-72878733D01*
X144780000Y-73221267D02*
X144780000Y-72878733D01*
G04 #@! TO.C,R9*
X144050000Y-72878733D02*
X144050000Y-73221267D01*
X143030000Y-72878733D02*
X143030000Y-73221267D01*
G04 #@! TO.C,R12*
X130243733Y-69590000D02*
X130586267Y-69590000D01*
X130243733Y-70610000D02*
X130586267Y-70610000D01*
G04 #@! TO.C,R13*
X130243733Y-68560000D02*
X130586267Y-68560000D01*
X130243733Y-67540000D02*
X130586267Y-67540000D01*
G04 #@! TO.C,R14*
X128280000Y-74771267D02*
X128280000Y-74428733D01*
X129300000Y-74771267D02*
X129300000Y-74428733D01*
G04 #@! TO.C,R15*
X132080000Y-74428733D02*
X132080000Y-74771267D01*
X133100000Y-74428733D02*
X133100000Y-74771267D01*
G04 #@! TO.C,R16*
X129953748Y-64240000D02*
X130476252Y-64240000D01*
X129953748Y-65660000D02*
X130476252Y-65660000D01*
G04 #@! TO.C,U2*
X149610000Y-69900000D02*
X149610000Y-68100000D01*
X146390000Y-68100000D02*
X146390000Y-70550000D01*
G04 #@! TO.C,Q1*
X131900000Y-86530000D02*
X130440000Y-86530000D01*
X131900000Y-83370000D02*
X129740000Y-83370000D01*
X131900000Y-83370000D02*
X131900000Y-84300000D01*
X131900000Y-86530000D02*
X131900000Y-85600000D01*
G04 #@! TO.C,Q2*
X128580000Y-79370000D02*
X128580000Y-80300000D01*
X128580000Y-82530000D02*
X128580000Y-81600000D01*
X128580000Y-82530000D02*
X130740000Y-82530000D01*
X128580000Y-79370000D02*
X130040000Y-79370000D01*
G04 #@! TO.C,R10*
X127830000Y-85021267D02*
X127830000Y-84678733D01*
X128850000Y-85021267D02*
X128850000Y-84678733D01*
G04 #@! TO.C,C1*
D11*
X150425714Y-75133333D02*
X150463809Y-75171428D01*
X150501904Y-75285714D01*
X150501904Y-75361904D01*
X150463809Y-75476190D01*
X150387619Y-75552380D01*
X150311428Y-75590476D01*
X150159047Y-75628571D01*
X150044761Y-75628571D01*
X149892380Y-75590476D01*
X149816190Y-75552380D01*
X149740000Y-75476190D01*
X149701904Y-75361904D01*
X149701904Y-75285714D01*
X149740000Y-75171428D01*
X149778095Y-75133333D01*
X150501904Y-74371428D02*
X150501904Y-74828571D01*
X150501904Y-74600000D02*
X149701904Y-74600000D01*
X149816190Y-74676190D01*
X149892380Y-74752380D01*
X149930476Y-74828571D01*
G04 #@! TO.C,C3*
X150425714Y-73183333D02*
X150463809Y-73221428D01*
X150501904Y-73335714D01*
X150501904Y-73411904D01*
X150463809Y-73526190D01*
X150387619Y-73602380D01*
X150311428Y-73640476D01*
X150159047Y-73678571D01*
X150044761Y-73678571D01*
X149892380Y-73640476D01*
X149816190Y-73602380D01*
X149740000Y-73526190D01*
X149701904Y-73411904D01*
X149701904Y-73335714D01*
X149740000Y-73221428D01*
X149778095Y-73183333D01*
X149701904Y-72916666D02*
X149701904Y-72421428D01*
X150006666Y-72688095D01*
X150006666Y-72573809D01*
X150044761Y-72497619D01*
X150082857Y-72459523D01*
X150159047Y-72421428D01*
X150349523Y-72421428D01*
X150425714Y-72459523D01*
X150463809Y-72497619D01*
X150501904Y-72573809D01*
X150501904Y-72802380D01*
X150463809Y-72878571D01*
X150425714Y-72916666D01*
G04 #@! TO.C,C4*
X136075714Y-69033333D02*
X136113809Y-69071428D01*
X136151904Y-69185714D01*
X136151904Y-69261904D01*
X136113809Y-69376190D01*
X136037619Y-69452380D01*
X135961428Y-69490476D01*
X135809047Y-69528571D01*
X135694761Y-69528571D01*
X135542380Y-69490476D01*
X135466190Y-69452380D01*
X135390000Y-69376190D01*
X135351904Y-69261904D01*
X135351904Y-69185714D01*
X135390000Y-69071428D01*
X135428095Y-69033333D01*
X135618571Y-68347619D02*
X136151904Y-68347619D01*
X135313809Y-68538095D02*
X135885238Y-68728571D01*
X135885238Y-68233333D01*
G04 #@! TO.C,C5*
X150475714Y-65733333D02*
X150513809Y-65771428D01*
X150551904Y-65885714D01*
X150551904Y-65961904D01*
X150513809Y-66076190D01*
X150437619Y-66152380D01*
X150361428Y-66190476D01*
X150209047Y-66228571D01*
X150094761Y-66228571D01*
X149942380Y-66190476D01*
X149866190Y-66152380D01*
X149790000Y-66076190D01*
X149751904Y-65961904D01*
X149751904Y-65885714D01*
X149790000Y-65771428D01*
X149828095Y-65733333D01*
X149751904Y-65009523D02*
X149751904Y-65390476D01*
X150132857Y-65428571D01*
X150094761Y-65390476D01*
X150056666Y-65314285D01*
X150056666Y-65123809D01*
X150094761Y-65047619D01*
X150132857Y-65009523D01*
X150209047Y-64971428D01*
X150399523Y-64971428D01*
X150475714Y-65009523D01*
X150513809Y-65047619D01*
X150551904Y-65123809D01*
X150551904Y-65314285D01*
X150513809Y-65390476D01*
X150475714Y-65428571D01*
G04 #@! TO.C,C6*
X137875714Y-69033333D02*
X137913809Y-69071428D01*
X137951904Y-69185714D01*
X137951904Y-69261904D01*
X137913809Y-69376190D01*
X137837619Y-69452380D01*
X137761428Y-69490476D01*
X137609047Y-69528571D01*
X137494761Y-69528571D01*
X137342380Y-69490476D01*
X137266190Y-69452380D01*
X137190000Y-69376190D01*
X137151904Y-69261904D01*
X137151904Y-69185714D01*
X137190000Y-69071428D01*
X137228095Y-69033333D01*
X137151904Y-68347619D02*
X137151904Y-68500000D01*
X137190000Y-68576190D01*
X137228095Y-68614285D01*
X137342380Y-68690476D01*
X137494761Y-68728571D01*
X137799523Y-68728571D01*
X137875714Y-68690476D01*
X137913809Y-68652380D01*
X137951904Y-68576190D01*
X137951904Y-68423809D01*
X137913809Y-68347619D01*
X137875714Y-68309523D01*
X137799523Y-68271428D01*
X137609047Y-68271428D01*
X137532857Y-68309523D01*
X137494761Y-68347619D01*
X137456666Y-68423809D01*
X137456666Y-68576190D01*
X137494761Y-68652380D01*
X137532857Y-68690476D01*
X137609047Y-68728571D01*
G04 #@! TO.C,C7*
X142075714Y-69033333D02*
X142113809Y-69071428D01*
X142151904Y-69185714D01*
X142151904Y-69261904D01*
X142113809Y-69376190D01*
X142037619Y-69452380D01*
X141961428Y-69490476D01*
X141809047Y-69528571D01*
X141694761Y-69528571D01*
X141542380Y-69490476D01*
X141466190Y-69452380D01*
X141390000Y-69376190D01*
X141351904Y-69261904D01*
X141351904Y-69185714D01*
X141390000Y-69071428D01*
X141428095Y-69033333D01*
X141351904Y-68766666D02*
X141351904Y-68233333D01*
X142151904Y-68576190D01*
G04 #@! TO.C,C8*
X140275714Y-69033333D02*
X140313809Y-69071428D01*
X140351904Y-69185714D01*
X140351904Y-69261904D01*
X140313809Y-69376190D01*
X140237619Y-69452380D01*
X140161428Y-69490476D01*
X140009047Y-69528571D01*
X139894761Y-69528571D01*
X139742380Y-69490476D01*
X139666190Y-69452380D01*
X139590000Y-69376190D01*
X139551904Y-69261904D01*
X139551904Y-69185714D01*
X139590000Y-69071428D01*
X139628095Y-69033333D01*
X139894761Y-68576190D02*
X139856666Y-68652380D01*
X139818571Y-68690476D01*
X139742380Y-68728571D01*
X139704285Y-68728571D01*
X139628095Y-68690476D01*
X139590000Y-68652380D01*
X139551904Y-68576190D01*
X139551904Y-68423809D01*
X139590000Y-68347619D01*
X139628095Y-68309523D01*
X139704285Y-68271428D01*
X139742380Y-68271428D01*
X139818571Y-68309523D01*
X139856666Y-68347619D01*
X139894761Y-68423809D01*
X139894761Y-68576190D01*
X139932857Y-68652380D01*
X139970952Y-68690476D01*
X140047142Y-68728571D01*
X140199523Y-68728571D01*
X140275714Y-68690476D01*
X140313809Y-68652380D01*
X140351904Y-68576190D01*
X140351904Y-68423809D01*
X140313809Y-68347619D01*
X140275714Y-68309523D01*
X140199523Y-68271428D01*
X140047142Y-68271428D01*
X139970952Y-68309523D01*
X139932857Y-68347619D01*
X139894761Y-68423809D01*
G04 #@! TO.C,C9*
X130875714Y-72333333D02*
X130913809Y-72371428D01*
X130951904Y-72485714D01*
X130951904Y-72561904D01*
X130913809Y-72676190D01*
X130837619Y-72752380D01*
X130761428Y-72790476D01*
X130609047Y-72828571D01*
X130494761Y-72828571D01*
X130342380Y-72790476D01*
X130266190Y-72752380D01*
X130190000Y-72676190D01*
X130151904Y-72561904D01*
X130151904Y-72485714D01*
X130190000Y-72371428D01*
X130228095Y-72333333D01*
X130951904Y-71952380D02*
X130951904Y-71800000D01*
X130913809Y-71723809D01*
X130875714Y-71685714D01*
X130761428Y-71609523D01*
X130609047Y-71571428D01*
X130304285Y-71571428D01*
X130228095Y-71609523D01*
X130190000Y-71647619D01*
X130151904Y-71723809D01*
X130151904Y-71876190D01*
X130190000Y-71952380D01*
X130228095Y-71990476D01*
X130304285Y-72028571D01*
X130494761Y-72028571D01*
X130570952Y-71990476D01*
X130609047Y-71952380D01*
X130647142Y-71876190D01*
X130647142Y-71723809D01*
X130609047Y-71647619D01*
X130570952Y-71609523D01*
X130494761Y-71571428D01*
G04 #@! TO.C,C10*
X138625714Y-93785714D02*
X138587619Y-93823809D01*
X138473333Y-93861904D01*
X138397142Y-93861904D01*
X138282857Y-93823809D01*
X138206666Y-93747619D01*
X138168571Y-93671428D01*
X138130476Y-93519047D01*
X138130476Y-93404761D01*
X138168571Y-93252380D01*
X138206666Y-93176190D01*
X138282857Y-93100000D01*
X138397142Y-93061904D01*
X138473333Y-93061904D01*
X138587619Y-93100000D01*
X138625714Y-93138095D01*
X139387619Y-93861904D02*
X138930476Y-93861904D01*
X139159047Y-93861904D02*
X139159047Y-93061904D01*
X139082857Y-93176190D01*
X139006666Y-93252380D01*
X138930476Y-93290476D01*
X139882857Y-93061904D02*
X139959047Y-93061904D01*
X140035238Y-93100000D01*
X140073333Y-93138095D01*
X140111428Y-93214285D01*
X140149523Y-93366666D01*
X140149523Y-93557142D01*
X140111428Y-93709523D01*
X140073333Y-93785714D01*
X140035238Y-93823809D01*
X139959047Y-93861904D01*
X139882857Y-93861904D01*
X139806666Y-93823809D01*
X139768571Y-93785714D01*
X139730476Y-93709523D01*
X139692380Y-93557142D01*
X139692380Y-93366666D01*
X139730476Y-93214285D01*
X139768571Y-93138095D01*
X139806666Y-93100000D01*
X139882857Y-93061904D01*
G04 #@! TO.C,C11*
X138575714Y-91185714D02*
X138537619Y-91223809D01*
X138423333Y-91261904D01*
X138347142Y-91261904D01*
X138232857Y-91223809D01*
X138156666Y-91147619D01*
X138118571Y-91071428D01*
X138080476Y-90919047D01*
X138080476Y-90804761D01*
X138118571Y-90652380D01*
X138156666Y-90576190D01*
X138232857Y-90500000D01*
X138347142Y-90461904D01*
X138423333Y-90461904D01*
X138537619Y-90500000D01*
X138575714Y-90538095D01*
X139337619Y-91261904D02*
X138880476Y-91261904D01*
X139109047Y-91261904D02*
X139109047Y-90461904D01*
X139032857Y-90576190D01*
X138956666Y-90652380D01*
X138880476Y-90690476D01*
X140099523Y-91261904D02*
X139642380Y-91261904D01*
X139870952Y-91261904D02*
X139870952Y-90461904D01*
X139794761Y-90576190D01*
X139718571Y-90652380D01*
X139642380Y-90690476D01*
G04 #@! TO.C,R3*
X145151904Y-65583333D02*
X144770952Y-65850000D01*
X145151904Y-66040476D02*
X144351904Y-66040476D01*
X144351904Y-65735714D01*
X144390000Y-65659523D01*
X144428095Y-65621428D01*
X144504285Y-65583333D01*
X144618571Y-65583333D01*
X144694761Y-65621428D01*
X144732857Y-65659523D01*
X144770952Y-65735714D01*
X144770952Y-66040476D01*
X144351904Y-65316666D02*
X144351904Y-64821428D01*
X144656666Y-65088095D01*
X144656666Y-64973809D01*
X144694761Y-64897619D01*
X144732857Y-64859523D01*
X144809047Y-64821428D01*
X144999523Y-64821428D01*
X145075714Y-64859523D01*
X145113809Y-64897619D01*
X145151904Y-64973809D01*
X145151904Y-65202380D01*
X145113809Y-65278571D01*
X145075714Y-65316666D01*
G04 #@! TO.C,R7*
X133801904Y-81083333D02*
X133420952Y-81350000D01*
X133801904Y-81540476D02*
X133001904Y-81540476D01*
X133001904Y-81235714D01*
X133040000Y-81159523D01*
X133078095Y-81121428D01*
X133154285Y-81083333D01*
X133268571Y-81083333D01*
X133344761Y-81121428D01*
X133382857Y-81159523D01*
X133420952Y-81235714D01*
X133420952Y-81540476D01*
X133001904Y-80816666D02*
X133001904Y-80283333D01*
X133801904Y-80626190D01*
G04 #@! TO.C,R8*
X145651904Y-75533333D02*
X145270952Y-75800000D01*
X145651904Y-75990476D02*
X144851904Y-75990476D01*
X144851904Y-75685714D01*
X144890000Y-75609523D01*
X144928095Y-75571428D01*
X145004285Y-75533333D01*
X145118571Y-75533333D01*
X145194761Y-75571428D01*
X145232857Y-75609523D01*
X145270952Y-75685714D01*
X145270952Y-75990476D01*
X145194761Y-75076190D02*
X145156666Y-75152380D01*
X145118571Y-75190476D01*
X145042380Y-75228571D01*
X145004285Y-75228571D01*
X144928095Y-75190476D01*
X144890000Y-75152380D01*
X144851904Y-75076190D01*
X144851904Y-74923809D01*
X144890000Y-74847619D01*
X144928095Y-74809523D01*
X145004285Y-74771428D01*
X145042380Y-74771428D01*
X145118571Y-74809523D01*
X145156666Y-74847619D01*
X145194761Y-74923809D01*
X145194761Y-75076190D01*
X145232857Y-75152380D01*
X145270952Y-75190476D01*
X145347142Y-75228571D01*
X145499523Y-75228571D01*
X145575714Y-75190476D01*
X145613809Y-75152380D01*
X145651904Y-75076190D01*
X145651904Y-74923809D01*
X145613809Y-74847619D01*
X145575714Y-74809523D01*
X145499523Y-74771428D01*
X145347142Y-74771428D01*
X145270952Y-74809523D01*
X145232857Y-74847619D01*
X145194761Y-74923809D01*
G04 #@! TO.C,R9*
X143951904Y-75533333D02*
X143570952Y-75800000D01*
X143951904Y-75990476D02*
X143151904Y-75990476D01*
X143151904Y-75685714D01*
X143190000Y-75609523D01*
X143228095Y-75571428D01*
X143304285Y-75533333D01*
X143418571Y-75533333D01*
X143494761Y-75571428D01*
X143532857Y-75609523D01*
X143570952Y-75685714D01*
X143570952Y-75990476D01*
X143951904Y-75152380D02*
X143951904Y-75000000D01*
X143913809Y-74923809D01*
X143875714Y-74885714D01*
X143761428Y-74809523D01*
X143609047Y-74771428D01*
X143304285Y-74771428D01*
X143228095Y-74809523D01*
X143190000Y-74847619D01*
X143151904Y-74923809D01*
X143151904Y-75076190D01*
X143190000Y-75152380D01*
X143228095Y-75190476D01*
X143304285Y-75228571D01*
X143494761Y-75228571D01*
X143570952Y-75190476D01*
X143609047Y-75152380D01*
X143647142Y-75076190D01*
X143647142Y-74923809D01*
X143609047Y-74847619D01*
X143570952Y-74809523D01*
X143494761Y-74771428D01*
G04 #@! TO.C,R12*
X128251904Y-70914285D02*
X127870952Y-71180952D01*
X128251904Y-71371428D02*
X127451904Y-71371428D01*
X127451904Y-71066666D01*
X127490000Y-70990476D01*
X127528095Y-70952380D01*
X127604285Y-70914285D01*
X127718571Y-70914285D01*
X127794761Y-70952380D01*
X127832857Y-70990476D01*
X127870952Y-71066666D01*
X127870952Y-71371428D01*
X128251904Y-70152380D02*
X128251904Y-70609523D01*
X128251904Y-70380952D02*
X127451904Y-70380952D01*
X127566190Y-70457142D01*
X127642380Y-70533333D01*
X127680476Y-70609523D01*
X127528095Y-69847619D02*
X127490000Y-69809523D01*
X127451904Y-69733333D01*
X127451904Y-69542857D01*
X127490000Y-69466666D01*
X127528095Y-69428571D01*
X127604285Y-69390476D01*
X127680476Y-69390476D01*
X127794761Y-69428571D01*
X128251904Y-69885714D01*
X128251904Y-69390476D01*
G04 #@! TO.C,R13*
X128201904Y-68364285D02*
X127820952Y-68630952D01*
X128201904Y-68821428D02*
X127401904Y-68821428D01*
X127401904Y-68516666D01*
X127440000Y-68440476D01*
X127478095Y-68402380D01*
X127554285Y-68364285D01*
X127668571Y-68364285D01*
X127744761Y-68402380D01*
X127782857Y-68440476D01*
X127820952Y-68516666D01*
X127820952Y-68821428D01*
X128201904Y-67602380D02*
X128201904Y-68059523D01*
X128201904Y-67830952D02*
X127401904Y-67830952D01*
X127516190Y-67907142D01*
X127592380Y-67983333D01*
X127630476Y-68059523D01*
X127401904Y-67335714D02*
X127401904Y-66840476D01*
X127706666Y-67107142D01*
X127706666Y-66992857D01*
X127744761Y-66916666D01*
X127782857Y-66878571D01*
X127859047Y-66840476D01*
X128049523Y-66840476D01*
X128125714Y-66878571D01*
X128163809Y-66916666D01*
X128201904Y-66992857D01*
X128201904Y-67221428D01*
X128163809Y-67297619D01*
X128125714Y-67335714D01*
G04 #@! TO.C,R14*
X127951904Y-75114285D02*
X127570952Y-75380952D01*
X127951904Y-75571428D02*
X127151904Y-75571428D01*
X127151904Y-75266666D01*
X127190000Y-75190476D01*
X127228095Y-75152380D01*
X127304285Y-75114285D01*
X127418571Y-75114285D01*
X127494761Y-75152380D01*
X127532857Y-75190476D01*
X127570952Y-75266666D01*
X127570952Y-75571428D01*
X127951904Y-74352380D02*
X127951904Y-74809523D01*
X127951904Y-74580952D02*
X127151904Y-74580952D01*
X127266190Y-74657142D01*
X127342380Y-74733333D01*
X127380476Y-74809523D01*
X127418571Y-73666666D02*
X127951904Y-73666666D01*
X127113809Y-73857142D02*
X127685238Y-74047619D01*
X127685238Y-73552380D01*
G04 #@! TO.C,R15*
X134401904Y-75114285D02*
X134020952Y-75380952D01*
X134401904Y-75571428D02*
X133601904Y-75571428D01*
X133601904Y-75266666D01*
X133640000Y-75190476D01*
X133678095Y-75152380D01*
X133754285Y-75114285D01*
X133868571Y-75114285D01*
X133944761Y-75152380D01*
X133982857Y-75190476D01*
X134020952Y-75266666D01*
X134020952Y-75571428D01*
X134401904Y-74352380D02*
X134401904Y-74809523D01*
X134401904Y-74580952D02*
X133601904Y-74580952D01*
X133716190Y-74657142D01*
X133792380Y-74733333D01*
X133830476Y-74809523D01*
X133601904Y-73628571D02*
X133601904Y-74009523D01*
X133982857Y-74047619D01*
X133944761Y-74009523D01*
X133906666Y-73933333D01*
X133906666Y-73742857D01*
X133944761Y-73666666D01*
X133982857Y-73628571D01*
X134059047Y-73590476D01*
X134249523Y-73590476D01*
X134325714Y-73628571D01*
X134363809Y-73666666D01*
X134401904Y-73742857D01*
X134401904Y-73933333D01*
X134363809Y-74009523D01*
X134325714Y-74047619D01*
G04 #@! TO.C,R16*
X128101904Y-65464285D02*
X127720952Y-65730952D01*
X128101904Y-65921428D02*
X127301904Y-65921428D01*
X127301904Y-65616666D01*
X127340000Y-65540476D01*
X127378095Y-65502380D01*
X127454285Y-65464285D01*
X127568571Y-65464285D01*
X127644761Y-65502380D01*
X127682857Y-65540476D01*
X127720952Y-65616666D01*
X127720952Y-65921428D01*
X128101904Y-64702380D02*
X128101904Y-65159523D01*
X128101904Y-64930952D02*
X127301904Y-64930952D01*
X127416190Y-65007142D01*
X127492380Y-65083333D01*
X127530476Y-65159523D01*
X127301904Y-64016666D02*
X127301904Y-64169047D01*
X127340000Y-64245238D01*
X127378095Y-64283333D01*
X127492380Y-64359523D01*
X127644761Y-64397619D01*
X127949523Y-64397619D01*
X128025714Y-64359523D01*
X128063809Y-64321428D01*
X128101904Y-64245238D01*
X128101904Y-64092857D01*
X128063809Y-64016666D01*
X128025714Y-63978571D01*
X127949523Y-63940476D01*
X127759047Y-63940476D01*
X127682857Y-63978571D01*
X127644761Y-64016666D01*
X127606666Y-64092857D01*
X127606666Y-64245238D01*
X127644761Y-64321428D01*
X127682857Y-64359523D01*
X127759047Y-64397619D01*
G04 #@! TO.C,U2*
X145251904Y-69609523D02*
X145899523Y-69609523D01*
X145975714Y-69571428D01*
X146013809Y-69533333D01*
X146051904Y-69457142D01*
X146051904Y-69304761D01*
X146013809Y-69228571D01*
X145975714Y-69190476D01*
X145899523Y-69152380D01*
X145251904Y-69152380D01*
X145328095Y-68809523D02*
X145290000Y-68771428D01*
X145251904Y-68695238D01*
X145251904Y-68504761D01*
X145290000Y-68428571D01*
X145328095Y-68390476D01*
X145404285Y-68352380D01*
X145480476Y-68352380D01*
X145594761Y-68390476D01*
X146051904Y-68847619D01*
X146051904Y-68352380D01*
G04 #@! TO.C,Q1*
X129778095Y-78576190D02*
X129740000Y-78652380D01*
X129663809Y-78728571D01*
X129549523Y-78842857D01*
X129511428Y-78919047D01*
X129511428Y-78995238D01*
X129701904Y-78957142D02*
X129663809Y-79033333D01*
X129587619Y-79109523D01*
X129435238Y-79147619D01*
X129168571Y-79147619D01*
X129016190Y-79109523D01*
X128940000Y-79033333D01*
X128901904Y-78957142D01*
X128901904Y-78804761D01*
X128940000Y-78728571D01*
X129016190Y-78652380D01*
X129168571Y-78614285D01*
X129435238Y-78614285D01*
X129587619Y-78652380D01*
X129663809Y-78728571D01*
X129701904Y-78804761D01*
X129701904Y-78957142D01*
X129701904Y-77852380D02*
X129701904Y-78309523D01*
X129701904Y-78080952D02*
X128901904Y-78080952D01*
X129016190Y-78157142D01*
X129092380Y-78233333D01*
X129130476Y-78309523D01*
G04 #@! TO.C,Q2*
X131728095Y-87476190D02*
X131690000Y-87552380D01*
X131613809Y-87628571D01*
X131499523Y-87742857D01*
X131461428Y-87819047D01*
X131461428Y-87895238D01*
X131651904Y-87857142D02*
X131613809Y-87933333D01*
X131537619Y-88009523D01*
X131385238Y-88047619D01*
X131118571Y-88047619D01*
X130966190Y-88009523D01*
X130890000Y-87933333D01*
X130851904Y-87857142D01*
X130851904Y-87704761D01*
X130890000Y-87628571D01*
X130966190Y-87552380D01*
X131118571Y-87514285D01*
X131385238Y-87514285D01*
X131537619Y-87552380D01*
X131613809Y-87628571D01*
X131651904Y-87704761D01*
X131651904Y-87857142D01*
X130928095Y-87209523D02*
X130890000Y-87171428D01*
X130851904Y-87095238D01*
X130851904Y-86904761D01*
X130890000Y-86828571D01*
X130928095Y-86790476D01*
X131004285Y-86752380D01*
X131080476Y-86752380D01*
X131194761Y-86790476D01*
X131651904Y-87247619D01*
X131651904Y-86752380D01*
G04 #@! TO.C,R10*
X128751904Y-88164285D02*
X128370952Y-88430952D01*
X128751904Y-88621428D02*
X127951904Y-88621428D01*
X127951904Y-88316666D01*
X127990000Y-88240476D01*
X128028095Y-88202380D01*
X128104285Y-88164285D01*
X128218571Y-88164285D01*
X128294761Y-88202380D01*
X128332857Y-88240476D01*
X128370952Y-88316666D01*
X128370952Y-88621428D01*
X128751904Y-87402380D02*
X128751904Y-87859523D01*
X128751904Y-87630952D02*
X127951904Y-87630952D01*
X128066190Y-87707142D01*
X128142380Y-87783333D01*
X128180476Y-87859523D01*
X127951904Y-86907142D02*
X127951904Y-86830952D01*
X127990000Y-86754761D01*
X128028095Y-86716666D01*
X128104285Y-86678571D01*
X128256666Y-86640476D01*
X128447142Y-86640476D01*
X128599523Y-86678571D01*
X128675714Y-86716666D01*
X128713809Y-86754761D01*
X128751904Y-86830952D01*
X128751904Y-86907142D01*
X128713809Y-86983333D01*
X128675714Y-87021428D01*
X128599523Y-87059523D01*
X128447142Y-87097619D01*
X128256666Y-87097619D01*
X128104285Y-87059523D01*
X128028095Y-87021428D01*
X127990000Y-86983333D01*
X127951904Y-86907142D01*
G04 #@! TD*
M02*
