G04 #@! TF.GenerationSoftware,KiCad,Pcbnew,5.0.2-bee76a0~70~ubuntu16.04.1*
G04 #@! TF.CreationDate,2019-05-21T19:47:30+01:00*
G04 #@! TF.ProjectId,project,70726f6a-6563-4742-9e6b-696361645f70,rev?*
G04 #@! TF.SameCoordinates,Original*
G04 #@! TF.FileFunction,Soldermask,Top*
G04 #@! TF.FilePolarity,Negative*
%FSLAX46Y46*%
G04 Gerber Fmt 4.6, Leading zero omitted, Abs format (unit mm)*
G04 Created by KiCad (PCBNEW 5.0.2-bee76a0~70~ubuntu16.04.1) date Tue 21 May 2019 19:47:30 BST*
%MOMM*%
%LPD*%
G01*
G04 APERTURE LIST*
%ADD10C,0.150000*%
%ADD11C,0.127000*%
%ADD12C,0.076200*%
%ADD13C,0.101600*%
%ADD14R,3.000000X3.000000*%
%ADD15C,3.000000*%
%ADD16O,1.905000X2.000000*%
%ADD17R,1.905000X2.000000*%
%ADD18C,0.100000*%
%ADD19C,0.950000*%
%ADD20C,1.150000*%
%ADD21C,6.400000*%
%ADD22C,1.700000*%
%ADD23C,1.700000*%
%ADD24R,0.800000X0.900000*%
%ADD25R,3.800000X2.000000*%
%ADD26R,1.500000X2.000000*%
%ADD27R,1.450000X0.450000*%
%ADD28R,0.900000X1.200000*%
%ADD29C,0.254000*%
G04 APERTURE END LIST*
D10*
G04 #@! TO.C,REF\002A\002A*
X136631623Y-110690000D02*
G75*
G03X136631623Y-110690000I-31623J0D01*
G01*
D11*
X136870000Y-110770000D02*
G75*
G03X136870000Y-110770000I-410000J0D01*
G01*
D10*
X136351623Y-110690000D02*
G75*
G03X136351623Y-110690000I-31623J0D01*
G01*
D12*
X136270000Y-110910000D02*
X136390000Y-110980000D01*
X136390000Y-110980000D02*
X136520000Y-110970000D01*
X136520000Y-110970000D02*
X136640000Y-110880000D01*
D13*
X136350000Y-110300000D02*
X136080000Y-110160000D01*
X136080000Y-110160000D02*
X135800000Y-110230000D01*
X135800000Y-110230000D02*
X135690000Y-110420000D01*
X135690000Y-110420000D02*
X135800000Y-110590000D01*
X135800000Y-110590000D02*
X136010000Y-110640000D01*
X136020000Y-110710000D02*
X135750000Y-110760000D01*
X135750000Y-110760000D02*
X135660000Y-110910000D01*
X135660000Y-110910000D02*
X135700000Y-111040000D01*
X135700000Y-111040000D02*
X135820000Y-111120000D01*
X135820000Y-111120000D02*
X136070000Y-111060000D01*
X136090000Y-111080000D02*
X136010000Y-111280000D01*
X136010000Y-111280000D02*
X136020000Y-111470000D01*
X136020000Y-111470000D02*
X136130000Y-111510000D01*
X136130000Y-111510000D02*
X136250000Y-111470000D01*
X136250000Y-111470000D02*
X136310000Y-111360000D01*
X136310000Y-111360000D02*
X136330000Y-111250000D01*
X136330000Y-111250000D02*
X136350000Y-111230000D01*
X136350000Y-111230000D02*
X136320000Y-111250000D01*
X136320000Y-111250000D02*
X136310000Y-111220000D01*
X136420000Y-110340000D02*
X136510000Y-110070000D01*
X136510000Y-110070000D02*
X136670000Y-110010000D01*
X136670000Y-110010000D02*
X136840000Y-110040000D01*
X136840000Y-110040000D02*
X136890000Y-110150000D01*
X136890000Y-110150000D02*
X136870000Y-110260000D01*
X136870000Y-110260000D02*
X136780000Y-110400000D01*
X136750000Y-110390000D02*
X137120000Y-110380000D01*
X137120000Y-110380000D02*
X137230000Y-110480000D01*
X137230000Y-110480000D02*
X137250000Y-110630000D01*
X137250000Y-110630000D02*
X137150000Y-110700000D01*
X137150000Y-110700000D02*
X137000000Y-110710000D01*
X137000000Y-110710000D02*
X136900000Y-110710000D01*
X136900000Y-110740000D02*
X137080000Y-110850000D01*
X137080000Y-110850000D02*
X137180000Y-110990000D01*
X137180000Y-110990000D02*
X137180000Y-111130000D01*
X137180000Y-111130000D02*
X137140000Y-111230000D01*
X137140000Y-111230000D02*
X137030000Y-111270000D01*
X137030000Y-111270000D02*
X136900000Y-111240000D01*
X136900000Y-111240000D02*
X136810000Y-111110000D01*
X136380000Y-111240000D02*
X136450000Y-111430000D01*
X136450000Y-111430000D02*
X136570000Y-111560000D01*
X136570000Y-111560000D02*
X136690000Y-111530000D01*
X136690000Y-111530000D02*
X136740000Y-111440000D01*
X136740000Y-111440000D02*
X136720000Y-111340000D01*
X136720000Y-111340000D02*
X136720000Y-111170000D01*
X136350000Y-111330000D02*
X136440000Y-111760000D01*
X136440000Y-111760000D02*
X136660000Y-112060000D01*
X136660000Y-112060000D02*
X136780000Y-112340000D01*
X136780000Y-112340000D02*
X136740000Y-112560000D01*
X136740000Y-112560000D02*
X136900000Y-112040000D01*
G04 #@! TD*
D14*
G04 #@! TO.C,SC1*
X143140000Y-73300000D03*
D15*
X148220000Y-73300000D03*
G04 #@! TD*
D14*
G04 #@! TO.C,BT1*
X130230000Y-73290000D03*
D15*
X125150000Y-73290000D03*
G04 #@! TD*
D16*
G04 #@! TO.C,Q3*
X134100000Y-77490000D03*
X136640000Y-77490000D03*
D17*
X139180000Y-77490000D03*
G04 #@! TD*
D18*
G04 #@! TO.C,C1*
G36*
X129935779Y-89766144D02*
X129958834Y-89769563D01*
X129981443Y-89775227D01*
X130003387Y-89783079D01*
X130024457Y-89793044D01*
X130044448Y-89805026D01*
X130063168Y-89818910D01*
X130080438Y-89834562D01*
X130096090Y-89851832D01*
X130109974Y-89870552D01*
X130121956Y-89890543D01*
X130131921Y-89911613D01*
X130139773Y-89933557D01*
X130145437Y-89956166D01*
X130148856Y-89979221D01*
X130150000Y-90002500D01*
X130150000Y-90477500D01*
X130148856Y-90500779D01*
X130145437Y-90523834D01*
X130139773Y-90546443D01*
X130131921Y-90568387D01*
X130121956Y-90589457D01*
X130109974Y-90609448D01*
X130096090Y-90628168D01*
X130080438Y-90645438D01*
X130063168Y-90661090D01*
X130044448Y-90674974D01*
X130024457Y-90686956D01*
X130003387Y-90696921D01*
X129981443Y-90704773D01*
X129958834Y-90710437D01*
X129935779Y-90713856D01*
X129912500Y-90715000D01*
X129337500Y-90715000D01*
X129314221Y-90713856D01*
X129291166Y-90710437D01*
X129268557Y-90704773D01*
X129246613Y-90696921D01*
X129225543Y-90686956D01*
X129205552Y-90674974D01*
X129186832Y-90661090D01*
X129169562Y-90645438D01*
X129153910Y-90628168D01*
X129140026Y-90609448D01*
X129128044Y-90589457D01*
X129118079Y-90568387D01*
X129110227Y-90546443D01*
X129104563Y-90523834D01*
X129101144Y-90500779D01*
X129100000Y-90477500D01*
X129100000Y-90002500D01*
X129101144Y-89979221D01*
X129104563Y-89956166D01*
X129110227Y-89933557D01*
X129118079Y-89911613D01*
X129128044Y-89890543D01*
X129140026Y-89870552D01*
X129153910Y-89851832D01*
X129169562Y-89834562D01*
X129186832Y-89818910D01*
X129205552Y-89805026D01*
X129225543Y-89793044D01*
X129246613Y-89783079D01*
X129268557Y-89775227D01*
X129291166Y-89769563D01*
X129314221Y-89766144D01*
X129337500Y-89765000D01*
X129912500Y-89765000D01*
X129935779Y-89766144D01*
X129935779Y-89766144D01*
G37*
D19*
X129625000Y-90240000D03*
D18*
G36*
X128185779Y-89766144D02*
X128208834Y-89769563D01*
X128231443Y-89775227D01*
X128253387Y-89783079D01*
X128274457Y-89793044D01*
X128294448Y-89805026D01*
X128313168Y-89818910D01*
X128330438Y-89834562D01*
X128346090Y-89851832D01*
X128359974Y-89870552D01*
X128371956Y-89890543D01*
X128381921Y-89911613D01*
X128389773Y-89933557D01*
X128395437Y-89956166D01*
X128398856Y-89979221D01*
X128400000Y-90002500D01*
X128400000Y-90477500D01*
X128398856Y-90500779D01*
X128395437Y-90523834D01*
X128389773Y-90546443D01*
X128381921Y-90568387D01*
X128371956Y-90589457D01*
X128359974Y-90609448D01*
X128346090Y-90628168D01*
X128330438Y-90645438D01*
X128313168Y-90661090D01*
X128294448Y-90674974D01*
X128274457Y-90686956D01*
X128253387Y-90696921D01*
X128231443Y-90704773D01*
X128208834Y-90710437D01*
X128185779Y-90713856D01*
X128162500Y-90715000D01*
X127587500Y-90715000D01*
X127564221Y-90713856D01*
X127541166Y-90710437D01*
X127518557Y-90704773D01*
X127496613Y-90696921D01*
X127475543Y-90686956D01*
X127455552Y-90674974D01*
X127436832Y-90661090D01*
X127419562Y-90645438D01*
X127403910Y-90628168D01*
X127390026Y-90609448D01*
X127378044Y-90589457D01*
X127368079Y-90568387D01*
X127360227Y-90546443D01*
X127354563Y-90523834D01*
X127351144Y-90500779D01*
X127350000Y-90477500D01*
X127350000Y-90002500D01*
X127351144Y-89979221D01*
X127354563Y-89956166D01*
X127360227Y-89933557D01*
X127368079Y-89911613D01*
X127378044Y-89890543D01*
X127390026Y-89870552D01*
X127403910Y-89851832D01*
X127419562Y-89834562D01*
X127436832Y-89818910D01*
X127455552Y-89805026D01*
X127475543Y-89793044D01*
X127496613Y-89783079D01*
X127518557Y-89775227D01*
X127541166Y-89769563D01*
X127564221Y-89766144D01*
X127587500Y-89765000D01*
X128162500Y-89765000D01*
X128185779Y-89766144D01*
X128185779Y-89766144D01*
G37*
D19*
X127875000Y-90240000D03*
G04 #@! TD*
D18*
G04 #@! TO.C,C3*
G36*
X133505779Y-89776144D02*
X133528834Y-89779563D01*
X133551443Y-89785227D01*
X133573387Y-89793079D01*
X133594457Y-89803044D01*
X133614448Y-89815026D01*
X133633168Y-89828910D01*
X133650438Y-89844562D01*
X133666090Y-89861832D01*
X133679974Y-89880552D01*
X133691956Y-89900543D01*
X133701921Y-89921613D01*
X133709773Y-89943557D01*
X133715437Y-89966166D01*
X133718856Y-89989221D01*
X133720000Y-90012500D01*
X133720000Y-90487500D01*
X133718856Y-90510779D01*
X133715437Y-90533834D01*
X133709773Y-90556443D01*
X133701921Y-90578387D01*
X133691956Y-90599457D01*
X133679974Y-90619448D01*
X133666090Y-90638168D01*
X133650438Y-90655438D01*
X133633168Y-90671090D01*
X133614448Y-90684974D01*
X133594457Y-90696956D01*
X133573387Y-90706921D01*
X133551443Y-90714773D01*
X133528834Y-90720437D01*
X133505779Y-90723856D01*
X133482500Y-90725000D01*
X132907500Y-90725000D01*
X132884221Y-90723856D01*
X132861166Y-90720437D01*
X132838557Y-90714773D01*
X132816613Y-90706921D01*
X132795543Y-90696956D01*
X132775552Y-90684974D01*
X132756832Y-90671090D01*
X132739562Y-90655438D01*
X132723910Y-90638168D01*
X132710026Y-90619448D01*
X132698044Y-90599457D01*
X132688079Y-90578387D01*
X132680227Y-90556443D01*
X132674563Y-90533834D01*
X132671144Y-90510779D01*
X132670000Y-90487500D01*
X132670000Y-90012500D01*
X132671144Y-89989221D01*
X132674563Y-89966166D01*
X132680227Y-89943557D01*
X132688079Y-89921613D01*
X132698044Y-89900543D01*
X132710026Y-89880552D01*
X132723910Y-89861832D01*
X132739562Y-89844562D01*
X132756832Y-89828910D01*
X132775552Y-89815026D01*
X132795543Y-89803044D01*
X132816613Y-89793079D01*
X132838557Y-89785227D01*
X132861166Y-89779563D01*
X132884221Y-89776144D01*
X132907500Y-89775000D01*
X133482500Y-89775000D01*
X133505779Y-89776144D01*
X133505779Y-89776144D01*
G37*
D19*
X133195000Y-90250000D03*
D18*
G36*
X131755779Y-89776144D02*
X131778834Y-89779563D01*
X131801443Y-89785227D01*
X131823387Y-89793079D01*
X131844457Y-89803044D01*
X131864448Y-89815026D01*
X131883168Y-89828910D01*
X131900438Y-89844562D01*
X131916090Y-89861832D01*
X131929974Y-89880552D01*
X131941956Y-89900543D01*
X131951921Y-89921613D01*
X131959773Y-89943557D01*
X131965437Y-89966166D01*
X131968856Y-89989221D01*
X131970000Y-90012500D01*
X131970000Y-90487500D01*
X131968856Y-90510779D01*
X131965437Y-90533834D01*
X131959773Y-90556443D01*
X131951921Y-90578387D01*
X131941956Y-90599457D01*
X131929974Y-90619448D01*
X131916090Y-90638168D01*
X131900438Y-90655438D01*
X131883168Y-90671090D01*
X131864448Y-90684974D01*
X131844457Y-90696956D01*
X131823387Y-90706921D01*
X131801443Y-90714773D01*
X131778834Y-90720437D01*
X131755779Y-90723856D01*
X131732500Y-90725000D01*
X131157500Y-90725000D01*
X131134221Y-90723856D01*
X131111166Y-90720437D01*
X131088557Y-90714773D01*
X131066613Y-90706921D01*
X131045543Y-90696956D01*
X131025552Y-90684974D01*
X131006832Y-90671090D01*
X130989562Y-90655438D01*
X130973910Y-90638168D01*
X130960026Y-90619448D01*
X130948044Y-90599457D01*
X130938079Y-90578387D01*
X130930227Y-90556443D01*
X130924563Y-90533834D01*
X130921144Y-90510779D01*
X130920000Y-90487500D01*
X130920000Y-90012500D01*
X130921144Y-89989221D01*
X130924563Y-89966166D01*
X130930227Y-89943557D01*
X130938079Y-89921613D01*
X130948044Y-89900543D01*
X130960026Y-89880552D01*
X130973910Y-89861832D01*
X130989562Y-89844562D01*
X131006832Y-89828910D01*
X131025552Y-89815026D01*
X131045543Y-89803044D01*
X131066613Y-89793079D01*
X131088557Y-89785227D01*
X131111166Y-89779563D01*
X131134221Y-89776144D01*
X131157500Y-89775000D01*
X131732500Y-89775000D01*
X131755779Y-89776144D01*
X131755779Y-89776144D01*
G37*
D19*
X131445000Y-90250000D03*
G04 #@! TD*
D18*
G04 #@! TO.C,D4*
G36*
X114954505Y-74991204D02*
X114978773Y-74994804D01*
X115002572Y-75000765D01*
X115025671Y-75009030D01*
X115047850Y-75019520D01*
X115068893Y-75032132D01*
X115088599Y-75046747D01*
X115106777Y-75063223D01*
X115123253Y-75081401D01*
X115137868Y-75101107D01*
X115150480Y-75122150D01*
X115160970Y-75144329D01*
X115169235Y-75167428D01*
X115175196Y-75191227D01*
X115178796Y-75215495D01*
X115180000Y-75239999D01*
X115180000Y-76140001D01*
X115178796Y-76164505D01*
X115175196Y-76188773D01*
X115169235Y-76212572D01*
X115160970Y-76235671D01*
X115150480Y-76257850D01*
X115137868Y-76278893D01*
X115123253Y-76298599D01*
X115106777Y-76316777D01*
X115088599Y-76333253D01*
X115068893Y-76347868D01*
X115047850Y-76360480D01*
X115025671Y-76370970D01*
X115002572Y-76379235D01*
X114978773Y-76385196D01*
X114954505Y-76388796D01*
X114930001Y-76390000D01*
X114279999Y-76390000D01*
X114255495Y-76388796D01*
X114231227Y-76385196D01*
X114207428Y-76379235D01*
X114184329Y-76370970D01*
X114162150Y-76360480D01*
X114141107Y-76347868D01*
X114121401Y-76333253D01*
X114103223Y-76316777D01*
X114086747Y-76298599D01*
X114072132Y-76278893D01*
X114059520Y-76257850D01*
X114049030Y-76235671D01*
X114040765Y-76212572D01*
X114034804Y-76188773D01*
X114031204Y-76164505D01*
X114030000Y-76140001D01*
X114030000Y-75239999D01*
X114031204Y-75215495D01*
X114034804Y-75191227D01*
X114040765Y-75167428D01*
X114049030Y-75144329D01*
X114059520Y-75122150D01*
X114072132Y-75101107D01*
X114086747Y-75081401D01*
X114103223Y-75063223D01*
X114121401Y-75046747D01*
X114141107Y-75032132D01*
X114162150Y-75019520D01*
X114184329Y-75009030D01*
X114207428Y-75000765D01*
X114231227Y-74994804D01*
X114255495Y-74991204D01*
X114279999Y-74990000D01*
X114930001Y-74990000D01*
X114954505Y-74991204D01*
X114954505Y-74991204D01*
G37*
D20*
X114605000Y-75690000D03*
D18*
G36*
X117004505Y-74991204D02*
X117028773Y-74994804D01*
X117052572Y-75000765D01*
X117075671Y-75009030D01*
X117097850Y-75019520D01*
X117118893Y-75032132D01*
X117138599Y-75046747D01*
X117156777Y-75063223D01*
X117173253Y-75081401D01*
X117187868Y-75101107D01*
X117200480Y-75122150D01*
X117210970Y-75144329D01*
X117219235Y-75167428D01*
X117225196Y-75191227D01*
X117228796Y-75215495D01*
X117230000Y-75239999D01*
X117230000Y-76140001D01*
X117228796Y-76164505D01*
X117225196Y-76188773D01*
X117219235Y-76212572D01*
X117210970Y-76235671D01*
X117200480Y-76257850D01*
X117187868Y-76278893D01*
X117173253Y-76298599D01*
X117156777Y-76316777D01*
X117138599Y-76333253D01*
X117118893Y-76347868D01*
X117097850Y-76360480D01*
X117075671Y-76370970D01*
X117052572Y-76379235D01*
X117028773Y-76385196D01*
X117004505Y-76388796D01*
X116980001Y-76390000D01*
X116329999Y-76390000D01*
X116305495Y-76388796D01*
X116281227Y-76385196D01*
X116257428Y-76379235D01*
X116234329Y-76370970D01*
X116212150Y-76360480D01*
X116191107Y-76347868D01*
X116171401Y-76333253D01*
X116153223Y-76316777D01*
X116136747Y-76298599D01*
X116122132Y-76278893D01*
X116109520Y-76257850D01*
X116099030Y-76235671D01*
X116090765Y-76212572D01*
X116084804Y-76188773D01*
X116081204Y-76164505D01*
X116080000Y-76140001D01*
X116080000Y-75239999D01*
X116081204Y-75215495D01*
X116084804Y-75191227D01*
X116090765Y-75167428D01*
X116099030Y-75144329D01*
X116109520Y-75122150D01*
X116122132Y-75101107D01*
X116136747Y-75081401D01*
X116153223Y-75063223D01*
X116171401Y-75046747D01*
X116191107Y-75032132D01*
X116212150Y-75019520D01*
X116234329Y-75009030D01*
X116257428Y-75000765D01*
X116281227Y-74994804D01*
X116305495Y-74991204D01*
X116329999Y-74990000D01*
X116980001Y-74990000D01*
X117004505Y-74991204D01*
X117004505Y-74991204D01*
G37*
D20*
X116655000Y-75690000D03*
G04 #@! TD*
D18*
G04 #@! TO.C,D5*
G36*
X158979505Y-74991204D02*
X159003773Y-74994804D01*
X159027572Y-75000765D01*
X159050671Y-75009030D01*
X159072850Y-75019520D01*
X159093893Y-75032132D01*
X159113599Y-75046747D01*
X159131777Y-75063223D01*
X159148253Y-75081401D01*
X159162868Y-75101107D01*
X159175480Y-75122150D01*
X159185970Y-75144329D01*
X159194235Y-75167428D01*
X159200196Y-75191227D01*
X159203796Y-75215495D01*
X159205000Y-75239999D01*
X159205000Y-76140001D01*
X159203796Y-76164505D01*
X159200196Y-76188773D01*
X159194235Y-76212572D01*
X159185970Y-76235671D01*
X159175480Y-76257850D01*
X159162868Y-76278893D01*
X159148253Y-76298599D01*
X159131777Y-76316777D01*
X159113599Y-76333253D01*
X159093893Y-76347868D01*
X159072850Y-76360480D01*
X159050671Y-76370970D01*
X159027572Y-76379235D01*
X159003773Y-76385196D01*
X158979505Y-76388796D01*
X158955001Y-76390000D01*
X158304999Y-76390000D01*
X158280495Y-76388796D01*
X158256227Y-76385196D01*
X158232428Y-76379235D01*
X158209329Y-76370970D01*
X158187150Y-76360480D01*
X158166107Y-76347868D01*
X158146401Y-76333253D01*
X158128223Y-76316777D01*
X158111747Y-76298599D01*
X158097132Y-76278893D01*
X158084520Y-76257850D01*
X158074030Y-76235671D01*
X158065765Y-76212572D01*
X158059804Y-76188773D01*
X158056204Y-76164505D01*
X158055000Y-76140001D01*
X158055000Y-75239999D01*
X158056204Y-75215495D01*
X158059804Y-75191227D01*
X158065765Y-75167428D01*
X158074030Y-75144329D01*
X158084520Y-75122150D01*
X158097132Y-75101107D01*
X158111747Y-75081401D01*
X158128223Y-75063223D01*
X158146401Y-75046747D01*
X158166107Y-75032132D01*
X158187150Y-75019520D01*
X158209329Y-75009030D01*
X158232428Y-75000765D01*
X158256227Y-74994804D01*
X158280495Y-74991204D01*
X158304999Y-74990000D01*
X158955001Y-74990000D01*
X158979505Y-74991204D01*
X158979505Y-74991204D01*
G37*
D20*
X158630000Y-75690000D03*
D18*
G36*
X156929505Y-74991204D02*
X156953773Y-74994804D01*
X156977572Y-75000765D01*
X157000671Y-75009030D01*
X157022850Y-75019520D01*
X157043893Y-75032132D01*
X157063599Y-75046747D01*
X157081777Y-75063223D01*
X157098253Y-75081401D01*
X157112868Y-75101107D01*
X157125480Y-75122150D01*
X157135970Y-75144329D01*
X157144235Y-75167428D01*
X157150196Y-75191227D01*
X157153796Y-75215495D01*
X157155000Y-75239999D01*
X157155000Y-76140001D01*
X157153796Y-76164505D01*
X157150196Y-76188773D01*
X157144235Y-76212572D01*
X157135970Y-76235671D01*
X157125480Y-76257850D01*
X157112868Y-76278893D01*
X157098253Y-76298599D01*
X157081777Y-76316777D01*
X157063599Y-76333253D01*
X157043893Y-76347868D01*
X157022850Y-76360480D01*
X157000671Y-76370970D01*
X156977572Y-76379235D01*
X156953773Y-76385196D01*
X156929505Y-76388796D01*
X156905001Y-76390000D01*
X156254999Y-76390000D01*
X156230495Y-76388796D01*
X156206227Y-76385196D01*
X156182428Y-76379235D01*
X156159329Y-76370970D01*
X156137150Y-76360480D01*
X156116107Y-76347868D01*
X156096401Y-76333253D01*
X156078223Y-76316777D01*
X156061747Y-76298599D01*
X156047132Y-76278893D01*
X156034520Y-76257850D01*
X156024030Y-76235671D01*
X156015765Y-76212572D01*
X156009804Y-76188773D01*
X156006204Y-76164505D01*
X156005000Y-76140001D01*
X156005000Y-75239999D01*
X156006204Y-75215495D01*
X156009804Y-75191227D01*
X156015765Y-75167428D01*
X156024030Y-75144329D01*
X156034520Y-75122150D01*
X156047132Y-75101107D01*
X156061747Y-75081401D01*
X156078223Y-75063223D01*
X156096401Y-75046747D01*
X156116107Y-75032132D01*
X156137150Y-75019520D01*
X156159329Y-75009030D01*
X156182428Y-75000765D01*
X156206227Y-74994804D01*
X156230495Y-74991204D01*
X156254999Y-74990000D01*
X156905001Y-74990000D01*
X156929505Y-74991204D01*
X156929505Y-74991204D01*
G37*
D20*
X156580000Y-75690000D03*
G04 #@! TD*
D21*
G04 #@! TO.C,H1*
X152130000Y-63290000D03*
G04 #@! TD*
D22*
G04 #@! TO.C,J1*
X160080000Y-82815000D03*
D18*
G36*
X161277507Y-82710232D02*
X160184768Y-84012507D01*
X158882493Y-82919768D01*
X159975232Y-81617493D01*
X161277507Y-82710232D01*
X161277507Y-82710232D01*
G37*
D22*
X158447319Y-84760753D03*
D23*
X158447319Y-84760753D02*
X158447319Y-84760753D01*
D22*
X156814639Y-86706506D03*
D23*
X156814639Y-86706506D02*
X156814639Y-86706506D01*
D22*
X155181958Y-88652259D03*
D23*
X155181958Y-88652259D02*
X155181958Y-88652259D01*
D22*
X153549278Y-90598012D03*
D23*
X153549278Y-90598012D02*
X153549278Y-90598012D01*
D22*
X151916597Y-92543764D03*
D23*
X151916597Y-92543764D02*
X151916597Y-92543764D01*
G04 #@! TD*
D24*
G04 #@! TO.C,Q1*
X144570000Y-81000000D03*
X145520000Y-83000000D03*
X143620000Y-83000000D03*
G04 #@! TD*
G04 #@! TO.C,Q2*
X139530000Y-90630000D03*
X138580000Y-88630000D03*
X140480000Y-88630000D03*
G04 #@! TD*
G04 #@! TO.C,Q4*
X142330000Y-90630000D03*
X144230000Y-90630000D03*
X143280000Y-88630000D03*
G04 #@! TD*
D18*
G04 #@! TO.C,R3*
G36*
X138965779Y-86406144D02*
X138988834Y-86409563D01*
X139011443Y-86415227D01*
X139033387Y-86423079D01*
X139054457Y-86433044D01*
X139074448Y-86445026D01*
X139093168Y-86458910D01*
X139110438Y-86474562D01*
X139126090Y-86491832D01*
X139139974Y-86510552D01*
X139151956Y-86530543D01*
X139161921Y-86551613D01*
X139169773Y-86573557D01*
X139175437Y-86596166D01*
X139178856Y-86619221D01*
X139180000Y-86642500D01*
X139180000Y-87117500D01*
X139178856Y-87140779D01*
X139175437Y-87163834D01*
X139169773Y-87186443D01*
X139161921Y-87208387D01*
X139151956Y-87229457D01*
X139139974Y-87249448D01*
X139126090Y-87268168D01*
X139110438Y-87285438D01*
X139093168Y-87301090D01*
X139074448Y-87314974D01*
X139054457Y-87326956D01*
X139033387Y-87336921D01*
X139011443Y-87344773D01*
X138988834Y-87350437D01*
X138965779Y-87353856D01*
X138942500Y-87355000D01*
X138367500Y-87355000D01*
X138344221Y-87353856D01*
X138321166Y-87350437D01*
X138298557Y-87344773D01*
X138276613Y-87336921D01*
X138255543Y-87326956D01*
X138235552Y-87314974D01*
X138216832Y-87301090D01*
X138199562Y-87285438D01*
X138183910Y-87268168D01*
X138170026Y-87249448D01*
X138158044Y-87229457D01*
X138148079Y-87208387D01*
X138140227Y-87186443D01*
X138134563Y-87163834D01*
X138131144Y-87140779D01*
X138130000Y-87117500D01*
X138130000Y-86642500D01*
X138131144Y-86619221D01*
X138134563Y-86596166D01*
X138140227Y-86573557D01*
X138148079Y-86551613D01*
X138158044Y-86530543D01*
X138170026Y-86510552D01*
X138183910Y-86491832D01*
X138199562Y-86474562D01*
X138216832Y-86458910D01*
X138235552Y-86445026D01*
X138255543Y-86433044D01*
X138276613Y-86423079D01*
X138298557Y-86415227D01*
X138321166Y-86409563D01*
X138344221Y-86406144D01*
X138367500Y-86405000D01*
X138942500Y-86405000D01*
X138965779Y-86406144D01*
X138965779Y-86406144D01*
G37*
D19*
X138655000Y-86880000D03*
D18*
G36*
X140715779Y-86406144D02*
X140738834Y-86409563D01*
X140761443Y-86415227D01*
X140783387Y-86423079D01*
X140804457Y-86433044D01*
X140824448Y-86445026D01*
X140843168Y-86458910D01*
X140860438Y-86474562D01*
X140876090Y-86491832D01*
X140889974Y-86510552D01*
X140901956Y-86530543D01*
X140911921Y-86551613D01*
X140919773Y-86573557D01*
X140925437Y-86596166D01*
X140928856Y-86619221D01*
X140930000Y-86642500D01*
X140930000Y-87117500D01*
X140928856Y-87140779D01*
X140925437Y-87163834D01*
X140919773Y-87186443D01*
X140911921Y-87208387D01*
X140901956Y-87229457D01*
X140889974Y-87249448D01*
X140876090Y-87268168D01*
X140860438Y-87285438D01*
X140843168Y-87301090D01*
X140824448Y-87314974D01*
X140804457Y-87326956D01*
X140783387Y-87336921D01*
X140761443Y-87344773D01*
X140738834Y-87350437D01*
X140715779Y-87353856D01*
X140692500Y-87355000D01*
X140117500Y-87355000D01*
X140094221Y-87353856D01*
X140071166Y-87350437D01*
X140048557Y-87344773D01*
X140026613Y-87336921D01*
X140005543Y-87326956D01*
X139985552Y-87314974D01*
X139966832Y-87301090D01*
X139949562Y-87285438D01*
X139933910Y-87268168D01*
X139920026Y-87249448D01*
X139908044Y-87229457D01*
X139898079Y-87208387D01*
X139890227Y-87186443D01*
X139884563Y-87163834D01*
X139881144Y-87140779D01*
X139880000Y-87117500D01*
X139880000Y-86642500D01*
X139881144Y-86619221D01*
X139884563Y-86596166D01*
X139890227Y-86573557D01*
X139898079Y-86551613D01*
X139908044Y-86530543D01*
X139920026Y-86510552D01*
X139933910Y-86491832D01*
X139949562Y-86474562D01*
X139966832Y-86458910D01*
X139985552Y-86445026D01*
X140005543Y-86433044D01*
X140026613Y-86423079D01*
X140048557Y-86415227D01*
X140071166Y-86409563D01*
X140094221Y-86406144D01*
X140117500Y-86405000D01*
X140692500Y-86405000D01*
X140715779Y-86406144D01*
X140715779Y-86406144D01*
G37*
D19*
X140405000Y-86880000D03*
G04 #@! TD*
D18*
G04 #@! TO.C,R4*
G36*
X144005779Y-84276144D02*
X144028834Y-84279563D01*
X144051443Y-84285227D01*
X144073387Y-84293079D01*
X144094457Y-84303044D01*
X144114448Y-84315026D01*
X144133168Y-84328910D01*
X144150438Y-84344562D01*
X144166090Y-84361832D01*
X144179974Y-84380552D01*
X144191956Y-84400543D01*
X144201921Y-84421613D01*
X144209773Y-84443557D01*
X144215437Y-84466166D01*
X144218856Y-84489221D01*
X144220000Y-84512500D01*
X144220000Y-84987500D01*
X144218856Y-85010779D01*
X144215437Y-85033834D01*
X144209773Y-85056443D01*
X144201921Y-85078387D01*
X144191956Y-85099457D01*
X144179974Y-85119448D01*
X144166090Y-85138168D01*
X144150438Y-85155438D01*
X144133168Y-85171090D01*
X144114448Y-85184974D01*
X144094457Y-85196956D01*
X144073387Y-85206921D01*
X144051443Y-85214773D01*
X144028834Y-85220437D01*
X144005779Y-85223856D01*
X143982500Y-85225000D01*
X143407500Y-85225000D01*
X143384221Y-85223856D01*
X143361166Y-85220437D01*
X143338557Y-85214773D01*
X143316613Y-85206921D01*
X143295543Y-85196956D01*
X143275552Y-85184974D01*
X143256832Y-85171090D01*
X143239562Y-85155438D01*
X143223910Y-85138168D01*
X143210026Y-85119448D01*
X143198044Y-85099457D01*
X143188079Y-85078387D01*
X143180227Y-85056443D01*
X143174563Y-85033834D01*
X143171144Y-85010779D01*
X143170000Y-84987500D01*
X143170000Y-84512500D01*
X143171144Y-84489221D01*
X143174563Y-84466166D01*
X143180227Y-84443557D01*
X143188079Y-84421613D01*
X143198044Y-84400543D01*
X143210026Y-84380552D01*
X143223910Y-84361832D01*
X143239562Y-84344562D01*
X143256832Y-84328910D01*
X143275552Y-84315026D01*
X143295543Y-84303044D01*
X143316613Y-84293079D01*
X143338557Y-84285227D01*
X143361166Y-84279563D01*
X143384221Y-84276144D01*
X143407500Y-84275000D01*
X143982500Y-84275000D01*
X144005779Y-84276144D01*
X144005779Y-84276144D01*
G37*
D19*
X143695000Y-84750000D03*
D18*
G36*
X145755779Y-84276144D02*
X145778834Y-84279563D01*
X145801443Y-84285227D01*
X145823387Y-84293079D01*
X145844457Y-84303044D01*
X145864448Y-84315026D01*
X145883168Y-84328910D01*
X145900438Y-84344562D01*
X145916090Y-84361832D01*
X145929974Y-84380552D01*
X145941956Y-84400543D01*
X145951921Y-84421613D01*
X145959773Y-84443557D01*
X145965437Y-84466166D01*
X145968856Y-84489221D01*
X145970000Y-84512500D01*
X145970000Y-84987500D01*
X145968856Y-85010779D01*
X145965437Y-85033834D01*
X145959773Y-85056443D01*
X145951921Y-85078387D01*
X145941956Y-85099457D01*
X145929974Y-85119448D01*
X145916090Y-85138168D01*
X145900438Y-85155438D01*
X145883168Y-85171090D01*
X145864448Y-85184974D01*
X145844457Y-85196956D01*
X145823387Y-85206921D01*
X145801443Y-85214773D01*
X145778834Y-85220437D01*
X145755779Y-85223856D01*
X145732500Y-85225000D01*
X145157500Y-85225000D01*
X145134221Y-85223856D01*
X145111166Y-85220437D01*
X145088557Y-85214773D01*
X145066613Y-85206921D01*
X145045543Y-85196956D01*
X145025552Y-85184974D01*
X145006832Y-85171090D01*
X144989562Y-85155438D01*
X144973910Y-85138168D01*
X144960026Y-85119448D01*
X144948044Y-85099457D01*
X144938079Y-85078387D01*
X144930227Y-85056443D01*
X144924563Y-85033834D01*
X144921144Y-85010779D01*
X144920000Y-84987500D01*
X144920000Y-84512500D01*
X144921144Y-84489221D01*
X144924563Y-84466166D01*
X144930227Y-84443557D01*
X144938079Y-84421613D01*
X144948044Y-84400543D01*
X144960026Y-84380552D01*
X144973910Y-84361832D01*
X144989562Y-84344562D01*
X145006832Y-84328910D01*
X145025552Y-84315026D01*
X145045543Y-84303044D01*
X145066613Y-84293079D01*
X145088557Y-84285227D01*
X145111166Y-84279563D01*
X145134221Y-84276144D01*
X145157500Y-84275000D01*
X145732500Y-84275000D01*
X145755779Y-84276144D01*
X145755779Y-84276144D01*
G37*
D19*
X145445000Y-84750000D03*
G04 #@! TD*
D18*
G04 #@! TO.C,R7*
G36*
X141580779Y-80576144D02*
X141603834Y-80579563D01*
X141626443Y-80585227D01*
X141648387Y-80593079D01*
X141669457Y-80603044D01*
X141689448Y-80615026D01*
X141708168Y-80628910D01*
X141725438Y-80644562D01*
X141741090Y-80661832D01*
X141754974Y-80680552D01*
X141766956Y-80700543D01*
X141776921Y-80721613D01*
X141784773Y-80743557D01*
X141790437Y-80766166D01*
X141793856Y-80789221D01*
X141795000Y-80812500D01*
X141795000Y-81287500D01*
X141793856Y-81310779D01*
X141790437Y-81333834D01*
X141784773Y-81356443D01*
X141776921Y-81378387D01*
X141766956Y-81399457D01*
X141754974Y-81419448D01*
X141741090Y-81438168D01*
X141725438Y-81455438D01*
X141708168Y-81471090D01*
X141689448Y-81484974D01*
X141669457Y-81496956D01*
X141648387Y-81506921D01*
X141626443Y-81514773D01*
X141603834Y-81520437D01*
X141580779Y-81523856D01*
X141557500Y-81525000D01*
X140982500Y-81525000D01*
X140959221Y-81523856D01*
X140936166Y-81520437D01*
X140913557Y-81514773D01*
X140891613Y-81506921D01*
X140870543Y-81496956D01*
X140850552Y-81484974D01*
X140831832Y-81471090D01*
X140814562Y-81455438D01*
X140798910Y-81438168D01*
X140785026Y-81419448D01*
X140773044Y-81399457D01*
X140763079Y-81378387D01*
X140755227Y-81356443D01*
X140749563Y-81333834D01*
X140746144Y-81310779D01*
X140745000Y-81287500D01*
X140745000Y-80812500D01*
X140746144Y-80789221D01*
X140749563Y-80766166D01*
X140755227Y-80743557D01*
X140763079Y-80721613D01*
X140773044Y-80700543D01*
X140785026Y-80680552D01*
X140798910Y-80661832D01*
X140814562Y-80644562D01*
X140831832Y-80628910D01*
X140850552Y-80615026D01*
X140870543Y-80603044D01*
X140891613Y-80593079D01*
X140913557Y-80585227D01*
X140936166Y-80579563D01*
X140959221Y-80576144D01*
X140982500Y-80575000D01*
X141557500Y-80575000D01*
X141580779Y-80576144D01*
X141580779Y-80576144D01*
G37*
D19*
X141270000Y-81050000D03*
D18*
G36*
X139830779Y-80576144D02*
X139853834Y-80579563D01*
X139876443Y-80585227D01*
X139898387Y-80593079D01*
X139919457Y-80603044D01*
X139939448Y-80615026D01*
X139958168Y-80628910D01*
X139975438Y-80644562D01*
X139991090Y-80661832D01*
X140004974Y-80680552D01*
X140016956Y-80700543D01*
X140026921Y-80721613D01*
X140034773Y-80743557D01*
X140040437Y-80766166D01*
X140043856Y-80789221D01*
X140045000Y-80812500D01*
X140045000Y-81287500D01*
X140043856Y-81310779D01*
X140040437Y-81333834D01*
X140034773Y-81356443D01*
X140026921Y-81378387D01*
X140016956Y-81399457D01*
X140004974Y-81419448D01*
X139991090Y-81438168D01*
X139975438Y-81455438D01*
X139958168Y-81471090D01*
X139939448Y-81484974D01*
X139919457Y-81496956D01*
X139898387Y-81506921D01*
X139876443Y-81514773D01*
X139853834Y-81520437D01*
X139830779Y-81523856D01*
X139807500Y-81525000D01*
X139232500Y-81525000D01*
X139209221Y-81523856D01*
X139186166Y-81520437D01*
X139163557Y-81514773D01*
X139141613Y-81506921D01*
X139120543Y-81496956D01*
X139100552Y-81484974D01*
X139081832Y-81471090D01*
X139064562Y-81455438D01*
X139048910Y-81438168D01*
X139035026Y-81419448D01*
X139023044Y-81399457D01*
X139013079Y-81378387D01*
X139005227Y-81356443D01*
X138999563Y-81333834D01*
X138996144Y-81310779D01*
X138995000Y-81287500D01*
X138995000Y-80812500D01*
X138996144Y-80789221D01*
X138999563Y-80766166D01*
X139005227Y-80743557D01*
X139013079Y-80721613D01*
X139023044Y-80700543D01*
X139035026Y-80680552D01*
X139048910Y-80661832D01*
X139064562Y-80644562D01*
X139081832Y-80628910D01*
X139100552Y-80615026D01*
X139120543Y-80603044D01*
X139141613Y-80593079D01*
X139163557Y-80585227D01*
X139186166Y-80579563D01*
X139209221Y-80576144D01*
X139232500Y-80575000D01*
X139807500Y-80575000D01*
X139830779Y-80576144D01*
X139830779Y-80576144D01*
G37*
D19*
X139520000Y-81050000D03*
G04 #@! TD*
D18*
G04 #@! TO.C,R12*
G36*
X144465779Y-86406144D02*
X144488834Y-86409563D01*
X144511443Y-86415227D01*
X144533387Y-86423079D01*
X144554457Y-86433044D01*
X144574448Y-86445026D01*
X144593168Y-86458910D01*
X144610438Y-86474562D01*
X144626090Y-86491832D01*
X144639974Y-86510552D01*
X144651956Y-86530543D01*
X144661921Y-86551613D01*
X144669773Y-86573557D01*
X144675437Y-86596166D01*
X144678856Y-86619221D01*
X144680000Y-86642500D01*
X144680000Y-87117500D01*
X144678856Y-87140779D01*
X144675437Y-87163834D01*
X144669773Y-87186443D01*
X144661921Y-87208387D01*
X144651956Y-87229457D01*
X144639974Y-87249448D01*
X144626090Y-87268168D01*
X144610438Y-87285438D01*
X144593168Y-87301090D01*
X144574448Y-87314974D01*
X144554457Y-87326956D01*
X144533387Y-87336921D01*
X144511443Y-87344773D01*
X144488834Y-87350437D01*
X144465779Y-87353856D01*
X144442500Y-87355000D01*
X143867500Y-87355000D01*
X143844221Y-87353856D01*
X143821166Y-87350437D01*
X143798557Y-87344773D01*
X143776613Y-87336921D01*
X143755543Y-87326956D01*
X143735552Y-87314974D01*
X143716832Y-87301090D01*
X143699562Y-87285438D01*
X143683910Y-87268168D01*
X143670026Y-87249448D01*
X143658044Y-87229457D01*
X143648079Y-87208387D01*
X143640227Y-87186443D01*
X143634563Y-87163834D01*
X143631144Y-87140779D01*
X143630000Y-87117500D01*
X143630000Y-86642500D01*
X143631144Y-86619221D01*
X143634563Y-86596166D01*
X143640227Y-86573557D01*
X143648079Y-86551613D01*
X143658044Y-86530543D01*
X143670026Y-86510552D01*
X143683910Y-86491832D01*
X143699562Y-86474562D01*
X143716832Y-86458910D01*
X143735552Y-86445026D01*
X143755543Y-86433044D01*
X143776613Y-86423079D01*
X143798557Y-86415227D01*
X143821166Y-86409563D01*
X143844221Y-86406144D01*
X143867500Y-86405000D01*
X144442500Y-86405000D01*
X144465779Y-86406144D01*
X144465779Y-86406144D01*
G37*
D19*
X144155000Y-86880000D03*
D18*
G36*
X142715779Y-86406144D02*
X142738834Y-86409563D01*
X142761443Y-86415227D01*
X142783387Y-86423079D01*
X142804457Y-86433044D01*
X142824448Y-86445026D01*
X142843168Y-86458910D01*
X142860438Y-86474562D01*
X142876090Y-86491832D01*
X142889974Y-86510552D01*
X142901956Y-86530543D01*
X142911921Y-86551613D01*
X142919773Y-86573557D01*
X142925437Y-86596166D01*
X142928856Y-86619221D01*
X142930000Y-86642500D01*
X142930000Y-87117500D01*
X142928856Y-87140779D01*
X142925437Y-87163834D01*
X142919773Y-87186443D01*
X142911921Y-87208387D01*
X142901956Y-87229457D01*
X142889974Y-87249448D01*
X142876090Y-87268168D01*
X142860438Y-87285438D01*
X142843168Y-87301090D01*
X142824448Y-87314974D01*
X142804457Y-87326956D01*
X142783387Y-87336921D01*
X142761443Y-87344773D01*
X142738834Y-87350437D01*
X142715779Y-87353856D01*
X142692500Y-87355000D01*
X142117500Y-87355000D01*
X142094221Y-87353856D01*
X142071166Y-87350437D01*
X142048557Y-87344773D01*
X142026613Y-87336921D01*
X142005543Y-87326956D01*
X141985552Y-87314974D01*
X141966832Y-87301090D01*
X141949562Y-87285438D01*
X141933910Y-87268168D01*
X141920026Y-87249448D01*
X141908044Y-87229457D01*
X141898079Y-87208387D01*
X141890227Y-87186443D01*
X141884563Y-87163834D01*
X141881144Y-87140779D01*
X141880000Y-87117500D01*
X141880000Y-86642500D01*
X141881144Y-86619221D01*
X141884563Y-86596166D01*
X141890227Y-86573557D01*
X141898079Y-86551613D01*
X141908044Y-86530543D01*
X141920026Y-86510552D01*
X141933910Y-86491832D01*
X141949562Y-86474562D01*
X141966832Y-86458910D01*
X141985552Y-86445026D01*
X142005543Y-86433044D01*
X142026613Y-86423079D01*
X142048557Y-86415227D01*
X142071166Y-86409563D01*
X142094221Y-86406144D01*
X142117500Y-86405000D01*
X142692500Y-86405000D01*
X142715779Y-86406144D01*
X142715779Y-86406144D01*
G37*
D19*
X142405000Y-86880000D03*
G04 #@! TD*
D25*
G04 #@! TO.C,U1*
X130570000Y-81100000D03*
D26*
X130570000Y-87400000D03*
X132870000Y-87400000D03*
X128270000Y-87400000D03*
G04 #@! TD*
D27*
G04 #@! TO.C,U2*
X133820000Y-99125000D03*
X133820000Y-99775000D03*
X133820000Y-100425000D03*
X133820000Y-101075000D03*
X133820000Y-101725000D03*
X133820000Y-102375000D03*
X133820000Y-103025000D03*
X133820000Y-103675000D03*
X133820000Y-104325000D03*
X133820000Y-104975000D03*
X139720000Y-104975000D03*
X139720000Y-104325000D03*
X139720000Y-103675000D03*
X139720000Y-103025000D03*
X139720000Y-102375000D03*
X139720000Y-101725000D03*
X139720000Y-101075000D03*
X139720000Y-100425000D03*
X139720000Y-99775000D03*
X139720000Y-99125000D03*
G04 #@! TD*
D28*
G04 #@! TO.C,D3*
X138495000Y-84325000D03*
X141795000Y-84325000D03*
G04 #@! TD*
D21*
G04 #@! TO.C,H2*
X120230000Y-63290000D03*
G04 #@! TD*
D29*
G36*
X134903000Y-77509614D02*
X133257000Y-77466298D01*
X133257000Y-74740000D01*
X133247333Y-74691399D01*
X133219803Y-74650197D01*
X133178601Y-74622667D01*
X133130000Y-74613000D01*
X128857000Y-74613000D01*
X128857000Y-71917000D01*
X134903000Y-71917000D01*
X134903000Y-77509614D01*
X134903000Y-77509614D01*
G37*
X134903000Y-77509614D02*
X133257000Y-77466298D01*
X133257000Y-74740000D01*
X133247333Y-74691399D01*
X133219803Y-74650197D01*
X133178601Y-74622667D01*
X133130000Y-74613000D01*
X128857000Y-74613000D01*
X128857000Y-71917000D01*
X134903000Y-71917000D01*
X134903000Y-77509614D01*
G36*
X144503000Y-74712089D02*
X137630907Y-74663003D01*
X137582239Y-74672323D01*
X137540841Y-74699558D01*
X137513017Y-74740562D01*
X137503000Y-74790000D01*
X137503000Y-77513000D01*
X135857000Y-77513000D01*
X135857000Y-71917000D01*
X144503000Y-71917000D01*
X144503000Y-74712089D01*
X144503000Y-74712089D01*
G37*
X144503000Y-74712089D02*
X137630907Y-74663003D01*
X137582239Y-74672323D01*
X137540841Y-74699558D01*
X137513017Y-74740562D01*
X137503000Y-74790000D01*
X137503000Y-77513000D01*
X135857000Y-77513000D01*
X135857000Y-71917000D01*
X144503000Y-71917000D01*
X144503000Y-74712089D01*
M02*
