G04 #@! TF.GenerationSoftware,KiCad,Pcbnew,5.0.2-bee76a0~70~ubuntu16.04.1*
G04 #@! TF.CreationDate,2019-06-24T22:08:56+01:00*
G04 #@! TF.ProjectId,project,70726f6a-6563-4742-9e6b-696361645f70,rev?*
G04 #@! TF.SameCoordinates,Original*
G04 #@! TF.FileFunction,Legend,Bot*
G04 #@! TF.FilePolarity,Positive*
%FSLAX46Y46*%
G04 Gerber Fmt 4.6, Leading zero omitted, Abs format (unit mm)*
G04 Created by KiCad (PCBNEW 5.0.2-bee76a0~70~ubuntu16.04.1) date Mon 24 Jun 2019 22:08:56 BST*
%MOMM*%
%LPD*%
G01*
G04 APERTURE LIST*
%ADD10C,0.250000*%
%ADD11C,0.200000*%
%ADD12C,0.150000*%
%ADD13C,0.120000*%
G04 APERTURE END LIST*
D10*
X140004285Y-68402380D02*
X140575714Y-68402380D01*
X140290000Y-68402380D02*
X140290000Y-67402380D01*
X140385238Y-67545238D01*
X140480476Y-67640476D01*
X140575714Y-67688095D01*
D11*
X145163839Y-66257142D02*
X145051339Y-65357142D01*
X144708482Y-65357142D01*
X144628125Y-65400000D01*
X144590625Y-65442857D01*
X144558482Y-65528571D01*
X144574553Y-65657142D01*
X144628125Y-65742857D01*
X144676339Y-65785714D01*
X144767410Y-65828571D01*
X145110267Y-65828571D01*
X144237053Y-65357142D02*
X144135267Y-66257142D01*
X143883482Y-65614285D01*
X143792410Y-66257142D01*
X143465625Y-65357142D01*
X143235267Y-66257142D02*
X143122767Y-65357142D01*
X142903125Y-66000000D01*
X142522767Y-65357142D01*
X142635267Y-66257142D01*
X140995982Y-66171428D02*
X141044196Y-66214285D01*
X141178125Y-66257142D01*
X141263839Y-66257142D01*
X141387053Y-66214285D01*
X141462053Y-66128571D01*
X141494196Y-66042857D01*
X141515625Y-65871428D01*
X141499553Y-65742857D01*
X141435267Y-65571428D01*
X141381696Y-65485714D01*
X141285267Y-65400000D01*
X141151339Y-65357142D01*
X141065625Y-65357142D01*
X140942410Y-65400000D01*
X140904910Y-65442857D01*
X140620982Y-66257142D02*
X140508482Y-65357142D01*
X140235267Y-66257142D02*
X140176339Y-65785714D01*
X140208482Y-65700000D01*
X140288839Y-65657142D01*
X140417410Y-65657142D01*
X140508482Y-65700000D01*
X140556696Y-65742857D01*
X139420982Y-66257142D02*
X139362053Y-65785714D01*
X139394196Y-65700000D01*
X139474553Y-65657142D01*
X139645982Y-65657142D01*
X139737053Y-65700000D01*
X139415625Y-66214285D02*
X139506696Y-66257142D01*
X139720982Y-66257142D01*
X139801339Y-66214285D01*
X139833482Y-66128571D01*
X139822767Y-66042857D01*
X139769196Y-65957142D01*
X139678125Y-65914285D01*
X139463839Y-65914285D01*
X139372767Y-65871428D01*
X138992410Y-66257142D02*
X138917410Y-65657142D01*
X138938839Y-65828571D02*
X138885267Y-65742857D01*
X138837053Y-65700000D01*
X138745982Y-65657142D01*
X138660267Y-65657142D01*
X137974553Y-65657142D02*
X138065625Y-66385714D01*
X138119196Y-66471428D01*
X138167410Y-66514285D01*
X138258482Y-66557142D01*
X138387053Y-66557142D01*
X138467410Y-66514285D01*
X138044196Y-66214285D02*
X138135267Y-66257142D01*
X138306696Y-66257142D01*
X138387053Y-66214285D01*
X138424553Y-66171428D01*
X138456696Y-66085714D01*
X138424553Y-65828571D01*
X138370982Y-65742857D01*
X138322767Y-65700000D01*
X138231696Y-65657142D01*
X138060267Y-65657142D01*
X137979910Y-65700000D01*
X137272767Y-66214285D02*
X137363839Y-66257142D01*
X137535267Y-66257142D01*
X137615625Y-66214285D01*
X137647767Y-66128571D01*
X137604910Y-65785714D01*
X137551339Y-65700000D01*
X137460267Y-65657142D01*
X137288839Y-65657142D01*
X137208482Y-65700000D01*
X137176339Y-65785714D01*
X137187053Y-65871428D01*
X137626339Y-65957142D01*
X135638839Y-66171428D02*
X135687053Y-66214285D01*
X135820982Y-66257142D01*
X135906696Y-66257142D01*
X136029910Y-66214285D01*
X136104910Y-66128571D01*
X136137053Y-66042857D01*
X136158482Y-65871428D01*
X136142410Y-65742857D01*
X136078125Y-65571428D01*
X136024553Y-65485714D01*
X135928125Y-65400000D01*
X135794196Y-65357142D01*
X135708482Y-65357142D01*
X135585267Y-65400000D01*
X135547767Y-65442857D01*
X135135267Y-66257142D02*
X135215625Y-66214285D01*
X135253125Y-66171428D01*
X135285267Y-66085714D01*
X135253125Y-65828571D01*
X135199553Y-65742857D01*
X135151339Y-65700000D01*
X135060267Y-65657142D01*
X134931696Y-65657142D01*
X134851339Y-65700000D01*
X134813839Y-65742857D01*
X134781696Y-65828571D01*
X134813839Y-66085714D01*
X134867410Y-66171428D01*
X134915625Y-66214285D01*
X135006696Y-66257142D01*
X135135267Y-66257142D01*
X134374553Y-65657142D02*
X134449553Y-66257142D01*
X134385267Y-65742857D02*
X134337053Y-65700000D01*
X134245982Y-65657142D01*
X134117410Y-65657142D01*
X134037053Y-65700000D01*
X134004910Y-65785714D01*
X134063839Y-66257142D01*
X133688839Y-65657142D02*
X133345982Y-65657142D01*
X133522767Y-65357142D02*
X133619196Y-66128571D01*
X133587053Y-66214285D01*
X133506696Y-66257142D01*
X133420982Y-66257142D01*
X133120982Y-66257142D02*
X133045982Y-65657142D01*
X133067410Y-65828571D02*
X133013839Y-65742857D01*
X132965625Y-65700000D01*
X132874553Y-65657142D01*
X132788839Y-65657142D01*
X132435267Y-66257142D02*
X132515625Y-66214285D01*
X132553125Y-66171428D01*
X132585267Y-66085714D01*
X132553125Y-65828571D01*
X132499553Y-65742857D01*
X132451339Y-65700000D01*
X132360267Y-65657142D01*
X132231696Y-65657142D01*
X132151339Y-65700000D01*
X132113839Y-65742857D01*
X132081696Y-65828571D01*
X132113839Y-66085714D01*
X132167410Y-66171428D01*
X132215625Y-66214285D01*
X132306696Y-66257142D01*
X132435267Y-66257142D01*
X131620982Y-66257142D02*
X131701339Y-66214285D01*
X131733482Y-66128571D01*
X131637053Y-65357142D01*
X131149553Y-66257142D02*
X131229910Y-66214285D01*
X131262053Y-66128571D01*
X131165625Y-65357142D01*
X130458482Y-66214285D02*
X130549553Y-66257142D01*
X130720982Y-66257142D01*
X130801339Y-66214285D01*
X130833482Y-66128571D01*
X130790625Y-65785714D01*
X130737053Y-65700000D01*
X130645982Y-65657142D01*
X130474553Y-65657142D01*
X130394196Y-65700000D01*
X130362053Y-65785714D01*
X130372767Y-65871428D01*
X130812053Y-65957142D01*
X130035267Y-66257142D02*
X129960267Y-65657142D01*
X129981696Y-65828571D02*
X129928125Y-65742857D01*
X129879910Y-65700000D01*
X129788839Y-65657142D01*
X129703125Y-65657142D01*
X132601071Y-67157142D02*
X132461785Y-67757142D01*
X132172500Y-67157142D01*
X131877857Y-66857142D02*
X131320714Y-66857142D01*
X131663571Y-67200000D01*
X131535000Y-67200000D01*
X131454642Y-67242857D01*
X131417142Y-67285714D01*
X131385000Y-67371428D01*
X131411785Y-67585714D01*
X131465357Y-67671428D01*
X131513571Y-67714285D01*
X131604642Y-67757142D01*
X131861785Y-67757142D01*
X131942142Y-67714285D01*
X131979642Y-67671428D01*
X131036785Y-67671428D02*
X130999285Y-67714285D01*
X131047500Y-67757142D01*
X131085000Y-67714285D01*
X131036785Y-67671428D01*
X131047500Y-67757142D01*
X130335000Y-66857142D02*
X130249285Y-66857142D01*
X130168928Y-66900000D01*
X130131428Y-66942857D01*
X130099285Y-67028571D01*
X130077857Y-67200000D01*
X130104642Y-67414285D01*
X130168928Y-67585714D01*
X130222500Y-67671428D01*
X130270714Y-67714285D01*
X130361785Y-67757142D01*
X130447500Y-67757142D01*
X130527857Y-67714285D01*
X130565357Y-67671428D01*
X130597500Y-67585714D01*
X130618928Y-67414285D01*
X130592142Y-67200000D01*
X130527857Y-67028571D01*
X130474285Y-66942857D01*
X130426071Y-66900000D01*
X130335000Y-66857142D01*
D12*
X146349523Y-63211904D02*
X145892380Y-63211904D01*
X146120952Y-64011904D02*
X146120952Y-63211904D01*
X145701904Y-63211904D02*
X145168571Y-64011904D01*
X145168571Y-63211904D02*
X145701904Y-64011904D01*
X143678095Y-64011904D02*
X143944761Y-63630952D01*
X144135238Y-64011904D02*
X144135238Y-63211904D01*
X143830476Y-63211904D01*
X143754285Y-63250000D01*
X143716190Y-63288095D01*
X143678095Y-63364285D01*
X143678095Y-63478571D01*
X143716190Y-63554761D01*
X143754285Y-63592857D01*
X143830476Y-63630952D01*
X144135238Y-63630952D01*
X143373333Y-63973809D02*
X143259047Y-64011904D01*
X143068571Y-64011904D01*
X142992380Y-63973809D01*
X142954285Y-63935714D01*
X142916190Y-63859523D01*
X142916190Y-63783333D01*
X142954285Y-63707142D01*
X142992380Y-63669047D01*
X143068571Y-63630952D01*
X143220952Y-63592857D01*
X143297142Y-63554761D01*
X143335238Y-63516666D01*
X143373333Y-63440476D01*
X143373333Y-63364285D01*
X143335238Y-63288095D01*
X143297142Y-63250000D01*
X143220952Y-63211904D01*
X143030476Y-63211904D01*
X142916190Y-63250000D01*
X142687619Y-63211904D02*
X142230476Y-63211904D01*
X142459047Y-64011904D02*
X142459047Y-63211904D01*
X141459047Y-64011904D02*
X141459047Y-63211904D01*
X141268571Y-63211904D01*
X141154285Y-63250000D01*
X141078095Y-63326190D01*
X141040000Y-63402380D01*
X141001904Y-63554761D01*
X141001904Y-63669047D01*
X141040000Y-63821428D01*
X141078095Y-63897619D01*
X141154285Y-63973809D01*
X141268571Y-64011904D01*
X141459047Y-64011904D01*
X140659047Y-64011904D02*
X140659047Y-63211904D01*
X140125714Y-63211904D02*
X139973333Y-63211904D01*
X139897142Y-63250000D01*
X139820952Y-63326190D01*
X139782857Y-63478571D01*
X139782857Y-63745238D01*
X139820952Y-63897619D01*
X139897142Y-63973809D01*
X139973333Y-64011904D01*
X140125714Y-64011904D01*
X140201904Y-63973809D01*
X140278095Y-63897619D01*
X140316190Y-63745238D01*
X140316190Y-63478571D01*
X140278095Y-63326190D01*
X140201904Y-63250000D01*
X140125714Y-63211904D01*
X138649523Y-63250000D02*
X138725714Y-63211904D01*
X138840000Y-63211904D01*
X138954285Y-63250000D01*
X139030476Y-63326190D01*
X139068571Y-63402380D01*
X139106666Y-63554761D01*
X139106666Y-63669047D01*
X139068571Y-63821428D01*
X139030476Y-63897619D01*
X138954285Y-63973809D01*
X138840000Y-64011904D01*
X138763809Y-64011904D01*
X138649523Y-63973809D01*
X138611428Y-63935714D01*
X138611428Y-63669047D01*
X138763809Y-63669047D01*
X138268571Y-64011904D02*
X138268571Y-63211904D01*
X137811428Y-64011904D01*
X137811428Y-63211904D01*
X137430476Y-64011904D02*
X137430476Y-63211904D01*
X137240000Y-63211904D01*
X137125714Y-63250000D01*
X137049523Y-63326190D01*
X137011428Y-63402380D01*
X136973333Y-63554761D01*
X136973333Y-63669047D01*
X137011428Y-63821428D01*
X137049523Y-63897619D01*
X137125714Y-63973809D01*
X137240000Y-64011904D01*
X137430476Y-64011904D01*
X135976190Y-63935714D02*
X136014285Y-63973809D01*
X136128571Y-64011904D01*
X136204761Y-64011904D01*
X136319047Y-63973809D01*
X136395238Y-63897619D01*
X136433333Y-63821428D01*
X136471428Y-63669047D01*
X136471428Y-63554761D01*
X136433333Y-63402380D01*
X136395238Y-63326190D01*
X136319047Y-63250000D01*
X136204761Y-63211904D01*
X136128571Y-63211904D01*
X136014285Y-63250000D01*
X135976190Y-63288095D01*
X135252380Y-64011904D02*
X135633333Y-64011904D01*
X135633333Y-63211904D01*
X134985714Y-64011904D02*
X134985714Y-63211904D01*
X134528571Y-64011904D02*
X134871428Y-63554761D01*
X134528571Y-63211904D02*
X134985714Y-63669047D01*
X133990476Y-63211904D02*
X133495238Y-63211904D01*
X133761904Y-63516666D01*
X133647619Y-63516666D01*
X133571428Y-63554761D01*
X133533333Y-63592857D01*
X133495238Y-63669047D01*
X133495238Y-63859523D01*
X133533333Y-63935714D01*
X133571428Y-63973809D01*
X133647619Y-64011904D01*
X133876190Y-64011904D01*
X133952380Y-63973809D01*
X133990476Y-63935714D01*
X133266666Y-63211904D02*
X133000000Y-64011904D01*
X132733333Y-63211904D01*
X132542857Y-63211904D02*
X132047619Y-63211904D01*
X132314285Y-63516666D01*
X132200000Y-63516666D01*
X132123809Y-63554761D01*
X132085714Y-63592857D01*
X132047619Y-63669047D01*
X132047619Y-63859523D01*
X132085714Y-63935714D01*
X132123809Y-63973809D01*
X132200000Y-64011904D01*
X132428571Y-64011904D01*
X132504761Y-63973809D01*
X132542857Y-63935714D01*
D11*
X149825714Y-95864285D02*
X149140000Y-95864285D01*
X148068571Y-96164285D02*
X147940000Y-96207142D01*
X147725714Y-96207142D01*
X147640000Y-96164285D01*
X147597142Y-96121428D01*
X147554285Y-96035714D01*
X147554285Y-95950000D01*
X147597142Y-95864285D01*
X147640000Y-95821428D01*
X147725714Y-95778571D01*
X147897142Y-95735714D01*
X147982857Y-95692857D01*
X148025714Y-95650000D01*
X148068571Y-95564285D01*
X148068571Y-95478571D01*
X148025714Y-95392857D01*
X147982857Y-95350000D01*
X147897142Y-95307142D01*
X147682857Y-95307142D01*
X147554285Y-95350000D01*
X146997142Y-95307142D02*
X146825714Y-95307142D01*
X146740000Y-95350000D01*
X146654285Y-95435714D01*
X146611428Y-95607142D01*
X146611428Y-95907142D01*
X146654285Y-96078571D01*
X146740000Y-96164285D01*
X146825714Y-96207142D01*
X146997142Y-96207142D01*
X147082857Y-96164285D01*
X147168571Y-96078571D01*
X147211428Y-95907142D01*
X147211428Y-95607142D01*
X147168571Y-95435714D01*
X147082857Y-95350000D01*
X146997142Y-95307142D01*
X145797142Y-96207142D02*
X146225714Y-96207142D01*
X146225714Y-95307142D01*
X145540000Y-95950000D02*
X145111428Y-95950000D01*
X145625714Y-96207142D02*
X145325714Y-95307142D01*
X145025714Y-96207142D01*
X144211428Y-96207142D02*
X144511428Y-95778571D01*
X144725714Y-96207142D02*
X144725714Y-95307142D01*
X144382857Y-95307142D01*
X144297142Y-95350000D01*
X144254285Y-95392857D01*
X144211428Y-95478571D01*
X144211428Y-95607142D01*
X144254285Y-95692857D01*
X144297142Y-95735714D01*
X144382857Y-95778571D01*
X144725714Y-95778571D01*
X143140000Y-95864285D02*
X142454285Y-95864285D01*
X142797142Y-96207142D02*
X142797142Y-95521428D01*
X136740000Y-95914285D02*
X136054285Y-95914285D01*
X134640000Y-95785714D02*
X134511428Y-95828571D01*
X134468571Y-95871428D01*
X134425714Y-95957142D01*
X134425714Y-96085714D01*
X134468571Y-96171428D01*
X134511428Y-96214285D01*
X134597142Y-96257142D01*
X134940000Y-96257142D01*
X134940000Y-95357142D01*
X134640000Y-95357142D01*
X134554285Y-95400000D01*
X134511428Y-95442857D01*
X134468571Y-95528571D01*
X134468571Y-95614285D01*
X134511428Y-95700000D01*
X134554285Y-95742857D01*
X134640000Y-95785714D01*
X134940000Y-95785714D01*
X134082857Y-96000000D02*
X133654285Y-96000000D01*
X134168571Y-96257142D02*
X133868571Y-95357142D01*
X133568571Y-96257142D01*
X133397142Y-95357142D02*
X132882857Y-95357142D01*
X133140000Y-96257142D02*
X133140000Y-95357142D01*
X132711428Y-95357142D02*
X132197142Y-95357142D01*
X132454285Y-96257142D02*
X132454285Y-95357142D01*
X131897142Y-95785714D02*
X131597142Y-95785714D01*
X131468571Y-96257142D02*
X131897142Y-96257142D01*
X131897142Y-95357142D01*
X131468571Y-95357142D01*
X130568571Y-96257142D02*
X130868571Y-95828571D01*
X131082857Y-96257142D02*
X131082857Y-95357142D01*
X130740000Y-95357142D01*
X130654285Y-95400000D01*
X130611428Y-95442857D01*
X130568571Y-95528571D01*
X130568571Y-95657142D01*
X130611428Y-95742857D01*
X130654285Y-95785714D01*
X130740000Y-95828571D01*
X131082857Y-95828571D01*
X130011428Y-95828571D02*
X130011428Y-96257142D01*
X130311428Y-95357142D02*
X130011428Y-95828571D01*
X129711428Y-95357142D01*
X128725714Y-95914285D02*
X128040000Y-95914285D01*
X128382857Y-96257142D02*
X128382857Y-95571428D01*
D13*
G04 #@! TO.C,R11*
X135018733Y-76310000D02*
X135361267Y-76310000D01*
X135018733Y-75290000D02*
X135361267Y-75290000D01*
G04 #@! TO.C,D1*
X148990000Y-67360000D02*
X146130000Y-67360000D01*
X146130000Y-67360000D02*
X146130000Y-65440000D01*
X146130000Y-65440000D02*
X148990000Y-65440000D01*
G04 #@! TO.C,D2*
X146130000Y-71440000D02*
X148990000Y-71440000D01*
X146130000Y-73360000D02*
X146130000Y-71440000D01*
X148990000Y-73360000D02*
X146130000Y-73360000D01*
G04 #@! TO.C,J1*
X147070000Y-60170000D02*
X147070000Y-62830000D01*
X134310000Y-60170000D02*
X147070000Y-60170000D01*
X134310000Y-62830000D02*
X147070000Y-62830000D01*
X134310000Y-60170000D02*
X134310000Y-62830000D01*
X133040000Y-60170000D02*
X131710000Y-60170000D01*
X131710000Y-60170000D02*
X131710000Y-61500000D01*
G04 #@! TO.C,R1*
X148161267Y-67690000D02*
X147818733Y-67690000D01*
X148161267Y-68710000D02*
X147818733Y-68710000D01*
G04 #@! TO.C,R2*
X148161267Y-70710000D02*
X147818733Y-70710000D01*
X148161267Y-69690000D02*
X147818733Y-69690000D01*
D12*
G04 #@! TO.C,U3*
X140984660Y-74027360D02*
X136534660Y-74027360D01*
X142509660Y-67127360D02*
X136534660Y-67127360D01*
D13*
G04 #@! TO.C,U4*
X132690000Y-78300000D02*
X133390000Y-78300000D01*
X133390000Y-78300000D02*
X133390000Y-78200000D01*
X134590000Y-77800000D02*
X133390000Y-77800000D01*
X133390000Y-77800000D02*
X133390000Y-78200000D01*
X133390000Y-88200000D02*
X134590000Y-88200000D01*
X128965000Y-87700000D02*
X133390000Y-87700000D01*
X133390000Y-87700000D02*
X133390000Y-88200000D01*
D12*
G04 #@! TO.C,REF\002A\002A*
X131974214Y-72290000D02*
G75*
G03X131974214Y-72290000I-1414214J0D01*
G01*
X129270000Y-71160000D02*
X129500000Y-71270000D01*
X129080000Y-71080000D02*
X129270000Y-71160000D01*
X128930000Y-70930000D02*
X129080000Y-71080000D01*
X128890000Y-70740000D02*
X128930000Y-70930000D01*
X128930000Y-70390000D02*
X128890000Y-70740000D01*
X129080000Y-70090000D02*
X128930000Y-70390000D01*
X129460000Y-69940000D02*
X129080000Y-70090000D01*
X129840000Y-69980000D02*
X129460000Y-69940000D01*
X130190000Y-70280000D02*
X129840000Y-69980000D01*
X130420000Y-70470000D02*
X130190000Y-70280000D01*
X130570000Y-70850000D02*
X130420000Y-70470000D01*
X131900000Y-71690000D02*
X131900000Y-71730000D01*
X131980000Y-71690000D02*
X131900000Y-71690000D01*
X132210000Y-71650000D02*
X131980000Y-71690000D01*
X132470000Y-71500000D02*
X132210000Y-71650000D01*
X132660000Y-71080000D02*
X132470000Y-71500000D01*
X132550000Y-70470000D02*
X132660000Y-71080000D01*
X132250000Y-70170000D02*
X132550000Y-70470000D01*
X131830000Y-70010000D02*
X132250000Y-70170000D01*
X131250000Y-70090000D02*
X131830000Y-70010000D01*
X130910000Y-70280000D02*
X131250000Y-70090000D01*
X130570000Y-70890000D02*
X130910000Y-70280000D01*
X131860000Y-73140000D02*
X131790000Y-73140000D01*
X132130000Y-73440000D02*
X131860000Y-73140000D01*
X132320000Y-73560000D02*
X132130000Y-73440000D01*
X132700000Y-73560000D02*
X132320000Y-73560000D01*
X133050000Y-73250000D02*
X132700000Y-73560000D01*
X133120000Y-73020000D02*
X133050000Y-73250000D01*
X133120000Y-72760000D02*
X133120000Y-73020000D01*
X133050000Y-72490000D02*
X133120000Y-72760000D01*
X132890000Y-72190000D02*
X133050000Y-72490000D01*
X132470000Y-71920000D02*
X132890000Y-72190000D01*
X131940000Y-71690000D02*
X132470000Y-71920000D01*
X130230000Y-73980000D02*
X130230000Y-73710000D01*
X130300000Y-74320000D02*
X130230000Y-73980000D01*
X130420000Y-74660000D02*
X130300000Y-74320000D01*
X130640000Y-75010000D02*
X130420000Y-74660000D01*
X131220000Y-75120000D02*
X130640000Y-75010000D01*
X131710000Y-74810000D02*
X131220000Y-75120000D01*
X131980000Y-74280000D02*
X131710000Y-74810000D01*
X131940000Y-73710000D02*
X131980000Y-74280000D01*
X131790000Y-73140000D02*
X131940000Y-73710000D01*
X129080000Y-72640000D02*
X129240000Y-72570000D01*
X128850000Y-72720000D02*
X129080000Y-72640000D01*
X128510000Y-72760000D02*
X128850000Y-72720000D01*
X128210000Y-72680000D02*
X128510000Y-72760000D01*
X127860000Y-72570000D02*
X128210000Y-72680000D01*
X127710000Y-72260000D02*
X127860000Y-72570000D01*
X127710000Y-71960000D02*
X127710000Y-72260000D01*
X127790000Y-71540000D02*
X127710000Y-71960000D01*
X128320000Y-71200000D02*
X127790000Y-71540000D01*
X128820000Y-71230000D02*
X128320000Y-71200000D01*
X129460000Y-71420000D02*
X128820000Y-71230000D01*
X130070000Y-73940000D02*
X130230000Y-73710000D01*
X129840000Y-74320000D02*
X130070000Y-73940000D01*
X129650000Y-74510000D02*
X129840000Y-74320000D01*
X129350000Y-74660000D02*
X129650000Y-74510000D01*
X129010000Y-74660000D02*
X129350000Y-74660000D01*
X128660000Y-74400000D02*
X129010000Y-74660000D01*
X128470000Y-74130000D02*
X128660000Y-74400000D01*
X128470000Y-73670000D02*
X128470000Y-74130000D01*
X128700000Y-73140000D02*
X128470000Y-73670000D01*
X129120000Y-72640000D02*
X128700000Y-73140000D01*
X129650000Y-72380000D02*
X129730000Y-72450000D01*
X129770000Y-72600000D02*
X129650000Y-72380000D01*
X129880000Y-72800000D02*
X129770000Y-72600000D01*
X130110000Y-72990000D02*
X129880000Y-72800000D01*
X130260000Y-73060000D02*
X130110000Y-72990000D01*
X130420000Y-73060000D02*
X130260000Y-73060000D01*
X130570000Y-73060000D02*
X130420000Y-73060000D01*
X130760000Y-73060000D02*
X130570000Y-73060000D01*
X130910000Y-72990000D02*
X130760000Y-73060000D01*
X131250000Y-72720000D02*
X130910000Y-72990000D01*
X131110000Y-71790000D02*
X131370000Y-71730000D01*
X131000000Y-71870000D02*
X131110000Y-71790000D01*
X131020000Y-71970000D02*
X131000000Y-71870000D01*
X131140000Y-72120000D02*
X131020000Y-71970000D01*
X131290000Y-72220000D02*
X131140000Y-72120000D01*
X131440000Y-72140000D02*
X131290000Y-72220000D01*
X131540000Y-72050000D02*
X131440000Y-72140000D01*
X131520000Y-71900000D02*
X131540000Y-72050000D01*
X131400000Y-71680000D02*
X131520000Y-71900000D01*
X129980000Y-71590000D02*
X130160000Y-71550000D01*
X129890000Y-71700000D02*
X129980000Y-71590000D01*
X129860000Y-71820000D02*
X129890000Y-71700000D01*
X129980000Y-71990000D02*
X129860000Y-71820000D01*
X130160000Y-72030000D02*
X129980000Y-71990000D01*
X130320000Y-71970000D02*
X130160000Y-72030000D01*
X130420000Y-71870000D02*
X130320000Y-71970000D01*
X130330000Y-71680000D02*
X130420000Y-71870000D01*
X130180000Y-71560000D02*
X130330000Y-71680000D01*
X129130000Y-79340000D02*
X129180000Y-79340000D01*
X129240000Y-78900000D02*
X129130000Y-79340000D01*
X129460000Y-77950000D02*
X129240000Y-78900000D01*
X129460000Y-77560000D02*
X129460000Y-77950000D01*
X129300000Y-77000000D02*
X129460000Y-77560000D01*
X129300000Y-76490000D02*
X129300000Y-77000000D01*
X129300000Y-76050000D02*
X129300000Y-76490000D01*
X129460000Y-75600000D02*
X129300000Y-76050000D01*
X129740000Y-75150000D02*
X129460000Y-75600000D01*
X130190000Y-74090000D02*
X129740000Y-75150000D01*
X129100000Y-77980000D02*
X129300000Y-78220000D01*
X128980000Y-77850000D02*
X129100000Y-77980000D01*
X128660000Y-77810000D02*
X128980000Y-77850000D01*
X128840000Y-77980000D02*
X128660000Y-77810000D01*
X129010000Y-78170000D02*
X128840000Y-77980000D01*
X129130000Y-78360000D02*
X129010000Y-78170000D01*
X129270000Y-78630000D02*
X129130000Y-78360000D01*
G04 #@! TO.C,U3*
X139399523Y-70161904D02*
X139399523Y-70809523D01*
X139361428Y-70885714D01*
X139323333Y-70923809D01*
X139247142Y-70961904D01*
X139094761Y-70961904D01*
X139018571Y-70923809D01*
X138980476Y-70885714D01*
X138942380Y-70809523D01*
X138942380Y-70161904D01*
X138637619Y-70161904D02*
X138142380Y-70161904D01*
X138409047Y-70466666D01*
X138294761Y-70466666D01*
X138218571Y-70504761D01*
X138180476Y-70542857D01*
X138142380Y-70619047D01*
X138142380Y-70809523D01*
X138180476Y-70885714D01*
X138218571Y-70923809D01*
X138294761Y-70961904D01*
X138523333Y-70961904D01*
X138599523Y-70923809D01*
X138637619Y-70885714D01*
G04 #@! TD*
M02*
