G04 #@! TF.GenerationSoftware,KiCad,Pcbnew,5.0.2-bee76a0~70~ubuntu16.04.1*
G04 #@! TF.CreationDate,2019-05-21T19:47:30+01:00*
G04 #@! TF.ProjectId,project,70726f6a-6563-4742-9e6b-696361645f70,rev?*
G04 #@! TF.SameCoordinates,Original*
G04 #@! TF.FileFunction,Copper,L2,Bot*
G04 #@! TF.FilePolarity,Positive*
%FSLAX46Y46*%
G04 Gerber Fmt 4.6, Leading zero omitted, Abs format (unit mm)*
G04 Created by KiCad (PCBNEW 5.0.2-bee76a0~70~ubuntu16.04.1) date Tue 21 May 2019 19:47:30 BST*
%MOMM*%
%LPD*%
G01*
G04 APERTURE LIST*
G04 #@! TA.AperFunction,ComponentPad*
%ADD10R,3.000000X3.000000*%
G04 #@! TD*
G04 #@! TA.AperFunction,ComponentPad*
%ADD11C,3.000000*%
G04 #@! TD*
G04 #@! TA.AperFunction,Conductor*
%ADD12C,0.100000*%
G04 #@! TD*
G04 #@! TA.AperFunction,SMDPad,CuDef*
%ADD13C,0.950000*%
G04 #@! TD*
G04 #@! TA.AperFunction,ComponentPad*
%ADD14O,1.905000X2.000000*%
G04 #@! TD*
G04 #@! TA.AperFunction,ComponentPad*
%ADD15R,1.905000X2.000000*%
G04 #@! TD*
G04 #@! TA.AperFunction,SMDPad,CuDef*
%ADD16R,0.900000X0.800000*%
G04 #@! TD*
G04 #@! TA.AperFunction,ComponentPad*
%ADD17C,6.400000*%
G04 #@! TD*
G04 #@! TA.AperFunction,ComponentPad*
%ADD18C,1.700000*%
G04 #@! TD*
G04 #@! TA.AperFunction,Conductor*
%ADD19C,1.700000*%
G04 #@! TD*
G04 #@! TA.AperFunction,BGAPad,CuDef*
%ADD20C,1.000000*%
G04 #@! TD*
G04 #@! TA.AperFunction,ViaPad*
%ADD21C,0.800000*%
G04 #@! TD*
G04 #@! TA.AperFunction,Conductor*
%ADD22C,0.250000*%
G04 #@! TD*
G04 #@! TA.AperFunction,Conductor*
%ADD23C,0.254000*%
G04 #@! TD*
G04 APERTURE END LIST*
D10*
G04 #@! TO.P,SC1,1*
G04 #@! TO.N,/SOLAR*
X143140000Y-73300000D03*
D11*
G04 #@! TO.P,SC1,2*
G04 #@! TO.N,GND*
X148220000Y-73300000D03*
G04 #@! TD*
D10*
G04 #@! TO.P,BT1,1*
G04 #@! TO.N,/BATT*
X130230000Y-73290000D03*
D11*
G04 #@! TO.P,BT1,2*
G04 #@! TO.N,GND*
X125150000Y-73290000D03*
G04 #@! TD*
D12*
G04 #@! TO.N,+3V3*
G04 #@! TO.C,C6*
G36*
X137985779Y-97716144D02*
X138008834Y-97719563D01*
X138031443Y-97725227D01*
X138053387Y-97733079D01*
X138074457Y-97743044D01*
X138094448Y-97755026D01*
X138113168Y-97768910D01*
X138130438Y-97784562D01*
X138146090Y-97801832D01*
X138159974Y-97820552D01*
X138171956Y-97840543D01*
X138181921Y-97861613D01*
X138189773Y-97883557D01*
X138195437Y-97906166D01*
X138198856Y-97929221D01*
X138200000Y-97952500D01*
X138200000Y-98427500D01*
X138198856Y-98450779D01*
X138195437Y-98473834D01*
X138189773Y-98496443D01*
X138181921Y-98518387D01*
X138171956Y-98539457D01*
X138159974Y-98559448D01*
X138146090Y-98578168D01*
X138130438Y-98595438D01*
X138113168Y-98611090D01*
X138094448Y-98624974D01*
X138074457Y-98636956D01*
X138053387Y-98646921D01*
X138031443Y-98654773D01*
X138008834Y-98660437D01*
X137985779Y-98663856D01*
X137962500Y-98665000D01*
X137387500Y-98665000D01*
X137364221Y-98663856D01*
X137341166Y-98660437D01*
X137318557Y-98654773D01*
X137296613Y-98646921D01*
X137275543Y-98636956D01*
X137255552Y-98624974D01*
X137236832Y-98611090D01*
X137219562Y-98595438D01*
X137203910Y-98578168D01*
X137190026Y-98559448D01*
X137178044Y-98539457D01*
X137168079Y-98518387D01*
X137160227Y-98496443D01*
X137154563Y-98473834D01*
X137151144Y-98450779D01*
X137150000Y-98427500D01*
X137150000Y-97952500D01*
X137151144Y-97929221D01*
X137154563Y-97906166D01*
X137160227Y-97883557D01*
X137168079Y-97861613D01*
X137178044Y-97840543D01*
X137190026Y-97820552D01*
X137203910Y-97801832D01*
X137219562Y-97784562D01*
X137236832Y-97768910D01*
X137255552Y-97755026D01*
X137275543Y-97743044D01*
X137296613Y-97733079D01*
X137318557Y-97725227D01*
X137341166Y-97719563D01*
X137364221Y-97716144D01*
X137387500Y-97715000D01*
X137962500Y-97715000D01*
X137985779Y-97716144D01*
X137985779Y-97716144D01*
G37*
D13*
G04 #@! TD*
G04 #@! TO.P,C6,1*
G04 #@! TO.N,+3V3*
X137675000Y-98190000D03*
D12*
G04 #@! TO.N,GND*
G04 #@! TO.C,C6*
G36*
X136235779Y-97716144D02*
X136258834Y-97719563D01*
X136281443Y-97725227D01*
X136303387Y-97733079D01*
X136324457Y-97743044D01*
X136344448Y-97755026D01*
X136363168Y-97768910D01*
X136380438Y-97784562D01*
X136396090Y-97801832D01*
X136409974Y-97820552D01*
X136421956Y-97840543D01*
X136431921Y-97861613D01*
X136439773Y-97883557D01*
X136445437Y-97906166D01*
X136448856Y-97929221D01*
X136450000Y-97952500D01*
X136450000Y-98427500D01*
X136448856Y-98450779D01*
X136445437Y-98473834D01*
X136439773Y-98496443D01*
X136431921Y-98518387D01*
X136421956Y-98539457D01*
X136409974Y-98559448D01*
X136396090Y-98578168D01*
X136380438Y-98595438D01*
X136363168Y-98611090D01*
X136344448Y-98624974D01*
X136324457Y-98636956D01*
X136303387Y-98646921D01*
X136281443Y-98654773D01*
X136258834Y-98660437D01*
X136235779Y-98663856D01*
X136212500Y-98665000D01*
X135637500Y-98665000D01*
X135614221Y-98663856D01*
X135591166Y-98660437D01*
X135568557Y-98654773D01*
X135546613Y-98646921D01*
X135525543Y-98636956D01*
X135505552Y-98624974D01*
X135486832Y-98611090D01*
X135469562Y-98595438D01*
X135453910Y-98578168D01*
X135440026Y-98559448D01*
X135428044Y-98539457D01*
X135418079Y-98518387D01*
X135410227Y-98496443D01*
X135404563Y-98473834D01*
X135401144Y-98450779D01*
X135400000Y-98427500D01*
X135400000Y-97952500D01*
X135401144Y-97929221D01*
X135404563Y-97906166D01*
X135410227Y-97883557D01*
X135418079Y-97861613D01*
X135428044Y-97840543D01*
X135440026Y-97820552D01*
X135453910Y-97801832D01*
X135469562Y-97784562D01*
X135486832Y-97768910D01*
X135505552Y-97755026D01*
X135525543Y-97743044D01*
X135546613Y-97733079D01*
X135568557Y-97725227D01*
X135591166Y-97719563D01*
X135614221Y-97716144D01*
X135637500Y-97715000D01*
X136212500Y-97715000D01*
X136235779Y-97716144D01*
X136235779Y-97716144D01*
G37*
D13*
G04 #@! TD*
G04 #@! TO.P,C6,2*
G04 #@! TO.N,GND*
X135925000Y-98190000D03*
D14*
G04 #@! TO.P,Q3,3*
G04 #@! TO.N,/BATT*
X134100000Y-77490000D03*
G04 #@! TO.P,Q3,2*
G04 #@! TO.N,/SOLAR*
X136640000Y-77490000D03*
D15*
G04 #@! TO.P,Q3,1*
G04 #@! TO.N,Net-(Q3-Pad1)*
X139180000Y-77490000D03*
G04 #@! TD*
D12*
G04 #@! TO.N,Net-(C2-Pad1)*
G04 #@! TO.C,C2*
G36*
X129805779Y-82201144D02*
X129828834Y-82204563D01*
X129851443Y-82210227D01*
X129873387Y-82218079D01*
X129894457Y-82228044D01*
X129914448Y-82240026D01*
X129933168Y-82253910D01*
X129950438Y-82269562D01*
X129966090Y-82286832D01*
X129979974Y-82305552D01*
X129991956Y-82325543D01*
X130001921Y-82346613D01*
X130009773Y-82368557D01*
X130015437Y-82391166D01*
X130018856Y-82414221D01*
X130020000Y-82437500D01*
X130020000Y-83012500D01*
X130018856Y-83035779D01*
X130015437Y-83058834D01*
X130009773Y-83081443D01*
X130001921Y-83103387D01*
X129991956Y-83124457D01*
X129979974Y-83144448D01*
X129966090Y-83163168D01*
X129950438Y-83180438D01*
X129933168Y-83196090D01*
X129914448Y-83209974D01*
X129894457Y-83221956D01*
X129873387Y-83231921D01*
X129851443Y-83239773D01*
X129828834Y-83245437D01*
X129805779Y-83248856D01*
X129782500Y-83250000D01*
X129307500Y-83250000D01*
X129284221Y-83248856D01*
X129261166Y-83245437D01*
X129238557Y-83239773D01*
X129216613Y-83231921D01*
X129195543Y-83221956D01*
X129175552Y-83209974D01*
X129156832Y-83196090D01*
X129139562Y-83180438D01*
X129123910Y-83163168D01*
X129110026Y-83144448D01*
X129098044Y-83124457D01*
X129088079Y-83103387D01*
X129080227Y-83081443D01*
X129074563Y-83058834D01*
X129071144Y-83035779D01*
X129070000Y-83012500D01*
X129070000Y-82437500D01*
X129071144Y-82414221D01*
X129074563Y-82391166D01*
X129080227Y-82368557D01*
X129088079Y-82346613D01*
X129098044Y-82325543D01*
X129110026Y-82305552D01*
X129123910Y-82286832D01*
X129139562Y-82269562D01*
X129156832Y-82253910D01*
X129175552Y-82240026D01*
X129195543Y-82228044D01*
X129216613Y-82218079D01*
X129238557Y-82210227D01*
X129261166Y-82204563D01*
X129284221Y-82201144D01*
X129307500Y-82200000D01*
X129782500Y-82200000D01*
X129805779Y-82201144D01*
X129805779Y-82201144D01*
G37*
D13*
G04 #@! TD*
G04 #@! TO.P,C2,1*
G04 #@! TO.N,Net-(C2-Pad1)*
X129545000Y-82725000D03*
D12*
G04 #@! TO.N,pump1*
G04 #@! TO.C,C2*
G36*
X129805779Y-80451144D02*
X129828834Y-80454563D01*
X129851443Y-80460227D01*
X129873387Y-80468079D01*
X129894457Y-80478044D01*
X129914448Y-80490026D01*
X129933168Y-80503910D01*
X129950438Y-80519562D01*
X129966090Y-80536832D01*
X129979974Y-80555552D01*
X129991956Y-80575543D01*
X130001921Y-80596613D01*
X130009773Y-80618557D01*
X130015437Y-80641166D01*
X130018856Y-80664221D01*
X130020000Y-80687500D01*
X130020000Y-81262500D01*
X130018856Y-81285779D01*
X130015437Y-81308834D01*
X130009773Y-81331443D01*
X130001921Y-81353387D01*
X129991956Y-81374457D01*
X129979974Y-81394448D01*
X129966090Y-81413168D01*
X129950438Y-81430438D01*
X129933168Y-81446090D01*
X129914448Y-81459974D01*
X129894457Y-81471956D01*
X129873387Y-81481921D01*
X129851443Y-81489773D01*
X129828834Y-81495437D01*
X129805779Y-81498856D01*
X129782500Y-81500000D01*
X129307500Y-81500000D01*
X129284221Y-81498856D01*
X129261166Y-81495437D01*
X129238557Y-81489773D01*
X129216613Y-81481921D01*
X129195543Y-81471956D01*
X129175552Y-81459974D01*
X129156832Y-81446090D01*
X129139562Y-81430438D01*
X129123910Y-81413168D01*
X129110026Y-81394448D01*
X129098044Y-81374457D01*
X129088079Y-81353387D01*
X129080227Y-81331443D01*
X129074563Y-81308834D01*
X129071144Y-81285779D01*
X129070000Y-81262500D01*
X129070000Y-80687500D01*
X129071144Y-80664221D01*
X129074563Y-80641166D01*
X129080227Y-80618557D01*
X129088079Y-80596613D01*
X129098044Y-80575543D01*
X129110026Y-80555552D01*
X129123910Y-80536832D01*
X129139562Y-80519562D01*
X129156832Y-80503910D01*
X129175552Y-80490026D01*
X129195543Y-80478044D01*
X129216613Y-80468079D01*
X129238557Y-80460227D01*
X129261166Y-80454563D01*
X129284221Y-80451144D01*
X129307500Y-80450000D01*
X129782500Y-80450000D01*
X129805779Y-80451144D01*
X129805779Y-80451144D01*
G37*
D13*
G04 #@! TD*
G04 #@! TO.P,C2,2*
G04 #@! TO.N,pump1*
X129545000Y-80975000D03*
D12*
G04 #@! TO.N,pump2*
G04 #@! TO.C,C4*
G36*
X129805779Y-84201144D02*
X129828834Y-84204563D01*
X129851443Y-84210227D01*
X129873387Y-84218079D01*
X129894457Y-84228044D01*
X129914448Y-84240026D01*
X129933168Y-84253910D01*
X129950438Y-84269562D01*
X129966090Y-84286832D01*
X129979974Y-84305552D01*
X129991956Y-84325543D01*
X130001921Y-84346613D01*
X130009773Y-84368557D01*
X130015437Y-84391166D01*
X130018856Y-84414221D01*
X130020000Y-84437500D01*
X130020000Y-85012500D01*
X130018856Y-85035779D01*
X130015437Y-85058834D01*
X130009773Y-85081443D01*
X130001921Y-85103387D01*
X129991956Y-85124457D01*
X129979974Y-85144448D01*
X129966090Y-85163168D01*
X129950438Y-85180438D01*
X129933168Y-85196090D01*
X129914448Y-85209974D01*
X129894457Y-85221956D01*
X129873387Y-85231921D01*
X129851443Y-85239773D01*
X129828834Y-85245437D01*
X129805779Y-85248856D01*
X129782500Y-85250000D01*
X129307500Y-85250000D01*
X129284221Y-85248856D01*
X129261166Y-85245437D01*
X129238557Y-85239773D01*
X129216613Y-85231921D01*
X129195543Y-85221956D01*
X129175552Y-85209974D01*
X129156832Y-85196090D01*
X129139562Y-85180438D01*
X129123910Y-85163168D01*
X129110026Y-85144448D01*
X129098044Y-85124457D01*
X129088079Y-85103387D01*
X129080227Y-85081443D01*
X129074563Y-85058834D01*
X129071144Y-85035779D01*
X129070000Y-85012500D01*
X129070000Y-84437500D01*
X129071144Y-84414221D01*
X129074563Y-84391166D01*
X129080227Y-84368557D01*
X129088079Y-84346613D01*
X129098044Y-84325543D01*
X129110026Y-84305552D01*
X129123910Y-84286832D01*
X129139562Y-84269562D01*
X129156832Y-84253910D01*
X129175552Y-84240026D01*
X129195543Y-84228044D01*
X129216613Y-84218079D01*
X129238557Y-84210227D01*
X129261166Y-84204563D01*
X129284221Y-84201144D01*
X129307500Y-84200000D01*
X129782500Y-84200000D01*
X129805779Y-84201144D01*
X129805779Y-84201144D01*
G37*
D13*
G04 #@! TD*
G04 #@! TO.P,C4,2*
G04 #@! TO.N,pump2*
X129545000Y-84725000D03*
D12*
G04 #@! TO.N,Net-(C4-Pad1)*
G04 #@! TO.C,C4*
G36*
X129805779Y-85951144D02*
X129828834Y-85954563D01*
X129851443Y-85960227D01*
X129873387Y-85968079D01*
X129894457Y-85978044D01*
X129914448Y-85990026D01*
X129933168Y-86003910D01*
X129950438Y-86019562D01*
X129966090Y-86036832D01*
X129979974Y-86055552D01*
X129991956Y-86075543D01*
X130001921Y-86096613D01*
X130009773Y-86118557D01*
X130015437Y-86141166D01*
X130018856Y-86164221D01*
X130020000Y-86187500D01*
X130020000Y-86762500D01*
X130018856Y-86785779D01*
X130015437Y-86808834D01*
X130009773Y-86831443D01*
X130001921Y-86853387D01*
X129991956Y-86874457D01*
X129979974Y-86894448D01*
X129966090Y-86913168D01*
X129950438Y-86930438D01*
X129933168Y-86946090D01*
X129914448Y-86959974D01*
X129894457Y-86971956D01*
X129873387Y-86981921D01*
X129851443Y-86989773D01*
X129828834Y-86995437D01*
X129805779Y-86998856D01*
X129782500Y-87000000D01*
X129307500Y-87000000D01*
X129284221Y-86998856D01*
X129261166Y-86995437D01*
X129238557Y-86989773D01*
X129216613Y-86981921D01*
X129195543Y-86971956D01*
X129175552Y-86959974D01*
X129156832Y-86946090D01*
X129139562Y-86930438D01*
X129123910Y-86913168D01*
X129110026Y-86894448D01*
X129098044Y-86874457D01*
X129088079Y-86853387D01*
X129080227Y-86831443D01*
X129074563Y-86808834D01*
X129071144Y-86785779D01*
X129070000Y-86762500D01*
X129070000Y-86187500D01*
X129071144Y-86164221D01*
X129074563Y-86141166D01*
X129080227Y-86118557D01*
X129088079Y-86096613D01*
X129098044Y-86075543D01*
X129110026Y-86055552D01*
X129123910Y-86036832D01*
X129139562Y-86019562D01*
X129156832Y-86003910D01*
X129175552Y-85990026D01*
X129195543Y-85978044D01*
X129216613Y-85968079D01*
X129238557Y-85960227D01*
X129261166Y-85954563D01*
X129284221Y-85951144D01*
X129307500Y-85950000D01*
X129782500Y-85950000D01*
X129805779Y-85951144D01*
X129805779Y-85951144D01*
G37*
D13*
G04 #@! TD*
G04 #@! TO.P,C4,1*
G04 #@! TO.N,Net-(C4-Pad1)*
X129545000Y-86475000D03*
D12*
G04 #@! TO.N,GND*
G04 #@! TO.C,C5*
G36*
X129980779Y-87776144D02*
X130003834Y-87779563D01*
X130026443Y-87785227D01*
X130048387Y-87793079D01*
X130069457Y-87803044D01*
X130089448Y-87815026D01*
X130108168Y-87828910D01*
X130125438Y-87844562D01*
X130141090Y-87861832D01*
X130154974Y-87880552D01*
X130166956Y-87900543D01*
X130176921Y-87921613D01*
X130184773Y-87943557D01*
X130190437Y-87966166D01*
X130193856Y-87989221D01*
X130195000Y-88012500D01*
X130195000Y-88487500D01*
X130193856Y-88510779D01*
X130190437Y-88533834D01*
X130184773Y-88556443D01*
X130176921Y-88578387D01*
X130166956Y-88599457D01*
X130154974Y-88619448D01*
X130141090Y-88638168D01*
X130125438Y-88655438D01*
X130108168Y-88671090D01*
X130089448Y-88684974D01*
X130069457Y-88696956D01*
X130048387Y-88706921D01*
X130026443Y-88714773D01*
X130003834Y-88720437D01*
X129980779Y-88723856D01*
X129957500Y-88725000D01*
X129382500Y-88725000D01*
X129359221Y-88723856D01*
X129336166Y-88720437D01*
X129313557Y-88714773D01*
X129291613Y-88706921D01*
X129270543Y-88696956D01*
X129250552Y-88684974D01*
X129231832Y-88671090D01*
X129214562Y-88655438D01*
X129198910Y-88638168D01*
X129185026Y-88619448D01*
X129173044Y-88599457D01*
X129163079Y-88578387D01*
X129155227Y-88556443D01*
X129149563Y-88533834D01*
X129146144Y-88510779D01*
X129145000Y-88487500D01*
X129145000Y-88012500D01*
X129146144Y-87989221D01*
X129149563Y-87966166D01*
X129155227Y-87943557D01*
X129163079Y-87921613D01*
X129173044Y-87900543D01*
X129185026Y-87880552D01*
X129198910Y-87861832D01*
X129214562Y-87844562D01*
X129231832Y-87828910D01*
X129250552Y-87815026D01*
X129270543Y-87803044D01*
X129291613Y-87793079D01*
X129313557Y-87785227D01*
X129336166Y-87779563D01*
X129359221Y-87776144D01*
X129382500Y-87775000D01*
X129957500Y-87775000D01*
X129980779Y-87776144D01*
X129980779Y-87776144D01*
G37*
D13*
G04 #@! TD*
G04 #@! TO.P,C5,2*
G04 #@! TO.N,GND*
X129670000Y-88250000D03*
D12*
G04 #@! TO.N,/V_GATE*
G04 #@! TO.C,C5*
G36*
X128230779Y-87776144D02*
X128253834Y-87779563D01*
X128276443Y-87785227D01*
X128298387Y-87793079D01*
X128319457Y-87803044D01*
X128339448Y-87815026D01*
X128358168Y-87828910D01*
X128375438Y-87844562D01*
X128391090Y-87861832D01*
X128404974Y-87880552D01*
X128416956Y-87900543D01*
X128426921Y-87921613D01*
X128434773Y-87943557D01*
X128440437Y-87966166D01*
X128443856Y-87989221D01*
X128445000Y-88012500D01*
X128445000Y-88487500D01*
X128443856Y-88510779D01*
X128440437Y-88533834D01*
X128434773Y-88556443D01*
X128426921Y-88578387D01*
X128416956Y-88599457D01*
X128404974Y-88619448D01*
X128391090Y-88638168D01*
X128375438Y-88655438D01*
X128358168Y-88671090D01*
X128339448Y-88684974D01*
X128319457Y-88696956D01*
X128298387Y-88706921D01*
X128276443Y-88714773D01*
X128253834Y-88720437D01*
X128230779Y-88723856D01*
X128207500Y-88725000D01*
X127632500Y-88725000D01*
X127609221Y-88723856D01*
X127586166Y-88720437D01*
X127563557Y-88714773D01*
X127541613Y-88706921D01*
X127520543Y-88696956D01*
X127500552Y-88684974D01*
X127481832Y-88671090D01*
X127464562Y-88655438D01*
X127448910Y-88638168D01*
X127435026Y-88619448D01*
X127423044Y-88599457D01*
X127413079Y-88578387D01*
X127405227Y-88556443D01*
X127399563Y-88533834D01*
X127396144Y-88510779D01*
X127395000Y-88487500D01*
X127395000Y-88012500D01*
X127396144Y-87989221D01*
X127399563Y-87966166D01*
X127405227Y-87943557D01*
X127413079Y-87921613D01*
X127423044Y-87900543D01*
X127435026Y-87880552D01*
X127448910Y-87861832D01*
X127464562Y-87844562D01*
X127481832Y-87828910D01*
X127500552Y-87815026D01*
X127520543Y-87803044D01*
X127541613Y-87793079D01*
X127563557Y-87785227D01*
X127586166Y-87779563D01*
X127609221Y-87776144D01*
X127632500Y-87775000D01*
X128207500Y-87775000D01*
X128230779Y-87776144D01*
X128230779Y-87776144D01*
G37*
D13*
G04 #@! TD*
G04 #@! TO.P,C5,1*
G04 #@! TO.N,/V_GATE*
X127920000Y-88250000D03*
D12*
G04 #@! TO.N,GND*
G04 #@! TO.C,C7*
G36*
X136235779Y-99716144D02*
X136258834Y-99719563D01*
X136281443Y-99725227D01*
X136303387Y-99733079D01*
X136324457Y-99743044D01*
X136344448Y-99755026D01*
X136363168Y-99768910D01*
X136380438Y-99784562D01*
X136396090Y-99801832D01*
X136409974Y-99820552D01*
X136421956Y-99840543D01*
X136431921Y-99861613D01*
X136439773Y-99883557D01*
X136445437Y-99906166D01*
X136448856Y-99929221D01*
X136450000Y-99952500D01*
X136450000Y-100427500D01*
X136448856Y-100450779D01*
X136445437Y-100473834D01*
X136439773Y-100496443D01*
X136431921Y-100518387D01*
X136421956Y-100539457D01*
X136409974Y-100559448D01*
X136396090Y-100578168D01*
X136380438Y-100595438D01*
X136363168Y-100611090D01*
X136344448Y-100624974D01*
X136324457Y-100636956D01*
X136303387Y-100646921D01*
X136281443Y-100654773D01*
X136258834Y-100660437D01*
X136235779Y-100663856D01*
X136212500Y-100665000D01*
X135637500Y-100665000D01*
X135614221Y-100663856D01*
X135591166Y-100660437D01*
X135568557Y-100654773D01*
X135546613Y-100646921D01*
X135525543Y-100636956D01*
X135505552Y-100624974D01*
X135486832Y-100611090D01*
X135469562Y-100595438D01*
X135453910Y-100578168D01*
X135440026Y-100559448D01*
X135428044Y-100539457D01*
X135418079Y-100518387D01*
X135410227Y-100496443D01*
X135404563Y-100473834D01*
X135401144Y-100450779D01*
X135400000Y-100427500D01*
X135400000Y-99952500D01*
X135401144Y-99929221D01*
X135404563Y-99906166D01*
X135410227Y-99883557D01*
X135418079Y-99861613D01*
X135428044Y-99840543D01*
X135440026Y-99820552D01*
X135453910Y-99801832D01*
X135469562Y-99784562D01*
X135486832Y-99768910D01*
X135505552Y-99755026D01*
X135525543Y-99743044D01*
X135546613Y-99733079D01*
X135568557Y-99725227D01*
X135591166Y-99719563D01*
X135614221Y-99716144D01*
X135637500Y-99715000D01*
X136212500Y-99715000D01*
X136235779Y-99716144D01*
X136235779Y-99716144D01*
G37*
D13*
G04 #@! TD*
G04 #@! TO.P,C7,2*
G04 #@! TO.N,GND*
X135925000Y-100190000D03*
D12*
G04 #@! TO.N,+3V3*
G04 #@! TO.C,C7*
G36*
X137985779Y-99716144D02*
X138008834Y-99719563D01*
X138031443Y-99725227D01*
X138053387Y-99733079D01*
X138074457Y-99743044D01*
X138094448Y-99755026D01*
X138113168Y-99768910D01*
X138130438Y-99784562D01*
X138146090Y-99801832D01*
X138159974Y-99820552D01*
X138171956Y-99840543D01*
X138181921Y-99861613D01*
X138189773Y-99883557D01*
X138195437Y-99906166D01*
X138198856Y-99929221D01*
X138200000Y-99952500D01*
X138200000Y-100427500D01*
X138198856Y-100450779D01*
X138195437Y-100473834D01*
X138189773Y-100496443D01*
X138181921Y-100518387D01*
X138171956Y-100539457D01*
X138159974Y-100559448D01*
X138146090Y-100578168D01*
X138130438Y-100595438D01*
X138113168Y-100611090D01*
X138094448Y-100624974D01*
X138074457Y-100636956D01*
X138053387Y-100646921D01*
X138031443Y-100654773D01*
X138008834Y-100660437D01*
X137985779Y-100663856D01*
X137962500Y-100665000D01*
X137387500Y-100665000D01*
X137364221Y-100663856D01*
X137341166Y-100660437D01*
X137318557Y-100654773D01*
X137296613Y-100646921D01*
X137275543Y-100636956D01*
X137255552Y-100624974D01*
X137236832Y-100611090D01*
X137219562Y-100595438D01*
X137203910Y-100578168D01*
X137190026Y-100559448D01*
X137178044Y-100539457D01*
X137168079Y-100518387D01*
X137160227Y-100496443D01*
X137154563Y-100473834D01*
X137151144Y-100450779D01*
X137150000Y-100427500D01*
X137150000Y-99952500D01*
X137151144Y-99929221D01*
X137154563Y-99906166D01*
X137160227Y-99883557D01*
X137168079Y-99861613D01*
X137178044Y-99840543D01*
X137190026Y-99820552D01*
X137203910Y-99801832D01*
X137219562Y-99784562D01*
X137236832Y-99768910D01*
X137255552Y-99755026D01*
X137275543Y-99743044D01*
X137296613Y-99733079D01*
X137318557Y-99725227D01*
X137341166Y-99719563D01*
X137364221Y-99716144D01*
X137387500Y-99715000D01*
X137962500Y-99715000D01*
X137985779Y-99716144D01*
X137985779Y-99716144D01*
G37*
D13*
G04 #@! TD*
G04 #@! TO.P,C7,1*
G04 #@! TO.N,+3V3*
X137675000Y-100190000D03*
D12*
G04 #@! TO.N,+3V3*
G04 #@! TO.C,C8*
G36*
X136255779Y-103026144D02*
X136278834Y-103029563D01*
X136301443Y-103035227D01*
X136323387Y-103043079D01*
X136344457Y-103053044D01*
X136364448Y-103065026D01*
X136383168Y-103078910D01*
X136400438Y-103094562D01*
X136416090Y-103111832D01*
X136429974Y-103130552D01*
X136441956Y-103150543D01*
X136451921Y-103171613D01*
X136459773Y-103193557D01*
X136465437Y-103216166D01*
X136468856Y-103239221D01*
X136470000Y-103262500D01*
X136470000Y-103737500D01*
X136468856Y-103760779D01*
X136465437Y-103783834D01*
X136459773Y-103806443D01*
X136451921Y-103828387D01*
X136441956Y-103849457D01*
X136429974Y-103869448D01*
X136416090Y-103888168D01*
X136400438Y-103905438D01*
X136383168Y-103921090D01*
X136364448Y-103934974D01*
X136344457Y-103946956D01*
X136323387Y-103956921D01*
X136301443Y-103964773D01*
X136278834Y-103970437D01*
X136255779Y-103973856D01*
X136232500Y-103975000D01*
X135657500Y-103975000D01*
X135634221Y-103973856D01*
X135611166Y-103970437D01*
X135588557Y-103964773D01*
X135566613Y-103956921D01*
X135545543Y-103946956D01*
X135525552Y-103934974D01*
X135506832Y-103921090D01*
X135489562Y-103905438D01*
X135473910Y-103888168D01*
X135460026Y-103869448D01*
X135448044Y-103849457D01*
X135438079Y-103828387D01*
X135430227Y-103806443D01*
X135424563Y-103783834D01*
X135421144Y-103760779D01*
X135420000Y-103737500D01*
X135420000Y-103262500D01*
X135421144Y-103239221D01*
X135424563Y-103216166D01*
X135430227Y-103193557D01*
X135438079Y-103171613D01*
X135448044Y-103150543D01*
X135460026Y-103130552D01*
X135473910Y-103111832D01*
X135489562Y-103094562D01*
X135506832Y-103078910D01*
X135525552Y-103065026D01*
X135545543Y-103053044D01*
X135566613Y-103043079D01*
X135588557Y-103035227D01*
X135611166Y-103029563D01*
X135634221Y-103026144D01*
X135657500Y-103025000D01*
X136232500Y-103025000D01*
X136255779Y-103026144D01*
X136255779Y-103026144D01*
G37*
D13*
G04 #@! TD*
G04 #@! TO.P,C8,1*
G04 #@! TO.N,+3V3*
X135945000Y-103500000D03*
D12*
G04 #@! TO.N,GND*
G04 #@! TO.C,C8*
G36*
X138005779Y-103026144D02*
X138028834Y-103029563D01*
X138051443Y-103035227D01*
X138073387Y-103043079D01*
X138094457Y-103053044D01*
X138114448Y-103065026D01*
X138133168Y-103078910D01*
X138150438Y-103094562D01*
X138166090Y-103111832D01*
X138179974Y-103130552D01*
X138191956Y-103150543D01*
X138201921Y-103171613D01*
X138209773Y-103193557D01*
X138215437Y-103216166D01*
X138218856Y-103239221D01*
X138220000Y-103262500D01*
X138220000Y-103737500D01*
X138218856Y-103760779D01*
X138215437Y-103783834D01*
X138209773Y-103806443D01*
X138201921Y-103828387D01*
X138191956Y-103849457D01*
X138179974Y-103869448D01*
X138166090Y-103888168D01*
X138150438Y-103905438D01*
X138133168Y-103921090D01*
X138114448Y-103934974D01*
X138094457Y-103946956D01*
X138073387Y-103956921D01*
X138051443Y-103964773D01*
X138028834Y-103970437D01*
X138005779Y-103973856D01*
X137982500Y-103975000D01*
X137407500Y-103975000D01*
X137384221Y-103973856D01*
X137361166Y-103970437D01*
X137338557Y-103964773D01*
X137316613Y-103956921D01*
X137295543Y-103946956D01*
X137275552Y-103934974D01*
X137256832Y-103921090D01*
X137239562Y-103905438D01*
X137223910Y-103888168D01*
X137210026Y-103869448D01*
X137198044Y-103849457D01*
X137188079Y-103828387D01*
X137180227Y-103806443D01*
X137174563Y-103783834D01*
X137171144Y-103760779D01*
X137170000Y-103737500D01*
X137170000Y-103262500D01*
X137171144Y-103239221D01*
X137174563Y-103216166D01*
X137180227Y-103193557D01*
X137188079Y-103171613D01*
X137198044Y-103150543D01*
X137210026Y-103130552D01*
X137223910Y-103111832D01*
X137239562Y-103094562D01*
X137256832Y-103078910D01*
X137275552Y-103065026D01*
X137295543Y-103053044D01*
X137316613Y-103043079D01*
X137338557Y-103035227D01*
X137361166Y-103029563D01*
X137384221Y-103026144D01*
X137407500Y-103025000D01*
X137982500Y-103025000D01*
X138005779Y-103026144D01*
X138005779Y-103026144D01*
G37*
D13*
G04 #@! TD*
G04 #@! TO.P,C8,2*
G04 #@! TO.N,GND*
X137695000Y-103500000D03*
D12*
G04 #@! TO.N,GND*
G04 #@! TO.C,C9*
G36*
X138005779Y-104776144D02*
X138028834Y-104779563D01*
X138051443Y-104785227D01*
X138073387Y-104793079D01*
X138094457Y-104803044D01*
X138114448Y-104815026D01*
X138133168Y-104828910D01*
X138150438Y-104844562D01*
X138166090Y-104861832D01*
X138179974Y-104880552D01*
X138191956Y-104900543D01*
X138201921Y-104921613D01*
X138209773Y-104943557D01*
X138215437Y-104966166D01*
X138218856Y-104989221D01*
X138220000Y-105012500D01*
X138220000Y-105487500D01*
X138218856Y-105510779D01*
X138215437Y-105533834D01*
X138209773Y-105556443D01*
X138201921Y-105578387D01*
X138191956Y-105599457D01*
X138179974Y-105619448D01*
X138166090Y-105638168D01*
X138150438Y-105655438D01*
X138133168Y-105671090D01*
X138114448Y-105684974D01*
X138094457Y-105696956D01*
X138073387Y-105706921D01*
X138051443Y-105714773D01*
X138028834Y-105720437D01*
X138005779Y-105723856D01*
X137982500Y-105725000D01*
X137407500Y-105725000D01*
X137384221Y-105723856D01*
X137361166Y-105720437D01*
X137338557Y-105714773D01*
X137316613Y-105706921D01*
X137295543Y-105696956D01*
X137275552Y-105684974D01*
X137256832Y-105671090D01*
X137239562Y-105655438D01*
X137223910Y-105638168D01*
X137210026Y-105619448D01*
X137198044Y-105599457D01*
X137188079Y-105578387D01*
X137180227Y-105556443D01*
X137174563Y-105533834D01*
X137171144Y-105510779D01*
X137170000Y-105487500D01*
X137170000Y-105012500D01*
X137171144Y-104989221D01*
X137174563Y-104966166D01*
X137180227Y-104943557D01*
X137188079Y-104921613D01*
X137198044Y-104900543D01*
X137210026Y-104880552D01*
X137223910Y-104861832D01*
X137239562Y-104844562D01*
X137256832Y-104828910D01*
X137275552Y-104815026D01*
X137295543Y-104803044D01*
X137316613Y-104793079D01*
X137338557Y-104785227D01*
X137361166Y-104779563D01*
X137384221Y-104776144D01*
X137407500Y-104775000D01*
X137982500Y-104775000D01*
X138005779Y-104776144D01*
X138005779Y-104776144D01*
G37*
D13*
G04 #@! TD*
G04 #@! TO.P,C9,2*
G04 #@! TO.N,GND*
X137695000Y-105250000D03*
D12*
G04 #@! TO.N,+3V3*
G04 #@! TO.C,C9*
G36*
X136255779Y-104776144D02*
X136278834Y-104779563D01*
X136301443Y-104785227D01*
X136323387Y-104793079D01*
X136344457Y-104803044D01*
X136364448Y-104815026D01*
X136383168Y-104828910D01*
X136400438Y-104844562D01*
X136416090Y-104861832D01*
X136429974Y-104880552D01*
X136441956Y-104900543D01*
X136451921Y-104921613D01*
X136459773Y-104943557D01*
X136465437Y-104966166D01*
X136468856Y-104989221D01*
X136470000Y-105012500D01*
X136470000Y-105487500D01*
X136468856Y-105510779D01*
X136465437Y-105533834D01*
X136459773Y-105556443D01*
X136451921Y-105578387D01*
X136441956Y-105599457D01*
X136429974Y-105619448D01*
X136416090Y-105638168D01*
X136400438Y-105655438D01*
X136383168Y-105671090D01*
X136364448Y-105684974D01*
X136344457Y-105696956D01*
X136323387Y-105706921D01*
X136301443Y-105714773D01*
X136278834Y-105720437D01*
X136255779Y-105723856D01*
X136232500Y-105725000D01*
X135657500Y-105725000D01*
X135634221Y-105723856D01*
X135611166Y-105720437D01*
X135588557Y-105714773D01*
X135566613Y-105706921D01*
X135545543Y-105696956D01*
X135525552Y-105684974D01*
X135506832Y-105671090D01*
X135489562Y-105655438D01*
X135473910Y-105638168D01*
X135460026Y-105619448D01*
X135448044Y-105599457D01*
X135438079Y-105578387D01*
X135430227Y-105556443D01*
X135424563Y-105533834D01*
X135421144Y-105510779D01*
X135420000Y-105487500D01*
X135420000Y-105012500D01*
X135421144Y-104989221D01*
X135424563Y-104966166D01*
X135430227Y-104943557D01*
X135438079Y-104921613D01*
X135448044Y-104900543D01*
X135460026Y-104880552D01*
X135473910Y-104861832D01*
X135489562Y-104844562D01*
X135506832Y-104828910D01*
X135525552Y-104815026D01*
X135545543Y-104803044D01*
X135566613Y-104793079D01*
X135588557Y-104785227D01*
X135611166Y-104779563D01*
X135634221Y-104776144D01*
X135657500Y-104775000D01*
X136232500Y-104775000D01*
X136255779Y-104776144D01*
X136255779Y-104776144D01*
G37*
D13*
G04 #@! TD*
G04 #@! TO.P,C9,1*
G04 #@! TO.N,+3V3*
X135945000Y-105250000D03*
D12*
G04 #@! TO.N,/BATT_SENSE*
G04 #@! TO.C,C10*
G36*
X128980779Y-102291144D02*
X129003834Y-102294563D01*
X129026443Y-102300227D01*
X129048387Y-102308079D01*
X129069457Y-102318044D01*
X129089448Y-102330026D01*
X129108168Y-102343910D01*
X129125438Y-102359562D01*
X129141090Y-102376832D01*
X129154974Y-102395552D01*
X129166956Y-102415543D01*
X129176921Y-102436613D01*
X129184773Y-102458557D01*
X129190437Y-102481166D01*
X129193856Y-102504221D01*
X129195000Y-102527500D01*
X129195000Y-103102500D01*
X129193856Y-103125779D01*
X129190437Y-103148834D01*
X129184773Y-103171443D01*
X129176921Y-103193387D01*
X129166956Y-103214457D01*
X129154974Y-103234448D01*
X129141090Y-103253168D01*
X129125438Y-103270438D01*
X129108168Y-103286090D01*
X129089448Y-103299974D01*
X129069457Y-103311956D01*
X129048387Y-103321921D01*
X129026443Y-103329773D01*
X129003834Y-103335437D01*
X128980779Y-103338856D01*
X128957500Y-103340000D01*
X128482500Y-103340000D01*
X128459221Y-103338856D01*
X128436166Y-103335437D01*
X128413557Y-103329773D01*
X128391613Y-103321921D01*
X128370543Y-103311956D01*
X128350552Y-103299974D01*
X128331832Y-103286090D01*
X128314562Y-103270438D01*
X128298910Y-103253168D01*
X128285026Y-103234448D01*
X128273044Y-103214457D01*
X128263079Y-103193387D01*
X128255227Y-103171443D01*
X128249563Y-103148834D01*
X128246144Y-103125779D01*
X128245000Y-103102500D01*
X128245000Y-102527500D01*
X128246144Y-102504221D01*
X128249563Y-102481166D01*
X128255227Y-102458557D01*
X128263079Y-102436613D01*
X128273044Y-102415543D01*
X128285026Y-102395552D01*
X128298910Y-102376832D01*
X128314562Y-102359562D01*
X128331832Y-102343910D01*
X128350552Y-102330026D01*
X128370543Y-102318044D01*
X128391613Y-102308079D01*
X128413557Y-102300227D01*
X128436166Y-102294563D01*
X128459221Y-102291144D01*
X128482500Y-102290000D01*
X128957500Y-102290000D01*
X128980779Y-102291144D01*
X128980779Y-102291144D01*
G37*
D13*
G04 #@! TD*
G04 #@! TO.P,C10,1*
G04 #@! TO.N,/BATT_SENSE*
X128720000Y-102815000D03*
D12*
G04 #@! TO.N,GND*
G04 #@! TO.C,C10*
G36*
X128980779Y-104041144D02*
X129003834Y-104044563D01*
X129026443Y-104050227D01*
X129048387Y-104058079D01*
X129069457Y-104068044D01*
X129089448Y-104080026D01*
X129108168Y-104093910D01*
X129125438Y-104109562D01*
X129141090Y-104126832D01*
X129154974Y-104145552D01*
X129166956Y-104165543D01*
X129176921Y-104186613D01*
X129184773Y-104208557D01*
X129190437Y-104231166D01*
X129193856Y-104254221D01*
X129195000Y-104277500D01*
X129195000Y-104852500D01*
X129193856Y-104875779D01*
X129190437Y-104898834D01*
X129184773Y-104921443D01*
X129176921Y-104943387D01*
X129166956Y-104964457D01*
X129154974Y-104984448D01*
X129141090Y-105003168D01*
X129125438Y-105020438D01*
X129108168Y-105036090D01*
X129089448Y-105049974D01*
X129069457Y-105061956D01*
X129048387Y-105071921D01*
X129026443Y-105079773D01*
X129003834Y-105085437D01*
X128980779Y-105088856D01*
X128957500Y-105090000D01*
X128482500Y-105090000D01*
X128459221Y-105088856D01*
X128436166Y-105085437D01*
X128413557Y-105079773D01*
X128391613Y-105071921D01*
X128370543Y-105061956D01*
X128350552Y-105049974D01*
X128331832Y-105036090D01*
X128314562Y-105020438D01*
X128298910Y-105003168D01*
X128285026Y-104984448D01*
X128273044Y-104964457D01*
X128263079Y-104943387D01*
X128255227Y-104921443D01*
X128249563Y-104898834D01*
X128246144Y-104875779D01*
X128245000Y-104852500D01*
X128245000Y-104277500D01*
X128246144Y-104254221D01*
X128249563Y-104231166D01*
X128255227Y-104208557D01*
X128263079Y-104186613D01*
X128273044Y-104165543D01*
X128285026Y-104145552D01*
X128298910Y-104126832D01*
X128314562Y-104109562D01*
X128331832Y-104093910D01*
X128350552Y-104080026D01*
X128370543Y-104068044D01*
X128391613Y-104058079D01*
X128413557Y-104050227D01*
X128436166Y-104044563D01*
X128459221Y-104041144D01*
X128482500Y-104040000D01*
X128957500Y-104040000D01*
X128980779Y-104041144D01*
X128980779Y-104041144D01*
G37*
D13*
G04 #@! TD*
G04 #@! TO.P,C10,2*
G04 #@! TO.N,GND*
X128720000Y-104565000D03*
D16*
G04 #@! TO.P,D2,1*
G04 #@! TO.N,Net-(C2-Pad1)*
X127895000Y-84650000D03*
G04 #@! TO.P,D2,2*
G04 #@! TO.N,/V_GATE*
X127895000Y-86550000D03*
G04 #@! TO.P,D2,3*
G04 #@! TO.N,Net-(C4-Pad1)*
X125895000Y-85600000D03*
G04 #@! TD*
D17*
G04 #@! TO.P,H1,1*
G04 #@! TO.N,GND*
X152130000Y-63290000D03*
G04 #@! TD*
D18*
G04 #@! TO.P,J1,1*
G04 #@! TO.N,+3V3*
X160080000Y-82815000D03*
D12*
G04 #@! TD*
G04 #@! TO.N,+3V3*
G04 #@! TO.C,J1*
G36*
X161277507Y-82710232D02*
X160184768Y-84012507D01*
X158882493Y-82919768D01*
X159975232Y-81617493D01*
X161277507Y-82710232D01*
X161277507Y-82710232D01*
G37*
D18*
G04 #@! TO.P,J1,2*
G04 #@! TO.N,SWCLK*
X158447319Y-84760753D03*
D19*
G04 #@! TD*
G04 #@! TO.N,SWCLK*
G04 #@! TO.C,J1*
X158447319Y-84760753D02*
X158447319Y-84760753D01*
D18*
G04 #@! TO.P,J1,3*
G04 #@! TO.N,GND*
X156814639Y-86706506D03*
D19*
G04 #@! TD*
G04 #@! TO.N,GND*
G04 #@! TO.C,J1*
X156814639Y-86706506D02*
X156814639Y-86706506D01*
D18*
G04 #@! TO.P,J1,4*
G04 #@! TO.N,SWDI0*
X155181958Y-88652259D03*
D19*
G04 #@! TD*
G04 #@! TO.N,SWDI0*
G04 #@! TO.C,J1*
X155181958Y-88652259D02*
X155181958Y-88652259D01*
D18*
G04 #@! TO.P,J1,5*
G04 #@! TO.N,NRST*
X153549278Y-90598012D03*
D19*
G04 #@! TD*
G04 #@! TO.N,NRST*
G04 #@! TO.C,J1*
X153549278Y-90598012D02*
X153549278Y-90598012D01*
D18*
G04 #@! TO.P,J1,6*
G04 #@! TO.N,UART_TX*
X151916597Y-92543764D03*
D19*
G04 #@! TD*
G04 #@! TO.N,UART_TX*
G04 #@! TO.C,J1*
X151916597Y-92543764D02*
X151916597Y-92543764D01*
D12*
G04 #@! TO.N,/SOLAR*
G04 #@! TO.C,R1*
G36*
X130210779Y-94291144D02*
X130233834Y-94294563D01*
X130256443Y-94300227D01*
X130278387Y-94308079D01*
X130299457Y-94318044D01*
X130319448Y-94330026D01*
X130338168Y-94343910D01*
X130355438Y-94359562D01*
X130371090Y-94376832D01*
X130384974Y-94395552D01*
X130396956Y-94415543D01*
X130406921Y-94436613D01*
X130414773Y-94458557D01*
X130420437Y-94481166D01*
X130423856Y-94504221D01*
X130425000Y-94527500D01*
X130425000Y-95102500D01*
X130423856Y-95125779D01*
X130420437Y-95148834D01*
X130414773Y-95171443D01*
X130406921Y-95193387D01*
X130396956Y-95214457D01*
X130384974Y-95234448D01*
X130371090Y-95253168D01*
X130355438Y-95270438D01*
X130338168Y-95286090D01*
X130319448Y-95299974D01*
X130299457Y-95311956D01*
X130278387Y-95321921D01*
X130256443Y-95329773D01*
X130233834Y-95335437D01*
X130210779Y-95338856D01*
X130187500Y-95340000D01*
X129712500Y-95340000D01*
X129689221Y-95338856D01*
X129666166Y-95335437D01*
X129643557Y-95329773D01*
X129621613Y-95321921D01*
X129600543Y-95311956D01*
X129580552Y-95299974D01*
X129561832Y-95286090D01*
X129544562Y-95270438D01*
X129528910Y-95253168D01*
X129515026Y-95234448D01*
X129503044Y-95214457D01*
X129493079Y-95193387D01*
X129485227Y-95171443D01*
X129479563Y-95148834D01*
X129476144Y-95125779D01*
X129475000Y-95102500D01*
X129475000Y-94527500D01*
X129476144Y-94504221D01*
X129479563Y-94481166D01*
X129485227Y-94458557D01*
X129493079Y-94436613D01*
X129503044Y-94415543D01*
X129515026Y-94395552D01*
X129528910Y-94376832D01*
X129544562Y-94359562D01*
X129561832Y-94343910D01*
X129580552Y-94330026D01*
X129600543Y-94318044D01*
X129621613Y-94308079D01*
X129643557Y-94300227D01*
X129666166Y-94294563D01*
X129689221Y-94291144D01*
X129712500Y-94290000D01*
X130187500Y-94290000D01*
X130210779Y-94291144D01*
X130210779Y-94291144D01*
G37*
D13*
G04 #@! TD*
G04 #@! TO.P,R1,1*
G04 #@! TO.N,/SOLAR*
X129950000Y-94815000D03*
D12*
G04 #@! TO.N,/PANEL_SENSE*
G04 #@! TO.C,R1*
G36*
X130210779Y-96041144D02*
X130233834Y-96044563D01*
X130256443Y-96050227D01*
X130278387Y-96058079D01*
X130299457Y-96068044D01*
X130319448Y-96080026D01*
X130338168Y-96093910D01*
X130355438Y-96109562D01*
X130371090Y-96126832D01*
X130384974Y-96145552D01*
X130396956Y-96165543D01*
X130406921Y-96186613D01*
X130414773Y-96208557D01*
X130420437Y-96231166D01*
X130423856Y-96254221D01*
X130425000Y-96277500D01*
X130425000Y-96852500D01*
X130423856Y-96875779D01*
X130420437Y-96898834D01*
X130414773Y-96921443D01*
X130406921Y-96943387D01*
X130396956Y-96964457D01*
X130384974Y-96984448D01*
X130371090Y-97003168D01*
X130355438Y-97020438D01*
X130338168Y-97036090D01*
X130319448Y-97049974D01*
X130299457Y-97061956D01*
X130278387Y-97071921D01*
X130256443Y-97079773D01*
X130233834Y-97085437D01*
X130210779Y-97088856D01*
X130187500Y-97090000D01*
X129712500Y-97090000D01*
X129689221Y-97088856D01*
X129666166Y-97085437D01*
X129643557Y-97079773D01*
X129621613Y-97071921D01*
X129600543Y-97061956D01*
X129580552Y-97049974D01*
X129561832Y-97036090D01*
X129544562Y-97020438D01*
X129528910Y-97003168D01*
X129515026Y-96984448D01*
X129503044Y-96964457D01*
X129493079Y-96943387D01*
X129485227Y-96921443D01*
X129479563Y-96898834D01*
X129476144Y-96875779D01*
X129475000Y-96852500D01*
X129475000Y-96277500D01*
X129476144Y-96254221D01*
X129479563Y-96231166D01*
X129485227Y-96208557D01*
X129493079Y-96186613D01*
X129503044Y-96165543D01*
X129515026Y-96145552D01*
X129528910Y-96126832D01*
X129544562Y-96109562D01*
X129561832Y-96093910D01*
X129580552Y-96080026D01*
X129600543Y-96068044D01*
X129621613Y-96058079D01*
X129643557Y-96050227D01*
X129666166Y-96044563D01*
X129689221Y-96041144D01*
X129712500Y-96040000D01*
X130187500Y-96040000D01*
X130210779Y-96041144D01*
X130210779Y-96041144D01*
G37*
D13*
G04 #@! TD*
G04 #@! TO.P,R1,2*
G04 #@! TO.N,/PANEL_SENSE*
X129950000Y-96565000D03*
D12*
G04 #@! TO.N,/BATT*
G04 #@! TO.C,R2*
G36*
X127735779Y-94266144D02*
X127758834Y-94269563D01*
X127781443Y-94275227D01*
X127803387Y-94283079D01*
X127824457Y-94293044D01*
X127844448Y-94305026D01*
X127863168Y-94318910D01*
X127880438Y-94334562D01*
X127896090Y-94351832D01*
X127909974Y-94370552D01*
X127921956Y-94390543D01*
X127931921Y-94411613D01*
X127939773Y-94433557D01*
X127945437Y-94456166D01*
X127948856Y-94479221D01*
X127950000Y-94502500D01*
X127950000Y-95077500D01*
X127948856Y-95100779D01*
X127945437Y-95123834D01*
X127939773Y-95146443D01*
X127931921Y-95168387D01*
X127921956Y-95189457D01*
X127909974Y-95209448D01*
X127896090Y-95228168D01*
X127880438Y-95245438D01*
X127863168Y-95261090D01*
X127844448Y-95274974D01*
X127824457Y-95286956D01*
X127803387Y-95296921D01*
X127781443Y-95304773D01*
X127758834Y-95310437D01*
X127735779Y-95313856D01*
X127712500Y-95315000D01*
X127237500Y-95315000D01*
X127214221Y-95313856D01*
X127191166Y-95310437D01*
X127168557Y-95304773D01*
X127146613Y-95296921D01*
X127125543Y-95286956D01*
X127105552Y-95274974D01*
X127086832Y-95261090D01*
X127069562Y-95245438D01*
X127053910Y-95228168D01*
X127040026Y-95209448D01*
X127028044Y-95189457D01*
X127018079Y-95168387D01*
X127010227Y-95146443D01*
X127004563Y-95123834D01*
X127001144Y-95100779D01*
X127000000Y-95077500D01*
X127000000Y-94502500D01*
X127001144Y-94479221D01*
X127004563Y-94456166D01*
X127010227Y-94433557D01*
X127018079Y-94411613D01*
X127028044Y-94390543D01*
X127040026Y-94370552D01*
X127053910Y-94351832D01*
X127069562Y-94334562D01*
X127086832Y-94318910D01*
X127105552Y-94305026D01*
X127125543Y-94293044D01*
X127146613Y-94283079D01*
X127168557Y-94275227D01*
X127191166Y-94269563D01*
X127214221Y-94266144D01*
X127237500Y-94265000D01*
X127712500Y-94265000D01*
X127735779Y-94266144D01*
X127735779Y-94266144D01*
G37*
D13*
G04 #@! TD*
G04 #@! TO.P,R2,1*
G04 #@! TO.N,/BATT*
X127475000Y-94790000D03*
D12*
G04 #@! TO.N,/BATT_SENSE*
G04 #@! TO.C,R2*
G36*
X127735779Y-96016144D02*
X127758834Y-96019563D01*
X127781443Y-96025227D01*
X127803387Y-96033079D01*
X127824457Y-96043044D01*
X127844448Y-96055026D01*
X127863168Y-96068910D01*
X127880438Y-96084562D01*
X127896090Y-96101832D01*
X127909974Y-96120552D01*
X127921956Y-96140543D01*
X127931921Y-96161613D01*
X127939773Y-96183557D01*
X127945437Y-96206166D01*
X127948856Y-96229221D01*
X127950000Y-96252500D01*
X127950000Y-96827500D01*
X127948856Y-96850779D01*
X127945437Y-96873834D01*
X127939773Y-96896443D01*
X127931921Y-96918387D01*
X127921956Y-96939457D01*
X127909974Y-96959448D01*
X127896090Y-96978168D01*
X127880438Y-96995438D01*
X127863168Y-97011090D01*
X127844448Y-97024974D01*
X127824457Y-97036956D01*
X127803387Y-97046921D01*
X127781443Y-97054773D01*
X127758834Y-97060437D01*
X127735779Y-97063856D01*
X127712500Y-97065000D01*
X127237500Y-97065000D01*
X127214221Y-97063856D01*
X127191166Y-97060437D01*
X127168557Y-97054773D01*
X127146613Y-97046921D01*
X127125543Y-97036956D01*
X127105552Y-97024974D01*
X127086832Y-97011090D01*
X127069562Y-96995438D01*
X127053910Y-96978168D01*
X127040026Y-96959448D01*
X127028044Y-96939457D01*
X127018079Y-96918387D01*
X127010227Y-96896443D01*
X127004563Y-96873834D01*
X127001144Y-96850779D01*
X127000000Y-96827500D01*
X127000000Y-96252500D01*
X127001144Y-96229221D01*
X127004563Y-96206166D01*
X127010227Y-96183557D01*
X127018079Y-96161613D01*
X127028044Y-96140543D01*
X127040026Y-96120552D01*
X127053910Y-96101832D01*
X127069562Y-96084562D01*
X127086832Y-96068910D01*
X127105552Y-96055026D01*
X127125543Y-96043044D01*
X127146613Y-96033079D01*
X127168557Y-96025227D01*
X127191166Y-96019563D01*
X127214221Y-96016144D01*
X127237500Y-96015000D01*
X127712500Y-96015000D01*
X127735779Y-96016144D01*
X127735779Y-96016144D01*
G37*
D13*
G04 #@! TD*
G04 #@! TO.P,R2,2*
G04 #@! TO.N,/BATT_SENSE*
X127475000Y-96540000D03*
D12*
G04 #@! TO.N,GND*
G04 #@! TO.C,R5*
G36*
X130210779Y-99791144D02*
X130233834Y-99794563D01*
X130256443Y-99800227D01*
X130278387Y-99808079D01*
X130299457Y-99818044D01*
X130319448Y-99830026D01*
X130338168Y-99843910D01*
X130355438Y-99859562D01*
X130371090Y-99876832D01*
X130384974Y-99895552D01*
X130396956Y-99915543D01*
X130406921Y-99936613D01*
X130414773Y-99958557D01*
X130420437Y-99981166D01*
X130423856Y-100004221D01*
X130425000Y-100027500D01*
X130425000Y-100602500D01*
X130423856Y-100625779D01*
X130420437Y-100648834D01*
X130414773Y-100671443D01*
X130406921Y-100693387D01*
X130396956Y-100714457D01*
X130384974Y-100734448D01*
X130371090Y-100753168D01*
X130355438Y-100770438D01*
X130338168Y-100786090D01*
X130319448Y-100799974D01*
X130299457Y-100811956D01*
X130278387Y-100821921D01*
X130256443Y-100829773D01*
X130233834Y-100835437D01*
X130210779Y-100838856D01*
X130187500Y-100840000D01*
X129712500Y-100840000D01*
X129689221Y-100838856D01*
X129666166Y-100835437D01*
X129643557Y-100829773D01*
X129621613Y-100821921D01*
X129600543Y-100811956D01*
X129580552Y-100799974D01*
X129561832Y-100786090D01*
X129544562Y-100770438D01*
X129528910Y-100753168D01*
X129515026Y-100734448D01*
X129503044Y-100714457D01*
X129493079Y-100693387D01*
X129485227Y-100671443D01*
X129479563Y-100648834D01*
X129476144Y-100625779D01*
X129475000Y-100602500D01*
X129475000Y-100027500D01*
X129476144Y-100004221D01*
X129479563Y-99981166D01*
X129485227Y-99958557D01*
X129493079Y-99936613D01*
X129503044Y-99915543D01*
X129515026Y-99895552D01*
X129528910Y-99876832D01*
X129544562Y-99859562D01*
X129561832Y-99843910D01*
X129580552Y-99830026D01*
X129600543Y-99818044D01*
X129621613Y-99808079D01*
X129643557Y-99800227D01*
X129666166Y-99794563D01*
X129689221Y-99791144D01*
X129712500Y-99790000D01*
X130187500Y-99790000D01*
X130210779Y-99791144D01*
X130210779Y-99791144D01*
G37*
D13*
G04 #@! TD*
G04 #@! TO.P,R5,2*
G04 #@! TO.N,GND*
X129950000Y-100315000D03*
D12*
G04 #@! TO.N,/PANEL_SENSE*
G04 #@! TO.C,R5*
G36*
X130210779Y-98041144D02*
X130233834Y-98044563D01*
X130256443Y-98050227D01*
X130278387Y-98058079D01*
X130299457Y-98068044D01*
X130319448Y-98080026D01*
X130338168Y-98093910D01*
X130355438Y-98109562D01*
X130371090Y-98126832D01*
X130384974Y-98145552D01*
X130396956Y-98165543D01*
X130406921Y-98186613D01*
X130414773Y-98208557D01*
X130420437Y-98231166D01*
X130423856Y-98254221D01*
X130425000Y-98277500D01*
X130425000Y-98852500D01*
X130423856Y-98875779D01*
X130420437Y-98898834D01*
X130414773Y-98921443D01*
X130406921Y-98943387D01*
X130396956Y-98964457D01*
X130384974Y-98984448D01*
X130371090Y-99003168D01*
X130355438Y-99020438D01*
X130338168Y-99036090D01*
X130319448Y-99049974D01*
X130299457Y-99061956D01*
X130278387Y-99071921D01*
X130256443Y-99079773D01*
X130233834Y-99085437D01*
X130210779Y-99088856D01*
X130187500Y-99090000D01*
X129712500Y-99090000D01*
X129689221Y-99088856D01*
X129666166Y-99085437D01*
X129643557Y-99079773D01*
X129621613Y-99071921D01*
X129600543Y-99061956D01*
X129580552Y-99049974D01*
X129561832Y-99036090D01*
X129544562Y-99020438D01*
X129528910Y-99003168D01*
X129515026Y-98984448D01*
X129503044Y-98964457D01*
X129493079Y-98943387D01*
X129485227Y-98921443D01*
X129479563Y-98898834D01*
X129476144Y-98875779D01*
X129475000Y-98852500D01*
X129475000Y-98277500D01*
X129476144Y-98254221D01*
X129479563Y-98231166D01*
X129485227Y-98208557D01*
X129493079Y-98186613D01*
X129503044Y-98165543D01*
X129515026Y-98145552D01*
X129528910Y-98126832D01*
X129544562Y-98109562D01*
X129561832Y-98093910D01*
X129580552Y-98080026D01*
X129600543Y-98068044D01*
X129621613Y-98058079D01*
X129643557Y-98050227D01*
X129666166Y-98044563D01*
X129689221Y-98041144D01*
X129712500Y-98040000D01*
X130187500Y-98040000D01*
X130210779Y-98041144D01*
X130210779Y-98041144D01*
G37*
D13*
G04 #@! TD*
G04 #@! TO.P,R5,1*
G04 #@! TO.N,/PANEL_SENSE*
X129950000Y-98565000D03*
D12*
G04 #@! TO.N,GND*
G04 #@! TO.C,R6*
G36*
X127735779Y-99766144D02*
X127758834Y-99769563D01*
X127781443Y-99775227D01*
X127803387Y-99783079D01*
X127824457Y-99793044D01*
X127844448Y-99805026D01*
X127863168Y-99818910D01*
X127880438Y-99834562D01*
X127896090Y-99851832D01*
X127909974Y-99870552D01*
X127921956Y-99890543D01*
X127931921Y-99911613D01*
X127939773Y-99933557D01*
X127945437Y-99956166D01*
X127948856Y-99979221D01*
X127950000Y-100002500D01*
X127950000Y-100577500D01*
X127948856Y-100600779D01*
X127945437Y-100623834D01*
X127939773Y-100646443D01*
X127931921Y-100668387D01*
X127921956Y-100689457D01*
X127909974Y-100709448D01*
X127896090Y-100728168D01*
X127880438Y-100745438D01*
X127863168Y-100761090D01*
X127844448Y-100774974D01*
X127824457Y-100786956D01*
X127803387Y-100796921D01*
X127781443Y-100804773D01*
X127758834Y-100810437D01*
X127735779Y-100813856D01*
X127712500Y-100815000D01*
X127237500Y-100815000D01*
X127214221Y-100813856D01*
X127191166Y-100810437D01*
X127168557Y-100804773D01*
X127146613Y-100796921D01*
X127125543Y-100786956D01*
X127105552Y-100774974D01*
X127086832Y-100761090D01*
X127069562Y-100745438D01*
X127053910Y-100728168D01*
X127040026Y-100709448D01*
X127028044Y-100689457D01*
X127018079Y-100668387D01*
X127010227Y-100646443D01*
X127004563Y-100623834D01*
X127001144Y-100600779D01*
X127000000Y-100577500D01*
X127000000Y-100002500D01*
X127001144Y-99979221D01*
X127004563Y-99956166D01*
X127010227Y-99933557D01*
X127018079Y-99911613D01*
X127028044Y-99890543D01*
X127040026Y-99870552D01*
X127053910Y-99851832D01*
X127069562Y-99834562D01*
X127086832Y-99818910D01*
X127105552Y-99805026D01*
X127125543Y-99793044D01*
X127146613Y-99783079D01*
X127168557Y-99775227D01*
X127191166Y-99769563D01*
X127214221Y-99766144D01*
X127237500Y-99765000D01*
X127712500Y-99765000D01*
X127735779Y-99766144D01*
X127735779Y-99766144D01*
G37*
D13*
G04 #@! TD*
G04 #@! TO.P,R6,2*
G04 #@! TO.N,GND*
X127475000Y-100290000D03*
D12*
G04 #@! TO.N,/BATT_SENSE*
G04 #@! TO.C,R6*
G36*
X127735779Y-98016144D02*
X127758834Y-98019563D01*
X127781443Y-98025227D01*
X127803387Y-98033079D01*
X127824457Y-98043044D01*
X127844448Y-98055026D01*
X127863168Y-98068910D01*
X127880438Y-98084562D01*
X127896090Y-98101832D01*
X127909974Y-98120552D01*
X127921956Y-98140543D01*
X127931921Y-98161613D01*
X127939773Y-98183557D01*
X127945437Y-98206166D01*
X127948856Y-98229221D01*
X127950000Y-98252500D01*
X127950000Y-98827500D01*
X127948856Y-98850779D01*
X127945437Y-98873834D01*
X127939773Y-98896443D01*
X127931921Y-98918387D01*
X127921956Y-98939457D01*
X127909974Y-98959448D01*
X127896090Y-98978168D01*
X127880438Y-98995438D01*
X127863168Y-99011090D01*
X127844448Y-99024974D01*
X127824457Y-99036956D01*
X127803387Y-99046921D01*
X127781443Y-99054773D01*
X127758834Y-99060437D01*
X127735779Y-99063856D01*
X127712500Y-99065000D01*
X127237500Y-99065000D01*
X127214221Y-99063856D01*
X127191166Y-99060437D01*
X127168557Y-99054773D01*
X127146613Y-99046921D01*
X127125543Y-99036956D01*
X127105552Y-99024974D01*
X127086832Y-99011090D01*
X127069562Y-98995438D01*
X127053910Y-98978168D01*
X127040026Y-98959448D01*
X127028044Y-98939457D01*
X127018079Y-98918387D01*
X127010227Y-98896443D01*
X127004563Y-98873834D01*
X127001144Y-98850779D01*
X127000000Y-98827500D01*
X127000000Y-98252500D01*
X127001144Y-98229221D01*
X127004563Y-98206166D01*
X127010227Y-98183557D01*
X127018079Y-98161613D01*
X127028044Y-98140543D01*
X127040026Y-98120552D01*
X127053910Y-98101832D01*
X127069562Y-98084562D01*
X127086832Y-98068910D01*
X127105552Y-98055026D01*
X127125543Y-98043044D01*
X127146613Y-98033079D01*
X127168557Y-98025227D01*
X127191166Y-98019563D01*
X127214221Y-98016144D01*
X127237500Y-98015000D01*
X127712500Y-98015000D01*
X127735779Y-98016144D01*
X127735779Y-98016144D01*
G37*
D13*
G04 #@! TD*
G04 #@! TO.P,R6,1*
G04 #@! TO.N,/BATT_SENSE*
X127475000Y-98540000D03*
D12*
G04 #@! TO.N,GND*
G04 #@! TO.C,R8*
G36*
X134215779Y-97716144D02*
X134238834Y-97719563D01*
X134261443Y-97725227D01*
X134283387Y-97733079D01*
X134304457Y-97743044D01*
X134324448Y-97755026D01*
X134343168Y-97768910D01*
X134360438Y-97784562D01*
X134376090Y-97801832D01*
X134389974Y-97820552D01*
X134401956Y-97840543D01*
X134411921Y-97861613D01*
X134419773Y-97883557D01*
X134425437Y-97906166D01*
X134428856Y-97929221D01*
X134430000Y-97952500D01*
X134430000Y-98427500D01*
X134428856Y-98450779D01*
X134425437Y-98473834D01*
X134419773Y-98496443D01*
X134411921Y-98518387D01*
X134401956Y-98539457D01*
X134389974Y-98559448D01*
X134376090Y-98578168D01*
X134360438Y-98595438D01*
X134343168Y-98611090D01*
X134324448Y-98624974D01*
X134304457Y-98636956D01*
X134283387Y-98646921D01*
X134261443Y-98654773D01*
X134238834Y-98660437D01*
X134215779Y-98663856D01*
X134192500Y-98665000D01*
X133617500Y-98665000D01*
X133594221Y-98663856D01*
X133571166Y-98660437D01*
X133548557Y-98654773D01*
X133526613Y-98646921D01*
X133505543Y-98636956D01*
X133485552Y-98624974D01*
X133466832Y-98611090D01*
X133449562Y-98595438D01*
X133433910Y-98578168D01*
X133420026Y-98559448D01*
X133408044Y-98539457D01*
X133398079Y-98518387D01*
X133390227Y-98496443D01*
X133384563Y-98473834D01*
X133381144Y-98450779D01*
X133380000Y-98427500D01*
X133380000Y-97952500D01*
X133381144Y-97929221D01*
X133384563Y-97906166D01*
X133390227Y-97883557D01*
X133398079Y-97861613D01*
X133408044Y-97840543D01*
X133420026Y-97820552D01*
X133433910Y-97801832D01*
X133449562Y-97784562D01*
X133466832Y-97768910D01*
X133485552Y-97755026D01*
X133505543Y-97743044D01*
X133526613Y-97733079D01*
X133548557Y-97725227D01*
X133571166Y-97719563D01*
X133594221Y-97716144D01*
X133617500Y-97715000D01*
X134192500Y-97715000D01*
X134215779Y-97716144D01*
X134215779Y-97716144D01*
G37*
D13*
G04 #@! TD*
G04 #@! TO.P,R8,2*
G04 #@! TO.N,GND*
X133905000Y-98190000D03*
D12*
G04 #@! TO.N,Net-(R8-Pad1)*
G04 #@! TO.C,R8*
G36*
X132465779Y-97716144D02*
X132488834Y-97719563D01*
X132511443Y-97725227D01*
X132533387Y-97733079D01*
X132554457Y-97743044D01*
X132574448Y-97755026D01*
X132593168Y-97768910D01*
X132610438Y-97784562D01*
X132626090Y-97801832D01*
X132639974Y-97820552D01*
X132651956Y-97840543D01*
X132661921Y-97861613D01*
X132669773Y-97883557D01*
X132675437Y-97906166D01*
X132678856Y-97929221D01*
X132680000Y-97952500D01*
X132680000Y-98427500D01*
X132678856Y-98450779D01*
X132675437Y-98473834D01*
X132669773Y-98496443D01*
X132661921Y-98518387D01*
X132651956Y-98539457D01*
X132639974Y-98559448D01*
X132626090Y-98578168D01*
X132610438Y-98595438D01*
X132593168Y-98611090D01*
X132574448Y-98624974D01*
X132554457Y-98636956D01*
X132533387Y-98646921D01*
X132511443Y-98654773D01*
X132488834Y-98660437D01*
X132465779Y-98663856D01*
X132442500Y-98665000D01*
X131867500Y-98665000D01*
X131844221Y-98663856D01*
X131821166Y-98660437D01*
X131798557Y-98654773D01*
X131776613Y-98646921D01*
X131755543Y-98636956D01*
X131735552Y-98624974D01*
X131716832Y-98611090D01*
X131699562Y-98595438D01*
X131683910Y-98578168D01*
X131670026Y-98559448D01*
X131658044Y-98539457D01*
X131648079Y-98518387D01*
X131640227Y-98496443D01*
X131634563Y-98473834D01*
X131631144Y-98450779D01*
X131630000Y-98427500D01*
X131630000Y-97952500D01*
X131631144Y-97929221D01*
X131634563Y-97906166D01*
X131640227Y-97883557D01*
X131648079Y-97861613D01*
X131658044Y-97840543D01*
X131670026Y-97820552D01*
X131683910Y-97801832D01*
X131699562Y-97784562D01*
X131716832Y-97768910D01*
X131735552Y-97755026D01*
X131755543Y-97743044D01*
X131776613Y-97733079D01*
X131798557Y-97725227D01*
X131821166Y-97719563D01*
X131844221Y-97716144D01*
X131867500Y-97715000D01*
X132442500Y-97715000D01*
X132465779Y-97716144D01*
X132465779Y-97716144D01*
G37*
D13*
G04 #@! TD*
G04 #@! TO.P,R8,1*
G04 #@! TO.N,Net-(R8-Pad1)*
X132155000Y-98190000D03*
D12*
G04 #@! TO.N,/LED_1*
G04 #@! TO.C,R9*
G36*
X116815779Y-75216144D02*
X116838834Y-75219563D01*
X116861443Y-75225227D01*
X116883387Y-75233079D01*
X116904457Y-75243044D01*
X116924448Y-75255026D01*
X116943168Y-75268910D01*
X116960438Y-75284562D01*
X116976090Y-75301832D01*
X116989974Y-75320552D01*
X117001956Y-75340543D01*
X117011921Y-75361613D01*
X117019773Y-75383557D01*
X117025437Y-75406166D01*
X117028856Y-75429221D01*
X117030000Y-75452500D01*
X117030000Y-75927500D01*
X117028856Y-75950779D01*
X117025437Y-75973834D01*
X117019773Y-75996443D01*
X117011921Y-76018387D01*
X117001956Y-76039457D01*
X116989974Y-76059448D01*
X116976090Y-76078168D01*
X116960438Y-76095438D01*
X116943168Y-76111090D01*
X116924448Y-76124974D01*
X116904457Y-76136956D01*
X116883387Y-76146921D01*
X116861443Y-76154773D01*
X116838834Y-76160437D01*
X116815779Y-76163856D01*
X116792500Y-76165000D01*
X116217500Y-76165000D01*
X116194221Y-76163856D01*
X116171166Y-76160437D01*
X116148557Y-76154773D01*
X116126613Y-76146921D01*
X116105543Y-76136956D01*
X116085552Y-76124974D01*
X116066832Y-76111090D01*
X116049562Y-76095438D01*
X116033910Y-76078168D01*
X116020026Y-76059448D01*
X116008044Y-76039457D01*
X115998079Y-76018387D01*
X115990227Y-75996443D01*
X115984563Y-75973834D01*
X115981144Y-75950779D01*
X115980000Y-75927500D01*
X115980000Y-75452500D01*
X115981144Y-75429221D01*
X115984563Y-75406166D01*
X115990227Y-75383557D01*
X115998079Y-75361613D01*
X116008044Y-75340543D01*
X116020026Y-75320552D01*
X116033910Y-75301832D01*
X116049562Y-75284562D01*
X116066832Y-75268910D01*
X116085552Y-75255026D01*
X116105543Y-75243044D01*
X116126613Y-75233079D01*
X116148557Y-75225227D01*
X116171166Y-75219563D01*
X116194221Y-75216144D01*
X116217500Y-75215000D01*
X116792500Y-75215000D01*
X116815779Y-75216144D01*
X116815779Y-75216144D01*
G37*
D13*
G04 #@! TD*
G04 #@! TO.P,R9,1*
G04 #@! TO.N,/LED_1*
X116505000Y-75690000D03*
D12*
G04 #@! TO.N,Net-(R9-Pad2)*
G04 #@! TO.C,R9*
G36*
X115065779Y-75216144D02*
X115088834Y-75219563D01*
X115111443Y-75225227D01*
X115133387Y-75233079D01*
X115154457Y-75243044D01*
X115174448Y-75255026D01*
X115193168Y-75268910D01*
X115210438Y-75284562D01*
X115226090Y-75301832D01*
X115239974Y-75320552D01*
X115251956Y-75340543D01*
X115261921Y-75361613D01*
X115269773Y-75383557D01*
X115275437Y-75406166D01*
X115278856Y-75429221D01*
X115280000Y-75452500D01*
X115280000Y-75927500D01*
X115278856Y-75950779D01*
X115275437Y-75973834D01*
X115269773Y-75996443D01*
X115261921Y-76018387D01*
X115251956Y-76039457D01*
X115239974Y-76059448D01*
X115226090Y-76078168D01*
X115210438Y-76095438D01*
X115193168Y-76111090D01*
X115174448Y-76124974D01*
X115154457Y-76136956D01*
X115133387Y-76146921D01*
X115111443Y-76154773D01*
X115088834Y-76160437D01*
X115065779Y-76163856D01*
X115042500Y-76165000D01*
X114467500Y-76165000D01*
X114444221Y-76163856D01*
X114421166Y-76160437D01*
X114398557Y-76154773D01*
X114376613Y-76146921D01*
X114355543Y-76136956D01*
X114335552Y-76124974D01*
X114316832Y-76111090D01*
X114299562Y-76095438D01*
X114283910Y-76078168D01*
X114270026Y-76059448D01*
X114258044Y-76039457D01*
X114248079Y-76018387D01*
X114240227Y-75996443D01*
X114234563Y-75973834D01*
X114231144Y-75950779D01*
X114230000Y-75927500D01*
X114230000Y-75452500D01*
X114231144Y-75429221D01*
X114234563Y-75406166D01*
X114240227Y-75383557D01*
X114248079Y-75361613D01*
X114258044Y-75340543D01*
X114270026Y-75320552D01*
X114283910Y-75301832D01*
X114299562Y-75284562D01*
X114316832Y-75268910D01*
X114335552Y-75255026D01*
X114355543Y-75243044D01*
X114376613Y-75233079D01*
X114398557Y-75225227D01*
X114421166Y-75219563D01*
X114444221Y-75216144D01*
X114467500Y-75215000D01*
X115042500Y-75215000D01*
X115065779Y-75216144D01*
X115065779Y-75216144D01*
G37*
D13*
G04 #@! TD*
G04 #@! TO.P,R9,2*
G04 #@! TO.N,Net-(R9-Pad2)*
X114755000Y-75690000D03*
D12*
G04 #@! TO.N,Net-(R11-Pad2)*
G04 #@! TO.C,R11*
G36*
X157065779Y-75216144D02*
X157088834Y-75219563D01*
X157111443Y-75225227D01*
X157133387Y-75233079D01*
X157154457Y-75243044D01*
X157174448Y-75255026D01*
X157193168Y-75268910D01*
X157210438Y-75284562D01*
X157226090Y-75301832D01*
X157239974Y-75320552D01*
X157251956Y-75340543D01*
X157261921Y-75361613D01*
X157269773Y-75383557D01*
X157275437Y-75406166D01*
X157278856Y-75429221D01*
X157280000Y-75452500D01*
X157280000Y-75927500D01*
X157278856Y-75950779D01*
X157275437Y-75973834D01*
X157269773Y-75996443D01*
X157261921Y-76018387D01*
X157251956Y-76039457D01*
X157239974Y-76059448D01*
X157226090Y-76078168D01*
X157210438Y-76095438D01*
X157193168Y-76111090D01*
X157174448Y-76124974D01*
X157154457Y-76136956D01*
X157133387Y-76146921D01*
X157111443Y-76154773D01*
X157088834Y-76160437D01*
X157065779Y-76163856D01*
X157042500Y-76165000D01*
X156467500Y-76165000D01*
X156444221Y-76163856D01*
X156421166Y-76160437D01*
X156398557Y-76154773D01*
X156376613Y-76146921D01*
X156355543Y-76136956D01*
X156335552Y-76124974D01*
X156316832Y-76111090D01*
X156299562Y-76095438D01*
X156283910Y-76078168D01*
X156270026Y-76059448D01*
X156258044Y-76039457D01*
X156248079Y-76018387D01*
X156240227Y-75996443D01*
X156234563Y-75973834D01*
X156231144Y-75950779D01*
X156230000Y-75927500D01*
X156230000Y-75452500D01*
X156231144Y-75429221D01*
X156234563Y-75406166D01*
X156240227Y-75383557D01*
X156248079Y-75361613D01*
X156258044Y-75340543D01*
X156270026Y-75320552D01*
X156283910Y-75301832D01*
X156299562Y-75284562D01*
X156316832Y-75268910D01*
X156335552Y-75255026D01*
X156355543Y-75243044D01*
X156376613Y-75233079D01*
X156398557Y-75225227D01*
X156421166Y-75219563D01*
X156444221Y-75216144D01*
X156467500Y-75215000D01*
X157042500Y-75215000D01*
X157065779Y-75216144D01*
X157065779Y-75216144D01*
G37*
D13*
G04 #@! TD*
G04 #@! TO.P,R11,2*
G04 #@! TO.N,Net-(R11-Pad2)*
X156755000Y-75690000D03*
D12*
G04 #@! TO.N,/LED_2*
G04 #@! TO.C,R11*
G36*
X158815779Y-75216144D02*
X158838834Y-75219563D01*
X158861443Y-75225227D01*
X158883387Y-75233079D01*
X158904457Y-75243044D01*
X158924448Y-75255026D01*
X158943168Y-75268910D01*
X158960438Y-75284562D01*
X158976090Y-75301832D01*
X158989974Y-75320552D01*
X159001956Y-75340543D01*
X159011921Y-75361613D01*
X159019773Y-75383557D01*
X159025437Y-75406166D01*
X159028856Y-75429221D01*
X159030000Y-75452500D01*
X159030000Y-75927500D01*
X159028856Y-75950779D01*
X159025437Y-75973834D01*
X159019773Y-75996443D01*
X159011921Y-76018387D01*
X159001956Y-76039457D01*
X158989974Y-76059448D01*
X158976090Y-76078168D01*
X158960438Y-76095438D01*
X158943168Y-76111090D01*
X158924448Y-76124974D01*
X158904457Y-76136956D01*
X158883387Y-76146921D01*
X158861443Y-76154773D01*
X158838834Y-76160437D01*
X158815779Y-76163856D01*
X158792500Y-76165000D01*
X158217500Y-76165000D01*
X158194221Y-76163856D01*
X158171166Y-76160437D01*
X158148557Y-76154773D01*
X158126613Y-76146921D01*
X158105543Y-76136956D01*
X158085552Y-76124974D01*
X158066832Y-76111090D01*
X158049562Y-76095438D01*
X158033910Y-76078168D01*
X158020026Y-76059448D01*
X158008044Y-76039457D01*
X157998079Y-76018387D01*
X157990227Y-75996443D01*
X157984563Y-75973834D01*
X157981144Y-75950779D01*
X157980000Y-75927500D01*
X157980000Y-75452500D01*
X157981144Y-75429221D01*
X157984563Y-75406166D01*
X157990227Y-75383557D01*
X157998079Y-75361613D01*
X158008044Y-75340543D01*
X158020026Y-75320552D01*
X158033910Y-75301832D01*
X158049562Y-75284562D01*
X158066832Y-75268910D01*
X158085552Y-75255026D01*
X158105543Y-75243044D01*
X158126613Y-75233079D01*
X158148557Y-75225227D01*
X158171166Y-75219563D01*
X158194221Y-75216144D01*
X158217500Y-75215000D01*
X158792500Y-75215000D01*
X158815779Y-75216144D01*
X158815779Y-75216144D01*
G37*
D13*
G04 #@! TD*
G04 #@! TO.P,R11,1*
G04 #@! TO.N,/LED_2*
X158505000Y-75690000D03*
D16*
G04 #@! TO.P,D1,1*
G04 #@! TO.N,/REG_IN*
X127895000Y-80800000D03*
G04 #@! TO.P,D1,2*
G04 #@! TO.N,Net-(C2-Pad1)*
X127895000Y-82700000D03*
G04 #@! TO.P,D1,3*
G04 #@! TO.N,/BATT*
X125895000Y-81750000D03*
G04 #@! TD*
D17*
G04 #@! TO.P,H2,1*
G04 #@! TO.N,GND*
X120230000Y-63290000D03*
G04 #@! TD*
D20*
G04 #@! TO.P,TP1,1*
G04 #@! TO.N,/V_GATE*
X119130000Y-69690000D03*
G04 #@! TD*
G04 #@! TO.P,TP2,1*
G04 #@! TO.N,pump1*
X154130000Y-69690000D03*
G04 #@! TD*
G04 #@! TO.P,TP3,1*
G04 #@! TO.N,pump2*
X158130000Y-69690000D03*
G04 #@! TD*
G04 #@! TO.P,TP4,1*
G04 #@! TO.N,/BATT_SENSE*
X115130000Y-69690000D03*
G04 #@! TD*
G04 #@! TO.P,TP5,1*
G04 #@! TO.N,/PWM*
X162130000Y-69690000D03*
G04 #@! TD*
D21*
G04 #@! TO.N,GND*
X146350000Y-86615000D03*
X141650000Y-101440000D03*
X132500000Y-84940000D03*
X141955000Y-82440000D03*
X130030000Y-78890000D03*
X134930000Y-96290000D03*
X138030000Y-96290000D03*
X130230000Y-102290000D03*
X130230001Y-105490000D03*
X124030000Y-87740000D03*
X136580000Y-109190000D03*
X123630000Y-100140000D03*
X149230000Y-100140000D03*
X111630000Y-81990000D03*
X163130000Y-80240000D03*
G04 #@! TO.N,+3V3*
X135850016Y-101749998D03*
X137910367Y-101725000D03*
X136690000Y-106630000D03*
X136690000Y-94470000D03*
G04 #@! TO.N,SWCLK*
X140530000Y-98540000D03*
G04 #@! TO.N,SWDI0*
X143030000Y-100190000D03*
G04 #@! TO.N,NRST*
X132370001Y-101150010D03*
G04 #@! TO.N,UART_TX*
X131710000Y-105430000D03*
G04 #@! TO.N,/PANEL_SENSE*
X131162340Y-100247660D03*
G04 #@! TO.N,/BATT_SENSE*
X131650000Y-103430000D03*
G04 #@! TO.N,/PWM*
X152130000Y-84190000D03*
G04 #@! TO.N,/LED_1*
X116580000Y-77740000D03*
G04 #@! TO.N,/LED_2*
X158480000Y-77940000D03*
G04 #@! TO.N,/BATT*
X137560000Y-80000000D03*
X140905000Y-79590002D03*
G04 #@! TO.N,pump1*
X137320002Y-82020000D03*
X133700000Y-81865000D03*
X141287935Y-92596144D03*
G04 #@! TO.N,pump2*
X132800000Y-83090000D03*
X136520000Y-83170000D03*
X139115307Y-93321154D03*
G04 #@! TO.N,/V_GATE*
X133360000Y-92160000D03*
G04 #@! TO.N,Net-(R8-Pad1)*
X132330000Y-96390000D03*
G04 #@! TO.N,Net-(R9-Pad2)*
X114730000Y-77790000D03*
G04 #@! TO.N,Net-(R11-Pad2)*
X156680000Y-77940000D03*
G04 #@! TO.N,/REG_IN*
X127950000Y-79190000D03*
G04 #@! TD*
D22*
G04 #@! TO.N,GND*
X137760000Y-103540000D02*
X137760000Y-105290000D01*
X135925000Y-98190000D02*
X135925000Y-100190000D01*
X136824990Y-100589990D02*
X136824990Y-102504990D01*
X136425000Y-100190000D02*
X136824990Y-100589990D01*
X136824990Y-102504990D02*
X137820000Y-103500000D01*
X133905000Y-98190000D02*
X135925000Y-98190000D01*
X131790000Y-88250000D02*
X130470000Y-88250000D01*
X132500000Y-87540000D02*
X131790000Y-88250000D01*
X130470000Y-88250000D02*
X129670000Y-88250000D01*
X132500000Y-84940000D02*
X132500000Y-87540000D01*
X129950000Y-100315000D02*
X129950000Y-102010000D01*
X129950000Y-102010000D02*
X130230000Y-102290000D01*
G04 #@! TO.N,+3V3*
X137700000Y-98240000D02*
X137700000Y-100240000D01*
X136020014Y-101580000D02*
X135850016Y-101749998D01*
X137675000Y-101489633D02*
X137910367Y-101725000D01*
X137675000Y-100190000D02*
X137675000Y-101489633D01*
X135945000Y-101844982D02*
X135850016Y-101749998D01*
X135945000Y-103500000D02*
X135945000Y-101844982D01*
X135945000Y-103500000D02*
X135945000Y-105250000D01*
X136690000Y-105995000D02*
X135945000Y-105250000D01*
X136690000Y-106630000D02*
X136690000Y-105995000D01*
X139155000Y-98190000D02*
X140773590Y-96571410D01*
X140773590Y-96571410D02*
X140773590Y-94470000D01*
X140773590Y-94470000D02*
X140373591Y-94070001D01*
X140373591Y-94070001D02*
X137089999Y-94070001D01*
X137675000Y-98190000D02*
X139155000Y-98190000D01*
X137089999Y-94070001D02*
X136690000Y-94470000D01*
X143350000Y-94470000D02*
X137255685Y-94470000D01*
X137255685Y-94470000D02*
X136690000Y-94470000D01*
X155005000Y-82815000D02*
X143350000Y-94470000D01*
X160080000Y-82815000D02*
X155005000Y-82815000D01*
G04 #@! TO.N,SWCLK*
X154059247Y-84760753D02*
X140530000Y-98290000D01*
X140530000Y-98290000D02*
X140530000Y-98540000D01*
X158447319Y-84760753D02*
X154059247Y-84760753D01*
G04 #@! TO.N,SWDI0*
X143429999Y-99790001D02*
X143030000Y-100190000D01*
X143429999Y-96890001D02*
X143429999Y-99790001D01*
X151667741Y-88652259D02*
X143429999Y-96890001D01*
X155181958Y-88652259D02*
X151667741Y-88652259D01*
G04 #@! TO.N,NRST*
X132845001Y-101610001D02*
X132375000Y-101140000D01*
X136830000Y-107790000D02*
X134950000Y-107790000D01*
X153549278Y-90598012D02*
X150746988Y-90598012D01*
X134950000Y-107790000D02*
X132845001Y-105685001D01*
X150746988Y-90598012D02*
X144380000Y-96965000D01*
X132845001Y-105685001D02*
X132845001Y-101610001D01*
X144380000Y-96965000D02*
X144380000Y-100240000D01*
X144380000Y-100240000D02*
X136830000Y-107790000D01*
G04 #@! TO.N,UART_TX*
X151916597Y-92543764D02*
X150526236Y-92543764D01*
X137279989Y-108240011D02*
X134500011Y-108240011D01*
X150526236Y-92543764D02*
X145230000Y-97840000D01*
X134500011Y-108240011D02*
X132099999Y-105839999D01*
X145230000Y-97840000D02*
X145230000Y-100290000D01*
X132099999Y-105839999D02*
X131700000Y-105440000D01*
X145230000Y-100290000D02*
X137279989Y-108240011D01*
G04 #@! TO.N,/PANEL_SENSE*
X129950000Y-96565000D02*
X129950000Y-98565000D01*
X131000000Y-99615001D02*
X131399999Y-100015000D01*
X129950000Y-98565000D02*
X131000000Y-99615001D01*
G04 #@! TO.N,/BATT_SENSE*
X127475000Y-96540000D02*
X127475000Y-98540000D01*
X128700000Y-99765000D02*
X127974072Y-99039072D01*
X127974072Y-99039072D02*
X127475000Y-98540000D01*
X131650010Y-103440000D02*
X129325000Y-103440000D01*
X129325000Y-103440000D02*
X128700000Y-102815000D01*
X128700000Y-102815000D02*
X128700000Y-99765000D01*
X115629999Y-70189999D02*
X115130000Y-69690000D01*
X118380000Y-72940000D02*
X115629999Y-70189999D01*
X118380000Y-87445000D02*
X118380000Y-72940000D01*
X127475000Y-96540000D02*
X118380000Y-87445000D01*
G04 #@! TO.N,/PWM*
X160480000Y-71340000D02*
X162130000Y-69690000D01*
X157530000Y-71340000D02*
X160480000Y-71340000D01*
X152130000Y-76740000D02*
X157530000Y-71340000D01*
X152130000Y-84190000D02*
X152130000Y-76740000D01*
G04 #@! TO.N,/LED_1*
X116505000Y-77665000D02*
X116580000Y-77740000D01*
X116505000Y-75690000D02*
X116505000Y-77665000D01*
G04 #@! TO.N,/LED_2*
X158505000Y-77915000D02*
X158480000Y-77940000D01*
X158505000Y-75690000D02*
X158505000Y-77915000D01*
G04 #@! TO.N,/BATT*
X140339315Y-79590002D02*
X140905000Y-79590002D01*
X137969998Y-79590002D02*
X140339315Y-79590002D01*
X137560000Y-80000000D02*
X137969998Y-79590002D01*
X134490000Y-77500000D02*
X134490000Y-77452500D01*
X133943004Y-93660000D02*
X134490000Y-93113004D01*
X127475000Y-94790000D02*
X128600000Y-93665000D01*
X134490000Y-93113004D02*
X134490000Y-77500000D01*
X128600000Y-93665000D02*
X129675000Y-93665000D01*
X129680000Y-93660000D02*
X133943004Y-93660000D01*
X129675000Y-93665000D02*
X129680000Y-93660000D01*
X133230000Y-73290000D02*
X130230000Y-73290000D01*
X134100000Y-77490000D02*
X134100000Y-76240000D01*
X134130000Y-76210000D02*
X134130000Y-74190000D01*
X134100000Y-76240000D02*
X134130000Y-76210000D01*
X134130000Y-74190000D02*
X133230000Y-73290000D01*
X125895000Y-77625000D02*
X130230000Y-73290000D01*
X125895000Y-81750000D02*
X125895000Y-77625000D01*
G04 #@! TO.N,Net-(C2-Pad1)*
X127930000Y-82690000D02*
X127930000Y-84640000D01*
X129555000Y-82725000D02*
X127930000Y-82725000D01*
G04 #@! TO.N,pump1*
X132810000Y-80975000D02*
X130345000Y-80975000D01*
X130345000Y-80975000D02*
X129545000Y-80975000D01*
X133700000Y-81865000D02*
X132810000Y-80975000D01*
X140887936Y-92196145D02*
X141287935Y-92596144D01*
X137320002Y-82020000D02*
X137320002Y-88628211D01*
X137320002Y-88628211D02*
X140887936Y-92196145D01*
X154130000Y-72640000D02*
X154130000Y-69690000D01*
X137320002Y-82020000D02*
X139800000Y-82020000D01*
X139800000Y-82020000D02*
X140630000Y-81190000D01*
X145580000Y-81190000D02*
X154130000Y-72640000D01*
X140630000Y-81190000D02*
X145580000Y-81190000D01*
G04 #@! TO.N,pump2*
X136520000Y-83170000D02*
X136520000Y-90725847D01*
X138715308Y-92921155D02*
X139115307Y-93321154D01*
X136520000Y-90725847D02*
X138715308Y-92921155D01*
X130345000Y-84725000D02*
X129545000Y-84725000D01*
X131165000Y-84725000D02*
X130345000Y-84725000D01*
X132800000Y-83090000D02*
X131165000Y-84725000D01*
X151130000Y-76690000D02*
X158130000Y-69690000D01*
X151130000Y-85190000D02*
X151130000Y-76690000D01*
X142998846Y-93321154D02*
X151130000Y-85190000D01*
X139115307Y-93321154D02*
X142998846Y-93321154D01*
G04 #@! TO.N,Net-(C4-Pad1)*
X128670000Y-85600000D02*
X129545000Y-86475000D01*
X125895000Y-85600000D02*
X128670000Y-85600000D01*
G04 #@! TO.N,/V_GATE*
X127930000Y-88290000D02*
X127930000Y-86615000D01*
X132794315Y-92160000D02*
X133360000Y-92160000D01*
X131255000Y-92160000D02*
X132794315Y-92160000D01*
X127920000Y-88825000D02*
X131255000Y-92160000D01*
X127920000Y-88250000D02*
X127920000Y-88825000D01*
X119130000Y-80270002D02*
X119130000Y-70397106D01*
X119130000Y-70397106D02*
X119130000Y-69690000D01*
X125409998Y-86550000D02*
X119130000Y-80270002D01*
X127895000Y-86550000D02*
X125409998Y-86550000D01*
G04 #@! TO.N,/SOLAR*
X134105000Y-94815000D02*
X135575013Y-93344987D01*
X135575013Y-93344987D02*
X135575013Y-79002487D01*
X137030000Y-77547500D02*
X137030000Y-77500000D01*
X129950000Y-94815000D02*
X134105000Y-94815000D01*
X135575013Y-79002487D02*
X137030000Y-77547500D01*
X141380000Y-73270000D02*
X143130000Y-73270000D01*
X137550000Y-73270000D02*
X141380000Y-73270000D01*
X136640000Y-74180000D02*
X137550000Y-73270000D01*
X136640000Y-77490000D02*
X136640000Y-74180000D01*
G04 #@! TO.N,Net-(R8-Pad1)*
X132330000Y-98015000D02*
X132155000Y-98190000D01*
X132330000Y-96390000D02*
X132330000Y-98015000D01*
G04 #@! TO.N,Net-(R9-Pad2)*
X114730000Y-75715000D02*
X114755000Y-75690000D01*
X114730000Y-77790000D02*
X114730000Y-75715000D01*
G04 #@! TO.N,Net-(R11-Pad2)*
X156680000Y-75765000D02*
X156755000Y-75690000D01*
X156680000Y-77940000D02*
X156680000Y-75765000D01*
G04 #@! TO.N,/REG_IN*
X127895000Y-79245000D02*
X127950000Y-79190000D01*
X127895000Y-80800000D02*
X127895000Y-79245000D01*
G04 #@! TD*
D23*
G04 #@! TO.N,/SOLAR*
G36*
X144503000Y-74663000D02*
X137630000Y-74663000D01*
X137581399Y-74672667D01*
X137540197Y-74700197D01*
X137512667Y-74741399D01*
X137503000Y-74790000D01*
X137503000Y-77463000D01*
X135857000Y-77463000D01*
X135857000Y-71917000D01*
X144503000Y-71917000D01*
X144503000Y-74663000D01*
X144503000Y-74663000D01*
G37*
X144503000Y-74663000D02*
X137630000Y-74663000D01*
X137581399Y-74672667D01*
X137540197Y-74700197D01*
X137512667Y-74741399D01*
X137503000Y-74790000D01*
X137503000Y-77463000D01*
X135857000Y-77463000D01*
X135857000Y-71917000D01*
X144503000Y-71917000D01*
X144503000Y-74663000D01*
G04 #@! TO.N,/BATT*
G36*
X134903000Y-77463000D02*
X133257000Y-77463000D01*
X133257000Y-74890000D01*
X133247333Y-74841399D01*
X133219803Y-74800197D01*
X133178601Y-74772667D01*
X133130000Y-74763000D01*
X128857000Y-74763000D01*
X128857000Y-71917000D01*
X134903000Y-71917000D01*
X134903000Y-77463000D01*
X134903000Y-77463000D01*
G37*
X134903000Y-77463000D02*
X133257000Y-77463000D01*
X133257000Y-74890000D01*
X133247333Y-74841399D01*
X133219803Y-74800197D01*
X133178601Y-74772667D01*
X133130000Y-74763000D01*
X128857000Y-74763000D01*
X128857000Y-71917000D01*
X134903000Y-71917000D01*
X134903000Y-77463000D01*
G04 #@! TO.N,GND*
G36*
X151544356Y-58376239D02*
X153008795Y-58603916D01*
X154438453Y-58978249D01*
X155823575Y-59495094D01*
X157154320Y-60150319D01*
X158420813Y-60939805D01*
X159613151Y-61859446D01*
X160721541Y-62905273D01*
X161725882Y-64060659D01*
X162609979Y-65304872D01*
X163369698Y-66627772D01*
X164000777Y-68019019D01*
X164498944Y-69468194D01*
X164859962Y-70964852D01*
X165079633Y-72498571D01*
X165153606Y-74055256D01*
X164965914Y-77257331D01*
X164333686Y-80517588D01*
X163148123Y-83915823D01*
X161295496Y-87527557D01*
X159692195Y-89873080D01*
X157210570Y-93054770D01*
X150502874Y-100872730D01*
X142963308Y-108888893D01*
X139440825Y-112323803D01*
X136784607Y-114676746D01*
X133816806Y-112349938D01*
X130113821Y-108911754D01*
X126287911Y-104967845D01*
X126182422Y-104850750D01*
X127610000Y-104850750D01*
X127610000Y-105216309D01*
X127706673Y-105449698D01*
X127885301Y-105628327D01*
X128118690Y-105725000D01*
X128434250Y-105725000D01*
X128593000Y-105566250D01*
X128593000Y-104692000D01*
X128847000Y-104692000D01*
X128847000Y-105566250D01*
X129005750Y-105725000D01*
X129321310Y-105725000D01*
X129554699Y-105628327D01*
X129733327Y-105449698D01*
X129830000Y-105216309D01*
X129830000Y-104850750D01*
X129671250Y-104692000D01*
X128847000Y-104692000D01*
X128593000Y-104692000D01*
X127768750Y-104692000D01*
X127610000Y-104850750D01*
X126182422Y-104850750D01*
X122535748Y-100802890D01*
X122347581Y-100575750D01*
X126365000Y-100575750D01*
X126365000Y-100941309D01*
X126461673Y-101174698D01*
X126640301Y-101353327D01*
X126873690Y-101450000D01*
X127189250Y-101450000D01*
X127348000Y-101291250D01*
X127348000Y-100417000D01*
X126523750Y-100417000D01*
X126365000Y-100575750D01*
X122347581Y-100575750D01*
X115997722Y-92910720D01*
X112026931Y-87486808D01*
X111054528Y-85792740D01*
X110274788Y-84097685D01*
X109670042Y-82409396D01*
X109222620Y-80740370D01*
X108702833Y-77399469D01*
X108620750Y-75452500D01*
X113582560Y-75452500D01*
X113582560Y-75927500D01*
X113649922Y-76266152D01*
X113841753Y-76553247D01*
X113970001Y-76638939D01*
X113970000Y-77086289D01*
X113852569Y-77203720D01*
X113695000Y-77584126D01*
X113695000Y-77995874D01*
X113852569Y-78376280D01*
X114143720Y-78667431D01*
X114524126Y-78825000D01*
X114935874Y-78825000D01*
X115316280Y-78667431D01*
X115607431Y-78376280D01*
X115665355Y-78236438D01*
X115702569Y-78326280D01*
X115993720Y-78617431D01*
X116374126Y-78775000D01*
X116785874Y-78775000D01*
X117166280Y-78617431D01*
X117457431Y-78326280D01*
X117615000Y-77945874D01*
X117615000Y-77534126D01*
X117457431Y-77153720D01*
X117265000Y-76961289D01*
X117265000Y-76655644D01*
X117418247Y-76553247D01*
X117610078Y-76266152D01*
X117620001Y-76216267D01*
X117620000Y-87370153D01*
X117605112Y-87445000D01*
X117620000Y-87519847D01*
X117620000Y-87519851D01*
X117664096Y-87741536D01*
X117832071Y-87992929D01*
X117895530Y-88035331D01*
X126352560Y-96492363D01*
X126352560Y-96827500D01*
X126419922Y-97166152D01*
X126611753Y-97453247D01*
X126715000Y-97522235D01*
X126715001Y-97557765D01*
X126611753Y-97626753D01*
X126419922Y-97913848D01*
X126352560Y-98252500D01*
X126352560Y-98827500D01*
X126419922Y-99166152D01*
X126532435Y-99334540D01*
X126461673Y-99405302D01*
X126365000Y-99638691D01*
X126365000Y-100004250D01*
X126523750Y-100163000D01*
X127348000Y-100163000D01*
X127348000Y-100143000D01*
X127602000Y-100143000D01*
X127602000Y-100163000D01*
X127622000Y-100163000D01*
X127622000Y-100417000D01*
X127602000Y-100417000D01*
X127602000Y-101291250D01*
X127760750Y-101450000D01*
X127940000Y-101450000D01*
X127940000Y-101846129D01*
X127856753Y-101901753D01*
X127664922Y-102188848D01*
X127597560Y-102527500D01*
X127597560Y-103102500D01*
X127664922Y-103441152D01*
X127777435Y-103609540D01*
X127706673Y-103680302D01*
X127610000Y-103913691D01*
X127610000Y-104279250D01*
X127768750Y-104438000D01*
X128593000Y-104438000D01*
X128593000Y-104418000D01*
X128847000Y-104418000D01*
X128847000Y-104438000D01*
X129671250Y-104438000D01*
X129830000Y-104279250D01*
X129830000Y-104200000D01*
X130956289Y-104200000D01*
X131063720Y-104307431D01*
X131389628Y-104442426D01*
X131123720Y-104552569D01*
X130832569Y-104843720D01*
X130675000Y-105224126D01*
X130675000Y-105635874D01*
X130832569Y-106016280D01*
X131123720Y-106307431D01*
X131504126Y-106465000D01*
X131650199Y-106465000D01*
X133909682Y-108724484D01*
X133952082Y-108787940D01*
X134203474Y-108955915D01*
X134425159Y-109000011D01*
X134425163Y-109000011D01*
X134500011Y-109014899D01*
X134574859Y-109000011D01*
X137205142Y-109000011D01*
X137279989Y-109014899D01*
X137354836Y-109000011D01*
X137354841Y-109000011D01*
X137576526Y-108955915D01*
X137827918Y-108787940D01*
X137870320Y-108724481D01*
X145714476Y-100880327D01*
X145777929Y-100837929D01*
X145820327Y-100774476D01*
X145820329Y-100774474D01*
X145923308Y-100620354D01*
X145945904Y-100586537D01*
X145990000Y-100364852D01*
X145990000Y-100364848D01*
X146004888Y-100290001D01*
X145990000Y-100215154D01*
X145990000Y-98154801D01*
X150719577Y-93425225D01*
X150845972Y-93614389D01*
X151337179Y-93942603D01*
X151770341Y-94028764D01*
X152062853Y-94028764D01*
X152496015Y-93942603D01*
X152987222Y-93614389D01*
X153315436Y-93123182D01*
X153430689Y-92543764D01*
X153336404Y-92069761D01*
X153403022Y-92083012D01*
X153695534Y-92083012D01*
X154128696Y-91996851D01*
X154619903Y-91668637D01*
X154948117Y-91177430D01*
X155063370Y-90598012D01*
X154969085Y-90124008D01*
X155035702Y-90137259D01*
X155328214Y-90137259D01*
X155761376Y-90051098D01*
X156252583Y-89722884D01*
X156580797Y-89231677D01*
X156696050Y-88652259D01*
X156597270Y-88155657D01*
X156721550Y-88188595D01*
X157295806Y-88111402D01*
X157689469Y-87906463D01*
X157744302Y-87652373D01*
X156830293Y-86885428D01*
X156817437Y-86900749D01*
X156622862Y-86737480D01*
X156635717Y-86722160D01*
X155721708Y-85955214D01*
X155481000Y-86053337D01*
X155347533Y-86476606D01*
X155371231Y-87055543D01*
X155432566Y-87188016D01*
X155328214Y-87167259D01*
X155035702Y-87167259D01*
X154602540Y-87253420D01*
X154111333Y-87581634D01*
X153903780Y-87892259D01*
X152002543Y-87892259D01*
X154374049Y-85520753D01*
X155936744Y-85520753D01*
X155884976Y-85760639D01*
X156798985Y-86527584D01*
X156811841Y-86512263D01*
X157006416Y-86675532D01*
X156993561Y-86690852D01*
X157907570Y-87457798D01*
X158148278Y-87359675D01*
X158281745Y-86936406D01*
X158258047Y-86357469D01*
X158196713Y-86224996D01*
X158301063Y-86245753D01*
X158593575Y-86245753D01*
X159026737Y-86159592D01*
X159517944Y-85831378D01*
X159846158Y-85340171D01*
X159961411Y-84760753D01*
X159928701Y-84596308D01*
X159990079Y-84629981D01*
X160241196Y-84657483D01*
X160483722Y-84586793D01*
X160680736Y-84428674D01*
X161773475Y-83126399D01*
X161894981Y-82904921D01*
X161922483Y-82653804D01*
X161851793Y-82411278D01*
X161693674Y-82214264D01*
X160391399Y-81121525D01*
X160169921Y-81000019D01*
X159918804Y-80972517D01*
X159676278Y-81043207D01*
X159479264Y-81201326D01*
X158762946Y-82055000D01*
X155079846Y-82055000D01*
X155004999Y-82040112D01*
X154930152Y-82055000D01*
X154930148Y-82055000D01*
X154708463Y-82099096D01*
X154457071Y-82267071D01*
X154414671Y-82330527D01*
X153046692Y-83698506D01*
X153007431Y-83603720D01*
X152890000Y-83486289D01*
X152890000Y-77054801D01*
X154492301Y-75452500D01*
X155582560Y-75452500D01*
X155582560Y-75927500D01*
X155649922Y-76266152D01*
X155841753Y-76553247D01*
X155920001Y-76605530D01*
X155920000Y-77236289D01*
X155802569Y-77353720D01*
X155645000Y-77734126D01*
X155645000Y-78145874D01*
X155802569Y-78526280D01*
X156093720Y-78817431D01*
X156474126Y-78975000D01*
X156885874Y-78975000D01*
X157266280Y-78817431D01*
X157557431Y-78526280D01*
X157580000Y-78471794D01*
X157602569Y-78526280D01*
X157893720Y-78817431D01*
X158274126Y-78975000D01*
X158685874Y-78975000D01*
X159066280Y-78817431D01*
X159357431Y-78526280D01*
X159515000Y-78145874D01*
X159515000Y-77734126D01*
X159357431Y-77353720D01*
X159265000Y-77261289D01*
X159265000Y-76655644D01*
X159418247Y-76553247D01*
X159610078Y-76266152D01*
X159677440Y-75927500D01*
X159677440Y-75452500D01*
X159610078Y-75113848D01*
X159418247Y-74826753D01*
X159131152Y-74634922D01*
X158792500Y-74567560D01*
X158217500Y-74567560D01*
X157878848Y-74634922D01*
X157630000Y-74801197D01*
X157381152Y-74634922D01*
X157042500Y-74567560D01*
X156467500Y-74567560D01*
X156128848Y-74634922D01*
X155841753Y-74826753D01*
X155649922Y-75113848D01*
X155582560Y-75452500D01*
X154492301Y-75452500D01*
X157844802Y-72100000D01*
X160405153Y-72100000D01*
X160480000Y-72114888D01*
X160554847Y-72100000D01*
X160554852Y-72100000D01*
X160776537Y-72055904D01*
X161027929Y-71887929D01*
X161070331Y-71824470D01*
X162069802Y-70825000D01*
X162355766Y-70825000D01*
X162772926Y-70652207D01*
X163092207Y-70332926D01*
X163265000Y-69915766D01*
X163265000Y-69464234D01*
X163092207Y-69047074D01*
X162772926Y-68727793D01*
X162355766Y-68555000D01*
X161904234Y-68555000D01*
X161487074Y-68727793D01*
X161167793Y-69047074D01*
X160995000Y-69464234D01*
X160995000Y-69750198D01*
X160165199Y-70580000D01*
X158845133Y-70580000D01*
X159092207Y-70332926D01*
X159265000Y-69915766D01*
X159265000Y-69464234D01*
X159092207Y-69047074D01*
X158772926Y-68727793D01*
X158355766Y-68555000D01*
X157904234Y-68555000D01*
X157487074Y-68727793D01*
X157167793Y-69047074D01*
X156995000Y-69464234D01*
X156995000Y-69750198D01*
X154890000Y-71855198D01*
X154890000Y-70535133D01*
X155092207Y-70332926D01*
X155265000Y-69915766D01*
X155265000Y-69464234D01*
X155092207Y-69047074D01*
X154772926Y-68727793D01*
X154355766Y-68555000D01*
X153904234Y-68555000D01*
X153487074Y-68727793D01*
X153167793Y-69047074D01*
X152995000Y-69464234D01*
X152995000Y-69915766D01*
X153167793Y-70332926D01*
X153370001Y-70535134D01*
X153370000Y-72325198D01*
X145265199Y-80430000D01*
X141528713Y-80430000D01*
X141782431Y-80176282D01*
X141940000Y-79795876D01*
X141940000Y-79384128D01*
X141782431Y-79003722D01*
X141491280Y-78712571D01*
X141110874Y-78555002D01*
X140767010Y-78555002D01*
X140779940Y-78490000D01*
X140779940Y-76490000D01*
X140730657Y-76242235D01*
X140590309Y-76032191D01*
X140380265Y-75891843D01*
X140132500Y-75842560D01*
X138265000Y-75842560D01*
X138265000Y-75425000D01*
X141527185Y-75425000D01*
X141640000Y-75447440D01*
X144640000Y-75447440D01*
X144887765Y-75398157D01*
X145097809Y-75257809D01*
X145238157Y-75047765D01*
X145284661Y-74813970D01*
X146885635Y-74813970D01*
X147045418Y-75132739D01*
X147836187Y-75442723D01*
X148685387Y-75426497D01*
X149394582Y-75132739D01*
X149554365Y-74813970D01*
X148220000Y-73479605D01*
X146885635Y-74813970D01*
X145284661Y-74813970D01*
X145287440Y-74800000D01*
X145287440Y-72916187D01*
X146077277Y-72916187D01*
X146093503Y-73765387D01*
X146387261Y-74474582D01*
X146706030Y-74634365D01*
X148040395Y-73300000D01*
X148399605Y-73300000D01*
X149733970Y-74634365D01*
X150052739Y-74474582D01*
X150362723Y-73683813D01*
X150346497Y-72834613D01*
X150052739Y-72125418D01*
X149733970Y-71965635D01*
X148399605Y-73300000D01*
X148040395Y-73300000D01*
X146706030Y-71965635D01*
X146387261Y-72125418D01*
X146077277Y-72916187D01*
X145287440Y-72916187D01*
X145287440Y-71800000D01*
X145284662Y-71786030D01*
X146885635Y-71786030D01*
X148220000Y-73120395D01*
X149554365Y-71786030D01*
X149394582Y-71467261D01*
X148603813Y-71157277D01*
X147754613Y-71173503D01*
X147045418Y-71467261D01*
X146885635Y-71786030D01*
X145284662Y-71786030D01*
X145238157Y-71552235D01*
X145097809Y-71342191D01*
X144887765Y-71201843D01*
X144640000Y-71152560D01*
X141640000Y-71152560D01*
X141627733Y-71155000D01*
X135730000Y-71155000D01*
X135486996Y-71203336D01*
X135380000Y-71274829D01*
X135273004Y-71203336D01*
X135030000Y-71155000D01*
X131792541Y-71155000D01*
X131730000Y-71142560D01*
X128730000Y-71142560D01*
X128482235Y-71191843D01*
X128272191Y-71332191D01*
X128131843Y-71542235D01*
X128082560Y-71790000D01*
X128082560Y-74362638D01*
X125410528Y-77034671D01*
X125347072Y-77077071D01*
X125304672Y-77140527D01*
X125304671Y-77140528D01*
X125179097Y-77328463D01*
X125120112Y-77625000D01*
X125135001Y-77699852D01*
X125135000Y-80793427D01*
X124987191Y-80892191D01*
X124846843Y-81102235D01*
X124797560Y-81350000D01*
X124797560Y-82150000D01*
X124846843Y-82397765D01*
X124987191Y-82607809D01*
X125197235Y-82748157D01*
X125445000Y-82797440D01*
X126345000Y-82797440D01*
X126592765Y-82748157D01*
X126797560Y-82611316D01*
X126797560Y-83100000D01*
X126846843Y-83347765D01*
X126987191Y-83557809D01*
X127162578Y-83675000D01*
X126987191Y-83792191D01*
X126846843Y-84002235D01*
X126797560Y-84250000D01*
X126797560Y-84738684D01*
X126592765Y-84601843D01*
X126345000Y-84552560D01*
X125445000Y-84552560D01*
X125197235Y-84601843D01*
X124987191Y-84742191D01*
X124862942Y-84928141D01*
X119890000Y-79955201D01*
X119890000Y-74803970D01*
X123815635Y-74803970D01*
X123975418Y-75122739D01*
X124766187Y-75432723D01*
X125615387Y-75416497D01*
X126324582Y-75122739D01*
X126484365Y-74803970D01*
X125150000Y-73469605D01*
X123815635Y-74803970D01*
X119890000Y-74803970D01*
X119890000Y-72906187D01*
X123007277Y-72906187D01*
X123023503Y-73755387D01*
X123317261Y-74464582D01*
X123636030Y-74624365D01*
X124970395Y-73290000D01*
X125329605Y-73290000D01*
X126663970Y-74624365D01*
X126982739Y-74464582D01*
X127292723Y-73673813D01*
X127276497Y-72824613D01*
X126982739Y-72115418D01*
X126663970Y-71955635D01*
X125329605Y-73290000D01*
X124970395Y-73290000D01*
X123636030Y-71955635D01*
X123317261Y-72115418D01*
X123007277Y-72906187D01*
X119890000Y-72906187D01*
X119890000Y-71776030D01*
X123815635Y-71776030D01*
X125150000Y-73110395D01*
X126484365Y-71776030D01*
X126324582Y-71457261D01*
X125533813Y-71147277D01*
X124684613Y-71163503D01*
X123975418Y-71457261D01*
X123815635Y-71776030D01*
X119890000Y-71776030D01*
X119890000Y-70535133D01*
X120092207Y-70332926D01*
X120265000Y-69915766D01*
X120265000Y-69464234D01*
X120092207Y-69047074D01*
X119772926Y-68727793D01*
X119355766Y-68555000D01*
X118904234Y-68555000D01*
X118487074Y-68727793D01*
X118167793Y-69047074D01*
X117995000Y-69464234D01*
X117995000Y-69915766D01*
X118167793Y-70332926D01*
X118370001Y-70535134D01*
X118370001Y-71855199D01*
X116265000Y-69750199D01*
X116265000Y-69464234D01*
X116092207Y-69047074D01*
X115772926Y-68727793D01*
X115355766Y-68555000D01*
X114904234Y-68555000D01*
X114487074Y-68727793D01*
X114167793Y-69047074D01*
X113995000Y-69464234D01*
X113995000Y-69915766D01*
X114167793Y-70332926D01*
X114487074Y-70652207D01*
X114904234Y-70825000D01*
X115190199Y-70825000D01*
X117620001Y-73254803D01*
X117620001Y-75163734D01*
X117610078Y-75113848D01*
X117418247Y-74826753D01*
X117131152Y-74634922D01*
X116792500Y-74567560D01*
X116217500Y-74567560D01*
X115878848Y-74634922D01*
X115630000Y-74801197D01*
X115381152Y-74634922D01*
X115042500Y-74567560D01*
X114467500Y-74567560D01*
X114128848Y-74634922D01*
X113841753Y-74826753D01*
X113649922Y-75113848D01*
X113582560Y-75452500D01*
X108620750Y-75452500D01*
X108565526Y-74142641D01*
X108639765Y-72580323D01*
X108859432Y-71046616D01*
X109220456Y-69549938D01*
X109718631Y-68100755D01*
X110349719Y-66709501D01*
X110739426Y-66030910D01*
X117668695Y-66030910D01*
X118035640Y-66526343D01*
X119441171Y-67119736D01*
X120966793Y-67130087D01*
X122380246Y-66555819D01*
X122424360Y-66526343D01*
X122791305Y-66030910D01*
X149568695Y-66030910D01*
X149935640Y-66526343D01*
X151341171Y-67119736D01*
X152866793Y-67130087D01*
X154280246Y-66555819D01*
X154324360Y-66526343D01*
X154691305Y-66030910D01*
X152130000Y-63469605D01*
X149568695Y-66030910D01*
X122791305Y-66030910D01*
X120230000Y-63469605D01*
X117668695Y-66030910D01*
X110739426Y-66030910D01*
X111109444Y-65386604D01*
X111993550Y-64142386D01*
X112094032Y-64026793D01*
X116389913Y-64026793D01*
X116964181Y-65440246D01*
X116993657Y-65484360D01*
X117489090Y-65851305D01*
X120050395Y-63290000D01*
X120409605Y-63290000D01*
X122970910Y-65851305D01*
X123466343Y-65484360D01*
X124059736Y-64078829D01*
X124070087Y-62553207D01*
X123495819Y-61139754D01*
X123466343Y-61095640D01*
X122970910Y-60728695D01*
X120409605Y-63290000D01*
X120050395Y-63290000D01*
X117489090Y-60728695D01*
X116993657Y-61095640D01*
X116400264Y-62501171D01*
X116389913Y-64026793D01*
X112094032Y-64026793D01*
X112997907Y-62986995D01*
X114106296Y-61941172D01*
X115298637Y-61021532D01*
X116056531Y-60549090D01*
X117668695Y-60549090D01*
X120230000Y-63110395D01*
X122791305Y-60549090D01*
X122424360Y-60053657D01*
X121018829Y-59460264D01*
X119493207Y-59449913D01*
X118079754Y-60024181D01*
X118035640Y-60053657D01*
X117668695Y-60549090D01*
X116056531Y-60549090D01*
X116565129Y-60232050D01*
X117895889Y-59576823D01*
X119281003Y-59059986D01*
X120710661Y-58685659D01*
X122175101Y-58457990D01*
X123653344Y-58381743D01*
X125487094Y-58537848D01*
X127202975Y-58981552D01*
X128803857Y-59686864D01*
X130247584Y-60607808D01*
X131186502Y-61608842D01*
X132369028Y-63034645D01*
X133089163Y-63971831D01*
X133105146Y-63998023D01*
X133130159Y-64025184D01*
X133152665Y-64054473D01*
X133175756Y-64074695D01*
X133918128Y-64880809D01*
X133940832Y-64923480D01*
X134009599Y-64980135D01*
X134023375Y-64995093D01*
X134061585Y-65022963D01*
X134098069Y-65053021D01*
X134115976Y-65062636D01*
X134187968Y-65115147D01*
X134234950Y-65126520D01*
X135452220Y-65780133D01*
X135501815Y-65821942D01*
X135571085Y-65843958D01*
X135574533Y-65845809D01*
X135635412Y-65864402D01*
X135695970Y-65883649D01*
X135699852Y-65884083D01*
X135769374Y-65905316D01*
X135833945Y-65899080D01*
X136769448Y-66003705D01*
X136831833Y-66011524D01*
X136836415Y-66011195D01*
X136840975Y-66011705D01*
X136903563Y-66006374D01*
X137924570Y-65933068D01*
X137965355Y-65941456D01*
X138059348Y-65923392D01*
X138086223Y-65921462D01*
X138125467Y-65910684D01*
X138165418Y-65903006D01*
X138190371Y-65892859D01*
X138282675Y-65867509D01*
X138315552Y-65841955D01*
X138807868Y-65641759D01*
X138812151Y-65641735D01*
X138933854Y-65590528D01*
X138992607Y-65566636D01*
X138996090Y-65564341D01*
X138999931Y-65562725D01*
X139052427Y-65527224D01*
X139162728Y-65454552D01*
X139165131Y-65451006D01*
X139652146Y-65121653D01*
X139697143Y-65105865D01*
X139764022Y-65045995D01*
X139781394Y-65034247D01*
X139814181Y-65001093D01*
X139848933Y-64969983D01*
X139861533Y-64953211D01*
X139924645Y-64889392D01*
X139942648Y-64845236D01*
X140557494Y-64026793D01*
X148289913Y-64026793D01*
X148864181Y-65440246D01*
X148893657Y-65484360D01*
X149389090Y-65851305D01*
X151950395Y-63290000D01*
X152309605Y-63290000D01*
X154870910Y-65851305D01*
X155366343Y-65484360D01*
X155959736Y-64078829D01*
X155970087Y-62553207D01*
X155395819Y-61139754D01*
X155366343Y-61095640D01*
X154870910Y-60728695D01*
X152309605Y-63290000D01*
X151950395Y-63290000D01*
X149389090Y-60728695D01*
X148893657Y-61095640D01*
X148300264Y-62501171D01*
X148289913Y-64026793D01*
X140557494Y-64026793D01*
X140560623Y-64022628D01*
X140582556Y-63998937D01*
X140601030Y-63968841D01*
X140622254Y-63940589D01*
X140636245Y-63911472D01*
X141217355Y-62964790D01*
X142209893Y-61563037D01*
X142715717Y-60956899D01*
X143194254Y-60549090D01*
X149568695Y-60549090D01*
X152130000Y-63110395D01*
X154691305Y-60549090D01*
X154324360Y-60053657D01*
X152918829Y-59460264D01*
X151393207Y-59449913D01*
X149979754Y-60024181D01*
X149935640Y-60053657D01*
X149568695Y-60549090D01*
X143194254Y-60549090D01*
X143283922Y-60472675D01*
X144814998Y-59577276D01*
X146466137Y-58891001D01*
X148213920Y-58455002D01*
X150015656Y-58304163D01*
X150054659Y-58311921D01*
X150104676Y-58301972D01*
X151544356Y-58376239D01*
X151544356Y-58376239D01*
G37*
X151544356Y-58376239D02*
X153008795Y-58603916D01*
X154438453Y-58978249D01*
X155823575Y-59495094D01*
X157154320Y-60150319D01*
X158420813Y-60939805D01*
X159613151Y-61859446D01*
X160721541Y-62905273D01*
X161725882Y-64060659D01*
X162609979Y-65304872D01*
X163369698Y-66627772D01*
X164000777Y-68019019D01*
X164498944Y-69468194D01*
X164859962Y-70964852D01*
X165079633Y-72498571D01*
X165153606Y-74055256D01*
X164965914Y-77257331D01*
X164333686Y-80517588D01*
X163148123Y-83915823D01*
X161295496Y-87527557D01*
X159692195Y-89873080D01*
X157210570Y-93054770D01*
X150502874Y-100872730D01*
X142963308Y-108888893D01*
X139440825Y-112323803D01*
X136784607Y-114676746D01*
X133816806Y-112349938D01*
X130113821Y-108911754D01*
X126287911Y-104967845D01*
X126182422Y-104850750D01*
X127610000Y-104850750D01*
X127610000Y-105216309D01*
X127706673Y-105449698D01*
X127885301Y-105628327D01*
X128118690Y-105725000D01*
X128434250Y-105725000D01*
X128593000Y-105566250D01*
X128593000Y-104692000D01*
X128847000Y-104692000D01*
X128847000Y-105566250D01*
X129005750Y-105725000D01*
X129321310Y-105725000D01*
X129554699Y-105628327D01*
X129733327Y-105449698D01*
X129830000Y-105216309D01*
X129830000Y-104850750D01*
X129671250Y-104692000D01*
X128847000Y-104692000D01*
X128593000Y-104692000D01*
X127768750Y-104692000D01*
X127610000Y-104850750D01*
X126182422Y-104850750D01*
X122535748Y-100802890D01*
X122347581Y-100575750D01*
X126365000Y-100575750D01*
X126365000Y-100941309D01*
X126461673Y-101174698D01*
X126640301Y-101353327D01*
X126873690Y-101450000D01*
X127189250Y-101450000D01*
X127348000Y-101291250D01*
X127348000Y-100417000D01*
X126523750Y-100417000D01*
X126365000Y-100575750D01*
X122347581Y-100575750D01*
X115997722Y-92910720D01*
X112026931Y-87486808D01*
X111054528Y-85792740D01*
X110274788Y-84097685D01*
X109670042Y-82409396D01*
X109222620Y-80740370D01*
X108702833Y-77399469D01*
X108620750Y-75452500D01*
X113582560Y-75452500D01*
X113582560Y-75927500D01*
X113649922Y-76266152D01*
X113841753Y-76553247D01*
X113970001Y-76638939D01*
X113970000Y-77086289D01*
X113852569Y-77203720D01*
X113695000Y-77584126D01*
X113695000Y-77995874D01*
X113852569Y-78376280D01*
X114143720Y-78667431D01*
X114524126Y-78825000D01*
X114935874Y-78825000D01*
X115316280Y-78667431D01*
X115607431Y-78376280D01*
X115665355Y-78236438D01*
X115702569Y-78326280D01*
X115993720Y-78617431D01*
X116374126Y-78775000D01*
X116785874Y-78775000D01*
X117166280Y-78617431D01*
X117457431Y-78326280D01*
X117615000Y-77945874D01*
X117615000Y-77534126D01*
X117457431Y-77153720D01*
X117265000Y-76961289D01*
X117265000Y-76655644D01*
X117418247Y-76553247D01*
X117610078Y-76266152D01*
X117620001Y-76216267D01*
X117620000Y-87370153D01*
X117605112Y-87445000D01*
X117620000Y-87519847D01*
X117620000Y-87519851D01*
X117664096Y-87741536D01*
X117832071Y-87992929D01*
X117895530Y-88035331D01*
X126352560Y-96492363D01*
X126352560Y-96827500D01*
X126419922Y-97166152D01*
X126611753Y-97453247D01*
X126715000Y-97522235D01*
X126715001Y-97557765D01*
X126611753Y-97626753D01*
X126419922Y-97913848D01*
X126352560Y-98252500D01*
X126352560Y-98827500D01*
X126419922Y-99166152D01*
X126532435Y-99334540D01*
X126461673Y-99405302D01*
X126365000Y-99638691D01*
X126365000Y-100004250D01*
X126523750Y-100163000D01*
X127348000Y-100163000D01*
X127348000Y-100143000D01*
X127602000Y-100143000D01*
X127602000Y-100163000D01*
X127622000Y-100163000D01*
X127622000Y-100417000D01*
X127602000Y-100417000D01*
X127602000Y-101291250D01*
X127760750Y-101450000D01*
X127940000Y-101450000D01*
X127940000Y-101846129D01*
X127856753Y-101901753D01*
X127664922Y-102188848D01*
X127597560Y-102527500D01*
X127597560Y-103102500D01*
X127664922Y-103441152D01*
X127777435Y-103609540D01*
X127706673Y-103680302D01*
X127610000Y-103913691D01*
X127610000Y-104279250D01*
X127768750Y-104438000D01*
X128593000Y-104438000D01*
X128593000Y-104418000D01*
X128847000Y-104418000D01*
X128847000Y-104438000D01*
X129671250Y-104438000D01*
X129830000Y-104279250D01*
X129830000Y-104200000D01*
X130956289Y-104200000D01*
X131063720Y-104307431D01*
X131389628Y-104442426D01*
X131123720Y-104552569D01*
X130832569Y-104843720D01*
X130675000Y-105224126D01*
X130675000Y-105635874D01*
X130832569Y-106016280D01*
X131123720Y-106307431D01*
X131504126Y-106465000D01*
X131650199Y-106465000D01*
X133909682Y-108724484D01*
X133952082Y-108787940D01*
X134203474Y-108955915D01*
X134425159Y-109000011D01*
X134425163Y-109000011D01*
X134500011Y-109014899D01*
X134574859Y-109000011D01*
X137205142Y-109000011D01*
X137279989Y-109014899D01*
X137354836Y-109000011D01*
X137354841Y-109000011D01*
X137576526Y-108955915D01*
X137827918Y-108787940D01*
X137870320Y-108724481D01*
X145714476Y-100880327D01*
X145777929Y-100837929D01*
X145820327Y-100774476D01*
X145820329Y-100774474D01*
X145923308Y-100620354D01*
X145945904Y-100586537D01*
X145990000Y-100364852D01*
X145990000Y-100364848D01*
X146004888Y-100290001D01*
X145990000Y-100215154D01*
X145990000Y-98154801D01*
X150719577Y-93425225D01*
X150845972Y-93614389D01*
X151337179Y-93942603D01*
X151770341Y-94028764D01*
X152062853Y-94028764D01*
X152496015Y-93942603D01*
X152987222Y-93614389D01*
X153315436Y-93123182D01*
X153430689Y-92543764D01*
X153336404Y-92069761D01*
X153403022Y-92083012D01*
X153695534Y-92083012D01*
X154128696Y-91996851D01*
X154619903Y-91668637D01*
X154948117Y-91177430D01*
X155063370Y-90598012D01*
X154969085Y-90124008D01*
X155035702Y-90137259D01*
X155328214Y-90137259D01*
X155761376Y-90051098D01*
X156252583Y-89722884D01*
X156580797Y-89231677D01*
X156696050Y-88652259D01*
X156597270Y-88155657D01*
X156721550Y-88188595D01*
X157295806Y-88111402D01*
X157689469Y-87906463D01*
X157744302Y-87652373D01*
X156830293Y-86885428D01*
X156817437Y-86900749D01*
X156622862Y-86737480D01*
X156635717Y-86722160D01*
X155721708Y-85955214D01*
X155481000Y-86053337D01*
X155347533Y-86476606D01*
X155371231Y-87055543D01*
X155432566Y-87188016D01*
X155328214Y-87167259D01*
X155035702Y-87167259D01*
X154602540Y-87253420D01*
X154111333Y-87581634D01*
X153903780Y-87892259D01*
X152002543Y-87892259D01*
X154374049Y-85520753D01*
X155936744Y-85520753D01*
X155884976Y-85760639D01*
X156798985Y-86527584D01*
X156811841Y-86512263D01*
X157006416Y-86675532D01*
X156993561Y-86690852D01*
X157907570Y-87457798D01*
X158148278Y-87359675D01*
X158281745Y-86936406D01*
X158258047Y-86357469D01*
X158196713Y-86224996D01*
X158301063Y-86245753D01*
X158593575Y-86245753D01*
X159026737Y-86159592D01*
X159517944Y-85831378D01*
X159846158Y-85340171D01*
X159961411Y-84760753D01*
X159928701Y-84596308D01*
X159990079Y-84629981D01*
X160241196Y-84657483D01*
X160483722Y-84586793D01*
X160680736Y-84428674D01*
X161773475Y-83126399D01*
X161894981Y-82904921D01*
X161922483Y-82653804D01*
X161851793Y-82411278D01*
X161693674Y-82214264D01*
X160391399Y-81121525D01*
X160169921Y-81000019D01*
X159918804Y-80972517D01*
X159676278Y-81043207D01*
X159479264Y-81201326D01*
X158762946Y-82055000D01*
X155079846Y-82055000D01*
X155004999Y-82040112D01*
X154930152Y-82055000D01*
X154930148Y-82055000D01*
X154708463Y-82099096D01*
X154457071Y-82267071D01*
X154414671Y-82330527D01*
X153046692Y-83698506D01*
X153007431Y-83603720D01*
X152890000Y-83486289D01*
X152890000Y-77054801D01*
X154492301Y-75452500D01*
X155582560Y-75452500D01*
X155582560Y-75927500D01*
X155649922Y-76266152D01*
X155841753Y-76553247D01*
X155920001Y-76605530D01*
X155920000Y-77236289D01*
X155802569Y-77353720D01*
X155645000Y-77734126D01*
X155645000Y-78145874D01*
X155802569Y-78526280D01*
X156093720Y-78817431D01*
X156474126Y-78975000D01*
X156885874Y-78975000D01*
X157266280Y-78817431D01*
X157557431Y-78526280D01*
X157580000Y-78471794D01*
X157602569Y-78526280D01*
X157893720Y-78817431D01*
X158274126Y-78975000D01*
X158685874Y-78975000D01*
X159066280Y-78817431D01*
X159357431Y-78526280D01*
X159515000Y-78145874D01*
X159515000Y-77734126D01*
X159357431Y-77353720D01*
X159265000Y-77261289D01*
X159265000Y-76655644D01*
X159418247Y-76553247D01*
X159610078Y-76266152D01*
X159677440Y-75927500D01*
X159677440Y-75452500D01*
X159610078Y-75113848D01*
X159418247Y-74826753D01*
X159131152Y-74634922D01*
X158792500Y-74567560D01*
X158217500Y-74567560D01*
X157878848Y-74634922D01*
X157630000Y-74801197D01*
X157381152Y-74634922D01*
X157042500Y-74567560D01*
X156467500Y-74567560D01*
X156128848Y-74634922D01*
X155841753Y-74826753D01*
X155649922Y-75113848D01*
X155582560Y-75452500D01*
X154492301Y-75452500D01*
X157844802Y-72100000D01*
X160405153Y-72100000D01*
X160480000Y-72114888D01*
X160554847Y-72100000D01*
X160554852Y-72100000D01*
X160776537Y-72055904D01*
X161027929Y-71887929D01*
X161070331Y-71824470D01*
X162069802Y-70825000D01*
X162355766Y-70825000D01*
X162772926Y-70652207D01*
X163092207Y-70332926D01*
X163265000Y-69915766D01*
X163265000Y-69464234D01*
X163092207Y-69047074D01*
X162772926Y-68727793D01*
X162355766Y-68555000D01*
X161904234Y-68555000D01*
X161487074Y-68727793D01*
X161167793Y-69047074D01*
X160995000Y-69464234D01*
X160995000Y-69750198D01*
X160165199Y-70580000D01*
X158845133Y-70580000D01*
X159092207Y-70332926D01*
X159265000Y-69915766D01*
X159265000Y-69464234D01*
X159092207Y-69047074D01*
X158772926Y-68727793D01*
X158355766Y-68555000D01*
X157904234Y-68555000D01*
X157487074Y-68727793D01*
X157167793Y-69047074D01*
X156995000Y-69464234D01*
X156995000Y-69750198D01*
X154890000Y-71855198D01*
X154890000Y-70535133D01*
X155092207Y-70332926D01*
X155265000Y-69915766D01*
X155265000Y-69464234D01*
X155092207Y-69047074D01*
X154772926Y-68727793D01*
X154355766Y-68555000D01*
X153904234Y-68555000D01*
X153487074Y-68727793D01*
X153167793Y-69047074D01*
X152995000Y-69464234D01*
X152995000Y-69915766D01*
X153167793Y-70332926D01*
X153370001Y-70535134D01*
X153370000Y-72325198D01*
X145265199Y-80430000D01*
X141528713Y-80430000D01*
X141782431Y-80176282D01*
X141940000Y-79795876D01*
X141940000Y-79384128D01*
X141782431Y-79003722D01*
X141491280Y-78712571D01*
X141110874Y-78555002D01*
X140767010Y-78555002D01*
X140779940Y-78490000D01*
X140779940Y-76490000D01*
X140730657Y-76242235D01*
X140590309Y-76032191D01*
X140380265Y-75891843D01*
X140132500Y-75842560D01*
X138265000Y-75842560D01*
X138265000Y-75425000D01*
X141527185Y-75425000D01*
X141640000Y-75447440D01*
X144640000Y-75447440D01*
X144887765Y-75398157D01*
X145097809Y-75257809D01*
X145238157Y-75047765D01*
X145284661Y-74813970D01*
X146885635Y-74813970D01*
X147045418Y-75132739D01*
X147836187Y-75442723D01*
X148685387Y-75426497D01*
X149394582Y-75132739D01*
X149554365Y-74813970D01*
X148220000Y-73479605D01*
X146885635Y-74813970D01*
X145284661Y-74813970D01*
X145287440Y-74800000D01*
X145287440Y-72916187D01*
X146077277Y-72916187D01*
X146093503Y-73765387D01*
X146387261Y-74474582D01*
X146706030Y-74634365D01*
X148040395Y-73300000D01*
X148399605Y-73300000D01*
X149733970Y-74634365D01*
X150052739Y-74474582D01*
X150362723Y-73683813D01*
X150346497Y-72834613D01*
X150052739Y-72125418D01*
X149733970Y-71965635D01*
X148399605Y-73300000D01*
X148040395Y-73300000D01*
X146706030Y-71965635D01*
X146387261Y-72125418D01*
X146077277Y-72916187D01*
X145287440Y-72916187D01*
X145287440Y-71800000D01*
X145284662Y-71786030D01*
X146885635Y-71786030D01*
X148220000Y-73120395D01*
X149554365Y-71786030D01*
X149394582Y-71467261D01*
X148603813Y-71157277D01*
X147754613Y-71173503D01*
X147045418Y-71467261D01*
X146885635Y-71786030D01*
X145284662Y-71786030D01*
X145238157Y-71552235D01*
X145097809Y-71342191D01*
X144887765Y-71201843D01*
X144640000Y-71152560D01*
X141640000Y-71152560D01*
X141627733Y-71155000D01*
X135730000Y-71155000D01*
X135486996Y-71203336D01*
X135380000Y-71274829D01*
X135273004Y-71203336D01*
X135030000Y-71155000D01*
X131792541Y-71155000D01*
X131730000Y-71142560D01*
X128730000Y-71142560D01*
X128482235Y-71191843D01*
X128272191Y-71332191D01*
X128131843Y-71542235D01*
X128082560Y-71790000D01*
X128082560Y-74362638D01*
X125410528Y-77034671D01*
X125347072Y-77077071D01*
X125304672Y-77140527D01*
X125304671Y-77140528D01*
X125179097Y-77328463D01*
X125120112Y-77625000D01*
X125135001Y-77699852D01*
X125135000Y-80793427D01*
X124987191Y-80892191D01*
X124846843Y-81102235D01*
X124797560Y-81350000D01*
X124797560Y-82150000D01*
X124846843Y-82397765D01*
X124987191Y-82607809D01*
X125197235Y-82748157D01*
X125445000Y-82797440D01*
X126345000Y-82797440D01*
X126592765Y-82748157D01*
X126797560Y-82611316D01*
X126797560Y-83100000D01*
X126846843Y-83347765D01*
X126987191Y-83557809D01*
X127162578Y-83675000D01*
X126987191Y-83792191D01*
X126846843Y-84002235D01*
X126797560Y-84250000D01*
X126797560Y-84738684D01*
X126592765Y-84601843D01*
X126345000Y-84552560D01*
X125445000Y-84552560D01*
X125197235Y-84601843D01*
X124987191Y-84742191D01*
X124862942Y-84928141D01*
X119890000Y-79955201D01*
X119890000Y-74803970D01*
X123815635Y-74803970D01*
X123975418Y-75122739D01*
X124766187Y-75432723D01*
X125615387Y-75416497D01*
X126324582Y-75122739D01*
X126484365Y-74803970D01*
X125150000Y-73469605D01*
X123815635Y-74803970D01*
X119890000Y-74803970D01*
X119890000Y-72906187D01*
X123007277Y-72906187D01*
X123023503Y-73755387D01*
X123317261Y-74464582D01*
X123636030Y-74624365D01*
X124970395Y-73290000D01*
X125329605Y-73290000D01*
X126663970Y-74624365D01*
X126982739Y-74464582D01*
X127292723Y-73673813D01*
X127276497Y-72824613D01*
X126982739Y-72115418D01*
X126663970Y-71955635D01*
X125329605Y-73290000D01*
X124970395Y-73290000D01*
X123636030Y-71955635D01*
X123317261Y-72115418D01*
X123007277Y-72906187D01*
X119890000Y-72906187D01*
X119890000Y-71776030D01*
X123815635Y-71776030D01*
X125150000Y-73110395D01*
X126484365Y-71776030D01*
X126324582Y-71457261D01*
X125533813Y-71147277D01*
X124684613Y-71163503D01*
X123975418Y-71457261D01*
X123815635Y-71776030D01*
X119890000Y-71776030D01*
X119890000Y-70535133D01*
X120092207Y-70332926D01*
X120265000Y-69915766D01*
X120265000Y-69464234D01*
X120092207Y-69047074D01*
X119772926Y-68727793D01*
X119355766Y-68555000D01*
X118904234Y-68555000D01*
X118487074Y-68727793D01*
X118167793Y-69047074D01*
X117995000Y-69464234D01*
X117995000Y-69915766D01*
X118167793Y-70332926D01*
X118370001Y-70535134D01*
X118370001Y-71855199D01*
X116265000Y-69750199D01*
X116265000Y-69464234D01*
X116092207Y-69047074D01*
X115772926Y-68727793D01*
X115355766Y-68555000D01*
X114904234Y-68555000D01*
X114487074Y-68727793D01*
X114167793Y-69047074D01*
X113995000Y-69464234D01*
X113995000Y-69915766D01*
X114167793Y-70332926D01*
X114487074Y-70652207D01*
X114904234Y-70825000D01*
X115190199Y-70825000D01*
X117620001Y-73254803D01*
X117620001Y-75163734D01*
X117610078Y-75113848D01*
X117418247Y-74826753D01*
X117131152Y-74634922D01*
X116792500Y-74567560D01*
X116217500Y-74567560D01*
X115878848Y-74634922D01*
X115630000Y-74801197D01*
X115381152Y-74634922D01*
X115042500Y-74567560D01*
X114467500Y-74567560D01*
X114128848Y-74634922D01*
X113841753Y-74826753D01*
X113649922Y-75113848D01*
X113582560Y-75452500D01*
X108620750Y-75452500D01*
X108565526Y-74142641D01*
X108639765Y-72580323D01*
X108859432Y-71046616D01*
X109220456Y-69549938D01*
X109718631Y-68100755D01*
X110349719Y-66709501D01*
X110739426Y-66030910D01*
X117668695Y-66030910D01*
X118035640Y-66526343D01*
X119441171Y-67119736D01*
X120966793Y-67130087D01*
X122380246Y-66555819D01*
X122424360Y-66526343D01*
X122791305Y-66030910D01*
X149568695Y-66030910D01*
X149935640Y-66526343D01*
X151341171Y-67119736D01*
X152866793Y-67130087D01*
X154280246Y-66555819D01*
X154324360Y-66526343D01*
X154691305Y-66030910D01*
X152130000Y-63469605D01*
X149568695Y-66030910D01*
X122791305Y-66030910D01*
X120230000Y-63469605D01*
X117668695Y-66030910D01*
X110739426Y-66030910D01*
X111109444Y-65386604D01*
X111993550Y-64142386D01*
X112094032Y-64026793D01*
X116389913Y-64026793D01*
X116964181Y-65440246D01*
X116993657Y-65484360D01*
X117489090Y-65851305D01*
X120050395Y-63290000D01*
X120409605Y-63290000D01*
X122970910Y-65851305D01*
X123466343Y-65484360D01*
X124059736Y-64078829D01*
X124070087Y-62553207D01*
X123495819Y-61139754D01*
X123466343Y-61095640D01*
X122970910Y-60728695D01*
X120409605Y-63290000D01*
X120050395Y-63290000D01*
X117489090Y-60728695D01*
X116993657Y-61095640D01*
X116400264Y-62501171D01*
X116389913Y-64026793D01*
X112094032Y-64026793D01*
X112997907Y-62986995D01*
X114106296Y-61941172D01*
X115298637Y-61021532D01*
X116056531Y-60549090D01*
X117668695Y-60549090D01*
X120230000Y-63110395D01*
X122791305Y-60549090D01*
X122424360Y-60053657D01*
X121018829Y-59460264D01*
X119493207Y-59449913D01*
X118079754Y-60024181D01*
X118035640Y-60053657D01*
X117668695Y-60549090D01*
X116056531Y-60549090D01*
X116565129Y-60232050D01*
X117895889Y-59576823D01*
X119281003Y-59059986D01*
X120710661Y-58685659D01*
X122175101Y-58457990D01*
X123653344Y-58381743D01*
X125487094Y-58537848D01*
X127202975Y-58981552D01*
X128803857Y-59686864D01*
X130247584Y-60607808D01*
X131186502Y-61608842D01*
X132369028Y-63034645D01*
X133089163Y-63971831D01*
X133105146Y-63998023D01*
X133130159Y-64025184D01*
X133152665Y-64054473D01*
X133175756Y-64074695D01*
X133918128Y-64880809D01*
X133940832Y-64923480D01*
X134009599Y-64980135D01*
X134023375Y-64995093D01*
X134061585Y-65022963D01*
X134098069Y-65053021D01*
X134115976Y-65062636D01*
X134187968Y-65115147D01*
X134234950Y-65126520D01*
X135452220Y-65780133D01*
X135501815Y-65821942D01*
X135571085Y-65843958D01*
X135574533Y-65845809D01*
X135635412Y-65864402D01*
X135695970Y-65883649D01*
X135699852Y-65884083D01*
X135769374Y-65905316D01*
X135833945Y-65899080D01*
X136769448Y-66003705D01*
X136831833Y-66011524D01*
X136836415Y-66011195D01*
X136840975Y-66011705D01*
X136903563Y-66006374D01*
X137924570Y-65933068D01*
X137965355Y-65941456D01*
X138059348Y-65923392D01*
X138086223Y-65921462D01*
X138125467Y-65910684D01*
X138165418Y-65903006D01*
X138190371Y-65892859D01*
X138282675Y-65867509D01*
X138315552Y-65841955D01*
X138807868Y-65641759D01*
X138812151Y-65641735D01*
X138933854Y-65590528D01*
X138992607Y-65566636D01*
X138996090Y-65564341D01*
X138999931Y-65562725D01*
X139052427Y-65527224D01*
X139162728Y-65454552D01*
X139165131Y-65451006D01*
X139652146Y-65121653D01*
X139697143Y-65105865D01*
X139764022Y-65045995D01*
X139781394Y-65034247D01*
X139814181Y-65001093D01*
X139848933Y-64969983D01*
X139861533Y-64953211D01*
X139924645Y-64889392D01*
X139942648Y-64845236D01*
X140557494Y-64026793D01*
X148289913Y-64026793D01*
X148864181Y-65440246D01*
X148893657Y-65484360D01*
X149389090Y-65851305D01*
X151950395Y-63290000D01*
X152309605Y-63290000D01*
X154870910Y-65851305D01*
X155366343Y-65484360D01*
X155959736Y-64078829D01*
X155970087Y-62553207D01*
X155395819Y-61139754D01*
X155366343Y-61095640D01*
X154870910Y-60728695D01*
X152309605Y-63290000D01*
X151950395Y-63290000D01*
X149389090Y-60728695D01*
X148893657Y-61095640D01*
X148300264Y-62501171D01*
X148289913Y-64026793D01*
X140557494Y-64026793D01*
X140560623Y-64022628D01*
X140582556Y-63998937D01*
X140601030Y-63968841D01*
X140622254Y-63940589D01*
X140636245Y-63911472D01*
X141217355Y-62964790D01*
X142209893Y-61563037D01*
X142715717Y-60956899D01*
X143194254Y-60549090D01*
X149568695Y-60549090D01*
X152130000Y-63110395D01*
X154691305Y-60549090D01*
X154324360Y-60053657D01*
X152918829Y-59460264D01*
X151393207Y-59449913D01*
X149979754Y-60024181D01*
X149935640Y-60053657D01*
X149568695Y-60549090D01*
X143194254Y-60549090D01*
X143283922Y-60472675D01*
X144814998Y-59577276D01*
X146466137Y-58891001D01*
X148213920Y-58455002D01*
X150015656Y-58304163D01*
X150054659Y-58311921D01*
X150104676Y-58301972D01*
X151544356Y-58376239D01*
G36*
X135655000Y-94675874D02*
X135812569Y-95056280D01*
X136103720Y-95347431D01*
X136484126Y-95505000D01*
X136895874Y-95505000D01*
X137276280Y-95347431D01*
X137393711Y-95230000D01*
X140013591Y-95230000D01*
X140013590Y-96256608D01*
X138840199Y-97430000D01*
X138657235Y-97430000D01*
X138588247Y-97326753D01*
X138301152Y-97134922D01*
X137962500Y-97067560D01*
X137387500Y-97067560D01*
X137048848Y-97134922D01*
X136880460Y-97247435D01*
X136809698Y-97176673D01*
X136576309Y-97080000D01*
X136210750Y-97080000D01*
X136052000Y-97238750D01*
X136052000Y-98063000D01*
X136072000Y-98063000D01*
X136072000Y-98317000D01*
X136052000Y-98317000D01*
X136052000Y-99141250D01*
X136100750Y-99190000D01*
X136052000Y-99238750D01*
X136052000Y-100063000D01*
X136072000Y-100063000D01*
X136072000Y-100317000D01*
X136052000Y-100317000D01*
X136052000Y-100337000D01*
X135798000Y-100337000D01*
X135798000Y-100317000D01*
X134923750Y-100317000D01*
X134765000Y-100475750D01*
X134765000Y-100791310D01*
X134861673Y-101024699D01*
X134986639Y-101149664D01*
X134972585Y-101163718D01*
X134815016Y-101544124D01*
X134815016Y-101955872D01*
X134972585Y-102336278D01*
X135176406Y-102540099D01*
X135031753Y-102636753D01*
X134839922Y-102923848D01*
X134772560Y-103262500D01*
X134772560Y-103737500D01*
X134839922Y-104076152D01*
X135031753Y-104363247D01*
X135049343Y-104375000D01*
X135031753Y-104386753D01*
X134839922Y-104673848D01*
X134772560Y-105012500D01*
X134772560Y-105487500D01*
X134839922Y-105826152D01*
X135031753Y-106113247D01*
X135318848Y-106305078D01*
X135657500Y-106372440D01*
X135676409Y-106372440D01*
X135655000Y-106424126D01*
X135655000Y-106835874D01*
X135735409Y-107030000D01*
X135264802Y-107030000D01*
X133605001Y-105370200D01*
X133605001Y-101684849D01*
X133619889Y-101610001D01*
X133605001Y-101535153D01*
X133605001Y-101535149D01*
X133560905Y-101313464D01*
X133560905Y-101313463D01*
X133498267Y-101219719D01*
X133405001Y-101080138D01*
X133405001Y-100944136D01*
X133247432Y-100563730D01*
X132956281Y-100272579D01*
X132575875Y-100115010D01*
X132197340Y-100115010D01*
X132197340Y-100041786D01*
X132164394Y-99962247D01*
X132115902Y-99718462D01*
X131990328Y-99530528D01*
X131748587Y-99288787D01*
X131867500Y-99312440D01*
X132442500Y-99312440D01*
X132781152Y-99245078D01*
X132949540Y-99132565D01*
X133020302Y-99203327D01*
X133253691Y-99300000D01*
X133619250Y-99300000D01*
X133778000Y-99141250D01*
X133778000Y-98317000D01*
X134032000Y-98317000D01*
X134032000Y-99141250D01*
X134190750Y-99300000D01*
X134556309Y-99300000D01*
X134789698Y-99203327D01*
X134915000Y-99078026D01*
X135026975Y-99190000D01*
X134861673Y-99355301D01*
X134765000Y-99588690D01*
X134765000Y-99904250D01*
X134923750Y-100063000D01*
X135798000Y-100063000D01*
X135798000Y-99238750D01*
X135749250Y-99190000D01*
X135798000Y-99141250D01*
X135798000Y-98317000D01*
X134923750Y-98317000D01*
X134915000Y-98325750D01*
X134906250Y-98317000D01*
X134032000Y-98317000D01*
X133778000Y-98317000D01*
X133758000Y-98317000D01*
X133758000Y-98063000D01*
X133778000Y-98063000D01*
X133778000Y-97238750D01*
X134032000Y-97238750D01*
X134032000Y-98063000D01*
X134906250Y-98063000D01*
X134915000Y-98054250D01*
X134923750Y-98063000D01*
X135798000Y-98063000D01*
X135798000Y-97238750D01*
X135639250Y-97080000D01*
X135273691Y-97080000D01*
X135040302Y-97176673D01*
X134915000Y-97301974D01*
X134789698Y-97176673D01*
X134556309Y-97080000D01*
X134190750Y-97080000D01*
X134032000Y-97238750D01*
X133778000Y-97238750D01*
X133619250Y-97080000D01*
X133253691Y-97080000D01*
X133090000Y-97147803D01*
X133090000Y-97093711D01*
X133207431Y-96976280D01*
X133365000Y-96595874D01*
X133365000Y-96184126D01*
X133207431Y-95803720D01*
X132978711Y-95575000D01*
X134030153Y-95575000D01*
X134105000Y-95589888D01*
X134179847Y-95575000D01*
X134179852Y-95575000D01*
X134401537Y-95530904D01*
X134652929Y-95362929D01*
X134695331Y-95299470D01*
X135655000Y-94339802D01*
X135655000Y-94675874D01*
X135655000Y-94675874D01*
G37*
X135655000Y-94675874D02*
X135812569Y-95056280D01*
X136103720Y-95347431D01*
X136484126Y-95505000D01*
X136895874Y-95505000D01*
X137276280Y-95347431D01*
X137393711Y-95230000D01*
X140013591Y-95230000D01*
X140013590Y-96256608D01*
X138840199Y-97430000D01*
X138657235Y-97430000D01*
X138588247Y-97326753D01*
X138301152Y-97134922D01*
X137962500Y-97067560D01*
X137387500Y-97067560D01*
X137048848Y-97134922D01*
X136880460Y-97247435D01*
X136809698Y-97176673D01*
X136576309Y-97080000D01*
X136210750Y-97080000D01*
X136052000Y-97238750D01*
X136052000Y-98063000D01*
X136072000Y-98063000D01*
X136072000Y-98317000D01*
X136052000Y-98317000D01*
X136052000Y-99141250D01*
X136100750Y-99190000D01*
X136052000Y-99238750D01*
X136052000Y-100063000D01*
X136072000Y-100063000D01*
X136072000Y-100317000D01*
X136052000Y-100317000D01*
X136052000Y-100337000D01*
X135798000Y-100337000D01*
X135798000Y-100317000D01*
X134923750Y-100317000D01*
X134765000Y-100475750D01*
X134765000Y-100791310D01*
X134861673Y-101024699D01*
X134986639Y-101149664D01*
X134972585Y-101163718D01*
X134815016Y-101544124D01*
X134815016Y-101955872D01*
X134972585Y-102336278D01*
X135176406Y-102540099D01*
X135031753Y-102636753D01*
X134839922Y-102923848D01*
X134772560Y-103262500D01*
X134772560Y-103737500D01*
X134839922Y-104076152D01*
X135031753Y-104363247D01*
X135049343Y-104375000D01*
X135031753Y-104386753D01*
X134839922Y-104673848D01*
X134772560Y-105012500D01*
X134772560Y-105487500D01*
X134839922Y-105826152D01*
X135031753Y-106113247D01*
X135318848Y-106305078D01*
X135657500Y-106372440D01*
X135676409Y-106372440D01*
X135655000Y-106424126D01*
X135655000Y-106835874D01*
X135735409Y-107030000D01*
X135264802Y-107030000D01*
X133605001Y-105370200D01*
X133605001Y-101684849D01*
X133619889Y-101610001D01*
X133605001Y-101535153D01*
X133605001Y-101535149D01*
X133560905Y-101313464D01*
X133560905Y-101313463D01*
X133498267Y-101219719D01*
X133405001Y-101080138D01*
X133405001Y-100944136D01*
X133247432Y-100563730D01*
X132956281Y-100272579D01*
X132575875Y-100115010D01*
X132197340Y-100115010D01*
X132197340Y-100041786D01*
X132164394Y-99962247D01*
X132115902Y-99718462D01*
X131990328Y-99530528D01*
X131748587Y-99288787D01*
X131867500Y-99312440D01*
X132442500Y-99312440D01*
X132781152Y-99245078D01*
X132949540Y-99132565D01*
X133020302Y-99203327D01*
X133253691Y-99300000D01*
X133619250Y-99300000D01*
X133778000Y-99141250D01*
X133778000Y-98317000D01*
X134032000Y-98317000D01*
X134032000Y-99141250D01*
X134190750Y-99300000D01*
X134556309Y-99300000D01*
X134789698Y-99203327D01*
X134915000Y-99078026D01*
X135026975Y-99190000D01*
X134861673Y-99355301D01*
X134765000Y-99588690D01*
X134765000Y-99904250D01*
X134923750Y-100063000D01*
X135798000Y-100063000D01*
X135798000Y-99238750D01*
X135749250Y-99190000D01*
X135798000Y-99141250D01*
X135798000Y-98317000D01*
X134923750Y-98317000D01*
X134915000Y-98325750D01*
X134906250Y-98317000D01*
X134032000Y-98317000D01*
X133778000Y-98317000D01*
X133758000Y-98317000D01*
X133758000Y-98063000D01*
X133778000Y-98063000D01*
X133778000Y-97238750D01*
X134032000Y-97238750D01*
X134032000Y-98063000D01*
X134906250Y-98063000D01*
X134915000Y-98054250D01*
X134923750Y-98063000D01*
X135798000Y-98063000D01*
X135798000Y-97238750D01*
X135639250Y-97080000D01*
X135273691Y-97080000D01*
X135040302Y-97176673D01*
X134915000Y-97301974D01*
X134789698Y-97176673D01*
X134556309Y-97080000D01*
X134190750Y-97080000D01*
X134032000Y-97238750D01*
X133778000Y-97238750D01*
X133619250Y-97080000D01*
X133253691Y-97080000D01*
X133090000Y-97147803D01*
X133090000Y-97093711D01*
X133207431Y-96976280D01*
X133365000Y-96595874D01*
X133365000Y-96184126D01*
X133207431Y-95803720D01*
X132978711Y-95575000D01*
X134030153Y-95575000D01*
X134105000Y-95589888D01*
X134179847Y-95575000D01*
X134179852Y-95575000D01*
X134401537Y-95530904D01*
X134652929Y-95362929D01*
X134695331Y-95299470D01*
X135655000Y-94339802D01*
X135655000Y-94675874D01*
G36*
X142670000Y-99218841D02*
X142443720Y-99312569D01*
X142152569Y-99603720D01*
X141995000Y-99984126D01*
X141995000Y-100395874D01*
X142152569Y-100776280D01*
X142443720Y-101067431D01*
X142467794Y-101077403D01*
X138855000Y-104690198D01*
X138855000Y-104648690D01*
X138758327Y-104415301D01*
X138718026Y-104375000D01*
X138758327Y-104334699D01*
X138855000Y-104101310D01*
X138855000Y-103785750D01*
X138696250Y-103627000D01*
X137822000Y-103627000D01*
X137822000Y-105123000D01*
X137842000Y-105123000D01*
X137842000Y-105377000D01*
X137822000Y-105377000D01*
X137822000Y-105397000D01*
X137568000Y-105397000D01*
X137568000Y-105377000D01*
X137548000Y-105377000D01*
X137548000Y-105123000D01*
X137568000Y-105123000D01*
X137568000Y-103627000D01*
X137548000Y-103627000D01*
X137548000Y-103373000D01*
X137568000Y-103373000D01*
X137568000Y-103353000D01*
X137822000Y-103353000D01*
X137822000Y-103373000D01*
X138696250Y-103373000D01*
X138855000Y-103214250D01*
X138855000Y-102898690D01*
X138758327Y-102665301D01*
X138596052Y-102503026D01*
X138787798Y-102311280D01*
X138945367Y-101930874D01*
X138945367Y-101519126D01*
X138787798Y-101138720D01*
X138633940Y-100984862D01*
X138780078Y-100766152D01*
X138847440Y-100427500D01*
X138847440Y-99952500D01*
X138780078Y-99613848D01*
X138588247Y-99326753D01*
X138460000Y-99241061D01*
X138460000Y-99138939D01*
X138588247Y-99053247D01*
X138657235Y-98950000D01*
X139080153Y-98950000D01*
X139155000Y-98964888D01*
X139229847Y-98950000D01*
X139229852Y-98950000D01*
X139451537Y-98905904D01*
X139537496Y-98848468D01*
X139652569Y-99126280D01*
X139943720Y-99417431D01*
X140324126Y-99575000D01*
X140735874Y-99575000D01*
X141116280Y-99417431D01*
X141407431Y-99126280D01*
X141565000Y-98745874D01*
X141565000Y-98334126D01*
X141563733Y-98331068D01*
X142669999Y-97224802D01*
X142670000Y-99218841D01*
X142670000Y-99218841D01*
G37*
X142670000Y-99218841D02*
X142443720Y-99312569D01*
X142152569Y-99603720D01*
X141995000Y-99984126D01*
X141995000Y-100395874D01*
X142152569Y-100776280D01*
X142443720Y-101067431D01*
X142467794Y-101077403D01*
X138855000Y-104690198D01*
X138855000Y-104648690D01*
X138758327Y-104415301D01*
X138718026Y-104375000D01*
X138758327Y-104334699D01*
X138855000Y-104101310D01*
X138855000Y-103785750D01*
X138696250Y-103627000D01*
X137822000Y-103627000D01*
X137822000Y-105123000D01*
X137842000Y-105123000D01*
X137842000Y-105377000D01*
X137822000Y-105377000D01*
X137822000Y-105397000D01*
X137568000Y-105397000D01*
X137568000Y-105377000D01*
X137548000Y-105377000D01*
X137548000Y-105123000D01*
X137568000Y-105123000D01*
X137568000Y-103627000D01*
X137548000Y-103627000D01*
X137548000Y-103373000D01*
X137568000Y-103373000D01*
X137568000Y-103353000D01*
X137822000Y-103353000D01*
X137822000Y-103373000D01*
X138696250Y-103373000D01*
X138855000Y-103214250D01*
X138855000Y-102898690D01*
X138758327Y-102665301D01*
X138596052Y-102503026D01*
X138787798Y-102311280D01*
X138945367Y-101930874D01*
X138945367Y-101519126D01*
X138787798Y-101138720D01*
X138633940Y-100984862D01*
X138780078Y-100766152D01*
X138847440Y-100427500D01*
X138847440Y-99952500D01*
X138780078Y-99613848D01*
X138588247Y-99326753D01*
X138460000Y-99241061D01*
X138460000Y-99138939D01*
X138588247Y-99053247D01*
X138657235Y-98950000D01*
X139080153Y-98950000D01*
X139155000Y-98964888D01*
X139229847Y-98950000D01*
X139229852Y-98950000D01*
X139451537Y-98905904D01*
X139537496Y-98848468D01*
X139652569Y-99126280D01*
X139943720Y-99417431D01*
X140324126Y-99575000D01*
X140735874Y-99575000D01*
X141116280Y-99417431D01*
X141407431Y-99126280D01*
X141565000Y-98745874D01*
X141565000Y-98334126D01*
X141563733Y-98331068D01*
X142669999Y-97224802D01*
X142670000Y-99218841D01*
G36*
X130077000Y-100188000D02*
X130097000Y-100188000D01*
X130097000Y-100442000D01*
X130077000Y-100442000D01*
X130077000Y-101316250D01*
X130235750Y-101475000D01*
X130551310Y-101475000D01*
X130784699Y-101378327D01*
X130902655Y-101260371D01*
X130956466Y-101282660D01*
X131335001Y-101282660D01*
X131335001Y-101355884D01*
X131492570Y-101736290D01*
X131783721Y-102027441D01*
X132085002Y-102152235D01*
X132085002Y-102489908D01*
X131855874Y-102395000D01*
X131444126Y-102395000D01*
X131063720Y-102552569D01*
X130936289Y-102680000D01*
X129842440Y-102680000D01*
X129842440Y-102527500D01*
X129775078Y-102188848D01*
X129583247Y-101901753D01*
X129460000Y-101819402D01*
X129460000Y-101475000D01*
X129664250Y-101475000D01*
X129823000Y-101316250D01*
X129823000Y-100442000D01*
X129803000Y-100442000D01*
X129803000Y-100188000D01*
X129823000Y-100188000D01*
X129823000Y-100168000D01*
X130077000Y-100168000D01*
X130077000Y-100188000D01*
X130077000Y-100188000D01*
G37*
X130077000Y-100188000D02*
X130097000Y-100188000D01*
X130097000Y-100442000D01*
X130077000Y-100442000D01*
X130077000Y-101316250D01*
X130235750Y-101475000D01*
X130551310Y-101475000D01*
X130784699Y-101378327D01*
X130902655Y-101260371D01*
X130956466Y-101282660D01*
X131335001Y-101282660D01*
X131335001Y-101355884D01*
X131492570Y-101736290D01*
X131783721Y-102027441D01*
X132085002Y-102152235D01*
X132085002Y-102489908D01*
X131855874Y-102395000D01*
X131444126Y-102395000D01*
X131063720Y-102552569D01*
X130936289Y-102680000D01*
X129842440Y-102680000D01*
X129842440Y-102527500D01*
X129775078Y-102188848D01*
X129583247Y-101901753D01*
X129460000Y-101819402D01*
X129460000Y-101475000D01*
X129664250Y-101475000D01*
X129823000Y-101316250D01*
X129823000Y-100442000D01*
X129803000Y-100442000D01*
X129803000Y-100188000D01*
X129823000Y-100188000D01*
X129823000Y-100168000D01*
X130077000Y-100168000D01*
X130077000Y-100188000D01*
G36*
X137032936Y-102311280D02*
X137111656Y-102390000D01*
X137043691Y-102390000D01*
X136810302Y-102486673D01*
X136739540Y-102557435D01*
X136705000Y-102534356D01*
X136705000Y-102358725D01*
X136727447Y-102336278D01*
X136885016Y-101955872D01*
X136885016Y-101954169D01*
X137032936Y-102311280D01*
X137032936Y-102311280D01*
G37*
X137032936Y-102311280D02*
X137111656Y-102390000D01*
X137043691Y-102390000D01*
X136810302Y-102486673D01*
X136739540Y-102557435D01*
X136705000Y-102534356D01*
X136705000Y-102358725D01*
X136727447Y-102336278D01*
X136885016Y-101955872D01*
X136885016Y-101954169D01*
X137032936Y-102311280D01*
G36*
X124819671Y-87034476D02*
X124862069Y-87097929D01*
X124925522Y-87140327D01*
X124925524Y-87140329D01*
X124970770Y-87170561D01*
X125113461Y-87265904D01*
X125335146Y-87310000D01*
X125335150Y-87310000D01*
X125409997Y-87324888D01*
X125484844Y-87310000D01*
X126921837Y-87310000D01*
X126987191Y-87407809D01*
X126990988Y-87410346D01*
X126814922Y-87673848D01*
X126747560Y-88012500D01*
X126747560Y-88487500D01*
X126814922Y-88826152D01*
X127006753Y-89113247D01*
X127293848Y-89305078D01*
X127331776Y-89312622D01*
X127372072Y-89372929D01*
X127435528Y-89415329D01*
X130664671Y-92644473D01*
X130707071Y-92707929D01*
X130958463Y-92875904D01*
X131079601Y-92900000D01*
X129754846Y-92900000D01*
X129679999Y-92885112D01*
X129605152Y-92900000D01*
X129605148Y-92900000D01*
X129580011Y-92905000D01*
X128674846Y-92905000D01*
X128599999Y-92890112D01*
X128525152Y-92905000D01*
X128525148Y-92905000D01*
X128303463Y-92949096D01*
X128052071Y-93117071D01*
X128009671Y-93180527D01*
X127572638Y-93617560D01*
X127237500Y-93617560D01*
X126898848Y-93684922D01*
X126611753Y-93876753D01*
X126419922Y-94163848D01*
X126379063Y-94369260D01*
X119140000Y-87130199D01*
X119140000Y-81354803D01*
X124819671Y-87034476D01*
X124819671Y-87034476D01*
G37*
X124819671Y-87034476D02*
X124862069Y-87097929D01*
X124925522Y-87140327D01*
X124925524Y-87140329D01*
X124970770Y-87170561D01*
X125113461Y-87265904D01*
X125335146Y-87310000D01*
X125335150Y-87310000D01*
X125409997Y-87324888D01*
X125484844Y-87310000D01*
X126921837Y-87310000D01*
X126987191Y-87407809D01*
X126990988Y-87410346D01*
X126814922Y-87673848D01*
X126747560Y-88012500D01*
X126747560Y-88487500D01*
X126814922Y-88826152D01*
X127006753Y-89113247D01*
X127293848Y-89305078D01*
X127331776Y-89312622D01*
X127372072Y-89372929D01*
X127435528Y-89415329D01*
X130664671Y-92644473D01*
X130707071Y-92707929D01*
X130958463Y-92875904D01*
X131079601Y-92900000D01*
X129754846Y-92900000D01*
X129679999Y-92885112D01*
X129605152Y-92900000D01*
X129605148Y-92900000D01*
X129580011Y-92905000D01*
X128674846Y-92905000D01*
X128599999Y-92890112D01*
X128525152Y-92905000D01*
X128525148Y-92905000D01*
X128303463Y-92949096D01*
X128052071Y-93117071D01*
X128009671Y-93180527D01*
X127572638Y-93617560D01*
X127237500Y-93617560D01*
X126898848Y-93684922D01*
X126611753Y-93876753D01*
X126419922Y-94163848D01*
X126379063Y-94369260D01*
X119140000Y-87130199D01*
X119140000Y-81354803D01*
X124819671Y-87034476D01*
G36*
X150370000Y-84875198D02*
X142684045Y-92561154D01*
X142322935Y-92561154D01*
X142322935Y-92390270D01*
X142165366Y-92009864D01*
X141874215Y-91718713D01*
X141493809Y-91561144D01*
X141327737Y-91561144D01*
X138080002Y-88313410D01*
X138080002Y-82780000D01*
X139725153Y-82780000D01*
X139800000Y-82794888D01*
X139874847Y-82780000D01*
X139874852Y-82780000D01*
X140096537Y-82735904D01*
X140347929Y-82567929D01*
X140390331Y-82504470D01*
X140944802Y-81950000D01*
X145505153Y-81950000D01*
X145580000Y-81964888D01*
X145654847Y-81950000D01*
X145654852Y-81950000D01*
X145876537Y-81905904D01*
X146127929Y-81737929D01*
X146170331Y-81674470D01*
X150370001Y-77474801D01*
X150370000Y-84875198D01*
X150370000Y-84875198D01*
G37*
X150370000Y-84875198D02*
X142684045Y-92561154D01*
X142322935Y-92561154D01*
X142322935Y-92390270D01*
X142165366Y-92009864D01*
X141874215Y-91718713D01*
X141493809Y-91561144D01*
X141327737Y-91561144D01*
X138080002Y-88313410D01*
X138080002Y-82780000D01*
X139725153Y-82780000D01*
X139800000Y-82794888D01*
X139874847Y-82780000D01*
X139874852Y-82780000D01*
X140096537Y-82735904D01*
X140347929Y-82567929D01*
X140390331Y-82504470D01*
X140944802Y-81950000D01*
X145505153Y-81950000D01*
X145580000Y-81964888D01*
X145654847Y-81950000D01*
X145654852Y-81950000D01*
X145876537Y-81905904D01*
X146127929Y-81737929D01*
X146170331Y-81674470D01*
X150370001Y-77474801D01*
X150370000Y-84875198D01*
G36*
X133730000Y-91192983D02*
X133565874Y-91125000D01*
X133154126Y-91125000D01*
X132773720Y-91282569D01*
X132656289Y-91400000D01*
X131569802Y-91400000D01*
X129457026Y-89287224D01*
X129543000Y-89201250D01*
X129543000Y-88377000D01*
X129797000Y-88377000D01*
X129797000Y-89201250D01*
X129955750Y-89360000D01*
X130321309Y-89360000D01*
X130554698Y-89263327D01*
X130733327Y-89084699D01*
X130830000Y-88851310D01*
X130830000Y-88535750D01*
X130671250Y-88377000D01*
X129797000Y-88377000D01*
X129543000Y-88377000D01*
X129523000Y-88377000D01*
X129523000Y-88123000D01*
X129543000Y-88123000D01*
X129543000Y-88103000D01*
X129797000Y-88103000D01*
X129797000Y-88123000D01*
X130671250Y-88123000D01*
X130830000Y-87964250D01*
X130830000Y-87648690D01*
X130733327Y-87415301D01*
X130554698Y-87236673D01*
X130519318Y-87222018D01*
X130600078Y-87101152D01*
X130667440Y-86762500D01*
X130667440Y-86187500D01*
X130600078Y-85848848D01*
X130433803Y-85600000D01*
X130510644Y-85485000D01*
X131090153Y-85485000D01*
X131165000Y-85499888D01*
X131239847Y-85485000D01*
X131239852Y-85485000D01*
X131461537Y-85440904D01*
X131712929Y-85272929D01*
X131755331Y-85209470D01*
X132839802Y-84125000D01*
X133005874Y-84125000D01*
X133386280Y-83967431D01*
X133677431Y-83676280D01*
X133730001Y-83549365D01*
X133730000Y-91192983D01*
X133730000Y-91192983D01*
G37*
X133730000Y-91192983D02*
X133565874Y-91125000D01*
X133154126Y-91125000D01*
X132773720Y-91282569D01*
X132656289Y-91400000D01*
X131569802Y-91400000D01*
X129457026Y-89287224D01*
X129543000Y-89201250D01*
X129543000Y-88377000D01*
X129797000Y-88377000D01*
X129797000Y-89201250D01*
X129955750Y-89360000D01*
X130321309Y-89360000D01*
X130554698Y-89263327D01*
X130733327Y-89084699D01*
X130830000Y-88851310D01*
X130830000Y-88535750D01*
X130671250Y-88377000D01*
X129797000Y-88377000D01*
X129543000Y-88377000D01*
X129523000Y-88377000D01*
X129523000Y-88123000D01*
X129543000Y-88123000D01*
X129543000Y-88103000D01*
X129797000Y-88103000D01*
X129797000Y-88123000D01*
X130671250Y-88123000D01*
X130830000Y-87964250D01*
X130830000Y-87648690D01*
X130733327Y-87415301D01*
X130554698Y-87236673D01*
X130519318Y-87222018D01*
X130600078Y-87101152D01*
X130667440Y-86762500D01*
X130667440Y-86187500D01*
X130600078Y-85848848D01*
X130433803Y-85600000D01*
X130510644Y-85485000D01*
X131090153Y-85485000D01*
X131165000Y-85499888D01*
X131239847Y-85485000D01*
X131239852Y-85485000D01*
X131461537Y-85440904D01*
X131712929Y-85272929D01*
X131755331Y-85209470D01*
X132839802Y-84125000D01*
X133005874Y-84125000D01*
X133386280Y-83967431D01*
X133677431Y-83676280D01*
X133730001Y-83549365D01*
X133730000Y-91192983D01*
G36*
X132495000Y-77590000D02*
X132512500Y-77677979D01*
X132512500Y-77693849D01*
X132604609Y-78156910D01*
X132955477Y-78682023D01*
X133480589Y-79032891D01*
X133730001Y-79082502D01*
X133730001Y-80820199D01*
X133400331Y-80490530D01*
X133357929Y-80427071D01*
X133106537Y-80259096D01*
X132884852Y-80215000D01*
X132884847Y-80215000D01*
X132810000Y-80200112D01*
X132735153Y-80215000D01*
X130510644Y-80215000D01*
X130408247Y-80061753D01*
X130121152Y-79869922D01*
X129782500Y-79802560D01*
X129307500Y-79802560D01*
X128968848Y-79869922D01*
X128820675Y-79968928D01*
X128802809Y-79942191D01*
X128718113Y-79885598D01*
X128827431Y-79776280D01*
X128985000Y-79395874D01*
X128985000Y-78984126D01*
X128827431Y-78603720D01*
X128536280Y-78312569D01*
X128155874Y-78155000D01*
X127744126Y-78155000D01*
X127363720Y-78312569D01*
X127072569Y-78603720D01*
X126915000Y-78984126D01*
X126915000Y-79395874D01*
X127072569Y-79776280D01*
X127135001Y-79838712D01*
X127135001Y-79843427D01*
X126987191Y-79942191D01*
X126846843Y-80152235D01*
X126797560Y-80400000D01*
X126797560Y-80888684D01*
X126655000Y-80793427D01*
X126655000Y-77939801D01*
X129069802Y-75525000D01*
X132495000Y-75525000D01*
X132495000Y-77590000D01*
X132495000Y-77590000D01*
G37*
X132495000Y-77590000D02*
X132512500Y-77677979D01*
X132512500Y-77693849D01*
X132604609Y-78156910D01*
X132955477Y-78682023D01*
X133480589Y-79032891D01*
X133730001Y-79082502D01*
X133730001Y-80820199D01*
X133400331Y-80490530D01*
X133357929Y-80427071D01*
X133106537Y-80259096D01*
X132884852Y-80215000D01*
X132884847Y-80215000D01*
X132810000Y-80200112D01*
X132735153Y-80215000D01*
X130510644Y-80215000D01*
X130408247Y-80061753D01*
X130121152Y-79869922D01*
X129782500Y-79802560D01*
X129307500Y-79802560D01*
X128968848Y-79869922D01*
X128820675Y-79968928D01*
X128802809Y-79942191D01*
X128718113Y-79885598D01*
X128827431Y-79776280D01*
X128985000Y-79395874D01*
X128985000Y-78984126D01*
X128827431Y-78603720D01*
X128536280Y-78312569D01*
X128155874Y-78155000D01*
X127744126Y-78155000D01*
X127363720Y-78312569D01*
X127072569Y-78603720D01*
X126915000Y-78984126D01*
X126915000Y-79395874D01*
X127072569Y-79776280D01*
X127135001Y-79838712D01*
X127135001Y-79843427D01*
X126987191Y-79942191D01*
X126846843Y-80152235D01*
X126797560Y-80400000D01*
X126797560Y-80888684D01*
X126655000Y-80793427D01*
X126655000Y-77939801D01*
X129069802Y-75525000D01*
X132495000Y-75525000D01*
X132495000Y-77590000D01*
G04 #@! TD*
M02*
