G04 #@! TF.GenerationSoftware,KiCad,Pcbnew,5.0.2-bee76a0~70~ubuntu16.04.1*
G04 #@! TF.CreationDate,2019-05-21T20:19:14+01:00*
G04 #@! TF.ProjectId,project,70726f6a-6563-4742-9e6b-696361645f70,rev?*
G04 #@! TF.SameCoordinates,Original*
G04 #@! TF.FileFunction,Profile,NP*
%FSLAX46Y46*%
G04 Gerber Fmt 4.6, Leading zero omitted, Abs format (unit mm)*
G04 Created by KiCad (PCBNEW 5.0.2-bee76a0~70~ubuntu16.04.1) date Tue 21 May 2019 20:19:14 BST*
%MOMM*%
%LPD*%
G01*
G04 APERTURE LIST*
%ADD10C,0.100000*%
G04 APERTURE END LIST*
D10*
X116231819Y-59632632D02*
X114907302Y-60458286D01*
X160058471Y-61337838D02*
X158812136Y-60376551D01*
X165533455Y-70835703D02*
X165157256Y-69276109D01*
X164996743Y-80696543D02*
X165647070Y-77342955D01*
X122104659Y-57775713D02*
X120570934Y-58014154D01*
X108185942Y-70917455D02*
X107957079Y-72515368D01*
X162264848Y-63636556D02*
X161216279Y-62430292D01*
X107879841Y-74140812D02*
X108020062Y-77466759D01*
X114907302Y-60458286D02*
X113660963Y-61419575D01*
X165839559Y-74059052D02*
X165762319Y-72433612D01*
X109015684Y-82613920D02*
X109639986Y-84356805D01*
X125602703Y-57860213D02*
X123664811Y-57695242D01*
X151614804Y-57693963D02*
X150054659Y-57613482D01*
X141666548Y-61145019D02*
X140645319Y-62587292D01*
X163980000Y-66315000D02*
X163187518Y-64935053D01*
X153148523Y-57932411D02*
X151614804Y-57693963D01*
X163187518Y-64935053D02*
X162264848Y-63636556D01*
X130688417Y-60076512D02*
X129128029Y-59081151D01*
X117624164Y-58947081D02*
X116231819Y-59632632D01*
X132904413Y-62607152D02*
X131700405Y-61155449D01*
X150054659Y-57613482D02*
X150054659Y-57613502D01*
X137969879Y-65243052D02*
X136850066Y-65323452D01*
X140034060Y-63583092D02*
X139341779Y-64504612D01*
X136850066Y-65323452D02*
X135839149Y-65210392D01*
X108562143Y-69357858D02*
X108185942Y-70917455D01*
X143452123Y-109369001D02*
X151012541Y-101330669D01*
X111451761Y-87860772D02*
X115457121Y-93331904D01*
X123664811Y-57695242D02*
X122104659Y-57775713D01*
X140645319Y-62587292D02*
X140034060Y-63583092D01*
X122017300Y-101250816D02*
X125787418Y-105435703D01*
X154645466Y-58324361D02*
X153148523Y-57932411D01*
X127428284Y-58332283D02*
X125602703Y-57860213D01*
X110445094Y-86107008D02*
X111451761Y-87860772D01*
X119073985Y-58406099D02*
X117624164Y-58947081D01*
X108020062Y-77466759D02*
X108551432Y-80882112D01*
X161885319Y-87878542D02*
X163779264Y-84186258D01*
X125787418Y-105435703D02*
X129634609Y-109401551D01*
X144509240Y-58962549D02*
X142885769Y-59911982D01*
X157487623Y-59550898D02*
X156095283Y-58865346D01*
X142227093Y-60473307D02*
X141666548Y-61145019D01*
X139341779Y-64504612D02*
X138672082Y-64957506D01*
X109081395Y-67847359D02*
X108562143Y-69357858D01*
X148101726Y-57776999D02*
X146250573Y-58238784D01*
X120570934Y-58014154D02*
X119073985Y-58406099D01*
X115457121Y-93331904D02*
X122017300Y-101250816D01*
X165647070Y-77342955D02*
X165839559Y-74059052D01*
X165762319Y-72433612D02*
X165533455Y-70835703D01*
X134481555Y-64481432D02*
X133654726Y-63583611D01*
X163779264Y-84186258D02*
X164996743Y-80696543D01*
X113660963Y-61419575D02*
X112503151Y-62512032D01*
X138672082Y-64957506D02*
X137969879Y-65243052D01*
X157740858Y-93488677D02*
X160245555Y-90277407D01*
X129128029Y-59081151D02*
X127428284Y-58332283D01*
X142885769Y-59911982D02*
X142227093Y-60473307D01*
X160245555Y-90277407D02*
X161885319Y-87878542D01*
X158812136Y-60376551D02*
X157487623Y-59550898D01*
X109739409Y-66396744D02*
X109081395Y-67847359D01*
X109639986Y-84356805D02*
X110445094Y-86107008D01*
X146250573Y-58238784D02*
X144509240Y-58962549D01*
X161216279Y-62430292D02*
X160058471Y-61337838D01*
X108551432Y-80882112D02*
X109015684Y-82613920D01*
X135839149Y-65210392D02*
X134481555Y-64481432D01*
X150054659Y-57613502D02*
X148101726Y-57776999D01*
X111454574Y-63718296D02*
X110531898Y-65016795D01*
X133654726Y-63583611D02*
X132904413Y-62607152D01*
X133371660Y-112871365D02*
X136811361Y-115568152D01*
X139907300Y-112825694D02*
X143452123Y-109369001D01*
X151012541Y-101330669D02*
X157740858Y-93488677D01*
X112503151Y-62512032D02*
X111454574Y-63718296D01*
X110531898Y-65016795D02*
X109739409Y-66396744D01*
X131700405Y-61155449D02*
X130688417Y-60076512D01*
X165157256Y-69276109D02*
X164638009Y-67765613D01*
X129634609Y-109401551D02*
X133371660Y-112871365D01*
X107957079Y-72515368D02*
X107879841Y-74140812D01*
X156095283Y-58865346D02*
X154645466Y-58324361D01*
X164638009Y-67765613D02*
X163980000Y-66315000D01*
X136811361Y-115568152D02*
X139907300Y-112825694D01*
M02*
