G04 #@! TF.GenerationSoftware,KiCad,Pcbnew,5.0.2-bee76a0~70~ubuntu16.04.1*
G04 #@! TF.CreationDate,2019-05-19T16:37:23+01:00*
G04 #@! TF.ProjectId,project,70726f6a-6563-4742-9e6b-696361645f70,rev?*
G04 #@! TF.SameCoordinates,Original*
G04 #@! TF.FileFunction,Soldermask,Bot*
G04 #@! TF.FilePolarity,Negative*
%FSLAX46Y46*%
G04 Gerber Fmt 4.6, Leading zero omitted, Abs format (unit mm)*
G04 Created by KiCad (PCBNEW 5.0.2-bee76a0~70~ubuntu16.04.1) date Sun 19 May 2019 16:37:23 BST*
%MOMM*%
%LPD*%
G01*
G04 APERTURE LIST*
%ADD10C,0.101600*%
%ADD11C,0.076200*%
%ADD12C,0.150000*%
%ADD13C,0.127000*%
%ADD14R,3.000000X3.000000*%
%ADD15C,3.000000*%
%ADD16C,0.100000*%
%ADD17C,0.950000*%
%ADD18O,1.905000X2.000000*%
%ADD19R,1.905000X2.000000*%
%ADD20R,0.900000X0.800000*%
%ADD21C,1.150000*%
%ADD22C,6.400000*%
%ADD23C,1.700000*%
%ADD24C,1.700000*%
%ADD25C,0.254000*%
G04 APERTURE END LIST*
D10*
G04 #@! TO.C,REF\002A\002A*
X122870000Y-97760000D02*
X122710000Y-97240000D01*
X122830000Y-97540000D02*
X122870000Y-97760000D01*
X122950000Y-97260000D02*
X122830000Y-97540000D01*
X123170000Y-96960000D02*
X122950000Y-97260000D01*
X123260000Y-96530000D02*
X123170000Y-96960000D01*
X122890000Y-96540000D02*
X122890000Y-96370000D01*
X122870000Y-96640000D02*
X122890000Y-96540000D01*
X122920000Y-96730000D02*
X122870000Y-96640000D01*
X123040000Y-96760000D02*
X122920000Y-96730000D01*
X123160000Y-96630000D02*
X123040000Y-96760000D01*
X123230000Y-96440000D02*
X123160000Y-96630000D01*
X122710000Y-96440000D02*
X122800000Y-96310000D01*
X122580000Y-96470000D02*
X122710000Y-96440000D01*
X122470000Y-96430000D02*
X122580000Y-96470000D01*
X122430000Y-96330000D02*
X122470000Y-96430000D01*
X122430000Y-96190000D02*
X122430000Y-96330000D01*
X122530000Y-96050000D02*
X122430000Y-96190000D01*
X122710000Y-95940000D02*
X122530000Y-96050000D01*
X122610000Y-95910000D02*
X122710000Y-95910000D01*
X122460000Y-95900000D02*
X122610000Y-95910000D01*
X122360000Y-95830000D02*
X122460000Y-95900000D01*
X122380000Y-95680000D02*
X122360000Y-95830000D01*
X122490000Y-95580000D02*
X122380000Y-95680000D01*
X122860000Y-95590000D02*
X122490000Y-95580000D01*
X122740000Y-95460000D02*
X122830000Y-95600000D01*
X122720000Y-95350000D02*
X122740000Y-95460000D01*
X122770000Y-95240000D02*
X122720000Y-95350000D01*
X122940000Y-95210000D02*
X122770000Y-95240000D01*
X123100000Y-95270000D02*
X122940000Y-95210000D01*
X123190000Y-95540000D02*
X123100000Y-95270000D01*
X123290000Y-96450000D02*
X123300000Y-96420000D01*
X123260000Y-96430000D02*
X123290000Y-96450000D01*
X123280000Y-96450000D02*
X123260000Y-96430000D01*
X123300000Y-96560000D02*
X123280000Y-96450000D01*
X123360000Y-96670000D02*
X123300000Y-96560000D01*
X123480000Y-96710000D02*
X123360000Y-96670000D01*
X123590000Y-96670000D02*
X123480000Y-96710000D01*
X123600000Y-96480000D02*
X123590000Y-96670000D01*
X123520000Y-96280000D02*
X123600000Y-96480000D01*
X123790000Y-96320000D02*
X123540000Y-96260000D01*
X123910000Y-96240000D02*
X123790000Y-96320000D01*
X123950000Y-96110000D02*
X123910000Y-96240000D01*
X123860000Y-95960000D02*
X123950000Y-96110000D01*
X123590000Y-95910000D02*
X123860000Y-95960000D01*
X123810000Y-95790000D02*
X123600000Y-95840000D01*
X123920000Y-95620000D02*
X123810000Y-95790000D01*
X123810000Y-95430000D02*
X123920000Y-95620000D01*
X123530000Y-95360000D02*
X123810000Y-95430000D01*
X123260000Y-95500000D02*
X123530000Y-95360000D01*
D11*
X123090000Y-96170000D02*
X122970000Y-96080000D01*
X123220000Y-96180000D02*
X123090000Y-96170000D01*
X123340000Y-96110000D02*
X123220000Y-96180000D01*
D12*
X123321623Y-95890000D02*
G75*
G03X123321623Y-95890000I-31623J0D01*
G01*
D13*
X123560000Y-95970000D02*
G75*
G03X123560000Y-95970000I-410000J0D01*
G01*
D12*
X123041623Y-95890000D02*
G75*
G03X123041623Y-95890000I-31623J0D01*
G01*
G04 #@! TD*
D14*
G04 #@! TO.C,SC1*
X143130000Y-73270000D03*
D15*
X143130000Y-68190000D03*
G04 #@! TD*
D16*
G04 #@! TO.C,C6*
G36*
X137985779Y-97716144D02*
X138008834Y-97719563D01*
X138031443Y-97725227D01*
X138053387Y-97733079D01*
X138074457Y-97743044D01*
X138094448Y-97755026D01*
X138113168Y-97768910D01*
X138130438Y-97784562D01*
X138146090Y-97801832D01*
X138159974Y-97820552D01*
X138171956Y-97840543D01*
X138181921Y-97861613D01*
X138189773Y-97883557D01*
X138195437Y-97906166D01*
X138198856Y-97929221D01*
X138200000Y-97952500D01*
X138200000Y-98427500D01*
X138198856Y-98450779D01*
X138195437Y-98473834D01*
X138189773Y-98496443D01*
X138181921Y-98518387D01*
X138171956Y-98539457D01*
X138159974Y-98559448D01*
X138146090Y-98578168D01*
X138130438Y-98595438D01*
X138113168Y-98611090D01*
X138094448Y-98624974D01*
X138074457Y-98636956D01*
X138053387Y-98646921D01*
X138031443Y-98654773D01*
X138008834Y-98660437D01*
X137985779Y-98663856D01*
X137962500Y-98665000D01*
X137387500Y-98665000D01*
X137364221Y-98663856D01*
X137341166Y-98660437D01*
X137318557Y-98654773D01*
X137296613Y-98646921D01*
X137275543Y-98636956D01*
X137255552Y-98624974D01*
X137236832Y-98611090D01*
X137219562Y-98595438D01*
X137203910Y-98578168D01*
X137190026Y-98559448D01*
X137178044Y-98539457D01*
X137168079Y-98518387D01*
X137160227Y-98496443D01*
X137154563Y-98473834D01*
X137151144Y-98450779D01*
X137150000Y-98427500D01*
X137150000Y-97952500D01*
X137151144Y-97929221D01*
X137154563Y-97906166D01*
X137160227Y-97883557D01*
X137168079Y-97861613D01*
X137178044Y-97840543D01*
X137190026Y-97820552D01*
X137203910Y-97801832D01*
X137219562Y-97784562D01*
X137236832Y-97768910D01*
X137255552Y-97755026D01*
X137275543Y-97743044D01*
X137296613Y-97733079D01*
X137318557Y-97725227D01*
X137341166Y-97719563D01*
X137364221Y-97716144D01*
X137387500Y-97715000D01*
X137962500Y-97715000D01*
X137985779Y-97716144D01*
X137985779Y-97716144D01*
G37*
D17*
X137675000Y-98190000D03*
D16*
G36*
X136235779Y-97716144D02*
X136258834Y-97719563D01*
X136281443Y-97725227D01*
X136303387Y-97733079D01*
X136324457Y-97743044D01*
X136344448Y-97755026D01*
X136363168Y-97768910D01*
X136380438Y-97784562D01*
X136396090Y-97801832D01*
X136409974Y-97820552D01*
X136421956Y-97840543D01*
X136431921Y-97861613D01*
X136439773Y-97883557D01*
X136445437Y-97906166D01*
X136448856Y-97929221D01*
X136450000Y-97952500D01*
X136450000Y-98427500D01*
X136448856Y-98450779D01*
X136445437Y-98473834D01*
X136439773Y-98496443D01*
X136431921Y-98518387D01*
X136421956Y-98539457D01*
X136409974Y-98559448D01*
X136396090Y-98578168D01*
X136380438Y-98595438D01*
X136363168Y-98611090D01*
X136344448Y-98624974D01*
X136324457Y-98636956D01*
X136303387Y-98646921D01*
X136281443Y-98654773D01*
X136258834Y-98660437D01*
X136235779Y-98663856D01*
X136212500Y-98665000D01*
X135637500Y-98665000D01*
X135614221Y-98663856D01*
X135591166Y-98660437D01*
X135568557Y-98654773D01*
X135546613Y-98646921D01*
X135525543Y-98636956D01*
X135505552Y-98624974D01*
X135486832Y-98611090D01*
X135469562Y-98595438D01*
X135453910Y-98578168D01*
X135440026Y-98559448D01*
X135428044Y-98539457D01*
X135418079Y-98518387D01*
X135410227Y-98496443D01*
X135404563Y-98473834D01*
X135401144Y-98450779D01*
X135400000Y-98427500D01*
X135400000Y-97952500D01*
X135401144Y-97929221D01*
X135404563Y-97906166D01*
X135410227Y-97883557D01*
X135418079Y-97861613D01*
X135428044Y-97840543D01*
X135440026Y-97820552D01*
X135453910Y-97801832D01*
X135469562Y-97784562D01*
X135486832Y-97768910D01*
X135505552Y-97755026D01*
X135525543Y-97743044D01*
X135546613Y-97733079D01*
X135568557Y-97725227D01*
X135591166Y-97719563D01*
X135614221Y-97716144D01*
X135637500Y-97715000D01*
X136212500Y-97715000D01*
X136235779Y-97716144D01*
X136235779Y-97716144D01*
G37*
D17*
X135925000Y-98190000D03*
G04 #@! TD*
D18*
G04 #@! TO.C,Q3*
X134100000Y-77490000D03*
X136640000Y-77490000D03*
D19*
X139180000Y-77490000D03*
G04 #@! TD*
D16*
G04 #@! TO.C,C2*
G36*
X129805779Y-82201144D02*
X129828834Y-82204563D01*
X129851443Y-82210227D01*
X129873387Y-82218079D01*
X129894457Y-82228044D01*
X129914448Y-82240026D01*
X129933168Y-82253910D01*
X129950438Y-82269562D01*
X129966090Y-82286832D01*
X129979974Y-82305552D01*
X129991956Y-82325543D01*
X130001921Y-82346613D01*
X130009773Y-82368557D01*
X130015437Y-82391166D01*
X130018856Y-82414221D01*
X130020000Y-82437500D01*
X130020000Y-83012500D01*
X130018856Y-83035779D01*
X130015437Y-83058834D01*
X130009773Y-83081443D01*
X130001921Y-83103387D01*
X129991956Y-83124457D01*
X129979974Y-83144448D01*
X129966090Y-83163168D01*
X129950438Y-83180438D01*
X129933168Y-83196090D01*
X129914448Y-83209974D01*
X129894457Y-83221956D01*
X129873387Y-83231921D01*
X129851443Y-83239773D01*
X129828834Y-83245437D01*
X129805779Y-83248856D01*
X129782500Y-83250000D01*
X129307500Y-83250000D01*
X129284221Y-83248856D01*
X129261166Y-83245437D01*
X129238557Y-83239773D01*
X129216613Y-83231921D01*
X129195543Y-83221956D01*
X129175552Y-83209974D01*
X129156832Y-83196090D01*
X129139562Y-83180438D01*
X129123910Y-83163168D01*
X129110026Y-83144448D01*
X129098044Y-83124457D01*
X129088079Y-83103387D01*
X129080227Y-83081443D01*
X129074563Y-83058834D01*
X129071144Y-83035779D01*
X129070000Y-83012500D01*
X129070000Y-82437500D01*
X129071144Y-82414221D01*
X129074563Y-82391166D01*
X129080227Y-82368557D01*
X129088079Y-82346613D01*
X129098044Y-82325543D01*
X129110026Y-82305552D01*
X129123910Y-82286832D01*
X129139562Y-82269562D01*
X129156832Y-82253910D01*
X129175552Y-82240026D01*
X129195543Y-82228044D01*
X129216613Y-82218079D01*
X129238557Y-82210227D01*
X129261166Y-82204563D01*
X129284221Y-82201144D01*
X129307500Y-82200000D01*
X129782500Y-82200000D01*
X129805779Y-82201144D01*
X129805779Y-82201144D01*
G37*
D17*
X129545000Y-82725000D03*
D16*
G36*
X129805779Y-80451144D02*
X129828834Y-80454563D01*
X129851443Y-80460227D01*
X129873387Y-80468079D01*
X129894457Y-80478044D01*
X129914448Y-80490026D01*
X129933168Y-80503910D01*
X129950438Y-80519562D01*
X129966090Y-80536832D01*
X129979974Y-80555552D01*
X129991956Y-80575543D01*
X130001921Y-80596613D01*
X130009773Y-80618557D01*
X130015437Y-80641166D01*
X130018856Y-80664221D01*
X130020000Y-80687500D01*
X130020000Y-81262500D01*
X130018856Y-81285779D01*
X130015437Y-81308834D01*
X130009773Y-81331443D01*
X130001921Y-81353387D01*
X129991956Y-81374457D01*
X129979974Y-81394448D01*
X129966090Y-81413168D01*
X129950438Y-81430438D01*
X129933168Y-81446090D01*
X129914448Y-81459974D01*
X129894457Y-81471956D01*
X129873387Y-81481921D01*
X129851443Y-81489773D01*
X129828834Y-81495437D01*
X129805779Y-81498856D01*
X129782500Y-81500000D01*
X129307500Y-81500000D01*
X129284221Y-81498856D01*
X129261166Y-81495437D01*
X129238557Y-81489773D01*
X129216613Y-81481921D01*
X129195543Y-81471956D01*
X129175552Y-81459974D01*
X129156832Y-81446090D01*
X129139562Y-81430438D01*
X129123910Y-81413168D01*
X129110026Y-81394448D01*
X129098044Y-81374457D01*
X129088079Y-81353387D01*
X129080227Y-81331443D01*
X129074563Y-81308834D01*
X129071144Y-81285779D01*
X129070000Y-81262500D01*
X129070000Y-80687500D01*
X129071144Y-80664221D01*
X129074563Y-80641166D01*
X129080227Y-80618557D01*
X129088079Y-80596613D01*
X129098044Y-80575543D01*
X129110026Y-80555552D01*
X129123910Y-80536832D01*
X129139562Y-80519562D01*
X129156832Y-80503910D01*
X129175552Y-80490026D01*
X129195543Y-80478044D01*
X129216613Y-80468079D01*
X129238557Y-80460227D01*
X129261166Y-80454563D01*
X129284221Y-80451144D01*
X129307500Y-80450000D01*
X129782500Y-80450000D01*
X129805779Y-80451144D01*
X129805779Y-80451144D01*
G37*
D17*
X129545000Y-80975000D03*
G04 #@! TD*
D16*
G04 #@! TO.C,C4*
G36*
X129805779Y-84201144D02*
X129828834Y-84204563D01*
X129851443Y-84210227D01*
X129873387Y-84218079D01*
X129894457Y-84228044D01*
X129914448Y-84240026D01*
X129933168Y-84253910D01*
X129950438Y-84269562D01*
X129966090Y-84286832D01*
X129979974Y-84305552D01*
X129991956Y-84325543D01*
X130001921Y-84346613D01*
X130009773Y-84368557D01*
X130015437Y-84391166D01*
X130018856Y-84414221D01*
X130020000Y-84437500D01*
X130020000Y-85012500D01*
X130018856Y-85035779D01*
X130015437Y-85058834D01*
X130009773Y-85081443D01*
X130001921Y-85103387D01*
X129991956Y-85124457D01*
X129979974Y-85144448D01*
X129966090Y-85163168D01*
X129950438Y-85180438D01*
X129933168Y-85196090D01*
X129914448Y-85209974D01*
X129894457Y-85221956D01*
X129873387Y-85231921D01*
X129851443Y-85239773D01*
X129828834Y-85245437D01*
X129805779Y-85248856D01*
X129782500Y-85250000D01*
X129307500Y-85250000D01*
X129284221Y-85248856D01*
X129261166Y-85245437D01*
X129238557Y-85239773D01*
X129216613Y-85231921D01*
X129195543Y-85221956D01*
X129175552Y-85209974D01*
X129156832Y-85196090D01*
X129139562Y-85180438D01*
X129123910Y-85163168D01*
X129110026Y-85144448D01*
X129098044Y-85124457D01*
X129088079Y-85103387D01*
X129080227Y-85081443D01*
X129074563Y-85058834D01*
X129071144Y-85035779D01*
X129070000Y-85012500D01*
X129070000Y-84437500D01*
X129071144Y-84414221D01*
X129074563Y-84391166D01*
X129080227Y-84368557D01*
X129088079Y-84346613D01*
X129098044Y-84325543D01*
X129110026Y-84305552D01*
X129123910Y-84286832D01*
X129139562Y-84269562D01*
X129156832Y-84253910D01*
X129175552Y-84240026D01*
X129195543Y-84228044D01*
X129216613Y-84218079D01*
X129238557Y-84210227D01*
X129261166Y-84204563D01*
X129284221Y-84201144D01*
X129307500Y-84200000D01*
X129782500Y-84200000D01*
X129805779Y-84201144D01*
X129805779Y-84201144D01*
G37*
D17*
X129545000Y-84725000D03*
D16*
G36*
X129805779Y-85951144D02*
X129828834Y-85954563D01*
X129851443Y-85960227D01*
X129873387Y-85968079D01*
X129894457Y-85978044D01*
X129914448Y-85990026D01*
X129933168Y-86003910D01*
X129950438Y-86019562D01*
X129966090Y-86036832D01*
X129979974Y-86055552D01*
X129991956Y-86075543D01*
X130001921Y-86096613D01*
X130009773Y-86118557D01*
X130015437Y-86141166D01*
X130018856Y-86164221D01*
X130020000Y-86187500D01*
X130020000Y-86762500D01*
X130018856Y-86785779D01*
X130015437Y-86808834D01*
X130009773Y-86831443D01*
X130001921Y-86853387D01*
X129991956Y-86874457D01*
X129979974Y-86894448D01*
X129966090Y-86913168D01*
X129950438Y-86930438D01*
X129933168Y-86946090D01*
X129914448Y-86959974D01*
X129894457Y-86971956D01*
X129873387Y-86981921D01*
X129851443Y-86989773D01*
X129828834Y-86995437D01*
X129805779Y-86998856D01*
X129782500Y-87000000D01*
X129307500Y-87000000D01*
X129284221Y-86998856D01*
X129261166Y-86995437D01*
X129238557Y-86989773D01*
X129216613Y-86981921D01*
X129195543Y-86971956D01*
X129175552Y-86959974D01*
X129156832Y-86946090D01*
X129139562Y-86930438D01*
X129123910Y-86913168D01*
X129110026Y-86894448D01*
X129098044Y-86874457D01*
X129088079Y-86853387D01*
X129080227Y-86831443D01*
X129074563Y-86808834D01*
X129071144Y-86785779D01*
X129070000Y-86762500D01*
X129070000Y-86187500D01*
X129071144Y-86164221D01*
X129074563Y-86141166D01*
X129080227Y-86118557D01*
X129088079Y-86096613D01*
X129098044Y-86075543D01*
X129110026Y-86055552D01*
X129123910Y-86036832D01*
X129139562Y-86019562D01*
X129156832Y-86003910D01*
X129175552Y-85990026D01*
X129195543Y-85978044D01*
X129216613Y-85968079D01*
X129238557Y-85960227D01*
X129261166Y-85954563D01*
X129284221Y-85951144D01*
X129307500Y-85950000D01*
X129782500Y-85950000D01*
X129805779Y-85951144D01*
X129805779Y-85951144D01*
G37*
D17*
X129545000Y-86475000D03*
G04 #@! TD*
D16*
G04 #@! TO.C,C5*
G36*
X129980779Y-87776144D02*
X130003834Y-87779563D01*
X130026443Y-87785227D01*
X130048387Y-87793079D01*
X130069457Y-87803044D01*
X130089448Y-87815026D01*
X130108168Y-87828910D01*
X130125438Y-87844562D01*
X130141090Y-87861832D01*
X130154974Y-87880552D01*
X130166956Y-87900543D01*
X130176921Y-87921613D01*
X130184773Y-87943557D01*
X130190437Y-87966166D01*
X130193856Y-87989221D01*
X130195000Y-88012500D01*
X130195000Y-88487500D01*
X130193856Y-88510779D01*
X130190437Y-88533834D01*
X130184773Y-88556443D01*
X130176921Y-88578387D01*
X130166956Y-88599457D01*
X130154974Y-88619448D01*
X130141090Y-88638168D01*
X130125438Y-88655438D01*
X130108168Y-88671090D01*
X130089448Y-88684974D01*
X130069457Y-88696956D01*
X130048387Y-88706921D01*
X130026443Y-88714773D01*
X130003834Y-88720437D01*
X129980779Y-88723856D01*
X129957500Y-88725000D01*
X129382500Y-88725000D01*
X129359221Y-88723856D01*
X129336166Y-88720437D01*
X129313557Y-88714773D01*
X129291613Y-88706921D01*
X129270543Y-88696956D01*
X129250552Y-88684974D01*
X129231832Y-88671090D01*
X129214562Y-88655438D01*
X129198910Y-88638168D01*
X129185026Y-88619448D01*
X129173044Y-88599457D01*
X129163079Y-88578387D01*
X129155227Y-88556443D01*
X129149563Y-88533834D01*
X129146144Y-88510779D01*
X129145000Y-88487500D01*
X129145000Y-88012500D01*
X129146144Y-87989221D01*
X129149563Y-87966166D01*
X129155227Y-87943557D01*
X129163079Y-87921613D01*
X129173044Y-87900543D01*
X129185026Y-87880552D01*
X129198910Y-87861832D01*
X129214562Y-87844562D01*
X129231832Y-87828910D01*
X129250552Y-87815026D01*
X129270543Y-87803044D01*
X129291613Y-87793079D01*
X129313557Y-87785227D01*
X129336166Y-87779563D01*
X129359221Y-87776144D01*
X129382500Y-87775000D01*
X129957500Y-87775000D01*
X129980779Y-87776144D01*
X129980779Y-87776144D01*
G37*
D17*
X129670000Y-88250000D03*
D16*
G36*
X128230779Y-87776144D02*
X128253834Y-87779563D01*
X128276443Y-87785227D01*
X128298387Y-87793079D01*
X128319457Y-87803044D01*
X128339448Y-87815026D01*
X128358168Y-87828910D01*
X128375438Y-87844562D01*
X128391090Y-87861832D01*
X128404974Y-87880552D01*
X128416956Y-87900543D01*
X128426921Y-87921613D01*
X128434773Y-87943557D01*
X128440437Y-87966166D01*
X128443856Y-87989221D01*
X128445000Y-88012500D01*
X128445000Y-88487500D01*
X128443856Y-88510779D01*
X128440437Y-88533834D01*
X128434773Y-88556443D01*
X128426921Y-88578387D01*
X128416956Y-88599457D01*
X128404974Y-88619448D01*
X128391090Y-88638168D01*
X128375438Y-88655438D01*
X128358168Y-88671090D01*
X128339448Y-88684974D01*
X128319457Y-88696956D01*
X128298387Y-88706921D01*
X128276443Y-88714773D01*
X128253834Y-88720437D01*
X128230779Y-88723856D01*
X128207500Y-88725000D01*
X127632500Y-88725000D01*
X127609221Y-88723856D01*
X127586166Y-88720437D01*
X127563557Y-88714773D01*
X127541613Y-88706921D01*
X127520543Y-88696956D01*
X127500552Y-88684974D01*
X127481832Y-88671090D01*
X127464562Y-88655438D01*
X127448910Y-88638168D01*
X127435026Y-88619448D01*
X127423044Y-88599457D01*
X127413079Y-88578387D01*
X127405227Y-88556443D01*
X127399563Y-88533834D01*
X127396144Y-88510779D01*
X127395000Y-88487500D01*
X127395000Y-88012500D01*
X127396144Y-87989221D01*
X127399563Y-87966166D01*
X127405227Y-87943557D01*
X127413079Y-87921613D01*
X127423044Y-87900543D01*
X127435026Y-87880552D01*
X127448910Y-87861832D01*
X127464562Y-87844562D01*
X127481832Y-87828910D01*
X127500552Y-87815026D01*
X127520543Y-87803044D01*
X127541613Y-87793079D01*
X127563557Y-87785227D01*
X127586166Y-87779563D01*
X127609221Y-87776144D01*
X127632500Y-87775000D01*
X128207500Y-87775000D01*
X128230779Y-87776144D01*
X128230779Y-87776144D01*
G37*
D17*
X127920000Y-88250000D03*
G04 #@! TD*
D16*
G04 #@! TO.C,C7*
G36*
X136235779Y-99716144D02*
X136258834Y-99719563D01*
X136281443Y-99725227D01*
X136303387Y-99733079D01*
X136324457Y-99743044D01*
X136344448Y-99755026D01*
X136363168Y-99768910D01*
X136380438Y-99784562D01*
X136396090Y-99801832D01*
X136409974Y-99820552D01*
X136421956Y-99840543D01*
X136431921Y-99861613D01*
X136439773Y-99883557D01*
X136445437Y-99906166D01*
X136448856Y-99929221D01*
X136450000Y-99952500D01*
X136450000Y-100427500D01*
X136448856Y-100450779D01*
X136445437Y-100473834D01*
X136439773Y-100496443D01*
X136431921Y-100518387D01*
X136421956Y-100539457D01*
X136409974Y-100559448D01*
X136396090Y-100578168D01*
X136380438Y-100595438D01*
X136363168Y-100611090D01*
X136344448Y-100624974D01*
X136324457Y-100636956D01*
X136303387Y-100646921D01*
X136281443Y-100654773D01*
X136258834Y-100660437D01*
X136235779Y-100663856D01*
X136212500Y-100665000D01*
X135637500Y-100665000D01*
X135614221Y-100663856D01*
X135591166Y-100660437D01*
X135568557Y-100654773D01*
X135546613Y-100646921D01*
X135525543Y-100636956D01*
X135505552Y-100624974D01*
X135486832Y-100611090D01*
X135469562Y-100595438D01*
X135453910Y-100578168D01*
X135440026Y-100559448D01*
X135428044Y-100539457D01*
X135418079Y-100518387D01*
X135410227Y-100496443D01*
X135404563Y-100473834D01*
X135401144Y-100450779D01*
X135400000Y-100427500D01*
X135400000Y-99952500D01*
X135401144Y-99929221D01*
X135404563Y-99906166D01*
X135410227Y-99883557D01*
X135418079Y-99861613D01*
X135428044Y-99840543D01*
X135440026Y-99820552D01*
X135453910Y-99801832D01*
X135469562Y-99784562D01*
X135486832Y-99768910D01*
X135505552Y-99755026D01*
X135525543Y-99743044D01*
X135546613Y-99733079D01*
X135568557Y-99725227D01*
X135591166Y-99719563D01*
X135614221Y-99716144D01*
X135637500Y-99715000D01*
X136212500Y-99715000D01*
X136235779Y-99716144D01*
X136235779Y-99716144D01*
G37*
D17*
X135925000Y-100190000D03*
D16*
G36*
X137985779Y-99716144D02*
X138008834Y-99719563D01*
X138031443Y-99725227D01*
X138053387Y-99733079D01*
X138074457Y-99743044D01*
X138094448Y-99755026D01*
X138113168Y-99768910D01*
X138130438Y-99784562D01*
X138146090Y-99801832D01*
X138159974Y-99820552D01*
X138171956Y-99840543D01*
X138181921Y-99861613D01*
X138189773Y-99883557D01*
X138195437Y-99906166D01*
X138198856Y-99929221D01*
X138200000Y-99952500D01*
X138200000Y-100427500D01*
X138198856Y-100450779D01*
X138195437Y-100473834D01*
X138189773Y-100496443D01*
X138181921Y-100518387D01*
X138171956Y-100539457D01*
X138159974Y-100559448D01*
X138146090Y-100578168D01*
X138130438Y-100595438D01*
X138113168Y-100611090D01*
X138094448Y-100624974D01*
X138074457Y-100636956D01*
X138053387Y-100646921D01*
X138031443Y-100654773D01*
X138008834Y-100660437D01*
X137985779Y-100663856D01*
X137962500Y-100665000D01*
X137387500Y-100665000D01*
X137364221Y-100663856D01*
X137341166Y-100660437D01*
X137318557Y-100654773D01*
X137296613Y-100646921D01*
X137275543Y-100636956D01*
X137255552Y-100624974D01*
X137236832Y-100611090D01*
X137219562Y-100595438D01*
X137203910Y-100578168D01*
X137190026Y-100559448D01*
X137178044Y-100539457D01*
X137168079Y-100518387D01*
X137160227Y-100496443D01*
X137154563Y-100473834D01*
X137151144Y-100450779D01*
X137150000Y-100427500D01*
X137150000Y-99952500D01*
X137151144Y-99929221D01*
X137154563Y-99906166D01*
X137160227Y-99883557D01*
X137168079Y-99861613D01*
X137178044Y-99840543D01*
X137190026Y-99820552D01*
X137203910Y-99801832D01*
X137219562Y-99784562D01*
X137236832Y-99768910D01*
X137255552Y-99755026D01*
X137275543Y-99743044D01*
X137296613Y-99733079D01*
X137318557Y-99725227D01*
X137341166Y-99719563D01*
X137364221Y-99716144D01*
X137387500Y-99715000D01*
X137962500Y-99715000D01*
X137985779Y-99716144D01*
X137985779Y-99716144D01*
G37*
D17*
X137675000Y-100190000D03*
G04 #@! TD*
D16*
G04 #@! TO.C,C8*
G36*
X136255779Y-103026144D02*
X136278834Y-103029563D01*
X136301443Y-103035227D01*
X136323387Y-103043079D01*
X136344457Y-103053044D01*
X136364448Y-103065026D01*
X136383168Y-103078910D01*
X136400438Y-103094562D01*
X136416090Y-103111832D01*
X136429974Y-103130552D01*
X136441956Y-103150543D01*
X136451921Y-103171613D01*
X136459773Y-103193557D01*
X136465437Y-103216166D01*
X136468856Y-103239221D01*
X136470000Y-103262500D01*
X136470000Y-103737500D01*
X136468856Y-103760779D01*
X136465437Y-103783834D01*
X136459773Y-103806443D01*
X136451921Y-103828387D01*
X136441956Y-103849457D01*
X136429974Y-103869448D01*
X136416090Y-103888168D01*
X136400438Y-103905438D01*
X136383168Y-103921090D01*
X136364448Y-103934974D01*
X136344457Y-103946956D01*
X136323387Y-103956921D01*
X136301443Y-103964773D01*
X136278834Y-103970437D01*
X136255779Y-103973856D01*
X136232500Y-103975000D01*
X135657500Y-103975000D01*
X135634221Y-103973856D01*
X135611166Y-103970437D01*
X135588557Y-103964773D01*
X135566613Y-103956921D01*
X135545543Y-103946956D01*
X135525552Y-103934974D01*
X135506832Y-103921090D01*
X135489562Y-103905438D01*
X135473910Y-103888168D01*
X135460026Y-103869448D01*
X135448044Y-103849457D01*
X135438079Y-103828387D01*
X135430227Y-103806443D01*
X135424563Y-103783834D01*
X135421144Y-103760779D01*
X135420000Y-103737500D01*
X135420000Y-103262500D01*
X135421144Y-103239221D01*
X135424563Y-103216166D01*
X135430227Y-103193557D01*
X135438079Y-103171613D01*
X135448044Y-103150543D01*
X135460026Y-103130552D01*
X135473910Y-103111832D01*
X135489562Y-103094562D01*
X135506832Y-103078910D01*
X135525552Y-103065026D01*
X135545543Y-103053044D01*
X135566613Y-103043079D01*
X135588557Y-103035227D01*
X135611166Y-103029563D01*
X135634221Y-103026144D01*
X135657500Y-103025000D01*
X136232500Y-103025000D01*
X136255779Y-103026144D01*
X136255779Y-103026144D01*
G37*
D17*
X135945000Y-103500000D03*
D16*
G36*
X138005779Y-103026144D02*
X138028834Y-103029563D01*
X138051443Y-103035227D01*
X138073387Y-103043079D01*
X138094457Y-103053044D01*
X138114448Y-103065026D01*
X138133168Y-103078910D01*
X138150438Y-103094562D01*
X138166090Y-103111832D01*
X138179974Y-103130552D01*
X138191956Y-103150543D01*
X138201921Y-103171613D01*
X138209773Y-103193557D01*
X138215437Y-103216166D01*
X138218856Y-103239221D01*
X138220000Y-103262500D01*
X138220000Y-103737500D01*
X138218856Y-103760779D01*
X138215437Y-103783834D01*
X138209773Y-103806443D01*
X138201921Y-103828387D01*
X138191956Y-103849457D01*
X138179974Y-103869448D01*
X138166090Y-103888168D01*
X138150438Y-103905438D01*
X138133168Y-103921090D01*
X138114448Y-103934974D01*
X138094457Y-103946956D01*
X138073387Y-103956921D01*
X138051443Y-103964773D01*
X138028834Y-103970437D01*
X138005779Y-103973856D01*
X137982500Y-103975000D01*
X137407500Y-103975000D01*
X137384221Y-103973856D01*
X137361166Y-103970437D01*
X137338557Y-103964773D01*
X137316613Y-103956921D01*
X137295543Y-103946956D01*
X137275552Y-103934974D01*
X137256832Y-103921090D01*
X137239562Y-103905438D01*
X137223910Y-103888168D01*
X137210026Y-103869448D01*
X137198044Y-103849457D01*
X137188079Y-103828387D01*
X137180227Y-103806443D01*
X137174563Y-103783834D01*
X137171144Y-103760779D01*
X137170000Y-103737500D01*
X137170000Y-103262500D01*
X137171144Y-103239221D01*
X137174563Y-103216166D01*
X137180227Y-103193557D01*
X137188079Y-103171613D01*
X137198044Y-103150543D01*
X137210026Y-103130552D01*
X137223910Y-103111832D01*
X137239562Y-103094562D01*
X137256832Y-103078910D01*
X137275552Y-103065026D01*
X137295543Y-103053044D01*
X137316613Y-103043079D01*
X137338557Y-103035227D01*
X137361166Y-103029563D01*
X137384221Y-103026144D01*
X137407500Y-103025000D01*
X137982500Y-103025000D01*
X138005779Y-103026144D01*
X138005779Y-103026144D01*
G37*
D17*
X137695000Y-103500000D03*
G04 #@! TD*
D16*
G04 #@! TO.C,C9*
G36*
X138005779Y-104776144D02*
X138028834Y-104779563D01*
X138051443Y-104785227D01*
X138073387Y-104793079D01*
X138094457Y-104803044D01*
X138114448Y-104815026D01*
X138133168Y-104828910D01*
X138150438Y-104844562D01*
X138166090Y-104861832D01*
X138179974Y-104880552D01*
X138191956Y-104900543D01*
X138201921Y-104921613D01*
X138209773Y-104943557D01*
X138215437Y-104966166D01*
X138218856Y-104989221D01*
X138220000Y-105012500D01*
X138220000Y-105487500D01*
X138218856Y-105510779D01*
X138215437Y-105533834D01*
X138209773Y-105556443D01*
X138201921Y-105578387D01*
X138191956Y-105599457D01*
X138179974Y-105619448D01*
X138166090Y-105638168D01*
X138150438Y-105655438D01*
X138133168Y-105671090D01*
X138114448Y-105684974D01*
X138094457Y-105696956D01*
X138073387Y-105706921D01*
X138051443Y-105714773D01*
X138028834Y-105720437D01*
X138005779Y-105723856D01*
X137982500Y-105725000D01*
X137407500Y-105725000D01*
X137384221Y-105723856D01*
X137361166Y-105720437D01*
X137338557Y-105714773D01*
X137316613Y-105706921D01*
X137295543Y-105696956D01*
X137275552Y-105684974D01*
X137256832Y-105671090D01*
X137239562Y-105655438D01*
X137223910Y-105638168D01*
X137210026Y-105619448D01*
X137198044Y-105599457D01*
X137188079Y-105578387D01*
X137180227Y-105556443D01*
X137174563Y-105533834D01*
X137171144Y-105510779D01*
X137170000Y-105487500D01*
X137170000Y-105012500D01*
X137171144Y-104989221D01*
X137174563Y-104966166D01*
X137180227Y-104943557D01*
X137188079Y-104921613D01*
X137198044Y-104900543D01*
X137210026Y-104880552D01*
X137223910Y-104861832D01*
X137239562Y-104844562D01*
X137256832Y-104828910D01*
X137275552Y-104815026D01*
X137295543Y-104803044D01*
X137316613Y-104793079D01*
X137338557Y-104785227D01*
X137361166Y-104779563D01*
X137384221Y-104776144D01*
X137407500Y-104775000D01*
X137982500Y-104775000D01*
X138005779Y-104776144D01*
X138005779Y-104776144D01*
G37*
D17*
X137695000Y-105250000D03*
D16*
G36*
X136255779Y-104776144D02*
X136278834Y-104779563D01*
X136301443Y-104785227D01*
X136323387Y-104793079D01*
X136344457Y-104803044D01*
X136364448Y-104815026D01*
X136383168Y-104828910D01*
X136400438Y-104844562D01*
X136416090Y-104861832D01*
X136429974Y-104880552D01*
X136441956Y-104900543D01*
X136451921Y-104921613D01*
X136459773Y-104943557D01*
X136465437Y-104966166D01*
X136468856Y-104989221D01*
X136470000Y-105012500D01*
X136470000Y-105487500D01*
X136468856Y-105510779D01*
X136465437Y-105533834D01*
X136459773Y-105556443D01*
X136451921Y-105578387D01*
X136441956Y-105599457D01*
X136429974Y-105619448D01*
X136416090Y-105638168D01*
X136400438Y-105655438D01*
X136383168Y-105671090D01*
X136364448Y-105684974D01*
X136344457Y-105696956D01*
X136323387Y-105706921D01*
X136301443Y-105714773D01*
X136278834Y-105720437D01*
X136255779Y-105723856D01*
X136232500Y-105725000D01*
X135657500Y-105725000D01*
X135634221Y-105723856D01*
X135611166Y-105720437D01*
X135588557Y-105714773D01*
X135566613Y-105706921D01*
X135545543Y-105696956D01*
X135525552Y-105684974D01*
X135506832Y-105671090D01*
X135489562Y-105655438D01*
X135473910Y-105638168D01*
X135460026Y-105619448D01*
X135448044Y-105599457D01*
X135438079Y-105578387D01*
X135430227Y-105556443D01*
X135424563Y-105533834D01*
X135421144Y-105510779D01*
X135420000Y-105487500D01*
X135420000Y-105012500D01*
X135421144Y-104989221D01*
X135424563Y-104966166D01*
X135430227Y-104943557D01*
X135438079Y-104921613D01*
X135448044Y-104900543D01*
X135460026Y-104880552D01*
X135473910Y-104861832D01*
X135489562Y-104844562D01*
X135506832Y-104828910D01*
X135525552Y-104815026D01*
X135545543Y-104803044D01*
X135566613Y-104793079D01*
X135588557Y-104785227D01*
X135611166Y-104779563D01*
X135634221Y-104776144D01*
X135657500Y-104775000D01*
X136232500Y-104775000D01*
X136255779Y-104776144D01*
X136255779Y-104776144D01*
G37*
D17*
X135945000Y-105250000D03*
G04 #@! TD*
D16*
G04 #@! TO.C,C10*
G36*
X128980779Y-102291144D02*
X129003834Y-102294563D01*
X129026443Y-102300227D01*
X129048387Y-102308079D01*
X129069457Y-102318044D01*
X129089448Y-102330026D01*
X129108168Y-102343910D01*
X129125438Y-102359562D01*
X129141090Y-102376832D01*
X129154974Y-102395552D01*
X129166956Y-102415543D01*
X129176921Y-102436613D01*
X129184773Y-102458557D01*
X129190437Y-102481166D01*
X129193856Y-102504221D01*
X129195000Y-102527500D01*
X129195000Y-103102500D01*
X129193856Y-103125779D01*
X129190437Y-103148834D01*
X129184773Y-103171443D01*
X129176921Y-103193387D01*
X129166956Y-103214457D01*
X129154974Y-103234448D01*
X129141090Y-103253168D01*
X129125438Y-103270438D01*
X129108168Y-103286090D01*
X129089448Y-103299974D01*
X129069457Y-103311956D01*
X129048387Y-103321921D01*
X129026443Y-103329773D01*
X129003834Y-103335437D01*
X128980779Y-103338856D01*
X128957500Y-103340000D01*
X128482500Y-103340000D01*
X128459221Y-103338856D01*
X128436166Y-103335437D01*
X128413557Y-103329773D01*
X128391613Y-103321921D01*
X128370543Y-103311956D01*
X128350552Y-103299974D01*
X128331832Y-103286090D01*
X128314562Y-103270438D01*
X128298910Y-103253168D01*
X128285026Y-103234448D01*
X128273044Y-103214457D01*
X128263079Y-103193387D01*
X128255227Y-103171443D01*
X128249563Y-103148834D01*
X128246144Y-103125779D01*
X128245000Y-103102500D01*
X128245000Y-102527500D01*
X128246144Y-102504221D01*
X128249563Y-102481166D01*
X128255227Y-102458557D01*
X128263079Y-102436613D01*
X128273044Y-102415543D01*
X128285026Y-102395552D01*
X128298910Y-102376832D01*
X128314562Y-102359562D01*
X128331832Y-102343910D01*
X128350552Y-102330026D01*
X128370543Y-102318044D01*
X128391613Y-102308079D01*
X128413557Y-102300227D01*
X128436166Y-102294563D01*
X128459221Y-102291144D01*
X128482500Y-102290000D01*
X128957500Y-102290000D01*
X128980779Y-102291144D01*
X128980779Y-102291144D01*
G37*
D17*
X128720000Y-102815000D03*
D16*
G36*
X128980779Y-104041144D02*
X129003834Y-104044563D01*
X129026443Y-104050227D01*
X129048387Y-104058079D01*
X129069457Y-104068044D01*
X129089448Y-104080026D01*
X129108168Y-104093910D01*
X129125438Y-104109562D01*
X129141090Y-104126832D01*
X129154974Y-104145552D01*
X129166956Y-104165543D01*
X129176921Y-104186613D01*
X129184773Y-104208557D01*
X129190437Y-104231166D01*
X129193856Y-104254221D01*
X129195000Y-104277500D01*
X129195000Y-104852500D01*
X129193856Y-104875779D01*
X129190437Y-104898834D01*
X129184773Y-104921443D01*
X129176921Y-104943387D01*
X129166956Y-104964457D01*
X129154974Y-104984448D01*
X129141090Y-105003168D01*
X129125438Y-105020438D01*
X129108168Y-105036090D01*
X129089448Y-105049974D01*
X129069457Y-105061956D01*
X129048387Y-105071921D01*
X129026443Y-105079773D01*
X129003834Y-105085437D01*
X128980779Y-105088856D01*
X128957500Y-105090000D01*
X128482500Y-105090000D01*
X128459221Y-105088856D01*
X128436166Y-105085437D01*
X128413557Y-105079773D01*
X128391613Y-105071921D01*
X128370543Y-105061956D01*
X128350552Y-105049974D01*
X128331832Y-105036090D01*
X128314562Y-105020438D01*
X128298910Y-105003168D01*
X128285026Y-104984448D01*
X128273044Y-104964457D01*
X128263079Y-104943387D01*
X128255227Y-104921443D01*
X128249563Y-104898834D01*
X128246144Y-104875779D01*
X128245000Y-104852500D01*
X128245000Y-104277500D01*
X128246144Y-104254221D01*
X128249563Y-104231166D01*
X128255227Y-104208557D01*
X128263079Y-104186613D01*
X128273044Y-104165543D01*
X128285026Y-104145552D01*
X128298910Y-104126832D01*
X128314562Y-104109562D01*
X128331832Y-104093910D01*
X128350552Y-104080026D01*
X128370543Y-104068044D01*
X128391613Y-104058079D01*
X128413557Y-104050227D01*
X128436166Y-104044563D01*
X128459221Y-104041144D01*
X128482500Y-104040000D01*
X128957500Y-104040000D01*
X128980779Y-104041144D01*
X128980779Y-104041144D01*
G37*
D17*
X128720000Y-104565000D03*
G04 #@! TD*
D20*
G04 #@! TO.C,D2*
X127895000Y-84650000D03*
X127895000Y-86550000D03*
X125895000Y-85600000D03*
G04 #@! TD*
D16*
G04 #@! TO.C,D4*
G36*
X115957327Y-83816857D02*
X115981595Y-83820457D01*
X116005394Y-83826418D01*
X116028493Y-83834683D01*
X116050672Y-83845173D01*
X116071715Y-83857785D01*
X116091421Y-83872400D01*
X116109599Y-83888876D01*
X116126075Y-83907054D01*
X116140690Y-83926760D01*
X116153302Y-83947803D01*
X116163792Y-83969982D01*
X116172057Y-83993081D01*
X116178018Y-84016880D01*
X116181618Y-84041148D01*
X116182822Y-84065652D01*
X116182822Y-84965654D01*
X116181618Y-84990158D01*
X116178018Y-85014426D01*
X116172057Y-85038225D01*
X116163792Y-85061324D01*
X116153302Y-85083503D01*
X116140690Y-85104546D01*
X116126075Y-85124252D01*
X116109599Y-85142430D01*
X116091421Y-85158906D01*
X116071715Y-85173521D01*
X116050672Y-85186133D01*
X116028493Y-85196623D01*
X116005394Y-85204888D01*
X115981595Y-85210849D01*
X115957327Y-85214449D01*
X115932823Y-85215653D01*
X115282821Y-85215653D01*
X115258317Y-85214449D01*
X115234049Y-85210849D01*
X115210250Y-85204888D01*
X115187151Y-85196623D01*
X115164972Y-85186133D01*
X115143929Y-85173521D01*
X115124223Y-85158906D01*
X115106045Y-85142430D01*
X115089569Y-85124252D01*
X115074954Y-85104546D01*
X115062342Y-85083503D01*
X115051852Y-85061324D01*
X115043587Y-85038225D01*
X115037626Y-85014426D01*
X115034026Y-84990158D01*
X115032822Y-84965654D01*
X115032822Y-84065652D01*
X115034026Y-84041148D01*
X115037626Y-84016880D01*
X115043587Y-83993081D01*
X115051852Y-83969982D01*
X115062342Y-83947803D01*
X115074954Y-83926760D01*
X115089569Y-83907054D01*
X115106045Y-83888876D01*
X115124223Y-83872400D01*
X115143929Y-83857785D01*
X115164972Y-83845173D01*
X115187151Y-83834683D01*
X115210250Y-83826418D01*
X115234049Y-83820457D01*
X115258317Y-83816857D01*
X115282821Y-83815653D01*
X115932823Y-83815653D01*
X115957327Y-83816857D01*
X115957327Y-83816857D01*
G37*
D21*
X115607822Y-84515653D03*
D16*
G36*
X118007327Y-83816857D02*
X118031595Y-83820457D01*
X118055394Y-83826418D01*
X118078493Y-83834683D01*
X118100672Y-83845173D01*
X118121715Y-83857785D01*
X118141421Y-83872400D01*
X118159599Y-83888876D01*
X118176075Y-83907054D01*
X118190690Y-83926760D01*
X118203302Y-83947803D01*
X118213792Y-83969982D01*
X118222057Y-83993081D01*
X118228018Y-84016880D01*
X118231618Y-84041148D01*
X118232822Y-84065652D01*
X118232822Y-84965654D01*
X118231618Y-84990158D01*
X118228018Y-85014426D01*
X118222057Y-85038225D01*
X118213792Y-85061324D01*
X118203302Y-85083503D01*
X118190690Y-85104546D01*
X118176075Y-85124252D01*
X118159599Y-85142430D01*
X118141421Y-85158906D01*
X118121715Y-85173521D01*
X118100672Y-85186133D01*
X118078493Y-85196623D01*
X118055394Y-85204888D01*
X118031595Y-85210849D01*
X118007327Y-85214449D01*
X117982823Y-85215653D01*
X117332821Y-85215653D01*
X117308317Y-85214449D01*
X117284049Y-85210849D01*
X117260250Y-85204888D01*
X117237151Y-85196623D01*
X117214972Y-85186133D01*
X117193929Y-85173521D01*
X117174223Y-85158906D01*
X117156045Y-85142430D01*
X117139569Y-85124252D01*
X117124954Y-85104546D01*
X117112342Y-85083503D01*
X117101852Y-85061324D01*
X117093587Y-85038225D01*
X117087626Y-85014426D01*
X117084026Y-84990158D01*
X117082822Y-84965654D01*
X117082822Y-84065652D01*
X117084026Y-84041148D01*
X117087626Y-84016880D01*
X117093587Y-83993081D01*
X117101852Y-83969982D01*
X117112342Y-83947803D01*
X117124954Y-83926760D01*
X117139569Y-83907054D01*
X117156045Y-83888876D01*
X117174223Y-83872400D01*
X117193929Y-83857785D01*
X117214972Y-83845173D01*
X117237151Y-83834683D01*
X117260250Y-83826418D01*
X117284049Y-83820457D01*
X117308317Y-83816857D01*
X117332821Y-83815653D01*
X117982823Y-83815653D01*
X118007327Y-83816857D01*
X118007327Y-83816857D01*
G37*
D21*
X117657822Y-84515653D03*
G04 #@! TD*
D16*
G04 #@! TO.C,D5*
G36*
X122807327Y-90216857D02*
X122831595Y-90220457D01*
X122855394Y-90226418D01*
X122878493Y-90234683D01*
X122900672Y-90245173D01*
X122921715Y-90257785D01*
X122941421Y-90272400D01*
X122959599Y-90288876D01*
X122976075Y-90307054D01*
X122990690Y-90326760D01*
X123003302Y-90347803D01*
X123013792Y-90369982D01*
X123022057Y-90393081D01*
X123028018Y-90416880D01*
X123031618Y-90441148D01*
X123032822Y-90465652D01*
X123032822Y-91365654D01*
X123031618Y-91390158D01*
X123028018Y-91414426D01*
X123022057Y-91438225D01*
X123013792Y-91461324D01*
X123003302Y-91483503D01*
X122990690Y-91504546D01*
X122976075Y-91524252D01*
X122959599Y-91542430D01*
X122941421Y-91558906D01*
X122921715Y-91573521D01*
X122900672Y-91586133D01*
X122878493Y-91596623D01*
X122855394Y-91604888D01*
X122831595Y-91610849D01*
X122807327Y-91614449D01*
X122782823Y-91615653D01*
X122132821Y-91615653D01*
X122108317Y-91614449D01*
X122084049Y-91610849D01*
X122060250Y-91604888D01*
X122037151Y-91596623D01*
X122014972Y-91586133D01*
X121993929Y-91573521D01*
X121974223Y-91558906D01*
X121956045Y-91542430D01*
X121939569Y-91524252D01*
X121924954Y-91504546D01*
X121912342Y-91483503D01*
X121901852Y-91461324D01*
X121893587Y-91438225D01*
X121887626Y-91414426D01*
X121884026Y-91390158D01*
X121882822Y-91365654D01*
X121882822Y-90465652D01*
X121884026Y-90441148D01*
X121887626Y-90416880D01*
X121893587Y-90393081D01*
X121901852Y-90369982D01*
X121912342Y-90347803D01*
X121924954Y-90326760D01*
X121939569Y-90307054D01*
X121956045Y-90288876D01*
X121974223Y-90272400D01*
X121993929Y-90257785D01*
X122014972Y-90245173D01*
X122037151Y-90234683D01*
X122060250Y-90226418D01*
X122084049Y-90220457D01*
X122108317Y-90216857D01*
X122132821Y-90215653D01*
X122782823Y-90215653D01*
X122807327Y-90216857D01*
X122807327Y-90216857D01*
G37*
D21*
X122457822Y-90915653D03*
D16*
G36*
X120757327Y-90216857D02*
X120781595Y-90220457D01*
X120805394Y-90226418D01*
X120828493Y-90234683D01*
X120850672Y-90245173D01*
X120871715Y-90257785D01*
X120891421Y-90272400D01*
X120909599Y-90288876D01*
X120926075Y-90307054D01*
X120940690Y-90326760D01*
X120953302Y-90347803D01*
X120963792Y-90369982D01*
X120972057Y-90393081D01*
X120978018Y-90416880D01*
X120981618Y-90441148D01*
X120982822Y-90465652D01*
X120982822Y-91365654D01*
X120981618Y-91390158D01*
X120978018Y-91414426D01*
X120972057Y-91438225D01*
X120963792Y-91461324D01*
X120953302Y-91483503D01*
X120940690Y-91504546D01*
X120926075Y-91524252D01*
X120909599Y-91542430D01*
X120891421Y-91558906D01*
X120871715Y-91573521D01*
X120850672Y-91586133D01*
X120828493Y-91596623D01*
X120805394Y-91604888D01*
X120781595Y-91610849D01*
X120757327Y-91614449D01*
X120732823Y-91615653D01*
X120082821Y-91615653D01*
X120058317Y-91614449D01*
X120034049Y-91610849D01*
X120010250Y-91604888D01*
X119987151Y-91596623D01*
X119964972Y-91586133D01*
X119943929Y-91573521D01*
X119924223Y-91558906D01*
X119906045Y-91542430D01*
X119889569Y-91524252D01*
X119874954Y-91504546D01*
X119862342Y-91483503D01*
X119851852Y-91461324D01*
X119843587Y-91438225D01*
X119837626Y-91414426D01*
X119834026Y-91390158D01*
X119832822Y-91365654D01*
X119832822Y-90465652D01*
X119834026Y-90441148D01*
X119837626Y-90416880D01*
X119843587Y-90393081D01*
X119851852Y-90369982D01*
X119862342Y-90347803D01*
X119874954Y-90326760D01*
X119889569Y-90307054D01*
X119906045Y-90288876D01*
X119924223Y-90272400D01*
X119943929Y-90257785D01*
X119964972Y-90245173D01*
X119987151Y-90234683D01*
X120010250Y-90226418D01*
X120034049Y-90220457D01*
X120058317Y-90216857D01*
X120082821Y-90215653D01*
X120732823Y-90215653D01*
X120757327Y-90216857D01*
X120757327Y-90216857D01*
G37*
D21*
X120407822Y-90915653D03*
G04 #@! TD*
D16*
G04 #@! TO.C,D6*
G36*
X136054505Y-109291204D02*
X136078773Y-109294804D01*
X136102572Y-109300765D01*
X136125671Y-109309030D01*
X136147850Y-109319520D01*
X136168893Y-109332132D01*
X136188599Y-109346747D01*
X136206777Y-109363223D01*
X136223253Y-109381401D01*
X136237868Y-109401107D01*
X136250480Y-109422150D01*
X136260970Y-109444329D01*
X136269235Y-109467428D01*
X136275196Y-109491227D01*
X136278796Y-109515495D01*
X136280000Y-109539999D01*
X136280000Y-110440001D01*
X136278796Y-110464505D01*
X136275196Y-110488773D01*
X136269235Y-110512572D01*
X136260970Y-110535671D01*
X136250480Y-110557850D01*
X136237868Y-110578893D01*
X136223253Y-110598599D01*
X136206777Y-110616777D01*
X136188599Y-110633253D01*
X136168893Y-110647868D01*
X136147850Y-110660480D01*
X136125671Y-110670970D01*
X136102572Y-110679235D01*
X136078773Y-110685196D01*
X136054505Y-110688796D01*
X136030001Y-110690000D01*
X135379999Y-110690000D01*
X135355495Y-110688796D01*
X135331227Y-110685196D01*
X135307428Y-110679235D01*
X135284329Y-110670970D01*
X135262150Y-110660480D01*
X135241107Y-110647868D01*
X135221401Y-110633253D01*
X135203223Y-110616777D01*
X135186747Y-110598599D01*
X135172132Y-110578893D01*
X135159520Y-110557850D01*
X135149030Y-110535671D01*
X135140765Y-110512572D01*
X135134804Y-110488773D01*
X135131204Y-110464505D01*
X135130000Y-110440001D01*
X135130000Y-109539999D01*
X135131204Y-109515495D01*
X135134804Y-109491227D01*
X135140765Y-109467428D01*
X135149030Y-109444329D01*
X135159520Y-109422150D01*
X135172132Y-109401107D01*
X135186747Y-109381401D01*
X135203223Y-109363223D01*
X135221401Y-109346747D01*
X135241107Y-109332132D01*
X135262150Y-109319520D01*
X135284329Y-109309030D01*
X135307428Y-109300765D01*
X135331227Y-109294804D01*
X135355495Y-109291204D01*
X135379999Y-109290000D01*
X136030001Y-109290000D01*
X136054505Y-109291204D01*
X136054505Y-109291204D01*
G37*
D21*
X135705000Y-109990000D03*
D16*
G36*
X138104505Y-109291204D02*
X138128773Y-109294804D01*
X138152572Y-109300765D01*
X138175671Y-109309030D01*
X138197850Y-109319520D01*
X138218893Y-109332132D01*
X138238599Y-109346747D01*
X138256777Y-109363223D01*
X138273253Y-109381401D01*
X138287868Y-109401107D01*
X138300480Y-109422150D01*
X138310970Y-109444329D01*
X138319235Y-109467428D01*
X138325196Y-109491227D01*
X138328796Y-109515495D01*
X138330000Y-109539999D01*
X138330000Y-110440001D01*
X138328796Y-110464505D01*
X138325196Y-110488773D01*
X138319235Y-110512572D01*
X138310970Y-110535671D01*
X138300480Y-110557850D01*
X138287868Y-110578893D01*
X138273253Y-110598599D01*
X138256777Y-110616777D01*
X138238599Y-110633253D01*
X138218893Y-110647868D01*
X138197850Y-110660480D01*
X138175671Y-110670970D01*
X138152572Y-110679235D01*
X138128773Y-110685196D01*
X138104505Y-110688796D01*
X138080001Y-110690000D01*
X137429999Y-110690000D01*
X137405495Y-110688796D01*
X137381227Y-110685196D01*
X137357428Y-110679235D01*
X137334329Y-110670970D01*
X137312150Y-110660480D01*
X137291107Y-110647868D01*
X137271401Y-110633253D01*
X137253223Y-110616777D01*
X137236747Y-110598599D01*
X137222132Y-110578893D01*
X137209520Y-110557850D01*
X137199030Y-110535671D01*
X137190765Y-110512572D01*
X137184804Y-110488773D01*
X137181204Y-110464505D01*
X137180000Y-110440001D01*
X137180000Y-109539999D01*
X137181204Y-109515495D01*
X137184804Y-109491227D01*
X137190765Y-109467428D01*
X137199030Y-109444329D01*
X137209520Y-109422150D01*
X137222132Y-109401107D01*
X137236747Y-109381401D01*
X137253223Y-109363223D01*
X137271401Y-109346747D01*
X137291107Y-109332132D01*
X137312150Y-109319520D01*
X137334329Y-109309030D01*
X137357428Y-109300765D01*
X137381227Y-109294804D01*
X137405495Y-109291204D01*
X137429999Y-109290000D01*
X138080001Y-109290000D01*
X138104505Y-109291204D01*
X138104505Y-109291204D01*
G37*
D21*
X137755000Y-109990000D03*
G04 #@! TD*
D22*
G04 #@! TO.C,H1*
X152130000Y-63290000D03*
G04 #@! TD*
D23*
G04 #@! TO.C,J1*
X158030000Y-87090000D03*
D16*
G36*
X159227507Y-86985232D02*
X158134768Y-88287507D01*
X156832493Y-87194768D01*
X157925232Y-85892493D01*
X159227507Y-86985232D01*
X159227507Y-86985232D01*
G37*
D23*
X156397319Y-89035753D03*
D24*
X156397319Y-89035753D02*
X156397319Y-89035753D01*
D23*
X154764639Y-90981506D03*
D24*
X154764639Y-90981506D02*
X154764639Y-90981506D01*
D23*
X153131958Y-92927259D03*
D24*
X153131958Y-92927259D02*
X153131958Y-92927259D01*
D23*
X151499278Y-94873012D03*
D24*
X151499278Y-94873012D02*
X151499278Y-94873012D01*
D23*
X149866597Y-96818764D03*
D24*
X149866597Y-96818764D02*
X149866597Y-96818764D01*
G04 #@! TD*
D16*
G04 #@! TO.C,R1*
G36*
X130210779Y-94291144D02*
X130233834Y-94294563D01*
X130256443Y-94300227D01*
X130278387Y-94308079D01*
X130299457Y-94318044D01*
X130319448Y-94330026D01*
X130338168Y-94343910D01*
X130355438Y-94359562D01*
X130371090Y-94376832D01*
X130384974Y-94395552D01*
X130396956Y-94415543D01*
X130406921Y-94436613D01*
X130414773Y-94458557D01*
X130420437Y-94481166D01*
X130423856Y-94504221D01*
X130425000Y-94527500D01*
X130425000Y-95102500D01*
X130423856Y-95125779D01*
X130420437Y-95148834D01*
X130414773Y-95171443D01*
X130406921Y-95193387D01*
X130396956Y-95214457D01*
X130384974Y-95234448D01*
X130371090Y-95253168D01*
X130355438Y-95270438D01*
X130338168Y-95286090D01*
X130319448Y-95299974D01*
X130299457Y-95311956D01*
X130278387Y-95321921D01*
X130256443Y-95329773D01*
X130233834Y-95335437D01*
X130210779Y-95338856D01*
X130187500Y-95340000D01*
X129712500Y-95340000D01*
X129689221Y-95338856D01*
X129666166Y-95335437D01*
X129643557Y-95329773D01*
X129621613Y-95321921D01*
X129600543Y-95311956D01*
X129580552Y-95299974D01*
X129561832Y-95286090D01*
X129544562Y-95270438D01*
X129528910Y-95253168D01*
X129515026Y-95234448D01*
X129503044Y-95214457D01*
X129493079Y-95193387D01*
X129485227Y-95171443D01*
X129479563Y-95148834D01*
X129476144Y-95125779D01*
X129475000Y-95102500D01*
X129475000Y-94527500D01*
X129476144Y-94504221D01*
X129479563Y-94481166D01*
X129485227Y-94458557D01*
X129493079Y-94436613D01*
X129503044Y-94415543D01*
X129515026Y-94395552D01*
X129528910Y-94376832D01*
X129544562Y-94359562D01*
X129561832Y-94343910D01*
X129580552Y-94330026D01*
X129600543Y-94318044D01*
X129621613Y-94308079D01*
X129643557Y-94300227D01*
X129666166Y-94294563D01*
X129689221Y-94291144D01*
X129712500Y-94290000D01*
X130187500Y-94290000D01*
X130210779Y-94291144D01*
X130210779Y-94291144D01*
G37*
D17*
X129950000Y-94815000D03*
D16*
G36*
X130210779Y-96041144D02*
X130233834Y-96044563D01*
X130256443Y-96050227D01*
X130278387Y-96058079D01*
X130299457Y-96068044D01*
X130319448Y-96080026D01*
X130338168Y-96093910D01*
X130355438Y-96109562D01*
X130371090Y-96126832D01*
X130384974Y-96145552D01*
X130396956Y-96165543D01*
X130406921Y-96186613D01*
X130414773Y-96208557D01*
X130420437Y-96231166D01*
X130423856Y-96254221D01*
X130425000Y-96277500D01*
X130425000Y-96852500D01*
X130423856Y-96875779D01*
X130420437Y-96898834D01*
X130414773Y-96921443D01*
X130406921Y-96943387D01*
X130396956Y-96964457D01*
X130384974Y-96984448D01*
X130371090Y-97003168D01*
X130355438Y-97020438D01*
X130338168Y-97036090D01*
X130319448Y-97049974D01*
X130299457Y-97061956D01*
X130278387Y-97071921D01*
X130256443Y-97079773D01*
X130233834Y-97085437D01*
X130210779Y-97088856D01*
X130187500Y-97090000D01*
X129712500Y-97090000D01*
X129689221Y-97088856D01*
X129666166Y-97085437D01*
X129643557Y-97079773D01*
X129621613Y-97071921D01*
X129600543Y-97061956D01*
X129580552Y-97049974D01*
X129561832Y-97036090D01*
X129544562Y-97020438D01*
X129528910Y-97003168D01*
X129515026Y-96984448D01*
X129503044Y-96964457D01*
X129493079Y-96943387D01*
X129485227Y-96921443D01*
X129479563Y-96898834D01*
X129476144Y-96875779D01*
X129475000Y-96852500D01*
X129475000Y-96277500D01*
X129476144Y-96254221D01*
X129479563Y-96231166D01*
X129485227Y-96208557D01*
X129493079Y-96186613D01*
X129503044Y-96165543D01*
X129515026Y-96145552D01*
X129528910Y-96126832D01*
X129544562Y-96109562D01*
X129561832Y-96093910D01*
X129580552Y-96080026D01*
X129600543Y-96068044D01*
X129621613Y-96058079D01*
X129643557Y-96050227D01*
X129666166Y-96044563D01*
X129689221Y-96041144D01*
X129712500Y-96040000D01*
X130187500Y-96040000D01*
X130210779Y-96041144D01*
X130210779Y-96041144D01*
G37*
D17*
X129950000Y-96565000D03*
G04 #@! TD*
D16*
G04 #@! TO.C,R2*
G36*
X127735779Y-94266144D02*
X127758834Y-94269563D01*
X127781443Y-94275227D01*
X127803387Y-94283079D01*
X127824457Y-94293044D01*
X127844448Y-94305026D01*
X127863168Y-94318910D01*
X127880438Y-94334562D01*
X127896090Y-94351832D01*
X127909974Y-94370552D01*
X127921956Y-94390543D01*
X127931921Y-94411613D01*
X127939773Y-94433557D01*
X127945437Y-94456166D01*
X127948856Y-94479221D01*
X127950000Y-94502500D01*
X127950000Y-95077500D01*
X127948856Y-95100779D01*
X127945437Y-95123834D01*
X127939773Y-95146443D01*
X127931921Y-95168387D01*
X127921956Y-95189457D01*
X127909974Y-95209448D01*
X127896090Y-95228168D01*
X127880438Y-95245438D01*
X127863168Y-95261090D01*
X127844448Y-95274974D01*
X127824457Y-95286956D01*
X127803387Y-95296921D01*
X127781443Y-95304773D01*
X127758834Y-95310437D01*
X127735779Y-95313856D01*
X127712500Y-95315000D01*
X127237500Y-95315000D01*
X127214221Y-95313856D01*
X127191166Y-95310437D01*
X127168557Y-95304773D01*
X127146613Y-95296921D01*
X127125543Y-95286956D01*
X127105552Y-95274974D01*
X127086832Y-95261090D01*
X127069562Y-95245438D01*
X127053910Y-95228168D01*
X127040026Y-95209448D01*
X127028044Y-95189457D01*
X127018079Y-95168387D01*
X127010227Y-95146443D01*
X127004563Y-95123834D01*
X127001144Y-95100779D01*
X127000000Y-95077500D01*
X127000000Y-94502500D01*
X127001144Y-94479221D01*
X127004563Y-94456166D01*
X127010227Y-94433557D01*
X127018079Y-94411613D01*
X127028044Y-94390543D01*
X127040026Y-94370552D01*
X127053910Y-94351832D01*
X127069562Y-94334562D01*
X127086832Y-94318910D01*
X127105552Y-94305026D01*
X127125543Y-94293044D01*
X127146613Y-94283079D01*
X127168557Y-94275227D01*
X127191166Y-94269563D01*
X127214221Y-94266144D01*
X127237500Y-94265000D01*
X127712500Y-94265000D01*
X127735779Y-94266144D01*
X127735779Y-94266144D01*
G37*
D17*
X127475000Y-94790000D03*
D16*
G36*
X127735779Y-96016144D02*
X127758834Y-96019563D01*
X127781443Y-96025227D01*
X127803387Y-96033079D01*
X127824457Y-96043044D01*
X127844448Y-96055026D01*
X127863168Y-96068910D01*
X127880438Y-96084562D01*
X127896090Y-96101832D01*
X127909974Y-96120552D01*
X127921956Y-96140543D01*
X127931921Y-96161613D01*
X127939773Y-96183557D01*
X127945437Y-96206166D01*
X127948856Y-96229221D01*
X127950000Y-96252500D01*
X127950000Y-96827500D01*
X127948856Y-96850779D01*
X127945437Y-96873834D01*
X127939773Y-96896443D01*
X127931921Y-96918387D01*
X127921956Y-96939457D01*
X127909974Y-96959448D01*
X127896090Y-96978168D01*
X127880438Y-96995438D01*
X127863168Y-97011090D01*
X127844448Y-97024974D01*
X127824457Y-97036956D01*
X127803387Y-97046921D01*
X127781443Y-97054773D01*
X127758834Y-97060437D01*
X127735779Y-97063856D01*
X127712500Y-97065000D01*
X127237500Y-97065000D01*
X127214221Y-97063856D01*
X127191166Y-97060437D01*
X127168557Y-97054773D01*
X127146613Y-97046921D01*
X127125543Y-97036956D01*
X127105552Y-97024974D01*
X127086832Y-97011090D01*
X127069562Y-96995438D01*
X127053910Y-96978168D01*
X127040026Y-96959448D01*
X127028044Y-96939457D01*
X127018079Y-96918387D01*
X127010227Y-96896443D01*
X127004563Y-96873834D01*
X127001144Y-96850779D01*
X127000000Y-96827500D01*
X127000000Y-96252500D01*
X127001144Y-96229221D01*
X127004563Y-96206166D01*
X127010227Y-96183557D01*
X127018079Y-96161613D01*
X127028044Y-96140543D01*
X127040026Y-96120552D01*
X127053910Y-96101832D01*
X127069562Y-96084562D01*
X127086832Y-96068910D01*
X127105552Y-96055026D01*
X127125543Y-96043044D01*
X127146613Y-96033079D01*
X127168557Y-96025227D01*
X127191166Y-96019563D01*
X127214221Y-96016144D01*
X127237500Y-96015000D01*
X127712500Y-96015000D01*
X127735779Y-96016144D01*
X127735779Y-96016144D01*
G37*
D17*
X127475000Y-96540000D03*
G04 #@! TD*
D16*
G04 #@! TO.C,R5*
G36*
X130210779Y-99791144D02*
X130233834Y-99794563D01*
X130256443Y-99800227D01*
X130278387Y-99808079D01*
X130299457Y-99818044D01*
X130319448Y-99830026D01*
X130338168Y-99843910D01*
X130355438Y-99859562D01*
X130371090Y-99876832D01*
X130384974Y-99895552D01*
X130396956Y-99915543D01*
X130406921Y-99936613D01*
X130414773Y-99958557D01*
X130420437Y-99981166D01*
X130423856Y-100004221D01*
X130425000Y-100027500D01*
X130425000Y-100602500D01*
X130423856Y-100625779D01*
X130420437Y-100648834D01*
X130414773Y-100671443D01*
X130406921Y-100693387D01*
X130396956Y-100714457D01*
X130384974Y-100734448D01*
X130371090Y-100753168D01*
X130355438Y-100770438D01*
X130338168Y-100786090D01*
X130319448Y-100799974D01*
X130299457Y-100811956D01*
X130278387Y-100821921D01*
X130256443Y-100829773D01*
X130233834Y-100835437D01*
X130210779Y-100838856D01*
X130187500Y-100840000D01*
X129712500Y-100840000D01*
X129689221Y-100838856D01*
X129666166Y-100835437D01*
X129643557Y-100829773D01*
X129621613Y-100821921D01*
X129600543Y-100811956D01*
X129580552Y-100799974D01*
X129561832Y-100786090D01*
X129544562Y-100770438D01*
X129528910Y-100753168D01*
X129515026Y-100734448D01*
X129503044Y-100714457D01*
X129493079Y-100693387D01*
X129485227Y-100671443D01*
X129479563Y-100648834D01*
X129476144Y-100625779D01*
X129475000Y-100602500D01*
X129475000Y-100027500D01*
X129476144Y-100004221D01*
X129479563Y-99981166D01*
X129485227Y-99958557D01*
X129493079Y-99936613D01*
X129503044Y-99915543D01*
X129515026Y-99895552D01*
X129528910Y-99876832D01*
X129544562Y-99859562D01*
X129561832Y-99843910D01*
X129580552Y-99830026D01*
X129600543Y-99818044D01*
X129621613Y-99808079D01*
X129643557Y-99800227D01*
X129666166Y-99794563D01*
X129689221Y-99791144D01*
X129712500Y-99790000D01*
X130187500Y-99790000D01*
X130210779Y-99791144D01*
X130210779Y-99791144D01*
G37*
D17*
X129950000Y-100315000D03*
D16*
G36*
X130210779Y-98041144D02*
X130233834Y-98044563D01*
X130256443Y-98050227D01*
X130278387Y-98058079D01*
X130299457Y-98068044D01*
X130319448Y-98080026D01*
X130338168Y-98093910D01*
X130355438Y-98109562D01*
X130371090Y-98126832D01*
X130384974Y-98145552D01*
X130396956Y-98165543D01*
X130406921Y-98186613D01*
X130414773Y-98208557D01*
X130420437Y-98231166D01*
X130423856Y-98254221D01*
X130425000Y-98277500D01*
X130425000Y-98852500D01*
X130423856Y-98875779D01*
X130420437Y-98898834D01*
X130414773Y-98921443D01*
X130406921Y-98943387D01*
X130396956Y-98964457D01*
X130384974Y-98984448D01*
X130371090Y-99003168D01*
X130355438Y-99020438D01*
X130338168Y-99036090D01*
X130319448Y-99049974D01*
X130299457Y-99061956D01*
X130278387Y-99071921D01*
X130256443Y-99079773D01*
X130233834Y-99085437D01*
X130210779Y-99088856D01*
X130187500Y-99090000D01*
X129712500Y-99090000D01*
X129689221Y-99088856D01*
X129666166Y-99085437D01*
X129643557Y-99079773D01*
X129621613Y-99071921D01*
X129600543Y-99061956D01*
X129580552Y-99049974D01*
X129561832Y-99036090D01*
X129544562Y-99020438D01*
X129528910Y-99003168D01*
X129515026Y-98984448D01*
X129503044Y-98964457D01*
X129493079Y-98943387D01*
X129485227Y-98921443D01*
X129479563Y-98898834D01*
X129476144Y-98875779D01*
X129475000Y-98852500D01*
X129475000Y-98277500D01*
X129476144Y-98254221D01*
X129479563Y-98231166D01*
X129485227Y-98208557D01*
X129493079Y-98186613D01*
X129503044Y-98165543D01*
X129515026Y-98145552D01*
X129528910Y-98126832D01*
X129544562Y-98109562D01*
X129561832Y-98093910D01*
X129580552Y-98080026D01*
X129600543Y-98068044D01*
X129621613Y-98058079D01*
X129643557Y-98050227D01*
X129666166Y-98044563D01*
X129689221Y-98041144D01*
X129712500Y-98040000D01*
X130187500Y-98040000D01*
X130210779Y-98041144D01*
X130210779Y-98041144D01*
G37*
D17*
X129950000Y-98565000D03*
G04 #@! TD*
D16*
G04 #@! TO.C,R6*
G36*
X127735779Y-99766144D02*
X127758834Y-99769563D01*
X127781443Y-99775227D01*
X127803387Y-99783079D01*
X127824457Y-99793044D01*
X127844448Y-99805026D01*
X127863168Y-99818910D01*
X127880438Y-99834562D01*
X127896090Y-99851832D01*
X127909974Y-99870552D01*
X127921956Y-99890543D01*
X127931921Y-99911613D01*
X127939773Y-99933557D01*
X127945437Y-99956166D01*
X127948856Y-99979221D01*
X127950000Y-100002500D01*
X127950000Y-100577500D01*
X127948856Y-100600779D01*
X127945437Y-100623834D01*
X127939773Y-100646443D01*
X127931921Y-100668387D01*
X127921956Y-100689457D01*
X127909974Y-100709448D01*
X127896090Y-100728168D01*
X127880438Y-100745438D01*
X127863168Y-100761090D01*
X127844448Y-100774974D01*
X127824457Y-100786956D01*
X127803387Y-100796921D01*
X127781443Y-100804773D01*
X127758834Y-100810437D01*
X127735779Y-100813856D01*
X127712500Y-100815000D01*
X127237500Y-100815000D01*
X127214221Y-100813856D01*
X127191166Y-100810437D01*
X127168557Y-100804773D01*
X127146613Y-100796921D01*
X127125543Y-100786956D01*
X127105552Y-100774974D01*
X127086832Y-100761090D01*
X127069562Y-100745438D01*
X127053910Y-100728168D01*
X127040026Y-100709448D01*
X127028044Y-100689457D01*
X127018079Y-100668387D01*
X127010227Y-100646443D01*
X127004563Y-100623834D01*
X127001144Y-100600779D01*
X127000000Y-100577500D01*
X127000000Y-100002500D01*
X127001144Y-99979221D01*
X127004563Y-99956166D01*
X127010227Y-99933557D01*
X127018079Y-99911613D01*
X127028044Y-99890543D01*
X127040026Y-99870552D01*
X127053910Y-99851832D01*
X127069562Y-99834562D01*
X127086832Y-99818910D01*
X127105552Y-99805026D01*
X127125543Y-99793044D01*
X127146613Y-99783079D01*
X127168557Y-99775227D01*
X127191166Y-99769563D01*
X127214221Y-99766144D01*
X127237500Y-99765000D01*
X127712500Y-99765000D01*
X127735779Y-99766144D01*
X127735779Y-99766144D01*
G37*
D17*
X127475000Y-100290000D03*
D16*
G36*
X127735779Y-98016144D02*
X127758834Y-98019563D01*
X127781443Y-98025227D01*
X127803387Y-98033079D01*
X127824457Y-98043044D01*
X127844448Y-98055026D01*
X127863168Y-98068910D01*
X127880438Y-98084562D01*
X127896090Y-98101832D01*
X127909974Y-98120552D01*
X127921956Y-98140543D01*
X127931921Y-98161613D01*
X127939773Y-98183557D01*
X127945437Y-98206166D01*
X127948856Y-98229221D01*
X127950000Y-98252500D01*
X127950000Y-98827500D01*
X127948856Y-98850779D01*
X127945437Y-98873834D01*
X127939773Y-98896443D01*
X127931921Y-98918387D01*
X127921956Y-98939457D01*
X127909974Y-98959448D01*
X127896090Y-98978168D01*
X127880438Y-98995438D01*
X127863168Y-99011090D01*
X127844448Y-99024974D01*
X127824457Y-99036956D01*
X127803387Y-99046921D01*
X127781443Y-99054773D01*
X127758834Y-99060437D01*
X127735779Y-99063856D01*
X127712500Y-99065000D01*
X127237500Y-99065000D01*
X127214221Y-99063856D01*
X127191166Y-99060437D01*
X127168557Y-99054773D01*
X127146613Y-99046921D01*
X127125543Y-99036956D01*
X127105552Y-99024974D01*
X127086832Y-99011090D01*
X127069562Y-98995438D01*
X127053910Y-98978168D01*
X127040026Y-98959448D01*
X127028044Y-98939457D01*
X127018079Y-98918387D01*
X127010227Y-98896443D01*
X127004563Y-98873834D01*
X127001144Y-98850779D01*
X127000000Y-98827500D01*
X127000000Y-98252500D01*
X127001144Y-98229221D01*
X127004563Y-98206166D01*
X127010227Y-98183557D01*
X127018079Y-98161613D01*
X127028044Y-98140543D01*
X127040026Y-98120552D01*
X127053910Y-98101832D01*
X127069562Y-98084562D01*
X127086832Y-98068910D01*
X127105552Y-98055026D01*
X127125543Y-98043044D01*
X127146613Y-98033079D01*
X127168557Y-98025227D01*
X127191166Y-98019563D01*
X127214221Y-98016144D01*
X127237500Y-98015000D01*
X127712500Y-98015000D01*
X127735779Y-98016144D01*
X127735779Y-98016144D01*
G37*
D17*
X127475000Y-98540000D03*
G04 #@! TD*
D16*
G04 #@! TO.C,R8*
G36*
X134215779Y-97716144D02*
X134238834Y-97719563D01*
X134261443Y-97725227D01*
X134283387Y-97733079D01*
X134304457Y-97743044D01*
X134324448Y-97755026D01*
X134343168Y-97768910D01*
X134360438Y-97784562D01*
X134376090Y-97801832D01*
X134389974Y-97820552D01*
X134401956Y-97840543D01*
X134411921Y-97861613D01*
X134419773Y-97883557D01*
X134425437Y-97906166D01*
X134428856Y-97929221D01*
X134430000Y-97952500D01*
X134430000Y-98427500D01*
X134428856Y-98450779D01*
X134425437Y-98473834D01*
X134419773Y-98496443D01*
X134411921Y-98518387D01*
X134401956Y-98539457D01*
X134389974Y-98559448D01*
X134376090Y-98578168D01*
X134360438Y-98595438D01*
X134343168Y-98611090D01*
X134324448Y-98624974D01*
X134304457Y-98636956D01*
X134283387Y-98646921D01*
X134261443Y-98654773D01*
X134238834Y-98660437D01*
X134215779Y-98663856D01*
X134192500Y-98665000D01*
X133617500Y-98665000D01*
X133594221Y-98663856D01*
X133571166Y-98660437D01*
X133548557Y-98654773D01*
X133526613Y-98646921D01*
X133505543Y-98636956D01*
X133485552Y-98624974D01*
X133466832Y-98611090D01*
X133449562Y-98595438D01*
X133433910Y-98578168D01*
X133420026Y-98559448D01*
X133408044Y-98539457D01*
X133398079Y-98518387D01*
X133390227Y-98496443D01*
X133384563Y-98473834D01*
X133381144Y-98450779D01*
X133380000Y-98427500D01*
X133380000Y-97952500D01*
X133381144Y-97929221D01*
X133384563Y-97906166D01*
X133390227Y-97883557D01*
X133398079Y-97861613D01*
X133408044Y-97840543D01*
X133420026Y-97820552D01*
X133433910Y-97801832D01*
X133449562Y-97784562D01*
X133466832Y-97768910D01*
X133485552Y-97755026D01*
X133505543Y-97743044D01*
X133526613Y-97733079D01*
X133548557Y-97725227D01*
X133571166Y-97719563D01*
X133594221Y-97716144D01*
X133617500Y-97715000D01*
X134192500Y-97715000D01*
X134215779Y-97716144D01*
X134215779Y-97716144D01*
G37*
D17*
X133905000Y-98190000D03*
D16*
G36*
X132465779Y-97716144D02*
X132488834Y-97719563D01*
X132511443Y-97725227D01*
X132533387Y-97733079D01*
X132554457Y-97743044D01*
X132574448Y-97755026D01*
X132593168Y-97768910D01*
X132610438Y-97784562D01*
X132626090Y-97801832D01*
X132639974Y-97820552D01*
X132651956Y-97840543D01*
X132661921Y-97861613D01*
X132669773Y-97883557D01*
X132675437Y-97906166D01*
X132678856Y-97929221D01*
X132680000Y-97952500D01*
X132680000Y-98427500D01*
X132678856Y-98450779D01*
X132675437Y-98473834D01*
X132669773Y-98496443D01*
X132661921Y-98518387D01*
X132651956Y-98539457D01*
X132639974Y-98559448D01*
X132626090Y-98578168D01*
X132610438Y-98595438D01*
X132593168Y-98611090D01*
X132574448Y-98624974D01*
X132554457Y-98636956D01*
X132533387Y-98646921D01*
X132511443Y-98654773D01*
X132488834Y-98660437D01*
X132465779Y-98663856D01*
X132442500Y-98665000D01*
X131867500Y-98665000D01*
X131844221Y-98663856D01*
X131821166Y-98660437D01*
X131798557Y-98654773D01*
X131776613Y-98646921D01*
X131755543Y-98636956D01*
X131735552Y-98624974D01*
X131716832Y-98611090D01*
X131699562Y-98595438D01*
X131683910Y-98578168D01*
X131670026Y-98559448D01*
X131658044Y-98539457D01*
X131648079Y-98518387D01*
X131640227Y-98496443D01*
X131634563Y-98473834D01*
X131631144Y-98450779D01*
X131630000Y-98427500D01*
X131630000Y-97952500D01*
X131631144Y-97929221D01*
X131634563Y-97906166D01*
X131640227Y-97883557D01*
X131648079Y-97861613D01*
X131658044Y-97840543D01*
X131670026Y-97820552D01*
X131683910Y-97801832D01*
X131699562Y-97784562D01*
X131716832Y-97768910D01*
X131735552Y-97755026D01*
X131755543Y-97743044D01*
X131776613Y-97733079D01*
X131798557Y-97725227D01*
X131821166Y-97719563D01*
X131844221Y-97716144D01*
X131867500Y-97715000D01*
X132442500Y-97715000D01*
X132465779Y-97716144D01*
X132465779Y-97716144D01*
G37*
D17*
X132155000Y-98190000D03*
G04 #@! TD*
D20*
G04 #@! TO.C,D1*
X127895000Y-80800000D03*
X127895000Y-82700000D03*
X125895000Y-81750000D03*
G04 #@! TD*
D14*
G04 #@! TO.C,BT1*
X130230000Y-73290000D03*
D15*
X130230000Y-68210000D03*
G04 #@! TD*
D22*
G04 #@! TO.C,H2*
X120230000Y-63290000D03*
G04 #@! TD*
D25*
G36*
X144503000Y-74663000D02*
X137630000Y-74663000D01*
X137581399Y-74672667D01*
X137540197Y-74700197D01*
X137512667Y-74741399D01*
X137503000Y-74790000D01*
X137503000Y-77463000D01*
X135857000Y-77463000D01*
X135857000Y-71917000D01*
X144503000Y-71917000D01*
X144503000Y-74663000D01*
X144503000Y-74663000D01*
G37*
X144503000Y-74663000D02*
X137630000Y-74663000D01*
X137581399Y-74672667D01*
X137540197Y-74700197D01*
X137512667Y-74741399D01*
X137503000Y-74790000D01*
X137503000Y-77463000D01*
X135857000Y-77463000D01*
X135857000Y-71917000D01*
X144503000Y-71917000D01*
X144503000Y-74663000D01*
G36*
X134903000Y-77470392D02*
X133257000Y-77470392D01*
X133257000Y-74897392D01*
X133247333Y-74848791D01*
X133219803Y-74807589D01*
X133178601Y-74780059D01*
X133130000Y-74770392D01*
X128857000Y-74770392D01*
X128857000Y-71924392D01*
X134903000Y-71924392D01*
X134903000Y-77470392D01*
X134903000Y-77470392D01*
G37*
X134903000Y-77470392D02*
X133257000Y-77470392D01*
X133257000Y-74897392D01*
X133247333Y-74848791D01*
X133219803Y-74807589D01*
X133178601Y-74780059D01*
X133130000Y-74770392D01*
X128857000Y-74770392D01*
X128857000Y-71924392D01*
X134903000Y-71924392D01*
X134903000Y-77470392D01*
G36*
X142998696Y-69563000D02*
X130357000Y-69563000D01*
X130357000Y-66817000D01*
X142907162Y-66817000D01*
X142998696Y-69563000D01*
X142998696Y-69563000D01*
G37*
X142998696Y-69563000D02*
X130357000Y-69563000D01*
X130357000Y-66817000D01*
X142907162Y-66817000D01*
X142998696Y-69563000D01*
M02*
