G04 #@! TF.GenerationSoftware,KiCad,Pcbnew,5.0.2-bee76a0~70~ubuntu16.04.1*
G04 #@! TF.CreationDate,2019-03-16T14:37:54+00:00*
G04 #@! TF.ProjectId,project,70726f6a-6563-4742-9e6b-696361645f70,rev?*
G04 #@! TF.SameCoordinates,Original*
G04 #@! TF.FileFunction,Legend,Top*
G04 #@! TF.FilePolarity,Positive*
%FSLAX46Y46*%
G04 Gerber Fmt 4.6, Leading zero omitted, Abs format (unit mm)*
G04 Created by KiCad (PCBNEW 5.0.2-bee76a0~70~ubuntu16.04.1) date Sat 16 Mar 2019 14:37:54 GMT*
%MOMM*%
%LPD*%
G01*
G04 APERTURE LIST*
%ADD10C,0.300000*%
%ADD11C,0.150000*%
%ADD12C,0.190000*%
%ADD13C,0.120000*%
G04 APERTURE END LIST*
D10*
X99337857Y-127903571D02*
X99480714Y-127903571D01*
X99623571Y-127975000D01*
X99695000Y-128046428D01*
X99766428Y-128189285D01*
X99837857Y-128475000D01*
X99837857Y-128832142D01*
X99766428Y-129117857D01*
X99695000Y-129260714D01*
X99623571Y-129332142D01*
X99480714Y-129403571D01*
X99337857Y-129403571D01*
X99195000Y-129332142D01*
X99123571Y-129260714D01*
X99052142Y-129117857D01*
X98980714Y-128832142D01*
X98980714Y-128475000D01*
X99052142Y-128189285D01*
X99123571Y-128046428D01*
X99195000Y-127975000D01*
X99337857Y-127903571D01*
X100337857Y-127903571D02*
X101266428Y-127903571D01*
X100766428Y-128475000D01*
X100980714Y-128475000D01*
X101123571Y-128546428D01*
X101195000Y-128617857D01*
X101266428Y-128760714D01*
X101266428Y-129117857D01*
X101195000Y-129260714D01*
X101123571Y-129332142D01*
X100980714Y-129403571D01*
X100552142Y-129403571D01*
X100409285Y-129332142D01*
X100337857Y-129260714D01*
X102980714Y-127832142D02*
X101695000Y-129760714D01*
X103409285Y-128046428D02*
X103480714Y-127975000D01*
X103623571Y-127903571D01*
X103980714Y-127903571D01*
X104123571Y-127975000D01*
X104195000Y-128046428D01*
X104266428Y-128189285D01*
X104266428Y-128332142D01*
X104195000Y-128546428D01*
X103337857Y-129403571D01*
X104266428Y-129403571D01*
X105195000Y-127903571D02*
X105337857Y-127903571D01*
X105480714Y-127975000D01*
X105552142Y-128046428D01*
X105623571Y-128189285D01*
X105695000Y-128475000D01*
X105695000Y-128832142D01*
X105623571Y-129117857D01*
X105552142Y-129260714D01*
X105480714Y-129332142D01*
X105337857Y-129403571D01*
X105195000Y-129403571D01*
X105052142Y-129332142D01*
X104980714Y-129260714D01*
X104909285Y-129117857D01*
X104837857Y-128832142D01*
X104837857Y-128475000D01*
X104909285Y-128189285D01*
X104980714Y-128046428D01*
X105052142Y-127975000D01*
X105195000Y-127903571D01*
X107123571Y-129403571D02*
X106266428Y-129403571D01*
X106695000Y-129403571D02*
X106695000Y-127903571D01*
X106552142Y-128117857D01*
X106409285Y-128260714D01*
X106266428Y-128332142D01*
X107837857Y-129403571D02*
X108123571Y-129403571D01*
X108266428Y-129332142D01*
X108337857Y-129260714D01*
X108480714Y-129046428D01*
X108552142Y-128760714D01*
X108552142Y-128189285D01*
X108480714Y-128046428D01*
X108409285Y-127975000D01*
X108266428Y-127903571D01*
X107980714Y-127903571D01*
X107837857Y-127975000D01*
X107766428Y-128046428D01*
X107695000Y-128189285D01*
X107695000Y-128546428D01*
X107766428Y-128689285D01*
X107837857Y-128760714D01*
X107980714Y-128832142D01*
X108266428Y-128832142D01*
X108409285Y-128760714D01*
X108480714Y-128689285D01*
X108552142Y-128546428D01*
X100123571Y-130382142D02*
X98837857Y-132310714D01*
X100409285Y-130953571D02*
X100980714Y-130953571D01*
X100623571Y-130453571D02*
X100623571Y-131739285D01*
X100695000Y-131882142D01*
X100837857Y-131953571D01*
X100980714Y-131953571D01*
X101480714Y-131953571D02*
X101480714Y-130453571D01*
X102123571Y-131953571D02*
X102123571Y-131167857D01*
X102052142Y-131025000D01*
X101909285Y-130953571D01*
X101695000Y-130953571D01*
X101552142Y-131025000D01*
X101480714Y-131096428D01*
X103409285Y-131882142D02*
X103266428Y-131953571D01*
X102980714Y-131953571D01*
X102837857Y-131882142D01*
X102766428Y-131739285D01*
X102766428Y-131167857D01*
X102837857Y-131025000D01*
X102980714Y-130953571D01*
X103266428Y-130953571D01*
X103409285Y-131025000D01*
X103480714Y-131167857D01*
X103480714Y-131310714D01*
X102766428Y-131453571D01*
X104766428Y-131953571D02*
X104766428Y-131167857D01*
X104695000Y-131025000D01*
X104552142Y-130953571D01*
X104266428Y-130953571D01*
X104123571Y-131025000D01*
X104766428Y-131882142D02*
X104623571Y-131953571D01*
X104266428Y-131953571D01*
X104123571Y-131882142D01*
X104052142Y-131739285D01*
X104052142Y-131596428D01*
X104123571Y-131453571D01*
X104266428Y-131382142D01*
X104623571Y-131382142D01*
X104766428Y-131310714D01*
X105480714Y-130953571D02*
X105480714Y-132453571D01*
X105480714Y-131025000D02*
X105623571Y-130953571D01*
X105909285Y-130953571D01*
X106052142Y-131025000D01*
X106123571Y-131096428D01*
X106195000Y-131239285D01*
X106195000Y-131667857D01*
X106123571Y-131810714D01*
X106052142Y-131882142D01*
X105909285Y-131953571D01*
X105623571Y-131953571D01*
X105480714Y-131882142D01*
X106837857Y-131953571D02*
X106837857Y-130953571D01*
X106837857Y-130453571D02*
X106766428Y-130525000D01*
X106837857Y-130596428D01*
X106909285Y-130525000D01*
X106837857Y-130453571D01*
X106837857Y-130596428D01*
X108623571Y-130382142D02*
X107337857Y-132310714D01*
X109123571Y-130953571D02*
X109123571Y-132453571D01*
X109123571Y-131025000D02*
X109266428Y-130953571D01*
X109552142Y-130953571D01*
X109695000Y-131025000D01*
X109766428Y-131096428D01*
X109837857Y-131239285D01*
X109837857Y-131667857D01*
X109766428Y-131810714D01*
X109695000Y-131882142D01*
X109552142Y-131953571D01*
X109266428Y-131953571D01*
X109123571Y-131882142D01*
X110337857Y-130953571D02*
X110623571Y-131953571D01*
X110909285Y-131239285D01*
X111195000Y-131953571D01*
X111480714Y-130953571D01*
X112052142Y-131953571D02*
X112052142Y-130953571D01*
X112052142Y-131096428D02*
X112123571Y-131025000D01*
X112266428Y-130953571D01*
X112480714Y-130953571D01*
X112623571Y-131025000D01*
X112695000Y-131167857D01*
X112695000Y-131953571D01*
X112695000Y-131167857D02*
X112766428Y-131025000D01*
X112909285Y-130953571D01*
X113123571Y-130953571D01*
X113266428Y-131025000D01*
X113337857Y-131167857D01*
X113337857Y-131953571D01*
X114052142Y-131382142D02*
X115195000Y-131382142D01*
X116552142Y-131882142D02*
X116409285Y-131953571D01*
X116123571Y-131953571D01*
X115980714Y-131882142D01*
X115909285Y-131810714D01*
X115837857Y-131667857D01*
X115837857Y-131239285D01*
X115909285Y-131096428D01*
X115980714Y-131025000D01*
X116123571Y-130953571D01*
X116409285Y-130953571D01*
X116552142Y-131025000D01*
X117195000Y-131953571D02*
X117195000Y-130453571D01*
X117837857Y-131953571D02*
X117837857Y-131167857D01*
X117766428Y-131025000D01*
X117623571Y-130953571D01*
X117409285Y-130953571D01*
X117266428Y-131025000D01*
X117195000Y-131096428D01*
X119195000Y-131953571D02*
X119195000Y-131167857D01*
X119123571Y-131025000D01*
X118980714Y-130953571D01*
X118695000Y-130953571D01*
X118552142Y-131025000D01*
X119195000Y-131882142D02*
X119052142Y-131953571D01*
X118695000Y-131953571D01*
X118552142Y-131882142D01*
X118480714Y-131739285D01*
X118480714Y-131596428D01*
X118552142Y-131453571D01*
X118695000Y-131382142D01*
X119052142Y-131382142D01*
X119195000Y-131310714D01*
X119909285Y-131953571D02*
X119909285Y-130953571D01*
X119909285Y-131239285D02*
X119980714Y-131096428D01*
X120052142Y-131025000D01*
X120195000Y-130953571D01*
X120337857Y-130953571D01*
X121480714Y-130953571D02*
X121480714Y-132167857D01*
X121409285Y-132310714D01*
X121337857Y-132382142D01*
X121195000Y-132453571D01*
X120980714Y-132453571D01*
X120837857Y-132382142D01*
X121480714Y-131882142D02*
X121337857Y-131953571D01*
X121052142Y-131953571D01*
X120909285Y-131882142D01*
X120837857Y-131810714D01*
X120766428Y-131667857D01*
X120766428Y-131239285D01*
X120837857Y-131096428D01*
X120909285Y-131025000D01*
X121052142Y-130953571D01*
X121337857Y-130953571D01*
X121480714Y-131025000D01*
X122766428Y-131882142D02*
X122623571Y-131953571D01*
X122337857Y-131953571D01*
X122195000Y-131882142D01*
X122123571Y-131739285D01*
X122123571Y-131167857D01*
X122195000Y-131025000D01*
X122337857Y-130953571D01*
X122623571Y-130953571D01*
X122766428Y-131025000D01*
X122837857Y-131167857D01*
X122837857Y-131310714D01*
X122123571Y-131453571D01*
X123480714Y-131382142D02*
X124623571Y-131382142D01*
X125980714Y-131882142D02*
X125837857Y-131953571D01*
X125552142Y-131953571D01*
X125409285Y-131882142D01*
X125337857Y-131810714D01*
X125266428Y-131667857D01*
X125266428Y-131239285D01*
X125337857Y-131096428D01*
X125409285Y-131025000D01*
X125552142Y-130953571D01*
X125837857Y-130953571D01*
X125980714Y-131025000D01*
X126837857Y-131953571D02*
X126695000Y-131882142D01*
X126623571Y-131810714D01*
X126552142Y-131667857D01*
X126552142Y-131239285D01*
X126623571Y-131096428D01*
X126695000Y-131025000D01*
X126837857Y-130953571D01*
X127052142Y-130953571D01*
X127195000Y-131025000D01*
X127266428Y-131096428D01*
X127337857Y-131239285D01*
X127337857Y-131667857D01*
X127266428Y-131810714D01*
X127195000Y-131882142D01*
X127052142Y-131953571D01*
X126837857Y-131953571D01*
X127980714Y-130953571D02*
X127980714Y-131953571D01*
X127980714Y-131096428D02*
X128052142Y-131025000D01*
X128195000Y-130953571D01*
X128409285Y-130953571D01*
X128552142Y-131025000D01*
X128623571Y-131167857D01*
X128623571Y-131953571D01*
X129123571Y-130953571D02*
X129695000Y-130953571D01*
X129337857Y-130453571D02*
X129337857Y-131739285D01*
X129409285Y-131882142D01*
X129552142Y-131953571D01*
X129695000Y-131953571D01*
X130195000Y-131953571D02*
X130195000Y-130953571D01*
X130195000Y-131239285D02*
X130266428Y-131096428D01*
X130337857Y-131025000D01*
X130480714Y-130953571D01*
X130623571Y-130953571D01*
X131337857Y-131953571D02*
X131195000Y-131882142D01*
X131123571Y-131810714D01*
X131052142Y-131667857D01*
X131052142Y-131239285D01*
X131123571Y-131096428D01*
X131195000Y-131025000D01*
X131337857Y-130953571D01*
X131552142Y-130953571D01*
X131695000Y-131025000D01*
X131766428Y-131096428D01*
X131837857Y-131239285D01*
X131837857Y-131667857D01*
X131766428Y-131810714D01*
X131695000Y-131882142D01*
X131552142Y-131953571D01*
X131337857Y-131953571D01*
X132695000Y-131953571D02*
X132552142Y-131882142D01*
X132480714Y-131739285D01*
X132480714Y-130453571D01*
X133480714Y-131953571D02*
X133337857Y-131882142D01*
X133266428Y-131739285D01*
X133266428Y-130453571D01*
X134623571Y-131882142D02*
X134480714Y-131953571D01*
X134195000Y-131953571D01*
X134052142Y-131882142D01*
X133980714Y-131739285D01*
X133980714Y-131167857D01*
X134052142Y-131025000D01*
X134195000Y-130953571D01*
X134480714Y-130953571D01*
X134623571Y-131025000D01*
X134695000Y-131167857D01*
X134695000Y-131310714D01*
X133980714Y-131453571D01*
X135337857Y-131953571D02*
X135337857Y-130953571D01*
X135337857Y-131239285D02*
X135409285Y-131096428D01*
X135480714Y-131025000D01*
X135623571Y-130953571D01*
X135766428Y-130953571D01*
X137266428Y-130953571D02*
X137623571Y-131953571D01*
X137980714Y-130953571D01*
X139337857Y-131953571D02*
X138480714Y-131953571D01*
X138909285Y-131953571D02*
X138909285Y-130453571D01*
X138766428Y-130667857D01*
X138623571Y-130810714D01*
X138480714Y-130882142D01*
X139980714Y-131810714D02*
X140052142Y-131882142D01*
X139980714Y-131953571D01*
X139909285Y-131882142D01*
X139980714Y-131810714D01*
X139980714Y-131953571D01*
X140980714Y-130453571D02*
X141123571Y-130453571D01*
X141266428Y-130525000D01*
X141337857Y-130596428D01*
X141409285Y-130739285D01*
X141480714Y-131025000D01*
X141480714Y-131382142D01*
X141409285Y-131667857D01*
X141337857Y-131810714D01*
X141266428Y-131882142D01*
X141123571Y-131953571D01*
X140980714Y-131953571D01*
X140837857Y-131882142D01*
X140766428Y-131810714D01*
X140695000Y-131667857D01*
X140623571Y-131382142D01*
X140623571Y-131025000D01*
X140695000Y-130739285D01*
X140766428Y-130596428D01*
X140837857Y-130525000D01*
X140980714Y-130453571D01*
D11*
X94538095Y-95485714D02*
X94919047Y-95219047D01*
X94538095Y-95028571D02*
X95338095Y-95028571D01*
X95338095Y-95333333D01*
X95300000Y-95409523D01*
X95261904Y-95447619D01*
X95185714Y-95485714D01*
X95071428Y-95485714D01*
X94995238Y-95447619D01*
X94957142Y-95409523D01*
X94919047Y-95333333D01*
X94919047Y-95028571D01*
X94957142Y-95828571D02*
X94957142Y-96095238D01*
X94538095Y-96209523D02*
X94538095Y-95828571D01*
X95338095Y-95828571D01*
X95338095Y-96209523D01*
X94538095Y-96552380D02*
X95338095Y-96552380D01*
X95338095Y-96742857D01*
X95300000Y-96857142D01*
X95223809Y-96933333D01*
X95147619Y-96971428D01*
X94995238Y-97009523D01*
X94880952Y-97009523D01*
X94728571Y-96971428D01*
X94652380Y-96933333D01*
X94576190Y-96857142D01*
X94538095Y-96742857D01*
X94538095Y-96552380D01*
X94957142Y-101133333D02*
X94919047Y-101247619D01*
X94880952Y-101285714D01*
X94804761Y-101323809D01*
X94690476Y-101323809D01*
X94614285Y-101285714D01*
X94576190Y-101247619D01*
X94538095Y-101171428D01*
X94538095Y-100866666D01*
X95338095Y-100866666D01*
X95338095Y-101133333D01*
X95300000Y-101209523D01*
X95261904Y-101247619D01*
X95185714Y-101285714D01*
X95109523Y-101285714D01*
X95033333Y-101247619D01*
X94995238Y-101209523D01*
X94957142Y-101133333D01*
X94957142Y-100866666D01*
X94538095Y-102047619D02*
X94538095Y-101666666D01*
X95338095Y-101666666D01*
X94538095Y-102314285D02*
X95338095Y-102314285D01*
X94538095Y-102771428D02*
X94995238Y-102428571D01*
X95338095Y-102771428D02*
X94880952Y-102314285D01*
D12*
X89533333Y-93566666D02*
X90009523Y-93566666D01*
X89438095Y-93852380D02*
X89771428Y-92852380D01*
X90104761Y-93852380D01*
X90438095Y-93852380D02*
X90438095Y-92852380D01*
X90771428Y-93566666D01*
X91104761Y-92852380D01*
X91104761Y-93852380D01*
X91580952Y-93852380D02*
X91580952Y-92852380D01*
X91914285Y-93566666D01*
X92247619Y-92852380D01*
X92247619Y-93852380D01*
X92723809Y-93328571D02*
X93057142Y-93328571D01*
X93200000Y-93852380D02*
X92723809Y-93852380D01*
X92723809Y-92852380D01*
X93200000Y-92852380D01*
X93485714Y-92852380D02*
X94057142Y-92852380D01*
X93771428Y-93852380D02*
X93771428Y-92852380D01*
X94390476Y-93328571D02*
X94723809Y-93328571D01*
X94866666Y-93852380D02*
X94390476Y-93852380D01*
X94390476Y-92852380D01*
X94866666Y-92852380D01*
X95866666Y-93852380D02*
X95533333Y-93376190D01*
X95295238Y-93852380D02*
X95295238Y-92852380D01*
X95676190Y-92852380D01*
X95771428Y-92900000D01*
X95819047Y-92947619D01*
X95866666Y-93042857D01*
X95866666Y-93185714D01*
X95819047Y-93280952D01*
X95771428Y-93328571D01*
X95676190Y-93376190D01*
X95295238Y-93376190D01*
X96919047Y-95852380D02*
X97252380Y-96852380D01*
X97585714Y-95852380D01*
X98109523Y-95852380D02*
X98300000Y-95852380D01*
X98395238Y-95900000D01*
X98490476Y-95995238D01*
X98538095Y-96185714D01*
X98538095Y-96519047D01*
X98490476Y-96709523D01*
X98395238Y-96804761D01*
X98300000Y-96852380D01*
X98109523Y-96852380D01*
X98014285Y-96804761D01*
X97919047Y-96709523D01*
X97871428Y-96519047D01*
X97871428Y-96185714D01*
X97919047Y-95995238D01*
X98014285Y-95900000D01*
X98109523Y-95852380D01*
X99442857Y-96852380D02*
X98966666Y-96852380D01*
X98966666Y-95852380D01*
X99633333Y-95852380D02*
X100204761Y-95852380D01*
X99919047Y-96852380D02*
X99919047Y-95852380D01*
X101300000Y-96852380D02*
X101300000Y-95852380D01*
X101633333Y-96566666D01*
X101966666Y-95852380D01*
X101966666Y-96852380D01*
X102442857Y-96328571D02*
X102776190Y-96328571D01*
X102919047Y-96852380D02*
X102442857Y-96852380D01*
X102442857Y-95852380D01*
X102919047Y-95852380D01*
X103204761Y-95852380D02*
X103776190Y-95852380D01*
X103490476Y-96852380D02*
X103490476Y-95852380D01*
X104109523Y-96328571D02*
X104442857Y-96328571D01*
X104585714Y-96852380D02*
X104109523Y-96852380D01*
X104109523Y-95852380D01*
X104585714Y-95852380D01*
X105585714Y-96852380D02*
X105252380Y-96376190D01*
X105014285Y-96852380D02*
X105014285Y-95852380D01*
X105395238Y-95852380D01*
X105490476Y-95900000D01*
X105538095Y-95947619D01*
X105585714Y-96042857D01*
X105585714Y-96185714D01*
X105538095Y-96280952D01*
X105490476Y-96328571D01*
X105395238Y-96376190D01*
X105014285Y-96376190D01*
D13*
G04 #@! TO.C,J3*
X97190000Y-101830000D02*
X97190000Y-99170000D01*
X97190000Y-101830000D02*
X99990000Y-101830000D01*
X97480000Y-99180000D02*
X97480000Y-97660000D01*
X104600000Y-101830000D02*
X105170000Y-101830000D01*
X102740000Y-101830000D02*
X105300000Y-101830000D01*
X105320000Y-101840000D02*
X105320000Y-99180000D01*
D11*
G04 #@! TO.C,BT1*
X90820000Y-103930000D02*
X94040000Y-103930000D01*
X90500000Y-94530000D02*
X90500000Y-103590000D01*
X92440000Y-97990000D02*
X92430000Y-99670000D01*
X92420000Y-99690000D02*
X91950000Y-99200000D01*
X92430000Y-99720000D02*
X92920000Y-99190000D01*
D13*
G04 #@! TO.C,C1*
X149960000Y-118953733D02*
X149960000Y-119296267D01*
X148940000Y-118953733D02*
X148940000Y-119296267D01*
G04 #@! TO.C,C2*
X114176267Y-127840000D02*
X113833733Y-127840000D01*
X114176267Y-126820000D02*
X113833733Y-126820000D01*
G04 #@! TO.C,C3*
X146260000Y-118953733D02*
X146260000Y-119296267D01*
X145240000Y-118953733D02*
X145240000Y-119296267D01*
G04 #@! TO.C,C4*
X169528733Y-121935000D02*
X169871267Y-121935000D01*
X169528733Y-120915000D02*
X169871267Y-120915000D01*
G04 #@! TO.C,C5*
X145453733Y-124310000D02*
X145796267Y-124310000D01*
X145453733Y-123290000D02*
X145796267Y-123290000D01*
G04 #@! TO.C,C6*
X169110000Y-126528733D02*
X169110000Y-126871267D01*
X168090000Y-126528733D02*
X168090000Y-126871267D01*
G04 #@! TO.C,C7*
X170090000Y-126528733D02*
X170090000Y-126871267D01*
X171110000Y-126528733D02*
X171110000Y-126871267D01*
G04 #@! TO.C,C8*
X176553733Y-125190000D02*
X176896267Y-125190000D01*
X176553733Y-126210000D02*
X176896267Y-126210000D01*
G04 #@! TO.C,C9*
X96490000Y-120828733D02*
X96490000Y-121171267D01*
X97510000Y-120828733D02*
X97510000Y-121171267D01*
G04 #@! TO.C,C10*
X135521267Y-109310000D02*
X135178733Y-109310000D01*
X135521267Y-108290000D02*
X135178733Y-108290000D01*
G04 #@! TO.C,C11*
X153590000Y-118978733D02*
X153590000Y-119321267D01*
X154610000Y-118978733D02*
X154610000Y-119321267D01*
G04 #@! TO.C,R1*
X174561267Y-86420000D02*
X174218733Y-86420000D01*
X174561267Y-85400000D02*
X174218733Y-85400000D01*
G04 #@! TO.C,R2*
X174561267Y-91350000D02*
X174218733Y-91350000D01*
X174561267Y-92370000D02*
X174218733Y-92370000D01*
G04 #@! TO.C,R3*
X176553733Y-123210000D02*
X176896267Y-123210000D01*
X176553733Y-122190000D02*
X176896267Y-122190000D01*
G04 #@! TO.C,R4*
X125260000Y-119253733D02*
X125260000Y-119596267D01*
X124240000Y-119253733D02*
X124240000Y-119596267D01*
G04 #@! TO.C,R5*
X121240000Y-119253733D02*
X121240000Y-119596267D01*
X122260000Y-119253733D02*
X122260000Y-119596267D01*
G04 #@! TO.C,R6*
X119260000Y-119253733D02*
X119260000Y-119596267D01*
X118240000Y-119253733D02*
X118240000Y-119596267D01*
G04 #@! TO.C,R7*
X100521267Y-85410000D02*
X100178733Y-85410000D01*
X100521267Y-86430000D02*
X100178733Y-86430000D01*
G04 #@! TO.C,R8*
X176783733Y-114060000D02*
X177126267Y-114060000D01*
X176783733Y-113040000D02*
X177126267Y-113040000D01*
G04 #@! TO.C,R9*
X181058733Y-113060000D02*
X181401267Y-113060000D01*
X181058733Y-114080000D02*
X181401267Y-114080000D01*
G04 #@! TO.C,R10*
X101296267Y-119490000D02*
X100953733Y-119490000D01*
X101296267Y-120510000D02*
X100953733Y-120510000D01*
G04 #@! TO.C,R14*
X100828733Y-116490000D02*
X101171267Y-116490000D01*
X100828733Y-117510000D02*
X101171267Y-117510000D01*
G04 #@! TO.C,R15*
X101296267Y-122490000D02*
X100953733Y-122490000D01*
X101296267Y-123510000D02*
X100953733Y-123510000D01*
G04 #@! TO.C,R16*
X136238748Y-120290000D02*
X136761252Y-120290000D01*
X136238748Y-121710000D02*
X136761252Y-121710000D01*
G04 #@! TO.C,R17*
X100278733Y-91390000D02*
X100621267Y-91390000D01*
X100278733Y-92410000D02*
X100621267Y-92410000D01*
D11*
G04 #@! TO.C,U1*
X112475000Y-121775000D02*
X112475000Y-121950000D01*
X115725000Y-121775000D02*
X115725000Y-122050000D01*
X115725000Y-125025000D02*
X115725000Y-124750000D01*
X112475000Y-125025000D02*
X112475000Y-124750000D01*
X112475000Y-121775000D02*
X115725000Y-121775000D01*
X112475000Y-125025000D02*
X115725000Y-125025000D01*
X112475000Y-121950000D02*
X111400000Y-121950000D01*
D13*
G04 #@! TO.C,U2*
X139890000Y-121600000D02*
X139890000Y-123400000D01*
X143110000Y-123400000D02*
X143110000Y-120950000D01*
G04 #@! TO.C,TP1*
X122200000Y-124600000D02*
G75*
G03X122200000Y-124600000I-700000J0D01*
G01*
D11*
G04 #@! TO.C,REF\002A\002A*
X167994214Y-109440000D02*
G75*
G03X167994214Y-109440000I-1414214J0D01*
G01*
X167870000Y-108310000D02*
X167640000Y-108420000D01*
X168060000Y-108230000D02*
X167870000Y-108310000D01*
X168210000Y-108080000D02*
X168060000Y-108230000D01*
X168250000Y-107890000D02*
X168210000Y-108080000D01*
X168210000Y-107540000D02*
X168250000Y-107890000D01*
X168060000Y-107240000D02*
X168210000Y-107540000D01*
X167680000Y-107090000D02*
X168060000Y-107240000D01*
X167300000Y-107130000D02*
X167680000Y-107090000D01*
X166950000Y-107430000D02*
X167300000Y-107130000D01*
X166720000Y-107620000D02*
X166950000Y-107430000D01*
X166570000Y-108000000D02*
X166720000Y-107620000D01*
X165240000Y-108840000D02*
X165240000Y-108880000D01*
X165160000Y-108840000D02*
X165240000Y-108840000D01*
X164930000Y-108800000D02*
X165160000Y-108840000D01*
X164670000Y-108650000D02*
X164930000Y-108800000D01*
X164480000Y-108230000D02*
X164670000Y-108650000D01*
X164590000Y-107620000D02*
X164480000Y-108230000D01*
X164890000Y-107320000D02*
X164590000Y-107620000D01*
X165310000Y-107160000D02*
X164890000Y-107320000D01*
X165890000Y-107240000D02*
X165310000Y-107160000D01*
X166230000Y-107430000D02*
X165890000Y-107240000D01*
X166570000Y-108040000D02*
X166230000Y-107430000D01*
X165280000Y-110290000D02*
X165350000Y-110290000D01*
X165010000Y-110590000D02*
X165280000Y-110290000D01*
X164820000Y-110710000D02*
X165010000Y-110590000D01*
X164440000Y-110710000D02*
X164820000Y-110710000D01*
X164090000Y-110400000D02*
X164440000Y-110710000D01*
X164020000Y-110170000D02*
X164090000Y-110400000D01*
X164020000Y-109910000D02*
X164020000Y-110170000D01*
X164090000Y-109640000D02*
X164020000Y-109910000D01*
X164250000Y-109340000D02*
X164090000Y-109640000D01*
X164670000Y-109070000D02*
X164250000Y-109340000D01*
X165200000Y-108840000D02*
X164670000Y-109070000D01*
X166910000Y-111130000D02*
X166910000Y-110860000D01*
X166840000Y-111470000D02*
X166910000Y-111130000D01*
X166720000Y-111810000D02*
X166840000Y-111470000D01*
X166500000Y-112160000D02*
X166720000Y-111810000D01*
X165920000Y-112270000D02*
X166500000Y-112160000D01*
X165430000Y-111960000D02*
X165920000Y-112270000D01*
X165160000Y-111430000D02*
X165430000Y-111960000D01*
X165200000Y-110860000D02*
X165160000Y-111430000D01*
X165350000Y-110290000D02*
X165200000Y-110860000D01*
X168060000Y-109790000D02*
X167900000Y-109720000D01*
X168290000Y-109870000D02*
X168060000Y-109790000D01*
X168630000Y-109910000D02*
X168290000Y-109870000D01*
X168930000Y-109830000D02*
X168630000Y-109910000D01*
X169280000Y-109720000D02*
X168930000Y-109830000D01*
X169430000Y-109410000D02*
X169280000Y-109720000D01*
X169430000Y-109110000D02*
X169430000Y-109410000D01*
X169350000Y-108690000D02*
X169430000Y-109110000D01*
X168820000Y-108350000D02*
X169350000Y-108690000D01*
X168320000Y-108380000D02*
X168820000Y-108350000D01*
X167680000Y-108570000D02*
X168320000Y-108380000D01*
X167070000Y-111090000D02*
X166910000Y-110860000D01*
X167300000Y-111470000D02*
X167070000Y-111090000D01*
X167490000Y-111660000D02*
X167300000Y-111470000D01*
X167790000Y-111810000D02*
X167490000Y-111660000D01*
X168130000Y-111810000D02*
X167790000Y-111810000D01*
X168480000Y-111550000D02*
X168130000Y-111810000D01*
X168670000Y-111280000D02*
X168480000Y-111550000D01*
X168670000Y-110820000D02*
X168670000Y-111280000D01*
X168440000Y-110290000D02*
X168670000Y-110820000D01*
X168020000Y-109790000D02*
X168440000Y-110290000D01*
X167490000Y-109530000D02*
X167410000Y-109600000D01*
X167370000Y-109750000D02*
X167490000Y-109530000D01*
X167260000Y-109950000D02*
X167370000Y-109750000D01*
X167030000Y-110140000D02*
X167260000Y-109950000D01*
X166880000Y-110210000D02*
X167030000Y-110140000D01*
X166720000Y-110210000D02*
X166880000Y-110210000D01*
X166570000Y-110210000D02*
X166720000Y-110210000D01*
X166380000Y-110210000D02*
X166570000Y-110210000D01*
X166230000Y-110140000D02*
X166380000Y-110210000D01*
X165890000Y-109870000D02*
X166230000Y-110140000D01*
X166030000Y-108940000D02*
X165770000Y-108880000D01*
X166140000Y-109020000D02*
X166030000Y-108940000D01*
X166120000Y-109120000D02*
X166140000Y-109020000D01*
X166000000Y-109270000D02*
X166120000Y-109120000D01*
X165850000Y-109370000D02*
X166000000Y-109270000D01*
X165700000Y-109290000D02*
X165850000Y-109370000D01*
X165600000Y-109200000D02*
X165700000Y-109290000D01*
X165620000Y-109050000D02*
X165600000Y-109200000D01*
X165740000Y-108830000D02*
X165620000Y-109050000D01*
X167160000Y-108740000D02*
X166980000Y-108700000D01*
X167250000Y-108850000D02*
X167160000Y-108740000D01*
X167280000Y-108970000D02*
X167250000Y-108850000D01*
X167160000Y-109140000D02*
X167280000Y-108970000D01*
X166980000Y-109180000D02*
X167160000Y-109140000D01*
X166820000Y-109120000D02*
X166980000Y-109180000D01*
X166720000Y-109020000D02*
X166820000Y-109120000D01*
X166810000Y-108830000D02*
X166720000Y-109020000D01*
X166960000Y-108710000D02*
X166810000Y-108830000D01*
X168010000Y-116490000D02*
X167960000Y-116490000D01*
X167900000Y-116050000D02*
X168010000Y-116490000D01*
X167680000Y-115100000D02*
X167900000Y-116050000D01*
X167680000Y-114710000D02*
X167680000Y-115100000D01*
X167840000Y-114150000D02*
X167680000Y-114710000D01*
X167840000Y-113640000D02*
X167840000Y-114150000D01*
X167840000Y-113200000D02*
X167840000Y-113640000D01*
X167680000Y-112750000D02*
X167840000Y-113200000D01*
X167400000Y-112300000D02*
X167680000Y-112750000D01*
X166950000Y-111240000D02*
X167400000Y-112300000D01*
X168040000Y-115130000D02*
X167840000Y-115370000D01*
X168160000Y-115000000D02*
X168040000Y-115130000D01*
X168480000Y-114960000D02*
X168160000Y-115000000D01*
X168300000Y-115130000D02*
X168480000Y-114960000D01*
X168130000Y-115320000D02*
X168300000Y-115130000D01*
X168010000Y-115510000D02*
X168130000Y-115320000D01*
X167870000Y-115780000D02*
X168010000Y-115510000D01*
G04 #@! TO.C,J3*
X98349047Y-101201428D02*
X99110952Y-101201428D01*
X103961428Y-101440952D02*
X103961428Y-100679047D01*
X104342380Y-101060000D02*
X103580476Y-101060000D01*
X100916666Y-99202380D02*
X101250000Y-100202380D01*
X101583333Y-99202380D01*
G04 #@! TO.C,C1*
X147433333Y-119857142D02*
X147385714Y-119904761D01*
X147242857Y-119952380D01*
X147147619Y-119952380D01*
X147004761Y-119904761D01*
X146909523Y-119809523D01*
X146861904Y-119714285D01*
X146814285Y-119523809D01*
X146814285Y-119380952D01*
X146861904Y-119190476D01*
X146909523Y-119095238D01*
X147004761Y-119000000D01*
X147147619Y-118952380D01*
X147242857Y-118952380D01*
X147385714Y-119000000D01*
X147433333Y-119047619D01*
X148385714Y-119952380D02*
X147814285Y-119952380D01*
X148100000Y-119952380D02*
X148100000Y-118952380D01*
X148004761Y-119095238D01*
X147909523Y-119190476D01*
X147814285Y-119238095D01*
G04 #@! TO.C,C2*
X113838333Y-126337142D02*
X113790714Y-126384761D01*
X113647857Y-126432380D01*
X113552619Y-126432380D01*
X113409761Y-126384761D01*
X113314523Y-126289523D01*
X113266904Y-126194285D01*
X113219285Y-126003809D01*
X113219285Y-125860952D01*
X113266904Y-125670476D01*
X113314523Y-125575238D01*
X113409761Y-125480000D01*
X113552619Y-125432380D01*
X113647857Y-125432380D01*
X113790714Y-125480000D01*
X113838333Y-125527619D01*
X114219285Y-125527619D02*
X114266904Y-125480000D01*
X114362142Y-125432380D01*
X114600238Y-125432380D01*
X114695476Y-125480000D01*
X114743095Y-125527619D01*
X114790714Y-125622857D01*
X114790714Y-125718095D01*
X114743095Y-125860952D01*
X114171666Y-126432380D01*
X114790714Y-126432380D01*
G04 #@! TO.C,C3*
X143583333Y-119857142D02*
X143535714Y-119904761D01*
X143392857Y-119952380D01*
X143297619Y-119952380D01*
X143154761Y-119904761D01*
X143059523Y-119809523D01*
X143011904Y-119714285D01*
X142964285Y-119523809D01*
X142964285Y-119380952D01*
X143011904Y-119190476D01*
X143059523Y-119095238D01*
X143154761Y-119000000D01*
X143297619Y-118952380D01*
X143392857Y-118952380D01*
X143535714Y-119000000D01*
X143583333Y-119047619D01*
X143916666Y-118952380D02*
X144535714Y-118952380D01*
X144202380Y-119333333D01*
X144345238Y-119333333D01*
X144440476Y-119380952D01*
X144488095Y-119428571D01*
X144535714Y-119523809D01*
X144535714Y-119761904D01*
X144488095Y-119857142D01*
X144440476Y-119904761D01*
X144345238Y-119952380D01*
X144059523Y-119952380D01*
X143964285Y-119904761D01*
X143916666Y-119857142D01*
G04 #@! TO.C,C4*
X169533333Y-120352142D02*
X169485714Y-120399761D01*
X169342857Y-120447380D01*
X169247619Y-120447380D01*
X169104761Y-120399761D01*
X169009523Y-120304523D01*
X168961904Y-120209285D01*
X168914285Y-120018809D01*
X168914285Y-119875952D01*
X168961904Y-119685476D01*
X169009523Y-119590238D01*
X169104761Y-119495000D01*
X169247619Y-119447380D01*
X169342857Y-119447380D01*
X169485714Y-119495000D01*
X169533333Y-119542619D01*
X170390476Y-119780714D02*
X170390476Y-120447380D01*
X170152380Y-119399761D02*
X169914285Y-120114047D01*
X170533333Y-120114047D01*
G04 #@! TO.C,C5*
X145458333Y-122727142D02*
X145410714Y-122774761D01*
X145267857Y-122822380D01*
X145172619Y-122822380D01*
X145029761Y-122774761D01*
X144934523Y-122679523D01*
X144886904Y-122584285D01*
X144839285Y-122393809D01*
X144839285Y-122250952D01*
X144886904Y-122060476D01*
X144934523Y-121965238D01*
X145029761Y-121870000D01*
X145172619Y-121822380D01*
X145267857Y-121822380D01*
X145410714Y-121870000D01*
X145458333Y-121917619D01*
X146363095Y-121822380D02*
X145886904Y-121822380D01*
X145839285Y-122298571D01*
X145886904Y-122250952D01*
X145982142Y-122203333D01*
X146220238Y-122203333D01*
X146315476Y-122250952D01*
X146363095Y-122298571D01*
X146410714Y-122393809D01*
X146410714Y-122631904D01*
X146363095Y-122727142D01*
X146315476Y-122774761D01*
X146220238Y-122822380D01*
X145982142Y-122822380D01*
X145886904Y-122774761D01*
X145839285Y-122727142D01*
G04 #@! TO.C,C6*
X168957142Y-123866666D02*
X169004761Y-123914285D01*
X169052380Y-124057142D01*
X169052380Y-124152380D01*
X169004761Y-124295238D01*
X168909523Y-124390476D01*
X168814285Y-124438095D01*
X168623809Y-124485714D01*
X168480952Y-124485714D01*
X168290476Y-124438095D01*
X168195238Y-124390476D01*
X168100000Y-124295238D01*
X168052380Y-124152380D01*
X168052380Y-124057142D01*
X168100000Y-123914285D01*
X168147619Y-123866666D01*
X168052380Y-123009523D02*
X168052380Y-123200000D01*
X168100000Y-123295238D01*
X168147619Y-123342857D01*
X168290476Y-123438095D01*
X168480952Y-123485714D01*
X168861904Y-123485714D01*
X168957142Y-123438095D01*
X169004761Y-123390476D01*
X169052380Y-123295238D01*
X169052380Y-123104761D01*
X169004761Y-123009523D01*
X168957142Y-122961904D01*
X168861904Y-122914285D01*
X168623809Y-122914285D01*
X168528571Y-122961904D01*
X168480952Y-123009523D01*
X168433333Y-123104761D01*
X168433333Y-123295238D01*
X168480952Y-123390476D01*
X168528571Y-123438095D01*
X168623809Y-123485714D01*
G04 #@! TO.C,C7*
X170957142Y-123866666D02*
X171004761Y-123914285D01*
X171052380Y-124057142D01*
X171052380Y-124152380D01*
X171004761Y-124295238D01*
X170909523Y-124390476D01*
X170814285Y-124438095D01*
X170623809Y-124485714D01*
X170480952Y-124485714D01*
X170290476Y-124438095D01*
X170195238Y-124390476D01*
X170100000Y-124295238D01*
X170052380Y-124152380D01*
X170052380Y-124057142D01*
X170100000Y-123914285D01*
X170147619Y-123866666D01*
X170052380Y-123533333D02*
X170052380Y-122866666D01*
X171052380Y-123295238D01*
G04 #@! TO.C,C8*
X176558333Y-124627142D02*
X176510714Y-124674761D01*
X176367857Y-124722380D01*
X176272619Y-124722380D01*
X176129761Y-124674761D01*
X176034523Y-124579523D01*
X175986904Y-124484285D01*
X175939285Y-124293809D01*
X175939285Y-124150952D01*
X175986904Y-123960476D01*
X176034523Y-123865238D01*
X176129761Y-123770000D01*
X176272619Y-123722380D01*
X176367857Y-123722380D01*
X176510714Y-123770000D01*
X176558333Y-123817619D01*
X177129761Y-124150952D02*
X177034523Y-124103333D01*
X176986904Y-124055714D01*
X176939285Y-123960476D01*
X176939285Y-123912857D01*
X176986904Y-123817619D01*
X177034523Y-123770000D01*
X177129761Y-123722380D01*
X177320238Y-123722380D01*
X177415476Y-123770000D01*
X177463095Y-123817619D01*
X177510714Y-123912857D01*
X177510714Y-123960476D01*
X177463095Y-124055714D01*
X177415476Y-124103333D01*
X177320238Y-124150952D01*
X177129761Y-124150952D01*
X177034523Y-124198571D01*
X176986904Y-124246190D01*
X176939285Y-124341428D01*
X176939285Y-124531904D01*
X176986904Y-124627142D01*
X177034523Y-124674761D01*
X177129761Y-124722380D01*
X177320238Y-124722380D01*
X177415476Y-124674761D01*
X177463095Y-124627142D01*
X177510714Y-124531904D01*
X177510714Y-124341428D01*
X177463095Y-124246190D01*
X177415476Y-124198571D01*
X177320238Y-124150952D01*
G04 #@! TO.C,C9*
X95857142Y-121166666D02*
X95904761Y-121214285D01*
X95952380Y-121357142D01*
X95952380Y-121452380D01*
X95904761Y-121595238D01*
X95809523Y-121690476D01*
X95714285Y-121738095D01*
X95523809Y-121785714D01*
X95380952Y-121785714D01*
X95190476Y-121738095D01*
X95095238Y-121690476D01*
X95000000Y-121595238D01*
X94952380Y-121452380D01*
X94952380Y-121357142D01*
X95000000Y-121214285D01*
X95047619Y-121166666D01*
X95952380Y-120690476D02*
X95952380Y-120500000D01*
X95904761Y-120404761D01*
X95857142Y-120357142D01*
X95714285Y-120261904D01*
X95523809Y-120214285D01*
X95142857Y-120214285D01*
X95047619Y-120261904D01*
X95000000Y-120309523D01*
X94952380Y-120404761D01*
X94952380Y-120595238D01*
X95000000Y-120690476D01*
X95047619Y-120738095D01*
X95142857Y-120785714D01*
X95380952Y-120785714D01*
X95476190Y-120738095D01*
X95523809Y-120690476D01*
X95571428Y-120595238D01*
X95571428Y-120404761D01*
X95523809Y-120309523D01*
X95476190Y-120261904D01*
X95380952Y-120214285D01*
G04 #@! TO.C,C10*
X135107142Y-114242857D02*
X135154761Y-114290476D01*
X135202380Y-114433333D01*
X135202380Y-114528571D01*
X135154761Y-114671428D01*
X135059523Y-114766666D01*
X134964285Y-114814285D01*
X134773809Y-114861904D01*
X134630952Y-114861904D01*
X134440476Y-114814285D01*
X134345238Y-114766666D01*
X134250000Y-114671428D01*
X134202380Y-114528571D01*
X134202380Y-114433333D01*
X134250000Y-114290476D01*
X134297619Y-114242857D01*
X135202380Y-113290476D02*
X135202380Y-113861904D01*
X135202380Y-113576190D02*
X134202380Y-113576190D01*
X134345238Y-113671428D01*
X134440476Y-113766666D01*
X134488095Y-113861904D01*
X134202380Y-112671428D02*
X134202380Y-112576190D01*
X134250000Y-112480952D01*
X134297619Y-112433333D01*
X134392857Y-112385714D01*
X134583333Y-112338095D01*
X134821428Y-112338095D01*
X135011904Y-112385714D01*
X135107142Y-112433333D01*
X135154761Y-112480952D01*
X135202380Y-112576190D01*
X135202380Y-112671428D01*
X135154761Y-112766666D01*
X135107142Y-112814285D01*
X135011904Y-112861904D01*
X134821428Y-112909523D01*
X134583333Y-112909523D01*
X134392857Y-112861904D01*
X134297619Y-112814285D01*
X134250000Y-112766666D01*
X134202380Y-112671428D01*
G04 #@! TO.C,C11*
X151157142Y-119857142D02*
X151109523Y-119904761D01*
X150966666Y-119952380D01*
X150871428Y-119952380D01*
X150728571Y-119904761D01*
X150633333Y-119809523D01*
X150585714Y-119714285D01*
X150538095Y-119523809D01*
X150538095Y-119380952D01*
X150585714Y-119190476D01*
X150633333Y-119095238D01*
X150728571Y-119000000D01*
X150871428Y-118952380D01*
X150966666Y-118952380D01*
X151109523Y-119000000D01*
X151157142Y-119047619D01*
X152109523Y-119952380D02*
X151538095Y-119952380D01*
X151823809Y-119952380D02*
X151823809Y-118952380D01*
X151728571Y-119095238D01*
X151633333Y-119190476D01*
X151538095Y-119238095D01*
X153061904Y-119952380D02*
X152490476Y-119952380D01*
X152776190Y-119952380D02*
X152776190Y-118952380D01*
X152680952Y-119095238D01*
X152585714Y-119190476D01*
X152490476Y-119238095D01*
G04 #@! TO.C,R1*
X174333333Y-84702380D02*
X174000000Y-84226190D01*
X173761904Y-84702380D02*
X173761904Y-83702380D01*
X174142857Y-83702380D01*
X174238095Y-83750000D01*
X174285714Y-83797619D01*
X174333333Y-83892857D01*
X174333333Y-84035714D01*
X174285714Y-84130952D01*
X174238095Y-84178571D01*
X174142857Y-84226190D01*
X173761904Y-84226190D01*
X175285714Y-84702380D02*
X174714285Y-84702380D01*
X175000000Y-84702380D02*
X175000000Y-83702380D01*
X174904761Y-83845238D01*
X174809523Y-83940476D01*
X174714285Y-83988095D01*
G04 #@! TO.C,R2*
X174223333Y-90702380D02*
X173890000Y-90226190D01*
X173651904Y-90702380D02*
X173651904Y-89702380D01*
X174032857Y-89702380D01*
X174128095Y-89750000D01*
X174175714Y-89797619D01*
X174223333Y-89892857D01*
X174223333Y-90035714D01*
X174175714Y-90130952D01*
X174128095Y-90178571D01*
X174032857Y-90226190D01*
X173651904Y-90226190D01*
X174604285Y-89797619D02*
X174651904Y-89750000D01*
X174747142Y-89702380D01*
X174985238Y-89702380D01*
X175080476Y-89750000D01*
X175128095Y-89797619D01*
X175175714Y-89892857D01*
X175175714Y-89988095D01*
X175128095Y-90130952D01*
X174556666Y-90702380D01*
X175175714Y-90702380D01*
G04 #@! TO.C,R3*
X176558333Y-121722380D02*
X176225000Y-121246190D01*
X175986904Y-121722380D02*
X175986904Y-120722380D01*
X176367857Y-120722380D01*
X176463095Y-120770000D01*
X176510714Y-120817619D01*
X176558333Y-120912857D01*
X176558333Y-121055714D01*
X176510714Y-121150952D01*
X176463095Y-121198571D01*
X176367857Y-121246190D01*
X175986904Y-121246190D01*
X176891666Y-120722380D02*
X177510714Y-120722380D01*
X177177380Y-121103333D01*
X177320238Y-121103333D01*
X177415476Y-121150952D01*
X177463095Y-121198571D01*
X177510714Y-121293809D01*
X177510714Y-121531904D01*
X177463095Y-121627142D01*
X177415476Y-121674761D01*
X177320238Y-121722380D01*
X177034523Y-121722380D01*
X176939285Y-121674761D01*
X176891666Y-121627142D01*
G04 #@! TO.C,R4*
X126702380Y-119566666D02*
X126226190Y-119900000D01*
X126702380Y-120138095D02*
X125702380Y-120138095D01*
X125702380Y-119757142D01*
X125750000Y-119661904D01*
X125797619Y-119614285D01*
X125892857Y-119566666D01*
X126035714Y-119566666D01*
X126130952Y-119614285D01*
X126178571Y-119661904D01*
X126226190Y-119757142D01*
X126226190Y-120138095D01*
X126035714Y-118709523D02*
X126702380Y-118709523D01*
X125654761Y-118947619D02*
X126369047Y-119185714D01*
X126369047Y-118566666D01*
G04 #@! TO.C,R5*
X123632380Y-119591666D02*
X123156190Y-119925000D01*
X123632380Y-120163095D02*
X122632380Y-120163095D01*
X122632380Y-119782142D01*
X122680000Y-119686904D01*
X122727619Y-119639285D01*
X122822857Y-119591666D01*
X122965714Y-119591666D01*
X123060952Y-119639285D01*
X123108571Y-119686904D01*
X123156190Y-119782142D01*
X123156190Y-120163095D01*
X122632380Y-118686904D02*
X122632380Y-119163095D01*
X123108571Y-119210714D01*
X123060952Y-119163095D01*
X123013333Y-119067857D01*
X123013333Y-118829761D01*
X123060952Y-118734523D01*
X123108571Y-118686904D01*
X123203809Y-118639285D01*
X123441904Y-118639285D01*
X123537142Y-118686904D01*
X123584761Y-118734523D01*
X123632380Y-118829761D01*
X123632380Y-119067857D01*
X123584761Y-119163095D01*
X123537142Y-119210714D01*
G04 #@! TO.C,R6*
X120632380Y-119591666D02*
X120156190Y-119925000D01*
X120632380Y-120163095D02*
X119632380Y-120163095D01*
X119632380Y-119782142D01*
X119680000Y-119686904D01*
X119727619Y-119639285D01*
X119822857Y-119591666D01*
X119965714Y-119591666D01*
X120060952Y-119639285D01*
X120108571Y-119686904D01*
X120156190Y-119782142D01*
X120156190Y-120163095D01*
X119632380Y-118734523D02*
X119632380Y-118925000D01*
X119680000Y-119020238D01*
X119727619Y-119067857D01*
X119870476Y-119163095D01*
X120060952Y-119210714D01*
X120441904Y-119210714D01*
X120537142Y-119163095D01*
X120584761Y-119115476D01*
X120632380Y-119020238D01*
X120632380Y-118829761D01*
X120584761Y-118734523D01*
X120537142Y-118686904D01*
X120441904Y-118639285D01*
X120203809Y-118639285D01*
X120108571Y-118686904D01*
X120060952Y-118734523D01*
X120013333Y-118829761D01*
X120013333Y-119020238D01*
X120060952Y-119115476D01*
X120108571Y-119163095D01*
X120203809Y-119210714D01*
G04 #@! TO.C,R7*
X100133333Y-84652380D02*
X99800000Y-84176190D01*
X99561904Y-84652380D02*
X99561904Y-83652380D01*
X99942857Y-83652380D01*
X100038095Y-83700000D01*
X100085714Y-83747619D01*
X100133333Y-83842857D01*
X100133333Y-83985714D01*
X100085714Y-84080952D01*
X100038095Y-84128571D01*
X99942857Y-84176190D01*
X99561904Y-84176190D01*
X100466666Y-83652380D02*
X101133333Y-83652380D01*
X100704761Y-84652380D01*
G04 #@! TO.C,R8*
X176833333Y-112452380D02*
X176500000Y-111976190D01*
X176261904Y-112452380D02*
X176261904Y-111452380D01*
X176642857Y-111452380D01*
X176738095Y-111500000D01*
X176785714Y-111547619D01*
X176833333Y-111642857D01*
X176833333Y-111785714D01*
X176785714Y-111880952D01*
X176738095Y-111928571D01*
X176642857Y-111976190D01*
X176261904Y-111976190D01*
X177404761Y-111880952D02*
X177309523Y-111833333D01*
X177261904Y-111785714D01*
X177214285Y-111690476D01*
X177214285Y-111642857D01*
X177261904Y-111547619D01*
X177309523Y-111500000D01*
X177404761Y-111452380D01*
X177595238Y-111452380D01*
X177690476Y-111500000D01*
X177738095Y-111547619D01*
X177785714Y-111642857D01*
X177785714Y-111690476D01*
X177738095Y-111785714D01*
X177690476Y-111833333D01*
X177595238Y-111880952D01*
X177404761Y-111880952D01*
X177309523Y-111928571D01*
X177261904Y-111976190D01*
X177214285Y-112071428D01*
X177214285Y-112261904D01*
X177261904Y-112357142D01*
X177309523Y-112404761D01*
X177404761Y-112452380D01*
X177595238Y-112452380D01*
X177690476Y-112404761D01*
X177738095Y-112357142D01*
X177785714Y-112261904D01*
X177785714Y-112071428D01*
X177738095Y-111976190D01*
X177690476Y-111928571D01*
X177595238Y-111880952D01*
G04 #@! TO.C,R9*
X181043332Y-112522380D02*
X180709999Y-112046190D01*
X180471903Y-112522380D02*
X180471903Y-111522380D01*
X180852856Y-111522380D01*
X180948094Y-111570000D01*
X180995713Y-111617619D01*
X181043332Y-111712857D01*
X181043332Y-111855714D01*
X180995713Y-111950952D01*
X180948094Y-111998571D01*
X180852856Y-112046190D01*
X180471903Y-112046190D01*
X181519522Y-112522380D02*
X181709999Y-112522380D01*
X181805237Y-112474761D01*
X181852856Y-112427142D01*
X181948094Y-112284285D01*
X181995713Y-112093809D01*
X181995713Y-111712857D01*
X181948094Y-111617619D01*
X181900475Y-111570000D01*
X181805237Y-111522380D01*
X181614760Y-111522380D01*
X181519522Y-111570000D01*
X181471903Y-111617619D01*
X181424284Y-111712857D01*
X181424284Y-111950952D01*
X181471903Y-112046190D01*
X181519522Y-112093809D01*
X181614760Y-112141428D01*
X181805237Y-112141428D01*
X181900475Y-112093809D01*
X181948094Y-112046190D01*
X181995713Y-111950952D01*
G04 #@! TO.C,R10*
X100482142Y-118952380D02*
X100148809Y-118476190D01*
X99910714Y-118952380D02*
X99910714Y-117952380D01*
X100291666Y-117952380D01*
X100386904Y-118000000D01*
X100434523Y-118047619D01*
X100482142Y-118142857D01*
X100482142Y-118285714D01*
X100434523Y-118380952D01*
X100386904Y-118428571D01*
X100291666Y-118476190D01*
X99910714Y-118476190D01*
X101434523Y-118952380D02*
X100863095Y-118952380D01*
X101148809Y-118952380D02*
X101148809Y-117952380D01*
X101053571Y-118095238D01*
X100958333Y-118190476D01*
X100863095Y-118238095D01*
X102053571Y-117952380D02*
X102148809Y-117952380D01*
X102244047Y-118000000D01*
X102291666Y-118047619D01*
X102339285Y-118142857D01*
X102386904Y-118333333D01*
X102386904Y-118571428D01*
X102339285Y-118761904D01*
X102291666Y-118857142D01*
X102244047Y-118904761D01*
X102148809Y-118952380D01*
X102053571Y-118952380D01*
X101958333Y-118904761D01*
X101910714Y-118857142D01*
X101863095Y-118761904D01*
X101815476Y-118571428D01*
X101815476Y-118333333D01*
X101863095Y-118142857D01*
X101910714Y-118047619D01*
X101958333Y-118000000D01*
X102053571Y-117952380D01*
G04 #@! TO.C,R14*
X100357142Y-116022380D02*
X100023809Y-115546190D01*
X99785714Y-116022380D02*
X99785714Y-115022380D01*
X100166666Y-115022380D01*
X100261904Y-115070000D01*
X100309523Y-115117619D01*
X100357142Y-115212857D01*
X100357142Y-115355714D01*
X100309523Y-115450952D01*
X100261904Y-115498571D01*
X100166666Y-115546190D01*
X99785714Y-115546190D01*
X101309523Y-116022380D02*
X100738095Y-116022380D01*
X101023809Y-116022380D02*
X101023809Y-115022380D01*
X100928571Y-115165238D01*
X100833333Y-115260476D01*
X100738095Y-115308095D01*
X102166666Y-115355714D02*
X102166666Y-116022380D01*
X101928571Y-114974761D02*
X101690476Y-115689047D01*
X102309523Y-115689047D01*
G04 #@! TO.C,R15*
X100482142Y-121952380D02*
X100148809Y-121476190D01*
X99910714Y-121952380D02*
X99910714Y-120952380D01*
X100291666Y-120952380D01*
X100386904Y-121000000D01*
X100434523Y-121047619D01*
X100482142Y-121142857D01*
X100482142Y-121285714D01*
X100434523Y-121380952D01*
X100386904Y-121428571D01*
X100291666Y-121476190D01*
X99910714Y-121476190D01*
X101434523Y-121952380D02*
X100863095Y-121952380D01*
X101148809Y-121952380D02*
X101148809Y-120952380D01*
X101053571Y-121095238D01*
X100958333Y-121190476D01*
X100863095Y-121238095D01*
X102339285Y-120952380D02*
X101863095Y-120952380D01*
X101815476Y-121428571D01*
X101863095Y-121380952D01*
X101958333Y-121333333D01*
X102196428Y-121333333D01*
X102291666Y-121380952D01*
X102339285Y-121428571D01*
X102386904Y-121523809D01*
X102386904Y-121761904D01*
X102339285Y-121857142D01*
X102291666Y-121904761D01*
X102196428Y-121952380D01*
X101958333Y-121952380D01*
X101863095Y-121904761D01*
X101815476Y-121857142D01*
G04 #@! TO.C,R16*
X135857142Y-119802380D02*
X135523809Y-119326190D01*
X135285714Y-119802380D02*
X135285714Y-118802380D01*
X135666666Y-118802380D01*
X135761904Y-118850000D01*
X135809523Y-118897619D01*
X135857142Y-118992857D01*
X135857142Y-119135714D01*
X135809523Y-119230952D01*
X135761904Y-119278571D01*
X135666666Y-119326190D01*
X135285714Y-119326190D01*
X136809523Y-119802380D02*
X136238095Y-119802380D01*
X136523809Y-119802380D02*
X136523809Y-118802380D01*
X136428571Y-118945238D01*
X136333333Y-119040476D01*
X136238095Y-119088095D01*
X137666666Y-118802380D02*
X137476190Y-118802380D01*
X137380952Y-118850000D01*
X137333333Y-118897619D01*
X137238095Y-119040476D01*
X137190476Y-119230952D01*
X137190476Y-119611904D01*
X137238095Y-119707142D01*
X137285714Y-119754761D01*
X137380952Y-119802380D01*
X137571428Y-119802380D01*
X137666666Y-119754761D01*
X137714285Y-119707142D01*
X137761904Y-119611904D01*
X137761904Y-119373809D01*
X137714285Y-119278571D01*
X137666666Y-119230952D01*
X137571428Y-119183333D01*
X137380952Y-119183333D01*
X137285714Y-119230952D01*
X137238095Y-119278571D01*
X137190476Y-119373809D01*
G04 #@! TO.C,R17*
X99857142Y-90652380D02*
X99523809Y-90176190D01*
X99285714Y-90652380D02*
X99285714Y-89652380D01*
X99666666Y-89652380D01*
X99761904Y-89700000D01*
X99809523Y-89747619D01*
X99857142Y-89842857D01*
X99857142Y-89985714D01*
X99809523Y-90080952D01*
X99761904Y-90128571D01*
X99666666Y-90176190D01*
X99285714Y-90176190D01*
X100809523Y-90652380D02*
X100238095Y-90652380D01*
X100523809Y-90652380D02*
X100523809Y-89652380D01*
X100428571Y-89795238D01*
X100333333Y-89890476D01*
X100238095Y-89938095D01*
X101142857Y-89652380D02*
X101809523Y-89652380D01*
X101380952Y-90652380D01*
G04 #@! TO.C,U1*
X113338095Y-120302380D02*
X113338095Y-121111904D01*
X113385714Y-121207142D01*
X113433333Y-121254761D01*
X113528571Y-121302380D01*
X113719047Y-121302380D01*
X113814285Y-121254761D01*
X113861904Y-121207142D01*
X113909523Y-121111904D01*
X113909523Y-120302380D01*
X114909523Y-121302380D02*
X114338095Y-121302380D01*
X114623809Y-121302380D02*
X114623809Y-120302380D01*
X114528571Y-120445238D01*
X114433333Y-120540476D01*
X114338095Y-120588095D01*
G04 #@! TO.C,U2*
X140738095Y-125202380D02*
X140738095Y-126011904D01*
X140785714Y-126107142D01*
X140833333Y-126154761D01*
X140928571Y-126202380D01*
X141119047Y-126202380D01*
X141214285Y-126154761D01*
X141261904Y-126107142D01*
X141309523Y-126011904D01*
X141309523Y-125202380D01*
X141738095Y-125297619D02*
X141785714Y-125250000D01*
X141880952Y-125202380D01*
X142119047Y-125202380D01*
X142214285Y-125250000D01*
X142261904Y-125297619D01*
X142309523Y-125392857D01*
X142309523Y-125488095D01*
X142261904Y-125630952D01*
X141690476Y-126202380D01*
X142309523Y-126202380D01*
G04 #@! TO.C,TP1*
X120238095Y-122604380D02*
X120809523Y-122604380D01*
X120523809Y-123604380D02*
X120523809Y-122604380D01*
X121142857Y-123604380D02*
X121142857Y-122604380D01*
X121523809Y-122604380D01*
X121619047Y-122652000D01*
X121666666Y-122699619D01*
X121714285Y-122794857D01*
X121714285Y-122937714D01*
X121666666Y-123032952D01*
X121619047Y-123080571D01*
X121523809Y-123128190D01*
X121142857Y-123128190D01*
X122666666Y-123604380D02*
X122095238Y-123604380D01*
X122380952Y-123604380D02*
X122380952Y-122604380D01*
X122285714Y-122747238D01*
X122190476Y-122842476D01*
X122095238Y-122890095D01*
G04 #@! TD*
M02*
