G04 #@! TF.GenerationSoftware,KiCad,Pcbnew,5.0.2-bee76a0~70~ubuntu16.04.1*
G04 #@! TF.CreationDate,2019-05-19T16:37:23+01:00*
G04 #@! TF.ProjectId,project,70726f6a-6563-4742-9e6b-696361645f70,rev?*
G04 #@! TF.SameCoordinates,Original*
G04 #@! TF.FileFunction,Copper,L2,Bot*
G04 #@! TF.FilePolarity,Positive*
%FSLAX46Y46*%
G04 Gerber Fmt 4.6, Leading zero omitted, Abs format (unit mm)*
G04 Created by KiCad (PCBNEW 5.0.2-bee76a0~70~ubuntu16.04.1) date Sun 19 May 2019 16:37:23 BST*
%MOMM*%
%LPD*%
G01*
G04 APERTURE LIST*
G04 #@! TA.AperFunction,ComponentPad*
%ADD10R,3.000000X3.000000*%
G04 #@! TD*
G04 #@! TA.AperFunction,ComponentPad*
%ADD11C,3.000000*%
G04 #@! TD*
G04 #@! TA.AperFunction,Conductor*
%ADD12C,0.100000*%
G04 #@! TD*
G04 #@! TA.AperFunction,SMDPad,CuDef*
%ADD13C,0.950000*%
G04 #@! TD*
G04 #@! TA.AperFunction,ComponentPad*
%ADD14O,1.905000X2.000000*%
G04 #@! TD*
G04 #@! TA.AperFunction,ComponentPad*
%ADD15R,1.905000X2.000000*%
G04 #@! TD*
G04 #@! TA.AperFunction,SMDPad,CuDef*
%ADD16R,0.900000X0.800000*%
G04 #@! TD*
G04 #@! TA.AperFunction,SMDPad,CuDef*
%ADD17C,1.150000*%
G04 #@! TD*
G04 #@! TA.AperFunction,ComponentPad*
%ADD18C,6.400000*%
G04 #@! TD*
G04 #@! TA.AperFunction,ComponentPad*
%ADD19C,1.700000*%
G04 #@! TD*
G04 #@! TA.AperFunction,Conductor*
%ADD20C,1.700000*%
G04 #@! TD*
G04 #@! TA.AperFunction,ViaPad*
%ADD21C,0.800000*%
G04 #@! TD*
G04 #@! TA.AperFunction,Conductor*
%ADD22C,0.250000*%
G04 #@! TD*
G04 #@! TA.AperFunction,Conductor*
%ADD23C,0.254000*%
G04 #@! TD*
G04 APERTURE END LIST*
D10*
G04 #@! TO.P,SC1,1*
G04 #@! TO.N,/SOLAR*
X143130000Y-73270000D03*
D11*
G04 #@! TO.P,SC1,2*
G04 #@! TO.N,GND*
X143130000Y-68190000D03*
G04 #@! TD*
D12*
G04 #@! TO.N,+3V3*
G04 #@! TO.C,C6*
G36*
X137985779Y-97716144D02*
X138008834Y-97719563D01*
X138031443Y-97725227D01*
X138053387Y-97733079D01*
X138074457Y-97743044D01*
X138094448Y-97755026D01*
X138113168Y-97768910D01*
X138130438Y-97784562D01*
X138146090Y-97801832D01*
X138159974Y-97820552D01*
X138171956Y-97840543D01*
X138181921Y-97861613D01*
X138189773Y-97883557D01*
X138195437Y-97906166D01*
X138198856Y-97929221D01*
X138200000Y-97952500D01*
X138200000Y-98427500D01*
X138198856Y-98450779D01*
X138195437Y-98473834D01*
X138189773Y-98496443D01*
X138181921Y-98518387D01*
X138171956Y-98539457D01*
X138159974Y-98559448D01*
X138146090Y-98578168D01*
X138130438Y-98595438D01*
X138113168Y-98611090D01*
X138094448Y-98624974D01*
X138074457Y-98636956D01*
X138053387Y-98646921D01*
X138031443Y-98654773D01*
X138008834Y-98660437D01*
X137985779Y-98663856D01*
X137962500Y-98665000D01*
X137387500Y-98665000D01*
X137364221Y-98663856D01*
X137341166Y-98660437D01*
X137318557Y-98654773D01*
X137296613Y-98646921D01*
X137275543Y-98636956D01*
X137255552Y-98624974D01*
X137236832Y-98611090D01*
X137219562Y-98595438D01*
X137203910Y-98578168D01*
X137190026Y-98559448D01*
X137178044Y-98539457D01*
X137168079Y-98518387D01*
X137160227Y-98496443D01*
X137154563Y-98473834D01*
X137151144Y-98450779D01*
X137150000Y-98427500D01*
X137150000Y-97952500D01*
X137151144Y-97929221D01*
X137154563Y-97906166D01*
X137160227Y-97883557D01*
X137168079Y-97861613D01*
X137178044Y-97840543D01*
X137190026Y-97820552D01*
X137203910Y-97801832D01*
X137219562Y-97784562D01*
X137236832Y-97768910D01*
X137255552Y-97755026D01*
X137275543Y-97743044D01*
X137296613Y-97733079D01*
X137318557Y-97725227D01*
X137341166Y-97719563D01*
X137364221Y-97716144D01*
X137387500Y-97715000D01*
X137962500Y-97715000D01*
X137985779Y-97716144D01*
X137985779Y-97716144D01*
G37*
D13*
G04 #@! TD*
G04 #@! TO.P,C6,1*
G04 #@! TO.N,+3V3*
X137675000Y-98190000D03*
D12*
G04 #@! TO.N,GND*
G04 #@! TO.C,C6*
G36*
X136235779Y-97716144D02*
X136258834Y-97719563D01*
X136281443Y-97725227D01*
X136303387Y-97733079D01*
X136324457Y-97743044D01*
X136344448Y-97755026D01*
X136363168Y-97768910D01*
X136380438Y-97784562D01*
X136396090Y-97801832D01*
X136409974Y-97820552D01*
X136421956Y-97840543D01*
X136431921Y-97861613D01*
X136439773Y-97883557D01*
X136445437Y-97906166D01*
X136448856Y-97929221D01*
X136450000Y-97952500D01*
X136450000Y-98427500D01*
X136448856Y-98450779D01*
X136445437Y-98473834D01*
X136439773Y-98496443D01*
X136431921Y-98518387D01*
X136421956Y-98539457D01*
X136409974Y-98559448D01*
X136396090Y-98578168D01*
X136380438Y-98595438D01*
X136363168Y-98611090D01*
X136344448Y-98624974D01*
X136324457Y-98636956D01*
X136303387Y-98646921D01*
X136281443Y-98654773D01*
X136258834Y-98660437D01*
X136235779Y-98663856D01*
X136212500Y-98665000D01*
X135637500Y-98665000D01*
X135614221Y-98663856D01*
X135591166Y-98660437D01*
X135568557Y-98654773D01*
X135546613Y-98646921D01*
X135525543Y-98636956D01*
X135505552Y-98624974D01*
X135486832Y-98611090D01*
X135469562Y-98595438D01*
X135453910Y-98578168D01*
X135440026Y-98559448D01*
X135428044Y-98539457D01*
X135418079Y-98518387D01*
X135410227Y-98496443D01*
X135404563Y-98473834D01*
X135401144Y-98450779D01*
X135400000Y-98427500D01*
X135400000Y-97952500D01*
X135401144Y-97929221D01*
X135404563Y-97906166D01*
X135410227Y-97883557D01*
X135418079Y-97861613D01*
X135428044Y-97840543D01*
X135440026Y-97820552D01*
X135453910Y-97801832D01*
X135469562Y-97784562D01*
X135486832Y-97768910D01*
X135505552Y-97755026D01*
X135525543Y-97743044D01*
X135546613Y-97733079D01*
X135568557Y-97725227D01*
X135591166Y-97719563D01*
X135614221Y-97716144D01*
X135637500Y-97715000D01*
X136212500Y-97715000D01*
X136235779Y-97716144D01*
X136235779Y-97716144D01*
G37*
D13*
G04 #@! TD*
G04 #@! TO.P,C6,2*
G04 #@! TO.N,GND*
X135925000Y-98190000D03*
D14*
G04 #@! TO.P,Q3,3*
G04 #@! TO.N,/BATT*
X134100000Y-77490000D03*
G04 #@! TO.P,Q3,2*
G04 #@! TO.N,/SOLAR*
X136640000Y-77490000D03*
D15*
G04 #@! TO.P,Q3,1*
G04 #@! TO.N,Net-(Q3-Pad1)*
X139180000Y-77490000D03*
G04 #@! TD*
D12*
G04 #@! TO.N,Net-(C2-Pad1)*
G04 #@! TO.C,C2*
G36*
X129805779Y-82201144D02*
X129828834Y-82204563D01*
X129851443Y-82210227D01*
X129873387Y-82218079D01*
X129894457Y-82228044D01*
X129914448Y-82240026D01*
X129933168Y-82253910D01*
X129950438Y-82269562D01*
X129966090Y-82286832D01*
X129979974Y-82305552D01*
X129991956Y-82325543D01*
X130001921Y-82346613D01*
X130009773Y-82368557D01*
X130015437Y-82391166D01*
X130018856Y-82414221D01*
X130020000Y-82437500D01*
X130020000Y-83012500D01*
X130018856Y-83035779D01*
X130015437Y-83058834D01*
X130009773Y-83081443D01*
X130001921Y-83103387D01*
X129991956Y-83124457D01*
X129979974Y-83144448D01*
X129966090Y-83163168D01*
X129950438Y-83180438D01*
X129933168Y-83196090D01*
X129914448Y-83209974D01*
X129894457Y-83221956D01*
X129873387Y-83231921D01*
X129851443Y-83239773D01*
X129828834Y-83245437D01*
X129805779Y-83248856D01*
X129782500Y-83250000D01*
X129307500Y-83250000D01*
X129284221Y-83248856D01*
X129261166Y-83245437D01*
X129238557Y-83239773D01*
X129216613Y-83231921D01*
X129195543Y-83221956D01*
X129175552Y-83209974D01*
X129156832Y-83196090D01*
X129139562Y-83180438D01*
X129123910Y-83163168D01*
X129110026Y-83144448D01*
X129098044Y-83124457D01*
X129088079Y-83103387D01*
X129080227Y-83081443D01*
X129074563Y-83058834D01*
X129071144Y-83035779D01*
X129070000Y-83012500D01*
X129070000Y-82437500D01*
X129071144Y-82414221D01*
X129074563Y-82391166D01*
X129080227Y-82368557D01*
X129088079Y-82346613D01*
X129098044Y-82325543D01*
X129110026Y-82305552D01*
X129123910Y-82286832D01*
X129139562Y-82269562D01*
X129156832Y-82253910D01*
X129175552Y-82240026D01*
X129195543Y-82228044D01*
X129216613Y-82218079D01*
X129238557Y-82210227D01*
X129261166Y-82204563D01*
X129284221Y-82201144D01*
X129307500Y-82200000D01*
X129782500Y-82200000D01*
X129805779Y-82201144D01*
X129805779Y-82201144D01*
G37*
D13*
G04 #@! TD*
G04 #@! TO.P,C2,1*
G04 #@! TO.N,Net-(C2-Pad1)*
X129545000Y-82725000D03*
D12*
G04 #@! TO.N,pump1*
G04 #@! TO.C,C2*
G36*
X129805779Y-80451144D02*
X129828834Y-80454563D01*
X129851443Y-80460227D01*
X129873387Y-80468079D01*
X129894457Y-80478044D01*
X129914448Y-80490026D01*
X129933168Y-80503910D01*
X129950438Y-80519562D01*
X129966090Y-80536832D01*
X129979974Y-80555552D01*
X129991956Y-80575543D01*
X130001921Y-80596613D01*
X130009773Y-80618557D01*
X130015437Y-80641166D01*
X130018856Y-80664221D01*
X130020000Y-80687500D01*
X130020000Y-81262500D01*
X130018856Y-81285779D01*
X130015437Y-81308834D01*
X130009773Y-81331443D01*
X130001921Y-81353387D01*
X129991956Y-81374457D01*
X129979974Y-81394448D01*
X129966090Y-81413168D01*
X129950438Y-81430438D01*
X129933168Y-81446090D01*
X129914448Y-81459974D01*
X129894457Y-81471956D01*
X129873387Y-81481921D01*
X129851443Y-81489773D01*
X129828834Y-81495437D01*
X129805779Y-81498856D01*
X129782500Y-81500000D01*
X129307500Y-81500000D01*
X129284221Y-81498856D01*
X129261166Y-81495437D01*
X129238557Y-81489773D01*
X129216613Y-81481921D01*
X129195543Y-81471956D01*
X129175552Y-81459974D01*
X129156832Y-81446090D01*
X129139562Y-81430438D01*
X129123910Y-81413168D01*
X129110026Y-81394448D01*
X129098044Y-81374457D01*
X129088079Y-81353387D01*
X129080227Y-81331443D01*
X129074563Y-81308834D01*
X129071144Y-81285779D01*
X129070000Y-81262500D01*
X129070000Y-80687500D01*
X129071144Y-80664221D01*
X129074563Y-80641166D01*
X129080227Y-80618557D01*
X129088079Y-80596613D01*
X129098044Y-80575543D01*
X129110026Y-80555552D01*
X129123910Y-80536832D01*
X129139562Y-80519562D01*
X129156832Y-80503910D01*
X129175552Y-80490026D01*
X129195543Y-80478044D01*
X129216613Y-80468079D01*
X129238557Y-80460227D01*
X129261166Y-80454563D01*
X129284221Y-80451144D01*
X129307500Y-80450000D01*
X129782500Y-80450000D01*
X129805779Y-80451144D01*
X129805779Y-80451144D01*
G37*
D13*
G04 #@! TD*
G04 #@! TO.P,C2,2*
G04 #@! TO.N,pump1*
X129545000Y-80975000D03*
D12*
G04 #@! TO.N,pump2*
G04 #@! TO.C,C4*
G36*
X129805779Y-84201144D02*
X129828834Y-84204563D01*
X129851443Y-84210227D01*
X129873387Y-84218079D01*
X129894457Y-84228044D01*
X129914448Y-84240026D01*
X129933168Y-84253910D01*
X129950438Y-84269562D01*
X129966090Y-84286832D01*
X129979974Y-84305552D01*
X129991956Y-84325543D01*
X130001921Y-84346613D01*
X130009773Y-84368557D01*
X130015437Y-84391166D01*
X130018856Y-84414221D01*
X130020000Y-84437500D01*
X130020000Y-85012500D01*
X130018856Y-85035779D01*
X130015437Y-85058834D01*
X130009773Y-85081443D01*
X130001921Y-85103387D01*
X129991956Y-85124457D01*
X129979974Y-85144448D01*
X129966090Y-85163168D01*
X129950438Y-85180438D01*
X129933168Y-85196090D01*
X129914448Y-85209974D01*
X129894457Y-85221956D01*
X129873387Y-85231921D01*
X129851443Y-85239773D01*
X129828834Y-85245437D01*
X129805779Y-85248856D01*
X129782500Y-85250000D01*
X129307500Y-85250000D01*
X129284221Y-85248856D01*
X129261166Y-85245437D01*
X129238557Y-85239773D01*
X129216613Y-85231921D01*
X129195543Y-85221956D01*
X129175552Y-85209974D01*
X129156832Y-85196090D01*
X129139562Y-85180438D01*
X129123910Y-85163168D01*
X129110026Y-85144448D01*
X129098044Y-85124457D01*
X129088079Y-85103387D01*
X129080227Y-85081443D01*
X129074563Y-85058834D01*
X129071144Y-85035779D01*
X129070000Y-85012500D01*
X129070000Y-84437500D01*
X129071144Y-84414221D01*
X129074563Y-84391166D01*
X129080227Y-84368557D01*
X129088079Y-84346613D01*
X129098044Y-84325543D01*
X129110026Y-84305552D01*
X129123910Y-84286832D01*
X129139562Y-84269562D01*
X129156832Y-84253910D01*
X129175552Y-84240026D01*
X129195543Y-84228044D01*
X129216613Y-84218079D01*
X129238557Y-84210227D01*
X129261166Y-84204563D01*
X129284221Y-84201144D01*
X129307500Y-84200000D01*
X129782500Y-84200000D01*
X129805779Y-84201144D01*
X129805779Y-84201144D01*
G37*
D13*
G04 #@! TD*
G04 #@! TO.P,C4,2*
G04 #@! TO.N,pump2*
X129545000Y-84725000D03*
D12*
G04 #@! TO.N,Net-(C4-Pad1)*
G04 #@! TO.C,C4*
G36*
X129805779Y-85951144D02*
X129828834Y-85954563D01*
X129851443Y-85960227D01*
X129873387Y-85968079D01*
X129894457Y-85978044D01*
X129914448Y-85990026D01*
X129933168Y-86003910D01*
X129950438Y-86019562D01*
X129966090Y-86036832D01*
X129979974Y-86055552D01*
X129991956Y-86075543D01*
X130001921Y-86096613D01*
X130009773Y-86118557D01*
X130015437Y-86141166D01*
X130018856Y-86164221D01*
X130020000Y-86187500D01*
X130020000Y-86762500D01*
X130018856Y-86785779D01*
X130015437Y-86808834D01*
X130009773Y-86831443D01*
X130001921Y-86853387D01*
X129991956Y-86874457D01*
X129979974Y-86894448D01*
X129966090Y-86913168D01*
X129950438Y-86930438D01*
X129933168Y-86946090D01*
X129914448Y-86959974D01*
X129894457Y-86971956D01*
X129873387Y-86981921D01*
X129851443Y-86989773D01*
X129828834Y-86995437D01*
X129805779Y-86998856D01*
X129782500Y-87000000D01*
X129307500Y-87000000D01*
X129284221Y-86998856D01*
X129261166Y-86995437D01*
X129238557Y-86989773D01*
X129216613Y-86981921D01*
X129195543Y-86971956D01*
X129175552Y-86959974D01*
X129156832Y-86946090D01*
X129139562Y-86930438D01*
X129123910Y-86913168D01*
X129110026Y-86894448D01*
X129098044Y-86874457D01*
X129088079Y-86853387D01*
X129080227Y-86831443D01*
X129074563Y-86808834D01*
X129071144Y-86785779D01*
X129070000Y-86762500D01*
X129070000Y-86187500D01*
X129071144Y-86164221D01*
X129074563Y-86141166D01*
X129080227Y-86118557D01*
X129088079Y-86096613D01*
X129098044Y-86075543D01*
X129110026Y-86055552D01*
X129123910Y-86036832D01*
X129139562Y-86019562D01*
X129156832Y-86003910D01*
X129175552Y-85990026D01*
X129195543Y-85978044D01*
X129216613Y-85968079D01*
X129238557Y-85960227D01*
X129261166Y-85954563D01*
X129284221Y-85951144D01*
X129307500Y-85950000D01*
X129782500Y-85950000D01*
X129805779Y-85951144D01*
X129805779Y-85951144D01*
G37*
D13*
G04 #@! TD*
G04 #@! TO.P,C4,1*
G04 #@! TO.N,Net-(C4-Pad1)*
X129545000Y-86475000D03*
D12*
G04 #@! TO.N,GND*
G04 #@! TO.C,C5*
G36*
X129980779Y-87776144D02*
X130003834Y-87779563D01*
X130026443Y-87785227D01*
X130048387Y-87793079D01*
X130069457Y-87803044D01*
X130089448Y-87815026D01*
X130108168Y-87828910D01*
X130125438Y-87844562D01*
X130141090Y-87861832D01*
X130154974Y-87880552D01*
X130166956Y-87900543D01*
X130176921Y-87921613D01*
X130184773Y-87943557D01*
X130190437Y-87966166D01*
X130193856Y-87989221D01*
X130195000Y-88012500D01*
X130195000Y-88487500D01*
X130193856Y-88510779D01*
X130190437Y-88533834D01*
X130184773Y-88556443D01*
X130176921Y-88578387D01*
X130166956Y-88599457D01*
X130154974Y-88619448D01*
X130141090Y-88638168D01*
X130125438Y-88655438D01*
X130108168Y-88671090D01*
X130089448Y-88684974D01*
X130069457Y-88696956D01*
X130048387Y-88706921D01*
X130026443Y-88714773D01*
X130003834Y-88720437D01*
X129980779Y-88723856D01*
X129957500Y-88725000D01*
X129382500Y-88725000D01*
X129359221Y-88723856D01*
X129336166Y-88720437D01*
X129313557Y-88714773D01*
X129291613Y-88706921D01*
X129270543Y-88696956D01*
X129250552Y-88684974D01*
X129231832Y-88671090D01*
X129214562Y-88655438D01*
X129198910Y-88638168D01*
X129185026Y-88619448D01*
X129173044Y-88599457D01*
X129163079Y-88578387D01*
X129155227Y-88556443D01*
X129149563Y-88533834D01*
X129146144Y-88510779D01*
X129145000Y-88487500D01*
X129145000Y-88012500D01*
X129146144Y-87989221D01*
X129149563Y-87966166D01*
X129155227Y-87943557D01*
X129163079Y-87921613D01*
X129173044Y-87900543D01*
X129185026Y-87880552D01*
X129198910Y-87861832D01*
X129214562Y-87844562D01*
X129231832Y-87828910D01*
X129250552Y-87815026D01*
X129270543Y-87803044D01*
X129291613Y-87793079D01*
X129313557Y-87785227D01*
X129336166Y-87779563D01*
X129359221Y-87776144D01*
X129382500Y-87775000D01*
X129957500Y-87775000D01*
X129980779Y-87776144D01*
X129980779Y-87776144D01*
G37*
D13*
G04 #@! TD*
G04 #@! TO.P,C5,2*
G04 #@! TO.N,GND*
X129670000Y-88250000D03*
D12*
G04 #@! TO.N,/V_GATE*
G04 #@! TO.C,C5*
G36*
X128230779Y-87776144D02*
X128253834Y-87779563D01*
X128276443Y-87785227D01*
X128298387Y-87793079D01*
X128319457Y-87803044D01*
X128339448Y-87815026D01*
X128358168Y-87828910D01*
X128375438Y-87844562D01*
X128391090Y-87861832D01*
X128404974Y-87880552D01*
X128416956Y-87900543D01*
X128426921Y-87921613D01*
X128434773Y-87943557D01*
X128440437Y-87966166D01*
X128443856Y-87989221D01*
X128445000Y-88012500D01*
X128445000Y-88487500D01*
X128443856Y-88510779D01*
X128440437Y-88533834D01*
X128434773Y-88556443D01*
X128426921Y-88578387D01*
X128416956Y-88599457D01*
X128404974Y-88619448D01*
X128391090Y-88638168D01*
X128375438Y-88655438D01*
X128358168Y-88671090D01*
X128339448Y-88684974D01*
X128319457Y-88696956D01*
X128298387Y-88706921D01*
X128276443Y-88714773D01*
X128253834Y-88720437D01*
X128230779Y-88723856D01*
X128207500Y-88725000D01*
X127632500Y-88725000D01*
X127609221Y-88723856D01*
X127586166Y-88720437D01*
X127563557Y-88714773D01*
X127541613Y-88706921D01*
X127520543Y-88696956D01*
X127500552Y-88684974D01*
X127481832Y-88671090D01*
X127464562Y-88655438D01*
X127448910Y-88638168D01*
X127435026Y-88619448D01*
X127423044Y-88599457D01*
X127413079Y-88578387D01*
X127405227Y-88556443D01*
X127399563Y-88533834D01*
X127396144Y-88510779D01*
X127395000Y-88487500D01*
X127395000Y-88012500D01*
X127396144Y-87989221D01*
X127399563Y-87966166D01*
X127405227Y-87943557D01*
X127413079Y-87921613D01*
X127423044Y-87900543D01*
X127435026Y-87880552D01*
X127448910Y-87861832D01*
X127464562Y-87844562D01*
X127481832Y-87828910D01*
X127500552Y-87815026D01*
X127520543Y-87803044D01*
X127541613Y-87793079D01*
X127563557Y-87785227D01*
X127586166Y-87779563D01*
X127609221Y-87776144D01*
X127632500Y-87775000D01*
X128207500Y-87775000D01*
X128230779Y-87776144D01*
X128230779Y-87776144D01*
G37*
D13*
G04 #@! TD*
G04 #@! TO.P,C5,1*
G04 #@! TO.N,/V_GATE*
X127920000Y-88250000D03*
D12*
G04 #@! TO.N,GND*
G04 #@! TO.C,C7*
G36*
X136235779Y-99716144D02*
X136258834Y-99719563D01*
X136281443Y-99725227D01*
X136303387Y-99733079D01*
X136324457Y-99743044D01*
X136344448Y-99755026D01*
X136363168Y-99768910D01*
X136380438Y-99784562D01*
X136396090Y-99801832D01*
X136409974Y-99820552D01*
X136421956Y-99840543D01*
X136431921Y-99861613D01*
X136439773Y-99883557D01*
X136445437Y-99906166D01*
X136448856Y-99929221D01*
X136450000Y-99952500D01*
X136450000Y-100427500D01*
X136448856Y-100450779D01*
X136445437Y-100473834D01*
X136439773Y-100496443D01*
X136431921Y-100518387D01*
X136421956Y-100539457D01*
X136409974Y-100559448D01*
X136396090Y-100578168D01*
X136380438Y-100595438D01*
X136363168Y-100611090D01*
X136344448Y-100624974D01*
X136324457Y-100636956D01*
X136303387Y-100646921D01*
X136281443Y-100654773D01*
X136258834Y-100660437D01*
X136235779Y-100663856D01*
X136212500Y-100665000D01*
X135637500Y-100665000D01*
X135614221Y-100663856D01*
X135591166Y-100660437D01*
X135568557Y-100654773D01*
X135546613Y-100646921D01*
X135525543Y-100636956D01*
X135505552Y-100624974D01*
X135486832Y-100611090D01*
X135469562Y-100595438D01*
X135453910Y-100578168D01*
X135440026Y-100559448D01*
X135428044Y-100539457D01*
X135418079Y-100518387D01*
X135410227Y-100496443D01*
X135404563Y-100473834D01*
X135401144Y-100450779D01*
X135400000Y-100427500D01*
X135400000Y-99952500D01*
X135401144Y-99929221D01*
X135404563Y-99906166D01*
X135410227Y-99883557D01*
X135418079Y-99861613D01*
X135428044Y-99840543D01*
X135440026Y-99820552D01*
X135453910Y-99801832D01*
X135469562Y-99784562D01*
X135486832Y-99768910D01*
X135505552Y-99755026D01*
X135525543Y-99743044D01*
X135546613Y-99733079D01*
X135568557Y-99725227D01*
X135591166Y-99719563D01*
X135614221Y-99716144D01*
X135637500Y-99715000D01*
X136212500Y-99715000D01*
X136235779Y-99716144D01*
X136235779Y-99716144D01*
G37*
D13*
G04 #@! TD*
G04 #@! TO.P,C7,2*
G04 #@! TO.N,GND*
X135925000Y-100190000D03*
D12*
G04 #@! TO.N,+3V3*
G04 #@! TO.C,C7*
G36*
X137985779Y-99716144D02*
X138008834Y-99719563D01*
X138031443Y-99725227D01*
X138053387Y-99733079D01*
X138074457Y-99743044D01*
X138094448Y-99755026D01*
X138113168Y-99768910D01*
X138130438Y-99784562D01*
X138146090Y-99801832D01*
X138159974Y-99820552D01*
X138171956Y-99840543D01*
X138181921Y-99861613D01*
X138189773Y-99883557D01*
X138195437Y-99906166D01*
X138198856Y-99929221D01*
X138200000Y-99952500D01*
X138200000Y-100427500D01*
X138198856Y-100450779D01*
X138195437Y-100473834D01*
X138189773Y-100496443D01*
X138181921Y-100518387D01*
X138171956Y-100539457D01*
X138159974Y-100559448D01*
X138146090Y-100578168D01*
X138130438Y-100595438D01*
X138113168Y-100611090D01*
X138094448Y-100624974D01*
X138074457Y-100636956D01*
X138053387Y-100646921D01*
X138031443Y-100654773D01*
X138008834Y-100660437D01*
X137985779Y-100663856D01*
X137962500Y-100665000D01*
X137387500Y-100665000D01*
X137364221Y-100663856D01*
X137341166Y-100660437D01*
X137318557Y-100654773D01*
X137296613Y-100646921D01*
X137275543Y-100636956D01*
X137255552Y-100624974D01*
X137236832Y-100611090D01*
X137219562Y-100595438D01*
X137203910Y-100578168D01*
X137190026Y-100559448D01*
X137178044Y-100539457D01*
X137168079Y-100518387D01*
X137160227Y-100496443D01*
X137154563Y-100473834D01*
X137151144Y-100450779D01*
X137150000Y-100427500D01*
X137150000Y-99952500D01*
X137151144Y-99929221D01*
X137154563Y-99906166D01*
X137160227Y-99883557D01*
X137168079Y-99861613D01*
X137178044Y-99840543D01*
X137190026Y-99820552D01*
X137203910Y-99801832D01*
X137219562Y-99784562D01*
X137236832Y-99768910D01*
X137255552Y-99755026D01*
X137275543Y-99743044D01*
X137296613Y-99733079D01*
X137318557Y-99725227D01*
X137341166Y-99719563D01*
X137364221Y-99716144D01*
X137387500Y-99715000D01*
X137962500Y-99715000D01*
X137985779Y-99716144D01*
X137985779Y-99716144D01*
G37*
D13*
G04 #@! TD*
G04 #@! TO.P,C7,1*
G04 #@! TO.N,+3V3*
X137675000Y-100190000D03*
D12*
G04 #@! TO.N,+3V3*
G04 #@! TO.C,C8*
G36*
X136255779Y-103026144D02*
X136278834Y-103029563D01*
X136301443Y-103035227D01*
X136323387Y-103043079D01*
X136344457Y-103053044D01*
X136364448Y-103065026D01*
X136383168Y-103078910D01*
X136400438Y-103094562D01*
X136416090Y-103111832D01*
X136429974Y-103130552D01*
X136441956Y-103150543D01*
X136451921Y-103171613D01*
X136459773Y-103193557D01*
X136465437Y-103216166D01*
X136468856Y-103239221D01*
X136470000Y-103262500D01*
X136470000Y-103737500D01*
X136468856Y-103760779D01*
X136465437Y-103783834D01*
X136459773Y-103806443D01*
X136451921Y-103828387D01*
X136441956Y-103849457D01*
X136429974Y-103869448D01*
X136416090Y-103888168D01*
X136400438Y-103905438D01*
X136383168Y-103921090D01*
X136364448Y-103934974D01*
X136344457Y-103946956D01*
X136323387Y-103956921D01*
X136301443Y-103964773D01*
X136278834Y-103970437D01*
X136255779Y-103973856D01*
X136232500Y-103975000D01*
X135657500Y-103975000D01*
X135634221Y-103973856D01*
X135611166Y-103970437D01*
X135588557Y-103964773D01*
X135566613Y-103956921D01*
X135545543Y-103946956D01*
X135525552Y-103934974D01*
X135506832Y-103921090D01*
X135489562Y-103905438D01*
X135473910Y-103888168D01*
X135460026Y-103869448D01*
X135448044Y-103849457D01*
X135438079Y-103828387D01*
X135430227Y-103806443D01*
X135424563Y-103783834D01*
X135421144Y-103760779D01*
X135420000Y-103737500D01*
X135420000Y-103262500D01*
X135421144Y-103239221D01*
X135424563Y-103216166D01*
X135430227Y-103193557D01*
X135438079Y-103171613D01*
X135448044Y-103150543D01*
X135460026Y-103130552D01*
X135473910Y-103111832D01*
X135489562Y-103094562D01*
X135506832Y-103078910D01*
X135525552Y-103065026D01*
X135545543Y-103053044D01*
X135566613Y-103043079D01*
X135588557Y-103035227D01*
X135611166Y-103029563D01*
X135634221Y-103026144D01*
X135657500Y-103025000D01*
X136232500Y-103025000D01*
X136255779Y-103026144D01*
X136255779Y-103026144D01*
G37*
D13*
G04 #@! TD*
G04 #@! TO.P,C8,1*
G04 #@! TO.N,+3V3*
X135945000Y-103500000D03*
D12*
G04 #@! TO.N,GND*
G04 #@! TO.C,C8*
G36*
X138005779Y-103026144D02*
X138028834Y-103029563D01*
X138051443Y-103035227D01*
X138073387Y-103043079D01*
X138094457Y-103053044D01*
X138114448Y-103065026D01*
X138133168Y-103078910D01*
X138150438Y-103094562D01*
X138166090Y-103111832D01*
X138179974Y-103130552D01*
X138191956Y-103150543D01*
X138201921Y-103171613D01*
X138209773Y-103193557D01*
X138215437Y-103216166D01*
X138218856Y-103239221D01*
X138220000Y-103262500D01*
X138220000Y-103737500D01*
X138218856Y-103760779D01*
X138215437Y-103783834D01*
X138209773Y-103806443D01*
X138201921Y-103828387D01*
X138191956Y-103849457D01*
X138179974Y-103869448D01*
X138166090Y-103888168D01*
X138150438Y-103905438D01*
X138133168Y-103921090D01*
X138114448Y-103934974D01*
X138094457Y-103946956D01*
X138073387Y-103956921D01*
X138051443Y-103964773D01*
X138028834Y-103970437D01*
X138005779Y-103973856D01*
X137982500Y-103975000D01*
X137407500Y-103975000D01*
X137384221Y-103973856D01*
X137361166Y-103970437D01*
X137338557Y-103964773D01*
X137316613Y-103956921D01*
X137295543Y-103946956D01*
X137275552Y-103934974D01*
X137256832Y-103921090D01*
X137239562Y-103905438D01*
X137223910Y-103888168D01*
X137210026Y-103869448D01*
X137198044Y-103849457D01*
X137188079Y-103828387D01*
X137180227Y-103806443D01*
X137174563Y-103783834D01*
X137171144Y-103760779D01*
X137170000Y-103737500D01*
X137170000Y-103262500D01*
X137171144Y-103239221D01*
X137174563Y-103216166D01*
X137180227Y-103193557D01*
X137188079Y-103171613D01*
X137198044Y-103150543D01*
X137210026Y-103130552D01*
X137223910Y-103111832D01*
X137239562Y-103094562D01*
X137256832Y-103078910D01*
X137275552Y-103065026D01*
X137295543Y-103053044D01*
X137316613Y-103043079D01*
X137338557Y-103035227D01*
X137361166Y-103029563D01*
X137384221Y-103026144D01*
X137407500Y-103025000D01*
X137982500Y-103025000D01*
X138005779Y-103026144D01*
X138005779Y-103026144D01*
G37*
D13*
G04 #@! TD*
G04 #@! TO.P,C8,2*
G04 #@! TO.N,GND*
X137695000Y-103500000D03*
D12*
G04 #@! TO.N,GND*
G04 #@! TO.C,C9*
G36*
X138005779Y-104776144D02*
X138028834Y-104779563D01*
X138051443Y-104785227D01*
X138073387Y-104793079D01*
X138094457Y-104803044D01*
X138114448Y-104815026D01*
X138133168Y-104828910D01*
X138150438Y-104844562D01*
X138166090Y-104861832D01*
X138179974Y-104880552D01*
X138191956Y-104900543D01*
X138201921Y-104921613D01*
X138209773Y-104943557D01*
X138215437Y-104966166D01*
X138218856Y-104989221D01*
X138220000Y-105012500D01*
X138220000Y-105487500D01*
X138218856Y-105510779D01*
X138215437Y-105533834D01*
X138209773Y-105556443D01*
X138201921Y-105578387D01*
X138191956Y-105599457D01*
X138179974Y-105619448D01*
X138166090Y-105638168D01*
X138150438Y-105655438D01*
X138133168Y-105671090D01*
X138114448Y-105684974D01*
X138094457Y-105696956D01*
X138073387Y-105706921D01*
X138051443Y-105714773D01*
X138028834Y-105720437D01*
X138005779Y-105723856D01*
X137982500Y-105725000D01*
X137407500Y-105725000D01*
X137384221Y-105723856D01*
X137361166Y-105720437D01*
X137338557Y-105714773D01*
X137316613Y-105706921D01*
X137295543Y-105696956D01*
X137275552Y-105684974D01*
X137256832Y-105671090D01*
X137239562Y-105655438D01*
X137223910Y-105638168D01*
X137210026Y-105619448D01*
X137198044Y-105599457D01*
X137188079Y-105578387D01*
X137180227Y-105556443D01*
X137174563Y-105533834D01*
X137171144Y-105510779D01*
X137170000Y-105487500D01*
X137170000Y-105012500D01*
X137171144Y-104989221D01*
X137174563Y-104966166D01*
X137180227Y-104943557D01*
X137188079Y-104921613D01*
X137198044Y-104900543D01*
X137210026Y-104880552D01*
X137223910Y-104861832D01*
X137239562Y-104844562D01*
X137256832Y-104828910D01*
X137275552Y-104815026D01*
X137295543Y-104803044D01*
X137316613Y-104793079D01*
X137338557Y-104785227D01*
X137361166Y-104779563D01*
X137384221Y-104776144D01*
X137407500Y-104775000D01*
X137982500Y-104775000D01*
X138005779Y-104776144D01*
X138005779Y-104776144D01*
G37*
D13*
G04 #@! TD*
G04 #@! TO.P,C9,2*
G04 #@! TO.N,GND*
X137695000Y-105250000D03*
D12*
G04 #@! TO.N,+3V3*
G04 #@! TO.C,C9*
G36*
X136255779Y-104776144D02*
X136278834Y-104779563D01*
X136301443Y-104785227D01*
X136323387Y-104793079D01*
X136344457Y-104803044D01*
X136364448Y-104815026D01*
X136383168Y-104828910D01*
X136400438Y-104844562D01*
X136416090Y-104861832D01*
X136429974Y-104880552D01*
X136441956Y-104900543D01*
X136451921Y-104921613D01*
X136459773Y-104943557D01*
X136465437Y-104966166D01*
X136468856Y-104989221D01*
X136470000Y-105012500D01*
X136470000Y-105487500D01*
X136468856Y-105510779D01*
X136465437Y-105533834D01*
X136459773Y-105556443D01*
X136451921Y-105578387D01*
X136441956Y-105599457D01*
X136429974Y-105619448D01*
X136416090Y-105638168D01*
X136400438Y-105655438D01*
X136383168Y-105671090D01*
X136364448Y-105684974D01*
X136344457Y-105696956D01*
X136323387Y-105706921D01*
X136301443Y-105714773D01*
X136278834Y-105720437D01*
X136255779Y-105723856D01*
X136232500Y-105725000D01*
X135657500Y-105725000D01*
X135634221Y-105723856D01*
X135611166Y-105720437D01*
X135588557Y-105714773D01*
X135566613Y-105706921D01*
X135545543Y-105696956D01*
X135525552Y-105684974D01*
X135506832Y-105671090D01*
X135489562Y-105655438D01*
X135473910Y-105638168D01*
X135460026Y-105619448D01*
X135448044Y-105599457D01*
X135438079Y-105578387D01*
X135430227Y-105556443D01*
X135424563Y-105533834D01*
X135421144Y-105510779D01*
X135420000Y-105487500D01*
X135420000Y-105012500D01*
X135421144Y-104989221D01*
X135424563Y-104966166D01*
X135430227Y-104943557D01*
X135438079Y-104921613D01*
X135448044Y-104900543D01*
X135460026Y-104880552D01*
X135473910Y-104861832D01*
X135489562Y-104844562D01*
X135506832Y-104828910D01*
X135525552Y-104815026D01*
X135545543Y-104803044D01*
X135566613Y-104793079D01*
X135588557Y-104785227D01*
X135611166Y-104779563D01*
X135634221Y-104776144D01*
X135657500Y-104775000D01*
X136232500Y-104775000D01*
X136255779Y-104776144D01*
X136255779Y-104776144D01*
G37*
D13*
G04 #@! TD*
G04 #@! TO.P,C9,1*
G04 #@! TO.N,+3V3*
X135945000Y-105250000D03*
D12*
G04 #@! TO.N,/BATT_SENSE*
G04 #@! TO.C,C10*
G36*
X128980779Y-102291144D02*
X129003834Y-102294563D01*
X129026443Y-102300227D01*
X129048387Y-102308079D01*
X129069457Y-102318044D01*
X129089448Y-102330026D01*
X129108168Y-102343910D01*
X129125438Y-102359562D01*
X129141090Y-102376832D01*
X129154974Y-102395552D01*
X129166956Y-102415543D01*
X129176921Y-102436613D01*
X129184773Y-102458557D01*
X129190437Y-102481166D01*
X129193856Y-102504221D01*
X129195000Y-102527500D01*
X129195000Y-103102500D01*
X129193856Y-103125779D01*
X129190437Y-103148834D01*
X129184773Y-103171443D01*
X129176921Y-103193387D01*
X129166956Y-103214457D01*
X129154974Y-103234448D01*
X129141090Y-103253168D01*
X129125438Y-103270438D01*
X129108168Y-103286090D01*
X129089448Y-103299974D01*
X129069457Y-103311956D01*
X129048387Y-103321921D01*
X129026443Y-103329773D01*
X129003834Y-103335437D01*
X128980779Y-103338856D01*
X128957500Y-103340000D01*
X128482500Y-103340000D01*
X128459221Y-103338856D01*
X128436166Y-103335437D01*
X128413557Y-103329773D01*
X128391613Y-103321921D01*
X128370543Y-103311956D01*
X128350552Y-103299974D01*
X128331832Y-103286090D01*
X128314562Y-103270438D01*
X128298910Y-103253168D01*
X128285026Y-103234448D01*
X128273044Y-103214457D01*
X128263079Y-103193387D01*
X128255227Y-103171443D01*
X128249563Y-103148834D01*
X128246144Y-103125779D01*
X128245000Y-103102500D01*
X128245000Y-102527500D01*
X128246144Y-102504221D01*
X128249563Y-102481166D01*
X128255227Y-102458557D01*
X128263079Y-102436613D01*
X128273044Y-102415543D01*
X128285026Y-102395552D01*
X128298910Y-102376832D01*
X128314562Y-102359562D01*
X128331832Y-102343910D01*
X128350552Y-102330026D01*
X128370543Y-102318044D01*
X128391613Y-102308079D01*
X128413557Y-102300227D01*
X128436166Y-102294563D01*
X128459221Y-102291144D01*
X128482500Y-102290000D01*
X128957500Y-102290000D01*
X128980779Y-102291144D01*
X128980779Y-102291144D01*
G37*
D13*
G04 #@! TD*
G04 #@! TO.P,C10,1*
G04 #@! TO.N,/BATT_SENSE*
X128720000Y-102815000D03*
D12*
G04 #@! TO.N,GND*
G04 #@! TO.C,C10*
G36*
X128980779Y-104041144D02*
X129003834Y-104044563D01*
X129026443Y-104050227D01*
X129048387Y-104058079D01*
X129069457Y-104068044D01*
X129089448Y-104080026D01*
X129108168Y-104093910D01*
X129125438Y-104109562D01*
X129141090Y-104126832D01*
X129154974Y-104145552D01*
X129166956Y-104165543D01*
X129176921Y-104186613D01*
X129184773Y-104208557D01*
X129190437Y-104231166D01*
X129193856Y-104254221D01*
X129195000Y-104277500D01*
X129195000Y-104852500D01*
X129193856Y-104875779D01*
X129190437Y-104898834D01*
X129184773Y-104921443D01*
X129176921Y-104943387D01*
X129166956Y-104964457D01*
X129154974Y-104984448D01*
X129141090Y-105003168D01*
X129125438Y-105020438D01*
X129108168Y-105036090D01*
X129089448Y-105049974D01*
X129069457Y-105061956D01*
X129048387Y-105071921D01*
X129026443Y-105079773D01*
X129003834Y-105085437D01*
X128980779Y-105088856D01*
X128957500Y-105090000D01*
X128482500Y-105090000D01*
X128459221Y-105088856D01*
X128436166Y-105085437D01*
X128413557Y-105079773D01*
X128391613Y-105071921D01*
X128370543Y-105061956D01*
X128350552Y-105049974D01*
X128331832Y-105036090D01*
X128314562Y-105020438D01*
X128298910Y-105003168D01*
X128285026Y-104984448D01*
X128273044Y-104964457D01*
X128263079Y-104943387D01*
X128255227Y-104921443D01*
X128249563Y-104898834D01*
X128246144Y-104875779D01*
X128245000Y-104852500D01*
X128245000Y-104277500D01*
X128246144Y-104254221D01*
X128249563Y-104231166D01*
X128255227Y-104208557D01*
X128263079Y-104186613D01*
X128273044Y-104165543D01*
X128285026Y-104145552D01*
X128298910Y-104126832D01*
X128314562Y-104109562D01*
X128331832Y-104093910D01*
X128350552Y-104080026D01*
X128370543Y-104068044D01*
X128391613Y-104058079D01*
X128413557Y-104050227D01*
X128436166Y-104044563D01*
X128459221Y-104041144D01*
X128482500Y-104040000D01*
X128957500Y-104040000D01*
X128980779Y-104041144D01*
X128980779Y-104041144D01*
G37*
D13*
G04 #@! TD*
G04 #@! TO.P,C10,2*
G04 #@! TO.N,GND*
X128720000Y-104565000D03*
D16*
G04 #@! TO.P,D2,1*
G04 #@! TO.N,Net-(C2-Pad1)*
X127895000Y-84650000D03*
G04 #@! TO.P,D2,2*
G04 #@! TO.N,/V_GATE*
X127895000Y-86550000D03*
G04 #@! TO.P,D2,3*
G04 #@! TO.N,Net-(C4-Pad1)*
X125895000Y-85600000D03*
G04 #@! TD*
D12*
G04 #@! TO.N,GND*
G04 #@! TO.C,D4*
G36*
X115957327Y-83816857D02*
X115981595Y-83820457D01*
X116005394Y-83826418D01*
X116028493Y-83834683D01*
X116050672Y-83845173D01*
X116071715Y-83857785D01*
X116091421Y-83872400D01*
X116109599Y-83888876D01*
X116126075Y-83907054D01*
X116140690Y-83926760D01*
X116153302Y-83947803D01*
X116163792Y-83969982D01*
X116172057Y-83993081D01*
X116178018Y-84016880D01*
X116181618Y-84041148D01*
X116182822Y-84065652D01*
X116182822Y-84965654D01*
X116181618Y-84990158D01*
X116178018Y-85014426D01*
X116172057Y-85038225D01*
X116163792Y-85061324D01*
X116153302Y-85083503D01*
X116140690Y-85104546D01*
X116126075Y-85124252D01*
X116109599Y-85142430D01*
X116091421Y-85158906D01*
X116071715Y-85173521D01*
X116050672Y-85186133D01*
X116028493Y-85196623D01*
X116005394Y-85204888D01*
X115981595Y-85210849D01*
X115957327Y-85214449D01*
X115932823Y-85215653D01*
X115282821Y-85215653D01*
X115258317Y-85214449D01*
X115234049Y-85210849D01*
X115210250Y-85204888D01*
X115187151Y-85196623D01*
X115164972Y-85186133D01*
X115143929Y-85173521D01*
X115124223Y-85158906D01*
X115106045Y-85142430D01*
X115089569Y-85124252D01*
X115074954Y-85104546D01*
X115062342Y-85083503D01*
X115051852Y-85061324D01*
X115043587Y-85038225D01*
X115037626Y-85014426D01*
X115034026Y-84990158D01*
X115032822Y-84965654D01*
X115032822Y-84065652D01*
X115034026Y-84041148D01*
X115037626Y-84016880D01*
X115043587Y-83993081D01*
X115051852Y-83969982D01*
X115062342Y-83947803D01*
X115074954Y-83926760D01*
X115089569Y-83907054D01*
X115106045Y-83888876D01*
X115124223Y-83872400D01*
X115143929Y-83857785D01*
X115164972Y-83845173D01*
X115187151Y-83834683D01*
X115210250Y-83826418D01*
X115234049Y-83820457D01*
X115258317Y-83816857D01*
X115282821Y-83815653D01*
X115932823Y-83815653D01*
X115957327Y-83816857D01*
X115957327Y-83816857D01*
G37*
D17*
G04 #@! TD*
G04 #@! TO.P,D4,1*
G04 #@! TO.N,GND*
X115607822Y-84515653D03*
D12*
G04 #@! TO.N,/LED_1*
G04 #@! TO.C,D4*
G36*
X118007327Y-83816857D02*
X118031595Y-83820457D01*
X118055394Y-83826418D01*
X118078493Y-83834683D01*
X118100672Y-83845173D01*
X118121715Y-83857785D01*
X118141421Y-83872400D01*
X118159599Y-83888876D01*
X118176075Y-83907054D01*
X118190690Y-83926760D01*
X118203302Y-83947803D01*
X118213792Y-83969982D01*
X118222057Y-83993081D01*
X118228018Y-84016880D01*
X118231618Y-84041148D01*
X118232822Y-84065652D01*
X118232822Y-84965654D01*
X118231618Y-84990158D01*
X118228018Y-85014426D01*
X118222057Y-85038225D01*
X118213792Y-85061324D01*
X118203302Y-85083503D01*
X118190690Y-85104546D01*
X118176075Y-85124252D01*
X118159599Y-85142430D01*
X118141421Y-85158906D01*
X118121715Y-85173521D01*
X118100672Y-85186133D01*
X118078493Y-85196623D01*
X118055394Y-85204888D01*
X118031595Y-85210849D01*
X118007327Y-85214449D01*
X117982823Y-85215653D01*
X117332821Y-85215653D01*
X117308317Y-85214449D01*
X117284049Y-85210849D01*
X117260250Y-85204888D01*
X117237151Y-85196623D01*
X117214972Y-85186133D01*
X117193929Y-85173521D01*
X117174223Y-85158906D01*
X117156045Y-85142430D01*
X117139569Y-85124252D01*
X117124954Y-85104546D01*
X117112342Y-85083503D01*
X117101852Y-85061324D01*
X117093587Y-85038225D01*
X117087626Y-85014426D01*
X117084026Y-84990158D01*
X117082822Y-84965654D01*
X117082822Y-84065652D01*
X117084026Y-84041148D01*
X117087626Y-84016880D01*
X117093587Y-83993081D01*
X117101852Y-83969982D01*
X117112342Y-83947803D01*
X117124954Y-83926760D01*
X117139569Y-83907054D01*
X117156045Y-83888876D01*
X117174223Y-83872400D01*
X117193929Y-83857785D01*
X117214972Y-83845173D01*
X117237151Y-83834683D01*
X117260250Y-83826418D01*
X117284049Y-83820457D01*
X117308317Y-83816857D01*
X117332821Y-83815653D01*
X117982823Y-83815653D01*
X118007327Y-83816857D01*
X118007327Y-83816857D01*
G37*
D17*
G04 #@! TD*
G04 #@! TO.P,D4,2*
G04 #@! TO.N,/LED_1*
X117657822Y-84515653D03*
D12*
G04 #@! TO.N,/LED_2*
G04 #@! TO.C,D5*
G36*
X122807327Y-90216857D02*
X122831595Y-90220457D01*
X122855394Y-90226418D01*
X122878493Y-90234683D01*
X122900672Y-90245173D01*
X122921715Y-90257785D01*
X122941421Y-90272400D01*
X122959599Y-90288876D01*
X122976075Y-90307054D01*
X122990690Y-90326760D01*
X123003302Y-90347803D01*
X123013792Y-90369982D01*
X123022057Y-90393081D01*
X123028018Y-90416880D01*
X123031618Y-90441148D01*
X123032822Y-90465652D01*
X123032822Y-91365654D01*
X123031618Y-91390158D01*
X123028018Y-91414426D01*
X123022057Y-91438225D01*
X123013792Y-91461324D01*
X123003302Y-91483503D01*
X122990690Y-91504546D01*
X122976075Y-91524252D01*
X122959599Y-91542430D01*
X122941421Y-91558906D01*
X122921715Y-91573521D01*
X122900672Y-91586133D01*
X122878493Y-91596623D01*
X122855394Y-91604888D01*
X122831595Y-91610849D01*
X122807327Y-91614449D01*
X122782823Y-91615653D01*
X122132821Y-91615653D01*
X122108317Y-91614449D01*
X122084049Y-91610849D01*
X122060250Y-91604888D01*
X122037151Y-91596623D01*
X122014972Y-91586133D01*
X121993929Y-91573521D01*
X121974223Y-91558906D01*
X121956045Y-91542430D01*
X121939569Y-91524252D01*
X121924954Y-91504546D01*
X121912342Y-91483503D01*
X121901852Y-91461324D01*
X121893587Y-91438225D01*
X121887626Y-91414426D01*
X121884026Y-91390158D01*
X121882822Y-91365654D01*
X121882822Y-90465652D01*
X121884026Y-90441148D01*
X121887626Y-90416880D01*
X121893587Y-90393081D01*
X121901852Y-90369982D01*
X121912342Y-90347803D01*
X121924954Y-90326760D01*
X121939569Y-90307054D01*
X121956045Y-90288876D01*
X121974223Y-90272400D01*
X121993929Y-90257785D01*
X122014972Y-90245173D01*
X122037151Y-90234683D01*
X122060250Y-90226418D01*
X122084049Y-90220457D01*
X122108317Y-90216857D01*
X122132821Y-90215653D01*
X122782823Y-90215653D01*
X122807327Y-90216857D01*
X122807327Y-90216857D01*
G37*
D17*
G04 #@! TD*
G04 #@! TO.P,D5,2*
G04 #@! TO.N,/LED_2*
X122457822Y-90915653D03*
D12*
G04 #@! TO.N,GND*
G04 #@! TO.C,D5*
G36*
X120757327Y-90216857D02*
X120781595Y-90220457D01*
X120805394Y-90226418D01*
X120828493Y-90234683D01*
X120850672Y-90245173D01*
X120871715Y-90257785D01*
X120891421Y-90272400D01*
X120909599Y-90288876D01*
X120926075Y-90307054D01*
X120940690Y-90326760D01*
X120953302Y-90347803D01*
X120963792Y-90369982D01*
X120972057Y-90393081D01*
X120978018Y-90416880D01*
X120981618Y-90441148D01*
X120982822Y-90465652D01*
X120982822Y-91365654D01*
X120981618Y-91390158D01*
X120978018Y-91414426D01*
X120972057Y-91438225D01*
X120963792Y-91461324D01*
X120953302Y-91483503D01*
X120940690Y-91504546D01*
X120926075Y-91524252D01*
X120909599Y-91542430D01*
X120891421Y-91558906D01*
X120871715Y-91573521D01*
X120850672Y-91586133D01*
X120828493Y-91596623D01*
X120805394Y-91604888D01*
X120781595Y-91610849D01*
X120757327Y-91614449D01*
X120732823Y-91615653D01*
X120082821Y-91615653D01*
X120058317Y-91614449D01*
X120034049Y-91610849D01*
X120010250Y-91604888D01*
X119987151Y-91596623D01*
X119964972Y-91586133D01*
X119943929Y-91573521D01*
X119924223Y-91558906D01*
X119906045Y-91542430D01*
X119889569Y-91524252D01*
X119874954Y-91504546D01*
X119862342Y-91483503D01*
X119851852Y-91461324D01*
X119843587Y-91438225D01*
X119837626Y-91414426D01*
X119834026Y-91390158D01*
X119832822Y-91365654D01*
X119832822Y-90465652D01*
X119834026Y-90441148D01*
X119837626Y-90416880D01*
X119843587Y-90393081D01*
X119851852Y-90369982D01*
X119862342Y-90347803D01*
X119874954Y-90326760D01*
X119889569Y-90307054D01*
X119906045Y-90288876D01*
X119924223Y-90272400D01*
X119943929Y-90257785D01*
X119964972Y-90245173D01*
X119987151Y-90234683D01*
X120010250Y-90226418D01*
X120034049Y-90220457D01*
X120058317Y-90216857D01*
X120082821Y-90215653D01*
X120732823Y-90215653D01*
X120757327Y-90216857D01*
X120757327Y-90216857D01*
G37*
D17*
G04 #@! TD*
G04 #@! TO.P,D5,1*
G04 #@! TO.N,GND*
X120407822Y-90915653D03*
D12*
G04 #@! TO.N,GND*
G04 #@! TO.C,D6*
G36*
X136054505Y-109291204D02*
X136078773Y-109294804D01*
X136102572Y-109300765D01*
X136125671Y-109309030D01*
X136147850Y-109319520D01*
X136168893Y-109332132D01*
X136188599Y-109346747D01*
X136206777Y-109363223D01*
X136223253Y-109381401D01*
X136237868Y-109401107D01*
X136250480Y-109422150D01*
X136260970Y-109444329D01*
X136269235Y-109467428D01*
X136275196Y-109491227D01*
X136278796Y-109515495D01*
X136280000Y-109539999D01*
X136280000Y-110440001D01*
X136278796Y-110464505D01*
X136275196Y-110488773D01*
X136269235Y-110512572D01*
X136260970Y-110535671D01*
X136250480Y-110557850D01*
X136237868Y-110578893D01*
X136223253Y-110598599D01*
X136206777Y-110616777D01*
X136188599Y-110633253D01*
X136168893Y-110647868D01*
X136147850Y-110660480D01*
X136125671Y-110670970D01*
X136102572Y-110679235D01*
X136078773Y-110685196D01*
X136054505Y-110688796D01*
X136030001Y-110690000D01*
X135379999Y-110690000D01*
X135355495Y-110688796D01*
X135331227Y-110685196D01*
X135307428Y-110679235D01*
X135284329Y-110670970D01*
X135262150Y-110660480D01*
X135241107Y-110647868D01*
X135221401Y-110633253D01*
X135203223Y-110616777D01*
X135186747Y-110598599D01*
X135172132Y-110578893D01*
X135159520Y-110557850D01*
X135149030Y-110535671D01*
X135140765Y-110512572D01*
X135134804Y-110488773D01*
X135131204Y-110464505D01*
X135130000Y-110440001D01*
X135130000Y-109539999D01*
X135131204Y-109515495D01*
X135134804Y-109491227D01*
X135140765Y-109467428D01*
X135149030Y-109444329D01*
X135159520Y-109422150D01*
X135172132Y-109401107D01*
X135186747Y-109381401D01*
X135203223Y-109363223D01*
X135221401Y-109346747D01*
X135241107Y-109332132D01*
X135262150Y-109319520D01*
X135284329Y-109309030D01*
X135307428Y-109300765D01*
X135331227Y-109294804D01*
X135355495Y-109291204D01*
X135379999Y-109290000D01*
X136030001Y-109290000D01*
X136054505Y-109291204D01*
X136054505Y-109291204D01*
G37*
D17*
G04 #@! TD*
G04 #@! TO.P,D6,1*
G04 #@! TO.N,GND*
X135705000Y-109990000D03*
D12*
G04 #@! TO.N,/LED_3*
G04 #@! TO.C,D6*
G36*
X138104505Y-109291204D02*
X138128773Y-109294804D01*
X138152572Y-109300765D01*
X138175671Y-109309030D01*
X138197850Y-109319520D01*
X138218893Y-109332132D01*
X138238599Y-109346747D01*
X138256777Y-109363223D01*
X138273253Y-109381401D01*
X138287868Y-109401107D01*
X138300480Y-109422150D01*
X138310970Y-109444329D01*
X138319235Y-109467428D01*
X138325196Y-109491227D01*
X138328796Y-109515495D01*
X138330000Y-109539999D01*
X138330000Y-110440001D01*
X138328796Y-110464505D01*
X138325196Y-110488773D01*
X138319235Y-110512572D01*
X138310970Y-110535671D01*
X138300480Y-110557850D01*
X138287868Y-110578893D01*
X138273253Y-110598599D01*
X138256777Y-110616777D01*
X138238599Y-110633253D01*
X138218893Y-110647868D01*
X138197850Y-110660480D01*
X138175671Y-110670970D01*
X138152572Y-110679235D01*
X138128773Y-110685196D01*
X138104505Y-110688796D01*
X138080001Y-110690000D01*
X137429999Y-110690000D01*
X137405495Y-110688796D01*
X137381227Y-110685196D01*
X137357428Y-110679235D01*
X137334329Y-110670970D01*
X137312150Y-110660480D01*
X137291107Y-110647868D01*
X137271401Y-110633253D01*
X137253223Y-110616777D01*
X137236747Y-110598599D01*
X137222132Y-110578893D01*
X137209520Y-110557850D01*
X137199030Y-110535671D01*
X137190765Y-110512572D01*
X137184804Y-110488773D01*
X137181204Y-110464505D01*
X137180000Y-110440001D01*
X137180000Y-109539999D01*
X137181204Y-109515495D01*
X137184804Y-109491227D01*
X137190765Y-109467428D01*
X137199030Y-109444329D01*
X137209520Y-109422150D01*
X137222132Y-109401107D01*
X137236747Y-109381401D01*
X137253223Y-109363223D01*
X137271401Y-109346747D01*
X137291107Y-109332132D01*
X137312150Y-109319520D01*
X137334329Y-109309030D01*
X137357428Y-109300765D01*
X137381227Y-109294804D01*
X137405495Y-109291204D01*
X137429999Y-109290000D01*
X138080001Y-109290000D01*
X138104505Y-109291204D01*
X138104505Y-109291204D01*
G37*
D17*
G04 #@! TD*
G04 #@! TO.P,D6,2*
G04 #@! TO.N,/LED_3*
X137755000Y-109990000D03*
D18*
G04 #@! TO.P,H1,1*
G04 #@! TO.N,GND*
X152130000Y-63290000D03*
G04 #@! TD*
D19*
G04 #@! TO.P,J1,1*
G04 #@! TO.N,+3V3*
X158030000Y-87090000D03*
D12*
G04 #@! TD*
G04 #@! TO.N,+3V3*
G04 #@! TO.C,J1*
G36*
X159227507Y-86985232D02*
X158134768Y-88287507D01*
X156832493Y-87194768D01*
X157925232Y-85892493D01*
X159227507Y-86985232D01*
X159227507Y-86985232D01*
G37*
D19*
G04 #@! TO.P,J1,2*
G04 #@! TO.N,SWCLK*
X156397319Y-89035753D03*
D20*
G04 #@! TD*
G04 #@! TO.N,SWCLK*
G04 #@! TO.C,J1*
X156397319Y-89035753D02*
X156397319Y-89035753D01*
D19*
G04 #@! TO.P,J1,3*
G04 #@! TO.N,GND*
X154764639Y-90981506D03*
D20*
G04 #@! TD*
G04 #@! TO.N,GND*
G04 #@! TO.C,J1*
X154764639Y-90981506D02*
X154764639Y-90981506D01*
D19*
G04 #@! TO.P,J1,4*
G04 #@! TO.N,SWDI0*
X153131958Y-92927259D03*
D20*
G04 #@! TD*
G04 #@! TO.N,SWDI0*
G04 #@! TO.C,J1*
X153131958Y-92927259D02*
X153131958Y-92927259D01*
D19*
G04 #@! TO.P,J1,5*
G04 #@! TO.N,NRST*
X151499278Y-94873012D03*
D20*
G04 #@! TD*
G04 #@! TO.N,NRST*
G04 #@! TO.C,J1*
X151499278Y-94873012D02*
X151499278Y-94873012D01*
D19*
G04 #@! TO.P,J1,6*
G04 #@! TO.N,UART_TX*
X149866597Y-96818764D03*
D20*
G04 #@! TD*
G04 #@! TO.N,UART_TX*
G04 #@! TO.C,J1*
X149866597Y-96818764D02*
X149866597Y-96818764D01*
D12*
G04 #@! TO.N,/SOLAR*
G04 #@! TO.C,R1*
G36*
X130210779Y-94291144D02*
X130233834Y-94294563D01*
X130256443Y-94300227D01*
X130278387Y-94308079D01*
X130299457Y-94318044D01*
X130319448Y-94330026D01*
X130338168Y-94343910D01*
X130355438Y-94359562D01*
X130371090Y-94376832D01*
X130384974Y-94395552D01*
X130396956Y-94415543D01*
X130406921Y-94436613D01*
X130414773Y-94458557D01*
X130420437Y-94481166D01*
X130423856Y-94504221D01*
X130425000Y-94527500D01*
X130425000Y-95102500D01*
X130423856Y-95125779D01*
X130420437Y-95148834D01*
X130414773Y-95171443D01*
X130406921Y-95193387D01*
X130396956Y-95214457D01*
X130384974Y-95234448D01*
X130371090Y-95253168D01*
X130355438Y-95270438D01*
X130338168Y-95286090D01*
X130319448Y-95299974D01*
X130299457Y-95311956D01*
X130278387Y-95321921D01*
X130256443Y-95329773D01*
X130233834Y-95335437D01*
X130210779Y-95338856D01*
X130187500Y-95340000D01*
X129712500Y-95340000D01*
X129689221Y-95338856D01*
X129666166Y-95335437D01*
X129643557Y-95329773D01*
X129621613Y-95321921D01*
X129600543Y-95311956D01*
X129580552Y-95299974D01*
X129561832Y-95286090D01*
X129544562Y-95270438D01*
X129528910Y-95253168D01*
X129515026Y-95234448D01*
X129503044Y-95214457D01*
X129493079Y-95193387D01*
X129485227Y-95171443D01*
X129479563Y-95148834D01*
X129476144Y-95125779D01*
X129475000Y-95102500D01*
X129475000Y-94527500D01*
X129476144Y-94504221D01*
X129479563Y-94481166D01*
X129485227Y-94458557D01*
X129493079Y-94436613D01*
X129503044Y-94415543D01*
X129515026Y-94395552D01*
X129528910Y-94376832D01*
X129544562Y-94359562D01*
X129561832Y-94343910D01*
X129580552Y-94330026D01*
X129600543Y-94318044D01*
X129621613Y-94308079D01*
X129643557Y-94300227D01*
X129666166Y-94294563D01*
X129689221Y-94291144D01*
X129712500Y-94290000D01*
X130187500Y-94290000D01*
X130210779Y-94291144D01*
X130210779Y-94291144D01*
G37*
D13*
G04 #@! TD*
G04 #@! TO.P,R1,1*
G04 #@! TO.N,/SOLAR*
X129950000Y-94815000D03*
D12*
G04 #@! TO.N,/PANEL_SENSE*
G04 #@! TO.C,R1*
G36*
X130210779Y-96041144D02*
X130233834Y-96044563D01*
X130256443Y-96050227D01*
X130278387Y-96058079D01*
X130299457Y-96068044D01*
X130319448Y-96080026D01*
X130338168Y-96093910D01*
X130355438Y-96109562D01*
X130371090Y-96126832D01*
X130384974Y-96145552D01*
X130396956Y-96165543D01*
X130406921Y-96186613D01*
X130414773Y-96208557D01*
X130420437Y-96231166D01*
X130423856Y-96254221D01*
X130425000Y-96277500D01*
X130425000Y-96852500D01*
X130423856Y-96875779D01*
X130420437Y-96898834D01*
X130414773Y-96921443D01*
X130406921Y-96943387D01*
X130396956Y-96964457D01*
X130384974Y-96984448D01*
X130371090Y-97003168D01*
X130355438Y-97020438D01*
X130338168Y-97036090D01*
X130319448Y-97049974D01*
X130299457Y-97061956D01*
X130278387Y-97071921D01*
X130256443Y-97079773D01*
X130233834Y-97085437D01*
X130210779Y-97088856D01*
X130187500Y-97090000D01*
X129712500Y-97090000D01*
X129689221Y-97088856D01*
X129666166Y-97085437D01*
X129643557Y-97079773D01*
X129621613Y-97071921D01*
X129600543Y-97061956D01*
X129580552Y-97049974D01*
X129561832Y-97036090D01*
X129544562Y-97020438D01*
X129528910Y-97003168D01*
X129515026Y-96984448D01*
X129503044Y-96964457D01*
X129493079Y-96943387D01*
X129485227Y-96921443D01*
X129479563Y-96898834D01*
X129476144Y-96875779D01*
X129475000Y-96852500D01*
X129475000Y-96277500D01*
X129476144Y-96254221D01*
X129479563Y-96231166D01*
X129485227Y-96208557D01*
X129493079Y-96186613D01*
X129503044Y-96165543D01*
X129515026Y-96145552D01*
X129528910Y-96126832D01*
X129544562Y-96109562D01*
X129561832Y-96093910D01*
X129580552Y-96080026D01*
X129600543Y-96068044D01*
X129621613Y-96058079D01*
X129643557Y-96050227D01*
X129666166Y-96044563D01*
X129689221Y-96041144D01*
X129712500Y-96040000D01*
X130187500Y-96040000D01*
X130210779Y-96041144D01*
X130210779Y-96041144D01*
G37*
D13*
G04 #@! TD*
G04 #@! TO.P,R1,2*
G04 #@! TO.N,/PANEL_SENSE*
X129950000Y-96565000D03*
D12*
G04 #@! TO.N,/BATT*
G04 #@! TO.C,R2*
G36*
X127735779Y-94266144D02*
X127758834Y-94269563D01*
X127781443Y-94275227D01*
X127803387Y-94283079D01*
X127824457Y-94293044D01*
X127844448Y-94305026D01*
X127863168Y-94318910D01*
X127880438Y-94334562D01*
X127896090Y-94351832D01*
X127909974Y-94370552D01*
X127921956Y-94390543D01*
X127931921Y-94411613D01*
X127939773Y-94433557D01*
X127945437Y-94456166D01*
X127948856Y-94479221D01*
X127950000Y-94502500D01*
X127950000Y-95077500D01*
X127948856Y-95100779D01*
X127945437Y-95123834D01*
X127939773Y-95146443D01*
X127931921Y-95168387D01*
X127921956Y-95189457D01*
X127909974Y-95209448D01*
X127896090Y-95228168D01*
X127880438Y-95245438D01*
X127863168Y-95261090D01*
X127844448Y-95274974D01*
X127824457Y-95286956D01*
X127803387Y-95296921D01*
X127781443Y-95304773D01*
X127758834Y-95310437D01*
X127735779Y-95313856D01*
X127712500Y-95315000D01*
X127237500Y-95315000D01*
X127214221Y-95313856D01*
X127191166Y-95310437D01*
X127168557Y-95304773D01*
X127146613Y-95296921D01*
X127125543Y-95286956D01*
X127105552Y-95274974D01*
X127086832Y-95261090D01*
X127069562Y-95245438D01*
X127053910Y-95228168D01*
X127040026Y-95209448D01*
X127028044Y-95189457D01*
X127018079Y-95168387D01*
X127010227Y-95146443D01*
X127004563Y-95123834D01*
X127001144Y-95100779D01*
X127000000Y-95077500D01*
X127000000Y-94502500D01*
X127001144Y-94479221D01*
X127004563Y-94456166D01*
X127010227Y-94433557D01*
X127018079Y-94411613D01*
X127028044Y-94390543D01*
X127040026Y-94370552D01*
X127053910Y-94351832D01*
X127069562Y-94334562D01*
X127086832Y-94318910D01*
X127105552Y-94305026D01*
X127125543Y-94293044D01*
X127146613Y-94283079D01*
X127168557Y-94275227D01*
X127191166Y-94269563D01*
X127214221Y-94266144D01*
X127237500Y-94265000D01*
X127712500Y-94265000D01*
X127735779Y-94266144D01*
X127735779Y-94266144D01*
G37*
D13*
G04 #@! TD*
G04 #@! TO.P,R2,1*
G04 #@! TO.N,/BATT*
X127475000Y-94790000D03*
D12*
G04 #@! TO.N,/BATT_SENSE*
G04 #@! TO.C,R2*
G36*
X127735779Y-96016144D02*
X127758834Y-96019563D01*
X127781443Y-96025227D01*
X127803387Y-96033079D01*
X127824457Y-96043044D01*
X127844448Y-96055026D01*
X127863168Y-96068910D01*
X127880438Y-96084562D01*
X127896090Y-96101832D01*
X127909974Y-96120552D01*
X127921956Y-96140543D01*
X127931921Y-96161613D01*
X127939773Y-96183557D01*
X127945437Y-96206166D01*
X127948856Y-96229221D01*
X127950000Y-96252500D01*
X127950000Y-96827500D01*
X127948856Y-96850779D01*
X127945437Y-96873834D01*
X127939773Y-96896443D01*
X127931921Y-96918387D01*
X127921956Y-96939457D01*
X127909974Y-96959448D01*
X127896090Y-96978168D01*
X127880438Y-96995438D01*
X127863168Y-97011090D01*
X127844448Y-97024974D01*
X127824457Y-97036956D01*
X127803387Y-97046921D01*
X127781443Y-97054773D01*
X127758834Y-97060437D01*
X127735779Y-97063856D01*
X127712500Y-97065000D01*
X127237500Y-97065000D01*
X127214221Y-97063856D01*
X127191166Y-97060437D01*
X127168557Y-97054773D01*
X127146613Y-97046921D01*
X127125543Y-97036956D01*
X127105552Y-97024974D01*
X127086832Y-97011090D01*
X127069562Y-96995438D01*
X127053910Y-96978168D01*
X127040026Y-96959448D01*
X127028044Y-96939457D01*
X127018079Y-96918387D01*
X127010227Y-96896443D01*
X127004563Y-96873834D01*
X127001144Y-96850779D01*
X127000000Y-96827500D01*
X127000000Y-96252500D01*
X127001144Y-96229221D01*
X127004563Y-96206166D01*
X127010227Y-96183557D01*
X127018079Y-96161613D01*
X127028044Y-96140543D01*
X127040026Y-96120552D01*
X127053910Y-96101832D01*
X127069562Y-96084562D01*
X127086832Y-96068910D01*
X127105552Y-96055026D01*
X127125543Y-96043044D01*
X127146613Y-96033079D01*
X127168557Y-96025227D01*
X127191166Y-96019563D01*
X127214221Y-96016144D01*
X127237500Y-96015000D01*
X127712500Y-96015000D01*
X127735779Y-96016144D01*
X127735779Y-96016144D01*
G37*
D13*
G04 #@! TD*
G04 #@! TO.P,R2,2*
G04 #@! TO.N,/BATT_SENSE*
X127475000Y-96540000D03*
D12*
G04 #@! TO.N,GND*
G04 #@! TO.C,R5*
G36*
X130210779Y-99791144D02*
X130233834Y-99794563D01*
X130256443Y-99800227D01*
X130278387Y-99808079D01*
X130299457Y-99818044D01*
X130319448Y-99830026D01*
X130338168Y-99843910D01*
X130355438Y-99859562D01*
X130371090Y-99876832D01*
X130384974Y-99895552D01*
X130396956Y-99915543D01*
X130406921Y-99936613D01*
X130414773Y-99958557D01*
X130420437Y-99981166D01*
X130423856Y-100004221D01*
X130425000Y-100027500D01*
X130425000Y-100602500D01*
X130423856Y-100625779D01*
X130420437Y-100648834D01*
X130414773Y-100671443D01*
X130406921Y-100693387D01*
X130396956Y-100714457D01*
X130384974Y-100734448D01*
X130371090Y-100753168D01*
X130355438Y-100770438D01*
X130338168Y-100786090D01*
X130319448Y-100799974D01*
X130299457Y-100811956D01*
X130278387Y-100821921D01*
X130256443Y-100829773D01*
X130233834Y-100835437D01*
X130210779Y-100838856D01*
X130187500Y-100840000D01*
X129712500Y-100840000D01*
X129689221Y-100838856D01*
X129666166Y-100835437D01*
X129643557Y-100829773D01*
X129621613Y-100821921D01*
X129600543Y-100811956D01*
X129580552Y-100799974D01*
X129561832Y-100786090D01*
X129544562Y-100770438D01*
X129528910Y-100753168D01*
X129515026Y-100734448D01*
X129503044Y-100714457D01*
X129493079Y-100693387D01*
X129485227Y-100671443D01*
X129479563Y-100648834D01*
X129476144Y-100625779D01*
X129475000Y-100602500D01*
X129475000Y-100027500D01*
X129476144Y-100004221D01*
X129479563Y-99981166D01*
X129485227Y-99958557D01*
X129493079Y-99936613D01*
X129503044Y-99915543D01*
X129515026Y-99895552D01*
X129528910Y-99876832D01*
X129544562Y-99859562D01*
X129561832Y-99843910D01*
X129580552Y-99830026D01*
X129600543Y-99818044D01*
X129621613Y-99808079D01*
X129643557Y-99800227D01*
X129666166Y-99794563D01*
X129689221Y-99791144D01*
X129712500Y-99790000D01*
X130187500Y-99790000D01*
X130210779Y-99791144D01*
X130210779Y-99791144D01*
G37*
D13*
G04 #@! TD*
G04 #@! TO.P,R5,2*
G04 #@! TO.N,GND*
X129950000Y-100315000D03*
D12*
G04 #@! TO.N,/PANEL_SENSE*
G04 #@! TO.C,R5*
G36*
X130210779Y-98041144D02*
X130233834Y-98044563D01*
X130256443Y-98050227D01*
X130278387Y-98058079D01*
X130299457Y-98068044D01*
X130319448Y-98080026D01*
X130338168Y-98093910D01*
X130355438Y-98109562D01*
X130371090Y-98126832D01*
X130384974Y-98145552D01*
X130396956Y-98165543D01*
X130406921Y-98186613D01*
X130414773Y-98208557D01*
X130420437Y-98231166D01*
X130423856Y-98254221D01*
X130425000Y-98277500D01*
X130425000Y-98852500D01*
X130423856Y-98875779D01*
X130420437Y-98898834D01*
X130414773Y-98921443D01*
X130406921Y-98943387D01*
X130396956Y-98964457D01*
X130384974Y-98984448D01*
X130371090Y-99003168D01*
X130355438Y-99020438D01*
X130338168Y-99036090D01*
X130319448Y-99049974D01*
X130299457Y-99061956D01*
X130278387Y-99071921D01*
X130256443Y-99079773D01*
X130233834Y-99085437D01*
X130210779Y-99088856D01*
X130187500Y-99090000D01*
X129712500Y-99090000D01*
X129689221Y-99088856D01*
X129666166Y-99085437D01*
X129643557Y-99079773D01*
X129621613Y-99071921D01*
X129600543Y-99061956D01*
X129580552Y-99049974D01*
X129561832Y-99036090D01*
X129544562Y-99020438D01*
X129528910Y-99003168D01*
X129515026Y-98984448D01*
X129503044Y-98964457D01*
X129493079Y-98943387D01*
X129485227Y-98921443D01*
X129479563Y-98898834D01*
X129476144Y-98875779D01*
X129475000Y-98852500D01*
X129475000Y-98277500D01*
X129476144Y-98254221D01*
X129479563Y-98231166D01*
X129485227Y-98208557D01*
X129493079Y-98186613D01*
X129503044Y-98165543D01*
X129515026Y-98145552D01*
X129528910Y-98126832D01*
X129544562Y-98109562D01*
X129561832Y-98093910D01*
X129580552Y-98080026D01*
X129600543Y-98068044D01*
X129621613Y-98058079D01*
X129643557Y-98050227D01*
X129666166Y-98044563D01*
X129689221Y-98041144D01*
X129712500Y-98040000D01*
X130187500Y-98040000D01*
X130210779Y-98041144D01*
X130210779Y-98041144D01*
G37*
D13*
G04 #@! TD*
G04 #@! TO.P,R5,1*
G04 #@! TO.N,/PANEL_SENSE*
X129950000Y-98565000D03*
D12*
G04 #@! TO.N,GND*
G04 #@! TO.C,R6*
G36*
X127735779Y-99766144D02*
X127758834Y-99769563D01*
X127781443Y-99775227D01*
X127803387Y-99783079D01*
X127824457Y-99793044D01*
X127844448Y-99805026D01*
X127863168Y-99818910D01*
X127880438Y-99834562D01*
X127896090Y-99851832D01*
X127909974Y-99870552D01*
X127921956Y-99890543D01*
X127931921Y-99911613D01*
X127939773Y-99933557D01*
X127945437Y-99956166D01*
X127948856Y-99979221D01*
X127950000Y-100002500D01*
X127950000Y-100577500D01*
X127948856Y-100600779D01*
X127945437Y-100623834D01*
X127939773Y-100646443D01*
X127931921Y-100668387D01*
X127921956Y-100689457D01*
X127909974Y-100709448D01*
X127896090Y-100728168D01*
X127880438Y-100745438D01*
X127863168Y-100761090D01*
X127844448Y-100774974D01*
X127824457Y-100786956D01*
X127803387Y-100796921D01*
X127781443Y-100804773D01*
X127758834Y-100810437D01*
X127735779Y-100813856D01*
X127712500Y-100815000D01*
X127237500Y-100815000D01*
X127214221Y-100813856D01*
X127191166Y-100810437D01*
X127168557Y-100804773D01*
X127146613Y-100796921D01*
X127125543Y-100786956D01*
X127105552Y-100774974D01*
X127086832Y-100761090D01*
X127069562Y-100745438D01*
X127053910Y-100728168D01*
X127040026Y-100709448D01*
X127028044Y-100689457D01*
X127018079Y-100668387D01*
X127010227Y-100646443D01*
X127004563Y-100623834D01*
X127001144Y-100600779D01*
X127000000Y-100577500D01*
X127000000Y-100002500D01*
X127001144Y-99979221D01*
X127004563Y-99956166D01*
X127010227Y-99933557D01*
X127018079Y-99911613D01*
X127028044Y-99890543D01*
X127040026Y-99870552D01*
X127053910Y-99851832D01*
X127069562Y-99834562D01*
X127086832Y-99818910D01*
X127105552Y-99805026D01*
X127125543Y-99793044D01*
X127146613Y-99783079D01*
X127168557Y-99775227D01*
X127191166Y-99769563D01*
X127214221Y-99766144D01*
X127237500Y-99765000D01*
X127712500Y-99765000D01*
X127735779Y-99766144D01*
X127735779Y-99766144D01*
G37*
D13*
G04 #@! TD*
G04 #@! TO.P,R6,2*
G04 #@! TO.N,GND*
X127475000Y-100290000D03*
D12*
G04 #@! TO.N,/BATT_SENSE*
G04 #@! TO.C,R6*
G36*
X127735779Y-98016144D02*
X127758834Y-98019563D01*
X127781443Y-98025227D01*
X127803387Y-98033079D01*
X127824457Y-98043044D01*
X127844448Y-98055026D01*
X127863168Y-98068910D01*
X127880438Y-98084562D01*
X127896090Y-98101832D01*
X127909974Y-98120552D01*
X127921956Y-98140543D01*
X127931921Y-98161613D01*
X127939773Y-98183557D01*
X127945437Y-98206166D01*
X127948856Y-98229221D01*
X127950000Y-98252500D01*
X127950000Y-98827500D01*
X127948856Y-98850779D01*
X127945437Y-98873834D01*
X127939773Y-98896443D01*
X127931921Y-98918387D01*
X127921956Y-98939457D01*
X127909974Y-98959448D01*
X127896090Y-98978168D01*
X127880438Y-98995438D01*
X127863168Y-99011090D01*
X127844448Y-99024974D01*
X127824457Y-99036956D01*
X127803387Y-99046921D01*
X127781443Y-99054773D01*
X127758834Y-99060437D01*
X127735779Y-99063856D01*
X127712500Y-99065000D01*
X127237500Y-99065000D01*
X127214221Y-99063856D01*
X127191166Y-99060437D01*
X127168557Y-99054773D01*
X127146613Y-99046921D01*
X127125543Y-99036956D01*
X127105552Y-99024974D01*
X127086832Y-99011090D01*
X127069562Y-98995438D01*
X127053910Y-98978168D01*
X127040026Y-98959448D01*
X127028044Y-98939457D01*
X127018079Y-98918387D01*
X127010227Y-98896443D01*
X127004563Y-98873834D01*
X127001144Y-98850779D01*
X127000000Y-98827500D01*
X127000000Y-98252500D01*
X127001144Y-98229221D01*
X127004563Y-98206166D01*
X127010227Y-98183557D01*
X127018079Y-98161613D01*
X127028044Y-98140543D01*
X127040026Y-98120552D01*
X127053910Y-98101832D01*
X127069562Y-98084562D01*
X127086832Y-98068910D01*
X127105552Y-98055026D01*
X127125543Y-98043044D01*
X127146613Y-98033079D01*
X127168557Y-98025227D01*
X127191166Y-98019563D01*
X127214221Y-98016144D01*
X127237500Y-98015000D01*
X127712500Y-98015000D01*
X127735779Y-98016144D01*
X127735779Y-98016144D01*
G37*
D13*
G04 #@! TD*
G04 #@! TO.P,R6,1*
G04 #@! TO.N,/BATT_SENSE*
X127475000Y-98540000D03*
D12*
G04 #@! TO.N,GND*
G04 #@! TO.C,R8*
G36*
X134215779Y-97716144D02*
X134238834Y-97719563D01*
X134261443Y-97725227D01*
X134283387Y-97733079D01*
X134304457Y-97743044D01*
X134324448Y-97755026D01*
X134343168Y-97768910D01*
X134360438Y-97784562D01*
X134376090Y-97801832D01*
X134389974Y-97820552D01*
X134401956Y-97840543D01*
X134411921Y-97861613D01*
X134419773Y-97883557D01*
X134425437Y-97906166D01*
X134428856Y-97929221D01*
X134430000Y-97952500D01*
X134430000Y-98427500D01*
X134428856Y-98450779D01*
X134425437Y-98473834D01*
X134419773Y-98496443D01*
X134411921Y-98518387D01*
X134401956Y-98539457D01*
X134389974Y-98559448D01*
X134376090Y-98578168D01*
X134360438Y-98595438D01*
X134343168Y-98611090D01*
X134324448Y-98624974D01*
X134304457Y-98636956D01*
X134283387Y-98646921D01*
X134261443Y-98654773D01*
X134238834Y-98660437D01*
X134215779Y-98663856D01*
X134192500Y-98665000D01*
X133617500Y-98665000D01*
X133594221Y-98663856D01*
X133571166Y-98660437D01*
X133548557Y-98654773D01*
X133526613Y-98646921D01*
X133505543Y-98636956D01*
X133485552Y-98624974D01*
X133466832Y-98611090D01*
X133449562Y-98595438D01*
X133433910Y-98578168D01*
X133420026Y-98559448D01*
X133408044Y-98539457D01*
X133398079Y-98518387D01*
X133390227Y-98496443D01*
X133384563Y-98473834D01*
X133381144Y-98450779D01*
X133380000Y-98427500D01*
X133380000Y-97952500D01*
X133381144Y-97929221D01*
X133384563Y-97906166D01*
X133390227Y-97883557D01*
X133398079Y-97861613D01*
X133408044Y-97840543D01*
X133420026Y-97820552D01*
X133433910Y-97801832D01*
X133449562Y-97784562D01*
X133466832Y-97768910D01*
X133485552Y-97755026D01*
X133505543Y-97743044D01*
X133526613Y-97733079D01*
X133548557Y-97725227D01*
X133571166Y-97719563D01*
X133594221Y-97716144D01*
X133617500Y-97715000D01*
X134192500Y-97715000D01*
X134215779Y-97716144D01*
X134215779Y-97716144D01*
G37*
D13*
G04 #@! TD*
G04 #@! TO.P,R8,2*
G04 #@! TO.N,GND*
X133905000Y-98190000D03*
D12*
G04 #@! TO.N,Net-(R8-Pad1)*
G04 #@! TO.C,R8*
G36*
X132465779Y-97716144D02*
X132488834Y-97719563D01*
X132511443Y-97725227D01*
X132533387Y-97733079D01*
X132554457Y-97743044D01*
X132574448Y-97755026D01*
X132593168Y-97768910D01*
X132610438Y-97784562D01*
X132626090Y-97801832D01*
X132639974Y-97820552D01*
X132651956Y-97840543D01*
X132661921Y-97861613D01*
X132669773Y-97883557D01*
X132675437Y-97906166D01*
X132678856Y-97929221D01*
X132680000Y-97952500D01*
X132680000Y-98427500D01*
X132678856Y-98450779D01*
X132675437Y-98473834D01*
X132669773Y-98496443D01*
X132661921Y-98518387D01*
X132651956Y-98539457D01*
X132639974Y-98559448D01*
X132626090Y-98578168D01*
X132610438Y-98595438D01*
X132593168Y-98611090D01*
X132574448Y-98624974D01*
X132554457Y-98636956D01*
X132533387Y-98646921D01*
X132511443Y-98654773D01*
X132488834Y-98660437D01*
X132465779Y-98663856D01*
X132442500Y-98665000D01*
X131867500Y-98665000D01*
X131844221Y-98663856D01*
X131821166Y-98660437D01*
X131798557Y-98654773D01*
X131776613Y-98646921D01*
X131755543Y-98636956D01*
X131735552Y-98624974D01*
X131716832Y-98611090D01*
X131699562Y-98595438D01*
X131683910Y-98578168D01*
X131670026Y-98559448D01*
X131658044Y-98539457D01*
X131648079Y-98518387D01*
X131640227Y-98496443D01*
X131634563Y-98473834D01*
X131631144Y-98450779D01*
X131630000Y-98427500D01*
X131630000Y-97952500D01*
X131631144Y-97929221D01*
X131634563Y-97906166D01*
X131640227Y-97883557D01*
X131648079Y-97861613D01*
X131658044Y-97840543D01*
X131670026Y-97820552D01*
X131683910Y-97801832D01*
X131699562Y-97784562D01*
X131716832Y-97768910D01*
X131735552Y-97755026D01*
X131755543Y-97743044D01*
X131776613Y-97733079D01*
X131798557Y-97725227D01*
X131821166Y-97719563D01*
X131844221Y-97716144D01*
X131867500Y-97715000D01*
X132442500Y-97715000D01*
X132465779Y-97716144D01*
X132465779Y-97716144D01*
G37*
D13*
G04 #@! TD*
G04 #@! TO.P,R8,1*
G04 #@! TO.N,Net-(R8-Pad1)*
X132155000Y-98190000D03*
D16*
G04 #@! TO.P,D1,1*
G04 #@! TO.N,/REG_IN*
X127895000Y-80800000D03*
G04 #@! TO.P,D1,2*
G04 #@! TO.N,Net-(C2-Pad1)*
X127895000Y-82700000D03*
G04 #@! TO.P,D1,3*
G04 #@! TO.N,/BATT*
X125895000Y-81750000D03*
G04 #@! TD*
D10*
G04 #@! TO.P,BT1,1*
G04 #@! TO.N,/BATT*
X130230000Y-73290000D03*
D11*
G04 #@! TO.P,BT1,2*
G04 #@! TO.N,GND*
X130230000Y-68210000D03*
G04 #@! TD*
D18*
G04 #@! TO.P,H2,1*
G04 #@! TO.N,GND*
X120230000Y-63290000D03*
G04 #@! TD*
D21*
G04 #@! TO.N,GND*
X146350000Y-86615000D03*
X141650000Y-101440000D03*
X130610000Y-106300000D03*
X132500000Y-84940000D03*
X141955000Y-82440000D03*
X130030000Y-78890000D03*
X130230000Y-102290000D03*
X134930000Y-96290000D03*
X138030000Y-96290000D03*
G04 #@! TO.N,+3V3*
X135850016Y-101749998D03*
X137910367Y-101725000D03*
X136690000Y-106630000D03*
X136690000Y-94470000D03*
G04 #@! TO.N,SWCLK*
X139830000Y-97890000D03*
G04 #@! TO.N,SWDI0*
X143030000Y-100190000D03*
G04 #@! TO.N,NRST*
X132370001Y-101119999D03*
G04 #@! TO.N,UART_TX*
X131710000Y-105430000D03*
G04 #@! TO.N,/PANEL_SENSE*
X131400000Y-100010000D03*
G04 #@! TO.N,/BATT_SENSE*
X131650000Y-103430000D03*
G04 #@! TO.N,/LED_1*
X115530000Y-82490000D03*
G04 #@! TO.N,/LED_2*
X119730000Y-88890000D03*
G04 #@! TO.N,/LED_3*
X139430000Y-109990000D03*
G04 #@! TO.N,/BATT*
X137560000Y-80000000D03*
X140905000Y-79590002D03*
G04 #@! TO.N,pump1*
X137320002Y-82020000D03*
X141090000Y-93000000D03*
X133700000Y-81865000D03*
G04 #@! TO.N,pump2*
X132800000Y-83090000D03*
X136520000Y-83170000D03*
X139115307Y-93321154D03*
G04 #@! TO.N,/V_GATE*
X133360000Y-92160000D03*
G04 #@! TO.N,Net-(R8-Pad1)*
X132330000Y-96390000D03*
G04 #@! TO.N,/REG_IN*
X127950000Y-79190000D03*
G04 #@! TD*
D22*
G04 #@! TO.N,GND*
X137760000Y-103540000D02*
X137760000Y-105290000D01*
X135925000Y-98190000D02*
X135925000Y-100190000D01*
X136824990Y-100589990D02*
X136824990Y-102504990D01*
X136425000Y-100190000D02*
X136824990Y-100589990D01*
X136824990Y-102504990D02*
X137820000Y-103500000D01*
X129950000Y-102010000D02*
X130230000Y-102290000D01*
X129950000Y-100315000D02*
X129950000Y-102010000D01*
X133905000Y-98190000D02*
X135925000Y-98190000D01*
X131790000Y-88250000D02*
X130470000Y-88250000D01*
X132500000Y-87540000D02*
X131790000Y-88250000D01*
X130470000Y-88250000D02*
X129670000Y-88250000D01*
X132500000Y-84940000D02*
X132500000Y-87540000D01*
X128230000Y-106290000D02*
X130625000Y-106290000D01*
X127475000Y-105535000D02*
X128230000Y-106290000D01*
X127475000Y-100290000D02*
X127475000Y-105535000D01*
G04 #@! TO.N,+3V3*
X137700000Y-98240000D02*
X137700000Y-100240000D01*
X136020014Y-101580000D02*
X135850016Y-101749998D01*
X137675000Y-101489633D02*
X137910367Y-101725000D01*
X137675000Y-100190000D02*
X137675000Y-101489633D01*
X135945000Y-101844982D02*
X135850016Y-101749998D01*
X135945000Y-103500000D02*
X135945000Y-101844982D01*
X135945000Y-103500000D02*
X135945000Y-105250000D01*
X136690000Y-105995000D02*
X135945000Y-105250000D01*
X136690000Y-106630000D02*
X136690000Y-105995000D01*
X139140000Y-97350000D02*
X139140000Y-94470000D01*
X138300000Y-98190000D02*
X139140000Y-97350000D01*
X139140000Y-94470000D02*
X136690000Y-94470000D01*
X137675000Y-98190000D02*
X138300000Y-98190000D01*
X150250000Y-87090000D02*
X158030000Y-87090000D01*
X142870000Y-94470000D02*
X150250000Y-87090000D01*
X136690000Y-94470000D02*
X142870000Y-94470000D01*
G04 #@! TO.N,SWCLK*
X140395685Y-97890000D02*
X139830000Y-97890000D01*
X140630000Y-97890000D02*
X140395685Y-97890000D01*
X149484247Y-89035753D02*
X140630000Y-97890000D01*
X156397319Y-89035753D02*
X149484247Y-89035753D01*
G04 #@! TO.N,SWDI0*
X153131958Y-92927259D02*
X150292741Y-92927259D01*
X150292741Y-92927259D02*
X143429999Y-99790001D01*
X143429999Y-99790001D02*
X143030000Y-100190000D01*
G04 #@! TO.N,NRST*
X132845001Y-101610001D02*
X132375000Y-101140000D01*
X132845001Y-105685001D02*
X132845001Y-101610001D01*
X151499278Y-94873012D02*
X149746988Y-94873012D01*
X149746988Y-94873012D02*
X136830000Y-107790000D01*
X134950000Y-107790000D02*
X132845001Y-105685001D01*
X136830000Y-107790000D02*
X134950000Y-107790000D01*
G04 #@! TO.N,UART_TX*
X132099999Y-105839999D02*
X131700000Y-105440000D01*
X149866597Y-96818764D02*
X149016598Y-97668763D01*
X149016598Y-97668763D02*
X147851237Y-97668763D01*
X134500011Y-108240011D02*
X132099999Y-105839999D01*
X147851237Y-97668763D02*
X137279989Y-108240011D01*
X137279989Y-108240011D02*
X134500011Y-108240011D01*
G04 #@! TO.N,/PANEL_SENSE*
X129950000Y-96565000D02*
X129950000Y-98565000D01*
X131000000Y-99615001D02*
X131399999Y-100015000D01*
X129950000Y-98565000D02*
X131000000Y-99615001D01*
G04 #@! TO.N,/BATT_SENSE*
X127475000Y-96540000D02*
X127475000Y-98540000D01*
X128700000Y-99765000D02*
X127974072Y-99039072D01*
X127974072Y-99039072D02*
X127475000Y-98540000D01*
X131650010Y-103440000D02*
X129325000Y-103440000D01*
X129325000Y-103440000D02*
X128700000Y-102815000D01*
X128700000Y-102815000D02*
X128700000Y-99765000D01*
G04 #@! TO.N,/LED_1*
X115632169Y-82490000D02*
X115530000Y-82490000D01*
X117657822Y-84515653D02*
X115632169Y-82490000D01*
G04 #@! TO.N,/LED_2*
X120432169Y-88890000D02*
X122457822Y-90915653D01*
X119730000Y-88890000D02*
X120432169Y-88890000D01*
G04 #@! TO.N,/LED_3*
X139430000Y-109990000D02*
X137755000Y-109990000D01*
G04 #@! TO.N,/BATT*
X140339315Y-79590002D02*
X140905000Y-79590002D01*
X137969998Y-79590002D02*
X140339315Y-79590002D01*
X137560000Y-80000000D02*
X137969998Y-79590002D01*
X134490000Y-77500000D02*
X134490000Y-77452500D01*
X133943004Y-93660000D02*
X134490000Y-93113004D01*
X127475000Y-94790000D02*
X128600000Y-93665000D01*
X134490000Y-93113004D02*
X134490000Y-77500000D01*
X128600000Y-93665000D02*
X129675000Y-93665000D01*
X129680000Y-93660000D02*
X133943004Y-93660000D01*
X129675000Y-93665000D02*
X129680000Y-93660000D01*
X133230000Y-73290000D02*
X130230000Y-73290000D01*
X134100000Y-77490000D02*
X134100000Y-76240000D01*
X134130000Y-76210000D02*
X134130000Y-74190000D01*
X134100000Y-76240000D02*
X134130000Y-76210000D01*
X134130000Y-74190000D02*
X133230000Y-73290000D01*
X125895000Y-77625000D02*
X130230000Y-73290000D01*
X125895000Y-81750000D02*
X125895000Y-77625000D01*
G04 #@! TO.N,Net-(C2-Pad1)*
X127930000Y-82690000D02*
X127930000Y-84640000D01*
X129555000Y-82725000D02*
X127930000Y-82725000D01*
G04 #@! TO.N,pump1*
X137320002Y-82020000D02*
X137320002Y-90730002D01*
X140690001Y-92600001D02*
X139190001Y-92600001D01*
X141090000Y-93000000D02*
X140690001Y-92600001D01*
X139190001Y-92600001D02*
X137320002Y-90730002D01*
X132810000Y-80975000D02*
X130345000Y-80975000D01*
X130345000Y-80975000D02*
X129545000Y-80975000D01*
X133700000Y-81865000D02*
X132810000Y-80975000D01*
G04 #@! TO.N,pump2*
X136520000Y-83170000D02*
X136520000Y-90725847D01*
X138715308Y-92921155D02*
X139115307Y-93321154D01*
X136520000Y-90725847D02*
X138715308Y-92921155D01*
X130345000Y-84725000D02*
X129545000Y-84725000D01*
X131165000Y-84725000D02*
X130345000Y-84725000D01*
X132800000Y-83090000D02*
X131165000Y-84725000D01*
G04 #@! TO.N,Net-(C4-Pad1)*
X128670000Y-85600000D02*
X129545000Y-86475000D01*
X125895000Y-85600000D02*
X128670000Y-85600000D01*
G04 #@! TO.N,/V_GATE*
X127930000Y-88290000D02*
X127930000Y-86615000D01*
X132794315Y-92160000D02*
X133360000Y-92160000D01*
X131255000Y-92160000D02*
X132794315Y-92160000D01*
X127920000Y-88825000D02*
X131255000Y-92160000D01*
X127920000Y-88250000D02*
X127920000Y-88825000D01*
G04 #@! TO.N,/SOLAR*
X134105000Y-94815000D02*
X135575013Y-93344987D01*
X135575013Y-93344987D02*
X135575013Y-79002487D01*
X137030000Y-77547500D02*
X137030000Y-77500000D01*
X129950000Y-94815000D02*
X134105000Y-94815000D01*
X135575013Y-79002487D02*
X137030000Y-77547500D01*
X141380000Y-73270000D02*
X143130000Y-73270000D01*
X137550000Y-73270000D02*
X141380000Y-73270000D01*
X136640000Y-74180000D02*
X137550000Y-73270000D01*
X136640000Y-77490000D02*
X136640000Y-74180000D01*
G04 #@! TO.N,Net-(R8-Pad1)*
X132330000Y-98015000D02*
X132155000Y-98190000D01*
X132330000Y-96390000D02*
X132330000Y-98015000D01*
G04 #@! TO.N,/REG_IN*
X127895000Y-79245000D02*
X127950000Y-79190000D01*
X127895000Y-80800000D02*
X127895000Y-79245000D01*
G04 #@! TD*
D23*
G04 #@! TO.N,GND*
G36*
X151544356Y-58376239D02*
X153008795Y-58603916D01*
X154438453Y-58978249D01*
X155823575Y-59495094D01*
X157154320Y-60150319D01*
X158420813Y-60939805D01*
X159613151Y-61859446D01*
X160721541Y-62905273D01*
X161725882Y-64060659D01*
X162609979Y-65304872D01*
X163369698Y-66627772D01*
X164000777Y-68019019D01*
X164498944Y-69468194D01*
X164859962Y-70964852D01*
X165079633Y-72498571D01*
X165153606Y-74055256D01*
X164965914Y-77257331D01*
X164333686Y-80517588D01*
X163148123Y-83915823D01*
X161295496Y-87527557D01*
X159692195Y-89873080D01*
X157210570Y-93054770D01*
X150502874Y-100872730D01*
X142963308Y-108888893D01*
X139440825Y-112323803D01*
X136784607Y-114676746D01*
X133816806Y-112349938D01*
X131582869Y-110275750D01*
X134495000Y-110275750D01*
X134495000Y-110816310D01*
X134591673Y-111049699D01*
X134770302Y-111228327D01*
X135003691Y-111325000D01*
X135419250Y-111325000D01*
X135578000Y-111166250D01*
X135578000Y-110117000D01*
X134653750Y-110117000D01*
X134495000Y-110275750D01*
X131582869Y-110275750D01*
X130113821Y-108911754D01*
X126287911Y-104967845D01*
X126182422Y-104850750D01*
X127610000Y-104850750D01*
X127610000Y-105216309D01*
X127706673Y-105449698D01*
X127885301Y-105628327D01*
X128118690Y-105725000D01*
X128434250Y-105725000D01*
X128593000Y-105566250D01*
X128593000Y-104692000D01*
X128847000Y-104692000D01*
X128847000Y-105566250D01*
X129005750Y-105725000D01*
X129321310Y-105725000D01*
X129554699Y-105628327D01*
X129733327Y-105449698D01*
X129830000Y-105216309D01*
X129830000Y-104850750D01*
X129671250Y-104692000D01*
X128847000Y-104692000D01*
X128593000Y-104692000D01*
X127768750Y-104692000D01*
X127610000Y-104850750D01*
X126182422Y-104850750D01*
X122535748Y-100802890D01*
X122347581Y-100575750D01*
X126365000Y-100575750D01*
X126365000Y-100941309D01*
X126461673Y-101174698D01*
X126640301Y-101353327D01*
X126873690Y-101450000D01*
X127189250Y-101450000D01*
X127348000Y-101291250D01*
X127348000Y-100417000D01*
X126523750Y-100417000D01*
X126365000Y-100575750D01*
X122347581Y-100575750D01*
X115997722Y-92910720D01*
X114746349Y-91201403D01*
X119197822Y-91201403D01*
X119197822Y-91741963D01*
X119294495Y-91975352D01*
X119473124Y-92153980D01*
X119706513Y-92250653D01*
X120122072Y-92250653D01*
X120280822Y-92091903D01*
X120280822Y-91042653D01*
X119356572Y-91042653D01*
X119197822Y-91201403D01*
X114746349Y-91201403D01*
X112903476Y-88684126D01*
X118695000Y-88684126D01*
X118695000Y-89095874D01*
X118852569Y-89476280D01*
X119143720Y-89767431D01*
X119312929Y-89837520D01*
X119294495Y-89855954D01*
X119197822Y-90089343D01*
X119197822Y-90629903D01*
X119356572Y-90788653D01*
X120280822Y-90788653D01*
X120280822Y-90768653D01*
X120534822Y-90768653D01*
X120534822Y-90788653D01*
X120554822Y-90788653D01*
X120554822Y-91042653D01*
X120534822Y-91042653D01*
X120534822Y-92091903D01*
X120693572Y-92250653D01*
X121109131Y-92250653D01*
X121342520Y-92153980D01*
X121497445Y-91999056D01*
X121498236Y-92000239D01*
X121789386Y-92194780D01*
X122132821Y-92263093D01*
X122782823Y-92263093D01*
X123126258Y-92194780D01*
X123417408Y-92000239D01*
X123611949Y-91709089D01*
X123680262Y-91365654D01*
X123680262Y-90465652D01*
X123611949Y-90122217D01*
X123417408Y-89831067D01*
X123126258Y-89636526D01*
X122782823Y-89568213D01*
X122185184Y-89568213D01*
X121022500Y-88405530D01*
X120980098Y-88342071D01*
X120728706Y-88174096D01*
X120507021Y-88130000D01*
X120507016Y-88130000D01*
X120432169Y-88115112D01*
X120421037Y-88117326D01*
X120316280Y-88012569D01*
X119935874Y-87855000D01*
X119524126Y-87855000D01*
X119143720Y-88012569D01*
X118852569Y-88303720D01*
X118695000Y-88684126D01*
X112903476Y-88684126D01*
X112026931Y-87486808D01*
X111054528Y-85792740D01*
X110598505Y-84801403D01*
X114397822Y-84801403D01*
X114397822Y-85341963D01*
X114494495Y-85575352D01*
X114673124Y-85753980D01*
X114906513Y-85850653D01*
X115322072Y-85850653D01*
X115480822Y-85691903D01*
X115480822Y-84642653D01*
X114556572Y-84642653D01*
X114397822Y-84801403D01*
X110598505Y-84801403D01*
X110274788Y-84097685D01*
X110128520Y-83689343D01*
X114397822Y-83689343D01*
X114397822Y-84229903D01*
X114556572Y-84388653D01*
X115480822Y-84388653D01*
X115480822Y-84368653D01*
X115734822Y-84368653D01*
X115734822Y-84388653D01*
X115754822Y-84388653D01*
X115754822Y-84642653D01*
X115734822Y-84642653D01*
X115734822Y-85691903D01*
X115893572Y-85850653D01*
X116309131Y-85850653D01*
X116542520Y-85753980D01*
X116697445Y-85599056D01*
X116698236Y-85600239D01*
X116989386Y-85794780D01*
X117332821Y-85863093D01*
X117982823Y-85863093D01*
X118326258Y-85794780D01*
X118617408Y-85600239D01*
X118811949Y-85309089D01*
X118880262Y-84965654D01*
X118880262Y-84065652D01*
X118811949Y-83722217D01*
X118617408Y-83431067D01*
X118326258Y-83236526D01*
X117982823Y-83168213D01*
X117385184Y-83168213D01*
X116565000Y-82348030D01*
X116565000Y-82284126D01*
X116407431Y-81903720D01*
X116116280Y-81612569D01*
X115735874Y-81455000D01*
X115324126Y-81455000D01*
X114943720Y-81612569D01*
X114652569Y-81903720D01*
X114495000Y-82284126D01*
X114495000Y-82695874D01*
X114652569Y-83076280D01*
X114800750Y-83224461D01*
X114673124Y-83277326D01*
X114494495Y-83455954D01*
X114397822Y-83689343D01*
X110128520Y-83689343D01*
X109670042Y-82409396D01*
X109386046Y-81350000D01*
X124797560Y-81350000D01*
X124797560Y-82150000D01*
X124846843Y-82397765D01*
X124987191Y-82607809D01*
X125197235Y-82748157D01*
X125445000Y-82797440D01*
X126345000Y-82797440D01*
X126592765Y-82748157D01*
X126797560Y-82611316D01*
X126797560Y-83100000D01*
X126846843Y-83347765D01*
X126987191Y-83557809D01*
X127162578Y-83675000D01*
X126987191Y-83792191D01*
X126846843Y-84002235D01*
X126797560Y-84250000D01*
X126797560Y-84738684D01*
X126592765Y-84601843D01*
X126345000Y-84552560D01*
X125445000Y-84552560D01*
X125197235Y-84601843D01*
X124987191Y-84742191D01*
X124846843Y-84952235D01*
X124797560Y-85200000D01*
X124797560Y-86000000D01*
X124846843Y-86247765D01*
X124987191Y-86457809D01*
X125197235Y-86598157D01*
X125445000Y-86647440D01*
X126345000Y-86647440D01*
X126592765Y-86598157D01*
X126797560Y-86461316D01*
X126797560Y-86950000D01*
X126846843Y-87197765D01*
X126987191Y-87407809D01*
X126990988Y-87410346D01*
X126814922Y-87673848D01*
X126747560Y-88012500D01*
X126747560Y-88487500D01*
X126814922Y-88826152D01*
X127006753Y-89113247D01*
X127293848Y-89305078D01*
X127331776Y-89312622D01*
X127372072Y-89372929D01*
X127435528Y-89415329D01*
X130664671Y-92644473D01*
X130707071Y-92707929D01*
X130958463Y-92875904D01*
X131079601Y-92900000D01*
X129754846Y-92900000D01*
X129679999Y-92885112D01*
X129605152Y-92900000D01*
X129605148Y-92900000D01*
X129580011Y-92905000D01*
X128674846Y-92905000D01*
X128599999Y-92890112D01*
X128525152Y-92905000D01*
X128525148Y-92905000D01*
X128303463Y-92949096D01*
X128052071Y-93117071D01*
X128009671Y-93180527D01*
X127572638Y-93617560D01*
X127237500Y-93617560D01*
X126898848Y-93684922D01*
X126611753Y-93876753D01*
X126419922Y-94163848D01*
X126352560Y-94502500D01*
X126352560Y-95077500D01*
X126419922Y-95416152D01*
X126586197Y-95665000D01*
X126419922Y-95913848D01*
X126352560Y-96252500D01*
X126352560Y-96827500D01*
X126419922Y-97166152D01*
X126611753Y-97453247D01*
X126715000Y-97522235D01*
X126715001Y-97557765D01*
X126611753Y-97626753D01*
X126419922Y-97913848D01*
X126352560Y-98252500D01*
X126352560Y-98827500D01*
X126419922Y-99166152D01*
X126532435Y-99334540D01*
X126461673Y-99405302D01*
X126365000Y-99638691D01*
X126365000Y-100004250D01*
X126523750Y-100163000D01*
X127348000Y-100163000D01*
X127348000Y-100143000D01*
X127602000Y-100143000D01*
X127602000Y-100163000D01*
X127622000Y-100163000D01*
X127622000Y-100417000D01*
X127602000Y-100417000D01*
X127602000Y-101291250D01*
X127760750Y-101450000D01*
X127940000Y-101450000D01*
X127940000Y-101846129D01*
X127856753Y-101901753D01*
X127664922Y-102188848D01*
X127597560Y-102527500D01*
X127597560Y-103102500D01*
X127664922Y-103441152D01*
X127777435Y-103609540D01*
X127706673Y-103680302D01*
X127610000Y-103913691D01*
X127610000Y-104279250D01*
X127768750Y-104438000D01*
X128593000Y-104438000D01*
X128593000Y-104418000D01*
X128847000Y-104418000D01*
X128847000Y-104438000D01*
X129671250Y-104438000D01*
X129830000Y-104279250D01*
X129830000Y-104200000D01*
X130956289Y-104200000D01*
X131063720Y-104307431D01*
X131389628Y-104442426D01*
X131123720Y-104552569D01*
X130832569Y-104843720D01*
X130675000Y-105224126D01*
X130675000Y-105635874D01*
X130832569Y-106016280D01*
X131123720Y-106307431D01*
X131504126Y-106465000D01*
X131650199Y-106465000D01*
X133909682Y-108724484D01*
X133952082Y-108787940D01*
X134203474Y-108955915D01*
X134425159Y-109000011D01*
X134425163Y-109000011D01*
X134500011Y-109014899D01*
X134561715Y-109002625D01*
X134495000Y-109163690D01*
X134495000Y-109704250D01*
X134653750Y-109863000D01*
X135578000Y-109863000D01*
X135578000Y-109843000D01*
X135832000Y-109843000D01*
X135832000Y-109863000D01*
X135852000Y-109863000D01*
X135852000Y-110117000D01*
X135832000Y-110117000D01*
X135832000Y-111166250D01*
X135990750Y-111325000D01*
X136406309Y-111325000D01*
X136639698Y-111228327D01*
X136794623Y-111073403D01*
X136795414Y-111074586D01*
X137086564Y-111269127D01*
X137429999Y-111337440D01*
X138080001Y-111337440D01*
X138423436Y-111269127D01*
X138714586Y-111074586D01*
X138850991Y-110870443D01*
X139224126Y-111025000D01*
X139635874Y-111025000D01*
X140016280Y-110867431D01*
X140307431Y-110576280D01*
X140465000Y-110195874D01*
X140465000Y-109784126D01*
X140307431Y-109403720D01*
X140016280Y-109112569D01*
X139635874Y-108955000D01*
X139224126Y-108955000D01*
X138850991Y-109109557D01*
X138714586Y-108905414D01*
X138423436Y-108710873D01*
X138080001Y-108642560D01*
X137952241Y-108642560D01*
X148166040Y-98428763D01*
X148941751Y-98428763D01*
X149016598Y-98443651D01*
X149091445Y-98428763D01*
X149091450Y-98428763D01*
X149313135Y-98384667D01*
X149499852Y-98259906D01*
X149720341Y-98303764D01*
X150012853Y-98303764D01*
X150446015Y-98217603D01*
X150937222Y-97889389D01*
X151265436Y-97398182D01*
X151380689Y-96818764D01*
X151286404Y-96344761D01*
X151353022Y-96358012D01*
X151645534Y-96358012D01*
X152078696Y-96271851D01*
X152569903Y-95943637D01*
X152898117Y-95452430D01*
X153013370Y-94873012D01*
X152919085Y-94399008D01*
X152985702Y-94412259D01*
X153278214Y-94412259D01*
X153711376Y-94326098D01*
X154202583Y-93997884D01*
X154530797Y-93506677D01*
X154646050Y-92927259D01*
X154547270Y-92430657D01*
X154671550Y-92463595D01*
X155245806Y-92386402D01*
X155639469Y-92181463D01*
X155694302Y-91927373D01*
X154780293Y-91160428D01*
X154767437Y-91175749D01*
X154572862Y-91012480D01*
X154585717Y-90997160D01*
X153671708Y-90230214D01*
X153431000Y-90328337D01*
X153297533Y-90751606D01*
X153321231Y-91330543D01*
X153382566Y-91463016D01*
X153278214Y-91442259D01*
X152985702Y-91442259D01*
X152552540Y-91528420D01*
X152061333Y-91856634D01*
X151853780Y-92167259D01*
X150367589Y-92167259D01*
X150292741Y-92152371D01*
X150217893Y-92167259D01*
X150217889Y-92167259D01*
X150044346Y-92201779D01*
X149996203Y-92211355D01*
X149858355Y-92303463D01*
X149744812Y-92379330D01*
X149702412Y-92442786D01*
X142990199Y-99155000D01*
X142824126Y-99155000D01*
X142443720Y-99312569D01*
X142152569Y-99603720D01*
X141995000Y-99984126D01*
X141995000Y-100395874D01*
X142152569Y-100776280D01*
X142443720Y-101067431D01*
X142467795Y-101077403D01*
X138855000Y-104690199D01*
X138855000Y-104648690D01*
X138758327Y-104415301D01*
X138718026Y-104375000D01*
X138758327Y-104334699D01*
X138855000Y-104101310D01*
X138855000Y-103785750D01*
X138696250Y-103627000D01*
X137822000Y-103627000D01*
X137822000Y-105123000D01*
X137842000Y-105123000D01*
X137842000Y-105377000D01*
X137822000Y-105377000D01*
X137822000Y-105397000D01*
X137568000Y-105397000D01*
X137568000Y-105377000D01*
X137548000Y-105377000D01*
X137548000Y-105123000D01*
X137568000Y-105123000D01*
X137568000Y-103627000D01*
X137548000Y-103627000D01*
X137548000Y-103373000D01*
X137568000Y-103373000D01*
X137568000Y-103353000D01*
X137822000Y-103353000D01*
X137822000Y-103373000D01*
X138696250Y-103373000D01*
X138855000Y-103214250D01*
X138855000Y-102898690D01*
X138758327Y-102665301D01*
X138596052Y-102503026D01*
X138787798Y-102311280D01*
X138945367Y-101930874D01*
X138945367Y-101519126D01*
X138787798Y-101138720D01*
X138633940Y-100984862D01*
X138780078Y-100766152D01*
X138847440Y-100427500D01*
X138847440Y-99952500D01*
X138780078Y-99613848D01*
X138588247Y-99326753D01*
X138460000Y-99241061D01*
X138460000Y-99138939D01*
X138588247Y-99053247D01*
X138759420Y-98797069D01*
X138847929Y-98737929D01*
X138890331Y-98674471D01*
X139020545Y-98544256D01*
X139243720Y-98767431D01*
X139624126Y-98925000D01*
X140035874Y-98925000D01*
X140416280Y-98767431D01*
X140533711Y-98650000D01*
X140555153Y-98650000D01*
X140630000Y-98664888D01*
X140704847Y-98650000D01*
X140704852Y-98650000D01*
X140926537Y-98605904D01*
X141177929Y-98437929D01*
X141220331Y-98374470D01*
X149799049Y-89795753D01*
X153886744Y-89795753D01*
X153834976Y-90035639D01*
X154748985Y-90802584D01*
X154761841Y-90787263D01*
X154956416Y-90950532D01*
X154943561Y-90965852D01*
X155857570Y-91732798D01*
X156098278Y-91634675D01*
X156231745Y-91211406D01*
X156208047Y-90632469D01*
X156146713Y-90499996D01*
X156251063Y-90520753D01*
X156543575Y-90520753D01*
X156976737Y-90434592D01*
X157467944Y-90106378D01*
X157796158Y-89615171D01*
X157911411Y-89035753D01*
X157878701Y-88871308D01*
X157940079Y-88904981D01*
X158191196Y-88932483D01*
X158433722Y-88861793D01*
X158630736Y-88703674D01*
X159723475Y-87401399D01*
X159844981Y-87179921D01*
X159872483Y-86928804D01*
X159801793Y-86686278D01*
X159643674Y-86489264D01*
X158341399Y-85396525D01*
X158119921Y-85275019D01*
X157868804Y-85247517D01*
X157626278Y-85318207D01*
X157429264Y-85476326D01*
X156712946Y-86330000D01*
X150324846Y-86330000D01*
X150249999Y-86315112D01*
X150175152Y-86330000D01*
X150175148Y-86330000D01*
X149953463Y-86374096D01*
X149702071Y-86542071D01*
X149659671Y-86605527D01*
X142555199Y-93710000D01*
X141843711Y-93710000D01*
X141967431Y-93586280D01*
X142125000Y-93205874D01*
X142125000Y-92794126D01*
X141967431Y-92413720D01*
X141676280Y-92122569D01*
X141295874Y-91965000D01*
X141107618Y-91965000D01*
X140986538Y-91884097D01*
X140764853Y-91840001D01*
X140764848Y-91840001D01*
X140690001Y-91825113D01*
X140615154Y-91840001D01*
X139504803Y-91840001D01*
X138080002Y-90415201D01*
X138080002Y-82723711D01*
X138197433Y-82606280D01*
X138355002Y-82225874D01*
X138355002Y-81814126D01*
X138197433Y-81433720D01*
X137906282Y-81142569D01*
X137646587Y-81035000D01*
X137765874Y-81035000D01*
X138146280Y-80877431D01*
X138437431Y-80586280D01*
X138535300Y-80350002D01*
X140201289Y-80350002D01*
X140318720Y-80467433D01*
X140699126Y-80625002D01*
X141110874Y-80625002D01*
X141491280Y-80467433D01*
X141782431Y-80176282D01*
X141940000Y-79795876D01*
X141940000Y-79384128D01*
X141782431Y-79003722D01*
X141491280Y-78712571D01*
X141110874Y-78555002D01*
X140767010Y-78555002D01*
X140779940Y-78490000D01*
X140779940Y-76490000D01*
X140730657Y-76242235D01*
X140590309Y-76032191D01*
X140380265Y-75891843D01*
X140132500Y-75842560D01*
X138265000Y-75842560D01*
X138265000Y-75425000D01*
X144630000Y-75425000D01*
X144873004Y-75376664D01*
X145079013Y-75239013D01*
X145085443Y-75229390D01*
X145087809Y-75227809D01*
X145228157Y-75017765D01*
X145277440Y-74770000D01*
X145277440Y-71770000D01*
X145228157Y-71522235D01*
X145087809Y-71312191D01*
X144877765Y-71171843D01*
X144630000Y-71122560D01*
X141630000Y-71122560D01*
X141466911Y-71155000D01*
X135730000Y-71155000D01*
X135486996Y-71203336D01*
X135380000Y-71274829D01*
X135273004Y-71203336D01*
X135030000Y-71155000D01*
X131792541Y-71155000D01*
X131730000Y-71142560D01*
X128730000Y-71142560D01*
X128482235Y-71191843D01*
X128272191Y-71332191D01*
X128131843Y-71542235D01*
X128082560Y-71790000D01*
X128082560Y-74362638D01*
X125410528Y-77034671D01*
X125347072Y-77077071D01*
X125304672Y-77140527D01*
X125304671Y-77140528D01*
X125179097Y-77328463D01*
X125120112Y-77625000D01*
X125135001Y-77699852D01*
X125135000Y-80793427D01*
X124987191Y-80892191D01*
X124846843Y-81102235D01*
X124797560Y-81350000D01*
X109386046Y-81350000D01*
X109222620Y-80740370D01*
X108702833Y-77399469D01*
X108565526Y-74142641D01*
X108639765Y-72580323D01*
X108859432Y-71046616D01*
X109178476Y-69723970D01*
X128895635Y-69723970D01*
X129055418Y-70042739D01*
X129846187Y-70352723D01*
X130695387Y-70336497D01*
X131404582Y-70042739D01*
X131564365Y-69723970D01*
X131544365Y-69703970D01*
X141795635Y-69703970D01*
X141955418Y-70022739D01*
X142746187Y-70332723D01*
X143595387Y-70316497D01*
X144304582Y-70022739D01*
X144464365Y-69703970D01*
X143130000Y-68369605D01*
X141795635Y-69703970D01*
X131544365Y-69703970D01*
X130230000Y-68389605D01*
X128895635Y-69723970D01*
X109178476Y-69723970D01*
X109220456Y-69549938D01*
X109718631Y-68100755D01*
X109843178Y-67826187D01*
X128087277Y-67826187D01*
X128103503Y-68675387D01*
X128397261Y-69384582D01*
X128716030Y-69544365D01*
X130050395Y-68210000D01*
X130409605Y-68210000D01*
X131743970Y-69544365D01*
X132062739Y-69384582D01*
X132372723Y-68593813D01*
X132357674Y-67806187D01*
X140987277Y-67806187D01*
X141003503Y-68655387D01*
X141297261Y-69364582D01*
X141616030Y-69524365D01*
X142950395Y-68190000D01*
X143309605Y-68190000D01*
X144643970Y-69524365D01*
X144962739Y-69364582D01*
X145272723Y-68573813D01*
X145256497Y-67724613D01*
X144962739Y-67015418D01*
X144643970Y-66855635D01*
X143309605Y-68190000D01*
X142950395Y-68190000D01*
X141616030Y-66855635D01*
X141297261Y-67015418D01*
X140987277Y-67806187D01*
X132357674Y-67806187D01*
X132356497Y-67744613D01*
X132062739Y-67035418D01*
X131743970Y-66875635D01*
X130409605Y-68210000D01*
X130050395Y-68210000D01*
X128716030Y-66875635D01*
X128397261Y-67035418D01*
X128087277Y-67826187D01*
X109843178Y-67826187D01*
X110349719Y-66709501D01*
X110739426Y-66030910D01*
X117668695Y-66030910D01*
X118035640Y-66526343D01*
X119441171Y-67119736D01*
X120966793Y-67130087D01*
X122035142Y-66696030D01*
X128895635Y-66696030D01*
X130230000Y-68030395D01*
X131564365Y-66696030D01*
X131554340Y-66676030D01*
X141795635Y-66676030D01*
X143130000Y-68010395D01*
X144464365Y-66676030D01*
X144304582Y-66357261D01*
X143513813Y-66047277D01*
X142664613Y-66063503D01*
X141955418Y-66357261D01*
X141795635Y-66676030D01*
X131554340Y-66676030D01*
X131404582Y-66377261D01*
X130613813Y-66067277D01*
X129764613Y-66083503D01*
X129055418Y-66377261D01*
X128895635Y-66696030D01*
X122035142Y-66696030D01*
X122380246Y-66555819D01*
X122424360Y-66526343D01*
X122791305Y-66030910D01*
X149568695Y-66030910D01*
X149935640Y-66526343D01*
X151341171Y-67119736D01*
X152866793Y-67130087D01*
X154280246Y-66555819D01*
X154324360Y-66526343D01*
X154691305Y-66030910D01*
X152130000Y-63469605D01*
X149568695Y-66030910D01*
X122791305Y-66030910D01*
X120230000Y-63469605D01*
X117668695Y-66030910D01*
X110739426Y-66030910D01*
X111109444Y-65386604D01*
X111993550Y-64142386D01*
X112094032Y-64026793D01*
X116389913Y-64026793D01*
X116964181Y-65440246D01*
X116993657Y-65484360D01*
X117489090Y-65851305D01*
X120050395Y-63290000D01*
X120409605Y-63290000D01*
X122970910Y-65851305D01*
X123466343Y-65484360D01*
X124059736Y-64078829D01*
X124070087Y-62553207D01*
X123495819Y-61139754D01*
X123466343Y-61095640D01*
X122970910Y-60728695D01*
X120409605Y-63290000D01*
X120050395Y-63290000D01*
X117489090Y-60728695D01*
X116993657Y-61095640D01*
X116400264Y-62501171D01*
X116389913Y-64026793D01*
X112094032Y-64026793D01*
X112997907Y-62986995D01*
X114106296Y-61941172D01*
X115298637Y-61021532D01*
X116056531Y-60549090D01*
X117668695Y-60549090D01*
X120230000Y-63110395D01*
X122791305Y-60549090D01*
X122424360Y-60053657D01*
X121018829Y-59460264D01*
X119493207Y-59449913D01*
X118079754Y-60024181D01*
X118035640Y-60053657D01*
X117668695Y-60549090D01*
X116056531Y-60549090D01*
X116565129Y-60232050D01*
X117895889Y-59576823D01*
X119281003Y-59059986D01*
X120710661Y-58685659D01*
X122175101Y-58457990D01*
X123653344Y-58381743D01*
X125487094Y-58537848D01*
X127202975Y-58981552D01*
X128803857Y-59686864D01*
X130247584Y-60607808D01*
X131186502Y-61608842D01*
X132369028Y-63034645D01*
X133089163Y-63971831D01*
X133105146Y-63998023D01*
X133130159Y-64025184D01*
X133152665Y-64054473D01*
X133175756Y-64074695D01*
X133918128Y-64880809D01*
X133940832Y-64923480D01*
X134009599Y-64980135D01*
X134023375Y-64995093D01*
X134061585Y-65022963D01*
X134098069Y-65053021D01*
X134115976Y-65062636D01*
X134187968Y-65115147D01*
X134234950Y-65126520D01*
X135452220Y-65780133D01*
X135501815Y-65821942D01*
X135571085Y-65843958D01*
X135574533Y-65845809D01*
X135635412Y-65864402D01*
X135695970Y-65883649D01*
X135699852Y-65884083D01*
X135769374Y-65905316D01*
X135833945Y-65899080D01*
X136769448Y-66003705D01*
X136831833Y-66011524D01*
X136836415Y-66011195D01*
X136840975Y-66011705D01*
X136903563Y-66006374D01*
X137924570Y-65933068D01*
X137965355Y-65941456D01*
X138059348Y-65923392D01*
X138086223Y-65921462D01*
X138125467Y-65910684D01*
X138165418Y-65903006D01*
X138190371Y-65892859D01*
X138282675Y-65867509D01*
X138315552Y-65841955D01*
X138807868Y-65641759D01*
X138812151Y-65641735D01*
X138933854Y-65590528D01*
X138992607Y-65566636D01*
X138996090Y-65564341D01*
X138999931Y-65562725D01*
X139052427Y-65527224D01*
X139162728Y-65454552D01*
X139165131Y-65451006D01*
X139652146Y-65121653D01*
X139697143Y-65105865D01*
X139764022Y-65045995D01*
X139781394Y-65034247D01*
X139814181Y-65001093D01*
X139848933Y-64969983D01*
X139861533Y-64953211D01*
X139924645Y-64889392D01*
X139942648Y-64845236D01*
X140557494Y-64026793D01*
X148289913Y-64026793D01*
X148864181Y-65440246D01*
X148893657Y-65484360D01*
X149389090Y-65851305D01*
X151950395Y-63290000D01*
X152309605Y-63290000D01*
X154870910Y-65851305D01*
X155366343Y-65484360D01*
X155959736Y-64078829D01*
X155970087Y-62553207D01*
X155395819Y-61139754D01*
X155366343Y-61095640D01*
X154870910Y-60728695D01*
X152309605Y-63290000D01*
X151950395Y-63290000D01*
X149389090Y-60728695D01*
X148893657Y-61095640D01*
X148300264Y-62501171D01*
X148289913Y-64026793D01*
X140557494Y-64026793D01*
X140560623Y-64022628D01*
X140582556Y-63998937D01*
X140601030Y-63968841D01*
X140622254Y-63940589D01*
X140636245Y-63911472D01*
X141217355Y-62964790D01*
X142209893Y-61563037D01*
X142715717Y-60956899D01*
X143194254Y-60549090D01*
X149568695Y-60549090D01*
X152130000Y-63110395D01*
X154691305Y-60549090D01*
X154324360Y-60053657D01*
X152918829Y-59460264D01*
X151393207Y-59449913D01*
X149979754Y-60024181D01*
X149935640Y-60053657D01*
X149568695Y-60549090D01*
X143194254Y-60549090D01*
X143283922Y-60472675D01*
X144814998Y-59577276D01*
X146466137Y-58891001D01*
X148213920Y-58455002D01*
X150015656Y-58304163D01*
X150054659Y-58311921D01*
X150104676Y-58301972D01*
X151544356Y-58376239D01*
X151544356Y-58376239D01*
G37*
X151544356Y-58376239D02*
X153008795Y-58603916D01*
X154438453Y-58978249D01*
X155823575Y-59495094D01*
X157154320Y-60150319D01*
X158420813Y-60939805D01*
X159613151Y-61859446D01*
X160721541Y-62905273D01*
X161725882Y-64060659D01*
X162609979Y-65304872D01*
X163369698Y-66627772D01*
X164000777Y-68019019D01*
X164498944Y-69468194D01*
X164859962Y-70964852D01*
X165079633Y-72498571D01*
X165153606Y-74055256D01*
X164965914Y-77257331D01*
X164333686Y-80517588D01*
X163148123Y-83915823D01*
X161295496Y-87527557D01*
X159692195Y-89873080D01*
X157210570Y-93054770D01*
X150502874Y-100872730D01*
X142963308Y-108888893D01*
X139440825Y-112323803D01*
X136784607Y-114676746D01*
X133816806Y-112349938D01*
X131582869Y-110275750D01*
X134495000Y-110275750D01*
X134495000Y-110816310D01*
X134591673Y-111049699D01*
X134770302Y-111228327D01*
X135003691Y-111325000D01*
X135419250Y-111325000D01*
X135578000Y-111166250D01*
X135578000Y-110117000D01*
X134653750Y-110117000D01*
X134495000Y-110275750D01*
X131582869Y-110275750D01*
X130113821Y-108911754D01*
X126287911Y-104967845D01*
X126182422Y-104850750D01*
X127610000Y-104850750D01*
X127610000Y-105216309D01*
X127706673Y-105449698D01*
X127885301Y-105628327D01*
X128118690Y-105725000D01*
X128434250Y-105725000D01*
X128593000Y-105566250D01*
X128593000Y-104692000D01*
X128847000Y-104692000D01*
X128847000Y-105566250D01*
X129005750Y-105725000D01*
X129321310Y-105725000D01*
X129554699Y-105628327D01*
X129733327Y-105449698D01*
X129830000Y-105216309D01*
X129830000Y-104850750D01*
X129671250Y-104692000D01*
X128847000Y-104692000D01*
X128593000Y-104692000D01*
X127768750Y-104692000D01*
X127610000Y-104850750D01*
X126182422Y-104850750D01*
X122535748Y-100802890D01*
X122347581Y-100575750D01*
X126365000Y-100575750D01*
X126365000Y-100941309D01*
X126461673Y-101174698D01*
X126640301Y-101353327D01*
X126873690Y-101450000D01*
X127189250Y-101450000D01*
X127348000Y-101291250D01*
X127348000Y-100417000D01*
X126523750Y-100417000D01*
X126365000Y-100575750D01*
X122347581Y-100575750D01*
X115997722Y-92910720D01*
X114746349Y-91201403D01*
X119197822Y-91201403D01*
X119197822Y-91741963D01*
X119294495Y-91975352D01*
X119473124Y-92153980D01*
X119706513Y-92250653D01*
X120122072Y-92250653D01*
X120280822Y-92091903D01*
X120280822Y-91042653D01*
X119356572Y-91042653D01*
X119197822Y-91201403D01*
X114746349Y-91201403D01*
X112903476Y-88684126D01*
X118695000Y-88684126D01*
X118695000Y-89095874D01*
X118852569Y-89476280D01*
X119143720Y-89767431D01*
X119312929Y-89837520D01*
X119294495Y-89855954D01*
X119197822Y-90089343D01*
X119197822Y-90629903D01*
X119356572Y-90788653D01*
X120280822Y-90788653D01*
X120280822Y-90768653D01*
X120534822Y-90768653D01*
X120534822Y-90788653D01*
X120554822Y-90788653D01*
X120554822Y-91042653D01*
X120534822Y-91042653D01*
X120534822Y-92091903D01*
X120693572Y-92250653D01*
X121109131Y-92250653D01*
X121342520Y-92153980D01*
X121497445Y-91999056D01*
X121498236Y-92000239D01*
X121789386Y-92194780D01*
X122132821Y-92263093D01*
X122782823Y-92263093D01*
X123126258Y-92194780D01*
X123417408Y-92000239D01*
X123611949Y-91709089D01*
X123680262Y-91365654D01*
X123680262Y-90465652D01*
X123611949Y-90122217D01*
X123417408Y-89831067D01*
X123126258Y-89636526D01*
X122782823Y-89568213D01*
X122185184Y-89568213D01*
X121022500Y-88405530D01*
X120980098Y-88342071D01*
X120728706Y-88174096D01*
X120507021Y-88130000D01*
X120507016Y-88130000D01*
X120432169Y-88115112D01*
X120421037Y-88117326D01*
X120316280Y-88012569D01*
X119935874Y-87855000D01*
X119524126Y-87855000D01*
X119143720Y-88012569D01*
X118852569Y-88303720D01*
X118695000Y-88684126D01*
X112903476Y-88684126D01*
X112026931Y-87486808D01*
X111054528Y-85792740D01*
X110598505Y-84801403D01*
X114397822Y-84801403D01*
X114397822Y-85341963D01*
X114494495Y-85575352D01*
X114673124Y-85753980D01*
X114906513Y-85850653D01*
X115322072Y-85850653D01*
X115480822Y-85691903D01*
X115480822Y-84642653D01*
X114556572Y-84642653D01*
X114397822Y-84801403D01*
X110598505Y-84801403D01*
X110274788Y-84097685D01*
X110128520Y-83689343D01*
X114397822Y-83689343D01*
X114397822Y-84229903D01*
X114556572Y-84388653D01*
X115480822Y-84388653D01*
X115480822Y-84368653D01*
X115734822Y-84368653D01*
X115734822Y-84388653D01*
X115754822Y-84388653D01*
X115754822Y-84642653D01*
X115734822Y-84642653D01*
X115734822Y-85691903D01*
X115893572Y-85850653D01*
X116309131Y-85850653D01*
X116542520Y-85753980D01*
X116697445Y-85599056D01*
X116698236Y-85600239D01*
X116989386Y-85794780D01*
X117332821Y-85863093D01*
X117982823Y-85863093D01*
X118326258Y-85794780D01*
X118617408Y-85600239D01*
X118811949Y-85309089D01*
X118880262Y-84965654D01*
X118880262Y-84065652D01*
X118811949Y-83722217D01*
X118617408Y-83431067D01*
X118326258Y-83236526D01*
X117982823Y-83168213D01*
X117385184Y-83168213D01*
X116565000Y-82348030D01*
X116565000Y-82284126D01*
X116407431Y-81903720D01*
X116116280Y-81612569D01*
X115735874Y-81455000D01*
X115324126Y-81455000D01*
X114943720Y-81612569D01*
X114652569Y-81903720D01*
X114495000Y-82284126D01*
X114495000Y-82695874D01*
X114652569Y-83076280D01*
X114800750Y-83224461D01*
X114673124Y-83277326D01*
X114494495Y-83455954D01*
X114397822Y-83689343D01*
X110128520Y-83689343D01*
X109670042Y-82409396D01*
X109386046Y-81350000D01*
X124797560Y-81350000D01*
X124797560Y-82150000D01*
X124846843Y-82397765D01*
X124987191Y-82607809D01*
X125197235Y-82748157D01*
X125445000Y-82797440D01*
X126345000Y-82797440D01*
X126592765Y-82748157D01*
X126797560Y-82611316D01*
X126797560Y-83100000D01*
X126846843Y-83347765D01*
X126987191Y-83557809D01*
X127162578Y-83675000D01*
X126987191Y-83792191D01*
X126846843Y-84002235D01*
X126797560Y-84250000D01*
X126797560Y-84738684D01*
X126592765Y-84601843D01*
X126345000Y-84552560D01*
X125445000Y-84552560D01*
X125197235Y-84601843D01*
X124987191Y-84742191D01*
X124846843Y-84952235D01*
X124797560Y-85200000D01*
X124797560Y-86000000D01*
X124846843Y-86247765D01*
X124987191Y-86457809D01*
X125197235Y-86598157D01*
X125445000Y-86647440D01*
X126345000Y-86647440D01*
X126592765Y-86598157D01*
X126797560Y-86461316D01*
X126797560Y-86950000D01*
X126846843Y-87197765D01*
X126987191Y-87407809D01*
X126990988Y-87410346D01*
X126814922Y-87673848D01*
X126747560Y-88012500D01*
X126747560Y-88487500D01*
X126814922Y-88826152D01*
X127006753Y-89113247D01*
X127293848Y-89305078D01*
X127331776Y-89312622D01*
X127372072Y-89372929D01*
X127435528Y-89415329D01*
X130664671Y-92644473D01*
X130707071Y-92707929D01*
X130958463Y-92875904D01*
X131079601Y-92900000D01*
X129754846Y-92900000D01*
X129679999Y-92885112D01*
X129605152Y-92900000D01*
X129605148Y-92900000D01*
X129580011Y-92905000D01*
X128674846Y-92905000D01*
X128599999Y-92890112D01*
X128525152Y-92905000D01*
X128525148Y-92905000D01*
X128303463Y-92949096D01*
X128052071Y-93117071D01*
X128009671Y-93180527D01*
X127572638Y-93617560D01*
X127237500Y-93617560D01*
X126898848Y-93684922D01*
X126611753Y-93876753D01*
X126419922Y-94163848D01*
X126352560Y-94502500D01*
X126352560Y-95077500D01*
X126419922Y-95416152D01*
X126586197Y-95665000D01*
X126419922Y-95913848D01*
X126352560Y-96252500D01*
X126352560Y-96827500D01*
X126419922Y-97166152D01*
X126611753Y-97453247D01*
X126715000Y-97522235D01*
X126715001Y-97557765D01*
X126611753Y-97626753D01*
X126419922Y-97913848D01*
X126352560Y-98252500D01*
X126352560Y-98827500D01*
X126419922Y-99166152D01*
X126532435Y-99334540D01*
X126461673Y-99405302D01*
X126365000Y-99638691D01*
X126365000Y-100004250D01*
X126523750Y-100163000D01*
X127348000Y-100163000D01*
X127348000Y-100143000D01*
X127602000Y-100143000D01*
X127602000Y-100163000D01*
X127622000Y-100163000D01*
X127622000Y-100417000D01*
X127602000Y-100417000D01*
X127602000Y-101291250D01*
X127760750Y-101450000D01*
X127940000Y-101450000D01*
X127940000Y-101846129D01*
X127856753Y-101901753D01*
X127664922Y-102188848D01*
X127597560Y-102527500D01*
X127597560Y-103102500D01*
X127664922Y-103441152D01*
X127777435Y-103609540D01*
X127706673Y-103680302D01*
X127610000Y-103913691D01*
X127610000Y-104279250D01*
X127768750Y-104438000D01*
X128593000Y-104438000D01*
X128593000Y-104418000D01*
X128847000Y-104418000D01*
X128847000Y-104438000D01*
X129671250Y-104438000D01*
X129830000Y-104279250D01*
X129830000Y-104200000D01*
X130956289Y-104200000D01*
X131063720Y-104307431D01*
X131389628Y-104442426D01*
X131123720Y-104552569D01*
X130832569Y-104843720D01*
X130675000Y-105224126D01*
X130675000Y-105635874D01*
X130832569Y-106016280D01*
X131123720Y-106307431D01*
X131504126Y-106465000D01*
X131650199Y-106465000D01*
X133909682Y-108724484D01*
X133952082Y-108787940D01*
X134203474Y-108955915D01*
X134425159Y-109000011D01*
X134425163Y-109000011D01*
X134500011Y-109014899D01*
X134561715Y-109002625D01*
X134495000Y-109163690D01*
X134495000Y-109704250D01*
X134653750Y-109863000D01*
X135578000Y-109863000D01*
X135578000Y-109843000D01*
X135832000Y-109843000D01*
X135832000Y-109863000D01*
X135852000Y-109863000D01*
X135852000Y-110117000D01*
X135832000Y-110117000D01*
X135832000Y-111166250D01*
X135990750Y-111325000D01*
X136406309Y-111325000D01*
X136639698Y-111228327D01*
X136794623Y-111073403D01*
X136795414Y-111074586D01*
X137086564Y-111269127D01*
X137429999Y-111337440D01*
X138080001Y-111337440D01*
X138423436Y-111269127D01*
X138714586Y-111074586D01*
X138850991Y-110870443D01*
X139224126Y-111025000D01*
X139635874Y-111025000D01*
X140016280Y-110867431D01*
X140307431Y-110576280D01*
X140465000Y-110195874D01*
X140465000Y-109784126D01*
X140307431Y-109403720D01*
X140016280Y-109112569D01*
X139635874Y-108955000D01*
X139224126Y-108955000D01*
X138850991Y-109109557D01*
X138714586Y-108905414D01*
X138423436Y-108710873D01*
X138080001Y-108642560D01*
X137952241Y-108642560D01*
X148166040Y-98428763D01*
X148941751Y-98428763D01*
X149016598Y-98443651D01*
X149091445Y-98428763D01*
X149091450Y-98428763D01*
X149313135Y-98384667D01*
X149499852Y-98259906D01*
X149720341Y-98303764D01*
X150012853Y-98303764D01*
X150446015Y-98217603D01*
X150937222Y-97889389D01*
X151265436Y-97398182D01*
X151380689Y-96818764D01*
X151286404Y-96344761D01*
X151353022Y-96358012D01*
X151645534Y-96358012D01*
X152078696Y-96271851D01*
X152569903Y-95943637D01*
X152898117Y-95452430D01*
X153013370Y-94873012D01*
X152919085Y-94399008D01*
X152985702Y-94412259D01*
X153278214Y-94412259D01*
X153711376Y-94326098D01*
X154202583Y-93997884D01*
X154530797Y-93506677D01*
X154646050Y-92927259D01*
X154547270Y-92430657D01*
X154671550Y-92463595D01*
X155245806Y-92386402D01*
X155639469Y-92181463D01*
X155694302Y-91927373D01*
X154780293Y-91160428D01*
X154767437Y-91175749D01*
X154572862Y-91012480D01*
X154585717Y-90997160D01*
X153671708Y-90230214D01*
X153431000Y-90328337D01*
X153297533Y-90751606D01*
X153321231Y-91330543D01*
X153382566Y-91463016D01*
X153278214Y-91442259D01*
X152985702Y-91442259D01*
X152552540Y-91528420D01*
X152061333Y-91856634D01*
X151853780Y-92167259D01*
X150367589Y-92167259D01*
X150292741Y-92152371D01*
X150217893Y-92167259D01*
X150217889Y-92167259D01*
X150044346Y-92201779D01*
X149996203Y-92211355D01*
X149858355Y-92303463D01*
X149744812Y-92379330D01*
X149702412Y-92442786D01*
X142990199Y-99155000D01*
X142824126Y-99155000D01*
X142443720Y-99312569D01*
X142152569Y-99603720D01*
X141995000Y-99984126D01*
X141995000Y-100395874D01*
X142152569Y-100776280D01*
X142443720Y-101067431D01*
X142467795Y-101077403D01*
X138855000Y-104690199D01*
X138855000Y-104648690D01*
X138758327Y-104415301D01*
X138718026Y-104375000D01*
X138758327Y-104334699D01*
X138855000Y-104101310D01*
X138855000Y-103785750D01*
X138696250Y-103627000D01*
X137822000Y-103627000D01*
X137822000Y-105123000D01*
X137842000Y-105123000D01*
X137842000Y-105377000D01*
X137822000Y-105377000D01*
X137822000Y-105397000D01*
X137568000Y-105397000D01*
X137568000Y-105377000D01*
X137548000Y-105377000D01*
X137548000Y-105123000D01*
X137568000Y-105123000D01*
X137568000Y-103627000D01*
X137548000Y-103627000D01*
X137548000Y-103373000D01*
X137568000Y-103373000D01*
X137568000Y-103353000D01*
X137822000Y-103353000D01*
X137822000Y-103373000D01*
X138696250Y-103373000D01*
X138855000Y-103214250D01*
X138855000Y-102898690D01*
X138758327Y-102665301D01*
X138596052Y-102503026D01*
X138787798Y-102311280D01*
X138945367Y-101930874D01*
X138945367Y-101519126D01*
X138787798Y-101138720D01*
X138633940Y-100984862D01*
X138780078Y-100766152D01*
X138847440Y-100427500D01*
X138847440Y-99952500D01*
X138780078Y-99613848D01*
X138588247Y-99326753D01*
X138460000Y-99241061D01*
X138460000Y-99138939D01*
X138588247Y-99053247D01*
X138759420Y-98797069D01*
X138847929Y-98737929D01*
X138890331Y-98674471D01*
X139020545Y-98544256D01*
X139243720Y-98767431D01*
X139624126Y-98925000D01*
X140035874Y-98925000D01*
X140416280Y-98767431D01*
X140533711Y-98650000D01*
X140555153Y-98650000D01*
X140630000Y-98664888D01*
X140704847Y-98650000D01*
X140704852Y-98650000D01*
X140926537Y-98605904D01*
X141177929Y-98437929D01*
X141220331Y-98374470D01*
X149799049Y-89795753D01*
X153886744Y-89795753D01*
X153834976Y-90035639D01*
X154748985Y-90802584D01*
X154761841Y-90787263D01*
X154956416Y-90950532D01*
X154943561Y-90965852D01*
X155857570Y-91732798D01*
X156098278Y-91634675D01*
X156231745Y-91211406D01*
X156208047Y-90632469D01*
X156146713Y-90499996D01*
X156251063Y-90520753D01*
X156543575Y-90520753D01*
X156976737Y-90434592D01*
X157467944Y-90106378D01*
X157796158Y-89615171D01*
X157911411Y-89035753D01*
X157878701Y-88871308D01*
X157940079Y-88904981D01*
X158191196Y-88932483D01*
X158433722Y-88861793D01*
X158630736Y-88703674D01*
X159723475Y-87401399D01*
X159844981Y-87179921D01*
X159872483Y-86928804D01*
X159801793Y-86686278D01*
X159643674Y-86489264D01*
X158341399Y-85396525D01*
X158119921Y-85275019D01*
X157868804Y-85247517D01*
X157626278Y-85318207D01*
X157429264Y-85476326D01*
X156712946Y-86330000D01*
X150324846Y-86330000D01*
X150249999Y-86315112D01*
X150175152Y-86330000D01*
X150175148Y-86330000D01*
X149953463Y-86374096D01*
X149702071Y-86542071D01*
X149659671Y-86605527D01*
X142555199Y-93710000D01*
X141843711Y-93710000D01*
X141967431Y-93586280D01*
X142125000Y-93205874D01*
X142125000Y-92794126D01*
X141967431Y-92413720D01*
X141676280Y-92122569D01*
X141295874Y-91965000D01*
X141107618Y-91965000D01*
X140986538Y-91884097D01*
X140764853Y-91840001D01*
X140764848Y-91840001D01*
X140690001Y-91825113D01*
X140615154Y-91840001D01*
X139504803Y-91840001D01*
X138080002Y-90415201D01*
X138080002Y-82723711D01*
X138197433Y-82606280D01*
X138355002Y-82225874D01*
X138355002Y-81814126D01*
X138197433Y-81433720D01*
X137906282Y-81142569D01*
X137646587Y-81035000D01*
X137765874Y-81035000D01*
X138146280Y-80877431D01*
X138437431Y-80586280D01*
X138535300Y-80350002D01*
X140201289Y-80350002D01*
X140318720Y-80467433D01*
X140699126Y-80625002D01*
X141110874Y-80625002D01*
X141491280Y-80467433D01*
X141782431Y-80176282D01*
X141940000Y-79795876D01*
X141940000Y-79384128D01*
X141782431Y-79003722D01*
X141491280Y-78712571D01*
X141110874Y-78555002D01*
X140767010Y-78555002D01*
X140779940Y-78490000D01*
X140779940Y-76490000D01*
X140730657Y-76242235D01*
X140590309Y-76032191D01*
X140380265Y-75891843D01*
X140132500Y-75842560D01*
X138265000Y-75842560D01*
X138265000Y-75425000D01*
X144630000Y-75425000D01*
X144873004Y-75376664D01*
X145079013Y-75239013D01*
X145085443Y-75229390D01*
X145087809Y-75227809D01*
X145228157Y-75017765D01*
X145277440Y-74770000D01*
X145277440Y-71770000D01*
X145228157Y-71522235D01*
X145087809Y-71312191D01*
X144877765Y-71171843D01*
X144630000Y-71122560D01*
X141630000Y-71122560D01*
X141466911Y-71155000D01*
X135730000Y-71155000D01*
X135486996Y-71203336D01*
X135380000Y-71274829D01*
X135273004Y-71203336D01*
X135030000Y-71155000D01*
X131792541Y-71155000D01*
X131730000Y-71142560D01*
X128730000Y-71142560D01*
X128482235Y-71191843D01*
X128272191Y-71332191D01*
X128131843Y-71542235D01*
X128082560Y-71790000D01*
X128082560Y-74362638D01*
X125410528Y-77034671D01*
X125347072Y-77077071D01*
X125304672Y-77140527D01*
X125304671Y-77140528D01*
X125179097Y-77328463D01*
X125120112Y-77625000D01*
X125135001Y-77699852D01*
X125135000Y-80793427D01*
X124987191Y-80892191D01*
X124846843Y-81102235D01*
X124797560Y-81350000D01*
X109386046Y-81350000D01*
X109222620Y-80740370D01*
X108702833Y-77399469D01*
X108565526Y-74142641D01*
X108639765Y-72580323D01*
X108859432Y-71046616D01*
X109178476Y-69723970D01*
X128895635Y-69723970D01*
X129055418Y-70042739D01*
X129846187Y-70352723D01*
X130695387Y-70336497D01*
X131404582Y-70042739D01*
X131564365Y-69723970D01*
X131544365Y-69703970D01*
X141795635Y-69703970D01*
X141955418Y-70022739D01*
X142746187Y-70332723D01*
X143595387Y-70316497D01*
X144304582Y-70022739D01*
X144464365Y-69703970D01*
X143130000Y-68369605D01*
X141795635Y-69703970D01*
X131544365Y-69703970D01*
X130230000Y-68389605D01*
X128895635Y-69723970D01*
X109178476Y-69723970D01*
X109220456Y-69549938D01*
X109718631Y-68100755D01*
X109843178Y-67826187D01*
X128087277Y-67826187D01*
X128103503Y-68675387D01*
X128397261Y-69384582D01*
X128716030Y-69544365D01*
X130050395Y-68210000D01*
X130409605Y-68210000D01*
X131743970Y-69544365D01*
X132062739Y-69384582D01*
X132372723Y-68593813D01*
X132357674Y-67806187D01*
X140987277Y-67806187D01*
X141003503Y-68655387D01*
X141297261Y-69364582D01*
X141616030Y-69524365D01*
X142950395Y-68190000D01*
X143309605Y-68190000D01*
X144643970Y-69524365D01*
X144962739Y-69364582D01*
X145272723Y-68573813D01*
X145256497Y-67724613D01*
X144962739Y-67015418D01*
X144643970Y-66855635D01*
X143309605Y-68190000D01*
X142950395Y-68190000D01*
X141616030Y-66855635D01*
X141297261Y-67015418D01*
X140987277Y-67806187D01*
X132357674Y-67806187D01*
X132356497Y-67744613D01*
X132062739Y-67035418D01*
X131743970Y-66875635D01*
X130409605Y-68210000D01*
X130050395Y-68210000D01*
X128716030Y-66875635D01*
X128397261Y-67035418D01*
X128087277Y-67826187D01*
X109843178Y-67826187D01*
X110349719Y-66709501D01*
X110739426Y-66030910D01*
X117668695Y-66030910D01*
X118035640Y-66526343D01*
X119441171Y-67119736D01*
X120966793Y-67130087D01*
X122035142Y-66696030D01*
X128895635Y-66696030D01*
X130230000Y-68030395D01*
X131564365Y-66696030D01*
X131554340Y-66676030D01*
X141795635Y-66676030D01*
X143130000Y-68010395D01*
X144464365Y-66676030D01*
X144304582Y-66357261D01*
X143513813Y-66047277D01*
X142664613Y-66063503D01*
X141955418Y-66357261D01*
X141795635Y-66676030D01*
X131554340Y-66676030D01*
X131404582Y-66377261D01*
X130613813Y-66067277D01*
X129764613Y-66083503D01*
X129055418Y-66377261D01*
X128895635Y-66696030D01*
X122035142Y-66696030D01*
X122380246Y-66555819D01*
X122424360Y-66526343D01*
X122791305Y-66030910D01*
X149568695Y-66030910D01*
X149935640Y-66526343D01*
X151341171Y-67119736D01*
X152866793Y-67130087D01*
X154280246Y-66555819D01*
X154324360Y-66526343D01*
X154691305Y-66030910D01*
X152130000Y-63469605D01*
X149568695Y-66030910D01*
X122791305Y-66030910D01*
X120230000Y-63469605D01*
X117668695Y-66030910D01*
X110739426Y-66030910D01*
X111109444Y-65386604D01*
X111993550Y-64142386D01*
X112094032Y-64026793D01*
X116389913Y-64026793D01*
X116964181Y-65440246D01*
X116993657Y-65484360D01*
X117489090Y-65851305D01*
X120050395Y-63290000D01*
X120409605Y-63290000D01*
X122970910Y-65851305D01*
X123466343Y-65484360D01*
X124059736Y-64078829D01*
X124070087Y-62553207D01*
X123495819Y-61139754D01*
X123466343Y-61095640D01*
X122970910Y-60728695D01*
X120409605Y-63290000D01*
X120050395Y-63290000D01*
X117489090Y-60728695D01*
X116993657Y-61095640D01*
X116400264Y-62501171D01*
X116389913Y-64026793D01*
X112094032Y-64026793D01*
X112997907Y-62986995D01*
X114106296Y-61941172D01*
X115298637Y-61021532D01*
X116056531Y-60549090D01*
X117668695Y-60549090D01*
X120230000Y-63110395D01*
X122791305Y-60549090D01*
X122424360Y-60053657D01*
X121018829Y-59460264D01*
X119493207Y-59449913D01*
X118079754Y-60024181D01*
X118035640Y-60053657D01*
X117668695Y-60549090D01*
X116056531Y-60549090D01*
X116565129Y-60232050D01*
X117895889Y-59576823D01*
X119281003Y-59059986D01*
X120710661Y-58685659D01*
X122175101Y-58457990D01*
X123653344Y-58381743D01*
X125487094Y-58537848D01*
X127202975Y-58981552D01*
X128803857Y-59686864D01*
X130247584Y-60607808D01*
X131186502Y-61608842D01*
X132369028Y-63034645D01*
X133089163Y-63971831D01*
X133105146Y-63998023D01*
X133130159Y-64025184D01*
X133152665Y-64054473D01*
X133175756Y-64074695D01*
X133918128Y-64880809D01*
X133940832Y-64923480D01*
X134009599Y-64980135D01*
X134023375Y-64995093D01*
X134061585Y-65022963D01*
X134098069Y-65053021D01*
X134115976Y-65062636D01*
X134187968Y-65115147D01*
X134234950Y-65126520D01*
X135452220Y-65780133D01*
X135501815Y-65821942D01*
X135571085Y-65843958D01*
X135574533Y-65845809D01*
X135635412Y-65864402D01*
X135695970Y-65883649D01*
X135699852Y-65884083D01*
X135769374Y-65905316D01*
X135833945Y-65899080D01*
X136769448Y-66003705D01*
X136831833Y-66011524D01*
X136836415Y-66011195D01*
X136840975Y-66011705D01*
X136903563Y-66006374D01*
X137924570Y-65933068D01*
X137965355Y-65941456D01*
X138059348Y-65923392D01*
X138086223Y-65921462D01*
X138125467Y-65910684D01*
X138165418Y-65903006D01*
X138190371Y-65892859D01*
X138282675Y-65867509D01*
X138315552Y-65841955D01*
X138807868Y-65641759D01*
X138812151Y-65641735D01*
X138933854Y-65590528D01*
X138992607Y-65566636D01*
X138996090Y-65564341D01*
X138999931Y-65562725D01*
X139052427Y-65527224D01*
X139162728Y-65454552D01*
X139165131Y-65451006D01*
X139652146Y-65121653D01*
X139697143Y-65105865D01*
X139764022Y-65045995D01*
X139781394Y-65034247D01*
X139814181Y-65001093D01*
X139848933Y-64969983D01*
X139861533Y-64953211D01*
X139924645Y-64889392D01*
X139942648Y-64845236D01*
X140557494Y-64026793D01*
X148289913Y-64026793D01*
X148864181Y-65440246D01*
X148893657Y-65484360D01*
X149389090Y-65851305D01*
X151950395Y-63290000D01*
X152309605Y-63290000D01*
X154870910Y-65851305D01*
X155366343Y-65484360D01*
X155959736Y-64078829D01*
X155970087Y-62553207D01*
X155395819Y-61139754D01*
X155366343Y-61095640D01*
X154870910Y-60728695D01*
X152309605Y-63290000D01*
X151950395Y-63290000D01*
X149389090Y-60728695D01*
X148893657Y-61095640D01*
X148300264Y-62501171D01*
X148289913Y-64026793D01*
X140557494Y-64026793D01*
X140560623Y-64022628D01*
X140582556Y-63998937D01*
X140601030Y-63968841D01*
X140622254Y-63940589D01*
X140636245Y-63911472D01*
X141217355Y-62964790D01*
X142209893Y-61563037D01*
X142715717Y-60956899D01*
X143194254Y-60549090D01*
X149568695Y-60549090D01*
X152130000Y-63110395D01*
X154691305Y-60549090D01*
X154324360Y-60053657D01*
X152918829Y-59460264D01*
X151393207Y-59449913D01*
X149979754Y-60024181D01*
X149935640Y-60053657D01*
X149568695Y-60549090D01*
X143194254Y-60549090D01*
X143283922Y-60472675D01*
X144814998Y-59577276D01*
X146466137Y-58891001D01*
X148213920Y-58455002D01*
X150015656Y-58304163D01*
X150054659Y-58311921D01*
X150104676Y-58301972D01*
X151544356Y-58376239D01*
G36*
X135655000Y-94675874D02*
X135812569Y-95056280D01*
X136103720Y-95347431D01*
X136484126Y-95505000D01*
X136895874Y-95505000D01*
X137276280Y-95347431D01*
X137393711Y-95230000D01*
X138380001Y-95230000D01*
X138380000Y-97035197D01*
X138283739Y-97131458D01*
X137962500Y-97067560D01*
X137387500Y-97067560D01*
X137048848Y-97134922D01*
X136880460Y-97247435D01*
X136809698Y-97176673D01*
X136576309Y-97080000D01*
X136210750Y-97080000D01*
X136052000Y-97238750D01*
X136052000Y-98063000D01*
X136072000Y-98063000D01*
X136072000Y-98317000D01*
X136052000Y-98317000D01*
X136052000Y-99141250D01*
X136100750Y-99190000D01*
X136052000Y-99238750D01*
X136052000Y-100063000D01*
X136072000Y-100063000D01*
X136072000Y-100317000D01*
X136052000Y-100317000D01*
X136052000Y-100337000D01*
X135798000Y-100337000D01*
X135798000Y-100317000D01*
X134923750Y-100317000D01*
X134765000Y-100475750D01*
X134765000Y-100791310D01*
X134861673Y-101024699D01*
X134986639Y-101149664D01*
X134972585Y-101163718D01*
X134815016Y-101544124D01*
X134815016Y-101955872D01*
X134972585Y-102336278D01*
X135176406Y-102540099D01*
X135031753Y-102636753D01*
X134839922Y-102923848D01*
X134772560Y-103262500D01*
X134772560Y-103737500D01*
X134839922Y-104076152D01*
X135031753Y-104363247D01*
X135049343Y-104375000D01*
X135031753Y-104386753D01*
X134839922Y-104673848D01*
X134772560Y-105012500D01*
X134772560Y-105487500D01*
X134839922Y-105826152D01*
X135031753Y-106113247D01*
X135318848Y-106305078D01*
X135657500Y-106372440D01*
X135676409Y-106372440D01*
X135655000Y-106424126D01*
X135655000Y-106835874D01*
X135735409Y-107030000D01*
X135264802Y-107030000D01*
X133605001Y-105370200D01*
X133605001Y-101684849D01*
X133619889Y-101610001D01*
X133605001Y-101535153D01*
X133605001Y-101535149D01*
X133560905Y-101313464D01*
X133560905Y-101313463D01*
X133498267Y-101219719D01*
X133405001Y-101080138D01*
X133405001Y-100914125D01*
X133247432Y-100533719D01*
X132956281Y-100242568D01*
X132575875Y-100084999D01*
X132435000Y-100084999D01*
X132435000Y-99804126D01*
X132277431Y-99423720D01*
X132166151Y-99312440D01*
X132442500Y-99312440D01*
X132781152Y-99245078D01*
X132949540Y-99132565D01*
X133020302Y-99203327D01*
X133253691Y-99300000D01*
X133619250Y-99300000D01*
X133778000Y-99141250D01*
X133778000Y-98317000D01*
X134032000Y-98317000D01*
X134032000Y-99141250D01*
X134190750Y-99300000D01*
X134556309Y-99300000D01*
X134789698Y-99203327D01*
X134915000Y-99078026D01*
X135026975Y-99190000D01*
X134861673Y-99355301D01*
X134765000Y-99588690D01*
X134765000Y-99904250D01*
X134923750Y-100063000D01*
X135798000Y-100063000D01*
X135798000Y-99238750D01*
X135749250Y-99190000D01*
X135798000Y-99141250D01*
X135798000Y-98317000D01*
X134923750Y-98317000D01*
X134915000Y-98325750D01*
X134906250Y-98317000D01*
X134032000Y-98317000D01*
X133778000Y-98317000D01*
X133758000Y-98317000D01*
X133758000Y-98063000D01*
X133778000Y-98063000D01*
X133778000Y-97238750D01*
X134032000Y-97238750D01*
X134032000Y-98063000D01*
X134906250Y-98063000D01*
X134915000Y-98054250D01*
X134923750Y-98063000D01*
X135798000Y-98063000D01*
X135798000Y-97238750D01*
X135639250Y-97080000D01*
X135273691Y-97080000D01*
X135040302Y-97176673D01*
X134915000Y-97301974D01*
X134789698Y-97176673D01*
X134556309Y-97080000D01*
X134190750Y-97080000D01*
X134032000Y-97238750D01*
X133778000Y-97238750D01*
X133619250Y-97080000D01*
X133253691Y-97080000D01*
X133090000Y-97147803D01*
X133090000Y-97093711D01*
X133207431Y-96976280D01*
X133365000Y-96595874D01*
X133365000Y-96184126D01*
X133207431Y-95803720D01*
X132978711Y-95575000D01*
X134030153Y-95575000D01*
X134105000Y-95589888D01*
X134179847Y-95575000D01*
X134179852Y-95575000D01*
X134401537Y-95530904D01*
X134652929Y-95362929D01*
X134695331Y-95299470D01*
X135655000Y-94339802D01*
X135655000Y-94675874D01*
X135655000Y-94675874D01*
G37*
X135655000Y-94675874D02*
X135812569Y-95056280D01*
X136103720Y-95347431D01*
X136484126Y-95505000D01*
X136895874Y-95505000D01*
X137276280Y-95347431D01*
X137393711Y-95230000D01*
X138380001Y-95230000D01*
X138380000Y-97035197D01*
X138283739Y-97131458D01*
X137962500Y-97067560D01*
X137387500Y-97067560D01*
X137048848Y-97134922D01*
X136880460Y-97247435D01*
X136809698Y-97176673D01*
X136576309Y-97080000D01*
X136210750Y-97080000D01*
X136052000Y-97238750D01*
X136052000Y-98063000D01*
X136072000Y-98063000D01*
X136072000Y-98317000D01*
X136052000Y-98317000D01*
X136052000Y-99141250D01*
X136100750Y-99190000D01*
X136052000Y-99238750D01*
X136052000Y-100063000D01*
X136072000Y-100063000D01*
X136072000Y-100317000D01*
X136052000Y-100317000D01*
X136052000Y-100337000D01*
X135798000Y-100337000D01*
X135798000Y-100317000D01*
X134923750Y-100317000D01*
X134765000Y-100475750D01*
X134765000Y-100791310D01*
X134861673Y-101024699D01*
X134986639Y-101149664D01*
X134972585Y-101163718D01*
X134815016Y-101544124D01*
X134815016Y-101955872D01*
X134972585Y-102336278D01*
X135176406Y-102540099D01*
X135031753Y-102636753D01*
X134839922Y-102923848D01*
X134772560Y-103262500D01*
X134772560Y-103737500D01*
X134839922Y-104076152D01*
X135031753Y-104363247D01*
X135049343Y-104375000D01*
X135031753Y-104386753D01*
X134839922Y-104673848D01*
X134772560Y-105012500D01*
X134772560Y-105487500D01*
X134839922Y-105826152D01*
X135031753Y-106113247D01*
X135318848Y-106305078D01*
X135657500Y-106372440D01*
X135676409Y-106372440D01*
X135655000Y-106424126D01*
X135655000Y-106835874D01*
X135735409Y-107030000D01*
X135264802Y-107030000D01*
X133605001Y-105370200D01*
X133605001Y-101684849D01*
X133619889Y-101610001D01*
X133605001Y-101535153D01*
X133605001Y-101535149D01*
X133560905Y-101313464D01*
X133560905Y-101313463D01*
X133498267Y-101219719D01*
X133405001Y-101080138D01*
X133405001Y-100914125D01*
X133247432Y-100533719D01*
X132956281Y-100242568D01*
X132575875Y-100084999D01*
X132435000Y-100084999D01*
X132435000Y-99804126D01*
X132277431Y-99423720D01*
X132166151Y-99312440D01*
X132442500Y-99312440D01*
X132781152Y-99245078D01*
X132949540Y-99132565D01*
X133020302Y-99203327D01*
X133253691Y-99300000D01*
X133619250Y-99300000D01*
X133778000Y-99141250D01*
X133778000Y-98317000D01*
X134032000Y-98317000D01*
X134032000Y-99141250D01*
X134190750Y-99300000D01*
X134556309Y-99300000D01*
X134789698Y-99203327D01*
X134915000Y-99078026D01*
X135026975Y-99190000D01*
X134861673Y-99355301D01*
X134765000Y-99588690D01*
X134765000Y-99904250D01*
X134923750Y-100063000D01*
X135798000Y-100063000D01*
X135798000Y-99238750D01*
X135749250Y-99190000D01*
X135798000Y-99141250D01*
X135798000Y-98317000D01*
X134923750Y-98317000D01*
X134915000Y-98325750D01*
X134906250Y-98317000D01*
X134032000Y-98317000D01*
X133778000Y-98317000D01*
X133758000Y-98317000D01*
X133758000Y-98063000D01*
X133778000Y-98063000D01*
X133778000Y-97238750D01*
X134032000Y-97238750D01*
X134032000Y-98063000D01*
X134906250Y-98063000D01*
X134915000Y-98054250D01*
X134923750Y-98063000D01*
X135798000Y-98063000D01*
X135798000Y-97238750D01*
X135639250Y-97080000D01*
X135273691Y-97080000D01*
X135040302Y-97176673D01*
X134915000Y-97301974D01*
X134789698Y-97176673D01*
X134556309Y-97080000D01*
X134190750Y-97080000D01*
X134032000Y-97238750D01*
X133778000Y-97238750D01*
X133619250Y-97080000D01*
X133253691Y-97080000D01*
X133090000Y-97147803D01*
X133090000Y-97093711D01*
X133207431Y-96976280D01*
X133365000Y-96595874D01*
X133365000Y-96184126D01*
X133207431Y-95803720D01*
X132978711Y-95575000D01*
X134030153Y-95575000D01*
X134105000Y-95589888D01*
X134179847Y-95575000D01*
X134179852Y-95575000D01*
X134401537Y-95530904D01*
X134652929Y-95362929D01*
X134695331Y-95299470D01*
X135655000Y-94339802D01*
X135655000Y-94675874D01*
G36*
X130077000Y-100188000D02*
X130097000Y-100188000D01*
X130097000Y-100442000D01*
X130077000Y-100442000D01*
X130077000Y-101316250D01*
X130235750Y-101475000D01*
X130551310Y-101475000D01*
X130784699Y-101378327D01*
X130963327Y-101199698D01*
X131051821Y-100986055D01*
X131194126Y-101045000D01*
X131335001Y-101045000D01*
X131335001Y-101325873D01*
X131492570Y-101706279D01*
X131783721Y-101997430D01*
X132085002Y-102122224D01*
X132085002Y-102489908D01*
X131855874Y-102395000D01*
X131444126Y-102395000D01*
X131063720Y-102552569D01*
X130936289Y-102680000D01*
X129842440Y-102680000D01*
X129842440Y-102527500D01*
X129775078Y-102188848D01*
X129583247Y-101901753D01*
X129460000Y-101819402D01*
X129460000Y-101475000D01*
X129664250Y-101475000D01*
X129823000Y-101316250D01*
X129823000Y-100442000D01*
X129803000Y-100442000D01*
X129803000Y-100188000D01*
X129823000Y-100188000D01*
X129823000Y-100168000D01*
X130077000Y-100168000D01*
X130077000Y-100188000D01*
X130077000Y-100188000D01*
G37*
X130077000Y-100188000D02*
X130097000Y-100188000D01*
X130097000Y-100442000D01*
X130077000Y-100442000D01*
X130077000Y-101316250D01*
X130235750Y-101475000D01*
X130551310Y-101475000D01*
X130784699Y-101378327D01*
X130963327Y-101199698D01*
X131051821Y-100986055D01*
X131194126Y-101045000D01*
X131335001Y-101045000D01*
X131335001Y-101325873D01*
X131492570Y-101706279D01*
X131783721Y-101997430D01*
X132085002Y-102122224D01*
X132085002Y-102489908D01*
X131855874Y-102395000D01*
X131444126Y-102395000D01*
X131063720Y-102552569D01*
X130936289Y-102680000D01*
X129842440Y-102680000D01*
X129842440Y-102527500D01*
X129775078Y-102188848D01*
X129583247Y-101901753D01*
X129460000Y-101819402D01*
X129460000Y-101475000D01*
X129664250Y-101475000D01*
X129823000Y-101316250D01*
X129823000Y-100442000D01*
X129803000Y-100442000D01*
X129803000Y-100188000D01*
X129823000Y-100188000D01*
X129823000Y-100168000D01*
X130077000Y-100168000D01*
X130077000Y-100188000D01*
G36*
X137032936Y-102311280D02*
X137111656Y-102390000D01*
X137043691Y-102390000D01*
X136810302Y-102486673D01*
X136739540Y-102557435D01*
X136705000Y-102534356D01*
X136705000Y-102358725D01*
X136727447Y-102336278D01*
X136885016Y-101955872D01*
X136885016Y-101954169D01*
X137032936Y-102311280D01*
X137032936Y-102311280D01*
G37*
X137032936Y-102311280D02*
X137111656Y-102390000D01*
X137043691Y-102390000D01*
X136810302Y-102486673D01*
X136739540Y-102557435D01*
X136705000Y-102534356D01*
X136705000Y-102358725D01*
X136727447Y-102336278D01*
X136885016Y-101955872D01*
X136885016Y-101954169D01*
X137032936Y-102311280D01*
G36*
X133730000Y-91192983D02*
X133565874Y-91125000D01*
X133154126Y-91125000D01*
X132773720Y-91282569D01*
X132656289Y-91400000D01*
X131569802Y-91400000D01*
X129457026Y-89287224D01*
X129543000Y-89201250D01*
X129543000Y-88377000D01*
X129797000Y-88377000D01*
X129797000Y-89201250D01*
X129955750Y-89360000D01*
X130321309Y-89360000D01*
X130554698Y-89263327D01*
X130733327Y-89084699D01*
X130830000Y-88851310D01*
X130830000Y-88535750D01*
X130671250Y-88377000D01*
X129797000Y-88377000D01*
X129543000Y-88377000D01*
X129523000Y-88377000D01*
X129523000Y-88123000D01*
X129543000Y-88123000D01*
X129543000Y-88103000D01*
X129797000Y-88103000D01*
X129797000Y-88123000D01*
X130671250Y-88123000D01*
X130830000Y-87964250D01*
X130830000Y-87648690D01*
X130733327Y-87415301D01*
X130554698Y-87236673D01*
X130519318Y-87222018D01*
X130600078Y-87101152D01*
X130667440Y-86762500D01*
X130667440Y-86187500D01*
X130600078Y-85848848D01*
X130433803Y-85600000D01*
X130510644Y-85485000D01*
X131090153Y-85485000D01*
X131165000Y-85499888D01*
X131239847Y-85485000D01*
X131239852Y-85485000D01*
X131461537Y-85440904D01*
X131712929Y-85272929D01*
X131755331Y-85209470D01*
X132839802Y-84125000D01*
X133005874Y-84125000D01*
X133386280Y-83967431D01*
X133677431Y-83676280D01*
X133730001Y-83549365D01*
X133730000Y-91192983D01*
X133730000Y-91192983D01*
G37*
X133730000Y-91192983D02*
X133565874Y-91125000D01*
X133154126Y-91125000D01*
X132773720Y-91282569D01*
X132656289Y-91400000D01*
X131569802Y-91400000D01*
X129457026Y-89287224D01*
X129543000Y-89201250D01*
X129543000Y-88377000D01*
X129797000Y-88377000D01*
X129797000Y-89201250D01*
X129955750Y-89360000D01*
X130321309Y-89360000D01*
X130554698Y-89263327D01*
X130733327Y-89084699D01*
X130830000Y-88851310D01*
X130830000Y-88535750D01*
X130671250Y-88377000D01*
X129797000Y-88377000D01*
X129543000Y-88377000D01*
X129523000Y-88377000D01*
X129523000Y-88123000D01*
X129543000Y-88123000D01*
X129543000Y-88103000D01*
X129797000Y-88103000D01*
X129797000Y-88123000D01*
X130671250Y-88123000D01*
X130830000Y-87964250D01*
X130830000Y-87648690D01*
X130733327Y-87415301D01*
X130554698Y-87236673D01*
X130519318Y-87222018D01*
X130600078Y-87101152D01*
X130667440Y-86762500D01*
X130667440Y-86187500D01*
X130600078Y-85848848D01*
X130433803Y-85600000D01*
X130510644Y-85485000D01*
X131090153Y-85485000D01*
X131165000Y-85499888D01*
X131239847Y-85485000D01*
X131239852Y-85485000D01*
X131461537Y-85440904D01*
X131712929Y-85272929D01*
X131755331Y-85209470D01*
X132839802Y-84125000D01*
X133005874Y-84125000D01*
X133386280Y-83967431D01*
X133677431Y-83676280D01*
X133730001Y-83549365D01*
X133730000Y-91192983D01*
G36*
X132495000Y-77590000D02*
X132512500Y-77677979D01*
X132512500Y-77693849D01*
X132604609Y-78156910D01*
X132955477Y-78682023D01*
X133480589Y-79032891D01*
X133730001Y-79082502D01*
X133730001Y-80820199D01*
X133400331Y-80490530D01*
X133357929Y-80427071D01*
X133106537Y-80259096D01*
X132884852Y-80215000D01*
X132884847Y-80215000D01*
X132810000Y-80200112D01*
X132735153Y-80215000D01*
X130510644Y-80215000D01*
X130408247Y-80061753D01*
X130121152Y-79869922D01*
X129782500Y-79802560D01*
X129307500Y-79802560D01*
X128968848Y-79869922D01*
X128820675Y-79968928D01*
X128802809Y-79942191D01*
X128718113Y-79885598D01*
X128827431Y-79776280D01*
X128985000Y-79395874D01*
X128985000Y-78984126D01*
X128827431Y-78603720D01*
X128536280Y-78312569D01*
X128155874Y-78155000D01*
X127744126Y-78155000D01*
X127363720Y-78312569D01*
X127072569Y-78603720D01*
X126915000Y-78984126D01*
X126915000Y-79395874D01*
X127072569Y-79776280D01*
X127135001Y-79838712D01*
X127135001Y-79843427D01*
X126987191Y-79942191D01*
X126846843Y-80152235D01*
X126797560Y-80400000D01*
X126797560Y-80888684D01*
X126655000Y-80793427D01*
X126655000Y-77939801D01*
X129069802Y-75525000D01*
X132495000Y-75525000D01*
X132495000Y-77590000D01*
X132495000Y-77590000D01*
G37*
X132495000Y-77590000D02*
X132512500Y-77677979D01*
X132512500Y-77693849D01*
X132604609Y-78156910D01*
X132955477Y-78682023D01*
X133480589Y-79032891D01*
X133730001Y-79082502D01*
X133730001Y-80820199D01*
X133400331Y-80490530D01*
X133357929Y-80427071D01*
X133106537Y-80259096D01*
X132884852Y-80215000D01*
X132884847Y-80215000D01*
X132810000Y-80200112D01*
X132735153Y-80215000D01*
X130510644Y-80215000D01*
X130408247Y-80061753D01*
X130121152Y-79869922D01*
X129782500Y-79802560D01*
X129307500Y-79802560D01*
X128968848Y-79869922D01*
X128820675Y-79968928D01*
X128802809Y-79942191D01*
X128718113Y-79885598D01*
X128827431Y-79776280D01*
X128985000Y-79395874D01*
X128985000Y-78984126D01*
X128827431Y-78603720D01*
X128536280Y-78312569D01*
X128155874Y-78155000D01*
X127744126Y-78155000D01*
X127363720Y-78312569D01*
X127072569Y-78603720D01*
X126915000Y-78984126D01*
X126915000Y-79395874D01*
X127072569Y-79776280D01*
X127135001Y-79838712D01*
X127135001Y-79843427D01*
X126987191Y-79942191D01*
X126846843Y-80152235D01*
X126797560Y-80400000D01*
X126797560Y-80888684D01*
X126655000Y-80793427D01*
X126655000Y-77939801D01*
X129069802Y-75525000D01*
X132495000Y-75525000D01*
X132495000Y-77590000D01*
G04 #@! TO.N,/SOLAR*
G36*
X144503000Y-74663000D02*
X137630000Y-74663000D01*
X137581399Y-74672667D01*
X137540197Y-74700197D01*
X137512667Y-74741399D01*
X137503000Y-74790000D01*
X137503000Y-77463000D01*
X135857000Y-77463000D01*
X135857000Y-71917000D01*
X144503000Y-71917000D01*
X144503000Y-74663000D01*
X144503000Y-74663000D01*
G37*
X144503000Y-74663000D02*
X137630000Y-74663000D01*
X137581399Y-74672667D01*
X137540197Y-74700197D01*
X137512667Y-74741399D01*
X137503000Y-74790000D01*
X137503000Y-77463000D01*
X135857000Y-77463000D01*
X135857000Y-71917000D01*
X144503000Y-71917000D01*
X144503000Y-74663000D01*
G04 #@! TO.N,/BATT*
G36*
X134903000Y-77463000D02*
X133257000Y-77463000D01*
X133257000Y-74890000D01*
X133247333Y-74841399D01*
X133219803Y-74800197D01*
X133178601Y-74772667D01*
X133130000Y-74763000D01*
X128857000Y-74763000D01*
X128857000Y-71917000D01*
X134903000Y-71917000D01*
X134903000Y-77463000D01*
X134903000Y-77463000D01*
G37*
X134903000Y-77463000D02*
X133257000Y-77463000D01*
X133257000Y-74890000D01*
X133247333Y-74841399D01*
X133219803Y-74800197D01*
X133178601Y-74772667D01*
X133130000Y-74763000D01*
X128857000Y-74763000D01*
X128857000Y-71917000D01*
X134903000Y-71917000D01*
X134903000Y-77463000D01*
G04 #@! TD*
M02*
